G04 EAGLE Gerber X2 export*
%TF.Part,Single*%
%TF.FileFunction,Paste,Top*%
%TF.FilePolarity,Positive*%
%TF.GenerationSoftware,Autodesk,EAGLE,9.6.2*%
%TF.CreationDate,2020-11-13T17:21:46Z*%
G75*
%MOMM*%
%FSLAX34Y34*%
%LPD*%
%INSolderpaste Top*%
%AMOC8*
5,1,8,0,0,1.08239X$1,22.5*%
G01*
%ADD10R,1.500000X1.300000*%
%ADD11R,1.300000X1.500000*%
%ADD12R,1.525000X0.650000*%
%ADD13R,1.200000X1.200000*%
%ADD14R,0.787400X0.889000*%
%ADD15R,0.580000X1.390000*%
%ADD16R,2.060000X2.060000*%
%ADD17C,0.160000*%
%ADD18R,0.550000X1.600000*%
%ADD19R,1.600000X0.550000*%
%ADD20R,1.803400X2.590800*%
%ADD21R,0.400000X1.900000*%
%ADD22R,1.499997X1.400047*%
%ADD23R,1.799997X0.400000*%
%ADD24R,1.270000X0.635000*%


D10*
X380400Y395800D03*
X380400Y414800D03*
D11*
X506700Y327900D03*
X525700Y327900D03*
X481700Y417000D03*
X500700Y417000D03*
D12*
X481680Y103100D03*
X481680Y90400D03*
X481680Y77700D03*
X481680Y65000D03*
X481680Y52300D03*
X481680Y39600D03*
X481680Y26900D03*
X535920Y26900D03*
X535920Y39600D03*
X535920Y52300D03*
X535920Y65000D03*
X535920Y77700D03*
X535920Y90400D03*
X535920Y103100D03*
X481680Y204700D03*
X481680Y192000D03*
X481680Y179300D03*
X481680Y166600D03*
X481680Y153900D03*
X481680Y141200D03*
X481680Y128500D03*
X535920Y128500D03*
X535920Y141200D03*
X535920Y153900D03*
X535920Y166600D03*
X535920Y179300D03*
X535920Y192000D03*
X535920Y204700D03*
X535920Y230100D03*
X535920Y242800D03*
X535920Y255500D03*
X535920Y268200D03*
X535920Y280900D03*
X535920Y293600D03*
X535920Y306300D03*
X481680Y306300D03*
X481680Y293600D03*
X481680Y280900D03*
X481680Y268200D03*
X481680Y255500D03*
X481680Y242800D03*
X481680Y230100D03*
D13*
X245400Y417000D03*
X266400Y417000D03*
X211200Y314800D03*
X190200Y314800D03*
X211200Y365600D03*
X190200Y365600D03*
X211200Y416400D03*
X190200Y416400D03*
X246400Y365500D03*
X267400Y365500D03*
D10*
X87600Y397300D03*
X87600Y416300D03*
X97500Y335100D03*
X97500Y316100D03*
X44400Y397400D03*
X44400Y416400D03*
X54300Y335000D03*
X54300Y316000D03*
D14*
X404694Y339040D03*
X423998Y339040D03*
X414346Y359360D03*
X450894Y380740D03*
X470198Y380740D03*
X460546Y401060D03*
X450894Y339040D03*
X470198Y339040D03*
X460546Y359360D03*
X404694Y380740D03*
X423998Y380740D03*
X414346Y401060D03*
X78094Y356640D03*
X97398Y356640D03*
X87746Y376960D03*
X34594Y358240D03*
X53898Y358240D03*
X44246Y378560D03*
D15*
X509400Y382950D03*
X499900Y382950D03*
X490400Y382950D03*
X490400Y359650D03*
X509400Y359650D03*
D16*
X334800Y366900D03*
D17*
X322600Y345650D02*
X322600Y339150D01*
X321000Y339150D01*
X321000Y345650D01*
X322600Y345650D01*
X322600Y340670D02*
X321000Y340670D01*
X321000Y342190D02*
X322600Y342190D01*
X322600Y343710D02*
X321000Y343710D01*
X321000Y345230D02*
X322600Y345230D01*
X329100Y345650D02*
X329100Y339150D01*
X327500Y339150D01*
X327500Y345650D01*
X329100Y345650D01*
X329100Y340670D02*
X327500Y340670D01*
X327500Y342190D02*
X329100Y342190D01*
X329100Y343710D02*
X327500Y343710D01*
X327500Y345230D02*
X329100Y345230D01*
X335600Y345650D02*
X335600Y339150D01*
X334000Y339150D01*
X334000Y345650D01*
X335600Y345650D01*
X335600Y340670D02*
X334000Y340670D01*
X334000Y342190D02*
X335600Y342190D01*
X335600Y343710D02*
X334000Y343710D01*
X334000Y345230D02*
X335600Y345230D01*
X342100Y345650D02*
X342100Y339150D01*
X340500Y339150D01*
X340500Y345650D01*
X342100Y345650D01*
X342100Y340670D02*
X340500Y340670D01*
X340500Y342190D02*
X342100Y342190D01*
X342100Y343710D02*
X340500Y343710D01*
X340500Y345230D02*
X342100Y345230D01*
X348600Y345650D02*
X348600Y339150D01*
X347000Y339150D01*
X347000Y345650D01*
X348600Y345650D01*
X348600Y340670D02*
X347000Y340670D01*
X347000Y342190D02*
X348600Y342190D01*
X348600Y343710D02*
X347000Y343710D01*
X347000Y345230D02*
X348600Y345230D01*
X348600Y388150D02*
X348600Y394650D01*
X348600Y388150D02*
X347000Y388150D01*
X347000Y394650D01*
X348600Y394650D01*
X348600Y389670D02*
X347000Y389670D01*
X347000Y391190D02*
X348600Y391190D01*
X348600Y392710D02*
X347000Y392710D01*
X347000Y394230D02*
X348600Y394230D01*
X342100Y394650D02*
X342100Y388150D01*
X340500Y388150D01*
X340500Y394650D01*
X342100Y394650D01*
X342100Y389670D02*
X340500Y389670D01*
X340500Y391190D02*
X342100Y391190D01*
X342100Y392710D02*
X340500Y392710D01*
X340500Y394230D02*
X342100Y394230D01*
X335600Y394650D02*
X335600Y388150D01*
X334000Y388150D01*
X334000Y394650D01*
X335600Y394650D01*
X335600Y389670D02*
X334000Y389670D01*
X334000Y391190D02*
X335600Y391190D01*
X335600Y392710D02*
X334000Y392710D01*
X334000Y394230D02*
X335600Y394230D01*
X329100Y394650D02*
X329100Y388150D01*
X327500Y388150D01*
X327500Y394650D01*
X329100Y394650D01*
X329100Y389670D02*
X327500Y389670D01*
X327500Y391190D02*
X329100Y391190D01*
X329100Y392710D02*
X327500Y392710D01*
X327500Y394230D02*
X329100Y394230D01*
X322600Y394650D02*
X322600Y388150D01*
X321000Y388150D01*
X321000Y394650D01*
X322600Y394650D01*
X322600Y389670D02*
X321000Y389670D01*
X321000Y391190D02*
X322600Y391190D01*
X322600Y392710D02*
X321000Y392710D01*
X321000Y394230D02*
X322600Y394230D01*
X313550Y379100D02*
X307050Y379100D01*
X307050Y380700D01*
X313550Y380700D01*
X313550Y379100D01*
X313550Y380620D02*
X307050Y380620D01*
X307050Y372600D02*
X313550Y372600D01*
X307050Y372600D02*
X307050Y374200D01*
X313550Y374200D01*
X313550Y372600D01*
X313550Y374120D02*
X307050Y374120D01*
X307050Y366100D02*
X313550Y366100D01*
X307050Y366100D02*
X307050Y367700D01*
X313550Y367700D01*
X313550Y366100D01*
X313550Y367620D02*
X307050Y367620D01*
X307050Y359600D02*
X313550Y359600D01*
X307050Y359600D02*
X307050Y361200D01*
X313550Y361200D01*
X313550Y359600D01*
X313550Y361120D02*
X307050Y361120D01*
X307050Y353100D02*
X313550Y353100D01*
X307050Y353100D02*
X307050Y354700D01*
X313550Y354700D01*
X313550Y353100D01*
X313550Y354620D02*
X307050Y354620D01*
X356050Y353100D02*
X362550Y353100D01*
X356050Y353100D02*
X356050Y354700D01*
X362550Y354700D01*
X362550Y353100D01*
X362550Y354620D02*
X356050Y354620D01*
X356050Y359600D02*
X362550Y359600D01*
X356050Y359600D02*
X356050Y361200D01*
X362550Y361200D01*
X362550Y359600D01*
X362550Y361120D02*
X356050Y361120D01*
X356050Y366100D02*
X362550Y366100D01*
X356050Y366100D02*
X356050Y367700D01*
X362550Y367700D01*
X362550Y366100D01*
X362550Y367620D02*
X356050Y367620D01*
X356050Y372600D02*
X362550Y372600D01*
X356050Y372600D02*
X356050Y374200D01*
X362550Y374200D01*
X362550Y372600D01*
X362550Y374120D02*
X356050Y374120D01*
X356050Y379100D02*
X362550Y379100D01*
X356050Y379100D02*
X356050Y380700D01*
X362550Y380700D01*
X362550Y379100D01*
X362550Y380620D02*
X356050Y380620D01*
D18*
X403100Y291000D03*
X395100Y291000D03*
X387100Y291000D03*
X379100Y291000D03*
X371100Y291000D03*
X363100Y291000D03*
X355100Y291000D03*
X347100Y291000D03*
D19*
X333300Y277200D03*
X333300Y269200D03*
X333300Y261200D03*
X333300Y253200D03*
X333300Y245200D03*
X333300Y237200D03*
X333300Y229200D03*
X333300Y221200D03*
D18*
X347100Y207400D03*
X355100Y207400D03*
X363100Y207400D03*
X371100Y207400D03*
X379100Y207400D03*
X387100Y207400D03*
X395100Y207400D03*
X403100Y207400D03*
D19*
X416900Y221200D03*
X416900Y229200D03*
X416900Y237200D03*
X416900Y245200D03*
X416900Y253200D03*
X416900Y261200D03*
X416900Y269200D03*
X416900Y277200D03*
D20*
X319793Y101843D03*
X431807Y101843D03*
D21*
X321250Y422800D03*
X333250Y422800D03*
X345250Y422800D03*
D22*
X583346Y337241D03*
D23*
X577545Y356776D03*
D24*
X610755Y410489D03*
X610755Y328991D03*
D23*
X577545Y363278D03*
X577545Y369781D03*
X577545Y376283D03*
X577545Y382785D03*
D22*
X583346Y402239D03*
M02*
