G04 EAGLE Gerber RS-274X export*
G75*
%MOMM*%
%FSLAX34Y34*%
%LPD*%
%INBottom Copper*%
%IPPOS*%
%AMOC8*
5,1,8,0,0,1.08239X$1,22.5*%
G01*
%ADD10C,1.625600*%
%ADD11C,2.184400*%
%ADD12R,1.508000X1.508000*%
%ADD13C,1.508000*%
%ADD14C,1.638300*%
%ADD15C,1.498600*%
%ADD16C,0.654800*%
%ADD17C,0.203200*%
%ADD18C,0.406400*%

G36*
X753087Y228992D02*
X753087Y228992D01*
X753116Y228991D01*
X753226Y229020D01*
X753337Y229042D01*
X753363Y229056D01*
X753391Y229063D01*
X753489Y229121D01*
X753589Y229173D01*
X753611Y229194D01*
X753636Y229209D01*
X753713Y229291D01*
X753795Y229369D01*
X753810Y229394D01*
X753830Y229416D01*
X753882Y229517D01*
X753939Y229614D01*
X753946Y229643D01*
X753960Y229669D01*
X753973Y229746D01*
X754009Y229890D01*
X754007Y229952D01*
X754015Y230000D01*
X754015Y632000D01*
X754007Y632058D01*
X754009Y632116D01*
X753987Y632198D01*
X753975Y632282D01*
X753952Y632335D01*
X753937Y632391D01*
X753894Y632464D01*
X753859Y632541D01*
X753821Y632586D01*
X753792Y632636D01*
X753730Y632694D01*
X753676Y632758D01*
X753627Y632790D01*
X753584Y632830D01*
X753509Y632869D01*
X753439Y632916D01*
X753383Y632933D01*
X753331Y632960D01*
X753263Y632971D01*
X753168Y633001D01*
X753068Y633004D01*
X753000Y633015D01*
X-1887Y633015D01*
X-1946Y633007D01*
X-2006Y633008D01*
X-2086Y632987D01*
X-2169Y632975D01*
X-2223Y632951D01*
X-2281Y632936D01*
X-2352Y632893D01*
X-2428Y632859D01*
X-2474Y632821D01*
X-2525Y632790D01*
X-2582Y632729D01*
X-2645Y632676D01*
X-2678Y632626D01*
X-2719Y632582D01*
X-2757Y632508D01*
X-2803Y632439D01*
X-2821Y632382D01*
X-2848Y632329D01*
X-2859Y632261D01*
X-2889Y632168D01*
X-2891Y632066D01*
X-2902Y631998D01*
X-1941Y230998D01*
X-1933Y230943D01*
X-1934Y230899D01*
X-1934Y230897D01*
X-1934Y230884D01*
X-1913Y230801D01*
X-1900Y230716D01*
X-1877Y230664D01*
X-1862Y230609D01*
X-1819Y230535D01*
X-1783Y230457D01*
X-1746Y230413D01*
X-1717Y230364D01*
X-1655Y230306D01*
X-1599Y230240D01*
X-1552Y230209D01*
X-1510Y230170D01*
X-1434Y230131D01*
X-1362Y230083D01*
X-1308Y230066D01*
X-1257Y230040D01*
X-1188Y230029D01*
X-1091Y229998D01*
X-993Y229996D01*
X-926Y229985D01*
X351089Y229985D01*
X351174Y229997D01*
X351260Y229999D01*
X351314Y230017D01*
X351370Y230025D01*
X351449Y230060D01*
X351531Y230086D01*
X351578Y230118D01*
X351630Y230141D01*
X351695Y230196D01*
X351767Y230244D01*
X351803Y230288D01*
X351847Y230325D01*
X351894Y230396D01*
X351950Y230462D01*
X351973Y230514D01*
X352004Y230561D01*
X352030Y230643D01*
X352065Y230722D01*
X352073Y230778D01*
X352090Y230832D01*
X352092Y230918D01*
X352104Y231003D01*
X352096Y231059D01*
X352097Y231116D01*
X352076Y231199D01*
X352063Y231285D01*
X352040Y231336D01*
X352026Y231391D01*
X351982Y231465D01*
X351946Y231544D01*
X351909Y231587D01*
X351880Y231636D01*
X351818Y231695D01*
X351762Y231760D01*
X351720Y231786D01*
X351673Y231830D01*
X351544Y231896D01*
X351477Y231938D01*
X348478Y233181D01*
X344941Y236717D01*
X343026Y241339D01*
X343026Y246341D01*
X344941Y250963D01*
X348477Y254499D01*
X353099Y256414D01*
X358101Y256414D01*
X362723Y254499D01*
X366259Y250962D01*
X367108Y248914D01*
X367123Y248889D01*
X367132Y248861D01*
X367195Y248766D01*
X367253Y248669D01*
X367274Y248649D01*
X367290Y248625D01*
X367377Y248552D01*
X367459Y248474D01*
X367485Y248460D01*
X367508Y248442D01*
X367611Y248395D01*
X367712Y248344D01*
X367741Y248338D01*
X367768Y248326D01*
X367880Y248311D01*
X367991Y248289D01*
X368020Y248291D01*
X368049Y248287D01*
X368161Y248303D01*
X368274Y248313D01*
X368301Y248324D01*
X368330Y248328D01*
X368434Y248374D01*
X368539Y248415D01*
X368563Y248433D01*
X368590Y248445D01*
X368676Y248518D01*
X368766Y248587D01*
X368784Y248610D01*
X368806Y248629D01*
X368848Y248696D01*
X368936Y248814D01*
X368958Y248873D01*
X368984Y248914D01*
X369833Y250963D01*
X373369Y254499D01*
X377991Y256414D01*
X382993Y256414D01*
X387615Y254499D01*
X391151Y250963D01*
X393066Y246341D01*
X393066Y241339D01*
X391151Y236717D01*
X387614Y233181D01*
X384615Y231938D01*
X384541Y231894D01*
X384462Y231859D01*
X384419Y231822D01*
X384370Y231793D01*
X384311Y231731D01*
X384245Y231676D01*
X384214Y231628D01*
X384175Y231587D01*
X384135Y231510D01*
X384088Y231439D01*
X384070Y231385D01*
X384044Y231334D01*
X384028Y231250D01*
X384002Y231168D01*
X384000Y231111D01*
X383989Y231055D01*
X383997Y230970D01*
X383995Y230884D01*
X384009Y230829D01*
X384014Y230772D01*
X384045Y230692D01*
X384066Y230609D01*
X384095Y230560D01*
X384116Y230507D01*
X384168Y230438D01*
X384212Y230364D01*
X384253Y230325D01*
X384288Y230280D01*
X384356Y230229D01*
X384419Y230170D01*
X384470Y230144D01*
X384515Y230110D01*
X384596Y230079D01*
X384672Y230040D01*
X384721Y230032D01*
X384781Y230009D01*
X384926Y229998D01*
X385003Y229985D01*
X751580Y229985D01*
X752282Y229282D01*
X752306Y229265D01*
X752325Y229242D01*
X752419Y229179D01*
X752509Y229111D01*
X752537Y229101D01*
X752561Y229085D01*
X752669Y229050D01*
X752775Y229010D01*
X752804Y229008D01*
X752832Y228999D01*
X752946Y228996D01*
X753058Y228986D01*
X753087Y228992D01*
G37*
%LPC*%
G36*
X475317Y267969D02*
X475317Y267969D01*
X473076Y268897D01*
X471219Y270755D01*
X461470Y280503D01*
X461424Y280538D01*
X461384Y280581D01*
X461311Y280624D01*
X461243Y280674D01*
X461189Y280695D01*
X461138Y280725D01*
X461057Y280745D01*
X460978Y280776D01*
X460919Y280780D01*
X460863Y280795D01*
X460778Y280792D01*
X460694Y280799D01*
X460637Y280788D01*
X460579Y280786D01*
X460498Y280760D01*
X460416Y280743D01*
X460364Y280716D01*
X460308Y280698D01*
X460252Y280658D01*
X460163Y280612D01*
X460091Y280543D01*
X460035Y280503D01*
X458065Y278534D01*
X452183Y276097D01*
X445817Y276097D01*
X439935Y278534D01*
X435434Y283035D01*
X432997Y288917D01*
X432997Y295283D01*
X434487Y298880D01*
X434516Y298991D01*
X434550Y299101D01*
X434551Y299128D01*
X434558Y299155D01*
X434555Y299270D01*
X434558Y299385D01*
X434551Y299412D01*
X434550Y299439D01*
X434515Y299549D01*
X434486Y299660D01*
X434472Y299684D01*
X434463Y299710D01*
X434399Y299806D01*
X434341Y299904D01*
X434320Y299923D01*
X434305Y299946D01*
X434217Y300020D01*
X434133Y300099D01*
X434109Y300112D01*
X434087Y300129D01*
X433983Y300176D01*
X433880Y300228D01*
X433856Y300232D01*
X433828Y300245D01*
X433564Y300281D01*
X433549Y300284D01*
X432624Y300284D01*
X430383Y301212D01*
X341241Y390354D01*
X341171Y390406D01*
X341107Y390466D01*
X341058Y390492D01*
X341014Y390525D01*
X340932Y390556D01*
X340854Y390596D01*
X340807Y390604D01*
X340748Y390626D01*
X340600Y390638D01*
X340523Y390651D01*
X332739Y390651D01*
X332739Y398435D01*
X332727Y398522D01*
X332724Y398609D01*
X332707Y398662D01*
X332699Y398717D01*
X332664Y398796D01*
X332637Y398880D01*
X332609Y398919D01*
X332583Y398976D01*
X332487Y399089D01*
X332442Y399153D01*
X287831Y443763D01*
X286903Y446004D01*
X286903Y521861D01*
X286891Y521947D01*
X286888Y522035D01*
X286871Y522088D01*
X286863Y522142D01*
X286828Y522222D01*
X286801Y522305D01*
X286773Y522345D01*
X286747Y522402D01*
X286651Y522515D01*
X286606Y522579D01*
X285917Y523267D01*
X284645Y526338D01*
X284645Y527872D01*
X284637Y527930D01*
X284639Y527988D01*
X284617Y528070D01*
X284605Y528154D01*
X284582Y528207D01*
X284567Y528263D01*
X284524Y528336D01*
X284489Y528413D01*
X284451Y528458D01*
X284422Y528508D01*
X284360Y528566D01*
X284306Y528630D01*
X284257Y528662D01*
X284214Y528702D01*
X284139Y528741D01*
X284069Y528788D01*
X284013Y528805D01*
X283961Y528832D01*
X283893Y528843D01*
X283798Y528873D01*
X283698Y528876D01*
X283630Y528887D01*
X210485Y528887D01*
X207871Y529970D01*
X194251Y543590D01*
X194181Y543642D01*
X194117Y543702D01*
X194068Y543728D01*
X194024Y543761D01*
X193942Y543792D01*
X193864Y543832D01*
X193817Y543840D01*
X193758Y543862D01*
X193611Y543874D01*
X193533Y543887D01*
X160367Y543887D01*
X160280Y543875D01*
X160193Y543872D01*
X160140Y543855D01*
X160085Y543847D01*
X160005Y543812D01*
X159922Y543785D01*
X159883Y543757D01*
X159826Y543731D01*
X159713Y543635D01*
X159649Y543590D01*
X151113Y535054D01*
X151095Y535030D01*
X151073Y535011D01*
X151010Y534917D01*
X150942Y534827D01*
X150931Y534799D01*
X150915Y534775D01*
X150881Y534667D01*
X150841Y534561D01*
X150838Y534532D01*
X150829Y534504D01*
X150826Y534390D01*
X150817Y534278D01*
X150823Y534249D01*
X150822Y534220D01*
X150851Y534110D01*
X150873Y533999D01*
X150887Y533973D01*
X150894Y533945D01*
X150952Y533847D01*
X151004Y533747D01*
X151024Y533725D01*
X151039Y533700D01*
X151122Y533623D01*
X151200Y533541D01*
X151225Y533526D01*
X151246Y533506D01*
X151347Y533454D01*
X151445Y533397D01*
X151473Y533390D01*
X151500Y533376D01*
X151577Y533363D01*
X151721Y533327D01*
X151783Y533329D01*
X151831Y533321D01*
X154910Y533321D01*
X159549Y531399D01*
X163099Y527849D01*
X164162Y525284D01*
X164177Y525258D01*
X164186Y525230D01*
X164249Y525136D01*
X164307Y525039D01*
X164328Y525019D01*
X164344Y524994D01*
X164431Y524921D01*
X164513Y524844D01*
X164539Y524830D01*
X164562Y524811D01*
X164665Y524765D01*
X164766Y524713D01*
X164795Y524708D01*
X164822Y524696D01*
X164934Y524680D01*
X165045Y524658D01*
X165074Y524661D01*
X165103Y524657D01*
X165215Y524673D01*
X165328Y524683D01*
X165355Y524693D01*
X165384Y524697D01*
X165488Y524744D01*
X165593Y524785D01*
X165617Y524803D01*
X165644Y524815D01*
X165730Y524888D01*
X165820Y524956D01*
X165838Y524980D01*
X165860Y524999D01*
X165901Y525065D01*
X165990Y525184D01*
X166012Y525243D01*
X166038Y525284D01*
X167101Y527849D01*
X170651Y531399D01*
X175290Y533321D01*
X180310Y533321D01*
X184949Y531399D01*
X188499Y527849D01*
X190421Y523210D01*
X190421Y518190D01*
X188499Y513551D01*
X184949Y510001D01*
X180310Y508079D01*
X175290Y508079D01*
X170651Y510001D01*
X167101Y513551D01*
X166038Y516116D01*
X166023Y516142D01*
X166014Y516170D01*
X165951Y516264D01*
X165893Y516361D01*
X165872Y516381D01*
X165856Y516406D01*
X165769Y516479D01*
X165687Y516556D01*
X165661Y516570D01*
X165638Y516589D01*
X165535Y516635D01*
X165434Y516687D01*
X165405Y516692D01*
X165378Y516704D01*
X165266Y516720D01*
X165155Y516742D01*
X165126Y516739D01*
X165097Y516743D01*
X164985Y516727D01*
X164872Y516717D01*
X164845Y516707D01*
X164815Y516703D01*
X164712Y516656D01*
X164607Y516615D01*
X164583Y516598D01*
X164556Y516585D01*
X164470Y516512D01*
X164380Y516444D01*
X164362Y516420D01*
X164340Y516401D01*
X164298Y516335D01*
X164210Y516216D01*
X164188Y516157D01*
X164162Y516116D01*
X163099Y513551D01*
X159549Y510001D01*
X154910Y508079D01*
X149890Y508079D01*
X145251Y510001D01*
X141701Y513551D01*
X140638Y516116D01*
X140623Y516142D01*
X140614Y516170D01*
X140551Y516264D01*
X140493Y516361D01*
X140472Y516381D01*
X140456Y516406D01*
X140369Y516479D01*
X140287Y516556D01*
X140261Y516570D01*
X140238Y516589D01*
X140135Y516635D01*
X140034Y516687D01*
X140005Y516692D01*
X139978Y516704D01*
X139866Y516720D01*
X139755Y516742D01*
X139726Y516739D01*
X139697Y516743D01*
X139585Y516727D01*
X139472Y516717D01*
X139445Y516707D01*
X139415Y516703D01*
X139312Y516656D01*
X139207Y516615D01*
X139183Y516598D01*
X139156Y516585D01*
X139070Y516512D01*
X138980Y516444D01*
X138962Y516420D01*
X138940Y516401D01*
X138898Y516335D01*
X138810Y516216D01*
X138788Y516157D01*
X138762Y516116D01*
X137699Y513551D01*
X134149Y510001D01*
X129510Y508079D01*
X124490Y508079D01*
X119851Y510001D01*
X116301Y513551D01*
X114379Y518190D01*
X114379Y523210D01*
X116301Y527849D01*
X119851Y531399D01*
X124490Y533321D01*
X128841Y533321D01*
X128928Y533333D01*
X129015Y533336D01*
X129068Y533353D01*
X129123Y533361D01*
X129203Y533396D01*
X129286Y533423D01*
X129325Y533451D01*
X129382Y533477D01*
X129495Y533573D01*
X129559Y533618D01*
X152971Y557030D01*
X155585Y558113D01*
X193533Y558113D01*
X193620Y558125D01*
X193707Y558128D01*
X193760Y558145D01*
X193815Y558153D01*
X193895Y558188D01*
X193978Y558215D01*
X194017Y558243D01*
X194074Y558269D01*
X194187Y558365D01*
X194251Y558410D01*
X208294Y572453D01*
X208306Y572469D01*
X208318Y572479D01*
X208348Y572524D01*
X208406Y572587D01*
X208432Y572636D01*
X208465Y572680D01*
X208496Y572762D01*
X208536Y572840D01*
X208544Y572887D01*
X208566Y572946D01*
X208578Y573093D01*
X208591Y573171D01*
X208591Y578527D01*
X210602Y583382D01*
X214318Y587098D01*
X219173Y589109D01*
X224629Y589109D01*
X224716Y589121D01*
X224803Y589124D01*
X224856Y589141D01*
X224911Y589149D01*
X224991Y589184D01*
X225074Y589211D01*
X225113Y589239D01*
X225170Y589265D01*
X225283Y589361D01*
X225347Y589406D01*
X230373Y594432D01*
X232987Y595515D01*
X417197Y595515D01*
X419811Y594432D01*
X433110Y581133D01*
X434193Y578519D01*
X434193Y561609D01*
X434205Y561522D01*
X434208Y561435D01*
X434225Y561382D01*
X434233Y561327D01*
X434268Y561247D01*
X434295Y561164D01*
X434323Y561125D01*
X434349Y561068D01*
X434445Y560955D01*
X434490Y560891D01*
X452971Y542410D01*
X453041Y542358D01*
X453105Y542298D01*
X453154Y542272D01*
X453198Y542239D01*
X453280Y542208D01*
X453358Y542168D01*
X453405Y542160D01*
X453464Y542138D01*
X453611Y542126D01*
X453689Y542113D01*
X455138Y542113D01*
X455168Y542117D01*
X455199Y542115D01*
X455276Y542132D01*
X455419Y542153D01*
X455478Y542179D01*
X455526Y542190D01*
X458338Y543355D01*
X461662Y543355D01*
X464474Y542190D01*
X464504Y542182D01*
X464531Y542168D01*
X464609Y542155D01*
X464749Y542119D01*
X464813Y542121D01*
X464862Y542113D01*
X494633Y542113D01*
X494720Y542125D01*
X494807Y542128D01*
X494860Y542145D01*
X494915Y542153D01*
X494995Y542188D01*
X495078Y542215D01*
X495117Y542243D01*
X495174Y542269D01*
X495287Y542365D01*
X495351Y542410D01*
X498590Y545649D01*
X498642Y545719D01*
X498702Y545783D01*
X498728Y545832D01*
X498761Y545876D01*
X498792Y545958D01*
X498832Y546036D01*
X498840Y546083D01*
X498862Y546142D01*
X498874Y546289D01*
X498887Y546367D01*
X498887Y578138D01*
X498883Y578168D01*
X498885Y578199D01*
X498868Y578276D01*
X498847Y578419D01*
X498821Y578478D01*
X498810Y578526D01*
X497645Y581338D01*
X497645Y584662D01*
X498917Y587733D01*
X499845Y588660D01*
X499880Y588707D01*
X499923Y588747D01*
X499965Y588820D01*
X500016Y588888D01*
X500037Y588942D01*
X500066Y588993D01*
X500087Y589074D01*
X500117Y589153D01*
X500122Y589212D01*
X500136Y589268D01*
X500134Y589352D01*
X500141Y589437D01*
X500129Y589494D01*
X500127Y589552D01*
X500101Y589633D01*
X500085Y589715D01*
X500058Y589767D01*
X500040Y589823D01*
X500000Y589879D01*
X499954Y589968D01*
X499912Y590012D01*
X499898Y590034D01*
X499870Y590061D01*
X499845Y590096D01*
X490351Y599590D01*
X490281Y599642D01*
X490217Y599702D01*
X490168Y599728D01*
X490124Y599761D01*
X490042Y599792D01*
X489964Y599832D01*
X489917Y599840D01*
X489858Y599862D01*
X489711Y599874D01*
X489633Y599887D01*
X467862Y599887D01*
X467832Y599883D01*
X467801Y599885D01*
X467724Y599868D01*
X467581Y599847D01*
X467522Y599821D01*
X467474Y599810D01*
X464662Y598645D01*
X461338Y598645D01*
X458267Y599917D01*
X455917Y602267D01*
X454645Y605338D01*
X454645Y608662D01*
X455917Y611733D01*
X458267Y614083D01*
X461338Y615355D01*
X464662Y615355D01*
X467474Y614190D01*
X467504Y614182D01*
X467531Y614168D01*
X467609Y614155D01*
X467749Y614119D01*
X467813Y614121D01*
X467862Y614113D01*
X494415Y614113D01*
X497029Y613030D01*
X521023Y589036D01*
X521093Y588983D01*
X521157Y588923D01*
X521206Y588898D01*
X521250Y588865D01*
X521332Y588834D01*
X521410Y588794D01*
X521458Y588786D01*
X521516Y588764D01*
X521664Y588751D01*
X521741Y588738D01*
X624167Y588738D01*
X626781Y587656D01*
X633695Y580742D01*
X635838Y578598D01*
X636921Y575984D01*
X636921Y475558D01*
X636933Y475472D01*
X636936Y475384D01*
X636953Y475332D01*
X636961Y475277D01*
X636997Y475197D01*
X637024Y475114D01*
X637052Y475075D01*
X637077Y475017D01*
X637173Y474904D01*
X637218Y474840D01*
X646591Y465468D01*
X646616Y465449D01*
X646636Y465425D01*
X646703Y465384D01*
X646819Y465297D01*
X646879Y465274D01*
X646921Y465248D01*
X649733Y464083D01*
X652083Y461733D01*
X653355Y458662D01*
X653355Y455338D01*
X652083Y452267D01*
X649733Y449917D01*
X646662Y448645D01*
X646112Y448645D01*
X646054Y448637D01*
X645996Y448639D01*
X645914Y448617D01*
X645830Y448605D01*
X645777Y448582D01*
X645721Y448567D01*
X645648Y448524D01*
X645571Y448489D01*
X645526Y448451D01*
X645476Y448422D01*
X645418Y448360D01*
X645354Y448306D01*
X645322Y448257D01*
X645282Y448214D01*
X645243Y448139D01*
X645196Y448069D01*
X645179Y448013D01*
X645152Y447961D01*
X645141Y447893D01*
X645111Y447798D01*
X645108Y447698D01*
X645097Y447630D01*
X645097Y411363D01*
X645101Y411334D01*
X645098Y411305D01*
X645121Y411194D01*
X645137Y411082D01*
X645149Y411055D01*
X645154Y411026D01*
X645207Y410925D01*
X645253Y410822D01*
X645272Y410800D01*
X645285Y410774D01*
X645363Y410692D01*
X645436Y410605D01*
X645461Y410589D01*
X645481Y410568D01*
X645579Y410510D01*
X645673Y410448D01*
X645701Y410439D01*
X645726Y410424D01*
X645836Y410396D01*
X645944Y410362D01*
X645974Y410361D01*
X646002Y410354D01*
X646115Y410357D01*
X646228Y410355D01*
X646257Y410362D01*
X646286Y410363D01*
X646394Y410398D01*
X646503Y410426D01*
X646529Y410441D01*
X646557Y410450D01*
X646621Y410496D01*
X646748Y410572D01*
X646791Y410617D01*
X646830Y410645D01*
X647267Y411083D01*
X650338Y412355D01*
X651888Y412355D01*
X651946Y412363D01*
X652004Y412361D01*
X652086Y412383D01*
X652170Y412395D01*
X652223Y412418D01*
X652279Y412433D01*
X652352Y412476D01*
X652429Y412511D01*
X652474Y412549D01*
X652524Y412578D01*
X652582Y412640D01*
X652646Y412694D01*
X652678Y412743D01*
X652718Y412786D01*
X652757Y412861D01*
X652804Y412931D01*
X652821Y412987D01*
X652848Y413039D01*
X652859Y413107D01*
X652889Y413202D01*
X652892Y413302D01*
X652903Y413370D01*
X652903Y423861D01*
X652891Y423947D01*
X652888Y424035D01*
X652871Y424088D01*
X652863Y424142D01*
X652828Y424222D01*
X652801Y424305D01*
X652773Y424345D01*
X652747Y424402D01*
X652651Y424515D01*
X652629Y424547D01*
X652628Y424549D01*
X652627Y424549D01*
X652606Y424579D01*
X651917Y425267D01*
X650645Y428338D01*
X650645Y431662D01*
X651917Y434733D01*
X654267Y437083D01*
X657338Y438355D01*
X660662Y438355D01*
X663733Y437083D01*
X666083Y434733D01*
X667355Y431662D01*
X667355Y428338D01*
X666083Y425267D01*
X665394Y424579D01*
X665342Y424509D01*
X665282Y424445D01*
X665256Y424396D01*
X665223Y424352D01*
X665192Y424270D01*
X665152Y424192D01*
X665144Y424144D01*
X665122Y424086D01*
X665110Y423938D01*
X665097Y423861D01*
X665097Y385139D01*
X665109Y385053D01*
X665112Y384965D01*
X665129Y384912D01*
X665137Y384858D01*
X665172Y384778D01*
X665199Y384695D01*
X665227Y384655D01*
X665253Y384598D01*
X665349Y384485D01*
X665394Y384421D01*
X666083Y383733D01*
X667355Y380662D01*
X667355Y377338D01*
X666083Y374267D01*
X665394Y373579D01*
X665342Y373509D01*
X665282Y373445D01*
X665256Y373396D01*
X665223Y373352D01*
X665192Y373270D01*
X665152Y373192D01*
X665144Y373144D01*
X665122Y373086D01*
X665110Y372938D01*
X665097Y372861D01*
X665097Y326946D01*
X665109Y326859D01*
X665112Y326772D01*
X665129Y326719D01*
X665137Y326664D01*
X665172Y326585D01*
X665199Y326501D01*
X665227Y326462D01*
X665253Y326405D01*
X665349Y326292D01*
X665394Y326228D01*
X685177Y306445D01*
X685178Y306444D01*
X685179Y306443D01*
X685293Y306358D01*
X685404Y306274D01*
X685406Y306274D01*
X685407Y306273D01*
X685539Y306223D01*
X685670Y306173D01*
X685672Y306173D01*
X685673Y306172D01*
X685817Y306161D01*
X685953Y306149D01*
X685955Y306150D01*
X685956Y306149D01*
X685972Y306153D01*
X686232Y306205D01*
X686259Y306219D01*
X686283Y306225D01*
X690817Y308103D01*
X697183Y308103D01*
X703065Y305666D01*
X707566Y301165D01*
X710003Y295283D01*
X710003Y288917D01*
X707566Y283035D01*
X703065Y278534D01*
X697183Y276097D01*
X690817Y276097D01*
X684935Y278534D01*
X680434Y283035D01*
X677997Y288917D01*
X677997Y295283D01*
X678059Y295432D01*
X678060Y295434D01*
X678060Y295435D01*
X678095Y295571D01*
X678130Y295708D01*
X678130Y295709D01*
X678130Y295711D01*
X678126Y295851D01*
X678122Y295992D01*
X678121Y295993D01*
X678121Y295995D01*
X678078Y296128D01*
X678035Y296263D01*
X678034Y296264D01*
X678034Y296266D01*
X678025Y296278D01*
X677877Y296499D01*
X677854Y296519D01*
X677839Y296539D01*
X675718Y298660D01*
X675650Y298711D01*
X675587Y298770D01*
X675537Y298796D01*
X675491Y298831D01*
X675411Y298861D01*
X675334Y298900D01*
X675279Y298911D01*
X675225Y298932D01*
X675140Y298939D01*
X675056Y298956D01*
X674999Y298951D01*
X674942Y298955D01*
X674858Y298938D01*
X674772Y298931D01*
X674719Y298911D01*
X674663Y298899D01*
X674587Y298860D01*
X674507Y298829D01*
X674462Y298795D01*
X674411Y298768D01*
X674349Y298709D01*
X674280Y298657D01*
X674246Y298612D01*
X674205Y298573D01*
X674161Y298498D01*
X674110Y298430D01*
X674090Y298376D01*
X674061Y298327D01*
X674040Y298244D01*
X674010Y298164D01*
X674005Y298107D01*
X673991Y298052D01*
X673994Y297966D01*
X673987Y297880D01*
X673998Y297832D01*
X674000Y297768D01*
X674045Y297630D01*
X674062Y297553D01*
X675003Y295283D01*
X675003Y288917D01*
X672566Y283035D01*
X668065Y278534D01*
X662183Y276097D01*
X655817Y276097D01*
X651425Y277916D01*
X651423Y277917D01*
X651422Y277918D01*
X651290Y277951D01*
X651150Y277987D01*
X651148Y277987D01*
X651146Y277988D01*
X651006Y277983D01*
X650865Y277979D01*
X650864Y277979D01*
X650862Y277979D01*
X650730Y277936D01*
X650595Y277893D01*
X650593Y277892D01*
X650592Y277891D01*
X650580Y277883D01*
X650359Y277734D01*
X650339Y277711D01*
X650318Y277696D01*
X643377Y270755D01*
X641520Y268897D01*
X639279Y267969D01*
X475317Y267969D01*
G37*
%LPD*%
G36*
X591630Y460137D02*
X591630Y460137D01*
X591659Y460134D01*
X591770Y460157D01*
X591882Y460173D01*
X591909Y460185D01*
X591938Y460190D01*
X592039Y460243D01*
X592142Y460289D01*
X592164Y460308D01*
X592190Y460321D01*
X592272Y460399D01*
X592359Y460473D01*
X592375Y460497D01*
X592396Y460517D01*
X592453Y460615D01*
X592516Y460709D01*
X592525Y460737D01*
X592540Y460762D01*
X592568Y460872D01*
X592602Y460980D01*
X592603Y461010D01*
X592610Y461038D01*
X592606Y461151D01*
X592609Y461264D01*
X592602Y461293D01*
X592601Y461322D01*
X592566Y461430D01*
X592538Y461539D01*
X592523Y461565D01*
X592514Y461593D01*
X592468Y461657D01*
X592392Y461784D01*
X592347Y461827D01*
X592319Y461866D01*
X590917Y463267D01*
X589645Y466338D01*
X589645Y469662D01*
X590917Y472733D01*
X593267Y475083D01*
X596079Y476248D01*
X596106Y476263D01*
X596135Y476273D01*
X596199Y476318D01*
X596324Y476392D01*
X596368Y476439D01*
X596409Y476468D01*
X603590Y483649D01*
X603642Y483719D01*
X603702Y483783D01*
X603728Y483832D01*
X603761Y483876D01*
X603792Y483958D01*
X603832Y484036D01*
X603840Y484083D01*
X603862Y484142D01*
X603874Y484289D01*
X603887Y484367D01*
X603887Y561474D01*
X604970Y564088D01*
X607566Y566684D01*
X607583Y566707D01*
X607606Y566726D01*
X607668Y566820D01*
X607736Y566911D01*
X607747Y566938D01*
X607763Y566963D01*
X607797Y567071D01*
X607838Y567177D01*
X607840Y567206D01*
X607849Y567234D01*
X607852Y567347D01*
X607861Y567460D01*
X607855Y567489D01*
X607856Y567518D01*
X607828Y567628D01*
X607805Y567739D01*
X607792Y567765D01*
X607784Y567793D01*
X607727Y567890D01*
X607674Y567991D01*
X607654Y568012D01*
X607639Y568037D01*
X607557Y568115D01*
X607479Y568197D01*
X607453Y568212D01*
X607432Y568232D01*
X607331Y568284D01*
X607233Y568341D01*
X607205Y568348D01*
X607179Y568361D01*
X607101Y568374D01*
X606958Y568411D01*
X606895Y568409D01*
X606848Y568417D01*
X514128Y568417D01*
X514070Y568409D01*
X514012Y568410D01*
X513930Y568389D01*
X513846Y568377D01*
X513793Y568353D01*
X513737Y568338D01*
X513664Y568295D01*
X513587Y568261D01*
X513542Y568223D01*
X513492Y568193D01*
X513434Y568132D01*
X513370Y568077D01*
X513338Y568029D01*
X513298Y567986D01*
X513259Y567911D01*
X513212Y567841D01*
X513195Y567785D01*
X513168Y567733D01*
X513157Y567665D01*
X513127Y567570D01*
X513124Y567470D01*
X513113Y567402D01*
X513113Y541585D01*
X512030Y538971D01*
X502029Y528970D01*
X499415Y527887D01*
X464862Y527887D01*
X464832Y527883D01*
X464801Y527885D01*
X464724Y527868D01*
X464581Y527847D01*
X464522Y527821D01*
X464474Y527810D01*
X461662Y526645D01*
X458338Y526645D01*
X455526Y527810D01*
X455496Y527818D01*
X455469Y527832D01*
X455391Y527845D01*
X455251Y527881D01*
X455187Y527879D01*
X455138Y527887D01*
X453689Y527887D01*
X453602Y527875D01*
X453515Y527872D01*
X453462Y527855D01*
X453407Y527847D01*
X453327Y527812D01*
X453244Y527785D01*
X453205Y527757D01*
X453148Y527731D01*
X453035Y527635D01*
X452971Y527590D01*
X443790Y518409D01*
X443773Y518387D01*
X443753Y518370D01*
X443751Y518367D01*
X443749Y518365D01*
X443689Y518274D01*
X443619Y518182D01*
X443608Y518153D01*
X443592Y518129D01*
X443584Y518104D01*
X443572Y518086D01*
X443549Y517999D01*
X443517Y517916D01*
X443515Y517887D01*
X443506Y517858D01*
X443505Y517834D01*
X443499Y517811D01*
X443501Y517718D01*
X443494Y517633D01*
X443499Y517605D01*
X443499Y517574D01*
X443505Y517550D01*
X443505Y517527D01*
X443533Y517436D01*
X443550Y517354D01*
X443562Y517330D01*
X443570Y517299D01*
X443583Y517278D01*
X443590Y517255D01*
X443643Y517175D01*
X443681Y517101D01*
X443699Y517083D01*
X443716Y517054D01*
X443733Y517038D01*
X443746Y517018D01*
X443820Y516955D01*
X443877Y516895D01*
X443899Y516882D01*
X443923Y516860D01*
X443944Y516849D01*
X443962Y516833D01*
X444052Y516793D01*
X444122Y516752D01*
X444146Y516745D01*
X444176Y516730D01*
X444197Y516727D01*
X444221Y516716D01*
X444319Y516702D01*
X444397Y516682D01*
X444445Y516683D01*
X444503Y516675D01*
X444505Y516675D01*
X444507Y516675D01*
X448565Y516675D01*
X450806Y515747D01*
X464747Y501806D01*
X465675Y499565D01*
X465675Y486045D01*
X465687Y485959D01*
X465690Y485871D01*
X465707Y485819D01*
X465715Y485764D01*
X465750Y485684D01*
X465777Y485601D01*
X465805Y485562D01*
X465831Y485505D01*
X465927Y485391D01*
X465972Y485328D01*
X481169Y470131D01*
X482097Y467890D01*
X482097Y461148D01*
X482105Y461090D01*
X482103Y461032D01*
X482125Y460950D01*
X482137Y460867D01*
X482160Y460813D01*
X482175Y460757D01*
X482218Y460684D01*
X482253Y460607D01*
X482291Y460562D01*
X482320Y460512D01*
X482382Y460454D01*
X482436Y460390D01*
X482485Y460358D01*
X482528Y460318D01*
X482603Y460279D01*
X482673Y460233D01*
X482729Y460215D01*
X482781Y460188D01*
X482849Y460177D01*
X482944Y460147D01*
X483044Y460144D01*
X483112Y460133D01*
X591601Y460133D01*
X591630Y460137D01*
G37*
G36*
X608534Y284243D02*
X608534Y284243D01*
X608649Y284253D01*
X608675Y284263D01*
X608702Y284267D01*
X608807Y284314D01*
X608914Y284355D01*
X608936Y284371D01*
X608961Y284383D01*
X609049Y284457D01*
X609141Y284526D01*
X609157Y284549D01*
X609178Y284566D01*
X609242Y284662D01*
X609311Y284754D01*
X609321Y284780D01*
X609336Y284803D01*
X609371Y284913D01*
X609411Y285020D01*
X609413Y285048D01*
X609422Y285074D01*
X609425Y285189D01*
X609434Y285303D01*
X609428Y285328D01*
X609429Y285358D01*
X609362Y285615D01*
X609359Y285631D01*
X607997Y288917D01*
X607997Y295283D01*
X610434Y301165D01*
X614935Y305666D01*
X620817Y308103D01*
X624888Y308103D01*
X624946Y308111D01*
X625004Y308109D01*
X625086Y308131D01*
X625170Y308143D01*
X625223Y308166D01*
X625279Y308181D01*
X625352Y308224D01*
X625429Y308259D01*
X625474Y308297D01*
X625524Y308326D01*
X625582Y308388D01*
X625646Y308442D01*
X625678Y308491D01*
X625718Y308534D01*
X625757Y308609D01*
X625804Y308679D01*
X625821Y308735D01*
X625848Y308787D01*
X625859Y308855D01*
X625889Y308950D01*
X625892Y309050D01*
X625903Y309118D01*
X625903Y397861D01*
X625891Y397947D01*
X625888Y398035D01*
X625871Y398088D01*
X625863Y398142D01*
X625828Y398222D01*
X625801Y398305D01*
X625773Y398345D01*
X625747Y398402D01*
X625651Y398515D01*
X625606Y398579D01*
X624917Y399267D01*
X623645Y402338D01*
X623645Y405662D01*
X624917Y408733D01*
X627267Y411083D01*
X630338Y412355D01*
X631888Y412355D01*
X631946Y412363D01*
X632004Y412361D01*
X632086Y412383D01*
X632170Y412395D01*
X632223Y412418D01*
X632279Y412433D01*
X632352Y412476D01*
X632429Y412511D01*
X632474Y412549D01*
X632524Y412578D01*
X632582Y412640D01*
X632646Y412694D01*
X632678Y412743D01*
X632718Y412786D01*
X632757Y412861D01*
X632804Y412931D01*
X632821Y412987D01*
X632848Y413039D01*
X632859Y413107D01*
X632889Y413202D01*
X632892Y413302D01*
X632903Y413370D01*
X632903Y446924D01*
X632895Y446982D01*
X632897Y447040D01*
X632875Y447122D01*
X632863Y447206D01*
X632840Y447259D01*
X632825Y447315D01*
X632782Y447388D01*
X632747Y447465D01*
X632709Y447510D01*
X632680Y447560D01*
X632618Y447618D01*
X632564Y447682D01*
X632515Y447714D01*
X632472Y447754D01*
X632397Y447793D01*
X632327Y447840D01*
X632271Y447857D01*
X632219Y447884D01*
X632151Y447895D01*
X632056Y447925D01*
X631956Y447928D01*
X631888Y447939D01*
X546074Y447939D01*
X546045Y447935D01*
X546016Y447938D01*
X545905Y447915D01*
X545793Y447900D01*
X545766Y447888D01*
X545737Y447882D01*
X545637Y447830D01*
X545534Y447783D01*
X545511Y447764D01*
X545485Y447751D01*
X545403Y447673D01*
X545317Y447600D01*
X545300Y447575D01*
X545279Y447555D01*
X545222Y447457D01*
X545159Y447363D01*
X545150Y447335D01*
X545135Y447310D01*
X545107Y447200D01*
X545073Y447092D01*
X545072Y447063D01*
X545065Y447034D01*
X545069Y446921D01*
X545066Y446808D01*
X545073Y446779D01*
X545074Y446750D01*
X545109Y446642D01*
X545138Y446533D01*
X545153Y446507D01*
X545162Y446480D01*
X545207Y446416D01*
X545283Y446288D01*
X545329Y446245D01*
X545357Y446206D01*
X555491Y436072D01*
X556419Y433831D01*
X556419Y373139D01*
X556427Y373083D01*
X556425Y373034D01*
X556432Y373007D01*
X556434Y372965D01*
X556451Y372912D01*
X556459Y372858D01*
X556489Y372789D01*
X556497Y372759D01*
X556504Y372747D01*
X556521Y372695D01*
X556549Y372655D01*
X556575Y372598D01*
X556635Y372527D01*
X556642Y372514D01*
X556658Y372500D01*
X556671Y372485D01*
X556716Y372421D01*
X557405Y371733D01*
X558677Y368662D01*
X558677Y365338D01*
X557405Y362267D01*
X555055Y359917D01*
X551984Y358645D01*
X551112Y358645D01*
X551054Y358637D01*
X550996Y358639D01*
X550914Y358617D01*
X550830Y358605D01*
X550777Y358582D01*
X550721Y358567D01*
X550648Y358524D01*
X550571Y358489D01*
X550526Y358451D01*
X550476Y358422D01*
X550418Y358360D01*
X550354Y358306D01*
X550322Y358257D01*
X550282Y358214D01*
X550243Y358139D01*
X550196Y358069D01*
X550179Y358013D01*
X550152Y357961D01*
X550141Y357893D01*
X550111Y357798D01*
X550108Y357698D01*
X550097Y357630D01*
X550097Y340046D01*
X550109Y339959D01*
X550112Y339872D01*
X550129Y339819D01*
X550137Y339764D01*
X550172Y339685D01*
X550199Y339601D01*
X550227Y339562D01*
X550253Y339505D01*
X550349Y339392D01*
X550394Y339328D01*
X582369Y307353D01*
X582370Y307352D01*
X582371Y307351D01*
X582487Y307264D01*
X582596Y307182D01*
X582598Y307182D01*
X582599Y307181D01*
X582731Y307131D01*
X582862Y307081D01*
X582864Y307081D01*
X582865Y307080D01*
X583009Y307069D01*
X583145Y307057D01*
X583147Y307058D01*
X583148Y307057D01*
X583164Y307061D01*
X583424Y307113D01*
X583451Y307127D01*
X583476Y307133D01*
X585817Y308103D01*
X592183Y308103D01*
X598065Y305666D01*
X602566Y301165D01*
X605003Y295283D01*
X605003Y288917D01*
X603641Y285631D01*
X603613Y285519D01*
X603578Y285410D01*
X603577Y285382D01*
X603571Y285355D01*
X603574Y285241D01*
X603571Y285126D01*
X603578Y285099D01*
X603579Y285071D01*
X603614Y284962D01*
X603643Y284851D01*
X603657Y284827D01*
X603665Y284800D01*
X603729Y284705D01*
X603788Y284606D01*
X603808Y284587D01*
X603824Y284564D01*
X603911Y284490D01*
X603995Y284412D01*
X604020Y284399D01*
X604041Y284381D01*
X604146Y284335D01*
X604248Y284282D01*
X604273Y284278D01*
X604301Y284266D01*
X604565Y284229D01*
X604579Y284227D01*
X608421Y284227D01*
X608534Y284243D01*
G37*
G36*
X503534Y284243D02*
X503534Y284243D01*
X503649Y284253D01*
X503675Y284263D01*
X503702Y284267D01*
X503807Y284314D01*
X503914Y284355D01*
X503936Y284371D01*
X503961Y284383D01*
X504049Y284457D01*
X504141Y284526D01*
X504157Y284549D01*
X504178Y284566D01*
X504242Y284662D01*
X504311Y284754D01*
X504321Y284780D01*
X504336Y284803D01*
X504371Y284913D01*
X504411Y285020D01*
X504413Y285048D01*
X504422Y285074D01*
X504425Y285189D01*
X504434Y285303D01*
X504428Y285328D01*
X504429Y285358D01*
X504362Y285615D01*
X504359Y285631D01*
X502997Y288917D01*
X502997Y295283D01*
X505434Y301165D01*
X508606Y304337D01*
X508658Y304407D01*
X508718Y304471D01*
X508744Y304520D01*
X508777Y304564D01*
X508808Y304646D01*
X508848Y304724D01*
X508856Y304772D01*
X508878Y304830D01*
X508889Y304959D01*
X508889Y304961D01*
X508889Y304968D01*
X508890Y304978D01*
X508903Y305055D01*
X508903Y398861D01*
X508891Y398947D01*
X508888Y399035D01*
X508871Y399088D01*
X508863Y399142D01*
X508828Y399222D01*
X508801Y399305D01*
X508773Y399345D01*
X508747Y399402D01*
X508651Y399515D01*
X508606Y399579D01*
X507917Y400267D01*
X506645Y403338D01*
X506645Y406662D01*
X507917Y409733D01*
X510267Y412083D01*
X513338Y413355D01*
X514888Y413355D01*
X514946Y413363D01*
X515004Y413361D01*
X515086Y413383D01*
X515170Y413395D01*
X515223Y413418D01*
X515279Y413433D01*
X515352Y413476D01*
X515429Y413511D01*
X515474Y413549D01*
X515524Y413578D01*
X515582Y413640D01*
X515646Y413694D01*
X515678Y413743D01*
X515718Y413786D01*
X515757Y413861D01*
X515804Y413931D01*
X515821Y413987D01*
X515848Y414039D01*
X515859Y414107D01*
X515889Y414202D01*
X515892Y414302D01*
X515903Y414370D01*
X515903Y426742D01*
X515891Y426829D01*
X515888Y426916D01*
X515871Y426969D01*
X515863Y427024D01*
X515828Y427103D01*
X515801Y427187D01*
X515773Y427226D01*
X515747Y427283D01*
X515651Y427396D01*
X515606Y427460D01*
X507616Y435450D01*
X507546Y435502D01*
X507482Y435562D01*
X507433Y435588D01*
X507389Y435621D01*
X507307Y435652D01*
X507229Y435692D01*
X507182Y435700D01*
X507123Y435722D01*
X506975Y435734D01*
X506898Y435747D01*
X467943Y435747D01*
X465702Y436675D01*
X460062Y442316D01*
X460015Y442351D01*
X459974Y442394D01*
X459901Y442437D01*
X459835Y442487D01*
X459780Y442508D01*
X459728Y442538D01*
X459647Y442558D01*
X459569Y442588D01*
X459510Y442593D01*
X459453Y442608D01*
X459369Y442605D01*
X459286Y442612D01*
X459228Y442600D01*
X459169Y442598D01*
X459089Y442572D01*
X459007Y442556D01*
X458955Y442529D01*
X458898Y442510D01*
X458842Y442470D01*
X458755Y442425D01*
X458682Y442356D01*
X458625Y442315D01*
X458613Y442302D01*
X458612Y442302D01*
X456756Y440445D01*
X454515Y439517D01*
X432946Y439517D01*
X432859Y439505D01*
X432772Y439502D01*
X432719Y439485D01*
X432664Y439477D01*
X432585Y439442D01*
X432501Y439415D01*
X432462Y439387D01*
X432405Y439361D01*
X432292Y439265D01*
X432228Y439220D01*
X431716Y438708D01*
X431664Y438638D01*
X431604Y438574D01*
X431578Y438525D01*
X431545Y438481D01*
X431514Y438399D01*
X431474Y438321D01*
X431466Y438274D01*
X431444Y438215D01*
X431432Y438067D01*
X431419Y437990D01*
X431419Y374139D01*
X431426Y374085D01*
X431425Y374049D01*
X431432Y374024D01*
X431434Y373965D01*
X431451Y373912D01*
X431459Y373858D01*
X431494Y373778D01*
X431521Y373695D01*
X431549Y373655D01*
X431575Y373598D01*
X431671Y373485D01*
X431716Y373421D01*
X432405Y372733D01*
X433677Y369662D01*
X433677Y366338D01*
X432405Y363267D01*
X430055Y360917D01*
X427039Y359668D01*
X426940Y359610D01*
X426838Y359557D01*
X426818Y359538D01*
X426794Y359524D01*
X426716Y359440D01*
X426632Y359361D01*
X426618Y359337D01*
X426599Y359317D01*
X426547Y359215D01*
X426489Y359116D01*
X426482Y359089D01*
X426469Y359064D01*
X426447Y358951D01*
X426418Y358840D01*
X426419Y358813D01*
X426414Y358785D01*
X426424Y358671D01*
X426427Y358556D01*
X426436Y358530D01*
X426438Y358502D01*
X426480Y358395D01*
X426515Y358286D01*
X426529Y358265D01*
X426540Y358237D01*
X426701Y358025D01*
X426710Y358012D01*
X477369Y307353D01*
X477370Y307352D01*
X477371Y307351D01*
X477490Y307262D01*
X477596Y307182D01*
X477598Y307182D01*
X477599Y307181D01*
X477733Y307130D01*
X477862Y307081D01*
X477864Y307081D01*
X477865Y307080D01*
X478009Y307069D01*
X478145Y307057D01*
X478147Y307058D01*
X478148Y307057D01*
X478164Y307061D01*
X478424Y307113D01*
X478451Y307127D01*
X478476Y307133D01*
X480817Y308103D01*
X487183Y308103D01*
X493065Y305666D01*
X497566Y301165D01*
X500003Y295283D01*
X500003Y288917D01*
X498641Y285631D01*
X498613Y285519D01*
X498578Y285410D01*
X498577Y285382D01*
X498571Y285355D01*
X498574Y285241D01*
X498571Y285126D01*
X498578Y285099D01*
X498579Y285071D01*
X498614Y284962D01*
X498643Y284851D01*
X498657Y284827D01*
X498665Y284800D01*
X498729Y284705D01*
X498788Y284606D01*
X498808Y284587D01*
X498824Y284564D01*
X498911Y284490D01*
X498995Y284412D01*
X499020Y284399D01*
X499041Y284381D01*
X499146Y284335D01*
X499248Y284282D01*
X499273Y284278D01*
X499301Y284266D01*
X499565Y284229D01*
X499579Y284227D01*
X503421Y284227D01*
X503534Y284243D01*
G37*
G36*
X448515Y316545D02*
X448515Y316545D01*
X448544Y316543D01*
X448655Y316565D01*
X448767Y316581D01*
X448794Y316593D01*
X448823Y316599D01*
X448923Y316651D01*
X449027Y316697D01*
X449049Y316716D01*
X449075Y316730D01*
X449157Y316808D01*
X449244Y316881D01*
X449260Y316905D01*
X449281Y316926D01*
X449338Y317023D01*
X449401Y317118D01*
X449410Y317146D01*
X449425Y317171D01*
X449453Y317280D01*
X449487Y317389D01*
X449488Y317418D01*
X449495Y317446D01*
X449491Y317559D01*
X449494Y317673D01*
X449487Y317701D01*
X449486Y317731D01*
X449451Y317838D01*
X449422Y317948D01*
X449407Y317973D01*
X449398Y318001D01*
X449353Y318065D01*
X449277Y318192D01*
X449231Y318235D01*
X449204Y318274D01*
X413831Y353646D01*
X412903Y355887D01*
X412903Y373861D01*
X412891Y373947D01*
X412888Y374035D01*
X412871Y374088D01*
X412863Y374142D01*
X412828Y374222D01*
X412801Y374305D01*
X412773Y374345D01*
X412747Y374402D01*
X412651Y374515D01*
X412606Y374579D01*
X411917Y375267D01*
X410645Y378338D01*
X410645Y381662D01*
X411917Y384733D01*
X412606Y385421D01*
X412658Y385491D01*
X412718Y385555D01*
X412744Y385604D01*
X412777Y385648D01*
X412808Y385730D01*
X412848Y385808D01*
X412856Y385856D01*
X412878Y385914D01*
X412890Y386062D01*
X412903Y386139D01*
X412903Y397188D01*
X412887Y397301D01*
X412877Y397416D01*
X412867Y397442D01*
X412863Y397469D01*
X412816Y397574D01*
X412775Y397681D01*
X412759Y397703D01*
X412747Y397729D01*
X412673Y397816D01*
X412604Y397908D01*
X412581Y397924D01*
X412564Y397946D01*
X412468Y398009D01*
X412376Y398078D01*
X412350Y398088D01*
X412327Y398103D01*
X412217Y398138D01*
X412110Y398178D01*
X412082Y398181D01*
X412056Y398189D01*
X411941Y398192D01*
X411827Y398201D01*
X411802Y398195D01*
X411772Y398196D01*
X411515Y398129D01*
X411499Y398126D01*
X410340Y397645D01*
X407016Y397645D01*
X403945Y398917D01*
X401595Y401267D01*
X400323Y404338D01*
X400323Y407662D01*
X401595Y410733D01*
X402284Y411421D01*
X402336Y411491D01*
X402396Y411555D01*
X402422Y411604D01*
X402455Y411648D01*
X402486Y411730D01*
X402526Y411808D01*
X402534Y411856D01*
X402556Y411914D01*
X402568Y412062D01*
X402581Y412139D01*
X402581Y433071D01*
X402577Y433100D01*
X402580Y433130D01*
X402574Y433156D01*
X402575Y433166D01*
X402564Y433205D01*
X402557Y433241D01*
X402541Y433353D01*
X402529Y433380D01*
X402524Y433408D01*
X402472Y433509D01*
X402425Y433612D01*
X402406Y433635D01*
X402393Y433661D01*
X402315Y433743D01*
X402242Y433829D01*
X402217Y433846D01*
X402197Y433867D01*
X402099Y433924D01*
X402005Y433987D01*
X401977Y433996D01*
X401952Y434010D01*
X401842Y434038D01*
X401734Y434073D01*
X401704Y434073D01*
X401676Y434081D01*
X401563Y434077D01*
X401450Y434080D01*
X401421Y434072D01*
X401392Y434072D01*
X401284Y434037D01*
X401175Y434008D01*
X401149Y433993D01*
X401121Y433984D01*
X401058Y433939D01*
X401022Y433917D01*
X401004Y433909D01*
X400993Y433900D01*
X400930Y433863D01*
X400887Y433817D01*
X400848Y433789D01*
X395661Y428602D01*
X393047Y427520D01*
X361516Y427520D01*
X358902Y428603D01*
X340970Y446534D01*
X339887Y449148D01*
X339887Y451138D01*
X339883Y451168D01*
X339885Y451199D01*
X339868Y451276D01*
X339847Y451419D01*
X339821Y451478D01*
X339810Y451526D01*
X338645Y454338D01*
X338645Y457662D01*
X339917Y460733D01*
X342267Y463083D01*
X345338Y464355D01*
X347862Y464355D01*
X347920Y464363D01*
X347978Y464361D01*
X348060Y464383D01*
X348143Y464395D01*
X348197Y464418D01*
X348253Y464433D01*
X348326Y464476D01*
X348403Y464511D01*
X348448Y464549D01*
X348498Y464578D01*
X348556Y464640D01*
X348620Y464694D01*
X348652Y464743D01*
X348692Y464786D01*
X348731Y464861D01*
X348777Y464931D01*
X348795Y464987D01*
X348822Y465039D01*
X348833Y465107D01*
X348863Y465202D01*
X348866Y465302D01*
X348877Y465370D01*
X348877Y555239D01*
X349805Y557480D01*
X351663Y559337D01*
X367818Y575492D01*
X367833Y575511D01*
X367848Y575525D01*
X367851Y575528D01*
X367858Y575535D01*
X367921Y575629D01*
X367989Y575719D01*
X367999Y575747D01*
X368016Y575771D01*
X368050Y575879D01*
X368090Y575985D01*
X368093Y576014D01*
X368101Y576042D01*
X368104Y576156D01*
X368114Y576268D01*
X368108Y576297D01*
X368109Y576326D01*
X368080Y576436D01*
X368058Y576547D01*
X368044Y576573D01*
X368037Y576601D01*
X367979Y576699D01*
X367927Y576799D01*
X367907Y576821D01*
X367892Y576846D01*
X367809Y576923D01*
X367731Y577005D01*
X367706Y577020D01*
X367684Y577040D01*
X367583Y577092D01*
X367486Y577149D01*
X367457Y577156D01*
X367431Y577170D01*
X367354Y577183D01*
X367210Y577219D01*
X367148Y577217D01*
X367100Y577225D01*
X305368Y577225D01*
X305281Y577213D01*
X305194Y577210D01*
X305141Y577193D01*
X305086Y577185D01*
X305007Y577150D01*
X304923Y577123D01*
X304884Y577095D01*
X304827Y577069D01*
X304714Y576973D01*
X304650Y576928D01*
X284836Y557114D01*
X284835Y557112D01*
X284834Y557112D01*
X284750Y557000D01*
X284665Y556887D01*
X284664Y556885D01*
X284663Y556884D01*
X284613Y556750D01*
X284564Y556621D01*
X284564Y556619D01*
X284563Y556618D01*
X284551Y556472D01*
X284540Y556338D01*
X284540Y556336D01*
X284540Y556334D01*
X284544Y556319D01*
X284596Y556059D01*
X284610Y556032D01*
X284616Y556007D01*
X285809Y553127D01*
X285809Y547873D01*
X284419Y544517D01*
X284390Y544405D01*
X284355Y544296D01*
X284355Y544268D01*
X284348Y544241D01*
X284351Y544127D01*
X284348Y544012D01*
X284355Y543985D01*
X284356Y543957D01*
X284391Y543847D01*
X284420Y543737D01*
X284434Y543713D01*
X284442Y543686D01*
X284506Y543591D01*
X284565Y543492D01*
X284585Y543473D01*
X284601Y543450D01*
X284688Y543376D01*
X284772Y543298D01*
X284797Y543285D01*
X284818Y543267D01*
X284923Y543221D01*
X285025Y543168D01*
X285050Y543164D01*
X285078Y543152D01*
X285342Y543115D01*
X285357Y543113D01*
X299138Y543113D01*
X299168Y543117D01*
X299199Y543115D01*
X299276Y543132D01*
X299419Y543153D01*
X299478Y543179D01*
X299526Y543190D01*
X302338Y544355D01*
X305662Y544355D01*
X308733Y543083D01*
X311083Y540733D01*
X312355Y537662D01*
X312355Y534338D01*
X311083Y531267D01*
X308733Y528917D01*
X305662Y527645D01*
X302370Y527645D01*
X302312Y527637D01*
X302254Y527639D01*
X302172Y527617D01*
X302088Y527605D01*
X302035Y527582D01*
X301979Y527567D01*
X301906Y527524D01*
X301829Y527489D01*
X301784Y527451D01*
X301734Y527422D01*
X301676Y527360D01*
X301612Y527306D01*
X301580Y527257D01*
X301540Y527214D01*
X301501Y527139D01*
X301454Y527069D01*
X301437Y527013D01*
X301410Y526961D01*
X301399Y526893D01*
X301369Y526798D01*
X301366Y526698D01*
X301355Y526630D01*
X301355Y526338D01*
X300083Y523267D01*
X299394Y522579D01*
X299342Y522509D01*
X299282Y522445D01*
X299256Y522396D01*
X299223Y522352D01*
X299192Y522270D01*
X299152Y522192D01*
X299144Y522144D01*
X299122Y522086D01*
X299110Y521938D01*
X299097Y521861D01*
X299097Y513370D01*
X299105Y513312D01*
X299103Y513254D01*
X299125Y513172D01*
X299137Y513088D01*
X299160Y513035D01*
X299175Y512979D01*
X299218Y512906D01*
X299253Y512829D01*
X299291Y512784D01*
X299320Y512734D01*
X299382Y512676D01*
X299436Y512612D01*
X299485Y512580D01*
X299528Y512540D01*
X299603Y512501D01*
X299673Y512454D01*
X299729Y512437D01*
X299781Y512410D01*
X299849Y512399D01*
X299944Y512369D01*
X300044Y512366D01*
X300112Y512355D01*
X301662Y512355D01*
X304733Y511083D01*
X307083Y508733D01*
X308355Y505662D01*
X308355Y505370D01*
X308363Y505312D01*
X308361Y505254D01*
X308383Y505172D01*
X308395Y505088D01*
X308418Y505035D01*
X308433Y504979D01*
X308476Y504906D01*
X308511Y504829D01*
X308549Y504784D01*
X308578Y504734D01*
X308640Y504676D01*
X308694Y504612D01*
X308743Y504580D01*
X308786Y504540D01*
X308861Y504501D01*
X308931Y504454D01*
X308987Y504437D01*
X309039Y504410D01*
X309107Y504399D01*
X309202Y504369D01*
X309302Y504366D01*
X309370Y504355D01*
X309662Y504355D01*
X312733Y503083D01*
X315083Y500733D01*
X316355Y497662D01*
X316355Y494338D01*
X315083Y491267D01*
X314394Y490579D01*
X314342Y490509D01*
X314282Y490445D01*
X314256Y490396D01*
X314223Y490352D01*
X314192Y490270D01*
X314152Y490192D01*
X314144Y490144D01*
X314122Y490086D01*
X314110Y489938D01*
X314097Y489861D01*
X314097Y446946D01*
X314109Y446859D01*
X314112Y446772D01*
X314129Y446719D01*
X314137Y446664D01*
X314172Y446585D01*
X314199Y446501D01*
X314227Y446462D01*
X314253Y446405D01*
X314349Y446292D01*
X314394Y446228D01*
X350228Y410394D01*
X350298Y410342D01*
X350362Y410282D01*
X350411Y410256D01*
X350455Y410223D01*
X350537Y410192D01*
X350615Y410152D01*
X350662Y410144D01*
X350721Y410122D01*
X350869Y410110D01*
X350946Y410097D01*
X368861Y410097D01*
X368947Y410109D01*
X369035Y410112D01*
X369088Y410129D01*
X369142Y410137D01*
X369222Y410172D01*
X369305Y410199D01*
X369345Y410227D01*
X369402Y410253D01*
X369515Y410349D01*
X369579Y410394D01*
X370267Y411083D01*
X373338Y412355D01*
X376662Y412355D01*
X379733Y411083D01*
X382083Y408733D01*
X383355Y405662D01*
X383355Y402478D01*
X383355Y402477D01*
X383355Y402475D01*
X383375Y402335D01*
X383395Y402197D01*
X383395Y402195D01*
X383395Y402194D01*
X383452Y402068D01*
X383511Y401937D01*
X383512Y401936D01*
X383513Y401935D01*
X383604Y401828D01*
X383694Y401720D01*
X383696Y401720D01*
X383697Y401718D01*
X383710Y401710D01*
X383931Y401563D01*
X383960Y401554D01*
X383981Y401540D01*
X388010Y399872D01*
X391744Y396138D01*
X393764Y391260D01*
X393764Y385980D01*
X391744Y381102D01*
X388010Y377368D01*
X383132Y375348D01*
X381690Y375348D01*
X381661Y375344D01*
X381631Y375346D01*
X381520Y375324D01*
X381408Y375308D01*
X381381Y375296D01*
X381353Y375290D01*
X381252Y375238D01*
X381149Y375192D01*
X381126Y375173D01*
X381100Y375159D01*
X381018Y375081D01*
X380932Y375008D01*
X380916Y374984D01*
X380894Y374963D01*
X380837Y374866D01*
X380774Y374771D01*
X380765Y374743D01*
X380750Y374718D01*
X380723Y374609D01*
X380688Y374500D01*
X380688Y374471D01*
X380680Y374443D01*
X380684Y374330D01*
X380681Y374216D01*
X380688Y374188D01*
X380689Y374158D01*
X380724Y374051D01*
X380753Y373941D01*
X380768Y373916D01*
X380777Y373888D01*
X380822Y373824D01*
X380898Y373697D01*
X380944Y373654D01*
X380972Y373615D01*
X437748Y316839D01*
X437818Y316786D01*
X437882Y316726D01*
X437931Y316701D01*
X437975Y316668D01*
X438057Y316637D01*
X438135Y316597D01*
X438182Y316589D01*
X438241Y316566D01*
X438388Y316554D01*
X438466Y316541D01*
X448486Y316541D01*
X448515Y316545D01*
G37*
G36*
X394059Y447436D02*
X394059Y447436D01*
X394117Y447438D01*
X394198Y447464D01*
X394280Y447480D01*
X394332Y447507D01*
X394388Y447525D01*
X394444Y447565D01*
X394533Y447611D01*
X394605Y447680D01*
X394661Y447720D01*
X398704Y451763D01*
X398756Y451832D01*
X398815Y451894D01*
X398841Y451945D01*
X398875Y451990D01*
X398906Y452071D01*
X398945Y452147D01*
X398956Y452203D01*
X398976Y452256D01*
X398983Y452342D01*
X399000Y452426D01*
X398995Y452483D01*
X399000Y452539D01*
X398983Y452623D01*
X398976Y452709D01*
X398955Y452762D01*
X398944Y452818D01*
X398904Y452894D01*
X398873Y452974D01*
X398839Y453020D01*
X398813Y453070D01*
X398754Y453132D01*
X398702Y453201D01*
X398656Y453235D01*
X398617Y453276D01*
X398543Y453320D01*
X398474Y453371D01*
X398421Y453391D01*
X398372Y453420D01*
X398289Y453441D01*
X398208Y453472D01*
X398151Y453476D01*
X398096Y453490D01*
X398010Y453487D01*
X397925Y453494D01*
X397877Y453483D01*
X397812Y453481D01*
X397674Y453437D01*
X397598Y453419D01*
X396662Y453031D01*
X393338Y453031D01*
X390267Y454303D01*
X387917Y456653D01*
X386645Y459724D01*
X386645Y463048D01*
X387917Y466119D01*
X390267Y468469D01*
X393338Y469741D01*
X396662Y469741D01*
X399733Y468469D01*
X400421Y467780D01*
X400491Y467728D01*
X400555Y467668D01*
X400604Y467642D01*
X400648Y467609D01*
X400730Y467578D01*
X400808Y467538D01*
X400856Y467530D01*
X400914Y467508D01*
X401062Y467496D01*
X401139Y467483D01*
X405251Y467483D01*
X405280Y467487D01*
X405309Y467484D01*
X405420Y467507D01*
X405532Y467523D01*
X405559Y467535D01*
X405588Y467540D01*
X405689Y467593D01*
X405792Y467639D01*
X405814Y467658D01*
X405840Y467671D01*
X405922Y467749D01*
X406009Y467822D01*
X406025Y467847D01*
X406046Y467867D01*
X406103Y467965D01*
X406166Y468059D01*
X406175Y468087D01*
X406190Y468112D01*
X406218Y468222D01*
X406252Y468330D01*
X406253Y468359D01*
X406260Y468388D01*
X406257Y468501D01*
X406259Y468614D01*
X406252Y468643D01*
X406251Y468672D01*
X406216Y468780D01*
X406188Y468889D01*
X406173Y468915D01*
X406164Y468943D01*
X406118Y469006D01*
X406042Y469134D01*
X405997Y469177D01*
X405969Y469216D01*
X405917Y469267D01*
X404645Y472338D01*
X404645Y475662D01*
X405917Y478733D01*
X408267Y481083D01*
X411338Y482355D01*
X414662Y482355D01*
X417733Y481083D01*
X420083Y478733D01*
X420628Y477416D01*
X420672Y477342D01*
X420707Y477264D01*
X420744Y477220D01*
X420773Y477171D01*
X420835Y477112D01*
X420891Y477047D01*
X420938Y477015D01*
X420979Y476976D01*
X421056Y476937D01*
X421127Y476889D01*
X421181Y476872D01*
X421232Y476846D01*
X421316Y476829D01*
X421398Y476803D01*
X421455Y476802D01*
X421511Y476791D01*
X421596Y476798D01*
X421682Y476796D01*
X421737Y476810D01*
X421794Y476815D01*
X421875Y476846D01*
X421957Y476868D01*
X422006Y476897D01*
X422059Y476917D01*
X422128Y476969D01*
X422202Y477013D01*
X422241Y477055D01*
X422286Y477089D01*
X422338Y477158D01*
X422396Y477220D01*
X422422Y477271D01*
X422456Y477317D01*
X422487Y477397D01*
X422526Y477474D01*
X422534Y477522D01*
X422557Y477583D01*
X422568Y477727D01*
X422581Y477805D01*
X422581Y486571D01*
X422573Y486629D01*
X422575Y486687D01*
X422553Y486769D01*
X422541Y486852D01*
X422518Y486906D01*
X422503Y486962D01*
X422460Y487035D01*
X422425Y487112D01*
X422387Y487156D01*
X422358Y487207D01*
X422296Y487264D01*
X422242Y487329D01*
X422193Y487361D01*
X422150Y487401D01*
X422075Y487439D01*
X422005Y487486D01*
X421949Y487504D01*
X421897Y487530D01*
X421829Y487542D01*
X421734Y487572D01*
X421634Y487575D01*
X421566Y487586D01*
X420397Y487586D01*
X417327Y488858D01*
X414977Y491208D01*
X413705Y494279D01*
X413705Y497603D01*
X414977Y500673D01*
X417327Y503023D01*
X417586Y503131D01*
X417587Y503131D01*
X417588Y503132D01*
X417705Y503201D01*
X417830Y503275D01*
X417832Y503276D01*
X417833Y503277D01*
X417928Y503379D01*
X418026Y503482D01*
X418026Y503483D01*
X418027Y503484D01*
X418092Y503610D01*
X418156Y503735D01*
X418156Y503736D01*
X418157Y503738D01*
X418159Y503752D01*
X418198Y503949D01*
X418198Y503950D01*
X418211Y504013D01*
X418208Y504044D01*
X418212Y504069D01*
X418212Y505229D01*
X419484Y508300D01*
X420320Y509136D01*
X420356Y509182D01*
X420398Y509223D01*
X420441Y509295D01*
X420491Y509363D01*
X420512Y509418D01*
X420542Y509468D01*
X420562Y509550D01*
X420593Y509629D01*
X420597Y509687D01*
X420612Y509744D01*
X420609Y509828D01*
X420616Y509912D01*
X420605Y509969D01*
X420603Y510028D01*
X420577Y510108D01*
X420560Y510191D01*
X420533Y510243D01*
X420515Y510298D01*
X420475Y510354D01*
X420429Y510443D01*
X420360Y510515D01*
X420320Y510572D01*
X418689Y512203D01*
X416831Y514060D01*
X415903Y516301D01*
X415903Y551468D01*
X415887Y551582D01*
X415877Y551697D01*
X415867Y551723D01*
X415863Y551750D01*
X415816Y551855D01*
X415775Y551962D01*
X415759Y551984D01*
X415747Y552009D01*
X415673Y552097D01*
X415604Y552189D01*
X415581Y552205D01*
X415564Y552226D01*
X415468Y552290D01*
X415376Y552359D01*
X415350Y552369D01*
X415327Y552384D01*
X415217Y552419D01*
X415110Y552459D01*
X415082Y552461D01*
X415056Y552470D01*
X414941Y552473D01*
X414827Y552482D01*
X414802Y552476D01*
X414772Y552477D01*
X414515Y552410D01*
X414499Y552406D01*
X412662Y551645D01*
X409338Y551645D01*
X406267Y552917D01*
X403917Y555267D01*
X402645Y558338D01*
X402645Y561662D01*
X403917Y564733D01*
X406267Y567083D01*
X409338Y568355D01*
X412662Y568355D01*
X414499Y567594D01*
X414611Y567565D01*
X414720Y567530D01*
X414748Y567530D01*
X414775Y567523D01*
X414889Y567526D01*
X415004Y567523D01*
X415031Y567530D01*
X415059Y567531D01*
X415168Y567566D01*
X415279Y567595D01*
X415303Y567609D01*
X415330Y567617D01*
X415425Y567681D01*
X415524Y567740D01*
X415543Y567760D01*
X415566Y567776D01*
X415640Y567863D01*
X415718Y567947D01*
X415731Y567972D01*
X415749Y567993D01*
X415795Y568098D01*
X415848Y568200D01*
X415852Y568225D01*
X415864Y568253D01*
X415901Y568517D01*
X415903Y568532D01*
X415903Y570888D01*
X415895Y570946D01*
X415897Y571004D01*
X415875Y571086D01*
X415863Y571170D01*
X415840Y571223D01*
X415825Y571279D01*
X415782Y571352D01*
X415747Y571429D01*
X415709Y571474D01*
X415680Y571524D01*
X415618Y571582D01*
X415564Y571646D01*
X415515Y571678D01*
X415472Y571718D01*
X415397Y571757D01*
X415327Y571804D01*
X415271Y571821D01*
X415219Y571848D01*
X415151Y571859D01*
X415056Y571889D01*
X414956Y571892D01*
X414888Y571903D01*
X407139Y571903D01*
X407053Y571891D01*
X406965Y571888D01*
X406912Y571871D01*
X406858Y571863D01*
X406778Y571828D01*
X406695Y571801D01*
X406655Y571773D01*
X406598Y571747D01*
X406485Y571651D01*
X406421Y571606D01*
X404733Y569917D01*
X401662Y568645D01*
X398338Y568645D01*
X397459Y569010D01*
X397457Y569010D01*
X397456Y569011D01*
X397323Y569045D01*
X397183Y569081D01*
X397182Y569080D01*
X397180Y569081D01*
X397039Y569076D01*
X396899Y569072D01*
X396898Y569072D01*
X396896Y569072D01*
X396762Y569028D01*
X396628Y568986D01*
X396627Y568985D01*
X396626Y568984D01*
X396613Y568975D01*
X396392Y568827D01*
X396373Y568804D01*
X396352Y568789D01*
X369524Y541962D01*
X369472Y541892D01*
X369412Y541828D01*
X369387Y541779D01*
X369354Y541734D01*
X369322Y541653D01*
X369283Y541575D01*
X369275Y541527D01*
X369252Y541469D01*
X369240Y541321D01*
X369227Y541244D01*
X369227Y468946D01*
X369239Y468859D01*
X369242Y468772D01*
X369259Y468719D01*
X369267Y468664D01*
X369303Y468585D01*
X369330Y468501D01*
X369358Y468462D01*
X369383Y468405D01*
X369479Y468292D01*
X369524Y468228D01*
X387100Y450652D01*
X387170Y450600D01*
X387234Y450540D01*
X387283Y450514D01*
X387328Y450481D01*
X387409Y450450D01*
X387487Y450410D01*
X387535Y450402D01*
X387593Y450380D01*
X387741Y450368D01*
X387818Y450355D01*
X388792Y450355D01*
X391863Y449083D01*
X393226Y447720D01*
X393272Y447685D01*
X393313Y447643D01*
X393385Y447600D01*
X393453Y447549D01*
X393507Y447529D01*
X393558Y447499D01*
X393639Y447478D01*
X393718Y447448D01*
X393777Y447443D01*
X393833Y447429D01*
X393918Y447432D01*
X394002Y447425D01*
X394059Y447436D01*
G37*
G36*
X538534Y284243D02*
X538534Y284243D01*
X538649Y284253D01*
X538675Y284263D01*
X538702Y284267D01*
X538807Y284314D01*
X538914Y284355D01*
X538936Y284371D01*
X538961Y284383D01*
X539049Y284457D01*
X539141Y284526D01*
X539157Y284549D01*
X539178Y284566D01*
X539242Y284662D01*
X539311Y284754D01*
X539321Y284780D01*
X539336Y284803D01*
X539371Y284913D01*
X539411Y285020D01*
X539413Y285048D01*
X539422Y285074D01*
X539425Y285189D01*
X539434Y285303D01*
X539428Y285328D01*
X539429Y285358D01*
X539362Y285615D01*
X539359Y285631D01*
X537997Y288917D01*
X537997Y295283D01*
X540434Y301165D01*
X544935Y305666D01*
X550817Y308103D01*
X557183Y308103D01*
X563065Y305666D01*
X567566Y301165D01*
X570003Y295283D01*
X570003Y288917D01*
X568641Y285631D01*
X568613Y285519D01*
X568578Y285410D01*
X568577Y285382D01*
X568571Y285355D01*
X568574Y285241D01*
X568571Y285126D01*
X568578Y285099D01*
X568579Y285071D01*
X568614Y284962D01*
X568643Y284851D01*
X568657Y284827D01*
X568665Y284800D01*
X568729Y284705D01*
X568788Y284606D01*
X568808Y284587D01*
X568824Y284564D01*
X568911Y284490D01*
X568995Y284412D01*
X569020Y284399D01*
X569041Y284381D01*
X569146Y284335D01*
X569248Y284282D01*
X569273Y284278D01*
X569301Y284266D01*
X569565Y284229D01*
X569579Y284227D01*
X573421Y284227D01*
X573534Y284243D01*
X573649Y284253D01*
X573675Y284263D01*
X573702Y284267D01*
X573807Y284314D01*
X573914Y284355D01*
X573936Y284371D01*
X573961Y284383D01*
X574049Y284457D01*
X574141Y284526D01*
X574157Y284549D01*
X574178Y284566D01*
X574242Y284662D01*
X574311Y284754D01*
X574321Y284780D01*
X574336Y284803D01*
X574371Y284913D01*
X574411Y285020D01*
X574413Y285048D01*
X574422Y285074D01*
X574425Y285189D01*
X574434Y285303D01*
X574428Y285328D01*
X574429Y285358D01*
X574362Y285615D01*
X574359Y285631D01*
X572997Y288917D01*
X572997Y295283D01*
X573967Y297624D01*
X573968Y297626D01*
X573968Y297627D01*
X574002Y297760D01*
X574038Y297900D01*
X574038Y297901D01*
X574038Y297903D01*
X574034Y298044D01*
X574030Y298184D01*
X574029Y298185D01*
X574029Y298187D01*
X573986Y298321D01*
X573960Y298404D01*
X573957Y298413D01*
X573956Y298415D01*
X573943Y298455D01*
X573942Y298456D01*
X573942Y298458D01*
X573933Y298470D01*
X573848Y298597D01*
X573812Y298658D01*
X573799Y298669D01*
X573785Y298691D01*
X573761Y298711D01*
X573747Y298731D01*
X538831Y333646D01*
X537903Y335887D01*
X537903Y372861D01*
X537891Y372947D01*
X537888Y373035D01*
X537871Y373088D01*
X537863Y373142D01*
X537828Y373222D01*
X537801Y373305D01*
X537773Y373345D01*
X537747Y373402D01*
X537651Y373515D01*
X537606Y373579D01*
X536917Y374267D01*
X535645Y377338D01*
X535645Y380662D01*
X536917Y383733D01*
X537606Y384421D01*
X537658Y384491D01*
X537718Y384555D01*
X537744Y384604D01*
X537777Y384648D01*
X537808Y384730D01*
X537848Y384808D01*
X537856Y384856D01*
X537878Y384914D01*
X537890Y385062D01*
X537903Y385139D01*
X537903Y395630D01*
X537895Y395688D01*
X537897Y395746D01*
X537875Y395828D01*
X537863Y395912D01*
X537840Y395965D01*
X537825Y396021D01*
X537782Y396094D01*
X537747Y396171D01*
X537709Y396216D01*
X537680Y396266D01*
X537618Y396324D01*
X537564Y396388D01*
X537515Y396420D01*
X537472Y396460D01*
X537397Y396499D01*
X537327Y396546D01*
X537271Y396563D01*
X537219Y396590D01*
X537151Y396601D01*
X537056Y396631D01*
X536956Y396634D01*
X536888Y396645D01*
X534338Y396645D01*
X531267Y397917D01*
X529830Y399355D01*
X529806Y399372D01*
X529787Y399395D01*
X529693Y399458D01*
X529603Y399526D01*
X529575Y399536D01*
X529551Y399552D01*
X529443Y399587D01*
X529337Y399627D01*
X529308Y399629D01*
X529280Y399638D01*
X529166Y399641D01*
X529054Y399650D01*
X529025Y399645D01*
X528996Y399645D01*
X528886Y399617D01*
X528775Y399595D01*
X528749Y399581D01*
X528721Y399574D01*
X528623Y399516D01*
X528523Y399464D01*
X528501Y399443D01*
X528476Y399428D01*
X528399Y399346D01*
X528317Y399268D01*
X528302Y399242D01*
X528282Y399221D01*
X528230Y399120D01*
X528173Y399023D01*
X528166Y398994D01*
X528152Y398968D01*
X528139Y398891D01*
X528103Y398747D01*
X528105Y398685D01*
X528097Y398637D01*
X528097Y387139D01*
X528109Y387053D01*
X528112Y386965D01*
X528129Y386912D01*
X528137Y386858D01*
X528172Y386778D01*
X528199Y386695D01*
X528227Y386655D01*
X528253Y386598D01*
X528349Y386485D01*
X528394Y386421D01*
X529083Y385733D01*
X530355Y382662D01*
X530355Y379338D01*
X529083Y376267D01*
X526733Y373917D01*
X523662Y372645D01*
X522112Y372645D01*
X522054Y372637D01*
X521996Y372639D01*
X521914Y372617D01*
X521830Y372605D01*
X521777Y372582D01*
X521721Y372567D01*
X521648Y372524D01*
X521571Y372489D01*
X521526Y372451D01*
X521476Y372422D01*
X521418Y372360D01*
X521354Y372306D01*
X521322Y372257D01*
X521282Y372214D01*
X521243Y372139D01*
X521196Y372069D01*
X521179Y372013D01*
X521152Y371961D01*
X521141Y371893D01*
X521111Y371798D01*
X521108Y371698D01*
X521097Y371630D01*
X521097Y309118D01*
X521105Y309060D01*
X521103Y309002D01*
X521125Y308920D01*
X521137Y308836D01*
X521160Y308783D01*
X521175Y308727D01*
X521218Y308654D01*
X521253Y308577D01*
X521291Y308532D01*
X521320Y308482D01*
X521382Y308424D01*
X521436Y308360D01*
X521485Y308328D01*
X521528Y308288D01*
X521603Y308249D01*
X521673Y308202D01*
X521729Y308185D01*
X521781Y308158D01*
X521849Y308147D01*
X521944Y308117D01*
X522044Y308114D01*
X522112Y308103D01*
X522183Y308103D01*
X528065Y305666D01*
X532566Y301165D01*
X535003Y295283D01*
X535003Y288917D01*
X533641Y285631D01*
X533613Y285519D01*
X533578Y285410D01*
X533577Y285382D01*
X533571Y285355D01*
X533574Y285241D01*
X533571Y285126D01*
X533578Y285099D01*
X533579Y285071D01*
X533614Y284962D01*
X533643Y284851D01*
X533657Y284827D01*
X533665Y284800D01*
X533729Y284705D01*
X533788Y284606D01*
X533808Y284587D01*
X533824Y284564D01*
X533911Y284490D01*
X533995Y284412D01*
X534020Y284399D01*
X534041Y284381D01*
X534146Y284335D01*
X534248Y284282D01*
X534273Y284278D01*
X534301Y284266D01*
X534565Y284229D01*
X534579Y284227D01*
X538421Y284227D01*
X538534Y284243D01*
G37*
%LPC*%
G36*
X32560Y263049D02*
X32560Y263049D01*
X27017Y265345D01*
X22775Y269587D01*
X20479Y275130D01*
X20479Y281130D01*
X22775Y286673D01*
X27017Y290915D01*
X32560Y293211D01*
X38560Y293211D01*
X44103Y290915D01*
X48345Y286673D01*
X50641Y281130D01*
X50641Y275130D01*
X48345Y269587D01*
X44103Y265345D01*
X38560Y263049D01*
X32560Y263049D01*
G37*
%LPD*%
%LPC*%
G36*
X240840Y263049D02*
X240840Y263049D01*
X235297Y265345D01*
X231055Y269587D01*
X228759Y275130D01*
X228759Y281130D01*
X231055Y286673D01*
X235297Y290915D01*
X240840Y293211D01*
X246840Y293211D01*
X252383Y290915D01*
X256625Y286673D01*
X258921Y281130D01*
X258921Y275130D01*
X256625Y269587D01*
X252383Y265345D01*
X246840Y263049D01*
X240840Y263049D01*
G37*
%LPD*%
%LPC*%
G36*
X240840Y494189D02*
X240840Y494189D01*
X235297Y496485D01*
X231055Y500727D01*
X228759Y506270D01*
X228759Y512270D01*
X231055Y517813D01*
X235297Y522055D01*
X240840Y524351D01*
X246840Y524351D01*
X252383Y522055D01*
X256625Y517813D01*
X258921Y512270D01*
X258921Y506270D01*
X256625Y500727D01*
X252383Y496485D01*
X246840Y494189D01*
X240840Y494189D01*
G37*
%LPD*%
%LPC*%
G36*
X32560Y494189D02*
X32560Y494189D01*
X27017Y496485D01*
X22775Y500727D01*
X20479Y506270D01*
X20479Y512270D01*
X22775Y517813D01*
X27017Y522055D01*
X32560Y524351D01*
X38560Y524351D01*
X44103Y522055D01*
X48345Y517813D01*
X50641Y512270D01*
X50641Y506270D01*
X48345Y500727D01*
X44103Y496485D01*
X38560Y494189D01*
X32560Y494189D01*
G37*
%LPD*%
G36*
X629386Y460137D02*
X629386Y460137D01*
X629416Y460134D01*
X629527Y460157D01*
X629639Y460173D01*
X629665Y460185D01*
X629694Y460190D01*
X629795Y460243D01*
X629898Y460289D01*
X629921Y460308D01*
X629947Y460321D01*
X630029Y460399D01*
X630115Y460473D01*
X630131Y460497D01*
X630153Y460517D01*
X630210Y460615D01*
X630273Y460709D01*
X630282Y460737D01*
X630296Y460762D01*
X630324Y460872D01*
X630359Y460980D01*
X630359Y461010D01*
X630367Y461038D01*
X630363Y461151D01*
X630366Y461264D01*
X630358Y461293D01*
X630357Y461322D01*
X630323Y461430D01*
X630294Y461539D01*
X630279Y461565D01*
X630270Y461593D01*
X630224Y461656D01*
X630149Y461784D01*
X630103Y461827D01*
X630075Y461866D01*
X623778Y468163D01*
X622696Y470777D01*
X622696Y559245D01*
X622692Y559274D01*
X622694Y559303D01*
X622672Y559414D01*
X622656Y559527D01*
X622644Y559553D01*
X622638Y559582D01*
X622586Y559683D01*
X622540Y559786D01*
X622521Y559808D01*
X622507Y559834D01*
X622429Y559916D01*
X622356Y560003D01*
X622331Y560019D01*
X622311Y560040D01*
X622214Y560098D01*
X622119Y560161D01*
X622091Y560169D01*
X622066Y560184D01*
X621956Y560212D01*
X621848Y560246D01*
X621819Y560247D01*
X621790Y560254D01*
X621677Y560251D01*
X621564Y560254D01*
X621536Y560246D01*
X621506Y560245D01*
X621399Y560210D01*
X621289Y560182D01*
X621264Y560167D01*
X621236Y560158D01*
X621172Y560112D01*
X621045Y560037D01*
X621002Y559991D01*
X620962Y559963D01*
X618410Y557410D01*
X618358Y557341D01*
X618298Y557277D01*
X618272Y557227D01*
X618239Y557183D01*
X618208Y557102D01*
X618168Y557024D01*
X618160Y556976D01*
X618138Y556918D01*
X618126Y556770D01*
X618113Y556693D01*
X618113Y479585D01*
X617030Y476971D01*
X606468Y466409D01*
X606449Y466384D01*
X606425Y466364D01*
X606384Y466297D01*
X606297Y466182D01*
X606274Y466121D01*
X606248Y466079D01*
X605083Y463267D01*
X603681Y461866D01*
X603664Y461842D01*
X603641Y461824D01*
X603578Y461729D01*
X603510Y461639D01*
X603500Y461611D01*
X603484Y461587D01*
X603449Y461479D01*
X603409Y461373D01*
X603407Y461344D01*
X603398Y461316D01*
X603395Y461203D01*
X603386Y461090D01*
X603391Y461061D01*
X603391Y461032D01*
X603419Y460922D01*
X603441Y460811D01*
X603455Y460785D01*
X603462Y460757D01*
X603520Y460660D01*
X603572Y460559D01*
X603593Y460537D01*
X603608Y460512D01*
X603690Y460435D01*
X603768Y460353D01*
X603794Y460338D01*
X603815Y460318D01*
X603916Y460266D01*
X604014Y460209D01*
X604042Y460202D01*
X604068Y460188D01*
X604145Y460175D01*
X604289Y460139D01*
X604352Y460141D01*
X604399Y460133D01*
X629357Y460133D01*
X629386Y460137D01*
G37*
%LPC*%
G36*
X700795Y532619D02*
X700795Y532619D01*
X697090Y534154D01*
X694254Y536990D01*
X692719Y540695D01*
X692719Y544705D01*
X694254Y548410D01*
X697090Y551246D01*
X700795Y552781D01*
X704805Y552781D01*
X708510Y551246D01*
X711346Y548410D01*
X712881Y544705D01*
X712881Y540695D01*
X711346Y536990D01*
X708510Y534154D01*
X704805Y532619D01*
X700795Y532619D01*
G37*
%LPD*%
%LPC*%
G36*
X700795Y488619D02*
X700795Y488619D01*
X697090Y490154D01*
X694254Y492990D01*
X692719Y496695D01*
X692719Y500705D01*
X694254Y504410D01*
X697090Y507246D01*
X700795Y508781D01*
X704805Y508781D01*
X708510Y507246D01*
X711346Y504410D01*
X712881Y500705D01*
X712881Y496695D01*
X711346Y492990D01*
X708510Y490154D01*
X704805Y488619D01*
X700795Y488619D01*
G37*
%LPD*%
G36*
X260015Y556009D02*
X260015Y556009D01*
X260128Y556019D01*
X260156Y556030D01*
X260184Y556034D01*
X260287Y556080D01*
X260393Y556121D01*
X260417Y556139D01*
X260444Y556151D01*
X260530Y556224D01*
X260620Y556293D01*
X260638Y556316D01*
X260660Y556335D01*
X260702Y556402D01*
X260790Y556521D01*
X260812Y556579D01*
X260838Y556620D01*
X261402Y557982D01*
X265118Y561698D01*
X269902Y563680D01*
X269962Y563715D01*
X270026Y563741D01*
X270084Y563787D01*
X270147Y563824D01*
X270194Y563874D01*
X270249Y563917D01*
X270292Y563977D01*
X270342Y564031D01*
X270374Y564092D01*
X270414Y564148D01*
X270439Y564218D01*
X270472Y564283D01*
X270486Y564351D01*
X270509Y564417D01*
X270513Y564490D01*
X270527Y564562D01*
X270522Y564631D01*
X270526Y564700D01*
X270509Y564772D01*
X270503Y564846D01*
X270478Y564910D01*
X270463Y564978D01*
X270427Y565042D01*
X270401Y565111D01*
X270359Y565166D01*
X270326Y565227D01*
X270274Y565279D01*
X270229Y565338D01*
X270174Y565379D01*
X270125Y565428D01*
X270070Y565457D01*
X270002Y565508D01*
X269894Y565549D01*
X269827Y565583D01*
X268505Y566013D01*
X267008Y566775D01*
X265650Y567762D01*
X264462Y568950D01*
X263475Y570308D01*
X262713Y571805D01*
X262283Y573127D01*
X262253Y573190D01*
X262232Y573255D01*
X262191Y573317D01*
X262158Y573383D01*
X262112Y573434D01*
X262073Y573492D01*
X262017Y573539D01*
X261967Y573594D01*
X261909Y573630D01*
X261856Y573675D01*
X261788Y573704D01*
X261726Y573743D01*
X261659Y573762D01*
X261596Y573790D01*
X261523Y573800D01*
X261452Y573820D01*
X261383Y573819D01*
X261314Y573829D01*
X261242Y573818D01*
X261168Y573818D01*
X261101Y573798D01*
X261033Y573788D01*
X260966Y573758D01*
X260895Y573737D01*
X260837Y573700D01*
X260774Y573671D01*
X260718Y573623D01*
X260656Y573584D01*
X260610Y573532D01*
X260558Y573487D01*
X260525Y573434D01*
X260468Y573370D01*
X260419Y573265D01*
X260380Y573202D01*
X258398Y568418D01*
X254682Y564702D01*
X253320Y564138D01*
X253295Y564123D01*
X253267Y564114D01*
X253173Y564051D01*
X253075Y563993D01*
X253055Y563972D01*
X253031Y563956D01*
X252958Y563869D01*
X252880Y563787D01*
X252867Y563761D01*
X252848Y563738D01*
X252802Y563635D01*
X252750Y563534D01*
X252744Y563505D01*
X252732Y563478D01*
X252717Y563366D01*
X252695Y563255D01*
X252697Y563226D01*
X252693Y563197D01*
X252710Y563085D01*
X252719Y562972D01*
X252730Y562945D01*
X252734Y562915D01*
X252781Y562812D01*
X252821Y562707D01*
X252839Y562683D01*
X252851Y562656D01*
X252925Y562570D01*
X252993Y562480D01*
X253016Y562462D01*
X253035Y562440D01*
X253102Y562398D01*
X253221Y562310D01*
X253279Y562288D01*
X253320Y562262D01*
X254682Y561698D01*
X258398Y557982D01*
X258962Y556620D01*
X258977Y556595D01*
X258986Y556567D01*
X259049Y556473D01*
X259106Y556375D01*
X259128Y556355D01*
X259144Y556331D01*
X259231Y556258D01*
X259313Y556180D01*
X259339Y556167D01*
X259362Y556148D01*
X259465Y556102D01*
X259566Y556050D01*
X259595Y556044D01*
X259622Y556032D01*
X259734Y556017D01*
X259845Y555995D01*
X259874Y555997D01*
X259903Y555993D01*
X260015Y556009D01*
G37*
G36*
X234615Y556010D02*
X234615Y556010D01*
X234728Y556019D01*
X234755Y556030D01*
X234785Y556034D01*
X234888Y556081D01*
X234993Y556121D01*
X235017Y556139D01*
X235044Y556151D01*
X235130Y556225D01*
X235220Y556293D01*
X235238Y556316D01*
X235260Y556335D01*
X235302Y556402D01*
X235390Y556521D01*
X235412Y556579D01*
X235438Y556620D01*
X236002Y557982D01*
X239718Y561698D01*
X241080Y562262D01*
X241105Y562277D01*
X241133Y562286D01*
X241227Y562349D01*
X241325Y562406D01*
X241345Y562428D01*
X241369Y562444D01*
X241442Y562531D01*
X241520Y562613D01*
X241533Y562639D01*
X241552Y562662D01*
X241598Y562765D01*
X241650Y562866D01*
X241656Y562895D01*
X241668Y562922D01*
X241683Y563034D01*
X241705Y563145D01*
X241703Y563174D01*
X241707Y563203D01*
X241691Y563315D01*
X241681Y563428D01*
X241670Y563456D01*
X241666Y563484D01*
X241620Y563587D01*
X241579Y563693D01*
X241561Y563717D01*
X241549Y563744D01*
X241476Y563830D01*
X241407Y563920D01*
X241384Y563938D01*
X241365Y563960D01*
X241298Y564002D01*
X241179Y564090D01*
X241121Y564112D01*
X241080Y564138D01*
X239718Y564702D01*
X236002Y568418D01*
X235438Y569780D01*
X235423Y569805D01*
X235414Y569833D01*
X235351Y569927D01*
X235294Y570025D01*
X235272Y570045D01*
X235256Y570069D01*
X235169Y570142D01*
X235087Y570220D01*
X235061Y570233D01*
X235038Y570252D01*
X234935Y570298D01*
X234834Y570350D01*
X234805Y570356D01*
X234778Y570368D01*
X234666Y570383D01*
X234555Y570405D01*
X234526Y570403D01*
X234497Y570407D01*
X234385Y570391D01*
X234272Y570381D01*
X234244Y570370D01*
X234216Y570366D01*
X234113Y570320D01*
X234007Y570279D01*
X233983Y570261D01*
X233956Y570249D01*
X233870Y570176D01*
X233780Y570107D01*
X233762Y570084D01*
X233740Y570065D01*
X233698Y569998D01*
X233610Y569879D01*
X233588Y569821D01*
X233562Y569780D01*
X232998Y568418D01*
X229282Y564702D01*
X227920Y564138D01*
X227895Y564123D01*
X227867Y564114D01*
X227773Y564051D01*
X227675Y563994D01*
X227655Y563972D01*
X227631Y563956D01*
X227558Y563869D01*
X227480Y563787D01*
X227467Y563761D01*
X227448Y563738D01*
X227402Y563635D01*
X227350Y563534D01*
X227344Y563505D01*
X227332Y563478D01*
X227317Y563366D01*
X227295Y563255D01*
X227297Y563226D01*
X227293Y563197D01*
X227309Y563085D01*
X227319Y562972D01*
X227330Y562944D01*
X227334Y562916D01*
X227380Y562813D01*
X227421Y562707D01*
X227439Y562683D01*
X227451Y562656D01*
X227524Y562570D01*
X227593Y562480D01*
X227616Y562462D01*
X227635Y562440D01*
X227702Y562398D01*
X227821Y562310D01*
X227879Y562288D01*
X227920Y562262D01*
X229282Y561698D01*
X232998Y557982D01*
X233562Y556620D01*
X233577Y556595D01*
X233586Y556567D01*
X233649Y556473D01*
X233707Y556375D01*
X233728Y556355D01*
X233744Y556331D01*
X233831Y556258D01*
X233913Y556180D01*
X233939Y556167D01*
X233962Y556148D01*
X234065Y556102D01*
X234166Y556050D01*
X234195Y556044D01*
X234222Y556032D01*
X234334Y556017D01*
X234445Y555995D01*
X234474Y555997D01*
X234503Y555993D01*
X234615Y556010D01*
G37*
G36*
X376066Y229997D02*
X376066Y229997D01*
X376152Y229999D01*
X376206Y230017D01*
X376262Y230025D01*
X376341Y230060D01*
X376423Y230086D01*
X376470Y230118D01*
X376522Y230141D01*
X376587Y230196D01*
X376659Y230244D01*
X376695Y230288D01*
X376739Y230325D01*
X376786Y230396D01*
X376842Y230462D01*
X376865Y230514D01*
X376896Y230561D01*
X376922Y230643D01*
X376957Y230722D01*
X376965Y230778D01*
X376982Y230832D01*
X376984Y230918D01*
X376996Y231003D01*
X376988Y231059D01*
X376989Y231116D01*
X376968Y231199D01*
X376955Y231285D01*
X376932Y231336D01*
X376918Y231391D01*
X376874Y231465D01*
X376838Y231544D01*
X376801Y231587D01*
X376772Y231636D01*
X376710Y231695D01*
X376654Y231760D01*
X376612Y231786D01*
X376565Y231830D01*
X376436Y231896D01*
X376369Y231938D01*
X373370Y233181D01*
X369833Y236717D01*
X368984Y238766D01*
X368969Y238791D01*
X368960Y238819D01*
X368897Y238913D01*
X368839Y239011D01*
X368818Y239031D01*
X368802Y239055D01*
X368715Y239128D01*
X368633Y239206D01*
X368607Y239220D01*
X368584Y239238D01*
X368481Y239285D01*
X368380Y239336D01*
X368351Y239342D01*
X368324Y239354D01*
X368212Y239369D01*
X368101Y239391D01*
X368072Y239389D01*
X368043Y239393D01*
X367931Y239377D01*
X367818Y239367D01*
X367791Y239356D01*
X367761Y239352D01*
X367658Y239305D01*
X367553Y239265D01*
X367529Y239247D01*
X367502Y239235D01*
X367416Y239162D01*
X367326Y239093D01*
X367308Y239070D01*
X367286Y239051D01*
X367244Y238984D01*
X367156Y238866D01*
X367134Y238807D01*
X367108Y238766D01*
X366259Y236718D01*
X362722Y233181D01*
X359723Y231938D01*
X359649Y231894D01*
X359570Y231859D01*
X359527Y231822D01*
X359478Y231793D01*
X359419Y231731D01*
X359353Y231676D01*
X359322Y231628D01*
X359283Y231587D01*
X359243Y231510D01*
X359196Y231439D01*
X359178Y231385D01*
X359152Y231334D01*
X359136Y231250D01*
X359110Y231168D01*
X359108Y231111D01*
X359097Y231055D01*
X359105Y230970D01*
X359103Y230884D01*
X359117Y230829D01*
X359122Y230772D01*
X359153Y230692D01*
X359174Y230609D01*
X359203Y230560D01*
X359224Y230507D01*
X359276Y230438D01*
X359320Y230364D01*
X359361Y230325D01*
X359396Y230280D01*
X359464Y230229D01*
X359527Y230170D01*
X359578Y230144D01*
X359623Y230110D01*
X359704Y230079D01*
X359780Y230040D01*
X359829Y230032D01*
X359889Y230009D01*
X360034Y229998D01*
X360111Y229985D01*
X375981Y229985D01*
X376066Y229997D01*
G37*
G36*
X284013Y573881D02*
X284013Y573881D01*
X284100Y573884D01*
X284153Y573901D01*
X284208Y573909D01*
X284287Y573944D01*
X284371Y573971D01*
X284410Y573999D01*
X284467Y574025D01*
X284580Y574121D01*
X284644Y574166D01*
X290034Y579556D01*
X290048Y579574D01*
X290061Y579586D01*
X290064Y579590D01*
X290074Y579599D01*
X290137Y579693D01*
X290205Y579783D01*
X290215Y579811D01*
X290232Y579835D01*
X290266Y579943D01*
X290306Y580049D01*
X290309Y580078D01*
X290317Y580106D01*
X290320Y580220D01*
X290330Y580332D01*
X290324Y580361D01*
X290325Y580390D01*
X290296Y580500D01*
X290274Y580611D01*
X290260Y580637D01*
X290253Y580665D01*
X290195Y580763D01*
X290143Y580863D01*
X290123Y580885D01*
X290108Y580910D01*
X290025Y580987D01*
X289947Y581069D01*
X289922Y581084D01*
X289900Y581104D01*
X289799Y581156D01*
X289702Y581213D01*
X289673Y581220D01*
X289647Y581234D01*
X289570Y581247D01*
X289426Y581283D01*
X289364Y581281D01*
X289316Y581289D01*
X283464Y581289D01*
X283389Y581279D01*
X283314Y581278D01*
X283249Y581259D01*
X283183Y581249D01*
X283114Y581219D01*
X283042Y581197D01*
X282985Y581161D01*
X282923Y581133D01*
X282866Y581085D01*
X282802Y581044D01*
X282758Y580993D01*
X282706Y580950D01*
X282664Y580887D01*
X282615Y580830D01*
X282586Y580769D01*
X282549Y580713D01*
X282526Y580641D01*
X282494Y580573D01*
X282483Y580506D01*
X282463Y580442D01*
X282461Y580367D01*
X282449Y580292D01*
X282457Y580235D01*
X282455Y580158D01*
X282487Y580037D01*
X282498Y579960D01*
X283006Y578398D01*
X283080Y577931D01*
X273616Y577931D01*
X273558Y577923D01*
X273500Y577925D01*
X273418Y577903D01*
X273335Y577891D01*
X273281Y577867D01*
X273225Y577853D01*
X273152Y577810D01*
X273075Y577775D01*
X273031Y577737D01*
X272980Y577707D01*
X272923Y577646D01*
X272858Y577591D01*
X272826Y577543D01*
X272786Y577500D01*
X272747Y577425D01*
X272701Y577355D01*
X272683Y577299D01*
X272656Y577247D01*
X272645Y577179D01*
X272615Y577084D01*
X272612Y576984D01*
X272601Y576916D01*
X272601Y574884D01*
X272609Y574826D01*
X272608Y574768D01*
X272629Y574686D01*
X272641Y574603D01*
X272665Y574549D01*
X272679Y574493D01*
X272722Y574420D01*
X272757Y574343D01*
X272795Y574298D01*
X272825Y574248D01*
X272886Y574190D01*
X272941Y574126D01*
X272989Y574094D01*
X273032Y574054D01*
X273107Y574015D01*
X273177Y573969D01*
X273233Y573951D01*
X273285Y573924D01*
X273353Y573913D01*
X273448Y573883D01*
X273548Y573880D01*
X273616Y573869D01*
X283926Y573869D01*
X284013Y573881D01*
G37*
G36*
X437059Y532168D02*
X437059Y532168D01*
X437174Y532172D01*
X437200Y532181D01*
X437227Y532183D01*
X437335Y532224D01*
X437444Y532260D01*
X437464Y532274D01*
X437493Y532285D01*
X437706Y532447D01*
X437717Y532454D01*
X437719Y532456D01*
X437720Y532456D01*
X437720Y532457D01*
X439545Y534282D01*
X439580Y534329D01*
X439623Y534369D01*
X439665Y534442D01*
X439716Y534509D01*
X439737Y534564D01*
X439766Y534614D01*
X439787Y534696D01*
X439817Y534775D01*
X439822Y534833D01*
X439837Y534890D01*
X439834Y534974D01*
X439841Y535058D01*
X439829Y535116D01*
X439828Y535174D01*
X439802Y535254D01*
X439785Y535337D01*
X439758Y535389D01*
X439740Y535445D01*
X439700Y535501D01*
X439654Y535589D01*
X439585Y535662D01*
X439545Y535718D01*
X429830Y545433D01*
X429806Y545451D01*
X429787Y545473D01*
X429693Y545536D01*
X429603Y545604D01*
X429575Y545615D01*
X429551Y545631D01*
X429443Y545665D01*
X429337Y545705D01*
X429308Y545708D01*
X429280Y545717D01*
X429166Y545720D01*
X429054Y545729D01*
X429025Y545723D01*
X428996Y545724D01*
X428886Y545695D01*
X428775Y545673D01*
X428749Y545659D01*
X428721Y545652D01*
X428623Y545594D01*
X428523Y545542D01*
X428501Y545522D01*
X428476Y545507D01*
X428399Y545424D01*
X428317Y545346D01*
X428302Y545321D01*
X428282Y545300D01*
X428230Y545199D01*
X428173Y545101D01*
X428166Y545073D01*
X428152Y545046D01*
X428139Y544969D01*
X428103Y544825D01*
X428105Y544763D01*
X428097Y544715D01*
X428097Y537370D01*
X428105Y537312D01*
X428103Y537254D01*
X428125Y537172D01*
X428137Y537088D01*
X428160Y537035D01*
X428175Y536979D01*
X428218Y536906D01*
X428253Y536829D01*
X428291Y536784D01*
X428320Y536734D01*
X428382Y536676D01*
X428436Y536612D01*
X428485Y536580D01*
X428528Y536540D01*
X428603Y536501D01*
X428673Y536454D01*
X428729Y536437D01*
X428781Y536410D01*
X428849Y536399D01*
X428944Y536369D01*
X429044Y536366D01*
X429112Y536355D01*
X430662Y536355D01*
X433733Y535083D01*
X436105Y532711D01*
X436120Y532685D01*
X436173Y532583D01*
X436192Y532563D01*
X436206Y532539D01*
X436289Y532460D01*
X436369Y532377D01*
X436393Y532363D01*
X436413Y532344D01*
X436515Y532291D01*
X436614Y532233D01*
X436641Y532226D01*
X436665Y532214D01*
X436778Y532191D01*
X436889Y532163D01*
X436917Y532164D01*
X436944Y532159D01*
X437059Y532168D01*
G37*
%LPC*%
G36*
X103631Y522731D02*
X103631Y522731D01*
X103631Y530781D01*
X109474Y530781D01*
X110121Y530608D01*
X110700Y530273D01*
X111173Y529800D01*
X111508Y529221D01*
X111681Y528574D01*
X111681Y522731D01*
X103631Y522731D01*
G37*
%LPD*%
%LPC*%
G36*
X91519Y522731D02*
X91519Y522731D01*
X91519Y528574D01*
X91692Y529221D01*
X92027Y529800D01*
X92500Y530273D01*
X93079Y530608D01*
X93726Y530781D01*
X99569Y530781D01*
X99569Y522731D01*
X91519Y522731D01*
G37*
%LPD*%
%LPC*%
G36*
X103631Y510619D02*
X103631Y510619D01*
X103631Y518669D01*
X111681Y518669D01*
X111681Y512826D01*
X111508Y512179D01*
X111173Y511600D01*
X110700Y511127D01*
X110121Y510792D01*
X109474Y510619D01*
X103631Y510619D01*
G37*
%LPD*%
%LPC*%
G36*
X93726Y510619D02*
X93726Y510619D01*
X93079Y510792D01*
X92500Y511127D01*
X92027Y511600D01*
X91692Y512179D01*
X91519Y512826D01*
X91519Y518669D01*
X99569Y518669D01*
X99569Y510619D01*
X93726Y510619D01*
G37*
%LPD*%
G36*
X366291Y388810D02*
X366291Y388810D01*
X366321Y388809D01*
X366430Y388838D01*
X366542Y388860D01*
X366568Y388873D01*
X366596Y388881D01*
X366693Y388939D01*
X366794Y388991D01*
X366815Y389011D01*
X366840Y389026D01*
X366918Y389109D01*
X367000Y389187D01*
X367015Y389212D01*
X367035Y389233D01*
X367086Y389334D01*
X367144Y389432D01*
X367151Y389460D01*
X367164Y389487D01*
X367177Y389564D01*
X367214Y389708D01*
X367212Y389770D01*
X367220Y389818D01*
X367220Y391260D01*
X369240Y396138D01*
X369272Y396170D01*
X369290Y396194D01*
X369312Y396213D01*
X369375Y396307D01*
X369443Y396397D01*
X369454Y396425D01*
X369470Y396449D01*
X369504Y396557D01*
X369544Y396663D01*
X369547Y396692D01*
X369556Y396720D01*
X369559Y396833D01*
X369568Y396946D01*
X369562Y396975D01*
X369563Y397004D01*
X369535Y397114D01*
X369512Y397225D01*
X369499Y397251D01*
X369491Y397279D01*
X369434Y397377D01*
X369381Y397477D01*
X369361Y397499D01*
X369346Y397524D01*
X369263Y397601D01*
X369185Y397683D01*
X369160Y397698D01*
X369139Y397718D01*
X369038Y397770D01*
X368940Y397827D01*
X368912Y397834D01*
X368886Y397848D01*
X368808Y397861D01*
X368665Y397897D01*
X368602Y397895D01*
X368554Y397903D01*
X359134Y397903D01*
X359105Y397899D01*
X359076Y397902D01*
X358965Y397879D01*
X358853Y397863D01*
X358826Y397851D01*
X358797Y397846D01*
X358697Y397794D01*
X358593Y397747D01*
X358571Y397728D01*
X358545Y397715D01*
X358463Y397637D01*
X358376Y397564D01*
X358360Y397539D01*
X358339Y397519D01*
X358281Y397421D01*
X358219Y397327D01*
X358210Y397299D01*
X358195Y397274D01*
X358167Y397164D01*
X358133Y397056D01*
X358132Y397026D01*
X358125Y396998D01*
X358128Y396885D01*
X358126Y396772D01*
X358133Y396743D01*
X358134Y396714D01*
X358169Y396606D01*
X358197Y396497D01*
X358212Y396471D01*
X358221Y396443D01*
X358267Y396380D01*
X358343Y396252D01*
X358388Y396209D01*
X358416Y396170D01*
X365487Y389100D01*
X365510Y389082D01*
X365529Y389060D01*
X365624Y388997D01*
X365714Y388929D01*
X365741Y388918D01*
X365766Y388902D01*
X365874Y388868D01*
X365979Y388828D01*
X366009Y388825D01*
X366037Y388816D01*
X366150Y388813D01*
X366263Y388804D01*
X366291Y388810D01*
G37*
%LPC*%
G36*
X320164Y390651D02*
X320164Y390651D01*
X320240Y391133D01*
X320762Y392740D01*
X321529Y394245D01*
X322522Y395612D01*
X323716Y396806D01*
X325083Y397799D01*
X326588Y398566D01*
X328195Y399088D01*
X328677Y399164D01*
X328677Y390651D01*
X320164Y390651D01*
G37*
%LPD*%
%LPC*%
G36*
X332739Y386589D02*
X332739Y386589D01*
X341252Y386589D01*
X341176Y386107D01*
X340654Y384500D01*
X339887Y382995D01*
X338894Y381628D01*
X337700Y380434D01*
X336333Y379441D01*
X334828Y378674D01*
X333221Y378152D01*
X332739Y378076D01*
X332739Y386589D01*
G37*
%LPD*%
%LPC*%
G36*
X328195Y378152D02*
X328195Y378152D01*
X326588Y378674D01*
X325083Y379441D01*
X323716Y380434D01*
X322522Y381628D01*
X321529Y382995D01*
X320762Y384500D01*
X320240Y386107D01*
X320164Y386589D01*
X328677Y386589D01*
X328677Y378076D01*
X328195Y378152D01*
G37*
%LPD*%
%LPC*%
G36*
X332739Y245871D02*
X332739Y245871D01*
X332739Y253677D01*
X333058Y253627D01*
X334560Y253139D01*
X335967Y252422D01*
X337245Y251493D01*
X338361Y250377D01*
X339290Y249099D01*
X340007Y247692D01*
X340495Y246190D01*
X340545Y245871D01*
X332739Y245871D01*
G37*
%LPD*%
%LPC*%
G36*
X320871Y245871D02*
X320871Y245871D01*
X320921Y246190D01*
X321409Y247692D01*
X322126Y249099D01*
X323055Y250377D01*
X324171Y251493D01*
X325449Y252422D01*
X326856Y253139D01*
X328358Y253627D01*
X328677Y253677D01*
X328677Y245871D01*
X320871Y245871D01*
G37*
%LPD*%
%LPC*%
G36*
X332739Y241809D02*
X332739Y241809D01*
X340545Y241809D01*
X340495Y241490D01*
X340007Y239988D01*
X339290Y238581D01*
X338361Y237303D01*
X337245Y236187D01*
X335967Y235258D01*
X334560Y234541D01*
X333058Y234053D01*
X332739Y234003D01*
X332739Y241809D01*
G37*
%LPD*%
%LPC*%
G36*
X328358Y234053D02*
X328358Y234053D01*
X326856Y234541D01*
X325449Y235258D01*
X324171Y236187D01*
X323055Y237303D01*
X322126Y238581D01*
X321409Y239988D01*
X320921Y241490D01*
X320871Y241809D01*
X328677Y241809D01*
X328677Y234003D01*
X328358Y234053D01*
G37*
%LPD*%
G36*
X528918Y430637D02*
X528918Y430637D01*
X529004Y430635D01*
X529059Y430649D01*
X529116Y430654D01*
X529196Y430685D01*
X529279Y430707D01*
X529328Y430736D01*
X529381Y430756D01*
X529450Y430808D01*
X529524Y430852D01*
X529563Y430893D01*
X529608Y430928D01*
X529660Y430997D01*
X529718Y431059D01*
X529744Y431110D01*
X529778Y431155D01*
X529809Y431236D01*
X529848Y431312D01*
X529856Y431361D01*
X529879Y431421D01*
X529890Y431566D01*
X529903Y431643D01*
X529903Y434054D01*
X529891Y434141D01*
X529888Y434228D01*
X529871Y434281D01*
X529863Y434336D01*
X529828Y434415D01*
X529801Y434499D01*
X529773Y434538D01*
X529747Y434595D01*
X529694Y434658D01*
X529668Y434701D01*
X529632Y434735D01*
X529606Y434772D01*
X524864Y439514D01*
X524794Y439566D01*
X524730Y439626D01*
X524681Y439652D01*
X524637Y439685D01*
X524555Y439716D01*
X524477Y439756D01*
X524430Y439764D01*
X524371Y439786D01*
X524223Y439798D01*
X524146Y439811D01*
X522950Y439811D01*
X522921Y439807D01*
X522892Y439810D01*
X522781Y439787D01*
X522668Y439772D01*
X522642Y439760D01*
X522613Y439754D01*
X522512Y439702D01*
X522409Y439655D01*
X522386Y439636D01*
X522361Y439623D01*
X522278Y439545D01*
X522192Y439472D01*
X522176Y439447D01*
X522154Y439427D01*
X522097Y439329D01*
X522034Y439235D01*
X522025Y439207D01*
X522011Y439182D01*
X521983Y439072D01*
X521949Y438964D01*
X521948Y438935D01*
X521941Y438906D01*
X521944Y438793D01*
X521941Y438680D01*
X521949Y438651D01*
X521950Y438622D01*
X521984Y438514D01*
X522013Y438405D01*
X522028Y438379D01*
X522037Y438352D01*
X522083Y438288D01*
X522158Y438160D01*
X522204Y438117D01*
X522232Y438078D01*
X527169Y433142D01*
X527950Y431255D01*
X527994Y431181D01*
X528029Y431102D01*
X528066Y431059D01*
X528095Y431010D01*
X528157Y430951D01*
X528213Y430885D01*
X528260Y430854D01*
X528301Y430815D01*
X528378Y430776D01*
X528449Y430728D01*
X528503Y430711D01*
X528554Y430685D01*
X528638Y430668D01*
X528720Y430642D01*
X528777Y430641D01*
X528833Y430630D01*
X528918Y430637D01*
G37*
G36*
X664956Y307098D02*
X664956Y307098D01*
X665013Y307100D01*
X665095Y307126D01*
X665179Y307143D01*
X665229Y307169D01*
X665283Y307186D01*
X665355Y307234D01*
X665431Y307274D01*
X665472Y307313D01*
X665520Y307345D01*
X665575Y307410D01*
X665637Y307469D01*
X665666Y307519D01*
X665703Y307562D01*
X665737Y307641D01*
X665781Y307715D01*
X665795Y307770D01*
X665818Y307822D01*
X665830Y307907D01*
X665851Y307990D01*
X665849Y308047D01*
X665857Y308104D01*
X665845Y308189D01*
X665842Y308274D01*
X665824Y308329D01*
X665816Y308385D01*
X665781Y308463D01*
X665755Y308545D01*
X665726Y308585D01*
X665699Y308644D01*
X665605Y308754D01*
X665560Y308818D01*
X660508Y313870D01*
X660484Y313888D01*
X660465Y313910D01*
X660371Y313973D01*
X660281Y314041D01*
X660253Y314051D01*
X660229Y314068D01*
X660121Y314102D01*
X660015Y314142D01*
X659986Y314145D01*
X659958Y314153D01*
X659844Y314156D01*
X659732Y314166D01*
X659703Y314160D01*
X659674Y314161D01*
X659564Y314132D01*
X659453Y314110D01*
X659427Y314096D01*
X659399Y314089D01*
X659301Y314031D01*
X659201Y313979D01*
X659179Y313959D01*
X659154Y313944D01*
X659077Y313861D01*
X658995Y313783D01*
X658980Y313758D01*
X658960Y313736D01*
X658908Y313636D01*
X658851Y313538D01*
X658844Y313509D01*
X658830Y313483D01*
X658817Y313406D01*
X658781Y313262D01*
X658783Y313200D01*
X658775Y313152D01*
X658775Y309118D01*
X658783Y309060D01*
X658781Y309002D01*
X658803Y308920D01*
X658815Y308836D01*
X658838Y308783D01*
X658853Y308727D01*
X658896Y308654D01*
X658931Y308577D01*
X658969Y308532D01*
X658998Y308482D01*
X659060Y308424D01*
X659114Y308360D01*
X659163Y308328D01*
X659206Y308288D01*
X659281Y308249D01*
X659351Y308202D01*
X659407Y308185D01*
X659459Y308158D01*
X659527Y308147D01*
X659622Y308117D01*
X659722Y308114D01*
X659790Y308103D01*
X662183Y308103D01*
X664453Y307162D01*
X664536Y307141D01*
X664617Y307110D01*
X664673Y307106D01*
X664729Y307091D01*
X664814Y307094D01*
X664900Y307087D01*
X664956Y307098D01*
G37*
G36*
X415876Y438805D02*
X415876Y438805D01*
X415906Y438804D01*
X416163Y438871D01*
X416179Y438874D01*
X417338Y439355D01*
X418210Y439355D01*
X418268Y439363D01*
X418326Y439361D01*
X418408Y439383D01*
X418492Y439395D01*
X418545Y439418D01*
X418601Y439433D01*
X418674Y439476D01*
X418751Y439511D01*
X418796Y439549D01*
X418846Y439578D01*
X418904Y439640D01*
X418968Y439694D01*
X419000Y439743D01*
X419040Y439786D01*
X419079Y439861D01*
X419126Y439931D01*
X419143Y439987D01*
X419170Y440039D01*
X419181Y440107D01*
X419211Y440202D01*
X419214Y440302D01*
X419225Y440370D01*
X419225Y442149D01*
X419237Y442177D01*
X419266Y442289D01*
X419301Y442398D01*
X419301Y442426D01*
X419308Y442453D01*
X419305Y442568D01*
X419308Y442682D01*
X419301Y442709D01*
X419300Y442737D01*
X419265Y442847D01*
X419236Y442957D01*
X419222Y442981D01*
X419213Y443008D01*
X419149Y443103D01*
X419091Y443202D01*
X419071Y443221D01*
X419055Y443244D01*
X418967Y443318D01*
X418883Y443396D01*
X418859Y443409D01*
X418838Y443427D01*
X418733Y443473D01*
X418630Y443526D01*
X418606Y443530D01*
X418578Y443542D01*
X418314Y443579D01*
X418299Y443581D01*
X417683Y443581D01*
X417597Y443569D01*
X417509Y443566D01*
X417457Y443549D01*
X417402Y443541D01*
X417322Y443506D01*
X417239Y443479D01*
X417199Y443451D01*
X417142Y443425D01*
X417029Y443329D01*
X416965Y443284D01*
X415072Y441391D01*
X415020Y441321D01*
X414960Y441257D01*
X414934Y441208D01*
X414901Y441163D01*
X414870Y441082D01*
X414830Y441004D01*
X414822Y440956D01*
X414800Y440898D01*
X414788Y440750D01*
X414775Y440673D01*
X414775Y439812D01*
X414791Y439699D01*
X414801Y439584D01*
X414811Y439558D01*
X414815Y439531D01*
X414862Y439426D01*
X414903Y439319D01*
X414919Y439297D01*
X414931Y439271D01*
X415005Y439184D01*
X415074Y439092D01*
X415097Y439076D01*
X415114Y439054D01*
X415210Y438991D01*
X415302Y438922D01*
X415328Y438912D01*
X415351Y438897D01*
X415461Y438862D01*
X415568Y438822D01*
X415596Y438819D01*
X415622Y438811D01*
X415737Y438808D01*
X415851Y438799D01*
X415876Y438805D01*
G37*
G36*
X421624Y467491D02*
X421624Y467491D01*
X421682Y467489D01*
X421764Y467511D01*
X421848Y467523D01*
X421901Y467546D01*
X421957Y467561D01*
X422030Y467604D01*
X422107Y467639D01*
X422152Y467677D01*
X422202Y467706D01*
X422260Y467768D01*
X422324Y467822D01*
X422356Y467871D01*
X422396Y467914D01*
X422435Y467989D01*
X422482Y468059D01*
X422499Y468115D01*
X422526Y468167D01*
X422537Y468235D01*
X422567Y468330D01*
X422570Y468430D01*
X422581Y468498D01*
X422581Y470195D01*
X422569Y470280D01*
X422567Y470366D01*
X422549Y470421D01*
X422541Y470477D01*
X422506Y470555D01*
X422480Y470637D01*
X422448Y470684D01*
X422425Y470736D01*
X422370Y470802D01*
X422322Y470873D01*
X422278Y470910D01*
X422242Y470953D01*
X422170Y471001D01*
X422104Y471056D01*
X422052Y471079D01*
X422005Y471111D01*
X421923Y471137D01*
X421844Y471172D01*
X421788Y471179D01*
X421734Y471197D01*
X421648Y471199D01*
X421563Y471211D01*
X421507Y471202D01*
X421450Y471204D01*
X421367Y471182D01*
X421281Y471170D01*
X421230Y471146D01*
X421175Y471132D01*
X421101Y471088D01*
X421022Y471053D01*
X420979Y471016D01*
X420930Y470987D01*
X420871Y470924D01*
X420806Y470868D01*
X420780Y470827D01*
X420736Y470780D01*
X420670Y470650D01*
X420628Y470584D01*
X420083Y469267D01*
X420031Y469216D01*
X420014Y469192D01*
X419991Y469173D01*
X419928Y469079D01*
X419860Y468989D01*
X419850Y468961D01*
X419834Y468937D01*
X419799Y468829D01*
X419759Y468723D01*
X419757Y468694D01*
X419748Y468666D01*
X419745Y468553D01*
X419736Y468440D01*
X419741Y468411D01*
X419741Y468382D01*
X419769Y468272D01*
X419791Y468161D01*
X419805Y468135D01*
X419812Y468107D01*
X419870Y468009D01*
X419922Y467909D01*
X419943Y467887D01*
X419958Y467862D01*
X420040Y467785D01*
X420118Y467703D01*
X420143Y467688D01*
X420165Y467668D01*
X420266Y467616D01*
X420363Y467559D01*
X420392Y467552D01*
X420418Y467538D01*
X420495Y467525D01*
X420639Y467489D01*
X420701Y467491D01*
X420749Y467483D01*
X421566Y467483D01*
X421624Y467491D01*
G37*
G36*
X261331Y577978D02*
X261331Y577978D01*
X261400Y577974D01*
X261472Y577991D01*
X261546Y577997D01*
X261610Y578022D01*
X261678Y578037D01*
X261742Y578073D01*
X261811Y578099D01*
X261866Y578141D01*
X261927Y578174D01*
X261979Y578226D01*
X262038Y578271D01*
X262079Y578326D01*
X262128Y578375D01*
X262157Y578430D01*
X262208Y578498D01*
X262249Y578606D01*
X262283Y578673D01*
X262702Y579960D01*
X262715Y580034D01*
X262737Y580106D01*
X262739Y580174D01*
X262751Y580240D01*
X262743Y580315D01*
X262745Y580390D01*
X262727Y580456D01*
X262720Y580523D01*
X262692Y580593D01*
X262673Y580665D01*
X262638Y580723D01*
X262613Y580786D01*
X262566Y580845D01*
X262527Y580910D01*
X262478Y580956D01*
X262436Y581009D01*
X262375Y581053D01*
X262320Y581104D01*
X262260Y581135D01*
X262205Y581174D01*
X262134Y581200D01*
X262067Y581234D01*
X262010Y581243D01*
X261937Y581269D01*
X261812Y581277D01*
X261736Y581289D01*
X260784Y581289D01*
X260670Y581273D01*
X260556Y581263D01*
X260530Y581253D01*
X260503Y581249D01*
X260398Y581203D01*
X260291Y581161D01*
X260269Y581145D01*
X260243Y581133D01*
X260156Y581059D01*
X260064Y580990D01*
X260047Y580967D01*
X260026Y580950D01*
X259963Y580854D01*
X259894Y580762D01*
X259884Y580736D01*
X259869Y580713D01*
X259834Y580603D01*
X259793Y580496D01*
X259791Y580468D01*
X259783Y580442D01*
X259780Y580327D01*
X259771Y580213D01*
X259776Y580188D01*
X259776Y580158D01*
X259843Y579901D01*
X259846Y579886D01*
X260380Y578598D01*
X260415Y578538D01*
X260441Y578474D01*
X260487Y578416D01*
X260524Y578353D01*
X260574Y578305D01*
X260617Y578251D01*
X260677Y578208D01*
X260731Y578158D01*
X260792Y578126D01*
X260848Y578086D01*
X260918Y578061D01*
X260983Y578028D01*
X261051Y578014D01*
X261116Y577991D01*
X261190Y577987D01*
X261262Y577973D01*
X261331Y577978D01*
G37*
%LPC*%
G36*
X101599Y520699D02*
X101599Y520699D01*
X101599Y520701D01*
X101601Y520701D01*
X101601Y520699D01*
X101599Y520699D01*
G37*
%LPD*%
%LPC*%
G36*
X330707Y388619D02*
X330707Y388619D01*
X330707Y388621D01*
X330709Y388621D01*
X330709Y388619D01*
X330707Y388619D01*
G37*
%LPD*%
%LPC*%
G36*
X330707Y243839D02*
X330707Y243839D01*
X330707Y243841D01*
X330709Y243841D01*
X330709Y243839D01*
X330707Y243839D01*
G37*
%LPD*%
D10*
X247200Y550500D03*
X247200Y575900D03*
X221800Y575900D03*
X221800Y550500D03*
X272600Y550500D03*
X272600Y575900D03*
D11*
X589000Y292100D03*
X554000Y292100D03*
X519000Y292100D03*
X484000Y292100D03*
X449000Y292100D03*
X624000Y292100D03*
X659000Y292100D03*
X694000Y292100D03*
D12*
X101600Y520700D03*
D13*
X127000Y520700D03*
X152400Y520700D03*
X177800Y520700D03*
D14*
X330708Y388620D03*
X380492Y388620D03*
D15*
X330708Y243840D03*
X355600Y243840D03*
X380492Y243840D03*
D16*
X419000Y431000D03*
D17*
X419000Y380000D01*
X419000Y357100D01*
X484000Y292100D01*
D16*
X419000Y380000D03*
X515000Y405000D03*
D17*
X515000Y296100D01*
X519000Y292100D01*
D16*
X544000Y430000D03*
D17*
X544000Y379000D01*
X544000Y337100D01*
X589000Y292100D01*
D16*
X544000Y379000D03*
X632000Y404000D03*
D17*
X632000Y300100D01*
X624000Y292100D01*
D16*
X659000Y430000D03*
D17*
X659000Y379000D01*
X659000Y324000D01*
X690900Y292100D01*
X694000Y292100D01*
D16*
X659000Y379000D03*
X395000Y461386D03*
X425322Y368000D03*
D17*
X425202Y461386D02*
X395000Y461386D01*
X425202Y461386D02*
X428678Y464862D01*
X428678Y490619D02*
X432381Y494322D01*
X440619Y494322D01*
X443322Y491619D01*
X443322Y471742D02*
X448000Y467064D01*
X443322Y471742D02*
X443322Y491619D01*
X448000Y467064D02*
X452624Y467064D01*
X459386Y460302D01*
X428678Y464862D02*
X428678Y490619D01*
X459386Y451698D02*
X453302Y445614D01*
X430000Y445614D01*
X425322Y440936D01*
X459386Y451698D02*
X459386Y460302D01*
X425322Y440936D02*
X425322Y368000D01*
D16*
X408678Y406000D03*
X435000Y488000D03*
D17*
X455322Y453381D02*
X451619Y449678D01*
X455322Y453381D02*
X455322Y458619D01*
X408678Y443619D02*
X408678Y406000D01*
X408678Y443619D02*
X414737Y449678D01*
X451619Y449678D01*
X438000Y463000D02*
X435000Y466000D01*
X438000Y463000D02*
X450941Y463000D01*
X455322Y458619D01*
X435000Y466000D02*
X435000Y488000D01*
D16*
X400000Y577000D03*
X550322Y367000D03*
D17*
X550322Y432619D01*
X532969Y449972D01*
X473028Y449972D01*
X471578Y451422D02*
X471578Y465352D01*
X457674Y479256D02*
X455514Y479256D01*
X457674Y479256D02*
X471578Y465352D01*
X455514Y479256D02*
X455514Y496669D01*
X422000Y575000D02*
X419000Y578000D01*
X401000Y578000D01*
X400000Y577000D01*
X471578Y451422D02*
X473028Y449972D01*
X455514Y496669D02*
X445669Y506514D01*
X433000Y506514D01*
X422000Y517514D01*
X422000Y575000D01*
D16*
X422059Y495941D03*
X522000Y381000D03*
D17*
X442302Y498386D02*
X430698Y498386D01*
X428253Y495941D02*
X422059Y495941D01*
X428253Y495941D02*
X430698Y498386D01*
X522000Y429688D02*
X522000Y381000D01*
X447386Y493302D02*
X442302Y498386D01*
X447386Y493302D02*
X447386Y473425D01*
X449683Y471128D01*
X454307Y471128D01*
X463450Y461985D01*
X463450Y447550D01*
X469156Y441844D02*
X509844Y441844D01*
X469156Y441844D02*
X463450Y447550D01*
X509844Y441844D02*
X522000Y429688D01*
D16*
X429000Y528000D03*
X639000Y380000D03*
D17*
X429000Y517000D02*
X429000Y528000D01*
X447352Y510578D02*
X459578Y498352D01*
X459578Y483100D01*
X435422Y510578D02*
X429000Y517000D01*
X435422Y510578D02*
X447352Y510578D01*
X476000Y466678D02*
X476000Y455000D01*
X476964Y454036D01*
X634964Y454036D01*
X639000Y450000D01*
X639000Y380000D01*
X476000Y466678D02*
X459578Y483100D01*
D16*
X293000Y528000D03*
X652678Y367000D03*
D17*
X476530Y274066D02*
X463966Y286630D01*
X463966Y296891D01*
X454476Y306381D01*
X433836Y306381D01*
X293000Y447217D01*
X293000Y528000D01*
X652678Y367000D02*
X652678Y305535D01*
X645030Y297887D01*
X645030Y281030D01*
X638066Y274066D01*
X476530Y274066D01*
D16*
X300000Y504000D03*
X652000Y404000D03*
D17*
X478213Y278130D02*
X468030Y288313D01*
X301678Y502322D02*
X300000Y504000D01*
X468030Y298574D02*
X468030Y288313D01*
X651322Y404678D02*
X652000Y404000D01*
X640966Y282713D02*
X636383Y278130D01*
X652000Y377263D02*
X652000Y404000D01*
X652000Y377263D02*
X640966Y366229D01*
X640966Y282713D01*
X636383Y278130D02*
X478213Y278130D01*
X456160Y310445D02*
X435520Y310445D01*
X456160Y310445D02*
X468030Y298574D01*
X301678Y444286D02*
X301678Y502322D01*
X301678Y444286D02*
X435520Y310445D01*
D16*
X285000Y599000D03*
X203000Y597000D03*
X364000Y605000D03*
X420000Y614000D03*
X648000Y549000D03*
X596000Y520000D03*
X566000Y519000D03*
X705000Y421000D03*
X706000Y363000D03*
X590000Y365000D03*
X588000Y421000D03*
X470000Y423000D03*
X471000Y366000D03*
X307000Y410000D03*
X342000Y431000D03*
X343000Y516000D03*
X390000Y516000D03*
X275000Y512000D03*
X233000Y474000D03*
X323000Y472000D03*
X508000Y473000D03*
X524000Y514000D03*
X489000Y521000D03*
X308000Y559000D03*
X435322Y520000D03*
D18*
X450322Y535000D01*
X460000Y535000D01*
D16*
X460000Y535000D03*
X506000Y583000D03*
D18*
X506000Y543000D01*
X498000Y535000D01*
X460000Y535000D01*
D16*
X622470Y571530D03*
D18*
X618470Y575530D01*
X513470Y575530D01*
X506000Y583000D01*
D16*
X598000Y468000D03*
D18*
X611000Y481000D02*
X611000Y560059D01*
X611000Y481000D02*
X598000Y468000D01*
X611000Y560059D02*
X622470Y571530D01*
X221800Y575900D02*
X196900Y551000D01*
X157000Y551000D01*
X127000Y521000D01*
X127000Y520700D01*
X234402Y588402D02*
X415782Y588402D01*
X427080Y558242D02*
X450322Y535000D01*
X427080Y558242D02*
X427080Y577104D01*
X415782Y588402D01*
X234402Y588402D02*
X221900Y575900D01*
X221800Y575900D01*
D16*
X304000Y536000D03*
D18*
X211900Y536000D01*
X196900Y551000D01*
D16*
X426567Y503567D03*
D17*
X443985Y502450D02*
X451450Y494985D01*
X451450Y476000D01*
X427684Y502450D02*
X426567Y503567D01*
X427684Y502450D02*
X443985Y502450D01*
X467514Y449233D02*
X470839Y445908D01*
X467514Y463669D02*
X455991Y475192D01*
X467514Y463669D02*
X467514Y449233D01*
X452258Y475192D02*
X451450Y476000D01*
X452258Y475192D02*
X455991Y475192D01*
D16*
X536000Y405000D03*
D17*
X536000Y437000D01*
X527092Y445908D02*
X470839Y445908D01*
X527092Y445908D02*
X536000Y437000D01*
D16*
X387130Y442000D03*
D17*
X393322Y579619D02*
X389619Y583322D01*
X393322Y579619D02*
X393322Y574381D01*
X302422Y583322D02*
X269600Y550500D01*
X272600Y550500D01*
X363130Y544190D02*
X393322Y574381D01*
X363130Y544190D02*
X363130Y466000D01*
X387130Y442000D01*
X389619Y583322D02*
X302422Y583322D01*
D16*
X308000Y496000D03*
D17*
X348000Y404000D02*
X375000Y404000D01*
X348000Y404000D02*
X308000Y444000D01*
X308000Y496000D01*
D16*
X375000Y404000D03*
X378000Y577000D03*
D17*
X377948Y577000D01*
X354974Y554026D01*
X354974Y454967D01*
X367970Y441970D01*
D16*
X367970Y441970D03*
X387000Y577000D03*
X377550Y442000D03*
D17*
X377550Y442331D01*
X359038Y460843D01*
X359038Y549038D01*
X387000Y577000D01*
D16*
X347000Y456000D03*
X449000Y456000D03*
D18*
X362931Y434632D02*
X347000Y450563D01*
X347000Y456000D01*
X362931Y434632D02*
X391632Y434632D01*
X412500Y455500D02*
X448500Y455500D01*
X412500Y455500D02*
X391632Y434632D01*
X448500Y455500D02*
X449000Y456000D01*
D16*
X645000Y457000D03*
X463000Y607000D03*
D18*
X629808Y574569D02*
X629808Y472192D01*
X645000Y457000D01*
X493000Y607000D02*
X463000Y607000D01*
X518374Y581626D02*
X622752Y581626D01*
X629808Y574569D01*
X518374Y581626D02*
X493000Y607000D01*
D16*
X413000Y474000D03*
X411000Y560000D03*
M02*
