G04 EAGLE Gerber RS-274X export*
G75*
%MOMM*%
%FSLAX34Y34*%
%LPD*%
%IN*%
%IPPOS*%
%AMOC8*
5,1,8,0,0,1.08239X$1,22.5*%
G01*
%ADD10C,0.254000*%


D10*
X-8000Y639000D02*
X-7000Y222000D01*
X763000Y222000D01*
X762000Y639000D01*
X-8000Y639000D01*
X703081Y503700D02*
X703639Y503637D01*
X704186Y503512D01*
X704716Y503327D01*
X705222Y503083D01*
X705698Y502784D01*
X706137Y502434D01*
X706534Y502037D01*
X706884Y501598D01*
X707183Y501122D01*
X707427Y500616D01*
X707612Y500086D01*
X707737Y499539D01*
X707800Y498981D01*
X707800Y498419D01*
X707737Y497861D01*
X707612Y497314D01*
X707427Y496784D01*
X707183Y496278D01*
X706884Y495802D01*
X706534Y495363D01*
X706137Y494966D01*
X705698Y494616D01*
X705222Y494317D01*
X704716Y494073D01*
X704186Y493888D01*
X703639Y493763D01*
X703081Y493700D01*
X702519Y493700D01*
X701961Y493763D01*
X701414Y493888D01*
X700884Y494073D01*
X700378Y494317D01*
X699902Y494616D01*
X699463Y494966D01*
X699066Y495363D01*
X698716Y495802D01*
X698417Y496278D01*
X698173Y496784D01*
X697988Y497314D01*
X697863Y497861D01*
X697800Y498419D01*
X697800Y498981D01*
X697863Y499539D01*
X697988Y500086D01*
X698173Y500616D01*
X698417Y501122D01*
X698716Y501598D01*
X699066Y502037D01*
X699463Y502434D01*
X699902Y502784D01*
X700378Y503083D01*
X700884Y503327D01*
X701414Y503512D01*
X701961Y503637D01*
X702519Y503700D01*
X703081Y503700D01*
X703081Y547700D02*
X703639Y547637D01*
X704186Y547512D01*
X704716Y547327D01*
X705222Y547083D01*
X705698Y546784D01*
X706137Y546434D01*
X706534Y546037D01*
X706884Y545598D01*
X707183Y545122D01*
X707427Y544616D01*
X707612Y544086D01*
X707737Y543539D01*
X707800Y542981D01*
X707800Y542419D01*
X707737Y541861D01*
X707612Y541314D01*
X707427Y540784D01*
X707183Y540278D01*
X706884Y539802D01*
X706534Y539363D01*
X706137Y538966D01*
X705698Y538616D01*
X705222Y538317D01*
X704716Y538073D01*
X704186Y537888D01*
X703639Y537763D01*
X703081Y537700D01*
X702519Y537700D01*
X701961Y537763D01*
X701414Y537888D01*
X700884Y538073D01*
X700378Y538317D01*
X699902Y538616D01*
X699463Y538966D01*
X699066Y539363D01*
X698716Y539802D01*
X698417Y540278D01*
X698173Y540784D01*
X697988Y541314D01*
X697863Y541861D01*
X697800Y542419D01*
X697800Y542981D01*
X697863Y543539D01*
X697988Y544086D01*
X698173Y544616D01*
X698417Y545122D01*
X698716Y545598D01*
X699066Y546037D01*
X699463Y546434D01*
X699902Y546784D01*
X700378Y547083D01*
X700884Y547327D01*
X701414Y547512D01*
X701961Y547637D01*
X702519Y547700D01*
X703081Y547700D01*
X45560Y508833D02*
X45484Y507964D01*
X45332Y507104D01*
X45106Y506260D01*
X44808Y505440D01*
X44439Y504648D01*
X44002Y503892D01*
X43501Y503177D01*
X42940Y502508D01*
X42322Y501890D01*
X41653Y501329D01*
X40938Y500828D01*
X40182Y500391D01*
X39390Y500022D01*
X38570Y499724D01*
X37726Y499498D01*
X36867Y499346D01*
X35997Y499270D01*
X35123Y499270D01*
X34254Y499346D01*
X33394Y499498D01*
X32550Y499724D01*
X31730Y500022D01*
X30938Y500391D01*
X30182Y500828D01*
X29467Y501329D01*
X28798Y501890D01*
X28180Y502508D01*
X27619Y503177D01*
X27118Y503892D01*
X26681Y504648D01*
X26312Y505440D01*
X26014Y506260D01*
X25788Y507104D01*
X25636Y507964D01*
X25560Y508833D01*
X25560Y509707D01*
X25636Y510577D01*
X25788Y511436D01*
X26014Y512280D01*
X26312Y513100D01*
X26681Y513892D01*
X27118Y514648D01*
X27619Y515363D01*
X28180Y516032D01*
X28798Y516650D01*
X29467Y517211D01*
X30182Y517712D01*
X30938Y518149D01*
X31730Y518518D01*
X32550Y518816D01*
X33394Y519042D01*
X34254Y519194D01*
X35123Y519270D01*
X35997Y519270D01*
X36867Y519194D01*
X37726Y519042D01*
X38570Y518816D01*
X39390Y518518D01*
X40182Y518149D01*
X40938Y517712D01*
X41653Y517211D01*
X42322Y516650D01*
X42940Y516032D01*
X43501Y515363D01*
X44002Y514648D01*
X44439Y513892D01*
X44808Y513100D01*
X45106Y512280D01*
X45332Y511436D01*
X45484Y510577D01*
X45560Y509707D01*
X45560Y508833D01*
X253840Y508833D02*
X253764Y507964D01*
X253612Y507104D01*
X253386Y506260D01*
X253088Y505440D01*
X252719Y504648D01*
X252282Y503892D01*
X251781Y503177D01*
X251220Y502508D01*
X250602Y501890D01*
X249933Y501329D01*
X249218Y500828D01*
X248462Y500391D01*
X247670Y500022D01*
X246850Y499724D01*
X246006Y499498D01*
X245147Y499346D01*
X244277Y499270D01*
X243403Y499270D01*
X242534Y499346D01*
X241674Y499498D01*
X240830Y499724D01*
X240010Y500022D01*
X239218Y500391D01*
X238462Y500828D01*
X237747Y501329D01*
X237078Y501890D01*
X236460Y502508D01*
X235899Y503177D01*
X235398Y503892D01*
X234961Y504648D01*
X234592Y505440D01*
X234294Y506260D01*
X234068Y507104D01*
X233916Y507964D01*
X233840Y508833D01*
X233840Y509707D01*
X233916Y510577D01*
X234068Y511436D01*
X234294Y512280D01*
X234592Y513100D01*
X234961Y513892D01*
X235398Y514648D01*
X235899Y515363D01*
X236460Y516032D01*
X237078Y516650D01*
X237747Y517211D01*
X238462Y517712D01*
X239218Y518149D01*
X240010Y518518D01*
X240830Y518816D01*
X241674Y519042D01*
X242534Y519194D01*
X243403Y519270D01*
X244277Y519270D01*
X245147Y519194D01*
X246006Y519042D01*
X246850Y518816D01*
X247670Y518518D01*
X248462Y518149D01*
X249218Y517712D01*
X249933Y517211D01*
X250602Y516650D01*
X251220Y516032D01*
X251781Y515363D01*
X252282Y514648D01*
X252719Y513892D01*
X253088Y513100D01*
X253386Y512280D01*
X253612Y511436D01*
X253764Y510577D01*
X253840Y509707D01*
X253840Y508833D01*
X253840Y277693D02*
X253764Y276824D01*
X253612Y275964D01*
X253386Y275120D01*
X253088Y274300D01*
X252719Y273508D01*
X252282Y272752D01*
X251781Y272037D01*
X251220Y271368D01*
X250602Y270750D01*
X249933Y270189D01*
X249218Y269688D01*
X248462Y269251D01*
X247670Y268882D01*
X246850Y268584D01*
X246006Y268358D01*
X245147Y268206D01*
X244277Y268130D01*
X243403Y268130D01*
X242534Y268206D01*
X241674Y268358D01*
X240830Y268584D01*
X240010Y268882D01*
X239218Y269251D01*
X238462Y269688D01*
X237747Y270189D01*
X237078Y270750D01*
X236460Y271368D01*
X235899Y272037D01*
X235398Y272752D01*
X234961Y273508D01*
X234592Y274300D01*
X234294Y275120D01*
X234068Y275964D01*
X233916Y276824D01*
X233840Y277693D01*
X233840Y278567D01*
X233916Y279437D01*
X234068Y280296D01*
X234294Y281140D01*
X234592Y281960D01*
X234961Y282752D01*
X235398Y283508D01*
X235899Y284223D01*
X236460Y284892D01*
X237078Y285510D01*
X237747Y286071D01*
X238462Y286572D01*
X239218Y287009D01*
X240010Y287378D01*
X240830Y287676D01*
X241674Y287902D01*
X242534Y288054D01*
X243403Y288130D01*
X244277Y288130D01*
X245147Y288054D01*
X246006Y287902D01*
X246850Y287676D01*
X247670Y287378D01*
X248462Y287009D01*
X249218Y286572D01*
X249933Y286071D01*
X250602Y285510D01*
X251220Y284892D01*
X251781Y284223D01*
X252282Y283508D01*
X252719Y282752D01*
X253088Y281960D01*
X253386Y281140D01*
X253612Y280296D01*
X253764Y279437D01*
X253840Y278567D01*
X253840Y277693D01*
X45560Y277693D02*
X45484Y276824D01*
X45332Y275964D01*
X45106Y275120D01*
X44808Y274300D01*
X44439Y273508D01*
X44002Y272752D01*
X43501Y272037D01*
X42940Y271368D01*
X42322Y270750D01*
X41653Y270189D01*
X40938Y269688D01*
X40182Y269251D01*
X39390Y268882D01*
X38570Y268584D01*
X37726Y268358D01*
X36867Y268206D01*
X35997Y268130D01*
X35123Y268130D01*
X34254Y268206D01*
X33394Y268358D01*
X32550Y268584D01*
X31730Y268882D01*
X30938Y269251D01*
X30182Y269688D01*
X29467Y270189D01*
X28798Y270750D01*
X28180Y271368D01*
X27619Y272037D01*
X27118Y272752D01*
X26681Y273508D01*
X26312Y274300D01*
X26014Y275120D01*
X25788Y275964D01*
X25636Y276824D01*
X25560Y277693D01*
X25560Y278567D01*
X25636Y279437D01*
X25788Y280296D01*
X26014Y281140D01*
X26312Y281960D01*
X26681Y282752D01*
X27118Y283508D01*
X27619Y284223D01*
X28180Y284892D01*
X28798Y285510D01*
X29467Y286071D01*
X30182Y286572D01*
X30938Y287009D01*
X31730Y287378D01*
X32550Y287676D01*
X33394Y287902D01*
X34254Y288054D01*
X35123Y288130D01*
X35997Y288130D01*
X36867Y288054D01*
X37726Y287902D01*
X38570Y287676D01*
X39390Y287378D01*
X40182Y287009D01*
X40938Y286572D01*
X41653Y286071D01*
X42322Y285510D01*
X42940Y284892D01*
X43501Y284223D01*
X44002Y283508D01*
X44439Y282752D01*
X44808Y281960D01*
X45106Y281140D01*
X45332Y280296D01*
X45484Y279437D01*
X45560Y278567D01*
X45560Y277693D01*
M02*
