G04 EAGLE Gerber RS-274X export*
G75*
%MOMM*%
%FSLAX34Y34*%
%LPD*%
%INSolderpaste Top*%
%IPPOS*%
%AMOC8*
5,1,8,0,0,1.08239X$1,22.5*%
G01*
%ADD10R,1.500000X1.300000*%
%ADD11R,2.400000X2.000000*%
%ADD12R,2.308000X0.500000*%
%ADD13R,1.525000X0.650000*%
%ADD14R,1.200000X1.200000*%
%ADD15R,0.787400X0.889000*%
%ADD16R,1.390000X0.580000*%
%ADD17R,0.480000X1.900000*%
%ADD18R,1.600000X0.550000*%
%ADD19R,0.550000X1.600000*%
%ADD20R,1.803400X2.590800*%
%ADD21C,0.450000*%


D10*
X542600Y594100D03*
X542600Y613100D03*
X518700Y594200D03*
X518700Y613200D03*
X444500Y574700D03*
X444500Y593700D03*
D11*
X677800Y476700D03*
D12*
X672160Y504700D03*
X672160Y512700D03*
X672160Y520700D03*
X672160Y528700D03*
X672160Y536700D03*
D11*
X732800Y476700D03*
X677800Y564700D03*
X732800Y564700D03*
D13*
X677380Y430500D03*
X677380Y417800D03*
X677380Y405100D03*
X677380Y392400D03*
X677380Y379700D03*
X677380Y367000D03*
X677380Y354300D03*
X731620Y354300D03*
X731620Y367000D03*
X731620Y379700D03*
X731620Y392400D03*
X731620Y405100D03*
X731620Y417800D03*
X731620Y430500D03*
X562080Y430500D03*
X562080Y417800D03*
X562080Y405100D03*
X562080Y392400D03*
X562080Y379700D03*
X562080Y367000D03*
X562080Y354300D03*
X616320Y354300D03*
X616320Y367000D03*
X616320Y379700D03*
X616320Y392400D03*
X616320Y405100D03*
X616320Y417800D03*
X616320Y430500D03*
X443680Y431500D03*
X443680Y418800D03*
X443680Y406100D03*
X443680Y393400D03*
X443680Y380700D03*
X443680Y368000D03*
X443680Y355300D03*
X497920Y355300D03*
X497920Y368000D03*
X497920Y380700D03*
X497920Y393400D03*
X497920Y406100D03*
X497920Y418800D03*
X497920Y431500D03*
D14*
X29600Y600200D03*
X29600Y579200D03*
X48800Y599700D03*
X48800Y578700D03*
X96000Y599700D03*
X96000Y578700D03*
X126200Y599700D03*
X126200Y578700D03*
X158400Y599700D03*
X158400Y578700D03*
D15*
X537306Y489260D03*
X518002Y489260D03*
X527654Y468940D03*
X497906Y489460D03*
X478602Y489460D03*
X488254Y469140D03*
X459694Y505940D03*
X478998Y505940D03*
X469346Y526260D03*
X518106Y534460D03*
X498802Y534460D03*
X508454Y514140D03*
D16*
X470950Y593700D03*
X470950Y584200D03*
X470950Y574700D03*
X494250Y574700D03*
X494250Y593700D03*
D17*
X617450Y555550D03*
X610950Y555550D03*
X604450Y555550D03*
X597950Y555550D03*
X591450Y555550D03*
X584950Y555550D03*
X578450Y555550D03*
X571950Y555550D03*
X565450Y555550D03*
X558950Y555550D03*
X558950Y485450D03*
X565450Y485450D03*
X571950Y485450D03*
X578450Y485450D03*
X584950Y485450D03*
X591450Y485450D03*
X597950Y485450D03*
X604450Y485450D03*
X610950Y485450D03*
X617450Y485450D03*
D18*
X409000Y488000D03*
X409000Y496000D03*
X409000Y504000D03*
X409000Y512000D03*
X409000Y520000D03*
X409000Y528000D03*
X409000Y536000D03*
X409000Y544000D03*
D19*
X395200Y557800D03*
X387200Y557800D03*
X379200Y557800D03*
X371200Y557800D03*
X363200Y557800D03*
X355200Y557800D03*
X347200Y557800D03*
X339200Y557800D03*
D18*
X325400Y544000D03*
X325400Y536000D03*
X325400Y528000D03*
X325400Y520000D03*
X325400Y512000D03*
X325400Y504000D03*
X325400Y496000D03*
X325400Y488000D03*
D19*
X339200Y474200D03*
X347200Y474200D03*
X355200Y474200D03*
X363200Y474200D03*
X371200Y474200D03*
X379200Y474200D03*
X387200Y474200D03*
X395200Y474200D03*
D20*
X299593Y318643D03*
X411607Y318643D03*
D21*
X618900Y584425D02*
X618900Y598975D01*
X606900Y598975D02*
X606900Y584425D01*
X594900Y584425D02*
X594900Y598975D01*
M02*
