G04 EAGLE Gerber RS-274X export*
G75*
%MOMM*%
%FSLAX34Y34*%
%LPD*%
%INBottom Copper*%
%IPPOS*%
%AMOC8*
5,1,8,0,0,1.08239X$1,22.5*%
G01*
%ADD10C,1.625600*%
%ADD11C,2.184400*%
%ADD12R,1.508000X1.508000*%
%ADD13C,1.508000*%
%ADD14C,1.638300*%
%ADD15C,1.498600*%
%ADD16C,0.654800*%
%ADD17C,0.406400*%
%ADD18C,0.203200*%

G36*
X753058Y229629D02*
X753058Y229629D01*
X753116Y229627D01*
X753198Y229649D01*
X753282Y229661D01*
X753335Y229684D01*
X753391Y229699D01*
X753464Y229742D01*
X753541Y229777D01*
X753586Y229815D01*
X753636Y229844D01*
X753694Y229906D01*
X753758Y229960D01*
X753790Y230009D01*
X753830Y230052D01*
X753869Y230127D01*
X753916Y230197D01*
X753933Y230253D01*
X753960Y230305D01*
X753971Y230373D01*
X754001Y230468D01*
X754004Y230568D01*
X754015Y230636D01*
X754015Y630364D01*
X754007Y630422D01*
X754009Y630480D01*
X753987Y630562D01*
X753975Y630646D01*
X753952Y630699D01*
X753937Y630755D01*
X753894Y630828D01*
X753859Y630905D01*
X753821Y630950D01*
X753792Y631000D01*
X753730Y631058D01*
X753676Y631122D01*
X753627Y631154D01*
X753584Y631194D01*
X753509Y631233D01*
X753439Y631280D01*
X753383Y631297D01*
X753331Y631324D01*
X753263Y631335D01*
X753168Y631365D01*
X753068Y631368D01*
X753000Y631379D01*
X657Y631379D01*
X598Y631371D01*
X538Y631372D01*
X458Y631351D01*
X375Y631339D01*
X321Y631315D01*
X263Y631300D01*
X192Y631257D01*
X116Y631223D01*
X70Y631185D01*
X19Y631154D01*
X-38Y631093D01*
X-101Y631040D01*
X-134Y630990D01*
X-175Y630946D01*
X-213Y630872D01*
X-259Y630803D01*
X-277Y630746D01*
X-304Y630693D01*
X-315Y630625D01*
X-345Y630532D01*
X-347Y630430D01*
X-359Y630362D01*
X599Y230998D01*
X607Y230941D01*
X606Y230884D01*
X627Y230801D01*
X640Y230716D01*
X663Y230664D01*
X678Y230609D01*
X721Y230535D01*
X757Y230457D01*
X794Y230413D01*
X823Y230364D01*
X885Y230306D01*
X941Y230240D01*
X988Y230209D01*
X1030Y230170D01*
X1106Y230131D01*
X1178Y230083D01*
X1232Y230066D01*
X1283Y230040D01*
X1352Y230029D01*
X1449Y229998D01*
X1547Y229996D01*
X1614Y229985D01*
X345630Y229985D01*
X345659Y229989D01*
X345688Y229986D01*
X345800Y230009D01*
X345912Y230025D01*
X345938Y230037D01*
X345967Y230042D01*
X346068Y230095D01*
X346171Y230141D01*
X346194Y230160D01*
X346220Y230173D01*
X346302Y230251D01*
X346388Y230325D01*
X346404Y230349D01*
X346426Y230369D01*
X346483Y230467D01*
X346546Y230561D01*
X346555Y230589D01*
X346569Y230614D01*
X346597Y230724D01*
X346631Y230832D01*
X346632Y230862D01*
X346639Y230890D01*
X346636Y231003D01*
X346639Y231116D01*
X346631Y231145D01*
X346630Y231174D01*
X346596Y231282D01*
X346567Y231391D01*
X346552Y231417D01*
X346543Y231445D01*
X346497Y231508D01*
X346422Y231636D01*
X346376Y231679D01*
X346348Y231718D01*
X342787Y235279D01*
X341307Y238852D01*
X341240Y238965D01*
X341176Y239080D01*
X341168Y239088D01*
X341163Y239097D01*
X341067Y239187D01*
X340973Y239280D01*
X340964Y239285D01*
X340956Y239292D01*
X340839Y239352D01*
X340723Y239415D01*
X340713Y239417D01*
X340703Y239422D01*
X340574Y239448D01*
X340446Y239476D01*
X340435Y239475D01*
X340424Y239477D01*
X340294Y239466D01*
X340162Y239457D01*
X340152Y239454D01*
X340141Y239453D01*
X340019Y239406D01*
X339894Y239361D01*
X339886Y239355D01*
X339876Y239351D01*
X339772Y239272D01*
X339664Y239194D01*
X339658Y239186D01*
X339649Y239179D01*
X339479Y238952D01*
X339473Y238936D01*
X339464Y238924D01*
X339290Y238581D01*
X338361Y237303D01*
X337245Y236187D01*
X335967Y235258D01*
X334560Y234541D01*
X333058Y234053D01*
X332739Y234003D01*
X332739Y242824D01*
X332731Y242881D01*
X332733Y242935D01*
X332732Y242936D01*
X332733Y242940D01*
X332711Y243022D01*
X332699Y243105D01*
X332675Y243159D01*
X332661Y243215D01*
X332618Y243288D01*
X332583Y243365D01*
X332545Y243409D01*
X332515Y243460D01*
X332454Y243517D01*
X332399Y243582D01*
X332351Y243614D01*
X332308Y243654D01*
X332233Y243693D01*
X332163Y243739D01*
X332107Y243757D01*
X332055Y243784D01*
X331987Y243795D01*
X331892Y243825D01*
X331792Y243828D01*
X331724Y243839D01*
X330707Y243839D01*
X330707Y243841D01*
X331724Y243841D01*
X331782Y243849D01*
X331840Y243848D01*
X331922Y243869D01*
X332005Y243881D01*
X332059Y243905D01*
X332115Y243919D01*
X332188Y243962D01*
X332265Y243997D01*
X332310Y244035D01*
X332360Y244065D01*
X332418Y244126D01*
X332482Y244181D01*
X332514Y244229D01*
X332554Y244272D01*
X332593Y244347D01*
X332639Y244417D01*
X332657Y244473D01*
X332684Y244525D01*
X332695Y244593D01*
X332725Y244688D01*
X332728Y244788D01*
X332739Y244856D01*
X332739Y253677D01*
X333058Y253627D01*
X334560Y253139D01*
X335967Y252422D01*
X337245Y251493D01*
X338361Y250377D01*
X339290Y249099D01*
X339464Y248756D01*
X339540Y248648D01*
X339613Y248539D01*
X339621Y248532D01*
X339628Y248523D01*
X339731Y248440D01*
X339831Y248356D01*
X339841Y248351D01*
X339849Y248344D01*
X339971Y248293D01*
X340091Y248240D01*
X340101Y248239D01*
X340111Y248234D01*
X340242Y248219D01*
X340372Y248201D01*
X340383Y248203D01*
X340394Y248201D01*
X340524Y248223D01*
X340654Y248242D01*
X340663Y248246D01*
X340674Y248248D01*
X340793Y248305D01*
X340913Y248359D01*
X340921Y248366D01*
X340931Y248371D01*
X341029Y248458D01*
X341129Y248543D01*
X341134Y248552D01*
X341143Y248559D01*
X341295Y248800D01*
X341300Y248816D01*
X341307Y248828D01*
X342787Y252401D01*
X347039Y256653D01*
X352594Y258954D01*
X358606Y258954D01*
X364161Y256653D01*
X367328Y253486D01*
X367375Y253451D01*
X367415Y253408D01*
X367488Y253366D01*
X367555Y253315D01*
X367610Y253294D01*
X367660Y253265D01*
X367742Y253244D01*
X367821Y253214D01*
X367879Y253209D01*
X367936Y253195D01*
X368020Y253197D01*
X368104Y253190D01*
X368162Y253202D01*
X368220Y253204D01*
X368300Y253230D01*
X368383Y253246D01*
X368435Y253273D01*
X368491Y253291D01*
X368547Y253331D01*
X368635Y253377D01*
X368708Y253446D01*
X368764Y253486D01*
X371931Y256653D01*
X377486Y258954D01*
X383498Y258954D01*
X389053Y256653D01*
X393305Y252401D01*
X395606Y246846D01*
X395606Y240834D01*
X393305Y235279D01*
X389744Y231718D01*
X389726Y231694D01*
X389704Y231676D01*
X389641Y231581D01*
X389573Y231491D01*
X389563Y231463D01*
X389546Y231439D01*
X389512Y231331D01*
X389472Y231225D01*
X389469Y231196D01*
X389461Y231168D01*
X389458Y231054D01*
X389448Y230942D01*
X389454Y230913D01*
X389453Y230884D01*
X389482Y230774D01*
X389504Y230663D01*
X389518Y230637D01*
X389525Y230609D01*
X389583Y230511D01*
X389635Y230411D01*
X389655Y230389D01*
X389670Y230364D01*
X389753Y230287D01*
X389831Y230205D01*
X389856Y230190D01*
X389878Y230170D01*
X389978Y230118D01*
X390076Y230061D01*
X390105Y230054D01*
X390131Y230040D01*
X390208Y230027D01*
X390352Y229991D01*
X390414Y229993D01*
X390462Y229985D01*
X751579Y229985D01*
X751646Y229918D01*
X751716Y229866D01*
X751780Y229806D01*
X751829Y229780D01*
X751873Y229747D01*
X751955Y229716D01*
X752033Y229676D01*
X752080Y229668D01*
X752139Y229646D01*
X752287Y229634D01*
X752364Y229621D01*
X753000Y229621D01*
X753058Y229629D01*
G37*
%LPC*%
G36*
X474812Y265429D02*
X474812Y265429D01*
X471638Y266744D01*
X469065Y269316D01*
X461470Y276911D01*
X461424Y276946D01*
X461384Y276989D01*
X461311Y277032D01*
X461243Y277082D01*
X461189Y277103D01*
X461138Y277133D01*
X461057Y277153D01*
X460978Y277183D01*
X460919Y277188D01*
X460863Y277203D01*
X460778Y277200D01*
X460694Y277207D01*
X460637Y277196D01*
X460579Y277194D01*
X460498Y277168D01*
X460416Y277151D01*
X460364Y277124D01*
X460308Y277106D01*
X460252Y277066D01*
X460163Y277020D01*
X460091Y276951D01*
X460035Y276911D01*
X459504Y276380D01*
X452688Y273557D01*
X445312Y273557D01*
X438496Y276380D01*
X433280Y281596D01*
X430457Y288412D01*
X430457Y295788D01*
X431003Y297107D01*
X431018Y297163D01*
X431042Y297217D01*
X431053Y297300D01*
X431074Y297382D01*
X431073Y297440D01*
X431081Y297498D01*
X431069Y297582D01*
X431066Y297666D01*
X431048Y297722D01*
X431040Y297780D01*
X431005Y297857D01*
X430980Y297937D01*
X430947Y297986D01*
X430923Y298039D01*
X430868Y298103D01*
X430821Y298173D01*
X430777Y298211D01*
X430739Y298255D01*
X430680Y298292D01*
X430604Y298356D01*
X430512Y298397D01*
X430454Y298433D01*
X428944Y299059D01*
X342524Y385479D01*
X342514Y385486D01*
X342506Y385496D01*
X342400Y385572D01*
X342297Y385650D01*
X342285Y385654D01*
X342275Y385661D01*
X342152Y385705D01*
X342031Y385751D01*
X342019Y385752D01*
X342007Y385756D01*
X341877Y385764D01*
X341748Y385774D01*
X341736Y385772D01*
X341723Y385773D01*
X341596Y385744D01*
X341469Y385719D01*
X341458Y385713D01*
X341446Y385710D01*
X341332Y385648D01*
X341217Y385588D01*
X341208Y385579D01*
X341197Y385573D01*
X341105Y385482D01*
X341011Y385392D01*
X341004Y385381D01*
X340996Y385372D01*
X340967Y385316D01*
X340867Y385146D01*
X340856Y385105D01*
X340841Y385075D01*
X340654Y384500D01*
X339887Y382995D01*
X338894Y381628D01*
X337700Y380434D01*
X336333Y379441D01*
X334828Y378674D01*
X333221Y378152D01*
X332739Y378076D01*
X332739Y387604D01*
X332731Y387662D01*
X332733Y387720D01*
X332711Y387802D01*
X332699Y387885D01*
X332675Y387939D01*
X332661Y387995D01*
X332618Y388068D01*
X332583Y388145D01*
X332545Y388189D01*
X332515Y388240D01*
X332454Y388297D01*
X332399Y388362D01*
X332351Y388394D01*
X332308Y388434D01*
X332233Y388473D01*
X332163Y388519D01*
X332107Y388537D01*
X332055Y388564D01*
X331987Y388575D01*
X331892Y388605D01*
X331792Y388608D01*
X331724Y388619D01*
X330707Y388619D01*
X330707Y389636D01*
X330699Y389694D01*
X330700Y389752D01*
X330679Y389834D01*
X330667Y389917D01*
X330643Y389971D01*
X330629Y390027D01*
X330586Y390100D01*
X330551Y390177D01*
X330513Y390222D01*
X330483Y390272D01*
X330422Y390330D01*
X330367Y390394D01*
X330319Y390426D01*
X330276Y390466D01*
X330201Y390505D01*
X330131Y390551D01*
X330075Y390569D01*
X330023Y390596D01*
X329955Y390607D01*
X329860Y390637D01*
X329760Y390640D01*
X329692Y390651D01*
X320164Y390651D01*
X320240Y391133D01*
X320762Y392740D01*
X321529Y394245D01*
X322522Y395612D01*
X323716Y396806D01*
X325083Y397799D01*
X326588Y398566D01*
X327163Y398753D01*
X327174Y398758D01*
X327186Y398760D01*
X327301Y398820D01*
X327418Y398877D01*
X327427Y398886D01*
X327438Y398891D01*
X327532Y398981D01*
X327629Y399068D01*
X327635Y399079D01*
X327644Y399087D01*
X327710Y399199D01*
X327778Y399310D01*
X327782Y399322D01*
X327788Y399332D01*
X327820Y399459D01*
X327855Y399584D01*
X327855Y399596D01*
X327858Y399608D01*
X327854Y399738D01*
X327853Y399868D01*
X327849Y399880D01*
X327849Y399892D01*
X327809Y400016D01*
X327772Y400140D01*
X327765Y400151D01*
X327762Y400163D01*
X327725Y400214D01*
X327619Y400380D01*
X327587Y400408D01*
X327567Y400436D01*
X285678Y442325D01*
X284363Y445499D01*
X284363Y520809D01*
X284351Y520895D01*
X284348Y520983D01*
X284331Y521035D01*
X284323Y521090D01*
X284288Y521170D01*
X284261Y521253D01*
X284233Y521293D01*
X284207Y521350D01*
X284111Y521463D01*
X284066Y521527D01*
X283764Y521829D01*
X282152Y525721D01*
X282151Y525722D01*
X282151Y525723D01*
X282079Y525844D01*
X282007Y525965D01*
X282006Y525966D01*
X282005Y525968D01*
X281901Y526065D01*
X281801Y526161D01*
X281799Y526161D01*
X281798Y526162D01*
X281672Y526227D01*
X281548Y526291D01*
X281546Y526291D01*
X281545Y526292D01*
X281530Y526294D01*
X281269Y526346D01*
X281239Y526343D01*
X281214Y526347D01*
X253761Y526347D01*
X253676Y526335D01*
X253590Y526333D01*
X253536Y526315D01*
X253480Y526307D01*
X253401Y526272D01*
X253319Y526246D01*
X253272Y526214D01*
X253220Y526191D01*
X253155Y526136D01*
X253083Y526088D01*
X253046Y526044D01*
X253003Y526008D01*
X252956Y525936D01*
X252900Y525870D01*
X252877Y525818D01*
X252846Y525771D01*
X252820Y525689D01*
X252785Y525610D01*
X252777Y525554D01*
X252760Y525500D01*
X252758Y525414D01*
X252746Y525329D01*
X252754Y525273D01*
X252752Y525216D01*
X252774Y525133D01*
X252786Y525047D01*
X252810Y524996D01*
X252824Y524941D01*
X252868Y524867D01*
X252904Y524788D01*
X252940Y524745D01*
X252970Y524696D01*
X253032Y524637D01*
X253088Y524572D01*
X253130Y524546D01*
X253177Y524502D01*
X253306Y524436D01*
X253373Y524394D01*
X253821Y524208D01*
X258778Y519251D01*
X261461Y512775D01*
X261461Y505765D01*
X258778Y499289D01*
X253821Y494332D01*
X247345Y491649D01*
X240335Y491649D01*
X233859Y494332D01*
X228902Y499289D01*
X226219Y505765D01*
X226219Y512775D01*
X228902Y519251D01*
X233859Y524208D01*
X234307Y524394D01*
X234382Y524438D01*
X234460Y524473D01*
X234503Y524510D01*
X234552Y524539D01*
X234611Y524601D01*
X234677Y524657D01*
X234708Y524704D01*
X234747Y524745D01*
X234787Y524822D01*
X234834Y524893D01*
X234852Y524947D01*
X234878Y524998D01*
X234894Y525082D01*
X234920Y525164D01*
X234922Y525221D01*
X234933Y525277D01*
X234925Y525362D01*
X234928Y525448D01*
X234913Y525503D01*
X234908Y525560D01*
X234877Y525640D01*
X234856Y525723D01*
X234827Y525772D01*
X234806Y525825D01*
X234754Y525894D01*
X234710Y525968D01*
X234669Y526007D01*
X234635Y526052D01*
X234566Y526104D01*
X234503Y526162D01*
X234452Y526188D01*
X234407Y526222D01*
X234327Y526253D01*
X234250Y526292D01*
X234201Y526300D01*
X234141Y526323D01*
X233996Y526334D01*
X233919Y526347D01*
X209980Y526347D01*
X206432Y527817D01*
X193199Y541050D01*
X193129Y541102D01*
X193065Y541162D01*
X193016Y541188D01*
X192972Y541221D01*
X192890Y541252D01*
X192812Y541292D01*
X192765Y541300D01*
X192706Y541322D01*
X192559Y541334D01*
X192481Y541347D01*
X161419Y541347D01*
X161332Y541335D01*
X161245Y541332D01*
X161192Y541315D01*
X161137Y541307D01*
X161058Y541272D01*
X160974Y541245D01*
X160935Y541217D01*
X160878Y541191D01*
X160765Y541095D01*
X160701Y541050D01*
X156558Y536907D01*
X156489Y536816D01*
X156415Y536727D01*
X156404Y536702D01*
X156387Y536680D01*
X156346Y536573D01*
X156300Y536468D01*
X156296Y536440D01*
X156286Y536414D01*
X156276Y536300D01*
X156261Y536186D01*
X156265Y536158D01*
X156262Y536131D01*
X156285Y536018D01*
X156301Y535905D01*
X156313Y535879D01*
X156318Y535852D01*
X156371Y535750D01*
X156418Y535646D01*
X156436Y535624D01*
X156449Y535600D01*
X156528Y535517D01*
X156603Y535429D01*
X156624Y535416D01*
X156645Y535394D01*
X156874Y535259D01*
X156887Y535251D01*
X160988Y533553D01*
X164382Y530158D01*
X164429Y530123D01*
X164469Y530081D01*
X164542Y530038D01*
X164609Y529987D01*
X164664Y529967D01*
X164714Y529937D01*
X164796Y529916D01*
X164875Y529886D01*
X164933Y529881D01*
X164990Y529867D01*
X165074Y529870D01*
X165158Y529863D01*
X165216Y529874D01*
X165274Y529876D01*
X165354Y529902D01*
X165437Y529919D01*
X165489Y529946D01*
X165545Y529964D01*
X165601Y530004D01*
X165689Y530050D01*
X165762Y530118D01*
X165818Y530158D01*
X169212Y533553D01*
X174784Y535861D01*
X180816Y535861D01*
X186388Y533553D01*
X190653Y529288D01*
X192961Y523716D01*
X192961Y517684D01*
X190653Y512112D01*
X186388Y507847D01*
X180816Y505539D01*
X174784Y505539D01*
X169212Y507847D01*
X165818Y511242D01*
X165771Y511277D01*
X165731Y511319D01*
X165658Y511362D01*
X165591Y511413D01*
X165536Y511433D01*
X165486Y511463D01*
X165404Y511484D01*
X165325Y511514D01*
X165267Y511519D01*
X165210Y511533D01*
X165126Y511530D01*
X165042Y511537D01*
X164984Y511526D01*
X164926Y511524D01*
X164846Y511498D01*
X164763Y511481D01*
X164711Y511454D01*
X164655Y511436D01*
X164599Y511396D01*
X164511Y511350D01*
X164438Y511282D01*
X164382Y511242D01*
X160988Y507847D01*
X155416Y505539D01*
X149384Y505539D01*
X143812Y507847D01*
X140418Y511242D01*
X140371Y511277D01*
X140331Y511319D01*
X140258Y511362D01*
X140191Y511413D01*
X140136Y511433D01*
X140086Y511463D01*
X140004Y511484D01*
X139925Y511514D01*
X139867Y511519D01*
X139810Y511533D01*
X139726Y511530D01*
X139642Y511537D01*
X139584Y511526D01*
X139526Y511524D01*
X139446Y511498D01*
X139363Y511481D01*
X139311Y511454D01*
X139255Y511436D01*
X139199Y511396D01*
X139111Y511350D01*
X139038Y511282D01*
X138982Y511242D01*
X135588Y507847D01*
X130016Y505539D01*
X123984Y505539D01*
X118412Y507847D01*
X114147Y512112D01*
X113634Y513352D01*
X113590Y513426D01*
X113555Y513504D01*
X113518Y513548D01*
X113489Y513596D01*
X113427Y513655D01*
X113371Y513721D01*
X113324Y513753D01*
X113283Y513792D01*
X113206Y513831D01*
X113135Y513879D01*
X113081Y513896D01*
X113030Y513922D01*
X112946Y513938D01*
X112864Y513964D01*
X112807Y513966D01*
X112751Y513977D01*
X112666Y513970D01*
X112580Y513972D01*
X112525Y513957D01*
X112468Y513952D01*
X112388Y513922D01*
X112305Y513900D01*
X112256Y513871D01*
X112203Y513850D01*
X112134Y513798D01*
X112060Y513755D01*
X112021Y513713D01*
X111976Y513679D01*
X111924Y513610D01*
X111866Y513547D01*
X111840Y513497D01*
X111806Y513451D01*
X111775Y513371D01*
X111736Y513294D01*
X111728Y513245D01*
X111705Y513185D01*
X111694Y513040D01*
X111681Y512963D01*
X111681Y512826D01*
X111508Y512179D01*
X111173Y511600D01*
X110700Y511127D01*
X110121Y510792D01*
X109474Y510619D01*
X103631Y510619D01*
X103631Y519684D01*
X103623Y519742D01*
X103625Y519800D01*
X103603Y519882D01*
X103591Y519965D01*
X103567Y520019D01*
X103553Y520075D01*
X103510Y520148D01*
X103475Y520225D01*
X103437Y520269D01*
X103407Y520320D01*
X103346Y520377D01*
X103291Y520442D01*
X103243Y520474D01*
X103200Y520514D01*
X103125Y520553D01*
X103055Y520599D01*
X102999Y520617D01*
X102947Y520644D01*
X102879Y520655D01*
X102784Y520685D01*
X102684Y520688D01*
X102616Y520699D01*
X101599Y520699D01*
X101599Y520701D01*
X102616Y520701D01*
X102674Y520709D01*
X102732Y520708D01*
X102814Y520729D01*
X102897Y520741D01*
X102951Y520765D01*
X103007Y520779D01*
X103080Y520822D01*
X103157Y520857D01*
X103202Y520895D01*
X103252Y520925D01*
X103310Y520986D01*
X103374Y521041D01*
X103406Y521089D01*
X103446Y521132D01*
X103485Y521207D01*
X103531Y521277D01*
X103549Y521333D01*
X103576Y521385D01*
X103587Y521453D01*
X103617Y521548D01*
X103620Y521648D01*
X103631Y521716D01*
X103631Y530781D01*
X109474Y530781D01*
X110121Y530608D01*
X110700Y530273D01*
X111173Y529800D01*
X111508Y529221D01*
X111681Y528574D01*
X111681Y528437D01*
X111693Y528352D01*
X111695Y528266D01*
X111713Y528212D01*
X111721Y528155D01*
X111756Y528077D01*
X111782Y527995D01*
X111814Y527948D01*
X111837Y527896D01*
X111892Y527830D01*
X111940Y527759D01*
X111984Y527722D01*
X112020Y527679D01*
X112092Y527631D01*
X112158Y527576D01*
X112210Y527553D01*
X112257Y527521D01*
X112339Y527495D01*
X112418Y527461D01*
X112474Y527453D01*
X112528Y527436D01*
X112614Y527433D01*
X112699Y527422D01*
X112755Y527430D01*
X112812Y527428D01*
X112895Y527450D01*
X112981Y527462D01*
X113032Y527486D01*
X113087Y527500D01*
X113161Y527544D01*
X113240Y527579D01*
X113283Y527616D01*
X113332Y527645D01*
X113391Y527708D01*
X113456Y527764D01*
X113482Y527806D01*
X113526Y527853D01*
X113592Y527982D01*
X113634Y528048D01*
X114147Y529288D01*
X118412Y533553D01*
X123984Y535861D01*
X127789Y535861D01*
X127876Y535873D01*
X127963Y535876D01*
X128016Y535893D01*
X128071Y535901D01*
X128151Y535936D01*
X128234Y535963D01*
X128273Y535991D01*
X128330Y536017D01*
X128443Y536113D01*
X128507Y536158D01*
X151532Y559183D01*
X155080Y560653D01*
X192481Y560653D01*
X192568Y560665D01*
X192655Y560668D01*
X192708Y560685D01*
X192763Y560693D01*
X192842Y560728D01*
X192926Y560755D01*
X192965Y560783D01*
X193022Y560809D01*
X193135Y560905D01*
X193199Y560950D01*
X205754Y573505D01*
X205806Y573575D01*
X205866Y573639D01*
X205892Y573688D01*
X205925Y573732D01*
X205956Y573814D01*
X205996Y573892D01*
X206004Y573939D01*
X206026Y573998D01*
X206038Y574145D01*
X206051Y574223D01*
X206051Y579033D01*
X208449Y584821D01*
X212879Y589251D01*
X218667Y591649D01*
X223477Y591649D01*
X223564Y591661D01*
X223651Y591664D01*
X223704Y591681D01*
X223759Y591689D01*
X223838Y591724D01*
X223922Y591751D01*
X223961Y591779D01*
X224018Y591805D01*
X224131Y591901D01*
X224195Y591946D01*
X228834Y596585D01*
X232382Y598055D01*
X417702Y598055D01*
X421250Y596585D01*
X424108Y593727D01*
X435263Y582572D01*
X436733Y579024D01*
X436733Y562661D01*
X436745Y562574D01*
X436748Y562487D01*
X436765Y562434D01*
X436773Y562379D01*
X436808Y562300D01*
X436835Y562216D01*
X436863Y562177D01*
X436889Y562120D01*
X436979Y562014D01*
X436995Y561987D01*
X437007Y561975D01*
X437030Y561943D01*
X453991Y544982D01*
X453992Y544981D01*
X453993Y544980D01*
X454104Y544897D01*
X454218Y544811D01*
X454220Y544810D01*
X454221Y544809D01*
X454353Y544760D01*
X454484Y544710D01*
X454486Y544710D01*
X454487Y544709D01*
X454632Y544697D01*
X454767Y544686D01*
X454769Y544686D01*
X454770Y544686D01*
X454786Y544690D01*
X455046Y544742D01*
X455073Y544756D01*
X455098Y544762D01*
X457833Y545895D01*
X462167Y545895D01*
X464979Y544730D01*
X465009Y544722D01*
X465036Y544708D01*
X465114Y544695D01*
X465254Y544659D01*
X465319Y544661D01*
X465367Y544653D01*
X493581Y544653D01*
X493668Y544665D01*
X493755Y544668D01*
X493808Y544685D01*
X493863Y544693D01*
X493942Y544728D01*
X494026Y544755D01*
X494065Y544783D01*
X494122Y544809D01*
X494235Y544905D01*
X494299Y544950D01*
X496050Y546701D01*
X496060Y546714D01*
X496065Y546718D01*
X496081Y546742D01*
X496102Y546771D01*
X496162Y546835D01*
X496188Y546884D01*
X496221Y546928D01*
X496252Y547010D01*
X496292Y547088D01*
X496300Y547135D01*
X496322Y547194D01*
X496334Y547341D01*
X496347Y547419D01*
X496347Y577633D01*
X496343Y577663D01*
X496345Y577694D01*
X496328Y577771D01*
X496307Y577914D01*
X496281Y577973D01*
X496270Y578021D01*
X495105Y580833D01*
X495105Y585167D01*
X496625Y588837D01*
X496626Y588839D01*
X496627Y588840D01*
X496661Y588974D01*
X496696Y589112D01*
X496696Y589114D01*
X496697Y589116D01*
X496692Y589256D01*
X496688Y589397D01*
X496688Y589398D01*
X496688Y589400D01*
X496645Y589533D01*
X496602Y589667D01*
X496601Y589669D01*
X496600Y589670D01*
X496592Y589682D01*
X496443Y589904D01*
X496420Y589923D01*
X496405Y589944D01*
X489299Y597050D01*
X489229Y597102D01*
X489165Y597162D01*
X489116Y597188D01*
X489072Y597221D01*
X488990Y597252D01*
X488912Y597292D01*
X488865Y597300D01*
X488806Y597322D01*
X488659Y597334D01*
X488581Y597347D01*
X468367Y597347D01*
X468337Y597343D01*
X468306Y597345D01*
X468229Y597328D01*
X468086Y597307D01*
X468027Y597281D01*
X467979Y597270D01*
X465167Y596105D01*
X460833Y596105D01*
X456829Y597764D01*
X453764Y600829D01*
X452105Y604833D01*
X452105Y609167D01*
X453764Y613171D01*
X456829Y616236D01*
X460833Y617895D01*
X465167Y617895D01*
X467979Y616730D01*
X468009Y616722D01*
X468036Y616708D01*
X468114Y616695D01*
X468254Y616659D01*
X468319Y616661D01*
X468367Y616653D01*
X494920Y616653D01*
X498468Y615183D01*
X522075Y591576D01*
X522145Y591523D01*
X522209Y591463D01*
X522258Y591438D01*
X522302Y591405D01*
X522384Y591374D01*
X522462Y591334D01*
X522510Y591326D01*
X522568Y591304D01*
X522716Y591291D01*
X522793Y591278D01*
X624672Y591278D01*
X628220Y589809D01*
X637992Y580037D01*
X639461Y576489D01*
X639461Y476610D01*
X639473Y476524D01*
X639476Y476436D01*
X639493Y476384D01*
X639501Y476329D01*
X639537Y476249D01*
X639564Y476166D01*
X639592Y476127D01*
X639617Y476070D01*
X639713Y475956D01*
X639758Y475893D01*
X648030Y467621D01*
X648055Y467602D01*
X648075Y467579D01*
X648142Y467537D01*
X648257Y467450D01*
X648317Y467427D01*
X648359Y467401D01*
X651171Y466236D01*
X654236Y463171D01*
X655895Y459167D01*
X655895Y454833D01*
X654236Y450829D01*
X651171Y447764D01*
X648263Y446559D01*
X648262Y446559D01*
X648261Y446558D01*
X648142Y446488D01*
X648019Y446415D01*
X648018Y446414D01*
X648016Y446413D01*
X647918Y446308D01*
X647823Y446208D01*
X647823Y446207D01*
X647822Y446206D01*
X647757Y446080D01*
X647693Y445955D01*
X647693Y445954D01*
X647692Y445952D01*
X647690Y445937D01*
X647638Y445677D01*
X647641Y445646D01*
X647637Y445621D01*
X647637Y436140D01*
X647649Y436055D01*
X647651Y435969D01*
X647669Y435915D01*
X647677Y435858D01*
X647712Y435780D01*
X647738Y435698D01*
X647770Y435651D01*
X647793Y435599D01*
X647848Y435533D01*
X647896Y435462D01*
X647940Y435425D01*
X647976Y435382D01*
X648048Y435334D01*
X648114Y435279D01*
X648166Y435256D01*
X648213Y435224D01*
X648295Y435198D01*
X648374Y435164D01*
X648430Y435156D01*
X648484Y435139D01*
X648570Y435136D01*
X648655Y435125D01*
X648711Y435133D01*
X648768Y435131D01*
X648851Y435153D01*
X648937Y435165D01*
X648988Y435189D01*
X649043Y435203D01*
X649117Y435247D01*
X649196Y435282D01*
X649239Y435319D01*
X649288Y435348D01*
X649347Y435411D01*
X649412Y435467D01*
X649438Y435509D01*
X649482Y435556D01*
X649548Y435685D01*
X649590Y435751D01*
X649764Y436171D01*
X652829Y439236D01*
X656833Y440895D01*
X661167Y440895D01*
X665171Y439236D01*
X668236Y436171D01*
X669895Y432167D01*
X669895Y427833D01*
X668236Y423829D01*
X667934Y423527D01*
X667882Y423457D01*
X667822Y423393D01*
X667796Y423344D01*
X667763Y423299D01*
X667732Y423218D01*
X667692Y423140D01*
X667684Y423092D01*
X667662Y423034D01*
X667650Y422886D01*
X667637Y422809D01*
X667637Y386191D01*
X667649Y386105D01*
X667652Y386017D01*
X667669Y385965D01*
X667677Y385910D01*
X667712Y385830D01*
X667739Y385747D01*
X667767Y385707D01*
X667793Y385650D01*
X667889Y385537D01*
X667934Y385473D01*
X668236Y385171D01*
X669895Y381167D01*
X669895Y376833D01*
X668236Y372829D01*
X667934Y372527D01*
X667882Y372457D01*
X667822Y372393D01*
X667796Y372344D01*
X667763Y372299D01*
X667732Y372218D01*
X667692Y372140D01*
X667684Y372092D01*
X667662Y372034D01*
X667654Y371933D01*
X667651Y371924D01*
X667650Y371887D01*
X667650Y371886D01*
X667637Y371809D01*
X667637Y327998D01*
X667649Y327911D01*
X667652Y327824D01*
X667669Y327771D01*
X667677Y327716D01*
X667712Y327637D01*
X667739Y327553D01*
X667767Y327514D01*
X667793Y327457D01*
X667889Y327344D01*
X667934Y327280D01*
X685773Y309441D01*
X685774Y309440D01*
X685775Y309439D01*
X685889Y309354D01*
X686000Y309270D01*
X686002Y309270D01*
X686003Y309269D01*
X686135Y309219D01*
X686266Y309169D01*
X686267Y309169D01*
X686269Y309168D01*
X686413Y309157D01*
X686549Y309145D01*
X686551Y309146D01*
X686552Y309146D01*
X686568Y309149D01*
X686828Y309201D01*
X686855Y309215D01*
X686879Y309221D01*
X690312Y310643D01*
X697688Y310643D01*
X704504Y307820D01*
X709720Y302604D01*
X712543Y295788D01*
X712543Y288412D01*
X709720Y281596D01*
X704504Y276380D01*
X697688Y273557D01*
X690312Y273557D01*
X683496Y276380D01*
X678280Y281596D01*
X677438Y283630D01*
X677423Y283655D01*
X677414Y283683D01*
X677351Y283777D01*
X677293Y283875D01*
X677272Y283895D01*
X677256Y283919D01*
X677169Y283992D01*
X677087Y284070D01*
X677061Y284083D01*
X677038Y284102D01*
X676935Y284148D01*
X676834Y284200D01*
X676805Y284206D01*
X676778Y284218D01*
X676666Y284233D01*
X676555Y284255D01*
X676526Y284253D01*
X676497Y284257D01*
X676385Y284240D01*
X676272Y284231D01*
X676245Y284220D01*
X676215Y284216D01*
X676112Y284169D01*
X676007Y284129D01*
X675983Y284111D01*
X675956Y284099D01*
X675870Y284025D01*
X675780Y283957D01*
X675762Y283933D01*
X675740Y283914D01*
X675698Y283848D01*
X675610Y283729D01*
X675588Y283671D01*
X675562Y283630D01*
X674720Y281596D01*
X669504Y276380D01*
X662688Y273557D01*
X655312Y273557D01*
X652021Y274920D01*
X652019Y274921D01*
X652018Y274922D01*
X651884Y274956D01*
X651746Y274991D01*
X651744Y274991D01*
X651742Y274992D01*
X651602Y274987D01*
X651461Y274983D01*
X651460Y274983D01*
X651458Y274983D01*
X651325Y274940D01*
X651191Y274897D01*
X651189Y274896D01*
X651188Y274895D01*
X651176Y274887D01*
X650954Y274738D01*
X650935Y274715D01*
X650914Y274700D01*
X645531Y269316D01*
X642958Y266744D01*
X639784Y265429D01*
X474812Y265429D01*
G37*
%LPD*%
G36*
X587009Y462689D02*
X587009Y462689D01*
X587123Y462699D01*
X587149Y462709D01*
X587176Y462713D01*
X587281Y462760D01*
X587388Y462801D01*
X587410Y462818D01*
X587436Y462829D01*
X587523Y462903D01*
X587615Y462972D01*
X587632Y462995D01*
X587653Y463013D01*
X587716Y463108D01*
X587785Y463200D01*
X587795Y463226D01*
X587810Y463249D01*
X587845Y463359D01*
X587886Y463466D01*
X587888Y463494D01*
X587896Y463520D01*
X587899Y463635D01*
X587908Y463749D01*
X587903Y463774D01*
X587903Y463804D01*
X587836Y464061D01*
X587833Y464077D01*
X587105Y465833D01*
X587105Y470167D01*
X588764Y474171D01*
X591829Y477236D01*
X594641Y478401D01*
X594667Y478417D01*
X594697Y478426D01*
X594761Y478472D01*
X594885Y478545D01*
X594930Y478592D01*
X594970Y478621D01*
X601050Y484701D01*
X601102Y484771D01*
X601162Y484835D01*
X601188Y484884D01*
X601221Y484928D01*
X601252Y485010D01*
X601292Y485088D01*
X601300Y485135D01*
X601322Y485194D01*
X601330Y485284D01*
X601333Y485296D01*
X601334Y485343D01*
X601347Y485419D01*
X601347Y561979D01*
X602380Y564473D01*
X602409Y564584D01*
X602444Y564694D01*
X602444Y564722D01*
X602451Y564748D01*
X602448Y564863D01*
X602451Y564978D01*
X602444Y565005D01*
X602443Y565033D01*
X602408Y565142D01*
X602379Y565253D01*
X602365Y565277D01*
X602356Y565303D01*
X602292Y565399D01*
X602234Y565497D01*
X602214Y565516D01*
X602198Y565540D01*
X602110Y565613D01*
X602026Y565692D01*
X602002Y565705D01*
X601981Y565722D01*
X601876Y565769D01*
X601773Y565821D01*
X601749Y565826D01*
X601721Y565838D01*
X601457Y565874D01*
X601442Y565877D01*
X516668Y565877D01*
X516610Y565869D01*
X516552Y565870D01*
X516470Y565849D01*
X516386Y565837D01*
X516333Y565813D01*
X516277Y565798D01*
X516204Y565755D01*
X516127Y565721D01*
X516082Y565683D01*
X516032Y565653D01*
X515974Y565592D01*
X515910Y565537D01*
X515878Y565489D01*
X515838Y565446D01*
X515799Y565371D01*
X515752Y565301D01*
X515735Y565245D01*
X515708Y565193D01*
X515697Y565125D01*
X515667Y565030D01*
X515664Y564930D01*
X515653Y564862D01*
X515653Y541080D01*
X514183Y537532D01*
X503468Y526817D01*
X499920Y525347D01*
X465367Y525347D01*
X465337Y525343D01*
X465306Y525345D01*
X465229Y525328D01*
X465086Y525307D01*
X465027Y525281D01*
X464979Y525270D01*
X462167Y524105D01*
X457833Y524105D01*
X455098Y525238D01*
X455096Y525239D01*
X455095Y525239D01*
X454960Y525274D01*
X454822Y525309D01*
X454821Y525309D01*
X454819Y525310D01*
X454679Y525305D01*
X454538Y525301D01*
X454537Y525301D01*
X454535Y525301D01*
X454402Y525258D01*
X454267Y525214D01*
X454266Y525214D01*
X454265Y525213D01*
X454252Y525204D01*
X454031Y525056D01*
X454012Y525033D01*
X453991Y525018D01*
X449521Y520548D01*
X449452Y520456D01*
X449378Y520368D01*
X449366Y520342D01*
X449350Y520320D01*
X449309Y520213D01*
X449262Y520108D01*
X449258Y520081D01*
X449248Y520055D01*
X449239Y519940D01*
X449223Y519827D01*
X449227Y519799D01*
X449225Y519771D01*
X449247Y519659D01*
X449264Y519545D01*
X449275Y519520D01*
X449281Y519493D01*
X449334Y519391D01*
X449381Y519286D01*
X449399Y519265D01*
X449412Y519240D01*
X449491Y519157D01*
X449565Y519070D01*
X449587Y519056D01*
X449608Y519034D01*
X449837Y518900D01*
X449850Y518892D01*
X452245Y517900D01*
X454817Y515328D01*
X464328Y505817D01*
X466900Y503245D01*
X468215Y500070D01*
X468215Y487098D01*
X468227Y487011D01*
X468230Y486924D01*
X468247Y486871D01*
X468255Y486816D01*
X468290Y486736D01*
X468317Y486653D01*
X468345Y486614D01*
X468371Y486557D01*
X468467Y486443D01*
X468512Y486380D01*
X483322Y471570D01*
X484637Y468396D01*
X484637Y463688D01*
X484645Y463630D01*
X484643Y463572D01*
X484665Y463490D01*
X484677Y463407D01*
X484700Y463353D01*
X484715Y463297D01*
X484758Y463224D01*
X484793Y463147D01*
X484831Y463102D01*
X484860Y463052D01*
X484922Y462994D01*
X484976Y462930D01*
X485025Y462898D01*
X485068Y462858D01*
X485143Y462819D01*
X485213Y462773D01*
X485269Y462755D01*
X485321Y462728D01*
X485389Y462717D01*
X485484Y462687D01*
X485584Y462684D01*
X485652Y462673D01*
X586895Y462673D01*
X587009Y462689D01*
G37*
G36*
X606615Y299960D02*
X606615Y299960D01*
X606728Y299969D01*
X606755Y299980D01*
X606784Y299984D01*
X606888Y300031D01*
X606993Y300071D01*
X607017Y300089D01*
X607044Y300101D01*
X607130Y300175D01*
X607220Y300243D01*
X607238Y300267D01*
X607260Y300286D01*
X607301Y300352D01*
X607390Y300471D01*
X607412Y300529D01*
X607438Y300570D01*
X608280Y302604D01*
X613496Y307820D01*
X620312Y310643D01*
X622348Y310643D01*
X622406Y310651D01*
X622464Y310649D01*
X622546Y310671D01*
X622630Y310683D01*
X622683Y310706D01*
X622739Y310721D01*
X622812Y310764D01*
X622889Y310799D01*
X622934Y310837D01*
X622984Y310866D01*
X623042Y310928D01*
X623106Y310982D01*
X623138Y311031D01*
X623178Y311074D01*
X623217Y311149D01*
X623264Y311219D01*
X623281Y311275D01*
X623308Y311327D01*
X623319Y311395D01*
X623349Y311490D01*
X623352Y311590D01*
X623363Y311658D01*
X623363Y380488D01*
X623363Y380490D01*
X623363Y380491D01*
X623343Y380631D01*
X623323Y380770D01*
X623323Y380771D01*
X623323Y380773D01*
X623266Y380898D01*
X623207Y381029D01*
X623206Y381030D01*
X623205Y381032D01*
X623114Y381139D01*
X623024Y381246D01*
X623022Y381247D01*
X623021Y381248D01*
X623008Y381256D01*
X622787Y381404D01*
X622758Y381413D01*
X622737Y381426D01*
X619507Y382764D01*
X616442Y385829D01*
X614783Y389833D01*
X614783Y394167D01*
X614932Y394526D01*
X614940Y394556D01*
X614954Y394584D01*
X614967Y394661D01*
X615003Y394801D01*
X615001Y394866D01*
X615009Y394915D01*
X615009Y418960D01*
X616479Y422507D01*
X617808Y423836D01*
X617824Y423857D01*
X617842Y423873D01*
X617874Y423921D01*
X617920Y423970D01*
X617946Y424020D01*
X617979Y424064D01*
X617992Y424098D01*
X618000Y424110D01*
X618013Y424152D01*
X618050Y424223D01*
X618058Y424271D01*
X618080Y424329D01*
X618084Y424375D01*
X618086Y424381D01*
X618086Y424405D01*
X618092Y424477D01*
X618105Y424554D01*
X618105Y426289D01*
X619764Y430293D01*
X622829Y433358D01*
X626833Y435017D01*
X629348Y435017D01*
X629406Y435025D01*
X629464Y435023D01*
X629546Y435045D01*
X629630Y435057D01*
X629683Y435080D01*
X629739Y435095D01*
X629812Y435138D01*
X629889Y435173D01*
X629934Y435211D01*
X629984Y435240D01*
X630042Y435302D01*
X630106Y435356D01*
X630138Y435405D01*
X630178Y435448D01*
X630217Y435523D01*
X630264Y435593D01*
X630281Y435649D01*
X630308Y435701D01*
X630319Y435769D01*
X630349Y435864D01*
X630352Y435964D01*
X630363Y436032D01*
X630363Y444384D01*
X630355Y444442D01*
X630357Y444500D01*
X630335Y444582D01*
X630323Y444666D01*
X630300Y444719D01*
X630285Y444775D01*
X630242Y444848D01*
X630207Y444925D01*
X630169Y444970D01*
X630140Y445020D01*
X630078Y445078D01*
X630024Y445142D01*
X629975Y445174D01*
X629932Y445214D01*
X629857Y445253D01*
X629787Y445300D01*
X629731Y445317D01*
X629679Y445344D01*
X629611Y445355D01*
X629516Y445385D01*
X629416Y445388D01*
X629348Y445399D01*
X552207Y445399D01*
X552177Y445395D01*
X552148Y445398D01*
X552037Y445375D01*
X551925Y445360D01*
X551898Y445348D01*
X551870Y445342D01*
X551769Y445290D01*
X551666Y445243D01*
X551643Y445224D01*
X551617Y445211D01*
X551535Y445133D01*
X551449Y445060D01*
X551432Y445035D01*
X551411Y445015D01*
X551354Y444917D01*
X551291Y444823D01*
X551282Y444795D01*
X551267Y444770D01*
X551240Y444660D01*
X551205Y444552D01*
X551205Y444523D01*
X551197Y444494D01*
X551201Y444381D01*
X551198Y444268D01*
X551205Y444239D01*
X551206Y444210D01*
X551241Y444102D01*
X551270Y443993D01*
X551285Y443967D01*
X551294Y443940D01*
X551339Y443876D01*
X551415Y443748D01*
X551461Y443705D01*
X551489Y443666D01*
X557644Y437511D01*
X558959Y434337D01*
X558959Y374191D01*
X558971Y374105D01*
X558974Y374017D01*
X558991Y373965D01*
X558999Y373910D01*
X559034Y373830D01*
X559061Y373747D01*
X559089Y373707D01*
X559115Y373650D01*
X559211Y373537D01*
X559256Y373473D01*
X559558Y373171D01*
X561217Y369167D01*
X561217Y364833D01*
X559558Y360829D01*
X556493Y357764D01*
X553263Y356426D01*
X553262Y356425D01*
X553261Y356425D01*
X553175Y356374D01*
X553168Y356371D01*
X553164Y356368D01*
X553140Y356353D01*
X553019Y356282D01*
X553018Y356280D01*
X553016Y356280D01*
X552919Y356176D01*
X552823Y356075D01*
X552823Y356073D01*
X552822Y356072D01*
X552757Y355947D01*
X552693Y355822D01*
X552693Y355821D01*
X552692Y355819D01*
X552690Y355804D01*
X552638Y355543D01*
X552641Y355513D01*
X552637Y355488D01*
X552637Y341098D01*
X552649Y341011D01*
X552652Y340924D01*
X552669Y340871D01*
X552677Y340816D01*
X552712Y340737D01*
X552739Y340653D01*
X552767Y340614D01*
X552793Y340557D01*
X552889Y340444D01*
X552934Y340380D01*
X582965Y310349D01*
X582966Y310348D01*
X582967Y310347D01*
X583082Y310261D01*
X583192Y310178D01*
X583194Y310178D01*
X583195Y310177D01*
X583329Y310126D01*
X583458Y310077D01*
X583460Y310077D01*
X583461Y310076D01*
X583605Y310065D01*
X583741Y310053D01*
X583743Y310054D01*
X583744Y310054D01*
X583760Y310057D01*
X584020Y310109D01*
X584047Y310123D01*
X584071Y310129D01*
X585312Y310643D01*
X592688Y310643D01*
X599504Y307820D01*
X604720Y302604D01*
X605562Y300570D01*
X605577Y300545D01*
X605586Y300517D01*
X605649Y300423D01*
X605707Y300325D01*
X605728Y300305D01*
X605744Y300281D01*
X605831Y300208D01*
X605913Y300130D01*
X605939Y300117D01*
X605962Y300098D01*
X606065Y300052D01*
X606166Y300000D01*
X606195Y299994D01*
X606222Y299982D01*
X606334Y299967D01*
X606445Y299945D01*
X606474Y299947D01*
X606503Y299943D01*
X606615Y299960D01*
G37*
G36*
X501615Y299960D02*
X501615Y299960D01*
X501728Y299969D01*
X501755Y299980D01*
X501785Y299984D01*
X501888Y300031D01*
X501993Y300071D01*
X502017Y300089D01*
X502044Y300101D01*
X502130Y300175D01*
X502220Y300243D01*
X502238Y300267D01*
X502260Y300286D01*
X502302Y300352D01*
X502390Y300471D01*
X502412Y300529D01*
X502438Y300570D01*
X503280Y302604D01*
X506066Y305389D01*
X506118Y305459D01*
X506178Y305523D01*
X506204Y305572D01*
X506237Y305616D01*
X506268Y305698D01*
X506308Y305776D01*
X506316Y305824D01*
X506338Y305882D01*
X506350Y306030D01*
X506363Y306107D01*
X506363Y381488D01*
X506363Y381490D01*
X506363Y381491D01*
X506343Y381631D01*
X506323Y381770D01*
X506323Y381771D01*
X506323Y381773D01*
X506266Y381898D01*
X506207Y382029D01*
X506206Y382030D01*
X506205Y382032D01*
X506114Y382139D01*
X506024Y382246D01*
X506022Y382247D01*
X506021Y382248D01*
X506008Y382256D01*
X505787Y382404D01*
X505758Y382413D01*
X505737Y382426D01*
X502507Y383764D01*
X499442Y386829D01*
X498277Y389641D01*
X498261Y389667D01*
X498252Y389697D01*
X498206Y389760D01*
X498133Y389885D01*
X498086Y389930D01*
X498057Y389970D01*
X495479Y392548D01*
X494009Y396096D01*
X494009Y418960D01*
X495479Y422507D01*
X498808Y425836D01*
X498860Y425906D01*
X498920Y425970D01*
X498946Y426020D01*
X498979Y426064D01*
X499010Y426145D01*
X499050Y426223D01*
X499058Y426271D01*
X499080Y426329D01*
X499085Y426392D01*
X499091Y426411D01*
X499093Y426482D01*
X499105Y426554D01*
X499105Y427289D01*
X500764Y431293D01*
X500945Y431474D01*
X500962Y431498D01*
X500985Y431517D01*
X501048Y431611D01*
X501116Y431701D01*
X501126Y431729D01*
X501142Y431753D01*
X501177Y431861D01*
X501217Y431967D01*
X501219Y431996D01*
X501228Y432024D01*
X501231Y432137D01*
X501240Y432250D01*
X501235Y432279D01*
X501235Y432308D01*
X501207Y432418D01*
X501184Y432529D01*
X501171Y432555D01*
X501164Y432583D01*
X501106Y432681D01*
X501054Y432781D01*
X501033Y432803D01*
X501018Y432828D01*
X500936Y432905D01*
X500858Y432987D01*
X500832Y433002D01*
X500811Y433022D01*
X500710Y433074D01*
X500612Y433131D01*
X500584Y433138D01*
X500558Y433152D01*
X500481Y433165D01*
X500337Y433201D01*
X500274Y433199D01*
X500227Y433207D01*
X467438Y433207D01*
X464264Y434522D01*
X460062Y438724D01*
X460015Y438759D01*
X459975Y438801D01*
X459902Y438844D01*
X459835Y438895D01*
X459780Y438916D01*
X459730Y438945D01*
X459648Y438966D01*
X459569Y438996D01*
X459511Y439001D01*
X459454Y439015D01*
X459370Y439013D01*
X459286Y439020D01*
X459228Y439008D01*
X459170Y439006D01*
X459090Y438980D01*
X459007Y438964D01*
X458955Y438937D01*
X458899Y438919D01*
X458843Y438879D01*
X458755Y438833D01*
X458682Y438764D01*
X458626Y438724D01*
X458194Y438292D01*
X455020Y436977D01*
X434974Y436977D01*
X434916Y436969D01*
X434858Y436971D01*
X434776Y436949D01*
X434692Y436937D01*
X434639Y436914D01*
X434583Y436899D01*
X434510Y436856D01*
X434433Y436821D01*
X434388Y436783D01*
X434338Y436754D01*
X434280Y436692D01*
X434216Y436638D01*
X434184Y436589D01*
X434144Y436546D01*
X434105Y436471D01*
X434058Y436401D01*
X434041Y436345D01*
X434014Y436293D01*
X434003Y436225D01*
X433973Y436130D01*
X433970Y436030D01*
X433959Y435962D01*
X433959Y375191D01*
X433971Y375105D01*
X433974Y375017D01*
X433991Y374965D01*
X433999Y374910D01*
X434034Y374830D01*
X434061Y374747D01*
X434089Y374707D01*
X434115Y374650D01*
X434211Y374537D01*
X434256Y374473D01*
X434558Y374171D01*
X436217Y370167D01*
X436217Y365833D01*
X434558Y361829D01*
X431481Y358751D01*
X431424Y358718D01*
X431322Y358665D01*
X431302Y358646D01*
X431278Y358632D01*
X431199Y358548D01*
X431116Y358469D01*
X431102Y358445D01*
X431083Y358425D01*
X431031Y358323D01*
X430973Y358224D01*
X430966Y358197D01*
X430953Y358172D01*
X430931Y358060D01*
X430902Y357948D01*
X430903Y357921D01*
X430898Y357893D01*
X430908Y357779D01*
X430911Y357664D01*
X430920Y357638D01*
X430922Y357610D01*
X430964Y357503D01*
X430999Y357394D01*
X431013Y357373D01*
X431024Y357345D01*
X431185Y357132D01*
X431194Y357120D01*
X477965Y310349D01*
X477966Y310348D01*
X477967Y310347D01*
X478082Y310261D01*
X478192Y310178D01*
X478194Y310178D01*
X478195Y310177D01*
X478329Y310126D01*
X478458Y310077D01*
X478460Y310077D01*
X478461Y310076D01*
X478605Y310065D01*
X478741Y310053D01*
X478743Y310054D01*
X478744Y310054D01*
X478760Y310057D01*
X479020Y310109D01*
X479047Y310123D01*
X479071Y310129D01*
X480312Y310643D01*
X487688Y310643D01*
X494504Y307820D01*
X499720Y302604D01*
X500562Y300570D01*
X500577Y300545D01*
X500586Y300517D01*
X500649Y300423D01*
X500707Y300325D01*
X500728Y300305D01*
X500744Y300281D01*
X500831Y300208D01*
X500913Y300130D01*
X500939Y300117D01*
X500962Y300098D01*
X501065Y300052D01*
X501166Y300000D01*
X501195Y299994D01*
X501222Y299982D01*
X501334Y299967D01*
X501445Y299945D01*
X501474Y299947D01*
X501503Y299943D01*
X501615Y299960D01*
G37*
G36*
X442383Y319085D02*
X442383Y319085D01*
X442412Y319083D01*
X442523Y319105D01*
X442635Y319121D01*
X442662Y319133D01*
X442691Y319139D01*
X442791Y319191D01*
X442894Y319237D01*
X442917Y319256D01*
X442943Y319270D01*
X443025Y319348D01*
X443111Y319421D01*
X443128Y319445D01*
X443149Y319466D01*
X443206Y319563D01*
X443269Y319658D01*
X443278Y319686D01*
X443293Y319711D01*
X443321Y319820D01*
X443355Y319929D01*
X443356Y319958D01*
X443363Y319986D01*
X443359Y320099D01*
X443362Y320213D01*
X443355Y320241D01*
X443354Y320271D01*
X443319Y320378D01*
X443290Y320488D01*
X443275Y320513D01*
X443266Y320541D01*
X443221Y320605D01*
X443145Y320732D01*
X443099Y320775D01*
X443071Y320814D01*
X411678Y352208D01*
X410363Y355382D01*
X410363Y372809D01*
X410356Y372861D01*
X410357Y372887D01*
X410351Y372910D01*
X410348Y372983D01*
X410331Y373035D01*
X410323Y373090D01*
X410288Y373170D01*
X410261Y373253D01*
X410233Y373293D01*
X410207Y373350D01*
X410111Y373463D01*
X410066Y373527D01*
X409764Y373829D01*
X408105Y377833D01*
X408105Y382167D01*
X409764Y386171D01*
X410066Y386473D01*
X410118Y386543D01*
X410178Y386607D01*
X410204Y386656D01*
X410237Y386701D01*
X410268Y386782D01*
X410308Y386860D01*
X410316Y386908D01*
X410338Y386966D01*
X410350Y387114D01*
X410363Y387191D01*
X410363Y394090D01*
X410355Y394148D01*
X410357Y394206D01*
X410335Y394288D01*
X410323Y394372D01*
X410300Y394425D01*
X410285Y394481D01*
X410242Y394554D01*
X410207Y394631D01*
X410169Y394676D01*
X410140Y394726D01*
X410078Y394784D01*
X410024Y394848D01*
X409975Y394880D01*
X409932Y394920D01*
X409857Y394959D01*
X409787Y395006D01*
X409731Y395023D01*
X409679Y395050D01*
X409611Y395061D01*
X409516Y395091D01*
X409416Y395094D01*
X409348Y395105D01*
X406511Y395105D01*
X402507Y396764D01*
X399442Y399829D01*
X397783Y403833D01*
X397783Y408167D01*
X399442Y412171D01*
X399744Y412473D01*
X399796Y412543D01*
X399856Y412607D01*
X399882Y412656D01*
X399915Y412701D01*
X399946Y412782D01*
X399986Y412860D01*
X399994Y412908D01*
X400016Y412966D01*
X400028Y413114D01*
X400041Y413191D01*
X400041Y426939D01*
X400037Y426968D01*
X400040Y426998D01*
X400017Y427109D01*
X400001Y427221D01*
X399989Y427247D01*
X399984Y427276D01*
X399931Y427377D01*
X399885Y427480D01*
X399866Y427503D01*
X399853Y427529D01*
X399775Y427611D01*
X399702Y427697D01*
X399677Y427713D01*
X399657Y427735D01*
X399559Y427792D01*
X399465Y427855D01*
X399437Y427864D01*
X399412Y427878D01*
X399302Y427906D01*
X399194Y427941D01*
X399164Y427941D01*
X399136Y427948D01*
X399023Y427945D01*
X398910Y427948D01*
X398881Y427940D01*
X398852Y427939D01*
X398744Y427905D01*
X398635Y427876D01*
X398609Y427861D01*
X398581Y427852D01*
X398517Y427806D01*
X398390Y427731D01*
X398347Y427685D01*
X398308Y427657D01*
X397100Y426449D01*
X393552Y424980D01*
X361011Y424980D01*
X357463Y426449D01*
X338817Y445095D01*
X337347Y448643D01*
X337347Y450633D01*
X337343Y450663D01*
X337345Y450694D01*
X337328Y450771D01*
X337307Y450914D01*
X337281Y450973D01*
X337270Y451021D01*
X336105Y453833D01*
X336105Y458167D01*
X337764Y462171D01*
X340829Y465236D01*
X344833Y466895D01*
X345322Y466895D01*
X345380Y466903D01*
X345438Y466901D01*
X345520Y466923D01*
X345603Y466935D01*
X345657Y466958D01*
X345713Y466973D01*
X345786Y467016D01*
X345863Y467051D01*
X345908Y467089D01*
X345958Y467118D01*
X346016Y467180D01*
X346080Y467234D01*
X346112Y467283D01*
X346152Y467326D01*
X346191Y467401D01*
X346237Y467471D01*
X346255Y467527D01*
X346282Y467579D01*
X346293Y467647D01*
X346323Y467742D01*
X346326Y467842D01*
X346337Y467910D01*
X346337Y555744D01*
X347652Y558918D01*
X350224Y561491D01*
X361686Y572952D01*
X361704Y572976D01*
X361726Y572995D01*
X361789Y573089D01*
X361857Y573179D01*
X361867Y573207D01*
X361884Y573231D01*
X361918Y573339D01*
X361958Y573445D01*
X361960Y573474D01*
X361969Y573502D01*
X361972Y573616D01*
X361982Y573728D01*
X361976Y573757D01*
X361977Y573786D01*
X361948Y573896D01*
X361926Y574007D01*
X361912Y574033D01*
X361905Y574061D01*
X361847Y574159D01*
X361795Y574259D01*
X361775Y574281D01*
X361760Y574306D01*
X361677Y574383D01*
X361599Y574465D01*
X361574Y574480D01*
X361552Y574500D01*
X361451Y574552D01*
X361354Y574609D01*
X361325Y574616D01*
X361299Y574630D01*
X361222Y574643D01*
X361078Y574679D01*
X361016Y574677D01*
X360968Y574685D01*
X306420Y574685D01*
X306333Y574673D01*
X306246Y574670D01*
X306193Y574653D01*
X306138Y574645D01*
X306059Y574610D01*
X305975Y574583D01*
X305936Y574555D01*
X305879Y574529D01*
X305766Y574433D01*
X305702Y574388D01*
X287832Y556518D01*
X287831Y556517D01*
X287830Y556516D01*
X287744Y556400D01*
X287661Y556291D01*
X287661Y556289D01*
X287660Y556288D01*
X287608Y556152D01*
X287560Y556025D01*
X287560Y556023D01*
X287559Y556022D01*
X287548Y555877D01*
X287536Y555742D01*
X287537Y555740D01*
X287536Y555739D01*
X287540Y555723D01*
X287592Y555463D01*
X287606Y555436D01*
X287612Y555411D01*
X288349Y553633D01*
X288349Y547367D01*
X288220Y547057D01*
X288191Y546945D01*
X288157Y546836D01*
X288156Y546808D01*
X288149Y546781D01*
X288152Y546667D01*
X288149Y546552D01*
X288156Y546525D01*
X288157Y546497D01*
X288192Y546388D01*
X288221Y546277D01*
X288235Y546253D01*
X288244Y546226D01*
X288308Y546131D01*
X288366Y546032D01*
X288387Y546013D01*
X288402Y545990D01*
X288490Y545916D01*
X288574Y545838D01*
X288598Y545825D01*
X288620Y545807D01*
X288725Y545760D01*
X288827Y545708D01*
X288851Y545704D01*
X288879Y545692D01*
X289143Y545655D01*
X289158Y545653D01*
X298633Y545653D01*
X298663Y545657D01*
X298694Y545655D01*
X298771Y545672D01*
X298914Y545693D01*
X298973Y545719D01*
X299021Y545730D01*
X301833Y546895D01*
X306167Y546895D01*
X310171Y545236D01*
X313236Y542171D01*
X314895Y538167D01*
X314895Y533833D01*
X313236Y529829D01*
X310171Y526764D01*
X306167Y525105D01*
X304272Y525105D01*
X304270Y525105D01*
X304269Y525105D01*
X304129Y525085D01*
X303990Y525065D01*
X303989Y525065D01*
X303987Y525065D01*
X303861Y525008D01*
X303731Y524949D01*
X303730Y524948D01*
X303728Y524947D01*
X303621Y524856D01*
X303514Y524766D01*
X303513Y524764D01*
X303512Y524763D01*
X303504Y524750D01*
X303356Y524529D01*
X303347Y524500D01*
X303334Y524479D01*
X302236Y521829D01*
X301934Y521527D01*
X301882Y521457D01*
X301822Y521393D01*
X301796Y521344D01*
X301763Y521299D01*
X301732Y521218D01*
X301692Y521140D01*
X301684Y521092D01*
X301662Y521034D01*
X301650Y520886D01*
X301637Y520809D01*
X301637Y515793D01*
X301637Y515791D01*
X301637Y515790D01*
X301657Y515650D01*
X301677Y515511D01*
X301677Y515510D01*
X301677Y515508D01*
X301734Y515382D01*
X301793Y515252D01*
X301794Y515251D01*
X301795Y515249D01*
X301886Y515142D01*
X301976Y515035D01*
X301978Y515034D01*
X301979Y515033D01*
X301992Y515025D01*
X302213Y514877D01*
X302242Y514868D01*
X302263Y514855D01*
X306171Y513236D01*
X309236Y510171D01*
X310521Y507070D01*
X310565Y506995D01*
X310601Y506915D01*
X310637Y506873D01*
X310665Y506825D01*
X310729Y506765D01*
X310785Y506699D01*
X310826Y506673D01*
X310872Y506630D01*
X311004Y506562D01*
X311070Y506521D01*
X314171Y505236D01*
X317236Y502171D01*
X318895Y498167D01*
X318895Y493833D01*
X317236Y489829D01*
X316934Y489527D01*
X316882Y489457D01*
X316822Y489393D01*
X316796Y489344D01*
X316763Y489299D01*
X316732Y489218D01*
X316692Y489140D01*
X316684Y489092D01*
X316662Y489034D01*
X316650Y488886D01*
X316637Y488809D01*
X316637Y447998D01*
X316649Y447911D01*
X316652Y447824D01*
X316669Y447771D01*
X316677Y447716D01*
X316712Y447637D01*
X316739Y447553D01*
X316767Y447514D01*
X316793Y447457D01*
X316889Y447344D01*
X316934Y447280D01*
X351280Y412934D01*
X351350Y412882D01*
X351414Y412822D01*
X351463Y412796D01*
X351507Y412763D01*
X351589Y412732D01*
X351667Y412692D01*
X351714Y412684D01*
X351773Y412662D01*
X351921Y412650D01*
X351998Y412637D01*
X367809Y412637D01*
X367895Y412649D01*
X367983Y412652D01*
X368035Y412669D01*
X368090Y412677D01*
X368170Y412712D01*
X368253Y412739D01*
X368293Y412767D01*
X368350Y412793D01*
X368463Y412889D01*
X368527Y412934D01*
X368829Y413236D01*
X372833Y414895D01*
X377167Y414895D01*
X381171Y413236D01*
X384236Y410171D01*
X385895Y406167D01*
X385895Y404176D01*
X385895Y404174D01*
X385895Y404172D01*
X385915Y404032D01*
X385935Y403894D01*
X385935Y403893D01*
X385935Y403891D01*
X385992Y403765D01*
X386051Y403635D01*
X386052Y403633D01*
X386053Y403632D01*
X386144Y403525D01*
X386234Y403418D01*
X386236Y403417D01*
X386237Y403416D01*
X386250Y403407D01*
X386471Y403260D01*
X386500Y403251D01*
X386521Y403238D01*
X389449Y402025D01*
X393897Y397577D01*
X396304Y391765D01*
X396304Y385475D01*
X393897Y379663D01*
X389449Y375215D01*
X386267Y373897D01*
X386168Y373839D01*
X386066Y373786D01*
X386046Y373767D01*
X386022Y373752D01*
X385943Y373669D01*
X385860Y373590D01*
X385846Y373566D01*
X385827Y373546D01*
X385774Y373444D01*
X385716Y373345D01*
X385709Y373318D01*
X385697Y373293D01*
X385674Y373180D01*
X385646Y373069D01*
X385647Y373041D01*
X385642Y373014D01*
X385651Y372900D01*
X385655Y372785D01*
X385664Y372759D01*
X385666Y372731D01*
X385707Y372624D01*
X385743Y372514D01*
X385757Y372494D01*
X385768Y372466D01*
X385929Y372253D01*
X385937Y372241D01*
X438800Y319379D01*
X438870Y319326D01*
X438934Y319266D01*
X438983Y319241D01*
X439027Y319208D01*
X439109Y319177D01*
X439187Y319137D01*
X439234Y319129D01*
X439293Y319106D01*
X439440Y319094D01*
X439518Y319081D01*
X442354Y319081D01*
X442383Y319085D01*
G37*
G36*
X383177Y458682D02*
X383177Y458682D01*
X383206Y458682D01*
X383316Y458710D01*
X383427Y458733D01*
X383453Y458746D01*
X383481Y458754D01*
X383579Y458811D01*
X383679Y458864D01*
X383701Y458884D01*
X383726Y458899D01*
X383803Y458981D01*
X383885Y459059D01*
X383900Y459085D01*
X383920Y459106D01*
X383972Y459207D01*
X384029Y459305D01*
X384036Y459333D01*
X384050Y459359D01*
X384063Y459437D01*
X384099Y459580D01*
X384097Y459643D01*
X384105Y459690D01*
X384105Y463553D01*
X385764Y467557D01*
X388829Y470622D01*
X392833Y472281D01*
X397167Y472281D01*
X400701Y470817D01*
X400813Y470788D01*
X400922Y470753D01*
X400950Y470753D01*
X400977Y470746D01*
X401091Y470749D01*
X401206Y470746D01*
X401233Y470753D01*
X401261Y470754D01*
X401370Y470789D01*
X401481Y470818D01*
X401505Y470832D01*
X401532Y470841D01*
X401627Y470905D01*
X401726Y470963D01*
X401745Y470983D01*
X401768Y470999D01*
X401842Y471087D01*
X401920Y471171D01*
X401933Y471195D01*
X401951Y471216D01*
X401997Y471321D01*
X402050Y471424D01*
X402054Y471448D01*
X402066Y471476D01*
X402103Y471740D01*
X402105Y471755D01*
X402105Y476167D01*
X403764Y480171D01*
X406829Y483236D01*
X410833Y484895D01*
X415247Y484895D01*
X415276Y484899D01*
X415305Y484896D01*
X415416Y484919D01*
X415528Y484935D01*
X415555Y484947D01*
X415584Y484952D01*
X415684Y485005D01*
X415788Y485051D01*
X415810Y485070D01*
X415836Y485083D01*
X415918Y485161D01*
X416005Y485234D01*
X416021Y485259D01*
X416042Y485279D01*
X416099Y485377D01*
X416162Y485471D01*
X416171Y485499D01*
X416186Y485524D01*
X416214Y485634D01*
X416248Y485742D01*
X416249Y485772D01*
X416256Y485800D01*
X416252Y485913D01*
X416255Y486026D01*
X416248Y486055D01*
X416247Y486084D01*
X416212Y486192D01*
X416184Y486301D01*
X416169Y486327D01*
X416160Y486355D01*
X416114Y486418D01*
X416038Y486546D01*
X415993Y486589D01*
X415965Y486628D01*
X412823Y489769D01*
X411165Y493774D01*
X411165Y498108D01*
X412823Y502112D01*
X415375Y504664D01*
X415427Y504734D01*
X415487Y504797D01*
X415513Y504847D01*
X415546Y504891D01*
X415577Y504973D01*
X415617Y505051D01*
X415625Y505098D01*
X415647Y505157D01*
X415659Y505304D01*
X415672Y505382D01*
X415672Y505734D01*
X417139Y509275D01*
X417139Y509276D01*
X417140Y509278D01*
X417174Y509412D01*
X417210Y509550D01*
X417210Y509552D01*
X417210Y509553D01*
X417206Y509694D01*
X417202Y509834D01*
X417201Y509836D01*
X417201Y509837D01*
X417160Y509964D01*
X417115Y510105D01*
X417114Y510106D01*
X417114Y510108D01*
X417105Y510120D01*
X416957Y510341D01*
X416933Y510361D01*
X416919Y510381D01*
X414678Y512622D01*
X413363Y515796D01*
X413363Y548090D01*
X413355Y548148D01*
X413357Y548206D01*
X413335Y548288D01*
X413323Y548372D01*
X413300Y548425D01*
X413285Y548481D01*
X413242Y548554D01*
X413207Y548631D01*
X413169Y548676D01*
X413140Y548726D01*
X413078Y548784D01*
X413024Y548848D01*
X412975Y548880D01*
X412932Y548920D01*
X412857Y548959D01*
X412787Y549006D01*
X412731Y549023D01*
X412679Y549050D01*
X412611Y549061D01*
X412516Y549091D01*
X412416Y549094D01*
X412348Y549105D01*
X408833Y549105D01*
X404829Y550764D01*
X401764Y553829D01*
X400105Y557833D01*
X400105Y562167D01*
X401155Y564701D01*
X401184Y564813D01*
X401218Y564922D01*
X401219Y564950D01*
X401226Y564977D01*
X401223Y565091D01*
X401226Y565206D01*
X401219Y565233D01*
X401218Y565261D01*
X401183Y565370D01*
X401154Y565481D01*
X401140Y565505D01*
X401131Y565532D01*
X401067Y565627D01*
X401009Y565726D01*
X400988Y565745D01*
X400973Y565768D01*
X400885Y565842D01*
X400801Y565920D01*
X400777Y565933D01*
X400755Y565951D01*
X400650Y565998D01*
X400548Y566050D01*
X400524Y566054D01*
X400496Y566066D01*
X400232Y566103D01*
X400217Y566105D01*
X397681Y566105D01*
X397594Y566093D01*
X397507Y566090D01*
X397454Y566073D01*
X397399Y566065D01*
X397319Y566030D01*
X397236Y566003D01*
X397197Y565975D01*
X397140Y565949D01*
X397026Y565853D01*
X396963Y565808D01*
X372064Y540910D01*
X372012Y540840D01*
X371952Y540776D01*
X371927Y540727D01*
X371894Y540682D01*
X371862Y540601D01*
X371823Y540523D01*
X371815Y540475D01*
X371792Y540417D01*
X371780Y540269D01*
X371767Y540192D01*
X371767Y469998D01*
X371779Y469911D01*
X371782Y469824D01*
X371799Y469771D01*
X371807Y469716D01*
X371843Y469637D01*
X371870Y469553D01*
X371898Y469514D01*
X371923Y469457D01*
X372019Y469344D01*
X372064Y469280D01*
X382372Y458972D01*
X382396Y458955D01*
X382415Y458932D01*
X382509Y458870D01*
X382599Y458802D01*
X382627Y458791D01*
X382651Y458775D01*
X382759Y458741D01*
X382865Y458700D01*
X382894Y458698D01*
X382922Y458689D01*
X383036Y458686D01*
X383148Y458677D01*
X383177Y458682D01*
G37*
G36*
X536615Y299960D02*
X536615Y299960D01*
X536728Y299969D01*
X536755Y299980D01*
X536785Y299984D01*
X536888Y300031D01*
X536993Y300071D01*
X537017Y300089D01*
X537044Y300101D01*
X537130Y300175D01*
X537220Y300243D01*
X537238Y300267D01*
X537260Y300286D01*
X537302Y300352D01*
X537390Y300471D01*
X537412Y300529D01*
X537438Y300570D01*
X538280Y302604D01*
X543496Y307820D01*
X550312Y310643D01*
X555792Y310643D01*
X555821Y310647D01*
X555850Y310644D01*
X555961Y310667D01*
X556074Y310683D01*
X556100Y310695D01*
X556129Y310700D01*
X556230Y310752D01*
X556333Y310799D01*
X556355Y310818D01*
X556381Y310831D01*
X556463Y310909D01*
X556550Y310982D01*
X556566Y311007D01*
X556588Y311027D01*
X556645Y311125D01*
X556708Y311219D01*
X556716Y311247D01*
X556731Y311272D01*
X556759Y311382D01*
X556793Y311490D01*
X556794Y311520D01*
X556801Y311548D01*
X556798Y311661D01*
X556801Y311774D01*
X556793Y311803D01*
X556792Y311832D01*
X556757Y311940D01*
X556729Y312049D01*
X556714Y312075D01*
X556705Y312103D01*
X556659Y312166D01*
X556584Y312294D01*
X556538Y312337D01*
X556510Y312376D01*
X536678Y332208D01*
X535363Y335382D01*
X535363Y371809D01*
X535356Y371858D01*
X535357Y371872D01*
X535352Y371891D01*
X535351Y371895D01*
X535348Y371983D01*
X535331Y372035D01*
X535323Y372090D01*
X535288Y372170D01*
X535261Y372253D01*
X535233Y372293D01*
X535207Y372350D01*
X535111Y372463D01*
X535066Y372527D01*
X534764Y372829D01*
X533524Y375823D01*
X533509Y375848D01*
X533500Y375876D01*
X533437Y375970D01*
X533379Y376067D01*
X533358Y376088D01*
X533342Y376112D01*
X533255Y376185D01*
X533173Y376263D01*
X533147Y376276D01*
X533124Y376295D01*
X533020Y376341D01*
X532920Y376393D01*
X532891Y376398D01*
X532864Y376410D01*
X532752Y376426D01*
X532641Y376448D01*
X532612Y376445D01*
X532583Y376449D01*
X532470Y376433D01*
X532358Y376423D01*
X532330Y376413D01*
X532301Y376409D01*
X532198Y376362D01*
X532092Y376321D01*
X532069Y376304D01*
X532042Y376292D01*
X531956Y376218D01*
X531866Y376150D01*
X531848Y376126D01*
X531826Y376107D01*
X531784Y376041D01*
X531695Y375922D01*
X531673Y375863D01*
X531648Y375823D01*
X531236Y374829D01*
X528171Y371764D01*
X524263Y370145D01*
X524262Y370144D01*
X524261Y370144D01*
X524140Y370072D01*
X524019Y370001D01*
X524018Y370000D01*
X524016Y369999D01*
X523917Y369893D01*
X523823Y369794D01*
X523823Y369793D01*
X523822Y369791D01*
X523757Y369666D01*
X523693Y369541D01*
X523693Y369540D01*
X523692Y369538D01*
X523690Y369523D01*
X523638Y369262D01*
X523641Y369232D01*
X523637Y369207D01*
X523637Y310928D01*
X523637Y310927D01*
X523637Y310925D01*
X523657Y310785D01*
X523677Y310647D01*
X523677Y310645D01*
X523677Y310644D01*
X523734Y310518D01*
X523793Y310387D01*
X523794Y310386D01*
X523795Y310385D01*
X523886Y310278D01*
X523976Y310170D01*
X523978Y310169D01*
X523979Y310168D01*
X523992Y310160D01*
X524213Y310013D01*
X524242Y310004D01*
X524263Y309990D01*
X529504Y307820D01*
X534720Y302604D01*
X535562Y300570D01*
X535577Y300545D01*
X535586Y300517D01*
X535649Y300423D01*
X535707Y300325D01*
X535728Y300305D01*
X535744Y300281D01*
X535831Y300208D01*
X535913Y300130D01*
X535939Y300117D01*
X535962Y300098D01*
X536065Y300052D01*
X536166Y300000D01*
X536195Y299994D01*
X536222Y299982D01*
X536334Y299967D01*
X536445Y299945D01*
X536474Y299947D01*
X536503Y299943D01*
X536615Y299960D01*
G37*
%LPC*%
G36*
X32055Y491649D02*
X32055Y491649D01*
X25579Y494332D01*
X20622Y499289D01*
X17939Y505765D01*
X17939Y512775D01*
X20622Y519251D01*
X25579Y524208D01*
X32055Y526891D01*
X39065Y526891D01*
X45541Y524208D01*
X50498Y519251D01*
X53181Y512775D01*
X53181Y505765D01*
X50498Y499289D01*
X45541Y494332D01*
X39065Y491649D01*
X32055Y491649D01*
G37*
%LPD*%
%LPC*%
G36*
X240335Y260509D02*
X240335Y260509D01*
X233859Y263192D01*
X228902Y268149D01*
X226219Y274625D01*
X226219Y281635D01*
X228902Y288111D01*
X233859Y293068D01*
X240335Y295751D01*
X247345Y295751D01*
X253821Y293068D01*
X258778Y288111D01*
X261461Y281635D01*
X261461Y274625D01*
X258778Y268149D01*
X253821Y263192D01*
X247345Y260509D01*
X240335Y260509D01*
G37*
%LPD*%
%LPC*%
G36*
X32055Y260509D02*
X32055Y260509D01*
X25579Y263192D01*
X20622Y268149D01*
X17939Y274625D01*
X17939Y281635D01*
X20622Y288111D01*
X25579Y293068D01*
X32055Y295751D01*
X39065Y295751D01*
X45541Y293068D01*
X50498Y288111D01*
X53181Y281635D01*
X53181Y274625D01*
X50498Y268149D01*
X45541Y263192D01*
X39065Y260509D01*
X32055Y260509D01*
G37*
%LPD*%
%LPC*%
G36*
X700290Y530079D02*
X700290Y530079D01*
X695651Y532001D01*
X692101Y535551D01*
X690179Y540190D01*
X690179Y545210D01*
X692101Y549849D01*
X695651Y553399D01*
X700290Y555321D01*
X705310Y555321D01*
X709949Y553399D01*
X713499Y549849D01*
X715421Y545210D01*
X715421Y540190D01*
X713499Y535551D01*
X709949Y532001D01*
X705310Y530079D01*
X700290Y530079D01*
G37*
%LPD*%
%LPC*%
G36*
X700290Y486079D02*
X700290Y486079D01*
X695651Y488001D01*
X692101Y491551D01*
X690179Y496190D01*
X690179Y501210D01*
X692101Y505849D01*
X695651Y509399D01*
X700290Y511321D01*
X705310Y511321D01*
X709949Y509399D01*
X713499Y505849D01*
X715421Y501210D01*
X715421Y496190D01*
X713499Y491551D01*
X709949Y488001D01*
X705310Y486079D01*
X700290Y486079D01*
G37*
%LPD*%
G36*
X623254Y462677D02*
X623254Y462677D01*
X623283Y462674D01*
X623394Y462697D01*
X623507Y462713D01*
X623533Y462725D01*
X623562Y462730D01*
X623663Y462783D01*
X623766Y462829D01*
X623788Y462848D01*
X623815Y462861D01*
X623897Y462939D01*
X623983Y463013D01*
X623999Y463037D01*
X624021Y463057D01*
X624078Y463155D01*
X624141Y463249D01*
X624150Y463277D01*
X624164Y463302D01*
X624192Y463412D01*
X624226Y463520D01*
X624227Y463550D01*
X624234Y463578D01*
X624231Y463691D01*
X624234Y463804D01*
X624226Y463833D01*
X624225Y463862D01*
X624190Y463970D01*
X624162Y464079D01*
X624147Y464105D01*
X624138Y464133D01*
X624092Y464196D01*
X624017Y464324D01*
X623971Y464367D01*
X623943Y464406D01*
X621625Y466724D01*
X620156Y470272D01*
X620156Y474054D01*
X620152Y474083D01*
X620154Y474112D01*
X620132Y474223D01*
X620116Y474335D01*
X620104Y474362D01*
X620098Y474391D01*
X620046Y474491D01*
X620000Y474595D01*
X619981Y474617D01*
X619967Y474643D01*
X619889Y474725D01*
X619816Y474812D01*
X619792Y474828D01*
X619771Y474849D01*
X619673Y474906D01*
X619579Y474969D01*
X619551Y474978D01*
X619526Y474993D01*
X619416Y475021D01*
X619308Y475055D01*
X619279Y475056D01*
X619250Y475063D01*
X619137Y475059D01*
X619024Y475062D01*
X618996Y475055D01*
X618966Y475054D01*
X618859Y475019D01*
X618749Y474990D01*
X618724Y474975D01*
X618696Y474966D01*
X618632Y474921D01*
X618505Y474845D01*
X618462Y474799D01*
X618423Y474771D01*
X608621Y464970D01*
X608602Y464945D01*
X608579Y464925D01*
X608537Y464858D01*
X608450Y464743D01*
X608427Y464683D01*
X608401Y464641D01*
X608167Y464077D01*
X608139Y463965D01*
X608104Y463856D01*
X608103Y463828D01*
X608096Y463801D01*
X608100Y463687D01*
X608097Y463572D01*
X608104Y463545D01*
X608104Y463517D01*
X608139Y463408D01*
X608168Y463297D01*
X608183Y463273D01*
X608191Y463246D01*
X608255Y463151D01*
X608314Y463052D01*
X608334Y463033D01*
X608349Y463010D01*
X608437Y462936D01*
X608521Y462858D01*
X608546Y462845D01*
X608567Y462827D01*
X608672Y462781D01*
X608774Y462728D01*
X608799Y462724D01*
X608827Y462712D01*
X609091Y462675D01*
X609105Y462673D01*
X623225Y462673D01*
X623254Y462677D01*
G37*
%LPC*%
G36*
X91519Y522731D02*
X91519Y522731D01*
X91519Y528574D01*
X91692Y529221D01*
X92027Y529800D01*
X92500Y530273D01*
X93079Y530608D01*
X93726Y530781D01*
X99569Y530781D01*
X99569Y522731D01*
X91519Y522731D01*
G37*
%LPD*%
%LPC*%
G36*
X93726Y510619D02*
X93726Y510619D01*
X93079Y510792D01*
X92500Y511127D01*
X92027Y511600D01*
X91692Y512179D01*
X91519Y512826D01*
X91519Y518669D01*
X99569Y518669D01*
X99569Y510619D01*
X93726Y510619D01*
G37*
%LPD*%
%LPC*%
G36*
X328195Y378152D02*
X328195Y378152D01*
X326588Y378674D01*
X325083Y379441D01*
X323716Y380434D01*
X322522Y381628D01*
X321529Y382995D01*
X320762Y384500D01*
X320240Y386107D01*
X320164Y386589D01*
X328677Y386589D01*
X328677Y378076D01*
X328195Y378152D01*
G37*
%LPD*%
G36*
X260016Y560506D02*
X260016Y560506D01*
X260074Y560508D01*
X260154Y560534D01*
X260237Y560550D01*
X260289Y560577D01*
X260345Y560595D01*
X260401Y560635D01*
X260489Y560681D01*
X260562Y560750D01*
X260618Y560790D01*
X263679Y563851D01*
X266688Y565097D01*
X266733Y565124D01*
X266782Y565142D01*
X266855Y565196D01*
X266933Y565242D01*
X266969Y565280D01*
X267011Y565311D01*
X267066Y565383D01*
X267128Y565449D01*
X267152Y565495D01*
X267184Y565537D01*
X267217Y565621D01*
X267258Y565701D01*
X267268Y565753D01*
X267287Y565801D01*
X267296Y565892D01*
X267313Y565980D01*
X267309Y566032D01*
X267314Y566085D01*
X267297Y566174D01*
X267289Y566264D01*
X267270Y566312D01*
X267260Y566364D01*
X267219Y566444D01*
X267187Y566529D01*
X267155Y566571D01*
X267131Y566617D01*
X267081Y566669D01*
X267015Y566756D01*
X266942Y566810D01*
X266896Y566857D01*
X265650Y567762D01*
X264462Y568950D01*
X263557Y570196D01*
X263520Y570234D01*
X263491Y570277D01*
X263422Y570336D01*
X263359Y570401D01*
X263314Y570427D01*
X263274Y570460D01*
X263191Y570497D01*
X263113Y570542D01*
X263062Y570554D01*
X263014Y570576D01*
X262924Y570588D01*
X262836Y570610D01*
X262784Y570608D01*
X262732Y570615D01*
X262643Y570602D01*
X262552Y570598D01*
X262503Y570581D01*
X262451Y570574D01*
X262369Y570537D01*
X262283Y570508D01*
X262239Y570478D01*
X262192Y570457D01*
X262123Y570398D01*
X262048Y570347D01*
X262015Y570307D01*
X261975Y570273D01*
X261937Y570211D01*
X261868Y570127D01*
X261832Y570043D01*
X261797Y569988D01*
X260551Y566979D01*
X257490Y563918D01*
X257455Y563871D01*
X257412Y563831D01*
X257370Y563758D01*
X257319Y563691D01*
X257298Y563636D01*
X257269Y563586D01*
X257248Y563504D01*
X257218Y563425D01*
X257213Y563367D01*
X257199Y563310D01*
X257201Y563226D01*
X257194Y563142D01*
X257206Y563084D01*
X257208Y563026D01*
X257234Y562946D01*
X257250Y562863D01*
X257277Y562811D01*
X257295Y562755D01*
X257335Y562699D01*
X257381Y562611D01*
X257450Y562538D01*
X257490Y562482D01*
X259182Y560790D01*
X259229Y560755D01*
X259269Y560712D01*
X259342Y560670D01*
X259409Y560619D01*
X259464Y560598D01*
X259514Y560569D01*
X259596Y560548D01*
X259675Y560518D01*
X259733Y560513D01*
X259790Y560499D01*
X259874Y560501D01*
X259958Y560494D01*
X260016Y560506D01*
G37*
G36*
X533530Y383567D02*
X533530Y383567D01*
X533642Y383577D01*
X533670Y383587D01*
X533699Y383591D01*
X533802Y383638D01*
X533908Y383679D01*
X533931Y383696D01*
X533958Y383708D01*
X534044Y383782D01*
X534134Y383850D01*
X534152Y383874D01*
X534174Y383893D01*
X534216Y383959D01*
X534305Y384078D01*
X534327Y384137D01*
X534352Y384177D01*
X534764Y385171D01*
X535066Y385473D01*
X535118Y385543D01*
X535178Y385607D01*
X535204Y385656D01*
X535237Y385701D01*
X535268Y385782D01*
X535308Y385860D01*
X535316Y385908D01*
X535338Y385966D01*
X535350Y386114D01*
X535363Y386191D01*
X535363Y393090D01*
X535355Y393146D01*
X535357Y393192D01*
X535356Y393194D01*
X535357Y393206D01*
X535335Y393288D01*
X535323Y393372D01*
X535300Y393425D01*
X535285Y393481D01*
X535242Y393554D01*
X535207Y393631D01*
X535169Y393676D01*
X535140Y393726D01*
X535078Y393784D01*
X535024Y393848D01*
X534975Y393880D01*
X534932Y393920D01*
X534857Y393959D01*
X534787Y394006D01*
X534731Y394023D01*
X534679Y394050D01*
X534611Y394061D01*
X534516Y394091D01*
X534416Y394094D01*
X534348Y394105D01*
X533833Y394105D01*
X532041Y394848D01*
X531929Y394876D01*
X531820Y394911D01*
X531792Y394912D01*
X531765Y394919D01*
X531651Y394915D01*
X531536Y394918D01*
X531509Y394911D01*
X531481Y394910D01*
X531372Y394875D01*
X531261Y394846D01*
X531237Y394832D01*
X531210Y394824D01*
X531115Y394760D01*
X531016Y394701D01*
X530997Y394681D01*
X530974Y394666D01*
X530900Y394578D01*
X530822Y394494D01*
X530809Y394469D01*
X530791Y394448D01*
X530745Y394343D01*
X530692Y394241D01*
X530688Y394216D01*
X530676Y394188D01*
X530639Y393924D01*
X530637Y393910D01*
X530637Y388191D01*
X530649Y388105D01*
X530652Y388017D01*
X530669Y387965D01*
X530677Y387910D01*
X530712Y387830D01*
X530739Y387747D01*
X530767Y387707D01*
X530793Y387650D01*
X530889Y387537D01*
X530934Y387473D01*
X531236Y387171D01*
X532476Y384177D01*
X532491Y384152D01*
X532500Y384124D01*
X532563Y384030D01*
X532621Y383933D01*
X532642Y383912D01*
X532658Y383888D01*
X532745Y383815D01*
X532827Y383737D01*
X532853Y383724D01*
X532876Y383705D01*
X532980Y383659D01*
X533080Y383607D01*
X533109Y383602D01*
X533136Y383590D01*
X533248Y383574D01*
X533359Y383552D01*
X533388Y383555D01*
X533417Y383551D01*
X533530Y383567D01*
G37*
%LPC*%
G36*
X320871Y245871D02*
X320871Y245871D01*
X320921Y246190D01*
X321409Y247692D01*
X322126Y249099D01*
X323055Y250377D01*
X324171Y251493D01*
X325449Y252422D01*
X326856Y253139D01*
X328358Y253627D01*
X328677Y253677D01*
X328677Y245871D01*
X320871Y245871D01*
G37*
%LPD*%
%LPC*%
G36*
X328358Y234053D02*
X328358Y234053D01*
X326856Y234541D01*
X325449Y235258D01*
X324171Y236187D01*
X323055Y237303D01*
X322126Y238581D01*
X321409Y239988D01*
X320921Y241490D01*
X320871Y241809D01*
X328677Y241809D01*
X328677Y234003D01*
X328358Y234053D01*
G37*
%LPD*%
G36*
X648738Y414497D02*
X648738Y414497D01*
X648768Y414496D01*
X649026Y414563D01*
X649041Y414567D01*
X649737Y414855D01*
X649738Y414856D01*
X649739Y414856D01*
X649861Y414928D01*
X649981Y414999D01*
X649982Y415000D01*
X649984Y415001D01*
X650082Y415106D01*
X650177Y415206D01*
X650177Y415207D01*
X650178Y415209D01*
X650243Y415335D01*
X650307Y415459D01*
X650307Y415460D01*
X650308Y415462D01*
X650310Y415476D01*
X650362Y415738D01*
X650359Y415768D01*
X650363Y415793D01*
X650363Y422809D01*
X650351Y422895D01*
X650348Y422983D01*
X650331Y423035D01*
X650323Y423090D01*
X650288Y423170D01*
X650261Y423253D01*
X650233Y423293D01*
X650207Y423350D01*
X650111Y423463D01*
X650066Y423527D01*
X649764Y423829D01*
X649590Y424249D01*
X649546Y424322D01*
X649511Y424401D01*
X649474Y424444D01*
X649445Y424493D01*
X649383Y424552D01*
X649327Y424618D01*
X649280Y424650D01*
X649239Y424689D01*
X649162Y424728D01*
X649091Y424776D01*
X649037Y424793D01*
X648986Y424819D01*
X648902Y424835D01*
X648820Y424861D01*
X648763Y424863D01*
X648707Y424874D01*
X648622Y424866D01*
X648536Y424869D01*
X648481Y424854D01*
X648424Y424849D01*
X648344Y424818D01*
X648261Y424797D01*
X648212Y424768D01*
X648159Y424747D01*
X648090Y424695D01*
X648016Y424652D01*
X647977Y424610D01*
X647932Y424576D01*
X647880Y424507D01*
X647822Y424444D01*
X647796Y424394D01*
X647762Y424348D01*
X647731Y424268D01*
X647692Y424191D01*
X647684Y424142D01*
X647661Y424082D01*
X647650Y423937D01*
X647637Y423860D01*
X647637Y415504D01*
X647653Y415391D01*
X647663Y415276D01*
X647673Y415250D01*
X647677Y415223D01*
X647723Y415118D01*
X647765Y415011D01*
X647782Y414989D01*
X647793Y414964D01*
X647867Y414876D01*
X647936Y414784D01*
X647959Y414768D01*
X647976Y414747D01*
X648072Y414683D01*
X648164Y414614D01*
X648190Y414604D01*
X648213Y414589D01*
X648323Y414554D01*
X648430Y414514D01*
X648458Y414512D01*
X648484Y414503D01*
X648599Y414500D01*
X648713Y414491D01*
X648738Y414497D01*
G37*
G36*
X370551Y229989D02*
X370551Y229989D01*
X370580Y229986D01*
X370692Y230009D01*
X370804Y230025D01*
X370830Y230037D01*
X370859Y230042D01*
X370960Y230095D01*
X371063Y230141D01*
X371085Y230160D01*
X371112Y230173D01*
X371194Y230251D01*
X371280Y230325D01*
X371296Y230349D01*
X371318Y230369D01*
X371375Y230467D01*
X371438Y230561D01*
X371447Y230589D01*
X371461Y230614D01*
X371489Y230724D01*
X371523Y230832D01*
X371524Y230862D01*
X371531Y230890D01*
X371528Y231003D01*
X371531Y231116D01*
X371523Y231145D01*
X371522Y231174D01*
X371488Y231282D01*
X371459Y231391D01*
X371444Y231417D01*
X371435Y231445D01*
X371389Y231508D01*
X371314Y231636D01*
X371268Y231679D01*
X371240Y231718D01*
X368764Y234194D01*
X368717Y234229D01*
X368677Y234272D01*
X368604Y234314D01*
X368537Y234365D01*
X368482Y234386D01*
X368432Y234415D01*
X368350Y234436D01*
X368271Y234466D01*
X368213Y234471D01*
X368156Y234485D01*
X368072Y234483D01*
X367988Y234490D01*
X367930Y234478D01*
X367872Y234476D01*
X367792Y234450D01*
X367709Y234434D01*
X367657Y234407D01*
X367601Y234389D01*
X367545Y234349D01*
X367457Y234303D01*
X367384Y234234D01*
X367328Y234194D01*
X364852Y231718D01*
X364834Y231695D01*
X364812Y231676D01*
X364749Y231581D01*
X364681Y231491D01*
X364671Y231463D01*
X364654Y231439D01*
X364620Y231331D01*
X364580Y231225D01*
X364577Y231196D01*
X364569Y231168D01*
X364566Y231054D01*
X364556Y230942D01*
X364562Y230913D01*
X364561Y230884D01*
X364590Y230774D01*
X364612Y230663D01*
X364626Y230637D01*
X364633Y230609D01*
X364691Y230511D01*
X364743Y230411D01*
X364763Y230389D01*
X364778Y230364D01*
X364861Y230287D01*
X364939Y230205D01*
X364964Y230190D01*
X364986Y230170D01*
X365086Y230118D01*
X365184Y230061D01*
X365213Y230054D01*
X365239Y230040D01*
X365316Y230027D01*
X365460Y229991D01*
X365522Y229993D01*
X365570Y229985D01*
X370522Y229985D01*
X370551Y229989D01*
G37*
G36*
X234616Y560506D02*
X234616Y560506D01*
X234674Y560508D01*
X234754Y560534D01*
X234837Y560550D01*
X234889Y560577D01*
X234945Y560595D01*
X235001Y560635D01*
X235089Y560681D01*
X235162Y560750D01*
X235218Y560790D01*
X236910Y562482D01*
X236945Y562529D01*
X236988Y562569D01*
X237030Y562642D01*
X237081Y562709D01*
X237102Y562764D01*
X237131Y562814D01*
X237152Y562896D01*
X237182Y562975D01*
X237187Y563033D01*
X237201Y563090D01*
X237199Y563174D01*
X237206Y563258D01*
X237194Y563316D01*
X237192Y563374D01*
X237166Y563454D01*
X237150Y563537D01*
X237123Y563589D01*
X237105Y563645D01*
X237065Y563701D01*
X237019Y563789D01*
X236950Y563862D01*
X236910Y563918D01*
X235218Y565610D01*
X235171Y565645D01*
X235131Y565688D01*
X235058Y565730D01*
X234991Y565781D01*
X234936Y565802D01*
X234886Y565831D01*
X234804Y565852D01*
X234725Y565882D01*
X234667Y565887D01*
X234610Y565901D01*
X234526Y565899D01*
X234442Y565906D01*
X234384Y565894D01*
X234326Y565892D01*
X234246Y565866D01*
X234163Y565850D01*
X234111Y565823D01*
X234055Y565805D01*
X233999Y565765D01*
X233911Y565719D01*
X233838Y565650D01*
X233782Y565610D01*
X232090Y563918D01*
X232055Y563871D01*
X232012Y563831D01*
X231970Y563758D01*
X231919Y563691D01*
X231898Y563636D01*
X231869Y563586D01*
X231848Y563504D01*
X231818Y563425D01*
X231813Y563367D01*
X231799Y563310D01*
X231801Y563226D01*
X231794Y563142D01*
X231806Y563084D01*
X231808Y563026D01*
X231834Y562946D01*
X231850Y562863D01*
X231877Y562811D01*
X231895Y562755D01*
X231935Y562699D01*
X231981Y562611D01*
X232050Y562538D01*
X232090Y562482D01*
X233782Y560790D01*
X233829Y560755D01*
X233869Y560712D01*
X233942Y560670D01*
X234009Y560619D01*
X234064Y560598D01*
X234114Y560569D01*
X234196Y560548D01*
X234275Y560518D01*
X234333Y560513D01*
X234390Y560499D01*
X234474Y560501D01*
X234558Y560494D01*
X234616Y560506D01*
G37*
D10*
X247200Y550500D03*
X247200Y575900D03*
X221800Y575900D03*
X221800Y550500D03*
X272600Y550500D03*
X272600Y575900D03*
D11*
X589000Y292100D03*
X554000Y292100D03*
X519000Y292100D03*
X484000Y292100D03*
X449000Y292100D03*
X624000Y292100D03*
X659000Y292100D03*
X694000Y292100D03*
D12*
X101600Y520700D03*
D13*
X127000Y520700D03*
X152400Y520700D03*
X177800Y520700D03*
D14*
X330708Y388620D03*
X380492Y388620D03*
D15*
X330708Y243840D03*
X355600Y243840D03*
X380492Y243840D03*
D16*
X510000Y425122D03*
X508678Y393000D03*
D17*
X510000Y423378D02*
X510000Y425122D01*
X510000Y423378D02*
X503662Y417040D01*
X503662Y398016D01*
X508678Y393000D01*
D16*
X629000Y424122D03*
X625678Y392000D03*
D17*
X629000Y421378D02*
X629000Y424122D01*
X629000Y421378D02*
X624662Y417040D01*
X624662Y393016D01*
X625678Y392000D01*
D16*
X419000Y431000D03*
D18*
X419000Y380000D01*
X419000Y357100D01*
X484000Y292100D01*
D16*
X419000Y380000D03*
X515000Y405000D03*
D18*
X515000Y296100D01*
X519000Y292100D01*
D16*
X544000Y430000D03*
D18*
X544000Y379000D01*
X544000Y337100D01*
X589000Y292100D01*
D16*
X544000Y379000D03*
X632000Y404000D03*
D18*
X632000Y300100D01*
X624000Y292100D01*
D16*
X659000Y430000D03*
D18*
X659000Y379000D01*
X659000Y324000D01*
X690900Y292100D01*
X694000Y292100D01*
D16*
X659000Y379000D03*
X395000Y461386D03*
X425322Y368000D03*
D18*
X425202Y461386D02*
X395000Y461386D01*
X425202Y461386D02*
X428678Y464862D01*
X428678Y490619D02*
X432381Y494322D01*
X440619Y494322D01*
X443322Y491619D01*
X443322Y471742D02*
X448000Y467064D01*
X443322Y471742D02*
X443322Y491619D01*
X448000Y467064D02*
X452624Y467064D01*
X459386Y460302D01*
X428678Y464862D02*
X428678Y490619D01*
X459386Y451698D02*
X453302Y445614D01*
X430000Y445614D01*
X425322Y440936D01*
X459386Y451698D02*
X459386Y460302D01*
X425322Y440936D02*
X425322Y368000D01*
D16*
X408678Y406000D03*
X435000Y488000D03*
D18*
X455322Y453381D02*
X451619Y449678D01*
X455322Y453381D02*
X455322Y458619D01*
X408678Y443619D02*
X408678Y406000D01*
X408678Y443619D02*
X414737Y449678D01*
X451619Y449678D01*
X438000Y463000D02*
X435000Y466000D01*
X438000Y463000D02*
X450941Y463000D01*
X455322Y458619D01*
X435000Y466000D02*
X435000Y488000D01*
D16*
X400000Y577000D03*
X550322Y367000D03*
D18*
X550322Y432619D01*
X532969Y449972D01*
X473028Y449972D01*
X471578Y451422D02*
X471578Y465352D01*
X457674Y479256D02*
X455514Y479256D01*
X457674Y479256D02*
X471578Y465352D01*
X455514Y479256D02*
X455514Y496669D01*
X422000Y575000D02*
X419000Y578000D01*
X401000Y578000D01*
X400000Y577000D01*
X471578Y451422D02*
X473028Y449972D01*
X455514Y496669D02*
X445669Y506514D01*
X433000Y506514D01*
X422000Y517514D01*
X422000Y575000D01*
D16*
X422059Y495941D03*
X522000Y381000D03*
D18*
X442302Y498386D02*
X430698Y498386D01*
X428253Y495941D02*
X422059Y495941D01*
X428253Y495941D02*
X430698Y498386D01*
X522000Y429688D02*
X522000Y381000D01*
X447386Y493302D02*
X442302Y498386D01*
X447386Y493302D02*
X447386Y473425D01*
X449683Y471128D01*
X454307Y471128D01*
X463450Y461985D01*
X463450Y447550D01*
X469156Y441844D02*
X509844Y441844D01*
X469156Y441844D02*
X463450Y447550D01*
X509844Y441844D02*
X522000Y429688D01*
D16*
X429000Y528000D03*
X639000Y380000D03*
D18*
X429000Y517000D02*
X429000Y528000D01*
X447352Y510578D02*
X459578Y498352D01*
X459578Y483100D01*
X435422Y510578D02*
X429000Y517000D01*
X435422Y510578D02*
X447352Y510578D01*
X476000Y466678D02*
X476000Y455000D01*
X476964Y454036D01*
X634964Y454036D01*
X639000Y450000D01*
X639000Y380000D01*
X476000Y466678D02*
X459578Y483100D01*
D16*
X293000Y528000D03*
X652678Y367000D03*
D18*
X476530Y274066D02*
X463966Y286630D01*
X463966Y296891D01*
X454476Y306381D01*
X433836Y306381D01*
X293000Y447217D01*
X293000Y528000D01*
X652678Y367000D02*
X652678Y305535D01*
X645030Y297887D01*
X645030Y281030D01*
X638066Y274066D01*
X476530Y274066D01*
D16*
X300000Y504000D03*
X652000Y404000D03*
D18*
X478213Y278130D02*
X468030Y288313D01*
X301678Y502322D02*
X300000Y504000D01*
X468030Y298574D02*
X468030Y288313D01*
X636383Y278130D02*
X640966Y282713D01*
X640966Y366229D02*
X652000Y377263D01*
X640966Y366229D02*
X640966Y282713D01*
X636383Y278130D02*
X478213Y278130D01*
X456160Y310445D02*
X435520Y310445D01*
X456160Y310445D02*
X468030Y298574D01*
X301678Y444286D02*
X301678Y502322D01*
X301678Y444286D02*
X435520Y310445D01*
X652000Y377263D02*
X652000Y404000D01*
D16*
X285000Y599000D03*
X203000Y597000D03*
X364000Y605000D03*
X420000Y614000D03*
X648000Y549000D03*
X596000Y520000D03*
X566000Y519000D03*
X705000Y421000D03*
X706000Y363000D03*
X590000Y365000D03*
X588000Y421000D03*
X470000Y423000D03*
X471000Y366000D03*
X307000Y410000D03*
X342000Y431000D03*
X343000Y516000D03*
X390000Y516000D03*
X275000Y512000D03*
X233000Y474000D03*
X323000Y472000D03*
X508000Y473000D03*
X524000Y514000D03*
X489000Y521000D03*
X308000Y559000D03*
X607000Y604678D03*
X426567Y503567D03*
D18*
X443985Y502450D02*
X451450Y494985D01*
X451450Y476000D01*
X427684Y502450D02*
X426567Y503567D01*
X427684Y502450D02*
X443985Y502450D01*
X467514Y449233D02*
X470839Y445908D01*
X467514Y463669D02*
X455991Y475192D01*
X467514Y463669D02*
X467514Y449233D01*
X452258Y475192D02*
X451450Y476000D01*
X452258Y475192D02*
X455991Y475192D01*
D16*
X536000Y405000D03*
D18*
X536000Y437000D01*
X527092Y445908D02*
X470839Y445908D01*
X527092Y445908D02*
X536000Y437000D01*
D16*
X387130Y442000D03*
D18*
X393322Y579619D02*
X389619Y583322D01*
X393322Y579619D02*
X393322Y574381D01*
X302422Y583322D02*
X269600Y550500D01*
X272600Y550500D01*
X363130Y544190D02*
X393322Y574381D01*
X363130Y544190D02*
X363130Y466000D01*
X387130Y442000D01*
X389619Y583322D02*
X302422Y583322D01*
D16*
X308000Y496000D03*
D18*
X348000Y404000D02*
X375000Y404000D01*
X348000Y404000D02*
X308000Y444000D01*
X308000Y496000D01*
D16*
X375000Y404000D03*
X378000Y577000D03*
D18*
X377948Y577000D01*
X354974Y554026D01*
X354974Y454967D01*
X367970Y441970D01*
D16*
X367970Y441970D03*
X387000Y577000D03*
X377550Y442000D03*
D18*
X377550Y442331D01*
X359038Y460843D01*
X359038Y549038D01*
X387000Y577000D01*
D16*
X347000Y456000D03*
X449000Y456000D03*
D17*
X362931Y434632D02*
X347000Y450563D01*
X347000Y456000D01*
X362931Y434632D02*
X391632Y434632D01*
X412500Y455500D02*
X448500Y455500D01*
X412500Y455500D02*
X391632Y434632D01*
X448500Y455500D02*
X449000Y456000D01*
D16*
X645000Y457000D03*
X463000Y607000D03*
D17*
X629808Y574569D02*
X629808Y472192D01*
X645000Y457000D01*
X493000Y607000D02*
X463000Y607000D01*
X518374Y581626D02*
X622752Y581626D01*
X629808Y574569D01*
X518374Y581626D02*
X493000Y607000D01*
D16*
X413000Y474000D03*
X411000Y560000D03*
X435322Y520000D03*
D17*
X450322Y535000D01*
X460000Y535000D01*
D16*
X460000Y535000D03*
X506000Y583000D03*
D17*
X506000Y543000D01*
X498000Y535000D01*
X460000Y535000D01*
D16*
X622470Y571530D03*
D17*
X618470Y575530D01*
X513470Y575530D01*
X506000Y583000D01*
D16*
X598000Y468000D03*
D17*
X611000Y481000D02*
X611000Y560059D01*
X611000Y481000D02*
X598000Y468000D01*
X611000Y560059D02*
X622470Y571530D01*
X450322Y535000D02*
X427080Y558242D01*
X427080Y577104D01*
X415782Y588402D01*
X196900Y551000D02*
X157000Y551000D01*
X127000Y521000D01*
X127000Y520700D01*
D16*
X304000Y536000D03*
D17*
X211900Y536000D01*
X221800Y575900D02*
X234302Y588402D01*
X415782Y588402D01*
X221800Y575900D02*
X196900Y551000D01*
X211900Y536000D01*
M02*
