G04 EAGLE Gerber RS-274X export*
G75*
%MOMM*%
%FSLAX34Y34*%
%LPD*%
%IN*%
%IPPOS*%
%AMOC8*
5,1,8,0,0,1.08239X$1,22.5*%
G01*
%ADD10C,0.254000*%


D10*
X-25400Y241300D02*
X923800Y241300D01*
X923800Y876200D01*
X-25400Y876200D01*
X-25400Y241300D01*
X35119Y740900D02*
X34561Y740963D01*
X34014Y741088D01*
X33484Y741273D01*
X32978Y741517D01*
X32502Y741816D01*
X32063Y742166D01*
X31666Y742563D01*
X31316Y743002D01*
X31017Y743478D01*
X30773Y743984D01*
X30588Y744514D01*
X30463Y745061D01*
X30400Y745619D01*
X30400Y746181D01*
X30463Y746739D01*
X30588Y747286D01*
X30773Y747816D01*
X31017Y748322D01*
X31316Y748798D01*
X31666Y749237D01*
X32063Y749634D01*
X32502Y749984D01*
X32978Y750283D01*
X33484Y750527D01*
X34014Y750712D01*
X34561Y750837D01*
X35119Y750900D01*
X35681Y750900D01*
X36239Y750837D01*
X36786Y750712D01*
X37316Y750527D01*
X37822Y750283D01*
X38298Y749984D01*
X38737Y749634D01*
X39134Y749237D01*
X39484Y748798D01*
X39783Y748322D01*
X40027Y747816D01*
X40212Y747286D01*
X40337Y746739D01*
X40400Y746181D01*
X40400Y745619D01*
X40337Y745061D01*
X40212Y744514D01*
X40027Y743984D01*
X39783Y743478D01*
X39484Y743002D01*
X39134Y742563D01*
X38737Y742166D01*
X38298Y741816D01*
X37822Y741517D01*
X37316Y741273D01*
X36786Y741088D01*
X36239Y740963D01*
X35681Y740900D01*
X35119Y740900D01*
X35119Y696900D02*
X34561Y696963D01*
X34014Y697088D01*
X33484Y697273D01*
X32978Y697517D01*
X32502Y697816D01*
X32063Y698166D01*
X31666Y698563D01*
X31316Y699002D01*
X31017Y699478D01*
X30773Y699984D01*
X30588Y700514D01*
X30463Y701061D01*
X30400Y701619D01*
X30400Y702181D01*
X30463Y702739D01*
X30588Y703286D01*
X30773Y703816D01*
X31017Y704322D01*
X31316Y704798D01*
X31666Y705237D01*
X32063Y705634D01*
X32502Y705984D01*
X32978Y706283D01*
X33484Y706527D01*
X34014Y706712D01*
X34561Y706837D01*
X35119Y706900D01*
X35681Y706900D01*
X36239Y706837D01*
X36786Y706712D01*
X37316Y706527D01*
X37822Y706283D01*
X38298Y705984D01*
X38737Y705634D01*
X39134Y705237D01*
X39484Y704798D01*
X39783Y704322D01*
X40027Y703816D01*
X40212Y703286D01*
X40337Y702739D01*
X40400Y702181D01*
X40400Y701619D01*
X40337Y701061D01*
X40212Y700514D01*
X40027Y699984D01*
X39783Y699478D01*
X39484Y699002D01*
X39134Y698563D01*
X38737Y698166D01*
X38298Y697816D01*
X37822Y697517D01*
X37316Y697273D01*
X36786Y697088D01*
X36239Y696963D01*
X35681Y696900D01*
X35119Y696900D01*
X868840Y346167D02*
X868916Y347037D01*
X869068Y347896D01*
X869294Y348740D01*
X869592Y349560D01*
X869961Y350352D01*
X870398Y351108D01*
X870899Y351823D01*
X871460Y352492D01*
X872078Y353110D01*
X872747Y353671D01*
X873462Y354172D01*
X874218Y354609D01*
X875010Y354978D01*
X875830Y355276D01*
X876674Y355502D01*
X877534Y355654D01*
X878403Y355730D01*
X879277Y355730D01*
X880147Y355654D01*
X881006Y355502D01*
X881850Y355276D01*
X882670Y354978D01*
X883462Y354609D01*
X884218Y354172D01*
X884933Y353671D01*
X885602Y353110D01*
X886220Y352492D01*
X886781Y351823D01*
X887282Y351108D01*
X887719Y350352D01*
X888088Y349560D01*
X888386Y348740D01*
X888612Y347896D01*
X888764Y347037D01*
X888840Y346167D01*
X888840Y345293D01*
X888764Y344424D01*
X888612Y343564D01*
X888386Y342720D01*
X888088Y341900D01*
X887719Y341108D01*
X887282Y340352D01*
X886781Y339637D01*
X886220Y338968D01*
X885602Y338350D01*
X884933Y337789D01*
X884218Y337288D01*
X883462Y336851D01*
X882670Y336482D01*
X881850Y336184D01*
X881006Y335958D01*
X880147Y335806D01*
X879277Y335730D01*
X878403Y335730D01*
X877534Y335806D01*
X876674Y335958D01*
X875830Y336184D01*
X875010Y336482D01*
X874218Y336851D01*
X873462Y337288D01*
X872747Y337789D01*
X872078Y338350D01*
X871460Y338968D01*
X870899Y339637D01*
X870398Y340352D01*
X869961Y341108D01*
X869592Y341900D01*
X869294Y342720D01*
X869068Y343564D01*
X868916Y344424D01*
X868840Y345293D01*
X868840Y346167D01*
X660560Y346167D02*
X660636Y347037D01*
X660788Y347896D01*
X661014Y348740D01*
X661312Y349560D01*
X661681Y350352D01*
X662118Y351108D01*
X662619Y351823D01*
X663180Y352492D01*
X663798Y353110D01*
X664467Y353671D01*
X665182Y354172D01*
X665938Y354609D01*
X666730Y354978D01*
X667550Y355276D01*
X668394Y355502D01*
X669254Y355654D01*
X670123Y355730D01*
X670997Y355730D01*
X671867Y355654D01*
X672726Y355502D01*
X673570Y355276D01*
X674390Y354978D01*
X675182Y354609D01*
X675938Y354172D01*
X676653Y353671D01*
X677322Y353110D01*
X677940Y352492D01*
X678501Y351823D01*
X679002Y351108D01*
X679439Y350352D01*
X679808Y349560D01*
X680106Y348740D01*
X680332Y347896D01*
X680484Y347037D01*
X680560Y346167D01*
X680560Y345293D01*
X680484Y344424D01*
X680332Y343564D01*
X680106Y342720D01*
X679808Y341900D01*
X679439Y341108D01*
X679002Y340352D01*
X678501Y339637D01*
X677940Y338968D01*
X677322Y338350D01*
X676653Y337789D01*
X675938Y337288D01*
X675182Y336851D01*
X674390Y336482D01*
X673570Y336184D01*
X672726Y335958D01*
X671867Y335806D01*
X670997Y335730D01*
X670123Y335730D01*
X669254Y335806D01*
X668394Y335958D01*
X667550Y336184D01*
X666730Y336482D01*
X665938Y336851D01*
X665182Y337288D01*
X664467Y337789D01*
X663798Y338350D01*
X663180Y338968D01*
X662619Y339637D01*
X662118Y340352D01*
X661681Y341108D01*
X661312Y341900D01*
X661014Y342720D01*
X660788Y343564D01*
X660636Y344424D01*
X660560Y345293D01*
X660560Y346167D01*
X660560Y577307D02*
X660636Y578177D01*
X660788Y579036D01*
X661014Y579880D01*
X661312Y580700D01*
X661681Y581492D01*
X662118Y582248D01*
X662619Y582963D01*
X663180Y583632D01*
X663798Y584250D01*
X664467Y584811D01*
X665182Y585312D01*
X665938Y585749D01*
X666730Y586118D01*
X667550Y586416D01*
X668394Y586642D01*
X669254Y586794D01*
X670123Y586870D01*
X670997Y586870D01*
X671867Y586794D01*
X672726Y586642D01*
X673570Y586416D01*
X674390Y586118D01*
X675182Y585749D01*
X675938Y585312D01*
X676653Y584811D01*
X677322Y584250D01*
X677940Y583632D01*
X678501Y582963D01*
X679002Y582248D01*
X679439Y581492D01*
X679808Y580700D01*
X680106Y579880D01*
X680332Y579036D01*
X680484Y578177D01*
X680560Y577307D01*
X680560Y576433D01*
X680484Y575564D01*
X680332Y574704D01*
X680106Y573860D01*
X679808Y573040D01*
X679439Y572248D01*
X679002Y571492D01*
X678501Y570777D01*
X677940Y570108D01*
X677322Y569490D01*
X676653Y568929D01*
X675938Y568428D01*
X675182Y567991D01*
X674390Y567622D01*
X673570Y567324D01*
X672726Y567098D01*
X671867Y566946D01*
X670997Y566870D01*
X670123Y566870D01*
X669254Y566946D01*
X668394Y567098D01*
X667550Y567324D01*
X666730Y567622D01*
X665938Y567991D01*
X665182Y568428D01*
X664467Y568929D01*
X663798Y569490D01*
X663180Y570108D01*
X662619Y570777D01*
X662118Y571492D01*
X661681Y572248D01*
X661312Y573040D01*
X661014Y573860D01*
X660788Y574704D01*
X660636Y575564D01*
X660560Y576433D01*
X660560Y577307D01*
X868840Y577307D02*
X868916Y578177D01*
X869068Y579036D01*
X869294Y579880D01*
X869592Y580700D01*
X869961Y581492D01*
X870398Y582248D01*
X870899Y582963D01*
X871460Y583632D01*
X872078Y584250D01*
X872747Y584811D01*
X873462Y585312D01*
X874218Y585749D01*
X875010Y586118D01*
X875830Y586416D01*
X876674Y586642D01*
X877534Y586794D01*
X878403Y586870D01*
X879277Y586870D01*
X880147Y586794D01*
X881006Y586642D01*
X881850Y586416D01*
X882670Y586118D01*
X883462Y585749D01*
X884218Y585312D01*
X884933Y584811D01*
X885602Y584250D01*
X886220Y583632D01*
X886781Y582963D01*
X887282Y582248D01*
X887719Y581492D01*
X888088Y580700D01*
X888386Y579880D01*
X888612Y579036D01*
X888764Y578177D01*
X888840Y577307D01*
X888840Y576433D01*
X888764Y575564D01*
X888612Y574704D01*
X888386Y573860D01*
X888088Y573040D01*
X887719Y572248D01*
X887282Y571492D01*
X886781Y570777D01*
X886220Y570108D01*
X885602Y569490D01*
X884933Y568929D01*
X884218Y568428D01*
X883462Y567991D01*
X882670Y567622D01*
X881850Y567324D01*
X881006Y567098D01*
X880147Y566946D01*
X879277Y566870D01*
X878403Y566870D01*
X877534Y566946D01*
X876674Y567098D01*
X875830Y567324D01*
X875010Y567622D01*
X874218Y567991D01*
X873462Y568428D01*
X872747Y568929D01*
X872078Y569490D01*
X871460Y570108D01*
X870899Y570777D01*
X870398Y571492D01*
X869961Y572248D01*
X869592Y573040D01*
X869294Y573860D01*
X869068Y574704D01*
X868916Y575564D01*
X868840Y576433D01*
X868840Y577307D01*
M02*
