G04 EAGLE Gerber RS-274X export*
G75*
%MOMM*%
%FSLAX34Y34*%
%LPD*%
%INSilkscreen Top*%
%IPPOS*%
%AMOC8*
5,1,8,0,0,1.08239X$1,22.5*%
G01*
%ADD10C,0.101600*%
%ADD11C,0.127000*%
%ADD12C,0.200000*%
%ADD13C,0.076200*%
%ADD14R,0.150000X0.300000*%
%ADD15R,0.300000X0.300000*%
%ADD16C,0.152400*%
%ADD17C,0.300000*%
%ADD18C,0.508000*%
%ADD19C,0.203200*%


D10*
X543736Y570708D02*
X541139Y570708D01*
X541040Y570710D01*
X540940Y570716D01*
X540841Y570725D01*
X540743Y570738D01*
X540645Y570755D01*
X540547Y570776D01*
X540451Y570801D01*
X540356Y570829D01*
X540262Y570861D01*
X540169Y570896D01*
X540077Y570935D01*
X539987Y570978D01*
X539899Y571023D01*
X539812Y571073D01*
X539728Y571125D01*
X539645Y571181D01*
X539565Y571239D01*
X539487Y571301D01*
X539412Y571366D01*
X539339Y571434D01*
X539269Y571504D01*
X539201Y571577D01*
X539136Y571652D01*
X539074Y571730D01*
X539016Y571810D01*
X538960Y571893D01*
X538908Y571977D01*
X538858Y572064D01*
X538813Y572152D01*
X538770Y572242D01*
X538731Y572334D01*
X538696Y572427D01*
X538664Y572521D01*
X538636Y572616D01*
X538611Y572712D01*
X538590Y572810D01*
X538573Y572908D01*
X538560Y573006D01*
X538551Y573105D01*
X538545Y573205D01*
X538543Y573304D01*
X538543Y579796D01*
X538545Y579895D01*
X538551Y579995D01*
X538560Y580094D01*
X538573Y580192D01*
X538590Y580290D01*
X538611Y580388D01*
X538636Y580484D01*
X538664Y580579D01*
X538696Y580673D01*
X538731Y580766D01*
X538770Y580858D01*
X538813Y580948D01*
X538858Y581036D01*
X538908Y581123D01*
X538960Y581207D01*
X539016Y581290D01*
X539074Y581370D01*
X539136Y581448D01*
X539201Y581523D01*
X539269Y581596D01*
X539339Y581666D01*
X539412Y581734D01*
X539487Y581799D01*
X539565Y581861D01*
X539645Y581919D01*
X539728Y581975D01*
X539812Y582027D01*
X539899Y582077D01*
X539987Y582122D01*
X540077Y582165D01*
X540169Y582204D01*
X540261Y582239D01*
X540356Y582271D01*
X540451Y582299D01*
X540547Y582324D01*
X540645Y582345D01*
X540743Y582362D01*
X540841Y582375D01*
X540940Y582384D01*
X541040Y582390D01*
X541139Y582392D01*
X543736Y582392D01*
X548101Y579796D02*
X551346Y582392D01*
X551346Y570708D01*
X548101Y570708D02*
X554592Y570708D01*
X512701Y570508D02*
X510104Y570508D01*
X510005Y570510D01*
X509905Y570516D01*
X509806Y570525D01*
X509708Y570538D01*
X509610Y570555D01*
X509512Y570576D01*
X509416Y570601D01*
X509321Y570629D01*
X509227Y570661D01*
X509134Y570696D01*
X509042Y570735D01*
X508952Y570778D01*
X508864Y570823D01*
X508777Y570873D01*
X508693Y570925D01*
X508610Y570981D01*
X508530Y571039D01*
X508452Y571101D01*
X508377Y571166D01*
X508304Y571234D01*
X508234Y571304D01*
X508166Y571377D01*
X508101Y571452D01*
X508039Y571530D01*
X507981Y571610D01*
X507925Y571693D01*
X507873Y571777D01*
X507823Y571864D01*
X507778Y571952D01*
X507735Y572042D01*
X507696Y572134D01*
X507661Y572227D01*
X507629Y572321D01*
X507601Y572416D01*
X507576Y572512D01*
X507555Y572610D01*
X507538Y572708D01*
X507525Y572806D01*
X507516Y572905D01*
X507510Y573005D01*
X507508Y573104D01*
X507508Y579596D01*
X507510Y579695D01*
X507516Y579795D01*
X507525Y579894D01*
X507538Y579992D01*
X507555Y580090D01*
X507576Y580188D01*
X507601Y580284D01*
X507629Y580379D01*
X507661Y580473D01*
X507696Y580566D01*
X507735Y580658D01*
X507778Y580748D01*
X507823Y580836D01*
X507873Y580923D01*
X507925Y581007D01*
X507981Y581090D01*
X508039Y581170D01*
X508101Y581248D01*
X508166Y581323D01*
X508234Y581396D01*
X508304Y581466D01*
X508377Y581534D01*
X508452Y581599D01*
X508530Y581661D01*
X508610Y581719D01*
X508693Y581775D01*
X508777Y581827D01*
X508864Y581877D01*
X508952Y581922D01*
X509042Y581965D01*
X509134Y582004D01*
X509226Y582039D01*
X509321Y582071D01*
X509416Y582099D01*
X509512Y582124D01*
X509610Y582145D01*
X509708Y582162D01*
X509806Y582175D01*
X509905Y582184D01*
X510005Y582190D01*
X510104Y582192D01*
X512701Y582192D01*
X520636Y582192D02*
X520743Y582190D01*
X520849Y582184D01*
X520955Y582174D01*
X521061Y582161D01*
X521167Y582143D01*
X521271Y582122D01*
X521375Y582097D01*
X521478Y582068D01*
X521579Y582036D01*
X521679Y581999D01*
X521778Y581959D01*
X521876Y581916D01*
X521972Y581869D01*
X522066Y581818D01*
X522158Y581764D01*
X522248Y581707D01*
X522336Y581647D01*
X522421Y581583D01*
X522504Y581516D01*
X522585Y581446D01*
X522663Y581374D01*
X522739Y581298D01*
X522811Y581220D01*
X522881Y581139D01*
X522948Y581056D01*
X523012Y580971D01*
X523072Y580883D01*
X523129Y580793D01*
X523183Y580701D01*
X523234Y580607D01*
X523281Y580511D01*
X523324Y580413D01*
X523364Y580314D01*
X523401Y580214D01*
X523433Y580113D01*
X523462Y580010D01*
X523487Y579906D01*
X523508Y579802D01*
X523526Y579696D01*
X523539Y579590D01*
X523549Y579484D01*
X523555Y579378D01*
X523557Y579271D01*
X520636Y582192D02*
X520515Y582190D01*
X520394Y582184D01*
X520274Y582174D01*
X520153Y582161D01*
X520034Y582143D01*
X519914Y582122D01*
X519796Y582097D01*
X519679Y582068D01*
X519562Y582035D01*
X519447Y581999D01*
X519333Y581958D01*
X519220Y581915D01*
X519108Y581867D01*
X518999Y581816D01*
X518891Y581761D01*
X518784Y581703D01*
X518680Y581642D01*
X518578Y581577D01*
X518478Y581509D01*
X518380Y581438D01*
X518284Y581364D01*
X518191Y581287D01*
X518101Y581206D01*
X518013Y581123D01*
X517928Y581037D01*
X517845Y580948D01*
X517766Y580857D01*
X517689Y580763D01*
X517616Y580667D01*
X517546Y580569D01*
X517479Y580468D01*
X517415Y580365D01*
X517355Y580260D01*
X517298Y580153D01*
X517244Y580045D01*
X517194Y579935D01*
X517148Y579823D01*
X517105Y579710D01*
X517066Y579595D01*
X522584Y576999D02*
X522663Y577076D01*
X522739Y577157D01*
X522812Y577240D01*
X522882Y577325D01*
X522949Y577413D01*
X523013Y577503D01*
X523073Y577595D01*
X523130Y577690D01*
X523184Y577786D01*
X523235Y577884D01*
X523282Y577984D01*
X523326Y578086D01*
X523366Y578189D01*
X523402Y578293D01*
X523434Y578399D01*
X523463Y578505D01*
X523488Y578613D01*
X523510Y578721D01*
X523527Y578831D01*
X523541Y578940D01*
X523550Y579050D01*
X523556Y579161D01*
X523558Y579271D01*
X522584Y576999D02*
X517066Y570508D01*
X523557Y570508D01*
X444136Y550608D02*
X441539Y550608D01*
X441440Y550610D01*
X441340Y550616D01*
X441241Y550625D01*
X441143Y550638D01*
X441045Y550655D01*
X440947Y550676D01*
X440851Y550701D01*
X440756Y550729D01*
X440662Y550761D01*
X440569Y550796D01*
X440477Y550835D01*
X440387Y550878D01*
X440299Y550923D01*
X440212Y550973D01*
X440128Y551025D01*
X440045Y551081D01*
X439965Y551139D01*
X439887Y551201D01*
X439812Y551266D01*
X439739Y551334D01*
X439669Y551404D01*
X439601Y551477D01*
X439536Y551552D01*
X439474Y551630D01*
X439416Y551710D01*
X439360Y551793D01*
X439308Y551877D01*
X439258Y551964D01*
X439213Y552052D01*
X439170Y552142D01*
X439131Y552234D01*
X439096Y552327D01*
X439064Y552421D01*
X439036Y552516D01*
X439011Y552612D01*
X438990Y552710D01*
X438973Y552808D01*
X438960Y552906D01*
X438951Y553005D01*
X438945Y553105D01*
X438943Y553204D01*
X438943Y559696D01*
X438945Y559795D01*
X438951Y559895D01*
X438960Y559994D01*
X438973Y560092D01*
X438990Y560190D01*
X439011Y560288D01*
X439036Y560384D01*
X439064Y560479D01*
X439096Y560573D01*
X439131Y560666D01*
X439170Y560758D01*
X439213Y560848D01*
X439258Y560936D01*
X439308Y561023D01*
X439360Y561107D01*
X439416Y561190D01*
X439474Y561270D01*
X439536Y561348D01*
X439601Y561423D01*
X439669Y561496D01*
X439739Y561566D01*
X439812Y561634D01*
X439887Y561699D01*
X439965Y561761D01*
X440045Y561819D01*
X440128Y561875D01*
X440212Y561927D01*
X440299Y561977D01*
X440387Y562022D01*
X440477Y562065D01*
X440569Y562104D01*
X440661Y562139D01*
X440756Y562171D01*
X440851Y562199D01*
X440947Y562224D01*
X441045Y562245D01*
X441143Y562262D01*
X441241Y562275D01*
X441340Y562284D01*
X441440Y562290D01*
X441539Y562292D01*
X444136Y562292D01*
X448501Y550608D02*
X451746Y550608D01*
X451859Y550610D01*
X451972Y550616D01*
X452085Y550626D01*
X452198Y550640D01*
X452310Y550657D01*
X452421Y550679D01*
X452531Y550704D01*
X452641Y550734D01*
X452749Y550767D01*
X452856Y550804D01*
X452962Y550844D01*
X453066Y550889D01*
X453169Y550937D01*
X453270Y550988D01*
X453369Y551043D01*
X453466Y551101D01*
X453561Y551163D01*
X453654Y551228D01*
X453744Y551296D01*
X453832Y551367D01*
X453918Y551442D01*
X454001Y551519D01*
X454081Y551599D01*
X454158Y551682D01*
X454233Y551768D01*
X454304Y551856D01*
X454372Y551946D01*
X454437Y552039D01*
X454499Y552134D01*
X454557Y552231D01*
X454612Y552330D01*
X454663Y552431D01*
X454711Y552534D01*
X454756Y552638D01*
X454796Y552744D01*
X454833Y552851D01*
X454866Y552959D01*
X454896Y553069D01*
X454921Y553179D01*
X454943Y553290D01*
X454960Y553402D01*
X454974Y553515D01*
X454984Y553628D01*
X454990Y553741D01*
X454992Y553854D01*
X454990Y553967D01*
X454984Y554080D01*
X454974Y554193D01*
X454960Y554306D01*
X454943Y554418D01*
X454921Y554529D01*
X454896Y554639D01*
X454866Y554749D01*
X454833Y554857D01*
X454796Y554964D01*
X454756Y555070D01*
X454711Y555174D01*
X454663Y555277D01*
X454612Y555378D01*
X454557Y555477D01*
X454499Y555574D01*
X454437Y555669D01*
X454372Y555762D01*
X454304Y555852D01*
X454233Y555940D01*
X454158Y556026D01*
X454081Y556109D01*
X454001Y556189D01*
X453918Y556266D01*
X453832Y556341D01*
X453744Y556412D01*
X453654Y556480D01*
X453561Y556545D01*
X453466Y556607D01*
X453369Y556665D01*
X453270Y556720D01*
X453169Y556771D01*
X453066Y556819D01*
X452962Y556864D01*
X452856Y556904D01*
X452749Y556941D01*
X452641Y556974D01*
X452531Y557004D01*
X452421Y557029D01*
X452310Y557051D01*
X452198Y557068D01*
X452085Y557082D01*
X451972Y557092D01*
X451859Y557098D01*
X451746Y557100D01*
X452396Y562292D02*
X448501Y562292D01*
X452396Y562292D02*
X452497Y562290D01*
X452597Y562284D01*
X452697Y562274D01*
X452797Y562261D01*
X452896Y562243D01*
X452995Y562222D01*
X453092Y562197D01*
X453189Y562168D01*
X453284Y562135D01*
X453378Y562099D01*
X453470Y562059D01*
X453561Y562016D01*
X453650Y561969D01*
X453737Y561919D01*
X453823Y561865D01*
X453906Y561808D01*
X453986Y561748D01*
X454065Y561685D01*
X454141Y561618D01*
X454214Y561549D01*
X454284Y561477D01*
X454352Y561403D01*
X454417Y561326D01*
X454478Y561246D01*
X454537Y561164D01*
X454592Y561080D01*
X454644Y560994D01*
X454693Y560906D01*
X454738Y560816D01*
X454780Y560724D01*
X454818Y560631D01*
X454852Y560536D01*
X454883Y560441D01*
X454910Y560344D01*
X454933Y560246D01*
X454953Y560147D01*
X454968Y560047D01*
X454980Y559947D01*
X454988Y559847D01*
X454992Y559746D01*
X454992Y559646D01*
X454988Y559545D01*
X454980Y559445D01*
X454968Y559345D01*
X454953Y559245D01*
X454933Y559146D01*
X454910Y559048D01*
X454883Y558951D01*
X454852Y558856D01*
X454818Y558761D01*
X454780Y558668D01*
X454738Y558576D01*
X454693Y558486D01*
X454644Y558398D01*
X454592Y558312D01*
X454537Y558228D01*
X454478Y558146D01*
X454417Y558066D01*
X454352Y557989D01*
X454284Y557915D01*
X454214Y557843D01*
X454141Y557774D01*
X454065Y557707D01*
X453986Y557644D01*
X453906Y557584D01*
X453823Y557527D01*
X453737Y557473D01*
X453650Y557423D01*
X453561Y557376D01*
X453470Y557333D01*
X453378Y557293D01*
X453284Y557257D01*
X453189Y557224D01*
X453092Y557195D01*
X452995Y557170D01*
X452896Y557149D01*
X452797Y557131D01*
X452697Y557118D01*
X452597Y557108D01*
X452497Y557102D01*
X452396Y557100D01*
X452396Y557099D02*
X449799Y557099D01*
D11*
X666800Y559700D02*
X666800Y481700D01*
X758800Y481700D02*
X758800Y559700D01*
X718800Y481700D02*
X691800Y481700D01*
X691800Y559700D02*
X718800Y559700D01*
X666800Y499700D02*
X666800Y488700D01*
X666800Y541700D02*
X666800Y552700D01*
D10*
X715704Y589208D02*
X718301Y589208D01*
X715704Y589208D02*
X715605Y589210D01*
X715505Y589216D01*
X715406Y589225D01*
X715308Y589238D01*
X715210Y589255D01*
X715112Y589276D01*
X715016Y589301D01*
X714921Y589329D01*
X714827Y589361D01*
X714734Y589396D01*
X714642Y589435D01*
X714552Y589478D01*
X714464Y589523D01*
X714377Y589573D01*
X714293Y589625D01*
X714210Y589681D01*
X714130Y589739D01*
X714052Y589801D01*
X713977Y589866D01*
X713904Y589934D01*
X713834Y590004D01*
X713766Y590077D01*
X713701Y590152D01*
X713639Y590230D01*
X713581Y590310D01*
X713525Y590393D01*
X713473Y590477D01*
X713423Y590564D01*
X713378Y590652D01*
X713335Y590742D01*
X713296Y590834D01*
X713261Y590927D01*
X713229Y591021D01*
X713201Y591116D01*
X713176Y591212D01*
X713155Y591310D01*
X713138Y591408D01*
X713125Y591506D01*
X713116Y591605D01*
X713110Y591705D01*
X713108Y591804D01*
X713108Y598296D01*
X713110Y598395D01*
X713116Y598495D01*
X713125Y598594D01*
X713138Y598692D01*
X713155Y598790D01*
X713176Y598888D01*
X713201Y598984D01*
X713229Y599079D01*
X713261Y599173D01*
X713296Y599266D01*
X713335Y599358D01*
X713378Y599448D01*
X713423Y599536D01*
X713473Y599623D01*
X713525Y599707D01*
X713581Y599790D01*
X713639Y599870D01*
X713701Y599948D01*
X713766Y600023D01*
X713834Y600096D01*
X713904Y600166D01*
X713977Y600234D01*
X714052Y600299D01*
X714130Y600361D01*
X714210Y600419D01*
X714293Y600475D01*
X714377Y600527D01*
X714464Y600577D01*
X714552Y600622D01*
X714642Y600665D01*
X714734Y600704D01*
X714826Y600739D01*
X714921Y600771D01*
X715016Y600799D01*
X715112Y600824D01*
X715210Y600845D01*
X715308Y600862D01*
X715406Y600875D01*
X715505Y600884D01*
X715605Y600890D01*
X715704Y600892D01*
X718301Y600892D01*
X723047Y600892D02*
X723047Y589208D01*
X729538Y589208D02*
X723047Y600892D01*
X729538Y600892D02*
X729538Y589208D01*
X734858Y598296D02*
X738104Y600892D01*
X738104Y589208D01*
X741349Y589208D02*
X734858Y589208D01*
D12*
X720500Y435650D02*
X688500Y435650D01*
X720500Y435650D02*
X720500Y349150D01*
X688500Y349150D01*
X688500Y435650D01*
X685000Y437250D02*
X669750Y437250D01*
D10*
X694192Y345642D02*
X694192Y333958D01*
X692894Y333958D02*
X695490Y333958D01*
X695490Y345642D02*
X692894Y345642D01*
X702654Y333958D02*
X705250Y333958D01*
X702654Y333958D02*
X702555Y333960D01*
X702455Y333966D01*
X702356Y333975D01*
X702258Y333988D01*
X702160Y334005D01*
X702062Y334026D01*
X701966Y334051D01*
X701871Y334079D01*
X701777Y334111D01*
X701684Y334146D01*
X701592Y334185D01*
X701502Y334228D01*
X701414Y334273D01*
X701327Y334323D01*
X701243Y334375D01*
X701160Y334431D01*
X701080Y334489D01*
X701002Y334551D01*
X700927Y334616D01*
X700854Y334684D01*
X700784Y334754D01*
X700716Y334827D01*
X700651Y334902D01*
X700589Y334980D01*
X700531Y335060D01*
X700475Y335143D01*
X700423Y335227D01*
X700373Y335314D01*
X700328Y335402D01*
X700285Y335492D01*
X700246Y335584D01*
X700211Y335677D01*
X700179Y335771D01*
X700151Y335866D01*
X700126Y335962D01*
X700105Y336060D01*
X700088Y336158D01*
X700075Y336256D01*
X700066Y336355D01*
X700060Y336455D01*
X700058Y336554D01*
X700057Y336554D02*
X700057Y343046D01*
X700058Y343046D02*
X700060Y343145D01*
X700066Y343245D01*
X700075Y343344D01*
X700088Y343442D01*
X700105Y343540D01*
X700126Y343638D01*
X700151Y343734D01*
X700179Y343829D01*
X700211Y343923D01*
X700246Y344016D01*
X700285Y344108D01*
X700328Y344198D01*
X700373Y344286D01*
X700423Y344373D01*
X700475Y344457D01*
X700531Y344540D01*
X700589Y344620D01*
X700651Y344698D01*
X700716Y344773D01*
X700784Y344846D01*
X700854Y344916D01*
X700927Y344984D01*
X701002Y345049D01*
X701080Y345111D01*
X701160Y345169D01*
X701243Y345225D01*
X701327Y345277D01*
X701414Y345327D01*
X701502Y345372D01*
X701592Y345415D01*
X701684Y345454D01*
X701776Y345489D01*
X701871Y345521D01*
X701966Y345549D01*
X702062Y345574D01*
X702160Y345595D01*
X702258Y345612D01*
X702356Y345625D01*
X702455Y345634D01*
X702555Y345640D01*
X702654Y345642D01*
X705250Y345642D01*
X709615Y343046D02*
X712861Y345642D01*
X712861Y333958D01*
X716106Y333958D02*
X709615Y333958D01*
D12*
X605200Y435650D02*
X573200Y435650D01*
X605200Y435650D02*
X605200Y349150D01*
X573200Y349150D01*
X573200Y435650D01*
X569700Y437250D02*
X554450Y437250D01*
D10*
X578892Y343642D02*
X578892Y331958D01*
X577594Y331958D02*
X580190Y331958D01*
X580190Y343642D02*
X577594Y343642D01*
X587354Y331958D02*
X589950Y331958D01*
X587354Y331958D02*
X587255Y331960D01*
X587155Y331966D01*
X587056Y331975D01*
X586958Y331988D01*
X586860Y332005D01*
X586762Y332026D01*
X586666Y332051D01*
X586571Y332079D01*
X586477Y332111D01*
X586384Y332146D01*
X586292Y332185D01*
X586202Y332228D01*
X586114Y332273D01*
X586027Y332323D01*
X585943Y332375D01*
X585860Y332431D01*
X585780Y332489D01*
X585702Y332551D01*
X585627Y332616D01*
X585554Y332684D01*
X585484Y332754D01*
X585416Y332827D01*
X585351Y332902D01*
X585289Y332980D01*
X585231Y333060D01*
X585175Y333143D01*
X585123Y333227D01*
X585073Y333314D01*
X585028Y333402D01*
X584985Y333492D01*
X584946Y333584D01*
X584911Y333677D01*
X584879Y333771D01*
X584851Y333866D01*
X584826Y333962D01*
X584805Y334060D01*
X584788Y334158D01*
X584775Y334256D01*
X584766Y334355D01*
X584760Y334455D01*
X584758Y334554D01*
X584757Y334554D02*
X584757Y341046D01*
X584758Y341046D02*
X584760Y341145D01*
X584766Y341245D01*
X584775Y341344D01*
X584788Y341442D01*
X584805Y341540D01*
X584826Y341638D01*
X584851Y341734D01*
X584879Y341829D01*
X584911Y341923D01*
X584946Y342016D01*
X584985Y342108D01*
X585028Y342198D01*
X585073Y342286D01*
X585123Y342373D01*
X585175Y342457D01*
X585231Y342540D01*
X585289Y342620D01*
X585351Y342698D01*
X585416Y342773D01*
X585484Y342846D01*
X585554Y342916D01*
X585627Y342984D01*
X585702Y343049D01*
X585780Y343111D01*
X585860Y343169D01*
X585943Y343225D01*
X586027Y343277D01*
X586114Y343327D01*
X586202Y343372D01*
X586292Y343415D01*
X586384Y343454D01*
X586476Y343489D01*
X586571Y343521D01*
X586666Y343549D01*
X586762Y343574D01*
X586860Y343595D01*
X586958Y343612D01*
X587056Y343625D01*
X587155Y343634D01*
X587255Y343640D01*
X587354Y343642D01*
X589950Y343642D01*
X597885Y343642D02*
X597992Y343640D01*
X598098Y343634D01*
X598204Y343624D01*
X598310Y343611D01*
X598416Y343593D01*
X598520Y343572D01*
X598624Y343547D01*
X598727Y343518D01*
X598828Y343486D01*
X598928Y343449D01*
X599027Y343409D01*
X599125Y343366D01*
X599221Y343319D01*
X599315Y343268D01*
X599407Y343214D01*
X599497Y343157D01*
X599585Y343097D01*
X599670Y343033D01*
X599753Y342966D01*
X599834Y342896D01*
X599912Y342824D01*
X599988Y342748D01*
X600060Y342670D01*
X600130Y342589D01*
X600197Y342506D01*
X600261Y342421D01*
X600321Y342333D01*
X600378Y342243D01*
X600432Y342151D01*
X600483Y342057D01*
X600530Y341961D01*
X600573Y341863D01*
X600613Y341764D01*
X600650Y341664D01*
X600682Y341563D01*
X600711Y341460D01*
X600736Y341356D01*
X600757Y341252D01*
X600775Y341146D01*
X600788Y341040D01*
X600798Y340934D01*
X600804Y340828D01*
X600806Y340721D01*
X597885Y343642D02*
X597764Y343640D01*
X597643Y343634D01*
X597523Y343624D01*
X597402Y343611D01*
X597283Y343593D01*
X597163Y343572D01*
X597045Y343547D01*
X596928Y343518D01*
X596811Y343485D01*
X596696Y343449D01*
X596582Y343408D01*
X596469Y343365D01*
X596357Y343317D01*
X596248Y343266D01*
X596140Y343211D01*
X596033Y343153D01*
X595929Y343092D01*
X595827Y343027D01*
X595727Y342959D01*
X595629Y342888D01*
X595533Y342814D01*
X595440Y342737D01*
X595350Y342656D01*
X595262Y342573D01*
X595177Y342487D01*
X595094Y342398D01*
X595015Y342307D01*
X594938Y342213D01*
X594865Y342117D01*
X594795Y342019D01*
X594728Y341918D01*
X594664Y341815D01*
X594604Y341710D01*
X594547Y341603D01*
X594493Y341495D01*
X594443Y341385D01*
X594397Y341273D01*
X594354Y341160D01*
X594315Y341045D01*
X599833Y338449D02*
X599912Y338526D01*
X599988Y338607D01*
X600061Y338690D01*
X600131Y338775D01*
X600198Y338863D01*
X600262Y338953D01*
X600322Y339045D01*
X600379Y339140D01*
X600433Y339236D01*
X600484Y339334D01*
X600531Y339434D01*
X600575Y339536D01*
X600615Y339639D01*
X600651Y339743D01*
X600683Y339849D01*
X600712Y339955D01*
X600737Y340063D01*
X600759Y340171D01*
X600776Y340281D01*
X600790Y340390D01*
X600799Y340500D01*
X600805Y340611D01*
X600807Y340721D01*
X599833Y338449D02*
X594315Y331958D01*
X600806Y331958D01*
D12*
X486800Y436650D02*
X454800Y436650D01*
X486800Y436650D02*
X486800Y350150D01*
X454800Y350150D01*
X454800Y436650D01*
X451300Y438250D02*
X436050Y438250D01*
D10*
X456492Y343642D02*
X456492Y331958D01*
X455194Y331958D02*
X457790Y331958D01*
X457790Y343642D02*
X455194Y343642D01*
X464954Y331958D02*
X467550Y331958D01*
X464954Y331958D02*
X464855Y331960D01*
X464755Y331966D01*
X464656Y331975D01*
X464558Y331988D01*
X464460Y332005D01*
X464362Y332026D01*
X464266Y332051D01*
X464171Y332079D01*
X464077Y332111D01*
X463984Y332146D01*
X463892Y332185D01*
X463802Y332228D01*
X463714Y332273D01*
X463627Y332323D01*
X463543Y332375D01*
X463460Y332431D01*
X463380Y332489D01*
X463302Y332551D01*
X463227Y332616D01*
X463154Y332684D01*
X463084Y332754D01*
X463016Y332827D01*
X462951Y332902D01*
X462889Y332980D01*
X462831Y333060D01*
X462775Y333143D01*
X462723Y333227D01*
X462673Y333314D01*
X462628Y333402D01*
X462585Y333492D01*
X462546Y333584D01*
X462511Y333677D01*
X462479Y333771D01*
X462451Y333866D01*
X462426Y333962D01*
X462405Y334060D01*
X462388Y334158D01*
X462375Y334256D01*
X462366Y334355D01*
X462360Y334455D01*
X462358Y334554D01*
X462357Y334554D02*
X462357Y341046D01*
X462358Y341046D02*
X462360Y341145D01*
X462366Y341245D01*
X462375Y341344D01*
X462388Y341442D01*
X462405Y341540D01*
X462426Y341638D01*
X462451Y341734D01*
X462479Y341829D01*
X462511Y341923D01*
X462546Y342016D01*
X462585Y342108D01*
X462628Y342198D01*
X462673Y342286D01*
X462723Y342373D01*
X462775Y342457D01*
X462831Y342540D01*
X462889Y342620D01*
X462951Y342698D01*
X463016Y342773D01*
X463084Y342846D01*
X463154Y342916D01*
X463227Y342984D01*
X463302Y343049D01*
X463380Y343111D01*
X463460Y343169D01*
X463543Y343225D01*
X463627Y343277D01*
X463714Y343327D01*
X463802Y343372D01*
X463892Y343415D01*
X463984Y343454D01*
X464076Y343489D01*
X464171Y343521D01*
X464266Y343549D01*
X464362Y343574D01*
X464460Y343595D01*
X464558Y343612D01*
X464656Y343625D01*
X464755Y343634D01*
X464855Y343640D01*
X464954Y343642D01*
X467550Y343642D01*
X471915Y331958D02*
X475161Y331958D01*
X475274Y331960D01*
X475387Y331966D01*
X475500Y331976D01*
X475613Y331990D01*
X475725Y332007D01*
X475836Y332029D01*
X475946Y332054D01*
X476056Y332084D01*
X476164Y332117D01*
X476271Y332154D01*
X476377Y332194D01*
X476481Y332239D01*
X476584Y332287D01*
X476685Y332338D01*
X476784Y332393D01*
X476881Y332451D01*
X476976Y332513D01*
X477069Y332578D01*
X477159Y332646D01*
X477247Y332717D01*
X477333Y332792D01*
X477416Y332869D01*
X477496Y332949D01*
X477573Y333032D01*
X477648Y333118D01*
X477719Y333206D01*
X477787Y333296D01*
X477852Y333389D01*
X477914Y333484D01*
X477972Y333581D01*
X478027Y333680D01*
X478078Y333781D01*
X478126Y333884D01*
X478171Y333988D01*
X478211Y334094D01*
X478248Y334201D01*
X478281Y334309D01*
X478311Y334419D01*
X478336Y334529D01*
X478358Y334640D01*
X478375Y334752D01*
X478389Y334865D01*
X478399Y334978D01*
X478405Y335091D01*
X478407Y335204D01*
X478405Y335317D01*
X478399Y335430D01*
X478389Y335543D01*
X478375Y335656D01*
X478358Y335768D01*
X478336Y335879D01*
X478311Y335989D01*
X478281Y336099D01*
X478248Y336207D01*
X478211Y336314D01*
X478171Y336420D01*
X478126Y336524D01*
X478078Y336627D01*
X478027Y336728D01*
X477972Y336827D01*
X477914Y336924D01*
X477852Y337019D01*
X477787Y337112D01*
X477719Y337202D01*
X477648Y337290D01*
X477573Y337376D01*
X477496Y337459D01*
X477416Y337539D01*
X477333Y337616D01*
X477247Y337691D01*
X477159Y337762D01*
X477069Y337830D01*
X476976Y337895D01*
X476881Y337957D01*
X476784Y338015D01*
X476685Y338070D01*
X476584Y338121D01*
X476481Y338169D01*
X476377Y338214D01*
X476271Y338254D01*
X476164Y338291D01*
X476056Y338324D01*
X475946Y338354D01*
X475836Y338379D01*
X475725Y338401D01*
X475613Y338418D01*
X475500Y338432D01*
X475387Y338442D01*
X475274Y338448D01*
X475161Y338450D01*
X475810Y343642D02*
X471915Y343642D01*
X475810Y343642D02*
X475911Y343640D01*
X476011Y343634D01*
X476111Y343624D01*
X476211Y343611D01*
X476310Y343593D01*
X476409Y343572D01*
X476506Y343547D01*
X476603Y343518D01*
X476698Y343485D01*
X476792Y343449D01*
X476884Y343409D01*
X476975Y343366D01*
X477064Y343319D01*
X477151Y343269D01*
X477237Y343215D01*
X477320Y343158D01*
X477400Y343098D01*
X477479Y343035D01*
X477555Y342968D01*
X477628Y342899D01*
X477698Y342827D01*
X477766Y342753D01*
X477831Y342676D01*
X477892Y342596D01*
X477951Y342514D01*
X478006Y342430D01*
X478058Y342344D01*
X478107Y342256D01*
X478152Y342166D01*
X478194Y342074D01*
X478232Y341981D01*
X478266Y341886D01*
X478297Y341791D01*
X478324Y341694D01*
X478347Y341596D01*
X478367Y341497D01*
X478382Y341397D01*
X478394Y341297D01*
X478402Y341197D01*
X478406Y341096D01*
X478406Y340996D01*
X478402Y340895D01*
X478394Y340795D01*
X478382Y340695D01*
X478367Y340595D01*
X478347Y340496D01*
X478324Y340398D01*
X478297Y340301D01*
X478266Y340206D01*
X478232Y340111D01*
X478194Y340018D01*
X478152Y339926D01*
X478107Y339836D01*
X478058Y339748D01*
X478006Y339662D01*
X477951Y339578D01*
X477892Y339496D01*
X477831Y339416D01*
X477766Y339339D01*
X477698Y339265D01*
X477628Y339193D01*
X477555Y339124D01*
X477479Y339057D01*
X477400Y338994D01*
X477320Y338934D01*
X477237Y338877D01*
X477151Y338823D01*
X477064Y338773D01*
X476975Y338726D01*
X476884Y338683D01*
X476792Y338643D01*
X476698Y338607D01*
X476603Y338574D01*
X476506Y338545D01*
X476409Y338520D01*
X476310Y338499D01*
X476211Y338481D01*
X476111Y338468D01*
X476011Y338458D01*
X475911Y338452D01*
X475810Y338450D01*
X475810Y338449D02*
X473214Y338449D01*
D11*
X216720Y537800D02*
X209100Y545420D01*
X209100Y580980D01*
X216720Y588600D01*
X229420Y588600D01*
X234500Y583520D01*
X239580Y588600D01*
X254820Y588600D01*
X259900Y583520D01*
X264980Y588600D01*
X277680Y588600D01*
X285300Y580980D01*
X285300Y545420D01*
X277680Y537800D01*
X264980Y537800D01*
X259900Y542880D01*
X254820Y537800D01*
X239580Y537800D01*
X234500Y542880D01*
X229420Y537800D01*
X216720Y537800D01*
D13*
X203949Y533101D02*
X201861Y535712D01*
X211259Y535712D01*
X211259Y538322D02*
X211259Y533101D01*
D10*
X230685Y594528D02*
X230685Y606212D01*
X229386Y594528D02*
X231983Y594528D01*
X231983Y606212D02*
X229386Y606212D01*
X240097Y594528D02*
X240196Y594530D01*
X240296Y594536D01*
X240395Y594545D01*
X240493Y594558D01*
X240591Y594575D01*
X240689Y594596D01*
X240785Y594621D01*
X240880Y594649D01*
X240974Y594681D01*
X241067Y594716D01*
X241159Y594755D01*
X241249Y594798D01*
X241337Y594843D01*
X241424Y594893D01*
X241508Y594945D01*
X241591Y595001D01*
X241671Y595059D01*
X241749Y595121D01*
X241824Y595186D01*
X241897Y595254D01*
X241967Y595324D01*
X242035Y595397D01*
X242100Y595472D01*
X242162Y595550D01*
X242220Y595630D01*
X242276Y595713D01*
X242328Y595797D01*
X242378Y595884D01*
X242423Y595972D01*
X242466Y596062D01*
X242505Y596154D01*
X242540Y596247D01*
X242572Y596341D01*
X242600Y596436D01*
X242625Y596532D01*
X242646Y596630D01*
X242663Y596728D01*
X242676Y596826D01*
X242685Y596925D01*
X242691Y597025D01*
X242693Y597124D01*
X240097Y594528D02*
X239953Y594530D01*
X239808Y594536D01*
X239664Y594545D01*
X239521Y594558D01*
X239377Y594575D01*
X239234Y594596D01*
X239092Y594621D01*
X238951Y594649D01*
X238810Y594681D01*
X238670Y594717D01*
X238531Y594756D01*
X238393Y594799D01*
X238257Y594846D01*
X238121Y594896D01*
X237987Y594950D01*
X237855Y595007D01*
X237724Y595068D01*
X237595Y595132D01*
X237467Y595200D01*
X237341Y595270D01*
X237217Y595345D01*
X237096Y595422D01*
X236976Y595503D01*
X236858Y595586D01*
X236743Y595673D01*
X236630Y595763D01*
X236519Y595856D01*
X236411Y595951D01*
X236305Y596050D01*
X236202Y596151D01*
X236527Y603616D02*
X236529Y603715D01*
X236535Y603815D01*
X236544Y603914D01*
X236557Y604012D01*
X236574Y604110D01*
X236595Y604208D01*
X236620Y604304D01*
X236648Y604399D01*
X236680Y604493D01*
X236715Y604586D01*
X236754Y604678D01*
X236797Y604768D01*
X236842Y604856D01*
X236892Y604943D01*
X236944Y605027D01*
X237000Y605110D01*
X237058Y605190D01*
X237120Y605268D01*
X237185Y605343D01*
X237253Y605416D01*
X237323Y605486D01*
X237396Y605554D01*
X237471Y605619D01*
X237549Y605681D01*
X237629Y605739D01*
X237712Y605795D01*
X237796Y605847D01*
X237883Y605897D01*
X237971Y605942D01*
X238061Y605985D01*
X238153Y606024D01*
X238246Y606059D01*
X238340Y606091D01*
X238435Y606119D01*
X238532Y606144D01*
X238629Y606165D01*
X238727Y606182D01*
X238825Y606195D01*
X238924Y606204D01*
X239024Y606210D01*
X239123Y606212D01*
X239259Y606210D01*
X239395Y606204D01*
X239531Y606195D01*
X239667Y606182D01*
X239802Y606164D01*
X239936Y606144D01*
X240070Y606119D01*
X240204Y606091D01*
X240336Y606058D01*
X240467Y606023D01*
X240598Y605983D01*
X240727Y605940D01*
X240855Y605894D01*
X240981Y605843D01*
X241107Y605790D01*
X241230Y605732D01*
X241352Y605672D01*
X241472Y605608D01*
X241591Y605540D01*
X241707Y605470D01*
X241821Y605396D01*
X241934Y605319D01*
X242044Y605238D01*
X237824Y601344D02*
X237738Y601397D01*
X237654Y601454D01*
X237572Y601513D01*
X237492Y601576D01*
X237415Y601642D01*
X237340Y601710D01*
X237268Y601782D01*
X237199Y601856D01*
X237133Y601933D01*
X237070Y602012D01*
X237010Y602094D01*
X236953Y602178D01*
X236899Y602264D01*
X236849Y602352D01*
X236802Y602442D01*
X236758Y602533D01*
X236719Y602627D01*
X236682Y602721D01*
X236650Y602817D01*
X236621Y602915D01*
X236596Y603013D01*
X236575Y603112D01*
X236557Y603212D01*
X236544Y603312D01*
X236534Y603413D01*
X236528Y603515D01*
X236526Y603616D01*
X241395Y599396D02*
X241481Y599343D01*
X241565Y599286D01*
X241647Y599227D01*
X241727Y599164D01*
X241804Y599098D01*
X241879Y599030D01*
X241951Y598958D01*
X242020Y598884D01*
X242086Y598807D01*
X242149Y598728D01*
X242209Y598646D01*
X242266Y598562D01*
X242320Y598476D01*
X242370Y598388D01*
X242417Y598298D01*
X242461Y598207D01*
X242500Y598113D01*
X242537Y598019D01*
X242569Y597923D01*
X242598Y597825D01*
X242623Y597727D01*
X242644Y597628D01*
X242662Y597528D01*
X242675Y597428D01*
X242685Y597327D01*
X242691Y597225D01*
X242693Y597124D01*
X241395Y599396D02*
X237825Y601344D01*
X247801Y606212D02*
X247801Y594528D01*
X247801Y606212D02*
X251047Y606212D01*
X251160Y606210D01*
X251273Y606204D01*
X251386Y606194D01*
X251499Y606180D01*
X251611Y606163D01*
X251722Y606141D01*
X251832Y606116D01*
X251942Y606086D01*
X252050Y606053D01*
X252157Y606016D01*
X252263Y605976D01*
X252367Y605931D01*
X252470Y605883D01*
X252571Y605832D01*
X252670Y605777D01*
X252767Y605719D01*
X252862Y605657D01*
X252955Y605592D01*
X253045Y605524D01*
X253133Y605453D01*
X253219Y605378D01*
X253302Y605301D01*
X253382Y605221D01*
X253459Y605138D01*
X253534Y605052D01*
X253605Y604964D01*
X253673Y604874D01*
X253738Y604781D01*
X253800Y604686D01*
X253858Y604589D01*
X253913Y604490D01*
X253964Y604389D01*
X254012Y604286D01*
X254057Y604182D01*
X254097Y604076D01*
X254134Y603969D01*
X254167Y603861D01*
X254197Y603751D01*
X254222Y603641D01*
X254244Y603530D01*
X254261Y603418D01*
X254275Y603305D01*
X254285Y603192D01*
X254291Y603079D01*
X254293Y602966D01*
X254291Y602853D01*
X254285Y602740D01*
X254275Y602627D01*
X254261Y602514D01*
X254244Y602402D01*
X254222Y602291D01*
X254197Y602181D01*
X254167Y602071D01*
X254134Y601963D01*
X254097Y601856D01*
X254057Y601750D01*
X254012Y601646D01*
X253964Y601543D01*
X253913Y601442D01*
X253858Y601343D01*
X253800Y601246D01*
X253738Y601151D01*
X253673Y601058D01*
X253605Y600968D01*
X253534Y600880D01*
X253459Y600794D01*
X253382Y600711D01*
X253302Y600631D01*
X253219Y600554D01*
X253133Y600479D01*
X253045Y600408D01*
X252955Y600340D01*
X252862Y600275D01*
X252767Y600213D01*
X252670Y600155D01*
X252571Y600100D01*
X252470Y600049D01*
X252367Y600001D01*
X252263Y599956D01*
X252157Y599916D01*
X252050Y599879D01*
X251942Y599846D01*
X251832Y599816D01*
X251722Y599791D01*
X251611Y599769D01*
X251499Y599752D01*
X251386Y599738D01*
X251273Y599728D01*
X251160Y599722D01*
X251047Y599720D01*
X251047Y599721D02*
X247801Y599721D01*
X258681Y603616D02*
X261926Y606212D01*
X261926Y594528D01*
X258681Y594528D02*
X265172Y594528D01*
D11*
X431500Y326100D02*
X431500Y267100D01*
X431500Y256100D01*
X711500Y256100D01*
X711500Y267100D01*
X711500Y326100D01*
X431500Y326100D01*
X431500Y267100D02*
X711500Y267100D01*
D10*
X721998Y281404D02*
X721998Y290492D01*
X721997Y281404D02*
X721995Y281305D01*
X721989Y281205D01*
X721980Y281106D01*
X721967Y281008D01*
X721950Y280910D01*
X721929Y280812D01*
X721904Y280716D01*
X721876Y280621D01*
X721844Y280527D01*
X721809Y280434D01*
X721770Y280342D01*
X721727Y280252D01*
X721682Y280164D01*
X721632Y280077D01*
X721580Y279993D01*
X721524Y279910D01*
X721466Y279830D01*
X721404Y279752D01*
X721339Y279677D01*
X721271Y279604D01*
X721201Y279534D01*
X721128Y279466D01*
X721053Y279401D01*
X720975Y279339D01*
X720895Y279281D01*
X720812Y279225D01*
X720728Y279173D01*
X720641Y279123D01*
X720553Y279078D01*
X720463Y279035D01*
X720371Y278996D01*
X720278Y278961D01*
X720184Y278929D01*
X720089Y278901D01*
X719993Y278876D01*
X719895Y278855D01*
X719797Y278838D01*
X719699Y278825D01*
X719600Y278816D01*
X719500Y278810D01*
X719401Y278808D01*
X718103Y278808D01*
X727821Y278808D02*
X727821Y290492D01*
X731067Y290492D01*
X731180Y290490D01*
X731293Y290484D01*
X731406Y290474D01*
X731519Y290460D01*
X731631Y290443D01*
X731742Y290421D01*
X731852Y290396D01*
X731962Y290366D01*
X732070Y290333D01*
X732177Y290296D01*
X732283Y290256D01*
X732387Y290211D01*
X732490Y290163D01*
X732591Y290112D01*
X732690Y290057D01*
X732787Y289999D01*
X732882Y289937D01*
X732975Y289872D01*
X733065Y289804D01*
X733153Y289733D01*
X733239Y289658D01*
X733322Y289581D01*
X733402Y289501D01*
X733479Y289418D01*
X733554Y289332D01*
X733625Y289244D01*
X733693Y289154D01*
X733758Y289061D01*
X733820Y288966D01*
X733878Y288869D01*
X733933Y288770D01*
X733984Y288669D01*
X734032Y288566D01*
X734077Y288462D01*
X734117Y288356D01*
X734154Y288249D01*
X734187Y288141D01*
X734217Y288031D01*
X734242Y287921D01*
X734264Y287810D01*
X734281Y287698D01*
X734295Y287585D01*
X734305Y287472D01*
X734311Y287359D01*
X734313Y287246D01*
X734311Y287133D01*
X734305Y287020D01*
X734295Y286907D01*
X734281Y286794D01*
X734264Y286682D01*
X734242Y286571D01*
X734217Y286461D01*
X734187Y286351D01*
X734154Y286243D01*
X734117Y286136D01*
X734077Y286030D01*
X734032Y285926D01*
X733984Y285823D01*
X733933Y285722D01*
X733878Y285623D01*
X733820Y285526D01*
X733758Y285431D01*
X733693Y285338D01*
X733625Y285248D01*
X733554Y285160D01*
X733479Y285074D01*
X733402Y284991D01*
X733322Y284911D01*
X733239Y284834D01*
X733153Y284759D01*
X733065Y284688D01*
X732975Y284620D01*
X732882Y284555D01*
X732787Y284493D01*
X732690Y284435D01*
X732591Y284380D01*
X732490Y284329D01*
X732387Y284281D01*
X732283Y284236D01*
X732177Y284196D01*
X732070Y284159D01*
X731962Y284126D01*
X731852Y284096D01*
X731742Y284071D01*
X731631Y284049D01*
X731519Y284032D01*
X731406Y284018D01*
X731293Y284008D01*
X731180Y284002D01*
X731067Y284000D01*
X731067Y284001D02*
X727821Y284001D01*
X738701Y287896D02*
X741946Y290492D01*
X741946Y278808D01*
X738701Y278808D02*
X745192Y278808D01*
D14*
X23600Y591200D03*
X35600Y591200D03*
D15*
X29600Y591200D03*
D10*
X16392Y577508D02*
X4708Y577508D01*
X16392Y577508D02*
X16392Y582701D01*
X16392Y587414D02*
X16392Y592607D01*
X16392Y587414D02*
X4708Y587414D01*
X4708Y592607D01*
X9901Y591309D02*
X9901Y587414D01*
X4708Y597297D02*
X16392Y597297D01*
X4708Y597297D02*
X4708Y600543D01*
X4710Y600656D01*
X4716Y600769D01*
X4726Y600882D01*
X4740Y600995D01*
X4757Y601107D01*
X4779Y601218D01*
X4804Y601328D01*
X4834Y601438D01*
X4867Y601546D01*
X4904Y601653D01*
X4944Y601759D01*
X4989Y601863D01*
X5037Y601966D01*
X5088Y602067D01*
X5143Y602166D01*
X5201Y602263D01*
X5263Y602358D01*
X5328Y602451D01*
X5396Y602541D01*
X5467Y602629D01*
X5542Y602715D01*
X5619Y602798D01*
X5699Y602878D01*
X5782Y602955D01*
X5868Y603030D01*
X5956Y603101D01*
X6046Y603169D01*
X6139Y603234D01*
X6234Y603296D01*
X6331Y603354D01*
X6430Y603409D01*
X6531Y603460D01*
X6634Y603508D01*
X6738Y603553D01*
X6844Y603593D01*
X6951Y603630D01*
X7059Y603663D01*
X7169Y603693D01*
X7279Y603718D01*
X7390Y603740D01*
X7502Y603757D01*
X7615Y603771D01*
X7728Y603781D01*
X7841Y603787D01*
X7954Y603789D01*
X13146Y603789D01*
X13259Y603787D01*
X13372Y603781D01*
X13485Y603771D01*
X13598Y603757D01*
X13710Y603740D01*
X13821Y603718D01*
X13931Y603693D01*
X14041Y603663D01*
X14149Y603630D01*
X14256Y603593D01*
X14362Y603553D01*
X14466Y603508D01*
X14569Y603460D01*
X14670Y603409D01*
X14769Y603354D01*
X14866Y603296D01*
X14961Y603234D01*
X15054Y603169D01*
X15144Y603101D01*
X15232Y603030D01*
X15318Y602955D01*
X15401Y602878D01*
X15481Y602798D01*
X15558Y602715D01*
X15633Y602629D01*
X15704Y602541D01*
X15772Y602451D01*
X15837Y602358D01*
X15899Y602263D01*
X15957Y602166D01*
X16012Y602067D01*
X16063Y601966D01*
X16111Y601863D01*
X16156Y601759D01*
X16196Y601653D01*
X16233Y601546D01*
X16266Y601438D01*
X16296Y601328D01*
X16321Y601218D01*
X16343Y601107D01*
X16360Y600995D01*
X16374Y600882D01*
X16384Y600769D01*
X16390Y600656D01*
X16392Y600543D01*
X16392Y597297D01*
X7304Y609108D02*
X4708Y612354D01*
X16392Y612354D01*
X16392Y615599D02*
X16392Y609108D01*
D14*
X42800Y590700D03*
X54800Y590700D03*
D15*
X48800Y590700D03*
D10*
X57908Y578008D02*
X69592Y578008D01*
X69592Y583201D01*
X69592Y587914D02*
X69592Y593107D01*
X69592Y587914D02*
X57908Y587914D01*
X57908Y593107D01*
X63101Y591809D02*
X63101Y587914D01*
X57908Y597797D02*
X69592Y597797D01*
X57908Y597797D02*
X57908Y601043D01*
X57910Y601156D01*
X57916Y601269D01*
X57926Y601382D01*
X57940Y601495D01*
X57957Y601607D01*
X57979Y601718D01*
X58004Y601828D01*
X58034Y601938D01*
X58067Y602046D01*
X58104Y602153D01*
X58144Y602259D01*
X58189Y602363D01*
X58237Y602466D01*
X58288Y602567D01*
X58343Y602666D01*
X58401Y602763D01*
X58463Y602858D01*
X58528Y602951D01*
X58596Y603041D01*
X58667Y603129D01*
X58742Y603215D01*
X58819Y603298D01*
X58899Y603378D01*
X58982Y603455D01*
X59068Y603530D01*
X59156Y603601D01*
X59246Y603669D01*
X59339Y603734D01*
X59434Y603796D01*
X59531Y603854D01*
X59630Y603909D01*
X59731Y603960D01*
X59834Y604008D01*
X59938Y604053D01*
X60044Y604093D01*
X60151Y604130D01*
X60259Y604163D01*
X60369Y604193D01*
X60479Y604218D01*
X60590Y604240D01*
X60702Y604257D01*
X60815Y604271D01*
X60928Y604281D01*
X61041Y604287D01*
X61154Y604289D01*
X66346Y604289D01*
X66459Y604287D01*
X66572Y604281D01*
X66685Y604271D01*
X66798Y604257D01*
X66910Y604240D01*
X67021Y604218D01*
X67131Y604193D01*
X67241Y604163D01*
X67349Y604130D01*
X67456Y604093D01*
X67562Y604053D01*
X67666Y604008D01*
X67769Y603960D01*
X67870Y603909D01*
X67969Y603854D01*
X68066Y603796D01*
X68161Y603734D01*
X68254Y603669D01*
X68344Y603601D01*
X68432Y603530D01*
X68518Y603455D01*
X68601Y603378D01*
X68681Y603298D01*
X68758Y603215D01*
X68833Y603129D01*
X68904Y603041D01*
X68972Y602951D01*
X69037Y602858D01*
X69099Y602763D01*
X69157Y602666D01*
X69212Y602567D01*
X69263Y602466D01*
X69311Y602363D01*
X69356Y602259D01*
X69396Y602153D01*
X69433Y602046D01*
X69466Y601938D01*
X69496Y601828D01*
X69521Y601718D01*
X69543Y601607D01*
X69560Y601495D01*
X69574Y601382D01*
X69584Y601269D01*
X69590Y601156D01*
X69592Y601043D01*
X69592Y597797D01*
X57908Y613178D02*
X57910Y613285D01*
X57916Y613391D01*
X57926Y613497D01*
X57939Y613603D01*
X57957Y613709D01*
X57978Y613813D01*
X58003Y613917D01*
X58032Y614020D01*
X58064Y614121D01*
X58101Y614221D01*
X58141Y614320D01*
X58184Y614418D01*
X58231Y614514D01*
X58282Y614608D01*
X58336Y614700D01*
X58393Y614790D01*
X58453Y614878D01*
X58517Y614963D01*
X58584Y615046D01*
X58654Y615127D01*
X58726Y615205D01*
X58802Y615281D01*
X58880Y615353D01*
X58961Y615423D01*
X59044Y615490D01*
X59129Y615554D01*
X59217Y615614D01*
X59307Y615671D01*
X59399Y615725D01*
X59493Y615776D01*
X59589Y615823D01*
X59687Y615866D01*
X59786Y615906D01*
X59886Y615943D01*
X59987Y615975D01*
X60090Y616004D01*
X60194Y616029D01*
X60298Y616050D01*
X60404Y616068D01*
X60510Y616081D01*
X60616Y616091D01*
X60722Y616097D01*
X60829Y616099D01*
X57908Y613178D02*
X57910Y613057D01*
X57916Y612936D01*
X57926Y612816D01*
X57939Y612695D01*
X57957Y612576D01*
X57978Y612456D01*
X58003Y612338D01*
X58032Y612221D01*
X58065Y612104D01*
X58101Y611989D01*
X58142Y611875D01*
X58185Y611762D01*
X58233Y611650D01*
X58284Y611541D01*
X58339Y611433D01*
X58397Y611326D01*
X58458Y611222D01*
X58523Y611120D01*
X58591Y611020D01*
X58662Y610922D01*
X58736Y610826D01*
X58813Y610733D01*
X58894Y610643D01*
X58977Y610555D01*
X59063Y610470D01*
X59152Y610387D01*
X59243Y610308D01*
X59337Y610231D01*
X59433Y610158D01*
X59531Y610088D01*
X59632Y610021D01*
X59735Y609957D01*
X59840Y609897D01*
X59947Y609839D01*
X60055Y609786D01*
X60165Y609736D01*
X60277Y609690D01*
X60390Y609647D01*
X60505Y609608D01*
X63101Y615125D02*
X63023Y615204D01*
X62943Y615280D01*
X62860Y615353D01*
X62774Y615423D01*
X62687Y615490D01*
X62596Y615554D01*
X62504Y615614D01*
X62410Y615672D01*
X62313Y615726D01*
X62215Y615776D01*
X62115Y615823D01*
X62014Y615867D01*
X61911Y615907D01*
X61806Y615943D01*
X61701Y615975D01*
X61594Y616004D01*
X61487Y616029D01*
X61378Y616051D01*
X61269Y616068D01*
X61160Y616082D01*
X61050Y616091D01*
X60939Y616097D01*
X60829Y616099D01*
X63101Y615126D02*
X69592Y609608D01*
X69592Y616099D01*
D14*
X90000Y590700D03*
X102000Y590700D03*
D15*
X96000Y590700D03*
D10*
X105108Y576008D02*
X116792Y576008D01*
X116792Y581201D01*
X116792Y585914D02*
X116792Y591107D01*
X116792Y585914D02*
X105108Y585914D01*
X105108Y591107D01*
X110301Y589809D02*
X110301Y585914D01*
X105108Y595797D02*
X116792Y595797D01*
X105108Y595797D02*
X105108Y599043D01*
X105110Y599156D01*
X105116Y599269D01*
X105126Y599382D01*
X105140Y599495D01*
X105157Y599607D01*
X105179Y599718D01*
X105204Y599828D01*
X105234Y599938D01*
X105267Y600046D01*
X105304Y600153D01*
X105344Y600259D01*
X105389Y600363D01*
X105437Y600466D01*
X105488Y600567D01*
X105543Y600666D01*
X105601Y600763D01*
X105663Y600858D01*
X105728Y600951D01*
X105796Y601041D01*
X105867Y601129D01*
X105942Y601215D01*
X106019Y601298D01*
X106099Y601378D01*
X106182Y601455D01*
X106268Y601530D01*
X106356Y601601D01*
X106446Y601669D01*
X106539Y601734D01*
X106634Y601796D01*
X106731Y601854D01*
X106830Y601909D01*
X106931Y601960D01*
X107034Y602008D01*
X107138Y602053D01*
X107244Y602093D01*
X107351Y602130D01*
X107459Y602163D01*
X107569Y602193D01*
X107679Y602218D01*
X107790Y602240D01*
X107902Y602257D01*
X108015Y602271D01*
X108128Y602281D01*
X108241Y602287D01*
X108354Y602289D01*
X113546Y602289D01*
X113659Y602287D01*
X113772Y602281D01*
X113885Y602271D01*
X113998Y602257D01*
X114110Y602240D01*
X114221Y602218D01*
X114331Y602193D01*
X114441Y602163D01*
X114549Y602130D01*
X114656Y602093D01*
X114762Y602053D01*
X114866Y602008D01*
X114969Y601960D01*
X115070Y601909D01*
X115169Y601854D01*
X115266Y601796D01*
X115361Y601734D01*
X115454Y601669D01*
X115544Y601601D01*
X115632Y601530D01*
X115718Y601455D01*
X115801Y601378D01*
X115881Y601298D01*
X115958Y601215D01*
X116033Y601129D01*
X116104Y601041D01*
X116172Y600951D01*
X116237Y600858D01*
X116299Y600763D01*
X116357Y600666D01*
X116412Y600567D01*
X116463Y600466D01*
X116511Y600363D01*
X116556Y600259D01*
X116596Y600153D01*
X116633Y600046D01*
X116666Y599938D01*
X116696Y599828D01*
X116721Y599718D01*
X116743Y599607D01*
X116760Y599495D01*
X116774Y599382D01*
X116784Y599269D01*
X116790Y599156D01*
X116792Y599043D01*
X116792Y595797D01*
X116792Y607608D02*
X116792Y610854D01*
X116790Y610967D01*
X116784Y611080D01*
X116774Y611193D01*
X116760Y611306D01*
X116743Y611418D01*
X116721Y611529D01*
X116696Y611639D01*
X116666Y611749D01*
X116633Y611857D01*
X116596Y611964D01*
X116556Y612070D01*
X116511Y612174D01*
X116463Y612277D01*
X116412Y612378D01*
X116357Y612477D01*
X116299Y612574D01*
X116237Y612669D01*
X116172Y612762D01*
X116104Y612852D01*
X116033Y612940D01*
X115958Y613026D01*
X115881Y613109D01*
X115801Y613189D01*
X115718Y613266D01*
X115632Y613341D01*
X115544Y613412D01*
X115454Y613480D01*
X115361Y613545D01*
X115266Y613607D01*
X115169Y613665D01*
X115070Y613720D01*
X114969Y613771D01*
X114866Y613819D01*
X114762Y613864D01*
X114656Y613904D01*
X114549Y613941D01*
X114441Y613974D01*
X114331Y614004D01*
X114221Y614029D01*
X114110Y614051D01*
X113998Y614068D01*
X113885Y614082D01*
X113772Y614092D01*
X113659Y614098D01*
X113546Y614100D01*
X113433Y614098D01*
X113320Y614092D01*
X113207Y614082D01*
X113094Y614068D01*
X112982Y614051D01*
X112871Y614029D01*
X112761Y614004D01*
X112651Y613974D01*
X112543Y613941D01*
X112436Y613904D01*
X112330Y613864D01*
X112226Y613819D01*
X112123Y613771D01*
X112022Y613720D01*
X111923Y613665D01*
X111826Y613607D01*
X111731Y613545D01*
X111638Y613480D01*
X111548Y613412D01*
X111460Y613341D01*
X111374Y613266D01*
X111291Y613189D01*
X111211Y613109D01*
X111134Y613026D01*
X111059Y612940D01*
X110988Y612852D01*
X110920Y612762D01*
X110855Y612669D01*
X110793Y612574D01*
X110735Y612477D01*
X110680Y612378D01*
X110629Y612277D01*
X110581Y612174D01*
X110536Y612070D01*
X110496Y611964D01*
X110459Y611857D01*
X110426Y611749D01*
X110396Y611639D01*
X110371Y611529D01*
X110349Y611418D01*
X110332Y611306D01*
X110318Y611193D01*
X110308Y611080D01*
X110302Y610967D01*
X110300Y610854D01*
X105108Y611503D02*
X105108Y607608D01*
X105108Y611503D02*
X105110Y611604D01*
X105116Y611704D01*
X105126Y611804D01*
X105139Y611904D01*
X105157Y612003D01*
X105178Y612102D01*
X105203Y612199D01*
X105232Y612296D01*
X105265Y612391D01*
X105301Y612485D01*
X105341Y612577D01*
X105384Y612668D01*
X105431Y612757D01*
X105481Y612844D01*
X105535Y612930D01*
X105592Y613013D01*
X105652Y613093D01*
X105715Y613172D01*
X105782Y613248D01*
X105851Y613321D01*
X105923Y613391D01*
X105997Y613459D01*
X106074Y613524D01*
X106154Y613585D01*
X106236Y613644D01*
X106320Y613699D01*
X106406Y613751D01*
X106494Y613800D01*
X106584Y613845D01*
X106676Y613887D01*
X106769Y613925D01*
X106864Y613959D01*
X106959Y613990D01*
X107056Y614017D01*
X107154Y614040D01*
X107253Y614060D01*
X107353Y614075D01*
X107453Y614087D01*
X107553Y614095D01*
X107654Y614099D01*
X107754Y614099D01*
X107855Y614095D01*
X107955Y614087D01*
X108055Y614075D01*
X108155Y614060D01*
X108254Y614040D01*
X108352Y614017D01*
X108449Y613990D01*
X108544Y613959D01*
X108639Y613925D01*
X108732Y613887D01*
X108824Y613845D01*
X108914Y613800D01*
X109002Y613751D01*
X109088Y613699D01*
X109172Y613644D01*
X109254Y613585D01*
X109334Y613524D01*
X109411Y613459D01*
X109485Y613391D01*
X109557Y613321D01*
X109626Y613248D01*
X109693Y613172D01*
X109756Y613093D01*
X109816Y613013D01*
X109873Y612930D01*
X109927Y612844D01*
X109977Y612757D01*
X110024Y612668D01*
X110067Y612577D01*
X110107Y612485D01*
X110143Y612391D01*
X110176Y612296D01*
X110205Y612199D01*
X110230Y612102D01*
X110251Y612003D01*
X110269Y611904D01*
X110282Y611804D01*
X110292Y611704D01*
X110298Y611604D01*
X110300Y611503D01*
X110301Y611503D02*
X110301Y608907D01*
D14*
X120200Y590700D03*
X132200Y590700D03*
D15*
X126200Y590700D03*
D10*
X136308Y576008D02*
X147992Y576008D01*
X147992Y581201D01*
X147992Y585914D02*
X147992Y591107D01*
X147992Y585914D02*
X136308Y585914D01*
X136308Y591107D01*
X141501Y589809D02*
X141501Y585914D01*
X136308Y595797D02*
X147992Y595797D01*
X136308Y595797D02*
X136308Y599043D01*
X136310Y599156D01*
X136316Y599269D01*
X136326Y599382D01*
X136340Y599495D01*
X136357Y599607D01*
X136379Y599718D01*
X136404Y599828D01*
X136434Y599938D01*
X136467Y600046D01*
X136504Y600153D01*
X136544Y600259D01*
X136589Y600363D01*
X136637Y600466D01*
X136688Y600567D01*
X136743Y600666D01*
X136801Y600763D01*
X136863Y600858D01*
X136928Y600951D01*
X136996Y601041D01*
X137067Y601129D01*
X137142Y601215D01*
X137219Y601298D01*
X137299Y601378D01*
X137382Y601455D01*
X137468Y601530D01*
X137556Y601601D01*
X137646Y601669D01*
X137739Y601734D01*
X137834Y601796D01*
X137931Y601854D01*
X138030Y601909D01*
X138131Y601960D01*
X138234Y602008D01*
X138338Y602053D01*
X138444Y602093D01*
X138551Y602130D01*
X138659Y602163D01*
X138769Y602193D01*
X138879Y602218D01*
X138990Y602240D01*
X139102Y602257D01*
X139215Y602271D01*
X139328Y602281D01*
X139441Y602287D01*
X139554Y602289D01*
X144746Y602289D01*
X144859Y602287D01*
X144972Y602281D01*
X145085Y602271D01*
X145198Y602257D01*
X145310Y602240D01*
X145421Y602218D01*
X145531Y602193D01*
X145641Y602163D01*
X145749Y602130D01*
X145856Y602093D01*
X145962Y602053D01*
X146066Y602008D01*
X146169Y601960D01*
X146270Y601909D01*
X146369Y601854D01*
X146466Y601796D01*
X146561Y601734D01*
X146654Y601669D01*
X146744Y601601D01*
X146832Y601530D01*
X146918Y601455D01*
X147001Y601378D01*
X147081Y601298D01*
X147158Y601215D01*
X147233Y601129D01*
X147304Y601041D01*
X147372Y600951D01*
X147437Y600858D01*
X147499Y600763D01*
X147557Y600666D01*
X147612Y600567D01*
X147663Y600466D01*
X147711Y600363D01*
X147756Y600259D01*
X147796Y600153D01*
X147833Y600046D01*
X147866Y599938D01*
X147896Y599828D01*
X147921Y599718D01*
X147943Y599607D01*
X147960Y599495D01*
X147974Y599382D01*
X147984Y599269D01*
X147990Y599156D01*
X147992Y599043D01*
X147992Y595797D01*
X145396Y607608D02*
X136308Y610205D01*
X145396Y607608D02*
X145396Y614099D01*
X142799Y612152D02*
X147992Y612152D01*
D14*
X152400Y590700D03*
X164400Y590700D03*
D15*
X158400Y590700D03*
D10*
X167508Y577008D02*
X179192Y577008D01*
X179192Y582201D01*
X179192Y586914D02*
X179192Y592107D01*
X179192Y586914D02*
X167508Y586914D01*
X167508Y592107D01*
X172701Y590809D02*
X172701Y586914D01*
X167508Y596797D02*
X179192Y596797D01*
X167508Y596797D02*
X167508Y600043D01*
X167510Y600156D01*
X167516Y600269D01*
X167526Y600382D01*
X167540Y600495D01*
X167557Y600607D01*
X167579Y600718D01*
X167604Y600828D01*
X167634Y600938D01*
X167667Y601046D01*
X167704Y601153D01*
X167744Y601259D01*
X167789Y601363D01*
X167837Y601466D01*
X167888Y601567D01*
X167943Y601666D01*
X168001Y601763D01*
X168063Y601858D01*
X168128Y601951D01*
X168196Y602041D01*
X168267Y602129D01*
X168342Y602215D01*
X168419Y602298D01*
X168499Y602378D01*
X168582Y602455D01*
X168668Y602530D01*
X168756Y602601D01*
X168846Y602669D01*
X168939Y602734D01*
X169034Y602796D01*
X169131Y602854D01*
X169230Y602909D01*
X169331Y602960D01*
X169434Y603008D01*
X169538Y603053D01*
X169644Y603093D01*
X169751Y603130D01*
X169859Y603163D01*
X169969Y603193D01*
X170079Y603218D01*
X170190Y603240D01*
X170302Y603257D01*
X170415Y603271D01*
X170528Y603281D01*
X170641Y603287D01*
X170754Y603289D01*
X175946Y603289D01*
X176059Y603287D01*
X176172Y603281D01*
X176285Y603271D01*
X176398Y603257D01*
X176510Y603240D01*
X176621Y603218D01*
X176731Y603193D01*
X176841Y603163D01*
X176949Y603130D01*
X177056Y603093D01*
X177162Y603053D01*
X177266Y603008D01*
X177369Y602960D01*
X177470Y602909D01*
X177569Y602854D01*
X177666Y602796D01*
X177761Y602734D01*
X177854Y602669D01*
X177944Y602601D01*
X178032Y602530D01*
X178118Y602455D01*
X178201Y602378D01*
X178281Y602298D01*
X178358Y602215D01*
X178433Y602129D01*
X178504Y602041D01*
X178572Y601951D01*
X178637Y601858D01*
X178699Y601763D01*
X178757Y601666D01*
X178812Y601567D01*
X178863Y601466D01*
X178911Y601363D01*
X178956Y601259D01*
X178996Y601153D01*
X179033Y601046D01*
X179066Y600938D01*
X179096Y600828D01*
X179121Y600718D01*
X179143Y600607D01*
X179160Y600495D01*
X179174Y600382D01*
X179184Y600269D01*
X179190Y600156D01*
X179192Y600043D01*
X179192Y596797D01*
X179192Y608608D02*
X179192Y612503D01*
X179190Y612602D01*
X179184Y612702D01*
X179175Y612801D01*
X179162Y612899D01*
X179145Y612997D01*
X179124Y613095D01*
X179099Y613191D01*
X179071Y613286D01*
X179039Y613380D01*
X179004Y613473D01*
X178965Y613565D01*
X178922Y613655D01*
X178877Y613743D01*
X178827Y613830D01*
X178775Y613914D01*
X178719Y613997D01*
X178661Y614077D01*
X178599Y614155D01*
X178534Y614230D01*
X178466Y614303D01*
X178396Y614373D01*
X178323Y614441D01*
X178248Y614506D01*
X178170Y614568D01*
X178090Y614626D01*
X178007Y614682D01*
X177923Y614734D01*
X177836Y614784D01*
X177748Y614829D01*
X177658Y614872D01*
X177566Y614911D01*
X177473Y614946D01*
X177379Y614978D01*
X177284Y615006D01*
X177188Y615031D01*
X177090Y615052D01*
X176992Y615069D01*
X176894Y615082D01*
X176795Y615091D01*
X176695Y615097D01*
X176596Y615099D01*
X175297Y615099D01*
X175198Y615097D01*
X175098Y615091D01*
X174999Y615082D01*
X174901Y615069D01*
X174803Y615052D01*
X174705Y615031D01*
X174609Y615006D01*
X174514Y614978D01*
X174420Y614946D01*
X174327Y614911D01*
X174235Y614872D01*
X174145Y614829D01*
X174057Y614784D01*
X173970Y614734D01*
X173886Y614682D01*
X173803Y614626D01*
X173723Y614568D01*
X173645Y614506D01*
X173570Y614441D01*
X173497Y614373D01*
X173427Y614303D01*
X173359Y614230D01*
X173294Y614155D01*
X173232Y614077D01*
X173174Y613997D01*
X173118Y613914D01*
X173066Y613830D01*
X173016Y613743D01*
X172971Y613655D01*
X172928Y613565D01*
X172889Y613473D01*
X172854Y613380D01*
X172822Y613286D01*
X172794Y613191D01*
X172769Y613095D01*
X172748Y612997D01*
X172731Y612899D01*
X172718Y612801D01*
X172709Y612702D01*
X172703Y612602D01*
X172701Y612503D01*
X172701Y608608D01*
X167508Y608608D01*
X167508Y615099D01*
D16*
X513176Y482910D02*
X542132Y482910D01*
X542132Y475290D01*
X513176Y475290D01*
X513176Y482910D01*
D11*
X524240Y455185D02*
X524240Y443755D01*
X521065Y455185D02*
X527415Y455185D01*
X531733Y452645D02*
X534908Y455185D01*
X534908Y443755D01*
X531733Y443755D02*
X538083Y443755D01*
D16*
X502732Y483110D02*
X473776Y483110D01*
X502732Y483110D02*
X502732Y475490D01*
X473776Y475490D01*
X473776Y483110D01*
D11*
X480840Y457385D02*
X480840Y445955D01*
X477665Y457385D02*
X484015Y457385D01*
X491826Y457386D02*
X491930Y457384D01*
X492035Y457378D01*
X492139Y457369D01*
X492242Y457356D01*
X492345Y457338D01*
X492447Y457318D01*
X492549Y457293D01*
X492649Y457265D01*
X492749Y457233D01*
X492847Y457197D01*
X492944Y457158D01*
X493039Y457116D01*
X493133Y457070D01*
X493225Y457020D01*
X493315Y456968D01*
X493403Y456912D01*
X493489Y456852D01*
X493573Y456790D01*
X493654Y456725D01*
X493733Y456657D01*
X493810Y456585D01*
X493883Y456512D01*
X493955Y456435D01*
X494023Y456356D01*
X494088Y456275D01*
X494150Y456191D01*
X494210Y456105D01*
X494266Y456017D01*
X494318Y455927D01*
X494368Y455835D01*
X494414Y455741D01*
X494456Y455646D01*
X494495Y455549D01*
X494531Y455451D01*
X494563Y455351D01*
X494591Y455251D01*
X494616Y455149D01*
X494636Y455047D01*
X494654Y454944D01*
X494667Y454841D01*
X494676Y454737D01*
X494682Y454632D01*
X494684Y454528D01*
X491826Y457385D02*
X491708Y457383D01*
X491589Y457377D01*
X491471Y457368D01*
X491354Y457355D01*
X491237Y457337D01*
X491120Y457317D01*
X491004Y457292D01*
X490889Y457264D01*
X490776Y457231D01*
X490663Y457196D01*
X490551Y457156D01*
X490441Y457114D01*
X490332Y457067D01*
X490224Y457017D01*
X490119Y456964D01*
X490015Y456907D01*
X489913Y456847D01*
X489813Y456784D01*
X489715Y456717D01*
X489619Y456648D01*
X489526Y456575D01*
X489435Y456499D01*
X489346Y456421D01*
X489260Y456339D01*
X489177Y456255D01*
X489096Y456169D01*
X489019Y456079D01*
X488944Y455988D01*
X488872Y455894D01*
X488803Y455797D01*
X488738Y455699D01*
X488675Y455598D01*
X488616Y455495D01*
X488560Y455391D01*
X488508Y455285D01*
X488459Y455177D01*
X488414Y455068D01*
X488372Y454957D01*
X488334Y454845D01*
X493731Y452306D02*
X493807Y452381D01*
X493882Y452460D01*
X493953Y452541D01*
X494022Y452625D01*
X494087Y452711D01*
X494149Y452799D01*
X494209Y452889D01*
X494265Y452981D01*
X494318Y453076D01*
X494367Y453172D01*
X494413Y453270D01*
X494456Y453369D01*
X494495Y453470D01*
X494530Y453572D01*
X494562Y453675D01*
X494590Y453779D01*
X494615Y453884D01*
X494636Y453991D01*
X494653Y454097D01*
X494666Y454204D01*
X494675Y454312D01*
X494681Y454420D01*
X494683Y454528D01*
X493731Y452305D02*
X488333Y445955D01*
X494683Y445955D01*
D16*
X483824Y512290D02*
X454868Y512290D01*
X454868Y519910D01*
X483824Y519910D01*
X483824Y512290D01*
D11*
X468092Y540015D02*
X468092Y551445D01*
X464917Y551445D02*
X471267Y551445D01*
X475585Y540015D02*
X478760Y540015D01*
X478871Y540017D01*
X478981Y540023D01*
X479092Y540032D01*
X479202Y540046D01*
X479311Y540063D01*
X479420Y540084D01*
X479528Y540109D01*
X479635Y540138D01*
X479741Y540170D01*
X479846Y540206D01*
X479949Y540246D01*
X480051Y540289D01*
X480152Y540336D01*
X480251Y540387D01*
X480348Y540440D01*
X480442Y540497D01*
X480535Y540558D01*
X480626Y540621D01*
X480715Y540688D01*
X480801Y540758D01*
X480884Y540831D01*
X480966Y540906D01*
X481044Y540984D01*
X481119Y541066D01*
X481192Y541149D01*
X481262Y541235D01*
X481329Y541324D01*
X481392Y541415D01*
X481453Y541508D01*
X481510Y541603D01*
X481563Y541699D01*
X481614Y541798D01*
X481661Y541899D01*
X481704Y542001D01*
X481744Y542104D01*
X481780Y542209D01*
X481812Y542315D01*
X481841Y542422D01*
X481866Y542530D01*
X481887Y542639D01*
X481904Y542748D01*
X481918Y542858D01*
X481927Y542969D01*
X481933Y543079D01*
X481935Y543190D01*
X481933Y543301D01*
X481927Y543411D01*
X481918Y543522D01*
X481904Y543632D01*
X481887Y543741D01*
X481866Y543850D01*
X481841Y543958D01*
X481812Y544065D01*
X481780Y544171D01*
X481744Y544276D01*
X481704Y544379D01*
X481661Y544481D01*
X481614Y544582D01*
X481563Y544681D01*
X481510Y544777D01*
X481453Y544872D01*
X481392Y544965D01*
X481329Y545056D01*
X481262Y545145D01*
X481192Y545231D01*
X481119Y545314D01*
X481044Y545396D01*
X480966Y545474D01*
X480884Y545549D01*
X480801Y545622D01*
X480715Y545692D01*
X480626Y545759D01*
X480535Y545822D01*
X480442Y545883D01*
X480348Y545940D01*
X480251Y545993D01*
X480152Y546044D01*
X480051Y546091D01*
X479949Y546134D01*
X479846Y546174D01*
X479741Y546210D01*
X479635Y546242D01*
X479528Y546271D01*
X479420Y546296D01*
X479311Y546317D01*
X479202Y546334D01*
X479092Y546348D01*
X478981Y546357D01*
X478871Y546363D01*
X478760Y546365D01*
X479395Y551445D02*
X475585Y551445D01*
X479395Y551445D02*
X479495Y551443D01*
X479594Y551437D01*
X479694Y551427D01*
X479792Y551414D01*
X479891Y551396D01*
X479988Y551375D01*
X480084Y551350D01*
X480180Y551321D01*
X480274Y551288D01*
X480367Y551252D01*
X480458Y551212D01*
X480548Y551168D01*
X480636Y551121D01*
X480722Y551071D01*
X480806Y551017D01*
X480888Y550960D01*
X480967Y550900D01*
X481045Y550836D01*
X481119Y550770D01*
X481191Y550701D01*
X481260Y550629D01*
X481326Y550555D01*
X481390Y550477D01*
X481450Y550398D01*
X481507Y550316D01*
X481561Y550232D01*
X481611Y550146D01*
X481658Y550058D01*
X481702Y549968D01*
X481742Y549877D01*
X481778Y549784D01*
X481811Y549690D01*
X481840Y549594D01*
X481865Y549498D01*
X481886Y549401D01*
X481904Y549302D01*
X481917Y549204D01*
X481927Y549104D01*
X481933Y549005D01*
X481935Y548905D01*
X481933Y548805D01*
X481927Y548706D01*
X481917Y548606D01*
X481904Y548508D01*
X481886Y548409D01*
X481865Y548312D01*
X481840Y548216D01*
X481811Y548120D01*
X481778Y548026D01*
X481742Y547933D01*
X481702Y547842D01*
X481658Y547752D01*
X481611Y547664D01*
X481561Y547578D01*
X481507Y547494D01*
X481450Y547412D01*
X481390Y547333D01*
X481326Y547255D01*
X481260Y547181D01*
X481191Y547109D01*
X481119Y547040D01*
X481045Y546974D01*
X480967Y546910D01*
X480888Y546850D01*
X480806Y546793D01*
X480722Y546739D01*
X480636Y546689D01*
X480548Y546642D01*
X480458Y546598D01*
X480367Y546558D01*
X480274Y546522D01*
X480180Y546489D01*
X480084Y546460D01*
X479988Y546435D01*
X479891Y546414D01*
X479792Y546396D01*
X479694Y546383D01*
X479594Y546373D01*
X479495Y546367D01*
X479395Y546365D01*
X476855Y546365D01*
D16*
X493976Y519110D02*
X522932Y519110D01*
X522932Y511490D01*
X493976Y511490D01*
X493976Y519110D01*
D11*
X503040Y531955D02*
X503040Y543385D01*
X499865Y543385D02*
X506215Y543385D01*
X513073Y543385D02*
X510533Y534495D01*
X516883Y534495D01*
X514978Y537035D02*
X514978Y531955D01*
X276860Y533400D02*
X2540Y533400D01*
X276860Y533400D02*
X276860Y254000D01*
X215900Y254000D01*
X63500Y254000D01*
X2540Y254000D01*
X2540Y533400D01*
X88900Y527050D02*
X95250Y533400D01*
X107950Y533400D02*
X114300Y527050D01*
X120650Y533400D01*
X133350Y533400D02*
X139700Y527050D01*
X146050Y533400D01*
X158750Y533400D02*
X165100Y527050D01*
X171450Y533400D01*
X184150Y533400D02*
X190500Y527050D01*
X190500Y514350D02*
X184150Y508000D01*
X171450Y508000D01*
X165100Y514350D01*
X158750Y508000D01*
X146050Y508000D01*
X139700Y514350D01*
X133350Y508000D01*
X120650Y508000D01*
X114300Y514350D01*
X107950Y508000D01*
X95250Y508000D01*
X88900Y514350D01*
X88900Y527050D01*
X25400Y474980D02*
X254000Y474980D01*
X254000Y337820D01*
X25400Y337820D01*
X25400Y474980D01*
X190500Y514350D02*
X190500Y527050D01*
D13*
X94457Y498362D02*
X92891Y498362D01*
X94457Y498362D02*
X94457Y493141D01*
X91324Y493141D01*
X91235Y493143D01*
X91147Y493149D01*
X91059Y493158D01*
X90971Y493171D01*
X90884Y493188D01*
X90798Y493208D01*
X90713Y493233D01*
X90628Y493260D01*
X90545Y493292D01*
X90464Y493326D01*
X90384Y493365D01*
X90306Y493406D01*
X90229Y493451D01*
X90155Y493499D01*
X90082Y493550D01*
X90012Y493604D01*
X89945Y493662D01*
X89879Y493722D01*
X89817Y493784D01*
X89757Y493850D01*
X89699Y493917D01*
X89645Y493987D01*
X89594Y494060D01*
X89546Y494134D01*
X89501Y494211D01*
X89460Y494289D01*
X89421Y494369D01*
X89387Y494450D01*
X89355Y494533D01*
X89328Y494618D01*
X89303Y494703D01*
X89283Y494789D01*
X89266Y494876D01*
X89253Y494964D01*
X89244Y495052D01*
X89238Y495140D01*
X89236Y495229D01*
X89236Y500451D01*
X89238Y500542D01*
X89244Y500633D01*
X89254Y500724D01*
X89268Y500814D01*
X89285Y500903D01*
X89307Y500991D01*
X89333Y501079D01*
X89362Y501165D01*
X89395Y501250D01*
X89432Y501333D01*
X89472Y501415D01*
X89516Y501495D01*
X89563Y501573D01*
X89614Y501649D01*
X89667Y501722D01*
X89724Y501793D01*
X89785Y501862D01*
X89848Y501927D01*
X89913Y501990D01*
X89982Y502050D01*
X90053Y502108D01*
X90126Y502161D01*
X90202Y502212D01*
X90280Y502259D01*
X90360Y502303D01*
X90442Y502343D01*
X90525Y502380D01*
X90610Y502413D01*
X90696Y502442D01*
X90784Y502468D01*
X90872Y502490D01*
X90961Y502507D01*
X91051Y502521D01*
X91142Y502531D01*
X91233Y502537D01*
X91324Y502539D01*
X94457Y502539D01*
X98989Y502539D02*
X98989Y493141D01*
X104211Y493141D02*
X98989Y502539D01*
X104211Y502539D02*
X104211Y493141D01*
X108743Y493141D02*
X108743Y502539D01*
X111354Y502539D01*
X111454Y502537D01*
X111554Y502531D01*
X111653Y502522D01*
X111753Y502508D01*
X111851Y502491D01*
X111949Y502470D01*
X112046Y502446D01*
X112142Y502417D01*
X112237Y502385D01*
X112330Y502350D01*
X112422Y502311D01*
X112513Y502268D01*
X112601Y502222D01*
X112688Y502172D01*
X112773Y502120D01*
X112856Y502064D01*
X112937Y502005D01*
X113015Y501942D01*
X113091Y501877D01*
X113165Y501809D01*
X113235Y501739D01*
X113303Y501665D01*
X113368Y501589D01*
X113431Y501511D01*
X113490Y501430D01*
X113546Y501347D01*
X113598Y501262D01*
X113648Y501175D01*
X113694Y501087D01*
X113737Y500996D01*
X113776Y500904D01*
X113811Y500811D01*
X113843Y500716D01*
X113872Y500620D01*
X113896Y500523D01*
X113917Y500425D01*
X113934Y500327D01*
X113948Y500227D01*
X113957Y500128D01*
X113963Y500028D01*
X113965Y499928D01*
X113964Y499928D02*
X113964Y495752D01*
X113965Y495752D02*
X113963Y495652D01*
X113957Y495552D01*
X113948Y495453D01*
X113934Y495353D01*
X113917Y495255D01*
X113896Y495157D01*
X113872Y495060D01*
X113843Y494964D01*
X113811Y494869D01*
X113776Y494776D01*
X113737Y494684D01*
X113694Y494593D01*
X113648Y494505D01*
X113598Y494418D01*
X113546Y494333D01*
X113490Y494250D01*
X113431Y494169D01*
X113368Y494091D01*
X113303Y494015D01*
X113235Y493941D01*
X113165Y493871D01*
X113091Y493803D01*
X113015Y493738D01*
X112937Y493675D01*
X112856Y493616D01*
X112773Y493560D01*
X112688Y493508D01*
X112601Y493458D01*
X112513Y493412D01*
X112422Y493369D01*
X112330Y493330D01*
X112237Y493295D01*
X112142Y493263D01*
X112046Y493234D01*
X111949Y493210D01*
X111851Y493189D01*
X111753Y493172D01*
X111653Y493158D01*
X111554Y493149D01*
X111454Y493143D01*
X111354Y493141D01*
X108743Y493141D01*
X116281Y489839D02*
X119414Y480441D01*
X122547Y489839D01*
X128010Y480441D02*
X130099Y480441D01*
X128010Y480441D02*
X127921Y480443D01*
X127833Y480449D01*
X127745Y480458D01*
X127657Y480471D01*
X127570Y480488D01*
X127484Y480508D01*
X127399Y480533D01*
X127314Y480560D01*
X127231Y480592D01*
X127150Y480626D01*
X127070Y480665D01*
X126992Y480706D01*
X126915Y480751D01*
X126841Y480799D01*
X126768Y480850D01*
X126698Y480904D01*
X126631Y480962D01*
X126565Y481022D01*
X126503Y481084D01*
X126443Y481150D01*
X126385Y481217D01*
X126331Y481287D01*
X126280Y481360D01*
X126232Y481434D01*
X126187Y481511D01*
X126146Y481589D01*
X126107Y481669D01*
X126073Y481750D01*
X126041Y481833D01*
X126014Y481918D01*
X125989Y482003D01*
X125969Y482089D01*
X125952Y482176D01*
X125939Y482264D01*
X125930Y482352D01*
X125924Y482440D01*
X125922Y482529D01*
X125922Y487751D01*
X125924Y487842D01*
X125930Y487933D01*
X125940Y488024D01*
X125954Y488114D01*
X125971Y488203D01*
X125993Y488291D01*
X126019Y488379D01*
X126048Y488465D01*
X126081Y488550D01*
X126118Y488633D01*
X126158Y488715D01*
X126202Y488795D01*
X126249Y488873D01*
X126300Y488949D01*
X126353Y489022D01*
X126410Y489093D01*
X126471Y489162D01*
X126534Y489227D01*
X126599Y489290D01*
X126668Y489350D01*
X126739Y489408D01*
X126812Y489461D01*
X126888Y489512D01*
X126966Y489559D01*
X127046Y489603D01*
X127128Y489643D01*
X127211Y489680D01*
X127296Y489713D01*
X127382Y489742D01*
X127470Y489768D01*
X127558Y489790D01*
X127647Y489807D01*
X127737Y489821D01*
X127828Y489831D01*
X127919Y489837D01*
X128010Y489839D01*
X130099Y489839D01*
X135630Y480441D02*
X137719Y480441D01*
X135630Y480441D02*
X135541Y480443D01*
X135453Y480449D01*
X135365Y480458D01*
X135277Y480471D01*
X135190Y480488D01*
X135104Y480508D01*
X135019Y480533D01*
X134934Y480560D01*
X134851Y480592D01*
X134770Y480626D01*
X134690Y480665D01*
X134612Y480706D01*
X134535Y480751D01*
X134461Y480799D01*
X134388Y480850D01*
X134318Y480904D01*
X134251Y480962D01*
X134185Y481022D01*
X134123Y481084D01*
X134063Y481150D01*
X134005Y481217D01*
X133951Y481287D01*
X133900Y481360D01*
X133852Y481434D01*
X133807Y481511D01*
X133766Y481589D01*
X133727Y481669D01*
X133693Y481750D01*
X133661Y481833D01*
X133634Y481918D01*
X133609Y482003D01*
X133589Y482089D01*
X133572Y482176D01*
X133559Y482264D01*
X133550Y482352D01*
X133544Y482440D01*
X133542Y482529D01*
X133542Y487751D01*
X133544Y487842D01*
X133550Y487933D01*
X133560Y488024D01*
X133574Y488114D01*
X133591Y488203D01*
X133613Y488291D01*
X133639Y488379D01*
X133668Y488465D01*
X133701Y488550D01*
X133738Y488633D01*
X133778Y488715D01*
X133822Y488795D01*
X133869Y488873D01*
X133920Y488949D01*
X133973Y489022D01*
X134030Y489093D01*
X134091Y489162D01*
X134154Y489227D01*
X134219Y489290D01*
X134288Y489350D01*
X134359Y489408D01*
X134432Y489461D01*
X134508Y489512D01*
X134586Y489559D01*
X134666Y489603D01*
X134748Y489643D01*
X134831Y489680D01*
X134916Y489713D01*
X135002Y489742D01*
X135090Y489768D01*
X135178Y489790D01*
X135267Y489807D01*
X135357Y489821D01*
X135448Y489831D01*
X135539Y489837D01*
X135630Y489839D01*
X137719Y489839D01*
X145054Y493141D02*
X145143Y493143D01*
X145231Y493149D01*
X145319Y493158D01*
X145407Y493171D01*
X145494Y493188D01*
X145580Y493208D01*
X145665Y493233D01*
X145750Y493260D01*
X145833Y493292D01*
X145914Y493326D01*
X145994Y493365D01*
X146072Y493406D01*
X146149Y493451D01*
X146223Y493499D01*
X146296Y493550D01*
X146366Y493604D01*
X146433Y493662D01*
X146499Y493722D01*
X146561Y493784D01*
X146621Y493850D01*
X146679Y493917D01*
X146733Y493987D01*
X146784Y494060D01*
X146832Y494134D01*
X146877Y494211D01*
X146918Y494289D01*
X146957Y494369D01*
X146991Y494450D01*
X147023Y494533D01*
X147050Y494618D01*
X147075Y494703D01*
X147095Y494789D01*
X147112Y494876D01*
X147125Y494964D01*
X147134Y495052D01*
X147140Y495140D01*
X147142Y495229D01*
X145054Y493141D02*
X144925Y493143D01*
X144796Y493149D01*
X144667Y493158D01*
X144539Y493171D01*
X144411Y493188D01*
X144284Y493209D01*
X144157Y493233D01*
X144031Y493261D01*
X143906Y493293D01*
X143782Y493328D01*
X143659Y493367D01*
X143537Y493410D01*
X143417Y493456D01*
X143298Y493506D01*
X143180Y493559D01*
X143064Y493615D01*
X142950Y493675D01*
X142837Y493738D01*
X142727Y493805D01*
X142618Y493874D01*
X142512Y493947D01*
X142407Y494023D01*
X142305Y494102D01*
X142206Y494184D01*
X142108Y494268D01*
X142013Y494356D01*
X141921Y494446D01*
X142182Y500451D02*
X142184Y500540D01*
X142190Y500628D01*
X142199Y500716D01*
X142212Y500804D01*
X142229Y500891D01*
X142249Y500977D01*
X142274Y501062D01*
X142301Y501147D01*
X142333Y501230D01*
X142367Y501311D01*
X142406Y501391D01*
X142447Y501469D01*
X142492Y501546D01*
X142540Y501620D01*
X142591Y501693D01*
X142645Y501763D01*
X142703Y501830D01*
X142763Y501896D01*
X142825Y501958D01*
X142891Y502018D01*
X142958Y502076D01*
X143028Y502130D01*
X143101Y502181D01*
X143175Y502229D01*
X143252Y502274D01*
X143330Y502315D01*
X143410Y502354D01*
X143491Y502388D01*
X143574Y502420D01*
X143659Y502447D01*
X143744Y502472D01*
X143830Y502492D01*
X143917Y502509D01*
X144005Y502522D01*
X144093Y502531D01*
X144181Y502537D01*
X144270Y502539D01*
X144390Y502537D01*
X144510Y502532D01*
X144630Y502522D01*
X144749Y502510D01*
X144868Y502493D01*
X144986Y502473D01*
X145104Y502449D01*
X145220Y502422D01*
X145336Y502391D01*
X145451Y502357D01*
X145565Y502319D01*
X145678Y502277D01*
X145789Y502232D01*
X145899Y502184D01*
X146007Y502133D01*
X146114Y502078D01*
X146219Y502020D01*
X146322Y501958D01*
X146423Y501894D01*
X146523Y501826D01*
X146620Y501756D01*
X143226Y498624D02*
X143148Y498672D01*
X143072Y498724D01*
X142999Y498778D01*
X142928Y498836D01*
X142859Y498897D01*
X142793Y498961D01*
X142730Y499028D01*
X142670Y499097D01*
X142613Y499169D01*
X142559Y499243D01*
X142509Y499320D01*
X142461Y499399D01*
X142418Y499479D01*
X142377Y499562D01*
X142341Y499646D01*
X142308Y499731D01*
X142279Y499818D01*
X142253Y499907D01*
X142231Y499996D01*
X142214Y500086D01*
X142200Y500176D01*
X142190Y500268D01*
X142184Y500359D01*
X142182Y500451D01*
X146098Y497056D02*
X146176Y497008D01*
X146252Y496956D01*
X146325Y496902D01*
X146396Y496844D01*
X146465Y496783D01*
X146531Y496719D01*
X146594Y496652D01*
X146654Y496583D01*
X146711Y496511D01*
X146765Y496437D01*
X146815Y496360D01*
X146863Y496281D01*
X146906Y496201D01*
X146947Y496118D01*
X146983Y496034D01*
X147016Y495949D01*
X147045Y495862D01*
X147071Y495773D01*
X147093Y495684D01*
X147110Y495594D01*
X147124Y495504D01*
X147134Y495412D01*
X147140Y495321D01*
X147142Y495229D01*
X146098Y497057D02*
X143226Y498623D01*
X152823Y493141D02*
X154911Y493141D01*
X152823Y493141D02*
X152734Y493143D01*
X152646Y493149D01*
X152558Y493158D01*
X152470Y493171D01*
X152383Y493188D01*
X152297Y493208D01*
X152212Y493233D01*
X152127Y493260D01*
X152044Y493292D01*
X151963Y493326D01*
X151883Y493365D01*
X151805Y493406D01*
X151728Y493451D01*
X151654Y493499D01*
X151581Y493550D01*
X151511Y493604D01*
X151444Y493662D01*
X151378Y493722D01*
X151316Y493784D01*
X151256Y493850D01*
X151198Y493917D01*
X151144Y493987D01*
X151093Y494060D01*
X151045Y494134D01*
X151000Y494211D01*
X150959Y494289D01*
X150920Y494369D01*
X150886Y494450D01*
X150854Y494533D01*
X150827Y494618D01*
X150802Y494703D01*
X150782Y494789D01*
X150765Y494876D01*
X150752Y494964D01*
X150743Y495052D01*
X150737Y495140D01*
X150735Y495229D01*
X150734Y495229D02*
X150734Y500451D01*
X150735Y500451D02*
X150737Y500542D01*
X150743Y500633D01*
X150753Y500724D01*
X150767Y500814D01*
X150784Y500903D01*
X150806Y500991D01*
X150832Y501079D01*
X150861Y501165D01*
X150894Y501250D01*
X150931Y501333D01*
X150971Y501415D01*
X151015Y501495D01*
X151062Y501573D01*
X151113Y501649D01*
X151166Y501722D01*
X151223Y501793D01*
X151284Y501862D01*
X151347Y501927D01*
X151412Y501990D01*
X151481Y502050D01*
X151552Y502108D01*
X151625Y502161D01*
X151701Y502212D01*
X151779Y502259D01*
X151859Y502303D01*
X151941Y502343D01*
X152024Y502380D01*
X152109Y502413D01*
X152195Y502442D01*
X152283Y502468D01*
X152371Y502490D01*
X152460Y502507D01*
X152550Y502521D01*
X152641Y502531D01*
X152732Y502537D01*
X152823Y502539D01*
X154911Y502539D01*
X158702Y502539D02*
X158702Y493141D01*
X162879Y493141D01*
X170853Y482529D02*
X170851Y482440D01*
X170845Y482352D01*
X170836Y482264D01*
X170823Y482176D01*
X170806Y482089D01*
X170786Y482003D01*
X170761Y481918D01*
X170734Y481833D01*
X170702Y481750D01*
X170668Y481669D01*
X170629Y481589D01*
X170588Y481511D01*
X170543Y481434D01*
X170495Y481360D01*
X170444Y481287D01*
X170390Y481217D01*
X170332Y481150D01*
X170272Y481084D01*
X170210Y481022D01*
X170144Y480962D01*
X170077Y480904D01*
X170007Y480850D01*
X169934Y480799D01*
X169860Y480751D01*
X169783Y480706D01*
X169705Y480665D01*
X169625Y480626D01*
X169544Y480592D01*
X169461Y480560D01*
X169376Y480533D01*
X169291Y480508D01*
X169205Y480488D01*
X169118Y480471D01*
X169030Y480458D01*
X168942Y480449D01*
X168854Y480443D01*
X168765Y480441D01*
X168636Y480443D01*
X168507Y480449D01*
X168378Y480458D01*
X168250Y480471D01*
X168122Y480488D01*
X167995Y480509D01*
X167868Y480533D01*
X167742Y480561D01*
X167617Y480593D01*
X167493Y480628D01*
X167370Y480667D01*
X167248Y480710D01*
X167128Y480756D01*
X167009Y480806D01*
X166891Y480859D01*
X166775Y480915D01*
X166661Y480975D01*
X166548Y481038D01*
X166438Y481105D01*
X166329Y481174D01*
X166223Y481247D01*
X166118Y481323D01*
X166016Y481402D01*
X165917Y481484D01*
X165819Y481568D01*
X165724Y481656D01*
X165632Y481746D01*
X165894Y487751D02*
X165896Y487840D01*
X165902Y487928D01*
X165911Y488016D01*
X165924Y488104D01*
X165941Y488191D01*
X165961Y488277D01*
X165986Y488362D01*
X166013Y488447D01*
X166045Y488530D01*
X166079Y488611D01*
X166118Y488691D01*
X166159Y488769D01*
X166204Y488846D01*
X166252Y488920D01*
X166303Y488993D01*
X166357Y489063D01*
X166415Y489130D01*
X166475Y489196D01*
X166537Y489258D01*
X166603Y489318D01*
X166670Y489376D01*
X166740Y489430D01*
X166813Y489481D01*
X166887Y489529D01*
X166964Y489574D01*
X167042Y489615D01*
X167122Y489654D01*
X167203Y489688D01*
X167286Y489720D01*
X167371Y489747D01*
X167456Y489772D01*
X167542Y489792D01*
X167629Y489809D01*
X167717Y489822D01*
X167805Y489831D01*
X167893Y489837D01*
X167982Y489839D01*
X167981Y489839D02*
X168101Y489837D01*
X168221Y489832D01*
X168341Y489822D01*
X168460Y489810D01*
X168579Y489793D01*
X168697Y489773D01*
X168815Y489749D01*
X168931Y489722D01*
X169047Y489691D01*
X169162Y489657D01*
X169276Y489619D01*
X169389Y489577D01*
X169500Y489532D01*
X169610Y489484D01*
X169718Y489433D01*
X169825Y489378D01*
X169930Y489320D01*
X170033Y489258D01*
X170134Y489194D01*
X170234Y489126D01*
X170331Y489056D01*
X166937Y485924D02*
X166859Y485972D01*
X166783Y486024D01*
X166710Y486078D01*
X166639Y486136D01*
X166570Y486197D01*
X166504Y486261D01*
X166441Y486328D01*
X166381Y486397D01*
X166324Y486469D01*
X166270Y486543D01*
X166220Y486620D01*
X166172Y486699D01*
X166129Y486779D01*
X166088Y486862D01*
X166052Y486946D01*
X166019Y487031D01*
X165990Y487118D01*
X165964Y487207D01*
X165942Y487296D01*
X165925Y487386D01*
X165911Y487476D01*
X165901Y487568D01*
X165895Y487659D01*
X165893Y487751D01*
X169809Y484356D02*
X169887Y484308D01*
X169963Y484256D01*
X170036Y484202D01*
X170107Y484144D01*
X170176Y484083D01*
X170242Y484019D01*
X170305Y483952D01*
X170365Y483883D01*
X170422Y483811D01*
X170476Y483737D01*
X170526Y483660D01*
X170574Y483581D01*
X170617Y483501D01*
X170658Y483418D01*
X170694Y483334D01*
X170727Y483249D01*
X170756Y483162D01*
X170782Y483073D01*
X170804Y482984D01*
X170821Y482894D01*
X170835Y482804D01*
X170845Y482712D01*
X170851Y482621D01*
X170853Y482529D01*
X169809Y484357D02*
X166937Y485923D01*
X174776Y489839D02*
X174776Y480441D01*
X174776Y489839D02*
X177387Y489839D01*
X177487Y489837D01*
X177587Y489831D01*
X177686Y489822D01*
X177786Y489808D01*
X177884Y489791D01*
X177982Y489770D01*
X178079Y489746D01*
X178175Y489717D01*
X178270Y489685D01*
X178363Y489650D01*
X178455Y489611D01*
X178546Y489568D01*
X178634Y489522D01*
X178721Y489472D01*
X178806Y489420D01*
X178889Y489364D01*
X178970Y489305D01*
X179048Y489242D01*
X179124Y489177D01*
X179198Y489109D01*
X179268Y489039D01*
X179336Y488965D01*
X179401Y488889D01*
X179464Y488811D01*
X179523Y488730D01*
X179579Y488647D01*
X179631Y488562D01*
X179681Y488475D01*
X179727Y488387D01*
X179770Y488296D01*
X179809Y488204D01*
X179844Y488111D01*
X179876Y488016D01*
X179905Y487920D01*
X179929Y487823D01*
X179950Y487725D01*
X179967Y487627D01*
X179981Y487527D01*
X179990Y487428D01*
X179996Y487328D01*
X179998Y487228D01*
X179997Y487228D02*
X179997Y483052D01*
X179998Y483052D02*
X179996Y482952D01*
X179990Y482852D01*
X179981Y482753D01*
X179967Y482653D01*
X179950Y482555D01*
X179929Y482457D01*
X179905Y482360D01*
X179876Y482264D01*
X179844Y482169D01*
X179809Y482076D01*
X179770Y481984D01*
X179727Y481893D01*
X179681Y481805D01*
X179631Y481718D01*
X179579Y481633D01*
X179523Y481550D01*
X179464Y481469D01*
X179401Y481391D01*
X179336Y481315D01*
X179268Y481241D01*
X179198Y481171D01*
X179124Y481103D01*
X179048Y481038D01*
X178970Y480975D01*
X178889Y480916D01*
X178806Y480860D01*
X178721Y480808D01*
X178634Y480758D01*
X178546Y480712D01*
X178455Y480669D01*
X178363Y480630D01*
X178270Y480595D01*
X178175Y480563D01*
X178079Y480534D01*
X177982Y480510D01*
X177884Y480489D01*
X177786Y480472D01*
X177686Y480458D01*
X177587Y480449D01*
X177487Y480443D01*
X177387Y480441D01*
X174776Y480441D01*
X183703Y480441D02*
X186835Y489839D01*
X189968Y480441D01*
X189185Y482791D02*
X184486Y482791D01*
D11*
X127000Y494030D02*
X127000Y504190D01*
X177800Y504190D02*
X177800Y494030D01*
X76200Y273050D02*
X63500Y254000D01*
X76200Y273050D02*
X203200Y273050D01*
X215900Y254000D01*
D10*
X125596Y245292D02*
X125596Y236854D01*
X125598Y236741D01*
X125604Y236628D01*
X125614Y236515D01*
X125628Y236402D01*
X125645Y236290D01*
X125667Y236179D01*
X125692Y236069D01*
X125722Y235959D01*
X125755Y235851D01*
X125792Y235744D01*
X125832Y235638D01*
X125877Y235534D01*
X125925Y235431D01*
X125976Y235330D01*
X126031Y235231D01*
X126089Y235134D01*
X126151Y235039D01*
X126216Y234946D01*
X126284Y234856D01*
X126355Y234768D01*
X126430Y234682D01*
X126507Y234599D01*
X126587Y234519D01*
X126670Y234442D01*
X126756Y234367D01*
X126844Y234296D01*
X126934Y234228D01*
X127027Y234163D01*
X127122Y234101D01*
X127219Y234043D01*
X127318Y233988D01*
X127419Y233937D01*
X127522Y233889D01*
X127626Y233844D01*
X127732Y233804D01*
X127839Y233767D01*
X127947Y233734D01*
X128057Y233704D01*
X128167Y233679D01*
X128278Y233657D01*
X128390Y233640D01*
X128503Y233626D01*
X128616Y233616D01*
X128729Y233610D01*
X128842Y233608D01*
X128955Y233610D01*
X129068Y233616D01*
X129181Y233626D01*
X129294Y233640D01*
X129406Y233657D01*
X129517Y233679D01*
X129627Y233704D01*
X129737Y233734D01*
X129845Y233767D01*
X129952Y233804D01*
X130058Y233844D01*
X130162Y233889D01*
X130265Y233937D01*
X130366Y233988D01*
X130465Y234043D01*
X130562Y234101D01*
X130657Y234163D01*
X130750Y234228D01*
X130840Y234296D01*
X130928Y234367D01*
X131014Y234442D01*
X131097Y234519D01*
X131177Y234599D01*
X131254Y234682D01*
X131329Y234768D01*
X131400Y234856D01*
X131468Y234946D01*
X131533Y235039D01*
X131595Y235134D01*
X131653Y235231D01*
X131708Y235330D01*
X131759Y235431D01*
X131807Y235534D01*
X131852Y235638D01*
X131892Y235744D01*
X131929Y235851D01*
X131962Y235959D01*
X131992Y236069D01*
X132017Y236179D01*
X132039Y236290D01*
X132056Y236402D01*
X132070Y236515D01*
X132080Y236628D01*
X132086Y236741D01*
X132088Y236854D01*
X132087Y236854D02*
X132087Y245292D01*
X139891Y245292D02*
X139891Y233608D01*
X139891Y239450D02*
X138268Y240424D01*
X138267Y240423D02*
X138194Y240470D01*
X138123Y240519D01*
X138053Y240572D01*
X137987Y240628D01*
X137923Y240687D01*
X137861Y240748D01*
X137803Y240812D01*
X137747Y240879D01*
X137695Y240948D01*
X137645Y241020D01*
X137599Y241094D01*
X137556Y241169D01*
X137517Y241247D01*
X137481Y241326D01*
X137449Y241407D01*
X137420Y241489D01*
X137395Y241572D01*
X137374Y241656D01*
X137357Y241741D01*
X137343Y241827D01*
X137334Y241913D01*
X137328Y242000D01*
X137326Y242087D01*
X137328Y242174D01*
X137334Y242261D01*
X137344Y242347D01*
X137357Y242433D01*
X137375Y242518D01*
X137396Y242602D01*
X137421Y242685D01*
X137450Y242768D01*
X137482Y242848D01*
X137518Y242927D01*
X137557Y243005D01*
X137600Y243080D01*
X137647Y243154D01*
X137696Y243225D01*
X137749Y243295D01*
X137804Y243361D01*
X137863Y243425D01*
X137924Y243487D01*
X137989Y243546D01*
X138055Y243601D01*
X138124Y243654D01*
X138196Y243704D01*
X138269Y243750D01*
X138345Y243793D01*
X138422Y243832D01*
X138501Y243868D01*
X138582Y243901D01*
X138664Y243929D01*
X138747Y243955D01*
X138831Y243976D01*
X138917Y243993D01*
X138917Y243994D02*
X139057Y244018D01*
X139199Y244038D01*
X139340Y244054D01*
X139482Y244065D01*
X139625Y244073D01*
X139767Y244077D01*
X139910Y244078D01*
X140053Y244074D01*
X140195Y244066D01*
X140337Y244054D01*
X140479Y244038D01*
X140620Y244019D01*
X140761Y243995D01*
X140901Y243968D01*
X141040Y243936D01*
X141178Y243901D01*
X141316Y243862D01*
X141452Y243819D01*
X141586Y243773D01*
X141720Y243722D01*
X141852Y243669D01*
X141982Y243611D01*
X142111Y243550D01*
X142238Y243485D01*
X142364Y243417D01*
X142487Y243345D01*
X139891Y239450D02*
X141513Y238476D01*
X141514Y238477D02*
X141587Y238430D01*
X141658Y238381D01*
X141728Y238328D01*
X141794Y238272D01*
X141858Y238213D01*
X141920Y238152D01*
X141978Y238088D01*
X142034Y238021D01*
X142086Y237952D01*
X142136Y237880D01*
X142182Y237806D01*
X142225Y237731D01*
X142264Y237653D01*
X142300Y237574D01*
X142332Y237493D01*
X142361Y237411D01*
X142386Y237328D01*
X142407Y237244D01*
X142424Y237159D01*
X142438Y237073D01*
X142447Y236987D01*
X142453Y236900D01*
X142455Y236813D01*
X142453Y236726D01*
X142447Y236639D01*
X142437Y236553D01*
X142424Y236467D01*
X142406Y236382D01*
X142385Y236298D01*
X142360Y236215D01*
X142331Y236132D01*
X142299Y236052D01*
X142263Y235973D01*
X142224Y235895D01*
X142181Y235820D01*
X142134Y235746D01*
X142085Y235675D01*
X142032Y235605D01*
X141977Y235539D01*
X141918Y235475D01*
X141857Y235413D01*
X141792Y235354D01*
X141726Y235299D01*
X141657Y235246D01*
X141585Y235196D01*
X141512Y235150D01*
X141436Y235107D01*
X141359Y235068D01*
X141280Y235032D01*
X141199Y234999D01*
X141117Y234971D01*
X141034Y234945D01*
X140950Y234924D01*
X140865Y234907D01*
X140864Y234906D02*
X140724Y234882D01*
X140582Y234862D01*
X140441Y234846D01*
X140299Y234835D01*
X140156Y234827D01*
X140014Y234823D01*
X139871Y234822D01*
X139728Y234826D01*
X139586Y234834D01*
X139444Y234846D01*
X139302Y234862D01*
X139161Y234881D01*
X139020Y234905D01*
X138880Y234932D01*
X138741Y234964D01*
X138603Y234999D01*
X138465Y235038D01*
X138329Y235081D01*
X138195Y235127D01*
X138061Y235178D01*
X137929Y235231D01*
X137799Y235289D01*
X137670Y235350D01*
X137543Y235415D01*
X137417Y235483D01*
X137294Y235555D01*
X147313Y242696D02*
X150558Y245292D01*
X150558Y233608D01*
X147313Y233608D02*
X153804Y233608D01*
D11*
X474600Y568600D02*
X490600Y568600D01*
X490600Y599800D02*
X474600Y599800D01*
D12*
X456600Y593700D02*
X456602Y593763D01*
X456608Y593825D01*
X456618Y593887D01*
X456631Y593949D01*
X456649Y594009D01*
X456670Y594068D01*
X456695Y594126D01*
X456724Y594182D01*
X456756Y594236D01*
X456791Y594288D01*
X456829Y594337D01*
X456871Y594385D01*
X456915Y594429D01*
X456963Y594471D01*
X457012Y594509D01*
X457064Y594544D01*
X457118Y594576D01*
X457174Y594605D01*
X457232Y594630D01*
X457291Y594651D01*
X457351Y594669D01*
X457413Y594682D01*
X457475Y594692D01*
X457537Y594698D01*
X457600Y594700D01*
X457663Y594698D01*
X457725Y594692D01*
X457787Y594682D01*
X457849Y594669D01*
X457909Y594651D01*
X457968Y594630D01*
X458026Y594605D01*
X458082Y594576D01*
X458136Y594544D01*
X458188Y594509D01*
X458237Y594471D01*
X458285Y594429D01*
X458329Y594385D01*
X458371Y594337D01*
X458409Y594288D01*
X458444Y594236D01*
X458476Y594182D01*
X458505Y594126D01*
X458530Y594068D01*
X458551Y594009D01*
X458569Y593949D01*
X458582Y593887D01*
X458592Y593825D01*
X458598Y593763D01*
X458600Y593700D01*
X458598Y593637D01*
X458592Y593575D01*
X458582Y593513D01*
X458569Y593451D01*
X458551Y593391D01*
X458530Y593332D01*
X458505Y593274D01*
X458476Y593218D01*
X458444Y593164D01*
X458409Y593112D01*
X458371Y593063D01*
X458329Y593015D01*
X458285Y592971D01*
X458237Y592929D01*
X458188Y592891D01*
X458136Y592856D01*
X458082Y592824D01*
X458026Y592795D01*
X457968Y592770D01*
X457909Y592749D01*
X457849Y592731D01*
X457787Y592718D01*
X457725Y592708D01*
X457663Y592702D01*
X457600Y592700D01*
X457537Y592702D01*
X457475Y592708D01*
X457413Y592718D01*
X457351Y592731D01*
X457291Y592749D01*
X457232Y592770D01*
X457174Y592795D01*
X457118Y592824D01*
X457064Y592856D01*
X457012Y592891D01*
X456963Y592929D01*
X456915Y592971D01*
X456871Y593015D01*
X456829Y593063D01*
X456791Y593112D01*
X456756Y593164D01*
X456724Y593218D01*
X456695Y593274D01*
X456670Y593332D01*
X456649Y593391D01*
X456631Y593451D01*
X456618Y593513D01*
X456608Y593575D01*
X456602Y593637D01*
X456600Y593700D01*
D13*
X474981Y606192D02*
X474981Y612979D01*
X474981Y606192D02*
X474983Y606091D01*
X474989Y605990D01*
X474999Y605889D01*
X475012Y605789D01*
X475030Y605689D01*
X475051Y605590D01*
X475077Y605492D01*
X475106Y605395D01*
X475138Y605299D01*
X475175Y605205D01*
X475215Y605112D01*
X475259Y605020D01*
X475306Y604931D01*
X475357Y604843D01*
X475411Y604757D01*
X475468Y604674D01*
X475528Y604592D01*
X475592Y604514D01*
X475658Y604437D01*
X475728Y604364D01*
X475800Y604293D01*
X475875Y604225D01*
X475953Y604160D01*
X476033Y604098D01*
X476115Y604039D01*
X476200Y603983D01*
X476287Y603931D01*
X476375Y603882D01*
X476466Y603836D01*
X476558Y603795D01*
X476652Y603756D01*
X476747Y603722D01*
X476843Y603691D01*
X476941Y603664D01*
X477039Y603640D01*
X477139Y603621D01*
X477239Y603605D01*
X477339Y603593D01*
X477440Y603585D01*
X477541Y603581D01*
X477643Y603581D01*
X477744Y603585D01*
X477845Y603593D01*
X477945Y603605D01*
X478045Y603621D01*
X478145Y603640D01*
X478243Y603664D01*
X478341Y603691D01*
X478437Y603722D01*
X478532Y603756D01*
X478626Y603795D01*
X478718Y603836D01*
X478809Y603882D01*
X478897Y603931D01*
X478984Y603983D01*
X479069Y604039D01*
X479151Y604098D01*
X479231Y604160D01*
X479309Y604225D01*
X479384Y604293D01*
X479456Y604364D01*
X479526Y604437D01*
X479592Y604514D01*
X479656Y604592D01*
X479716Y604674D01*
X479773Y604757D01*
X479827Y604843D01*
X479878Y604931D01*
X479925Y605020D01*
X479969Y605112D01*
X480009Y605205D01*
X480046Y605299D01*
X480078Y605395D01*
X480107Y605492D01*
X480133Y605590D01*
X480154Y605689D01*
X480172Y605789D01*
X480185Y605889D01*
X480195Y605990D01*
X480201Y606091D01*
X480203Y606192D01*
X480202Y606192D02*
X480202Y612979D01*
X484430Y610891D02*
X487040Y612979D01*
X487040Y603581D01*
X484430Y603581D02*
X489651Y603581D01*
D11*
X622200Y548500D02*
X625700Y548500D01*
X625700Y492500D01*
X622200Y492500D01*
X554200Y548500D02*
X550700Y548500D01*
X550700Y492500D01*
X554200Y492500D01*
D17*
X616200Y571500D02*
X616202Y571563D01*
X616208Y571625D01*
X616218Y571687D01*
X616231Y571749D01*
X616249Y571809D01*
X616270Y571868D01*
X616295Y571926D01*
X616324Y571982D01*
X616356Y572036D01*
X616391Y572088D01*
X616429Y572137D01*
X616471Y572185D01*
X616515Y572229D01*
X616563Y572271D01*
X616612Y572309D01*
X616664Y572344D01*
X616718Y572376D01*
X616774Y572405D01*
X616832Y572430D01*
X616891Y572451D01*
X616951Y572469D01*
X617013Y572482D01*
X617075Y572492D01*
X617137Y572498D01*
X617200Y572500D01*
X617263Y572498D01*
X617325Y572492D01*
X617387Y572482D01*
X617449Y572469D01*
X617509Y572451D01*
X617568Y572430D01*
X617626Y572405D01*
X617682Y572376D01*
X617736Y572344D01*
X617788Y572309D01*
X617837Y572271D01*
X617885Y572229D01*
X617929Y572185D01*
X617971Y572137D01*
X618009Y572088D01*
X618044Y572036D01*
X618076Y571982D01*
X618105Y571926D01*
X618130Y571868D01*
X618151Y571809D01*
X618169Y571749D01*
X618182Y571687D01*
X618192Y571625D01*
X618198Y571563D01*
X618200Y571500D01*
X618198Y571437D01*
X618192Y571375D01*
X618182Y571313D01*
X618169Y571251D01*
X618151Y571191D01*
X618130Y571132D01*
X618105Y571074D01*
X618076Y571018D01*
X618044Y570964D01*
X618009Y570912D01*
X617971Y570863D01*
X617929Y570815D01*
X617885Y570771D01*
X617837Y570729D01*
X617788Y570691D01*
X617736Y570656D01*
X617682Y570624D01*
X617626Y570595D01*
X617568Y570570D01*
X617509Y570549D01*
X617449Y570531D01*
X617387Y570518D01*
X617325Y570508D01*
X617263Y570502D01*
X617200Y570500D01*
X617137Y570502D01*
X617075Y570508D01*
X617013Y570518D01*
X616951Y570531D01*
X616891Y570549D01*
X616832Y570570D01*
X616774Y570595D01*
X616718Y570624D01*
X616664Y570656D01*
X616612Y570691D01*
X616563Y570729D01*
X616515Y570771D01*
X616471Y570815D01*
X616429Y570863D01*
X616391Y570912D01*
X616356Y570964D01*
X616324Y571018D01*
X616295Y571074D01*
X616270Y571132D01*
X616249Y571191D01*
X616231Y571251D01*
X616218Y571313D01*
X616208Y571375D01*
X616202Y571437D01*
X616200Y571500D01*
D16*
X560462Y470018D02*
X560462Y458278D01*
X560464Y458145D01*
X560470Y458013D01*
X560480Y457881D01*
X560493Y457749D01*
X560511Y457617D01*
X560532Y457487D01*
X560557Y457356D01*
X560586Y457227D01*
X560619Y457099D01*
X560655Y456971D01*
X560695Y456845D01*
X560739Y456720D01*
X560787Y456596D01*
X560838Y456474D01*
X560893Y456353D01*
X560951Y456234D01*
X561013Y456116D01*
X561078Y456001D01*
X561147Y455887D01*
X561218Y455776D01*
X561294Y455667D01*
X561372Y455560D01*
X561453Y455455D01*
X561538Y455353D01*
X561625Y455253D01*
X561715Y455156D01*
X561808Y455061D01*
X561904Y454970D01*
X562002Y454881D01*
X562103Y454795D01*
X562207Y454712D01*
X562313Y454632D01*
X562421Y454556D01*
X562531Y454482D01*
X562644Y454412D01*
X562758Y454345D01*
X562875Y454282D01*
X562993Y454222D01*
X563113Y454165D01*
X563235Y454112D01*
X563358Y454063D01*
X563482Y454017D01*
X563608Y453975D01*
X563735Y453937D01*
X563863Y453902D01*
X563992Y453871D01*
X564121Y453844D01*
X564252Y453821D01*
X564383Y453801D01*
X564515Y453786D01*
X564647Y453774D01*
X564779Y453766D01*
X564912Y453762D01*
X565044Y453762D01*
X565177Y453766D01*
X565309Y453774D01*
X565441Y453786D01*
X565573Y453801D01*
X565704Y453821D01*
X565835Y453844D01*
X565964Y453871D01*
X566093Y453902D01*
X566221Y453937D01*
X566348Y453975D01*
X566474Y454017D01*
X566598Y454063D01*
X566721Y454112D01*
X566843Y454165D01*
X566963Y454222D01*
X567081Y454282D01*
X567198Y454345D01*
X567312Y454412D01*
X567425Y454482D01*
X567535Y454556D01*
X567643Y454632D01*
X567749Y454712D01*
X567853Y454795D01*
X567954Y454881D01*
X568052Y454970D01*
X568148Y455061D01*
X568241Y455156D01*
X568331Y455253D01*
X568418Y455353D01*
X568503Y455455D01*
X568584Y455560D01*
X568662Y455667D01*
X568738Y455776D01*
X568809Y455887D01*
X568878Y456001D01*
X568943Y456116D01*
X569005Y456234D01*
X569063Y456353D01*
X569118Y456474D01*
X569169Y456596D01*
X569217Y456720D01*
X569261Y456845D01*
X569301Y456971D01*
X569337Y457099D01*
X569370Y457227D01*
X569399Y457356D01*
X569424Y457487D01*
X569445Y457617D01*
X569463Y457749D01*
X569476Y457881D01*
X569486Y458013D01*
X569492Y458145D01*
X569494Y458278D01*
X569493Y458278D02*
X569493Y470018D01*
X581581Y470018D02*
X581706Y470016D01*
X581831Y470010D01*
X581956Y470001D01*
X582080Y469987D01*
X582204Y469970D01*
X582328Y469949D01*
X582450Y469924D01*
X582572Y469895D01*
X582693Y469863D01*
X582813Y469827D01*
X582932Y469787D01*
X583049Y469744D01*
X583165Y469697D01*
X583280Y469646D01*
X583392Y469592D01*
X583504Y469534D01*
X583613Y469474D01*
X583720Y469409D01*
X583826Y469342D01*
X583929Y469271D01*
X584030Y469197D01*
X584129Y469120D01*
X584225Y469040D01*
X584319Y468957D01*
X584410Y468872D01*
X584499Y468783D01*
X584584Y468692D01*
X584667Y468598D01*
X584747Y468502D01*
X584824Y468403D01*
X584898Y468302D01*
X584969Y468199D01*
X585036Y468093D01*
X585101Y467986D01*
X585161Y467877D01*
X585219Y467765D01*
X585273Y467653D01*
X585324Y467538D01*
X585371Y467422D01*
X585414Y467305D01*
X585454Y467186D01*
X585490Y467066D01*
X585522Y466945D01*
X585551Y466823D01*
X585576Y466701D01*
X585597Y466577D01*
X585614Y466453D01*
X585628Y466329D01*
X585637Y466204D01*
X585643Y466079D01*
X585645Y465954D01*
X581581Y470018D02*
X581438Y470016D01*
X581296Y470010D01*
X581153Y470000D01*
X581011Y469987D01*
X580870Y469969D01*
X580728Y469948D01*
X580588Y469923D01*
X580448Y469894D01*
X580309Y469861D01*
X580171Y469824D01*
X580034Y469784D01*
X579899Y469740D01*
X579764Y469692D01*
X579631Y469640D01*
X579499Y469585D01*
X579369Y469526D01*
X579241Y469464D01*
X579114Y469398D01*
X578989Y469329D01*
X578866Y469257D01*
X578746Y469181D01*
X578627Y469102D01*
X578510Y469019D01*
X578396Y468934D01*
X578284Y468845D01*
X578175Y468754D01*
X578068Y468659D01*
X577963Y468562D01*
X577862Y468461D01*
X577763Y468358D01*
X577667Y468253D01*
X577574Y468144D01*
X577484Y468033D01*
X577397Y467920D01*
X577313Y467805D01*
X577233Y467687D01*
X577155Y467567D01*
X577081Y467445D01*
X577011Y467321D01*
X576943Y467195D01*
X576880Y467067D01*
X576819Y466938D01*
X576762Y466807D01*
X576709Y466675D01*
X576660Y466541D01*
X576614Y466406D01*
X584290Y462793D02*
X584384Y462885D01*
X584474Y462979D01*
X584562Y463076D01*
X584647Y463176D01*
X584729Y463278D01*
X584808Y463383D01*
X584883Y463490D01*
X584955Y463599D01*
X585024Y463710D01*
X585090Y463824D01*
X585152Y463939D01*
X585211Y464056D01*
X585266Y464175D01*
X585317Y464295D01*
X585365Y464417D01*
X585410Y464540D01*
X585450Y464664D01*
X585487Y464790D01*
X585520Y464917D01*
X585549Y465044D01*
X585575Y465173D01*
X585596Y465302D01*
X585614Y465432D01*
X585627Y465562D01*
X585637Y465692D01*
X585643Y465823D01*
X585645Y465954D01*
X584291Y462793D02*
X576614Y453762D01*
X585645Y453762D01*
D18*
X421090Y488000D03*
D16*
X402700Y483500D02*
X402700Y480500D01*
X399700Y480500D01*
X334700Y480500D02*
X331700Y480500D01*
X331700Y483500D01*
X331700Y551500D02*
X334700Y551500D01*
X331700Y551500D02*
X331700Y548500D01*
X402700Y548500D02*
X402700Y551500D01*
X399700Y551500D01*
D13*
X411022Y459202D02*
X411022Y453859D01*
X411024Y453769D01*
X411030Y453680D01*
X411040Y453591D01*
X411053Y453502D01*
X411071Y453414D01*
X411092Y453327D01*
X411117Y453241D01*
X411146Y453156D01*
X411178Y453073D01*
X411215Y452991D01*
X411254Y452910D01*
X411297Y452832D01*
X411344Y452755D01*
X411394Y452680D01*
X411447Y452608D01*
X411503Y452538D01*
X411562Y452471D01*
X411624Y452406D01*
X411689Y452344D01*
X411756Y452285D01*
X411826Y452229D01*
X411898Y452176D01*
X411973Y452126D01*
X412050Y452079D01*
X412128Y452036D01*
X412209Y451997D01*
X412291Y451960D01*
X412374Y451928D01*
X412459Y451899D01*
X412545Y451874D01*
X412632Y451853D01*
X412720Y451835D01*
X412809Y451822D01*
X412898Y451812D01*
X412987Y451806D01*
X413077Y451804D01*
X413167Y451806D01*
X413256Y451812D01*
X413345Y451822D01*
X413434Y451835D01*
X413522Y451853D01*
X413609Y451874D01*
X413695Y451899D01*
X413780Y451928D01*
X413863Y451960D01*
X413945Y451997D01*
X414026Y452036D01*
X414105Y452079D01*
X414181Y452126D01*
X414256Y452176D01*
X414328Y452229D01*
X414398Y452285D01*
X414465Y452344D01*
X414530Y452406D01*
X414592Y452471D01*
X414651Y452538D01*
X414707Y452608D01*
X414760Y452680D01*
X414810Y452755D01*
X414857Y452832D01*
X414900Y452910D01*
X414939Y452991D01*
X414976Y453073D01*
X415008Y453156D01*
X415037Y453241D01*
X415062Y453327D01*
X415083Y453414D01*
X415101Y453502D01*
X415114Y453591D01*
X415124Y453680D01*
X415130Y453769D01*
X415132Y453859D01*
X415132Y459202D01*
X418611Y451804D02*
X420665Y451804D01*
X420755Y451806D01*
X420844Y451812D01*
X420933Y451822D01*
X421022Y451835D01*
X421110Y451853D01*
X421197Y451874D01*
X421283Y451899D01*
X421368Y451928D01*
X421451Y451960D01*
X421533Y451997D01*
X421614Y452036D01*
X421693Y452079D01*
X421769Y452126D01*
X421844Y452176D01*
X421916Y452229D01*
X421986Y452285D01*
X422053Y452344D01*
X422118Y452406D01*
X422180Y452471D01*
X422239Y452538D01*
X422295Y452608D01*
X422348Y452680D01*
X422398Y452755D01*
X422445Y452832D01*
X422488Y452910D01*
X422527Y452991D01*
X422564Y453073D01*
X422596Y453156D01*
X422625Y453241D01*
X422650Y453327D01*
X422671Y453414D01*
X422689Y453502D01*
X422702Y453591D01*
X422712Y453680D01*
X422718Y453769D01*
X422720Y453859D01*
X422718Y453949D01*
X422712Y454038D01*
X422702Y454127D01*
X422689Y454216D01*
X422671Y454304D01*
X422650Y454391D01*
X422625Y454477D01*
X422596Y454562D01*
X422564Y454645D01*
X422527Y454727D01*
X422488Y454808D01*
X422445Y454887D01*
X422398Y454963D01*
X422348Y455038D01*
X422295Y455110D01*
X422239Y455180D01*
X422180Y455247D01*
X422118Y455312D01*
X422053Y455374D01*
X421986Y455433D01*
X421916Y455489D01*
X421844Y455542D01*
X421769Y455592D01*
X421693Y455639D01*
X421614Y455682D01*
X421533Y455721D01*
X421451Y455758D01*
X421368Y455790D01*
X421283Y455819D01*
X421197Y455844D01*
X421110Y455865D01*
X421022Y455883D01*
X420933Y455896D01*
X420844Y455906D01*
X420755Y455912D01*
X420665Y455914D01*
X421076Y459202D02*
X418611Y459202D01*
X421076Y459202D02*
X421155Y459200D01*
X421235Y459194D01*
X421314Y459185D01*
X421392Y459171D01*
X421469Y459154D01*
X421546Y459133D01*
X421622Y459109D01*
X421696Y459081D01*
X421769Y459049D01*
X421840Y459014D01*
X421909Y458975D01*
X421977Y458933D01*
X422042Y458888D01*
X422105Y458840D01*
X422166Y458789D01*
X422224Y458734D01*
X422280Y458678D01*
X422333Y458618D01*
X422382Y458556D01*
X422429Y458492D01*
X422473Y458425D01*
X422513Y458357D01*
X422550Y458287D01*
X422583Y458215D01*
X422613Y458141D01*
X422640Y458066D01*
X422662Y457990D01*
X422681Y457913D01*
X422697Y457835D01*
X422708Y457756D01*
X422716Y457677D01*
X422720Y457598D01*
X422720Y457518D01*
X422716Y457439D01*
X422708Y457360D01*
X422697Y457281D01*
X422681Y457203D01*
X422662Y457126D01*
X422640Y457050D01*
X422613Y456975D01*
X422583Y456901D01*
X422550Y456829D01*
X422513Y456759D01*
X422473Y456691D01*
X422429Y456624D01*
X422382Y456560D01*
X422333Y456498D01*
X422280Y456438D01*
X422224Y456382D01*
X422166Y456327D01*
X422105Y456276D01*
X422042Y456228D01*
X421977Y456183D01*
X421909Y456141D01*
X421840Y456102D01*
X421769Y456067D01*
X421696Y456035D01*
X421622Y456007D01*
X421546Y455983D01*
X421469Y455962D01*
X421392Y455945D01*
X421314Y455931D01*
X421235Y455922D01*
X421155Y455916D01*
X421076Y455914D01*
X419432Y455914D01*
D16*
X323342Y252476D02*
X295656Y252476D01*
X415544Y252476D02*
X415544Y302260D01*
X415544Y392176D02*
X295656Y392176D01*
X295656Y335026D01*
X337820Y252476D02*
X348234Y252476D01*
X362966Y252476D02*
X373380Y252476D01*
X387858Y252476D02*
X415544Y252476D01*
X295656Y252476D02*
X295656Y302260D01*
X415544Y335026D02*
X415544Y392176D01*
D13*
X328895Y324471D02*
X328895Y320492D01*
X331216Y317507D01*
X328895Y320492D02*
X326573Y317507D01*
X328895Y320492D02*
X332542Y321818D01*
X328895Y320492D02*
X325247Y321818D01*
X323215Y249555D02*
X323215Y240933D01*
X323217Y240819D01*
X323223Y240704D01*
X323233Y240590D01*
X323247Y240477D01*
X323264Y240363D01*
X323286Y240251D01*
X323311Y240139D01*
X323341Y240029D01*
X323374Y239919D01*
X323411Y239811D01*
X323451Y239704D01*
X323496Y239598D01*
X323543Y239494D01*
X323595Y239392D01*
X323650Y239292D01*
X323708Y239193D01*
X323770Y239097D01*
X323835Y239002D01*
X323903Y238911D01*
X323975Y238821D01*
X324049Y238734D01*
X324126Y238650D01*
X324207Y238568D01*
X324290Y238489D01*
X324375Y238413D01*
X324464Y238340D01*
X324554Y238271D01*
X324647Y238204D01*
X324743Y238141D01*
X324840Y238081D01*
X324940Y238024D01*
X325041Y237971D01*
X325144Y237921D01*
X325249Y237875D01*
X325355Y237832D01*
X325463Y237794D01*
X325572Y237759D01*
X325682Y237728D01*
X325793Y237700D01*
X325905Y237677D01*
X326018Y237657D01*
X326131Y237641D01*
X326245Y237629D01*
X326359Y237621D01*
X326474Y237617D01*
X326588Y237617D01*
X326703Y237621D01*
X326817Y237629D01*
X326931Y237641D01*
X327044Y237657D01*
X327157Y237677D01*
X327269Y237700D01*
X327380Y237728D01*
X327490Y237759D01*
X327599Y237794D01*
X327707Y237832D01*
X327813Y237875D01*
X327918Y237921D01*
X328021Y237971D01*
X328122Y238024D01*
X328222Y238081D01*
X328319Y238141D01*
X328415Y238204D01*
X328508Y238271D01*
X328598Y238340D01*
X328687Y238413D01*
X328772Y238489D01*
X328855Y238568D01*
X328936Y238650D01*
X329013Y238734D01*
X329087Y238821D01*
X329159Y238911D01*
X329227Y239002D01*
X329292Y239097D01*
X329354Y239193D01*
X329412Y239292D01*
X329467Y239392D01*
X329519Y239494D01*
X329566Y239598D01*
X329611Y239704D01*
X329651Y239811D01*
X329688Y239919D01*
X329721Y240029D01*
X329751Y240139D01*
X329776Y240251D01*
X329798Y240363D01*
X329815Y240477D01*
X329829Y240590D01*
X329839Y240704D01*
X329845Y240819D01*
X329847Y240933D01*
X329847Y249555D01*
X337679Y249555D02*
X335026Y240270D01*
X341658Y240270D01*
X339669Y242923D02*
X339669Y237617D01*
X293015Y219617D02*
X287709Y219617D01*
X287709Y231555D01*
X293015Y231555D01*
X291688Y226249D02*
X287709Y226249D01*
X297595Y231555D02*
X297595Y219617D01*
X304227Y219617D02*
X297595Y231555D01*
X304227Y231555D02*
X304227Y219617D01*
X309406Y228902D02*
X312722Y231555D01*
X312722Y219617D01*
X309406Y219617D02*
X316038Y219617D01*
X320836Y228902D02*
X324152Y231555D01*
X324152Y219617D01*
X320836Y219617D02*
X327468Y219617D01*
X332365Y224260D02*
X340324Y224260D01*
X345601Y219617D02*
X345601Y231555D01*
X345601Y226249D02*
X352233Y226249D01*
X352233Y231555D02*
X352233Y219617D01*
X361010Y219617D02*
X361112Y219619D01*
X361213Y219625D01*
X361314Y219635D01*
X361415Y219648D01*
X361515Y219666D01*
X361614Y219687D01*
X361713Y219712D01*
X361810Y219741D01*
X361907Y219773D01*
X362002Y219809D01*
X362095Y219849D01*
X362187Y219892D01*
X362277Y219939D01*
X362366Y219990D01*
X362452Y220043D01*
X362536Y220100D01*
X362618Y220160D01*
X362698Y220223D01*
X362775Y220289D01*
X362850Y220358D01*
X362922Y220430D01*
X362991Y220505D01*
X363057Y220582D01*
X363120Y220662D01*
X363180Y220744D01*
X363237Y220828D01*
X363290Y220914D01*
X363341Y221003D01*
X363388Y221093D01*
X363431Y221185D01*
X363471Y221278D01*
X363507Y221373D01*
X363539Y221470D01*
X363568Y221567D01*
X363593Y221666D01*
X363614Y221765D01*
X363632Y221865D01*
X363645Y221966D01*
X363655Y222067D01*
X363661Y222168D01*
X363663Y222270D01*
X361010Y219617D02*
X360863Y219619D01*
X360715Y219625D01*
X360568Y219634D01*
X360421Y219648D01*
X360275Y219665D01*
X360129Y219687D01*
X359983Y219712D01*
X359839Y219741D01*
X359695Y219773D01*
X359552Y219810D01*
X359410Y219850D01*
X359269Y219894D01*
X359130Y219942D01*
X358992Y219993D01*
X358855Y220048D01*
X358719Y220107D01*
X358585Y220169D01*
X358453Y220234D01*
X358323Y220303D01*
X358194Y220376D01*
X358068Y220451D01*
X357943Y220530D01*
X357821Y220613D01*
X357701Y220698D01*
X357583Y220787D01*
X357468Y220879D01*
X357354Y220973D01*
X357244Y221071D01*
X357136Y221172D01*
X357031Y221275D01*
X357363Y228902D02*
X357365Y229004D01*
X357371Y229105D01*
X357381Y229206D01*
X357394Y229307D01*
X357412Y229407D01*
X357433Y229506D01*
X357458Y229605D01*
X357487Y229702D01*
X357519Y229799D01*
X357555Y229894D01*
X357595Y229987D01*
X357638Y230079D01*
X357685Y230169D01*
X357736Y230258D01*
X357789Y230344D01*
X357846Y230428D01*
X357906Y230510D01*
X357969Y230590D01*
X358035Y230667D01*
X358104Y230742D01*
X358176Y230814D01*
X358251Y230883D01*
X358328Y230949D01*
X358408Y231012D01*
X358490Y231072D01*
X358574Y231129D01*
X358660Y231182D01*
X358749Y231233D01*
X358839Y231280D01*
X358931Y231323D01*
X359024Y231363D01*
X359119Y231399D01*
X359216Y231431D01*
X359313Y231460D01*
X359412Y231485D01*
X359511Y231506D01*
X359611Y231524D01*
X359712Y231537D01*
X359813Y231547D01*
X359914Y231553D01*
X360016Y231555D01*
X360015Y231555D02*
X360154Y231553D01*
X360293Y231547D01*
X360432Y231537D01*
X360571Y231524D01*
X360709Y231506D01*
X360846Y231485D01*
X360983Y231460D01*
X361119Y231431D01*
X361254Y231398D01*
X361389Y231362D01*
X361522Y231321D01*
X361654Y231277D01*
X361785Y231230D01*
X361914Y231178D01*
X362042Y231123D01*
X362168Y231065D01*
X362293Y231003D01*
X362415Y230937D01*
X362536Y230869D01*
X362655Y230796D01*
X362772Y230721D01*
X362887Y230642D01*
X362999Y230560D01*
X358689Y226581D02*
X358604Y226633D01*
X358521Y226689D01*
X358440Y226747D01*
X358361Y226809D01*
X358285Y226873D01*
X358211Y226940D01*
X358139Y227010D01*
X358071Y227082D01*
X358004Y227157D01*
X357941Y227234D01*
X357881Y227314D01*
X357823Y227396D01*
X357769Y227480D01*
X357718Y227565D01*
X357670Y227653D01*
X357625Y227742D01*
X357584Y227833D01*
X357546Y227926D01*
X357512Y228020D01*
X357481Y228114D01*
X357453Y228211D01*
X357429Y228308D01*
X357409Y228405D01*
X357393Y228504D01*
X357380Y228603D01*
X357370Y228702D01*
X357365Y228802D01*
X357363Y228902D01*
X362337Y224591D02*
X362422Y224539D01*
X362505Y224483D01*
X362586Y224425D01*
X362665Y224363D01*
X362741Y224299D01*
X362815Y224232D01*
X362887Y224162D01*
X362955Y224090D01*
X363022Y224015D01*
X363085Y223938D01*
X363145Y223858D01*
X363203Y223776D01*
X363257Y223692D01*
X363308Y223607D01*
X363356Y223519D01*
X363401Y223430D01*
X363442Y223339D01*
X363480Y223246D01*
X363514Y223153D01*
X363545Y223058D01*
X363573Y222961D01*
X363597Y222864D01*
X363617Y222767D01*
X363633Y222668D01*
X363646Y222569D01*
X363656Y222470D01*
X363661Y222370D01*
X363663Y222270D01*
X362337Y224591D02*
X358689Y226581D01*
X368560Y231555D02*
X368560Y219617D01*
X372539Y224923D02*
X368560Y231555D01*
X372539Y224923D02*
X376518Y231555D01*
X376518Y219617D01*
X381796Y228902D02*
X385112Y231555D01*
X385112Y219617D01*
X381796Y219617D02*
X388428Y219617D01*
X393755Y226249D02*
X397071Y226249D01*
X397185Y226247D01*
X397300Y226241D01*
X397414Y226231D01*
X397527Y226217D01*
X397641Y226200D01*
X397753Y226178D01*
X397865Y226153D01*
X397975Y226123D01*
X398085Y226090D01*
X398193Y226053D01*
X398300Y226013D01*
X398406Y225968D01*
X398510Y225921D01*
X398612Y225869D01*
X398712Y225814D01*
X398811Y225756D01*
X398907Y225694D01*
X399002Y225629D01*
X399093Y225561D01*
X399183Y225489D01*
X399270Y225415D01*
X399354Y225338D01*
X399436Y225257D01*
X399515Y225174D01*
X399591Y225089D01*
X399664Y225000D01*
X399733Y224910D01*
X399800Y224817D01*
X399863Y224721D01*
X399923Y224624D01*
X399980Y224524D01*
X400033Y224423D01*
X400083Y224320D01*
X400129Y224215D01*
X400172Y224109D01*
X400210Y224001D01*
X400245Y223892D01*
X400276Y223782D01*
X400304Y223671D01*
X400327Y223559D01*
X400347Y223446D01*
X400363Y223333D01*
X400375Y223219D01*
X400383Y223105D01*
X400387Y222990D01*
X400387Y222876D01*
X400383Y222761D01*
X400375Y222647D01*
X400363Y222533D01*
X400347Y222420D01*
X400327Y222307D01*
X400304Y222195D01*
X400276Y222084D01*
X400245Y221974D01*
X400210Y221865D01*
X400172Y221757D01*
X400129Y221651D01*
X400083Y221546D01*
X400033Y221443D01*
X399980Y221342D01*
X399923Y221242D01*
X399863Y221145D01*
X399800Y221049D01*
X399733Y220956D01*
X399664Y220866D01*
X399591Y220777D01*
X399515Y220692D01*
X399436Y220609D01*
X399354Y220528D01*
X399270Y220451D01*
X399183Y220377D01*
X399093Y220305D01*
X399002Y220237D01*
X398907Y220172D01*
X398811Y220110D01*
X398712Y220052D01*
X398612Y219997D01*
X398510Y219945D01*
X398406Y219898D01*
X398300Y219853D01*
X398193Y219813D01*
X398085Y219776D01*
X397975Y219743D01*
X397865Y219713D01*
X397753Y219688D01*
X397641Y219666D01*
X397527Y219649D01*
X397414Y219635D01*
X397300Y219625D01*
X397185Y219619D01*
X397071Y219617D01*
X393755Y219617D01*
X393755Y231555D01*
X397071Y231555D01*
X397173Y231553D01*
X397274Y231547D01*
X397375Y231537D01*
X397476Y231524D01*
X397576Y231506D01*
X397675Y231485D01*
X397774Y231460D01*
X397871Y231431D01*
X397968Y231399D01*
X398063Y231363D01*
X398156Y231323D01*
X398248Y231280D01*
X398338Y231233D01*
X398427Y231182D01*
X398513Y231129D01*
X398597Y231072D01*
X398679Y231012D01*
X398759Y230949D01*
X398836Y230883D01*
X398911Y230814D01*
X398983Y230742D01*
X399052Y230667D01*
X399118Y230590D01*
X399181Y230510D01*
X399241Y230428D01*
X399298Y230344D01*
X399351Y230258D01*
X399402Y230169D01*
X399449Y230079D01*
X399492Y229987D01*
X399532Y229894D01*
X399568Y229799D01*
X399600Y229702D01*
X399629Y229605D01*
X399654Y229506D01*
X399675Y229407D01*
X399693Y229307D01*
X399706Y229206D01*
X399716Y229105D01*
X399722Y229004D01*
X399724Y228902D01*
X399722Y228800D01*
X399716Y228699D01*
X399706Y228598D01*
X399693Y228497D01*
X399675Y228397D01*
X399654Y228298D01*
X399629Y228199D01*
X399600Y228102D01*
X399568Y228005D01*
X399532Y227910D01*
X399492Y227817D01*
X399449Y227725D01*
X399402Y227635D01*
X399351Y227546D01*
X399298Y227460D01*
X399241Y227376D01*
X399181Y227294D01*
X399118Y227214D01*
X399052Y227137D01*
X398983Y227062D01*
X398911Y226990D01*
X398836Y226921D01*
X398759Y226855D01*
X398679Y226792D01*
X398597Y226732D01*
X398513Y226675D01*
X398427Y226622D01*
X398338Y226571D01*
X398248Y226524D01*
X398156Y226481D01*
X398063Y226441D01*
X397968Y226405D01*
X397871Y226373D01*
X397774Y226344D01*
X397675Y226319D01*
X397576Y226298D01*
X397476Y226280D01*
X397375Y226267D01*
X397274Y226257D01*
X397173Y226251D01*
X397071Y226249D01*
X405057Y231555D02*
X405057Y219617D01*
X405057Y231555D02*
X410362Y231555D01*
X410362Y226249D02*
X405057Y226249D01*
X418210Y231556D02*
X418317Y231554D01*
X418423Y231548D01*
X418529Y231539D01*
X418635Y231526D01*
X418740Y231509D01*
X418845Y231488D01*
X418948Y231463D01*
X419051Y231435D01*
X419153Y231403D01*
X419253Y231368D01*
X419352Y231329D01*
X419450Y231286D01*
X419546Y231240D01*
X419641Y231191D01*
X419733Y231138D01*
X419824Y231082D01*
X419912Y231023D01*
X419999Y230961D01*
X420083Y230895D01*
X420165Y230827D01*
X420244Y230756D01*
X420321Y230682D01*
X420395Y230605D01*
X420466Y230526D01*
X420534Y230444D01*
X420600Y230360D01*
X420662Y230273D01*
X420721Y230185D01*
X420777Y230094D01*
X420830Y230002D01*
X420879Y229907D01*
X420925Y229811D01*
X420968Y229713D01*
X421007Y229614D01*
X421042Y229514D01*
X421074Y229412D01*
X421102Y229309D01*
X421127Y229206D01*
X421148Y229101D01*
X421165Y228996D01*
X421178Y228890D01*
X421187Y228784D01*
X421193Y228678D01*
X421195Y228571D01*
X418210Y231555D02*
X418089Y231553D01*
X417969Y231547D01*
X417849Y231538D01*
X417729Y231525D01*
X417610Y231508D01*
X417491Y231487D01*
X417373Y231463D01*
X417256Y231434D01*
X417140Y231403D01*
X417024Y231367D01*
X416910Y231328D01*
X416798Y231285D01*
X416686Y231239D01*
X416576Y231190D01*
X416468Y231136D01*
X416362Y231080D01*
X416257Y231020D01*
X416154Y230957D01*
X416054Y230891D01*
X415955Y230822D01*
X415859Y230749D01*
X415765Y230674D01*
X415673Y230596D01*
X415584Y230514D01*
X415497Y230430D01*
X415414Y230344D01*
X415332Y230255D01*
X415254Y230163D01*
X415179Y230069D01*
X415107Y229972D01*
X415037Y229874D01*
X414971Y229773D01*
X414908Y229670D01*
X414849Y229565D01*
X414792Y229459D01*
X414739Y229350D01*
X414690Y229241D01*
X414644Y229129D01*
X414601Y229016D01*
X414563Y228902D01*
X420199Y226249D02*
X420279Y226329D01*
X420357Y226411D01*
X420431Y226495D01*
X420503Y226583D01*
X420571Y226673D01*
X420637Y226765D01*
X420699Y226859D01*
X420757Y226955D01*
X420812Y227054D01*
X420864Y227154D01*
X420912Y227256D01*
X420957Y227360D01*
X420997Y227465D01*
X421034Y227572D01*
X421068Y227680D01*
X421097Y227789D01*
X421123Y227899D01*
X421144Y228010D01*
X421162Y228121D01*
X421176Y228233D01*
X421186Y228345D01*
X421192Y228458D01*
X421194Y228571D01*
X420199Y226249D02*
X414562Y219617D01*
X421194Y219617D01*
X425992Y225586D02*
X425995Y225821D01*
X426003Y226056D01*
X426017Y226290D01*
X426037Y226524D01*
X426062Y226758D01*
X426093Y226990D01*
X426129Y227222D01*
X426171Y227454D01*
X426218Y227684D01*
X426271Y227912D01*
X426329Y228140D01*
X426393Y228366D01*
X426462Y228590D01*
X426536Y228813D01*
X426616Y229034D01*
X426701Y229253D01*
X426791Y229470D01*
X426886Y229685D01*
X426987Y229897D01*
X427020Y229989D01*
X427058Y230080D01*
X427099Y230169D01*
X427143Y230257D01*
X427191Y230342D01*
X427242Y230426D01*
X427297Y230508D01*
X427355Y230587D01*
X427416Y230664D01*
X427480Y230738D01*
X427547Y230810D01*
X427617Y230879D01*
X427689Y230945D01*
X427764Y231009D01*
X427842Y231069D01*
X427922Y231126D01*
X428004Y231180D01*
X428088Y231230D01*
X428174Y231277D01*
X428262Y231321D01*
X428352Y231361D01*
X428443Y231398D01*
X428536Y231430D01*
X428630Y231459D01*
X428724Y231485D01*
X428820Y231506D01*
X428917Y231524D01*
X429014Y231537D01*
X429112Y231547D01*
X429210Y231553D01*
X429308Y231555D01*
X429406Y231553D01*
X429504Y231547D01*
X429602Y231537D01*
X429699Y231524D01*
X429796Y231506D01*
X429892Y231485D01*
X429986Y231459D01*
X430080Y231430D01*
X430173Y231398D01*
X430264Y231361D01*
X430354Y231321D01*
X430442Y231277D01*
X430528Y231230D01*
X430612Y231180D01*
X430694Y231126D01*
X430774Y231069D01*
X430852Y231009D01*
X430927Y230945D01*
X430999Y230879D01*
X431069Y230810D01*
X431136Y230738D01*
X431200Y230664D01*
X431261Y230587D01*
X431319Y230508D01*
X431374Y230426D01*
X431425Y230342D01*
X431473Y230257D01*
X431517Y230169D01*
X431558Y230080D01*
X431596Y229989D01*
X431629Y229897D01*
X431730Y229685D01*
X431825Y229470D01*
X431915Y229253D01*
X432000Y229034D01*
X432080Y228813D01*
X432154Y228591D01*
X432223Y228366D01*
X432287Y228140D01*
X432345Y227912D01*
X432398Y227684D01*
X432445Y227454D01*
X432487Y227222D01*
X432523Y226990D01*
X432554Y226758D01*
X432579Y226524D01*
X432599Y226290D01*
X432613Y226056D01*
X432621Y225821D01*
X432624Y225586D01*
X425992Y225586D02*
X425995Y225351D01*
X426003Y225116D01*
X426017Y224882D01*
X426037Y224648D01*
X426062Y224414D01*
X426093Y224182D01*
X426129Y223950D01*
X426171Y223719D01*
X426218Y223488D01*
X426271Y223260D01*
X426329Y223032D01*
X426393Y222806D01*
X426462Y222582D01*
X426536Y222359D01*
X426616Y222138D01*
X426701Y221919D01*
X426791Y221702D01*
X426886Y221487D01*
X426987Y221275D01*
X427020Y221183D01*
X427058Y221092D01*
X427099Y221003D01*
X427143Y220915D01*
X427191Y220830D01*
X427243Y220746D01*
X427297Y220664D01*
X427355Y220585D01*
X427416Y220508D01*
X427480Y220434D01*
X427547Y220362D01*
X427617Y220293D01*
X427689Y220227D01*
X427764Y220163D01*
X427842Y220103D01*
X427922Y220046D01*
X428004Y219992D01*
X428088Y219942D01*
X428174Y219895D01*
X428262Y219851D01*
X428352Y219811D01*
X428443Y219774D01*
X428536Y219742D01*
X428630Y219713D01*
X428724Y219687D01*
X428820Y219666D01*
X428917Y219648D01*
X429014Y219635D01*
X429112Y219625D01*
X429210Y219619D01*
X429308Y219617D01*
X431629Y221275D02*
X431730Y221487D01*
X431825Y221702D01*
X431915Y221919D01*
X432000Y222138D01*
X432080Y222359D01*
X432154Y222582D01*
X432223Y222806D01*
X432287Y223032D01*
X432345Y223260D01*
X432398Y223488D01*
X432445Y223718D01*
X432487Y223950D01*
X432523Y224182D01*
X432554Y224414D01*
X432579Y224648D01*
X432599Y224882D01*
X432613Y225116D01*
X432621Y225351D01*
X432624Y225586D01*
X431629Y221275D02*
X431596Y221183D01*
X431558Y221092D01*
X431517Y221003D01*
X431473Y220915D01*
X431425Y220830D01*
X431374Y220746D01*
X431319Y220664D01*
X431261Y220585D01*
X431200Y220508D01*
X431136Y220434D01*
X431069Y220362D01*
X430999Y220293D01*
X430927Y220227D01*
X430852Y220163D01*
X430774Y220103D01*
X430694Y220046D01*
X430612Y219992D01*
X430528Y219942D01*
X430442Y219895D01*
X430354Y219851D01*
X430264Y219811D01*
X430173Y219774D01*
X430080Y219742D01*
X429986Y219713D01*
X429892Y219687D01*
X429796Y219666D01*
X429699Y219648D01*
X429602Y219635D01*
X429504Y219625D01*
X429406Y219619D01*
X429308Y219617D01*
X426655Y222270D02*
X431961Y228902D01*
D19*
X588189Y585098D02*
X588189Y598098D01*
X625687Y598098D02*
X625687Y585098D01*
D11*
X604291Y576086D02*
X602682Y578365D01*
X604291Y576086D02*
X605900Y578365D01*
X604291Y576086D02*
X604291Y573539D01*
X608437Y577293D02*
X609777Y578365D01*
X609777Y573539D01*
X608437Y573539D02*
X611118Y573539D01*
M02*
