G04 EAGLE Gerber RS-274X export*
G75*
%MOMM*%
%FSLAX34Y34*%
%LPD*%
%INSilkscreen Top*%
%IPPOS*%
%AMOC8*
5,1,8,0,0,1.08239X$1,22.5*%
G01*
%ADD10C,0.101600*%
%ADD11C,0.127000*%
%ADD12C,0.200000*%
%ADD13C,0.076200*%
%ADD14R,0.150000X0.300000*%
%ADD15R,0.300000X0.300000*%
%ADD16C,0.152400*%
%ADD17C,0.300000*%
%ADD18C,0.508000*%
%ADD19C,0.203200*%


D10*
X529392Y596601D02*
X529392Y594004D01*
X529390Y593905D01*
X529384Y593805D01*
X529375Y593706D01*
X529362Y593608D01*
X529345Y593510D01*
X529324Y593412D01*
X529299Y593316D01*
X529271Y593221D01*
X529239Y593127D01*
X529204Y593034D01*
X529165Y592942D01*
X529122Y592852D01*
X529077Y592764D01*
X529027Y592677D01*
X528975Y592593D01*
X528919Y592510D01*
X528861Y592430D01*
X528799Y592352D01*
X528734Y592277D01*
X528666Y592204D01*
X528596Y592134D01*
X528523Y592066D01*
X528448Y592001D01*
X528370Y591939D01*
X528290Y591881D01*
X528207Y591825D01*
X528123Y591773D01*
X528036Y591723D01*
X527948Y591678D01*
X527858Y591635D01*
X527766Y591596D01*
X527673Y591561D01*
X527579Y591529D01*
X527484Y591501D01*
X527388Y591476D01*
X527290Y591455D01*
X527192Y591438D01*
X527094Y591425D01*
X526995Y591416D01*
X526895Y591410D01*
X526796Y591408D01*
X520304Y591408D01*
X520205Y591410D01*
X520105Y591416D01*
X520006Y591425D01*
X519908Y591438D01*
X519810Y591456D01*
X519712Y591476D01*
X519616Y591501D01*
X519520Y591529D01*
X519426Y591561D01*
X519333Y591596D01*
X519242Y591635D01*
X519152Y591678D01*
X519063Y591723D01*
X518977Y591773D01*
X518892Y591825D01*
X518810Y591881D01*
X518730Y591940D01*
X518652Y592001D01*
X518576Y592066D01*
X518503Y592134D01*
X518433Y592204D01*
X518365Y592277D01*
X518300Y592353D01*
X518239Y592431D01*
X518180Y592511D01*
X518124Y592593D01*
X518072Y592678D01*
X518023Y592764D01*
X517977Y592853D01*
X517934Y592943D01*
X517895Y593034D01*
X517860Y593127D01*
X517828Y593221D01*
X517800Y593317D01*
X517775Y593413D01*
X517755Y593511D01*
X517737Y593609D01*
X517724Y593707D01*
X517715Y593806D01*
X517709Y593905D01*
X517707Y594005D01*
X517708Y594004D02*
X517708Y596601D01*
X520304Y600966D02*
X517708Y604212D01*
X529392Y604212D01*
X529392Y607457D02*
X529392Y600966D01*
X505492Y596701D02*
X505492Y594104D01*
X505490Y594005D01*
X505484Y593905D01*
X505475Y593806D01*
X505462Y593708D01*
X505445Y593610D01*
X505424Y593512D01*
X505399Y593416D01*
X505371Y593321D01*
X505339Y593227D01*
X505304Y593134D01*
X505265Y593042D01*
X505222Y592952D01*
X505177Y592864D01*
X505127Y592777D01*
X505075Y592693D01*
X505019Y592610D01*
X504961Y592530D01*
X504899Y592452D01*
X504834Y592377D01*
X504766Y592304D01*
X504696Y592234D01*
X504623Y592166D01*
X504548Y592101D01*
X504470Y592039D01*
X504390Y591981D01*
X504307Y591925D01*
X504223Y591873D01*
X504136Y591823D01*
X504048Y591778D01*
X503958Y591735D01*
X503866Y591696D01*
X503773Y591661D01*
X503679Y591629D01*
X503584Y591601D01*
X503488Y591576D01*
X503390Y591555D01*
X503292Y591538D01*
X503194Y591525D01*
X503095Y591516D01*
X502995Y591510D01*
X502896Y591508D01*
X496404Y591508D01*
X496305Y591510D01*
X496205Y591516D01*
X496106Y591525D01*
X496008Y591538D01*
X495910Y591556D01*
X495812Y591576D01*
X495716Y591601D01*
X495620Y591629D01*
X495526Y591661D01*
X495433Y591696D01*
X495342Y591735D01*
X495252Y591778D01*
X495163Y591823D01*
X495077Y591873D01*
X494992Y591925D01*
X494910Y591981D01*
X494830Y592040D01*
X494752Y592101D01*
X494676Y592166D01*
X494603Y592234D01*
X494533Y592304D01*
X494465Y592377D01*
X494400Y592453D01*
X494339Y592531D01*
X494280Y592611D01*
X494224Y592693D01*
X494172Y592778D01*
X494123Y592864D01*
X494077Y592953D01*
X494034Y593043D01*
X493995Y593134D01*
X493960Y593227D01*
X493928Y593321D01*
X493900Y593417D01*
X493875Y593513D01*
X493855Y593611D01*
X493837Y593709D01*
X493824Y593807D01*
X493815Y593906D01*
X493809Y594005D01*
X493807Y594105D01*
X493808Y594104D02*
X493808Y596701D01*
X493808Y604636D02*
X493810Y604743D01*
X493816Y604849D01*
X493826Y604955D01*
X493839Y605061D01*
X493857Y605167D01*
X493878Y605271D01*
X493903Y605375D01*
X493932Y605478D01*
X493964Y605579D01*
X494001Y605679D01*
X494041Y605778D01*
X494084Y605876D01*
X494131Y605972D01*
X494182Y606066D01*
X494236Y606158D01*
X494293Y606248D01*
X494353Y606336D01*
X494417Y606421D01*
X494484Y606504D01*
X494554Y606585D01*
X494626Y606663D01*
X494702Y606739D01*
X494780Y606811D01*
X494861Y606881D01*
X494944Y606948D01*
X495029Y607012D01*
X495117Y607072D01*
X495207Y607129D01*
X495299Y607183D01*
X495393Y607234D01*
X495489Y607281D01*
X495587Y607324D01*
X495686Y607364D01*
X495786Y607401D01*
X495887Y607433D01*
X495990Y607462D01*
X496094Y607487D01*
X496198Y607508D01*
X496304Y607526D01*
X496410Y607539D01*
X496516Y607549D01*
X496622Y607555D01*
X496729Y607557D01*
X493808Y604636D02*
X493810Y604515D01*
X493816Y604394D01*
X493826Y604274D01*
X493839Y604153D01*
X493857Y604034D01*
X493878Y603914D01*
X493903Y603796D01*
X493932Y603679D01*
X493965Y603562D01*
X494001Y603447D01*
X494042Y603333D01*
X494085Y603220D01*
X494133Y603108D01*
X494184Y602999D01*
X494239Y602891D01*
X494297Y602784D01*
X494358Y602680D01*
X494423Y602578D01*
X494491Y602478D01*
X494562Y602380D01*
X494636Y602284D01*
X494713Y602191D01*
X494794Y602101D01*
X494877Y602013D01*
X494963Y601928D01*
X495052Y601845D01*
X495143Y601766D01*
X495237Y601689D01*
X495333Y601616D01*
X495431Y601546D01*
X495532Y601479D01*
X495635Y601415D01*
X495740Y601355D01*
X495847Y601297D01*
X495955Y601244D01*
X496065Y601194D01*
X496177Y601148D01*
X496290Y601105D01*
X496405Y601066D01*
X499001Y606583D02*
X498923Y606662D01*
X498843Y606738D01*
X498760Y606811D01*
X498674Y606881D01*
X498587Y606948D01*
X498496Y607012D01*
X498404Y607072D01*
X498310Y607130D01*
X498213Y607184D01*
X498115Y607234D01*
X498015Y607281D01*
X497914Y607325D01*
X497811Y607365D01*
X497706Y607401D01*
X497601Y607433D01*
X497494Y607462D01*
X497387Y607487D01*
X497278Y607509D01*
X497169Y607526D01*
X497060Y607540D01*
X496950Y607549D01*
X496839Y607555D01*
X496729Y607557D01*
X499001Y606584D02*
X505492Y601066D01*
X505492Y607557D01*
X431292Y577201D02*
X431292Y574604D01*
X431290Y574505D01*
X431284Y574405D01*
X431275Y574306D01*
X431262Y574208D01*
X431245Y574110D01*
X431224Y574012D01*
X431199Y573916D01*
X431171Y573821D01*
X431139Y573727D01*
X431104Y573634D01*
X431065Y573542D01*
X431022Y573452D01*
X430977Y573364D01*
X430927Y573277D01*
X430875Y573193D01*
X430819Y573110D01*
X430761Y573030D01*
X430699Y572952D01*
X430634Y572877D01*
X430566Y572804D01*
X430496Y572734D01*
X430423Y572666D01*
X430348Y572601D01*
X430270Y572539D01*
X430190Y572481D01*
X430107Y572425D01*
X430023Y572373D01*
X429936Y572323D01*
X429848Y572278D01*
X429758Y572235D01*
X429666Y572196D01*
X429573Y572161D01*
X429479Y572129D01*
X429384Y572101D01*
X429288Y572076D01*
X429190Y572055D01*
X429092Y572038D01*
X428994Y572025D01*
X428895Y572016D01*
X428795Y572010D01*
X428696Y572008D01*
X422204Y572008D01*
X422105Y572010D01*
X422005Y572016D01*
X421906Y572025D01*
X421808Y572038D01*
X421710Y572056D01*
X421612Y572076D01*
X421516Y572101D01*
X421420Y572129D01*
X421326Y572161D01*
X421233Y572196D01*
X421142Y572235D01*
X421052Y572278D01*
X420963Y572323D01*
X420877Y572373D01*
X420792Y572425D01*
X420710Y572481D01*
X420630Y572540D01*
X420552Y572601D01*
X420476Y572666D01*
X420403Y572734D01*
X420333Y572804D01*
X420265Y572877D01*
X420200Y572953D01*
X420139Y573031D01*
X420080Y573111D01*
X420024Y573193D01*
X419972Y573278D01*
X419923Y573364D01*
X419877Y573453D01*
X419834Y573543D01*
X419795Y573634D01*
X419760Y573727D01*
X419728Y573821D01*
X419700Y573917D01*
X419675Y574013D01*
X419655Y574111D01*
X419637Y574209D01*
X419624Y574307D01*
X419615Y574406D01*
X419609Y574505D01*
X419607Y574605D01*
X419608Y574604D02*
X419608Y577201D01*
X431292Y581566D02*
X431292Y584812D01*
X431290Y584925D01*
X431284Y585038D01*
X431274Y585151D01*
X431260Y585264D01*
X431243Y585376D01*
X431221Y585487D01*
X431196Y585597D01*
X431166Y585707D01*
X431133Y585815D01*
X431096Y585922D01*
X431056Y586028D01*
X431011Y586132D01*
X430963Y586235D01*
X430912Y586336D01*
X430857Y586435D01*
X430799Y586532D01*
X430737Y586627D01*
X430672Y586720D01*
X430604Y586810D01*
X430533Y586898D01*
X430458Y586984D01*
X430381Y587067D01*
X430301Y587147D01*
X430218Y587224D01*
X430132Y587299D01*
X430044Y587370D01*
X429954Y587438D01*
X429861Y587503D01*
X429766Y587565D01*
X429669Y587623D01*
X429570Y587678D01*
X429469Y587729D01*
X429366Y587777D01*
X429262Y587822D01*
X429156Y587862D01*
X429049Y587899D01*
X428941Y587932D01*
X428831Y587962D01*
X428721Y587987D01*
X428610Y588009D01*
X428498Y588026D01*
X428385Y588040D01*
X428272Y588050D01*
X428159Y588056D01*
X428046Y588058D01*
X427933Y588056D01*
X427820Y588050D01*
X427707Y588040D01*
X427594Y588026D01*
X427482Y588009D01*
X427371Y587987D01*
X427261Y587962D01*
X427151Y587932D01*
X427043Y587899D01*
X426936Y587862D01*
X426830Y587822D01*
X426726Y587777D01*
X426623Y587729D01*
X426522Y587678D01*
X426423Y587623D01*
X426326Y587565D01*
X426231Y587503D01*
X426138Y587438D01*
X426048Y587370D01*
X425960Y587299D01*
X425874Y587224D01*
X425791Y587147D01*
X425711Y587067D01*
X425634Y586984D01*
X425559Y586898D01*
X425488Y586810D01*
X425420Y586720D01*
X425355Y586627D01*
X425293Y586532D01*
X425235Y586435D01*
X425180Y586336D01*
X425129Y586235D01*
X425081Y586132D01*
X425036Y586028D01*
X424996Y585922D01*
X424959Y585815D01*
X424926Y585707D01*
X424896Y585597D01*
X424871Y585487D01*
X424849Y585376D01*
X424832Y585264D01*
X424818Y585151D01*
X424808Y585038D01*
X424802Y584925D01*
X424800Y584812D01*
X419608Y585461D02*
X419608Y581566D01*
X419608Y585461D02*
X419610Y585562D01*
X419616Y585662D01*
X419626Y585762D01*
X419639Y585862D01*
X419657Y585961D01*
X419678Y586060D01*
X419703Y586157D01*
X419732Y586254D01*
X419765Y586349D01*
X419801Y586443D01*
X419841Y586535D01*
X419884Y586626D01*
X419931Y586715D01*
X419981Y586802D01*
X420035Y586888D01*
X420092Y586971D01*
X420152Y587051D01*
X420215Y587130D01*
X420282Y587206D01*
X420351Y587279D01*
X420423Y587349D01*
X420497Y587417D01*
X420574Y587482D01*
X420654Y587543D01*
X420736Y587602D01*
X420820Y587657D01*
X420906Y587709D01*
X420994Y587758D01*
X421084Y587803D01*
X421176Y587845D01*
X421269Y587883D01*
X421364Y587917D01*
X421459Y587948D01*
X421556Y587975D01*
X421654Y587998D01*
X421753Y588018D01*
X421853Y588033D01*
X421953Y588045D01*
X422053Y588053D01*
X422154Y588057D01*
X422254Y588057D01*
X422355Y588053D01*
X422455Y588045D01*
X422555Y588033D01*
X422655Y588018D01*
X422754Y587998D01*
X422852Y587975D01*
X422949Y587948D01*
X423044Y587917D01*
X423139Y587883D01*
X423232Y587845D01*
X423324Y587803D01*
X423414Y587758D01*
X423502Y587709D01*
X423588Y587657D01*
X423672Y587602D01*
X423754Y587543D01*
X423834Y587482D01*
X423911Y587417D01*
X423985Y587349D01*
X424057Y587279D01*
X424126Y587206D01*
X424193Y587130D01*
X424256Y587051D01*
X424316Y586971D01*
X424373Y586888D01*
X424427Y586802D01*
X424477Y586715D01*
X424524Y586626D01*
X424567Y586535D01*
X424607Y586443D01*
X424643Y586349D01*
X424676Y586254D01*
X424705Y586157D01*
X424730Y586060D01*
X424751Y585961D01*
X424769Y585862D01*
X424782Y585762D01*
X424792Y585662D01*
X424798Y585562D01*
X424800Y585461D01*
X424801Y585461D02*
X424801Y582864D01*
D11*
X666800Y559700D02*
X666800Y481700D01*
X758800Y481700D02*
X758800Y559700D01*
X718800Y481700D02*
X691800Y481700D01*
X691800Y559700D02*
X718800Y559700D01*
X666800Y499700D02*
X666800Y488700D01*
X666800Y541700D02*
X666800Y552700D01*
D10*
X658792Y493301D02*
X658792Y490704D01*
X658790Y490605D01*
X658784Y490505D01*
X658775Y490406D01*
X658762Y490308D01*
X658745Y490210D01*
X658724Y490112D01*
X658699Y490016D01*
X658671Y489921D01*
X658639Y489827D01*
X658604Y489734D01*
X658565Y489642D01*
X658522Y489552D01*
X658477Y489464D01*
X658427Y489377D01*
X658375Y489293D01*
X658319Y489210D01*
X658261Y489130D01*
X658199Y489052D01*
X658134Y488977D01*
X658066Y488904D01*
X657996Y488834D01*
X657923Y488766D01*
X657848Y488701D01*
X657770Y488639D01*
X657690Y488581D01*
X657607Y488525D01*
X657523Y488473D01*
X657436Y488423D01*
X657348Y488378D01*
X657258Y488335D01*
X657166Y488296D01*
X657073Y488261D01*
X656979Y488229D01*
X656884Y488201D01*
X656788Y488176D01*
X656690Y488155D01*
X656592Y488138D01*
X656494Y488125D01*
X656395Y488116D01*
X656295Y488110D01*
X656196Y488108D01*
X649704Y488108D01*
X649605Y488110D01*
X649505Y488116D01*
X649406Y488125D01*
X649308Y488138D01*
X649210Y488156D01*
X649112Y488176D01*
X649016Y488201D01*
X648920Y488229D01*
X648826Y488261D01*
X648733Y488296D01*
X648642Y488335D01*
X648552Y488378D01*
X648463Y488423D01*
X648377Y488473D01*
X648292Y488525D01*
X648210Y488581D01*
X648130Y488640D01*
X648052Y488701D01*
X647976Y488766D01*
X647903Y488834D01*
X647833Y488904D01*
X647765Y488977D01*
X647700Y489053D01*
X647639Y489131D01*
X647580Y489211D01*
X647524Y489293D01*
X647472Y489378D01*
X647423Y489464D01*
X647377Y489553D01*
X647334Y489643D01*
X647295Y489734D01*
X647260Y489827D01*
X647228Y489921D01*
X647200Y490017D01*
X647175Y490113D01*
X647155Y490211D01*
X647137Y490309D01*
X647124Y490407D01*
X647115Y490506D01*
X647109Y490605D01*
X647107Y490705D01*
X647108Y490704D02*
X647108Y493301D01*
X647108Y498047D02*
X658792Y498047D01*
X658792Y504538D02*
X647108Y498047D01*
X647108Y504538D02*
X658792Y504538D01*
X649704Y509858D02*
X647108Y513104D01*
X658792Y513104D01*
X658792Y516349D02*
X658792Y509858D01*
D12*
X688500Y435650D02*
X720500Y435650D01*
X720500Y349150D01*
X688500Y349150D01*
X688500Y435650D01*
X685000Y437250D02*
X669750Y437250D01*
D10*
X694192Y423642D02*
X694192Y411958D01*
X692894Y411958D02*
X695490Y411958D01*
X695490Y423642D02*
X692894Y423642D01*
X702654Y411958D02*
X705250Y411958D01*
X702654Y411958D02*
X702555Y411960D01*
X702455Y411966D01*
X702356Y411975D01*
X702258Y411988D01*
X702160Y412005D01*
X702062Y412026D01*
X701966Y412051D01*
X701871Y412079D01*
X701777Y412111D01*
X701684Y412146D01*
X701592Y412185D01*
X701502Y412228D01*
X701414Y412273D01*
X701327Y412323D01*
X701243Y412375D01*
X701160Y412431D01*
X701080Y412489D01*
X701002Y412551D01*
X700927Y412616D01*
X700854Y412684D01*
X700784Y412754D01*
X700716Y412827D01*
X700651Y412902D01*
X700589Y412980D01*
X700531Y413060D01*
X700475Y413143D01*
X700423Y413227D01*
X700373Y413314D01*
X700328Y413402D01*
X700285Y413492D01*
X700246Y413584D01*
X700211Y413677D01*
X700179Y413771D01*
X700151Y413866D01*
X700126Y413962D01*
X700105Y414060D01*
X700088Y414158D01*
X700075Y414256D01*
X700066Y414355D01*
X700060Y414455D01*
X700058Y414554D01*
X700057Y414554D02*
X700057Y421046D01*
X700058Y421046D02*
X700060Y421145D01*
X700066Y421245D01*
X700075Y421344D01*
X700088Y421442D01*
X700105Y421540D01*
X700126Y421638D01*
X700151Y421734D01*
X700179Y421829D01*
X700211Y421923D01*
X700246Y422016D01*
X700285Y422108D01*
X700328Y422198D01*
X700373Y422286D01*
X700423Y422373D01*
X700475Y422457D01*
X700531Y422540D01*
X700589Y422620D01*
X700651Y422698D01*
X700716Y422773D01*
X700784Y422846D01*
X700854Y422916D01*
X700927Y422984D01*
X701002Y423049D01*
X701080Y423111D01*
X701160Y423169D01*
X701243Y423225D01*
X701327Y423277D01*
X701414Y423327D01*
X701502Y423372D01*
X701592Y423415D01*
X701684Y423454D01*
X701776Y423489D01*
X701871Y423521D01*
X701966Y423549D01*
X702062Y423574D01*
X702160Y423595D01*
X702258Y423612D01*
X702356Y423625D01*
X702455Y423634D01*
X702555Y423640D01*
X702654Y423642D01*
X705250Y423642D01*
X709615Y421046D02*
X712861Y423642D01*
X712861Y411958D01*
X716106Y411958D02*
X709615Y411958D01*
D12*
X605200Y435650D02*
X573200Y435650D01*
X605200Y435650D02*
X605200Y349150D01*
X573200Y349150D01*
X573200Y435650D01*
X569700Y437250D02*
X554450Y437250D01*
D10*
X578892Y423642D02*
X578892Y411958D01*
X577594Y411958D02*
X580190Y411958D01*
X580190Y423642D02*
X577594Y423642D01*
X587354Y411958D02*
X589950Y411958D01*
X587354Y411958D02*
X587255Y411960D01*
X587155Y411966D01*
X587056Y411975D01*
X586958Y411988D01*
X586860Y412005D01*
X586762Y412026D01*
X586666Y412051D01*
X586571Y412079D01*
X586477Y412111D01*
X586384Y412146D01*
X586292Y412185D01*
X586202Y412228D01*
X586114Y412273D01*
X586027Y412323D01*
X585943Y412375D01*
X585860Y412431D01*
X585780Y412489D01*
X585702Y412551D01*
X585627Y412616D01*
X585554Y412684D01*
X585484Y412754D01*
X585416Y412827D01*
X585351Y412902D01*
X585289Y412980D01*
X585231Y413060D01*
X585175Y413143D01*
X585123Y413227D01*
X585073Y413314D01*
X585028Y413402D01*
X584985Y413492D01*
X584946Y413584D01*
X584911Y413677D01*
X584879Y413771D01*
X584851Y413866D01*
X584826Y413962D01*
X584805Y414060D01*
X584788Y414158D01*
X584775Y414256D01*
X584766Y414355D01*
X584760Y414455D01*
X584758Y414554D01*
X584757Y414554D02*
X584757Y421046D01*
X584758Y421046D02*
X584760Y421145D01*
X584766Y421245D01*
X584775Y421344D01*
X584788Y421442D01*
X584805Y421540D01*
X584826Y421638D01*
X584851Y421734D01*
X584879Y421829D01*
X584911Y421923D01*
X584946Y422016D01*
X584985Y422108D01*
X585028Y422198D01*
X585073Y422286D01*
X585123Y422373D01*
X585175Y422457D01*
X585231Y422540D01*
X585289Y422620D01*
X585351Y422698D01*
X585416Y422773D01*
X585484Y422846D01*
X585554Y422916D01*
X585627Y422984D01*
X585702Y423049D01*
X585780Y423111D01*
X585860Y423169D01*
X585943Y423225D01*
X586027Y423277D01*
X586114Y423327D01*
X586202Y423372D01*
X586292Y423415D01*
X586384Y423454D01*
X586476Y423489D01*
X586571Y423521D01*
X586666Y423549D01*
X586762Y423574D01*
X586860Y423595D01*
X586958Y423612D01*
X587056Y423625D01*
X587155Y423634D01*
X587255Y423640D01*
X587354Y423642D01*
X589950Y423642D01*
X597885Y423642D02*
X597992Y423640D01*
X598098Y423634D01*
X598204Y423624D01*
X598310Y423611D01*
X598416Y423593D01*
X598520Y423572D01*
X598624Y423547D01*
X598727Y423518D01*
X598828Y423486D01*
X598928Y423449D01*
X599027Y423409D01*
X599125Y423366D01*
X599221Y423319D01*
X599315Y423268D01*
X599407Y423214D01*
X599497Y423157D01*
X599585Y423097D01*
X599670Y423033D01*
X599753Y422966D01*
X599834Y422896D01*
X599912Y422824D01*
X599988Y422748D01*
X600060Y422670D01*
X600130Y422589D01*
X600197Y422506D01*
X600261Y422421D01*
X600321Y422333D01*
X600378Y422243D01*
X600432Y422151D01*
X600483Y422057D01*
X600530Y421961D01*
X600573Y421863D01*
X600613Y421764D01*
X600650Y421664D01*
X600682Y421563D01*
X600711Y421460D01*
X600736Y421356D01*
X600757Y421252D01*
X600775Y421146D01*
X600788Y421040D01*
X600798Y420934D01*
X600804Y420828D01*
X600806Y420721D01*
X597885Y423642D02*
X597764Y423640D01*
X597643Y423634D01*
X597523Y423624D01*
X597402Y423611D01*
X597283Y423593D01*
X597163Y423572D01*
X597045Y423547D01*
X596928Y423518D01*
X596811Y423485D01*
X596696Y423449D01*
X596582Y423408D01*
X596469Y423365D01*
X596357Y423317D01*
X596248Y423266D01*
X596140Y423211D01*
X596033Y423153D01*
X595929Y423092D01*
X595827Y423027D01*
X595727Y422959D01*
X595629Y422888D01*
X595533Y422814D01*
X595440Y422737D01*
X595350Y422656D01*
X595262Y422573D01*
X595177Y422487D01*
X595094Y422398D01*
X595015Y422307D01*
X594938Y422213D01*
X594865Y422117D01*
X594795Y422019D01*
X594728Y421918D01*
X594664Y421815D01*
X594604Y421710D01*
X594547Y421603D01*
X594493Y421495D01*
X594443Y421385D01*
X594397Y421273D01*
X594354Y421160D01*
X594315Y421045D01*
X599833Y418449D02*
X599912Y418526D01*
X599988Y418607D01*
X600061Y418690D01*
X600131Y418775D01*
X600198Y418863D01*
X600262Y418953D01*
X600322Y419045D01*
X600379Y419140D01*
X600433Y419236D01*
X600484Y419334D01*
X600531Y419434D01*
X600575Y419536D01*
X600615Y419639D01*
X600651Y419743D01*
X600683Y419849D01*
X600712Y419955D01*
X600737Y420063D01*
X600759Y420171D01*
X600776Y420281D01*
X600790Y420390D01*
X600799Y420500D01*
X600805Y420611D01*
X600807Y420721D01*
X599833Y418449D02*
X594315Y411958D01*
X600806Y411958D01*
D12*
X486800Y436650D02*
X454800Y436650D01*
X486800Y436650D02*
X486800Y350150D01*
X454800Y350150D01*
X454800Y436650D01*
X451300Y438250D02*
X436050Y438250D01*
D10*
X460492Y424642D02*
X460492Y412958D01*
X459194Y412958D02*
X461790Y412958D01*
X461790Y424642D02*
X459194Y424642D01*
X468954Y412958D02*
X471550Y412958D01*
X468954Y412958D02*
X468855Y412960D01*
X468755Y412966D01*
X468656Y412975D01*
X468558Y412988D01*
X468460Y413005D01*
X468362Y413026D01*
X468266Y413051D01*
X468171Y413079D01*
X468077Y413111D01*
X467984Y413146D01*
X467892Y413185D01*
X467802Y413228D01*
X467714Y413273D01*
X467627Y413323D01*
X467543Y413375D01*
X467460Y413431D01*
X467380Y413489D01*
X467302Y413551D01*
X467227Y413616D01*
X467154Y413684D01*
X467084Y413754D01*
X467016Y413827D01*
X466951Y413902D01*
X466889Y413980D01*
X466831Y414060D01*
X466775Y414143D01*
X466723Y414227D01*
X466673Y414314D01*
X466628Y414402D01*
X466585Y414492D01*
X466546Y414584D01*
X466511Y414677D01*
X466479Y414771D01*
X466451Y414866D01*
X466426Y414962D01*
X466405Y415060D01*
X466388Y415158D01*
X466375Y415256D01*
X466366Y415355D01*
X466360Y415455D01*
X466358Y415554D01*
X466357Y415554D02*
X466357Y422046D01*
X466358Y422046D02*
X466360Y422145D01*
X466366Y422245D01*
X466375Y422344D01*
X466388Y422442D01*
X466405Y422540D01*
X466426Y422638D01*
X466451Y422734D01*
X466479Y422829D01*
X466511Y422923D01*
X466546Y423016D01*
X466585Y423108D01*
X466628Y423198D01*
X466673Y423286D01*
X466723Y423373D01*
X466775Y423457D01*
X466831Y423540D01*
X466889Y423620D01*
X466951Y423698D01*
X467016Y423773D01*
X467084Y423846D01*
X467154Y423916D01*
X467227Y423984D01*
X467302Y424049D01*
X467380Y424111D01*
X467460Y424169D01*
X467543Y424225D01*
X467627Y424277D01*
X467714Y424327D01*
X467802Y424372D01*
X467892Y424415D01*
X467984Y424454D01*
X468076Y424489D01*
X468171Y424521D01*
X468266Y424549D01*
X468362Y424574D01*
X468460Y424595D01*
X468558Y424612D01*
X468656Y424625D01*
X468755Y424634D01*
X468855Y424640D01*
X468954Y424642D01*
X471550Y424642D01*
X475915Y412958D02*
X479161Y412958D01*
X479274Y412960D01*
X479387Y412966D01*
X479500Y412976D01*
X479613Y412990D01*
X479725Y413007D01*
X479836Y413029D01*
X479946Y413054D01*
X480056Y413084D01*
X480164Y413117D01*
X480271Y413154D01*
X480377Y413194D01*
X480481Y413239D01*
X480584Y413287D01*
X480685Y413338D01*
X480784Y413393D01*
X480881Y413451D01*
X480976Y413513D01*
X481069Y413578D01*
X481159Y413646D01*
X481247Y413717D01*
X481333Y413792D01*
X481416Y413869D01*
X481496Y413949D01*
X481573Y414032D01*
X481648Y414118D01*
X481719Y414206D01*
X481787Y414296D01*
X481852Y414389D01*
X481914Y414484D01*
X481972Y414581D01*
X482027Y414680D01*
X482078Y414781D01*
X482126Y414884D01*
X482171Y414988D01*
X482211Y415094D01*
X482248Y415201D01*
X482281Y415309D01*
X482311Y415419D01*
X482336Y415529D01*
X482358Y415640D01*
X482375Y415752D01*
X482389Y415865D01*
X482399Y415978D01*
X482405Y416091D01*
X482407Y416204D01*
X482405Y416317D01*
X482399Y416430D01*
X482389Y416543D01*
X482375Y416656D01*
X482358Y416768D01*
X482336Y416879D01*
X482311Y416989D01*
X482281Y417099D01*
X482248Y417207D01*
X482211Y417314D01*
X482171Y417420D01*
X482126Y417524D01*
X482078Y417627D01*
X482027Y417728D01*
X481972Y417827D01*
X481914Y417924D01*
X481852Y418019D01*
X481787Y418112D01*
X481719Y418202D01*
X481648Y418290D01*
X481573Y418376D01*
X481496Y418459D01*
X481416Y418539D01*
X481333Y418616D01*
X481247Y418691D01*
X481159Y418762D01*
X481069Y418830D01*
X480976Y418895D01*
X480881Y418957D01*
X480784Y419015D01*
X480685Y419070D01*
X480584Y419121D01*
X480481Y419169D01*
X480377Y419214D01*
X480271Y419254D01*
X480164Y419291D01*
X480056Y419324D01*
X479946Y419354D01*
X479836Y419379D01*
X479725Y419401D01*
X479613Y419418D01*
X479500Y419432D01*
X479387Y419442D01*
X479274Y419448D01*
X479161Y419450D01*
X479810Y424642D02*
X475915Y424642D01*
X479810Y424642D02*
X479911Y424640D01*
X480011Y424634D01*
X480111Y424624D01*
X480211Y424611D01*
X480310Y424593D01*
X480409Y424572D01*
X480506Y424547D01*
X480603Y424518D01*
X480698Y424485D01*
X480792Y424449D01*
X480884Y424409D01*
X480975Y424366D01*
X481064Y424319D01*
X481151Y424269D01*
X481237Y424215D01*
X481320Y424158D01*
X481400Y424098D01*
X481479Y424035D01*
X481555Y423968D01*
X481628Y423899D01*
X481698Y423827D01*
X481766Y423753D01*
X481831Y423676D01*
X481892Y423596D01*
X481951Y423514D01*
X482006Y423430D01*
X482058Y423344D01*
X482107Y423256D01*
X482152Y423166D01*
X482194Y423074D01*
X482232Y422981D01*
X482266Y422886D01*
X482297Y422791D01*
X482324Y422694D01*
X482347Y422596D01*
X482367Y422497D01*
X482382Y422397D01*
X482394Y422297D01*
X482402Y422197D01*
X482406Y422096D01*
X482406Y421996D01*
X482402Y421895D01*
X482394Y421795D01*
X482382Y421695D01*
X482367Y421595D01*
X482347Y421496D01*
X482324Y421398D01*
X482297Y421301D01*
X482266Y421206D01*
X482232Y421111D01*
X482194Y421018D01*
X482152Y420926D01*
X482107Y420836D01*
X482058Y420748D01*
X482006Y420662D01*
X481951Y420578D01*
X481892Y420496D01*
X481831Y420416D01*
X481766Y420339D01*
X481698Y420265D01*
X481628Y420193D01*
X481555Y420124D01*
X481479Y420057D01*
X481400Y419994D01*
X481320Y419934D01*
X481237Y419877D01*
X481151Y419823D01*
X481064Y419773D01*
X480975Y419726D01*
X480884Y419683D01*
X480792Y419643D01*
X480698Y419607D01*
X480603Y419574D01*
X480506Y419545D01*
X480409Y419520D01*
X480310Y419499D01*
X480211Y419481D01*
X480111Y419468D01*
X480011Y419458D01*
X479911Y419452D01*
X479810Y419450D01*
X479810Y419449D02*
X477214Y419449D01*
D11*
X216720Y537800D02*
X209100Y545420D01*
X209100Y580980D01*
X216720Y588600D01*
X229420Y588600D01*
X234500Y583520D01*
X239580Y588600D01*
X254820Y588600D01*
X259900Y583520D01*
X264980Y588600D01*
X277680Y588600D01*
X285300Y580980D01*
X285300Y545420D01*
X277680Y537800D01*
X264980Y537800D01*
X259900Y542880D01*
X254820Y537800D01*
X239580Y537800D01*
X234500Y542880D01*
X229420Y537800D01*
X216720Y537800D01*
D13*
X203949Y533101D02*
X201861Y535712D01*
X211259Y535712D01*
X211259Y538322D02*
X211259Y533101D01*
D10*
X242685Y532212D02*
X242685Y520528D01*
X243983Y520528D02*
X241386Y520528D01*
X241386Y532212D02*
X243983Y532212D01*
X254693Y523124D02*
X254691Y523025D01*
X254685Y522925D01*
X254676Y522826D01*
X254663Y522728D01*
X254646Y522630D01*
X254625Y522532D01*
X254600Y522436D01*
X254572Y522341D01*
X254540Y522247D01*
X254505Y522154D01*
X254466Y522062D01*
X254423Y521972D01*
X254378Y521884D01*
X254328Y521797D01*
X254276Y521713D01*
X254220Y521630D01*
X254162Y521550D01*
X254100Y521472D01*
X254035Y521397D01*
X253967Y521324D01*
X253897Y521254D01*
X253824Y521186D01*
X253749Y521121D01*
X253671Y521059D01*
X253591Y521001D01*
X253508Y520945D01*
X253424Y520893D01*
X253337Y520843D01*
X253249Y520798D01*
X253159Y520755D01*
X253067Y520716D01*
X252974Y520681D01*
X252880Y520649D01*
X252785Y520621D01*
X252689Y520596D01*
X252591Y520575D01*
X252493Y520558D01*
X252395Y520545D01*
X252296Y520536D01*
X252196Y520530D01*
X252097Y520528D01*
X251953Y520530D01*
X251808Y520536D01*
X251664Y520545D01*
X251521Y520558D01*
X251377Y520575D01*
X251234Y520596D01*
X251092Y520621D01*
X250951Y520649D01*
X250810Y520681D01*
X250670Y520717D01*
X250531Y520756D01*
X250393Y520799D01*
X250257Y520846D01*
X250121Y520896D01*
X249987Y520950D01*
X249855Y521007D01*
X249724Y521068D01*
X249595Y521132D01*
X249467Y521200D01*
X249341Y521270D01*
X249217Y521345D01*
X249096Y521422D01*
X248976Y521503D01*
X248858Y521586D01*
X248743Y521673D01*
X248630Y521763D01*
X248519Y521856D01*
X248411Y521951D01*
X248305Y522050D01*
X248202Y522151D01*
X248527Y529616D02*
X248529Y529715D01*
X248535Y529815D01*
X248544Y529914D01*
X248557Y530012D01*
X248574Y530110D01*
X248595Y530208D01*
X248620Y530304D01*
X248648Y530399D01*
X248680Y530493D01*
X248715Y530586D01*
X248754Y530678D01*
X248797Y530768D01*
X248842Y530856D01*
X248892Y530943D01*
X248944Y531027D01*
X249000Y531110D01*
X249058Y531190D01*
X249120Y531268D01*
X249185Y531343D01*
X249253Y531416D01*
X249323Y531486D01*
X249396Y531554D01*
X249471Y531619D01*
X249549Y531681D01*
X249629Y531739D01*
X249712Y531795D01*
X249796Y531847D01*
X249883Y531897D01*
X249971Y531942D01*
X250061Y531985D01*
X250153Y532024D01*
X250246Y532059D01*
X250340Y532091D01*
X250435Y532119D01*
X250532Y532144D01*
X250629Y532165D01*
X250727Y532182D01*
X250825Y532195D01*
X250924Y532204D01*
X251024Y532210D01*
X251123Y532212D01*
X251259Y532210D01*
X251395Y532204D01*
X251531Y532195D01*
X251667Y532182D01*
X251802Y532164D01*
X251936Y532144D01*
X252070Y532119D01*
X252204Y532091D01*
X252336Y532058D01*
X252467Y532023D01*
X252598Y531983D01*
X252727Y531940D01*
X252855Y531894D01*
X252981Y531843D01*
X253107Y531790D01*
X253230Y531732D01*
X253352Y531672D01*
X253472Y531608D01*
X253591Y531540D01*
X253707Y531470D01*
X253821Y531396D01*
X253934Y531319D01*
X254044Y531238D01*
X249824Y527344D02*
X249738Y527397D01*
X249654Y527454D01*
X249572Y527513D01*
X249492Y527576D01*
X249415Y527642D01*
X249340Y527710D01*
X249268Y527782D01*
X249199Y527856D01*
X249133Y527933D01*
X249070Y528012D01*
X249010Y528094D01*
X248953Y528178D01*
X248899Y528264D01*
X248849Y528352D01*
X248802Y528442D01*
X248758Y528533D01*
X248719Y528627D01*
X248682Y528721D01*
X248650Y528817D01*
X248621Y528915D01*
X248596Y529013D01*
X248575Y529112D01*
X248557Y529212D01*
X248544Y529312D01*
X248534Y529413D01*
X248528Y529515D01*
X248526Y529616D01*
X253395Y525396D02*
X253481Y525343D01*
X253565Y525286D01*
X253647Y525227D01*
X253727Y525164D01*
X253804Y525098D01*
X253879Y525030D01*
X253951Y524958D01*
X254020Y524884D01*
X254086Y524807D01*
X254149Y524728D01*
X254209Y524646D01*
X254266Y524562D01*
X254320Y524476D01*
X254370Y524388D01*
X254417Y524298D01*
X254461Y524207D01*
X254500Y524113D01*
X254537Y524019D01*
X254569Y523923D01*
X254598Y523825D01*
X254623Y523727D01*
X254644Y523628D01*
X254662Y523528D01*
X254675Y523428D01*
X254685Y523327D01*
X254691Y523225D01*
X254693Y523124D01*
X253395Y525396D02*
X249825Y527344D01*
X259801Y532212D02*
X259801Y520528D01*
X259801Y532212D02*
X263047Y532212D01*
X263160Y532210D01*
X263273Y532204D01*
X263386Y532194D01*
X263499Y532180D01*
X263611Y532163D01*
X263722Y532141D01*
X263832Y532116D01*
X263942Y532086D01*
X264050Y532053D01*
X264157Y532016D01*
X264263Y531976D01*
X264367Y531931D01*
X264470Y531883D01*
X264571Y531832D01*
X264670Y531777D01*
X264767Y531719D01*
X264862Y531657D01*
X264955Y531592D01*
X265045Y531524D01*
X265133Y531453D01*
X265219Y531378D01*
X265302Y531301D01*
X265382Y531221D01*
X265459Y531138D01*
X265534Y531052D01*
X265605Y530964D01*
X265673Y530874D01*
X265738Y530781D01*
X265800Y530686D01*
X265858Y530589D01*
X265913Y530490D01*
X265964Y530389D01*
X266012Y530286D01*
X266057Y530182D01*
X266097Y530076D01*
X266134Y529969D01*
X266167Y529861D01*
X266197Y529751D01*
X266222Y529641D01*
X266244Y529530D01*
X266261Y529418D01*
X266275Y529305D01*
X266285Y529192D01*
X266291Y529079D01*
X266293Y528966D01*
X266291Y528853D01*
X266285Y528740D01*
X266275Y528627D01*
X266261Y528514D01*
X266244Y528402D01*
X266222Y528291D01*
X266197Y528181D01*
X266167Y528071D01*
X266134Y527963D01*
X266097Y527856D01*
X266057Y527750D01*
X266012Y527646D01*
X265964Y527543D01*
X265913Y527442D01*
X265858Y527343D01*
X265800Y527246D01*
X265738Y527151D01*
X265673Y527058D01*
X265605Y526968D01*
X265534Y526880D01*
X265459Y526794D01*
X265382Y526711D01*
X265302Y526631D01*
X265219Y526554D01*
X265133Y526479D01*
X265045Y526408D01*
X264955Y526340D01*
X264862Y526275D01*
X264767Y526213D01*
X264670Y526155D01*
X264571Y526100D01*
X264470Y526049D01*
X264367Y526001D01*
X264263Y525956D01*
X264157Y525916D01*
X264050Y525879D01*
X263942Y525846D01*
X263832Y525816D01*
X263722Y525791D01*
X263611Y525769D01*
X263499Y525752D01*
X263386Y525738D01*
X263273Y525728D01*
X263160Y525722D01*
X263047Y525720D01*
X263047Y525721D02*
X259801Y525721D01*
X270681Y529616D02*
X273926Y532212D01*
X273926Y520528D01*
X270681Y520528D02*
X277172Y520528D01*
D11*
X431500Y326100D02*
X431500Y267100D01*
X431500Y256100D01*
X711500Y256100D01*
X711500Y267100D01*
X711500Y326100D01*
X431500Y326100D01*
X431500Y267100D02*
X711500Y267100D01*
D10*
X678998Y233492D02*
X678998Y224404D01*
X678997Y224404D02*
X678995Y224305D01*
X678989Y224205D01*
X678980Y224106D01*
X678967Y224008D01*
X678950Y223910D01*
X678929Y223812D01*
X678904Y223716D01*
X678876Y223621D01*
X678844Y223527D01*
X678809Y223434D01*
X678770Y223342D01*
X678727Y223252D01*
X678682Y223164D01*
X678632Y223077D01*
X678580Y222993D01*
X678524Y222910D01*
X678466Y222830D01*
X678404Y222752D01*
X678339Y222677D01*
X678271Y222604D01*
X678201Y222534D01*
X678128Y222466D01*
X678053Y222401D01*
X677975Y222339D01*
X677895Y222281D01*
X677812Y222225D01*
X677728Y222173D01*
X677641Y222123D01*
X677553Y222078D01*
X677463Y222035D01*
X677371Y221996D01*
X677278Y221961D01*
X677184Y221929D01*
X677089Y221901D01*
X676993Y221876D01*
X676895Y221855D01*
X676797Y221838D01*
X676699Y221825D01*
X676600Y221816D01*
X676500Y221810D01*
X676401Y221808D01*
X675103Y221808D01*
X684821Y221808D02*
X684821Y233492D01*
X688067Y233492D01*
X688180Y233490D01*
X688293Y233484D01*
X688406Y233474D01*
X688519Y233460D01*
X688631Y233443D01*
X688742Y233421D01*
X688852Y233396D01*
X688962Y233366D01*
X689070Y233333D01*
X689177Y233296D01*
X689283Y233256D01*
X689387Y233211D01*
X689490Y233163D01*
X689591Y233112D01*
X689690Y233057D01*
X689787Y232999D01*
X689882Y232937D01*
X689975Y232872D01*
X690065Y232804D01*
X690153Y232733D01*
X690239Y232658D01*
X690322Y232581D01*
X690402Y232501D01*
X690479Y232418D01*
X690554Y232332D01*
X690625Y232244D01*
X690693Y232154D01*
X690758Y232061D01*
X690820Y231966D01*
X690878Y231869D01*
X690933Y231770D01*
X690984Y231669D01*
X691032Y231566D01*
X691077Y231462D01*
X691117Y231356D01*
X691154Y231249D01*
X691187Y231141D01*
X691217Y231031D01*
X691242Y230921D01*
X691264Y230810D01*
X691281Y230698D01*
X691295Y230585D01*
X691305Y230472D01*
X691311Y230359D01*
X691313Y230246D01*
X691311Y230133D01*
X691305Y230020D01*
X691295Y229907D01*
X691281Y229794D01*
X691264Y229682D01*
X691242Y229571D01*
X691217Y229461D01*
X691187Y229351D01*
X691154Y229243D01*
X691117Y229136D01*
X691077Y229030D01*
X691032Y228926D01*
X690984Y228823D01*
X690933Y228722D01*
X690878Y228623D01*
X690820Y228526D01*
X690758Y228431D01*
X690693Y228338D01*
X690625Y228248D01*
X690554Y228160D01*
X690479Y228074D01*
X690402Y227991D01*
X690322Y227911D01*
X690239Y227834D01*
X690153Y227759D01*
X690065Y227688D01*
X689975Y227620D01*
X689882Y227555D01*
X689787Y227493D01*
X689690Y227435D01*
X689591Y227380D01*
X689490Y227329D01*
X689387Y227281D01*
X689283Y227236D01*
X689177Y227196D01*
X689070Y227159D01*
X688962Y227126D01*
X688852Y227096D01*
X688742Y227071D01*
X688631Y227049D01*
X688519Y227032D01*
X688406Y227018D01*
X688293Y227008D01*
X688180Y227002D01*
X688067Y227000D01*
X688067Y227001D02*
X684821Y227001D01*
X695701Y230896D02*
X698946Y233492D01*
X698946Y221808D01*
X695701Y221808D02*
X702192Y221808D01*
D14*
X23600Y591200D03*
X35600Y591200D03*
D15*
X29600Y591200D03*
D10*
X16392Y577508D02*
X4708Y577508D01*
X16392Y577508D02*
X16392Y582701D01*
X16392Y587414D02*
X16392Y592607D01*
X16392Y587414D02*
X4708Y587414D01*
X4708Y592607D01*
X9901Y591309D02*
X9901Y587414D01*
X4708Y597297D02*
X16392Y597297D01*
X4708Y597297D02*
X4708Y600543D01*
X4710Y600656D01*
X4716Y600769D01*
X4726Y600882D01*
X4740Y600995D01*
X4757Y601107D01*
X4779Y601218D01*
X4804Y601328D01*
X4834Y601438D01*
X4867Y601546D01*
X4904Y601653D01*
X4944Y601759D01*
X4989Y601863D01*
X5037Y601966D01*
X5088Y602067D01*
X5143Y602166D01*
X5201Y602263D01*
X5263Y602358D01*
X5328Y602451D01*
X5396Y602541D01*
X5467Y602629D01*
X5542Y602715D01*
X5619Y602798D01*
X5699Y602878D01*
X5782Y602955D01*
X5868Y603030D01*
X5956Y603101D01*
X6046Y603169D01*
X6139Y603234D01*
X6234Y603296D01*
X6331Y603354D01*
X6430Y603409D01*
X6531Y603460D01*
X6634Y603508D01*
X6738Y603553D01*
X6844Y603593D01*
X6951Y603630D01*
X7059Y603663D01*
X7169Y603693D01*
X7279Y603718D01*
X7390Y603740D01*
X7502Y603757D01*
X7615Y603771D01*
X7728Y603781D01*
X7841Y603787D01*
X7954Y603789D01*
X13146Y603789D01*
X13259Y603787D01*
X13372Y603781D01*
X13485Y603771D01*
X13598Y603757D01*
X13710Y603740D01*
X13821Y603718D01*
X13931Y603693D01*
X14041Y603663D01*
X14149Y603630D01*
X14256Y603593D01*
X14362Y603553D01*
X14466Y603508D01*
X14569Y603460D01*
X14670Y603409D01*
X14769Y603354D01*
X14866Y603296D01*
X14961Y603234D01*
X15054Y603169D01*
X15144Y603101D01*
X15232Y603030D01*
X15318Y602955D01*
X15401Y602878D01*
X15481Y602798D01*
X15558Y602715D01*
X15633Y602629D01*
X15704Y602541D01*
X15772Y602451D01*
X15837Y602358D01*
X15899Y602263D01*
X15957Y602166D01*
X16012Y602067D01*
X16063Y601966D01*
X16111Y601863D01*
X16156Y601759D01*
X16196Y601653D01*
X16233Y601546D01*
X16266Y601438D01*
X16296Y601328D01*
X16321Y601218D01*
X16343Y601107D01*
X16360Y600995D01*
X16374Y600882D01*
X16384Y600769D01*
X16390Y600656D01*
X16392Y600543D01*
X16392Y597297D01*
X7304Y609108D02*
X4708Y612354D01*
X16392Y612354D01*
X16392Y615599D02*
X16392Y609108D01*
D14*
X42800Y590700D03*
X54800Y590700D03*
D15*
X48800Y590700D03*
D10*
X35592Y577008D02*
X23908Y577008D01*
X35592Y577008D02*
X35592Y582201D01*
X35592Y586914D02*
X35592Y592107D01*
X35592Y586914D02*
X23908Y586914D01*
X23908Y592107D01*
X29101Y590809D02*
X29101Y586914D01*
X23908Y596797D02*
X35592Y596797D01*
X23908Y596797D02*
X23908Y600043D01*
X23910Y600156D01*
X23916Y600269D01*
X23926Y600382D01*
X23940Y600495D01*
X23957Y600607D01*
X23979Y600718D01*
X24004Y600828D01*
X24034Y600938D01*
X24067Y601046D01*
X24104Y601153D01*
X24144Y601259D01*
X24189Y601363D01*
X24237Y601466D01*
X24288Y601567D01*
X24343Y601666D01*
X24401Y601763D01*
X24463Y601858D01*
X24528Y601951D01*
X24596Y602041D01*
X24667Y602129D01*
X24742Y602215D01*
X24819Y602298D01*
X24899Y602378D01*
X24982Y602455D01*
X25068Y602530D01*
X25156Y602601D01*
X25246Y602669D01*
X25339Y602734D01*
X25434Y602796D01*
X25531Y602854D01*
X25630Y602909D01*
X25731Y602960D01*
X25834Y603008D01*
X25938Y603053D01*
X26044Y603093D01*
X26151Y603130D01*
X26259Y603163D01*
X26369Y603193D01*
X26479Y603218D01*
X26590Y603240D01*
X26702Y603257D01*
X26815Y603271D01*
X26928Y603281D01*
X27041Y603287D01*
X27154Y603289D01*
X32346Y603289D01*
X32459Y603287D01*
X32572Y603281D01*
X32685Y603271D01*
X32798Y603257D01*
X32910Y603240D01*
X33021Y603218D01*
X33131Y603193D01*
X33241Y603163D01*
X33349Y603130D01*
X33456Y603093D01*
X33562Y603053D01*
X33666Y603008D01*
X33769Y602960D01*
X33870Y602909D01*
X33969Y602854D01*
X34066Y602796D01*
X34161Y602734D01*
X34254Y602669D01*
X34344Y602601D01*
X34432Y602530D01*
X34518Y602455D01*
X34601Y602378D01*
X34681Y602298D01*
X34758Y602215D01*
X34833Y602129D01*
X34904Y602041D01*
X34972Y601951D01*
X35037Y601858D01*
X35099Y601763D01*
X35157Y601666D01*
X35212Y601567D01*
X35263Y601466D01*
X35311Y601363D01*
X35356Y601259D01*
X35396Y601153D01*
X35433Y601046D01*
X35466Y600938D01*
X35496Y600828D01*
X35521Y600718D01*
X35543Y600607D01*
X35560Y600495D01*
X35574Y600382D01*
X35584Y600269D01*
X35590Y600156D01*
X35592Y600043D01*
X35592Y596797D01*
X23908Y612178D02*
X23910Y612285D01*
X23916Y612391D01*
X23926Y612497D01*
X23939Y612603D01*
X23957Y612709D01*
X23978Y612813D01*
X24003Y612917D01*
X24032Y613020D01*
X24064Y613121D01*
X24101Y613221D01*
X24141Y613320D01*
X24184Y613418D01*
X24231Y613514D01*
X24282Y613608D01*
X24336Y613700D01*
X24393Y613790D01*
X24453Y613878D01*
X24517Y613963D01*
X24584Y614046D01*
X24654Y614127D01*
X24726Y614205D01*
X24802Y614281D01*
X24880Y614353D01*
X24961Y614423D01*
X25044Y614490D01*
X25129Y614554D01*
X25217Y614614D01*
X25307Y614671D01*
X25399Y614725D01*
X25493Y614776D01*
X25589Y614823D01*
X25687Y614866D01*
X25786Y614906D01*
X25886Y614943D01*
X25987Y614975D01*
X26090Y615004D01*
X26194Y615029D01*
X26298Y615050D01*
X26404Y615068D01*
X26510Y615081D01*
X26616Y615091D01*
X26722Y615097D01*
X26829Y615099D01*
X23908Y612178D02*
X23910Y612057D01*
X23916Y611936D01*
X23926Y611816D01*
X23939Y611695D01*
X23957Y611576D01*
X23978Y611456D01*
X24003Y611338D01*
X24032Y611221D01*
X24065Y611104D01*
X24101Y610989D01*
X24142Y610875D01*
X24185Y610762D01*
X24233Y610650D01*
X24284Y610541D01*
X24339Y610433D01*
X24397Y610326D01*
X24458Y610222D01*
X24523Y610120D01*
X24591Y610020D01*
X24662Y609922D01*
X24736Y609826D01*
X24813Y609733D01*
X24894Y609643D01*
X24977Y609555D01*
X25063Y609470D01*
X25152Y609387D01*
X25243Y609308D01*
X25337Y609231D01*
X25433Y609158D01*
X25531Y609088D01*
X25632Y609021D01*
X25735Y608957D01*
X25840Y608897D01*
X25947Y608839D01*
X26055Y608786D01*
X26165Y608736D01*
X26277Y608690D01*
X26390Y608647D01*
X26505Y608608D01*
X29101Y614125D02*
X29023Y614204D01*
X28943Y614280D01*
X28860Y614353D01*
X28774Y614423D01*
X28687Y614490D01*
X28596Y614554D01*
X28504Y614614D01*
X28410Y614672D01*
X28313Y614726D01*
X28215Y614776D01*
X28115Y614823D01*
X28014Y614867D01*
X27911Y614907D01*
X27806Y614943D01*
X27701Y614975D01*
X27594Y615004D01*
X27487Y615029D01*
X27378Y615051D01*
X27269Y615068D01*
X27160Y615082D01*
X27050Y615091D01*
X26939Y615097D01*
X26829Y615099D01*
X29101Y614126D02*
X35592Y608608D01*
X35592Y615099D01*
D14*
X90000Y590700D03*
X102000Y590700D03*
D15*
X96000Y590700D03*
D10*
X82792Y577008D02*
X71108Y577008D01*
X82792Y577008D02*
X82792Y582201D01*
X82792Y586914D02*
X82792Y592107D01*
X82792Y586914D02*
X71108Y586914D01*
X71108Y592107D01*
X76301Y590809D02*
X76301Y586914D01*
X71108Y596797D02*
X82792Y596797D01*
X71108Y596797D02*
X71108Y600043D01*
X71110Y600156D01*
X71116Y600269D01*
X71126Y600382D01*
X71140Y600495D01*
X71157Y600607D01*
X71179Y600718D01*
X71204Y600828D01*
X71234Y600938D01*
X71267Y601046D01*
X71304Y601153D01*
X71344Y601259D01*
X71389Y601363D01*
X71437Y601466D01*
X71488Y601567D01*
X71543Y601666D01*
X71601Y601763D01*
X71663Y601858D01*
X71728Y601951D01*
X71796Y602041D01*
X71867Y602129D01*
X71942Y602215D01*
X72019Y602298D01*
X72099Y602378D01*
X72182Y602455D01*
X72268Y602530D01*
X72356Y602601D01*
X72446Y602669D01*
X72539Y602734D01*
X72634Y602796D01*
X72731Y602854D01*
X72830Y602909D01*
X72931Y602960D01*
X73034Y603008D01*
X73138Y603053D01*
X73244Y603093D01*
X73351Y603130D01*
X73459Y603163D01*
X73569Y603193D01*
X73679Y603218D01*
X73790Y603240D01*
X73902Y603257D01*
X74015Y603271D01*
X74128Y603281D01*
X74241Y603287D01*
X74354Y603289D01*
X79546Y603289D01*
X79659Y603287D01*
X79772Y603281D01*
X79885Y603271D01*
X79998Y603257D01*
X80110Y603240D01*
X80221Y603218D01*
X80331Y603193D01*
X80441Y603163D01*
X80549Y603130D01*
X80656Y603093D01*
X80762Y603053D01*
X80866Y603008D01*
X80969Y602960D01*
X81070Y602909D01*
X81169Y602854D01*
X81266Y602796D01*
X81361Y602734D01*
X81454Y602669D01*
X81544Y602601D01*
X81632Y602530D01*
X81718Y602455D01*
X81801Y602378D01*
X81881Y602298D01*
X81958Y602215D01*
X82033Y602129D01*
X82104Y602041D01*
X82172Y601951D01*
X82237Y601858D01*
X82299Y601763D01*
X82357Y601666D01*
X82412Y601567D01*
X82463Y601466D01*
X82511Y601363D01*
X82556Y601259D01*
X82596Y601153D01*
X82633Y601046D01*
X82666Y600938D01*
X82696Y600828D01*
X82721Y600718D01*
X82743Y600607D01*
X82760Y600495D01*
X82774Y600382D01*
X82784Y600269D01*
X82790Y600156D01*
X82792Y600043D01*
X82792Y596797D01*
X82792Y608608D02*
X82792Y611854D01*
X82790Y611967D01*
X82784Y612080D01*
X82774Y612193D01*
X82760Y612306D01*
X82743Y612418D01*
X82721Y612529D01*
X82696Y612639D01*
X82666Y612749D01*
X82633Y612857D01*
X82596Y612964D01*
X82556Y613070D01*
X82511Y613174D01*
X82463Y613277D01*
X82412Y613378D01*
X82357Y613477D01*
X82299Y613574D01*
X82237Y613669D01*
X82172Y613762D01*
X82104Y613852D01*
X82033Y613940D01*
X81958Y614026D01*
X81881Y614109D01*
X81801Y614189D01*
X81718Y614266D01*
X81632Y614341D01*
X81544Y614412D01*
X81454Y614480D01*
X81361Y614545D01*
X81266Y614607D01*
X81169Y614665D01*
X81070Y614720D01*
X80969Y614771D01*
X80866Y614819D01*
X80762Y614864D01*
X80656Y614904D01*
X80549Y614941D01*
X80441Y614974D01*
X80331Y615004D01*
X80221Y615029D01*
X80110Y615051D01*
X79998Y615068D01*
X79885Y615082D01*
X79772Y615092D01*
X79659Y615098D01*
X79546Y615100D01*
X79433Y615098D01*
X79320Y615092D01*
X79207Y615082D01*
X79094Y615068D01*
X78982Y615051D01*
X78871Y615029D01*
X78761Y615004D01*
X78651Y614974D01*
X78543Y614941D01*
X78436Y614904D01*
X78330Y614864D01*
X78226Y614819D01*
X78123Y614771D01*
X78022Y614720D01*
X77923Y614665D01*
X77826Y614607D01*
X77731Y614545D01*
X77638Y614480D01*
X77548Y614412D01*
X77460Y614341D01*
X77374Y614266D01*
X77291Y614189D01*
X77211Y614109D01*
X77134Y614026D01*
X77059Y613940D01*
X76988Y613852D01*
X76920Y613762D01*
X76855Y613669D01*
X76793Y613574D01*
X76735Y613477D01*
X76680Y613378D01*
X76629Y613277D01*
X76581Y613174D01*
X76536Y613070D01*
X76496Y612964D01*
X76459Y612857D01*
X76426Y612749D01*
X76396Y612639D01*
X76371Y612529D01*
X76349Y612418D01*
X76332Y612306D01*
X76318Y612193D01*
X76308Y612080D01*
X76302Y611967D01*
X76300Y611854D01*
X71108Y612503D02*
X71108Y608608D01*
X71108Y612503D02*
X71110Y612604D01*
X71116Y612704D01*
X71126Y612804D01*
X71139Y612904D01*
X71157Y613003D01*
X71178Y613102D01*
X71203Y613199D01*
X71232Y613296D01*
X71265Y613391D01*
X71301Y613485D01*
X71341Y613577D01*
X71384Y613668D01*
X71431Y613757D01*
X71481Y613844D01*
X71535Y613930D01*
X71592Y614013D01*
X71652Y614093D01*
X71715Y614172D01*
X71782Y614248D01*
X71851Y614321D01*
X71923Y614391D01*
X71997Y614459D01*
X72074Y614524D01*
X72154Y614585D01*
X72236Y614644D01*
X72320Y614699D01*
X72406Y614751D01*
X72494Y614800D01*
X72584Y614845D01*
X72676Y614887D01*
X72769Y614925D01*
X72864Y614959D01*
X72959Y614990D01*
X73056Y615017D01*
X73154Y615040D01*
X73253Y615060D01*
X73353Y615075D01*
X73453Y615087D01*
X73553Y615095D01*
X73654Y615099D01*
X73754Y615099D01*
X73855Y615095D01*
X73955Y615087D01*
X74055Y615075D01*
X74155Y615060D01*
X74254Y615040D01*
X74352Y615017D01*
X74449Y614990D01*
X74544Y614959D01*
X74639Y614925D01*
X74732Y614887D01*
X74824Y614845D01*
X74914Y614800D01*
X75002Y614751D01*
X75088Y614699D01*
X75172Y614644D01*
X75254Y614585D01*
X75334Y614524D01*
X75411Y614459D01*
X75485Y614391D01*
X75557Y614321D01*
X75626Y614248D01*
X75693Y614172D01*
X75756Y614093D01*
X75816Y614013D01*
X75873Y613930D01*
X75927Y613844D01*
X75977Y613757D01*
X76024Y613668D01*
X76067Y613577D01*
X76107Y613485D01*
X76143Y613391D01*
X76176Y613296D01*
X76205Y613199D01*
X76230Y613102D01*
X76251Y613003D01*
X76269Y612904D01*
X76282Y612804D01*
X76292Y612704D01*
X76298Y612604D01*
X76300Y612503D01*
X76301Y612503D02*
X76301Y609907D01*
D14*
X120200Y590700D03*
X132200Y590700D03*
D15*
X126200Y590700D03*
D10*
X112992Y577008D02*
X101308Y577008D01*
X112992Y577008D02*
X112992Y582201D01*
X112992Y586914D02*
X112992Y592107D01*
X112992Y586914D02*
X101308Y586914D01*
X101308Y592107D01*
X106501Y590809D02*
X106501Y586914D01*
X101308Y596797D02*
X112992Y596797D01*
X101308Y596797D02*
X101308Y600043D01*
X101310Y600156D01*
X101316Y600269D01*
X101326Y600382D01*
X101340Y600495D01*
X101357Y600607D01*
X101379Y600718D01*
X101404Y600828D01*
X101434Y600938D01*
X101467Y601046D01*
X101504Y601153D01*
X101544Y601259D01*
X101589Y601363D01*
X101637Y601466D01*
X101688Y601567D01*
X101743Y601666D01*
X101801Y601763D01*
X101863Y601858D01*
X101928Y601951D01*
X101996Y602041D01*
X102067Y602129D01*
X102142Y602215D01*
X102219Y602298D01*
X102299Y602378D01*
X102382Y602455D01*
X102468Y602530D01*
X102556Y602601D01*
X102646Y602669D01*
X102739Y602734D01*
X102834Y602796D01*
X102931Y602854D01*
X103030Y602909D01*
X103131Y602960D01*
X103234Y603008D01*
X103338Y603053D01*
X103444Y603093D01*
X103551Y603130D01*
X103659Y603163D01*
X103769Y603193D01*
X103879Y603218D01*
X103990Y603240D01*
X104102Y603257D01*
X104215Y603271D01*
X104328Y603281D01*
X104441Y603287D01*
X104554Y603289D01*
X109746Y603289D01*
X109859Y603287D01*
X109972Y603281D01*
X110085Y603271D01*
X110198Y603257D01*
X110310Y603240D01*
X110421Y603218D01*
X110531Y603193D01*
X110641Y603163D01*
X110749Y603130D01*
X110856Y603093D01*
X110962Y603053D01*
X111066Y603008D01*
X111169Y602960D01*
X111270Y602909D01*
X111369Y602854D01*
X111466Y602796D01*
X111561Y602734D01*
X111654Y602669D01*
X111744Y602601D01*
X111832Y602530D01*
X111918Y602455D01*
X112001Y602378D01*
X112081Y602298D01*
X112158Y602215D01*
X112233Y602129D01*
X112304Y602041D01*
X112372Y601951D01*
X112437Y601858D01*
X112499Y601763D01*
X112557Y601666D01*
X112612Y601567D01*
X112663Y601466D01*
X112711Y601363D01*
X112756Y601259D01*
X112796Y601153D01*
X112833Y601046D01*
X112866Y600938D01*
X112896Y600828D01*
X112921Y600718D01*
X112943Y600607D01*
X112960Y600495D01*
X112974Y600382D01*
X112984Y600269D01*
X112990Y600156D01*
X112992Y600043D01*
X112992Y596797D01*
X110396Y608608D02*
X101308Y611205D01*
X110396Y608608D02*
X110396Y615099D01*
X107799Y613152D02*
X112992Y613152D01*
D14*
X152400Y590700D03*
X164400Y590700D03*
D15*
X158400Y590700D03*
D10*
X145192Y577008D02*
X133508Y577008D01*
X145192Y577008D02*
X145192Y582201D01*
X145192Y586914D02*
X145192Y592107D01*
X145192Y586914D02*
X133508Y586914D01*
X133508Y592107D01*
X138701Y590809D02*
X138701Y586914D01*
X133508Y596797D02*
X145192Y596797D01*
X133508Y596797D02*
X133508Y600043D01*
X133510Y600156D01*
X133516Y600269D01*
X133526Y600382D01*
X133540Y600495D01*
X133557Y600607D01*
X133579Y600718D01*
X133604Y600828D01*
X133634Y600938D01*
X133667Y601046D01*
X133704Y601153D01*
X133744Y601259D01*
X133789Y601363D01*
X133837Y601466D01*
X133888Y601567D01*
X133943Y601666D01*
X134001Y601763D01*
X134063Y601858D01*
X134128Y601951D01*
X134196Y602041D01*
X134267Y602129D01*
X134342Y602215D01*
X134419Y602298D01*
X134499Y602378D01*
X134582Y602455D01*
X134668Y602530D01*
X134756Y602601D01*
X134846Y602669D01*
X134939Y602734D01*
X135034Y602796D01*
X135131Y602854D01*
X135230Y602909D01*
X135331Y602960D01*
X135434Y603008D01*
X135538Y603053D01*
X135644Y603093D01*
X135751Y603130D01*
X135859Y603163D01*
X135969Y603193D01*
X136079Y603218D01*
X136190Y603240D01*
X136302Y603257D01*
X136415Y603271D01*
X136528Y603281D01*
X136641Y603287D01*
X136754Y603289D01*
X141946Y603289D01*
X142059Y603287D01*
X142172Y603281D01*
X142285Y603271D01*
X142398Y603257D01*
X142510Y603240D01*
X142621Y603218D01*
X142731Y603193D01*
X142841Y603163D01*
X142949Y603130D01*
X143056Y603093D01*
X143162Y603053D01*
X143266Y603008D01*
X143369Y602960D01*
X143470Y602909D01*
X143569Y602854D01*
X143666Y602796D01*
X143761Y602734D01*
X143854Y602669D01*
X143944Y602601D01*
X144032Y602530D01*
X144118Y602455D01*
X144201Y602378D01*
X144281Y602298D01*
X144358Y602215D01*
X144433Y602129D01*
X144504Y602041D01*
X144572Y601951D01*
X144637Y601858D01*
X144699Y601763D01*
X144757Y601666D01*
X144812Y601567D01*
X144863Y601466D01*
X144911Y601363D01*
X144956Y601259D01*
X144996Y601153D01*
X145033Y601046D01*
X145066Y600938D01*
X145096Y600828D01*
X145121Y600718D01*
X145143Y600607D01*
X145160Y600495D01*
X145174Y600382D01*
X145184Y600269D01*
X145190Y600156D01*
X145192Y600043D01*
X145192Y596797D01*
X145192Y608608D02*
X145192Y612503D01*
X145190Y612602D01*
X145184Y612702D01*
X145175Y612801D01*
X145162Y612899D01*
X145145Y612997D01*
X145124Y613095D01*
X145099Y613191D01*
X145071Y613286D01*
X145039Y613380D01*
X145004Y613473D01*
X144965Y613565D01*
X144922Y613655D01*
X144877Y613743D01*
X144827Y613830D01*
X144775Y613914D01*
X144719Y613997D01*
X144661Y614077D01*
X144599Y614155D01*
X144534Y614230D01*
X144466Y614303D01*
X144396Y614373D01*
X144323Y614441D01*
X144248Y614506D01*
X144170Y614568D01*
X144090Y614626D01*
X144007Y614682D01*
X143923Y614734D01*
X143836Y614784D01*
X143748Y614829D01*
X143658Y614872D01*
X143566Y614911D01*
X143473Y614946D01*
X143379Y614978D01*
X143284Y615006D01*
X143188Y615031D01*
X143090Y615052D01*
X142992Y615069D01*
X142894Y615082D01*
X142795Y615091D01*
X142695Y615097D01*
X142596Y615099D01*
X141297Y615099D01*
X141198Y615097D01*
X141098Y615091D01*
X140999Y615082D01*
X140901Y615069D01*
X140803Y615052D01*
X140705Y615031D01*
X140609Y615006D01*
X140514Y614978D01*
X140420Y614946D01*
X140327Y614911D01*
X140235Y614872D01*
X140145Y614829D01*
X140057Y614784D01*
X139970Y614734D01*
X139886Y614682D01*
X139803Y614626D01*
X139723Y614568D01*
X139645Y614506D01*
X139570Y614441D01*
X139497Y614373D01*
X139427Y614303D01*
X139359Y614230D01*
X139294Y614155D01*
X139232Y614077D01*
X139174Y613997D01*
X139118Y613914D01*
X139066Y613830D01*
X139016Y613743D01*
X138971Y613655D01*
X138928Y613565D01*
X138889Y613473D01*
X138854Y613380D01*
X138822Y613286D01*
X138794Y613191D01*
X138769Y613095D01*
X138748Y612997D01*
X138731Y612899D01*
X138718Y612801D01*
X138709Y612702D01*
X138703Y612602D01*
X138701Y612503D01*
X138701Y608608D01*
X133508Y608608D01*
X133508Y615099D01*
D16*
X513176Y482910D02*
X542132Y482910D01*
X542132Y475290D01*
X513176Y475290D01*
X513176Y482910D01*
D11*
X517240Y512755D02*
X517240Y524185D01*
X514065Y524185D02*
X520415Y524185D01*
X524733Y521645D02*
X527908Y524185D01*
X527908Y512755D01*
X524733Y512755D02*
X531083Y512755D01*
D16*
X502732Y483110D02*
X473776Y483110D01*
X502732Y483110D02*
X502732Y475490D01*
X473776Y475490D01*
X473776Y483110D01*
D11*
X477840Y512955D02*
X477840Y524385D01*
X474665Y524385D02*
X481015Y524385D01*
X488826Y524386D02*
X488930Y524384D01*
X489035Y524378D01*
X489139Y524369D01*
X489242Y524356D01*
X489345Y524338D01*
X489447Y524318D01*
X489549Y524293D01*
X489649Y524265D01*
X489749Y524233D01*
X489847Y524197D01*
X489944Y524158D01*
X490039Y524116D01*
X490133Y524070D01*
X490225Y524020D01*
X490315Y523968D01*
X490403Y523912D01*
X490489Y523852D01*
X490573Y523790D01*
X490654Y523725D01*
X490733Y523657D01*
X490810Y523585D01*
X490883Y523512D01*
X490955Y523435D01*
X491023Y523356D01*
X491088Y523275D01*
X491150Y523191D01*
X491210Y523105D01*
X491266Y523017D01*
X491318Y522927D01*
X491368Y522835D01*
X491414Y522741D01*
X491456Y522646D01*
X491495Y522549D01*
X491531Y522451D01*
X491563Y522351D01*
X491591Y522251D01*
X491616Y522149D01*
X491636Y522047D01*
X491654Y521944D01*
X491667Y521841D01*
X491676Y521737D01*
X491682Y521632D01*
X491684Y521528D01*
X488826Y524385D02*
X488708Y524383D01*
X488589Y524377D01*
X488471Y524368D01*
X488354Y524355D01*
X488237Y524337D01*
X488120Y524317D01*
X488004Y524292D01*
X487889Y524264D01*
X487776Y524231D01*
X487663Y524196D01*
X487551Y524156D01*
X487441Y524114D01*
X487332Y524067D01*
X487224Y524017D01*
X487119Y523964D01*
X487015Y523907D01*
X486913Y523847D01*
X486813Y523784D01*
X486715Y523717D01*
X486619Y523648D01*
X486526Y523575D01*
X486435Y523499D01*
X486346Y523421D01*
X486260Y523339D01*
X486177Y523255D01*
X486096Y523169D01*
X486019Y523079D01*
X485944Y522988D01*
X485872Y522894D01*
X485803Y522797D01*
X485738Y522699D01*
X485675Y522598D01*
X485616Y522495D01*
X485560Y522391D01*
X485508Y522285D01*
X485459Y522177D01*
X485414Y522068D01*
X485372Y521957D01*
X485334Y521845D01*
X490731Y519306D02*
X490807Y519381D01*
X490882Y519460D01*
X490953Y519541D01*
X491022Y519625D01*
X491087Y519711D01*
X491149Y519799D01*
X491209Y519889D01*
X491265Y519981D01*
X491318Y520076D01*
X491367Y520172D01*
X491413Y520270D01*
X491456Y520369D01*
X491495Y520470D01*
X491530Y520572D01*
X491562Y520675D01*
X491590Y520779D01*
X491615Y520884D01*
X491636Y520991D01*
X491653Y521097D01*
X491666Y521204D01*
X491675Y521312D01*
X491681Y521420D01*
X491683Y521528D01*
X490731Y519305D02*
X485333Y512955D01*
X491683Y512955D01*
D16*
X483824Y512290D02*
X454868Y512290D01*
X454868Y519910D01*
X483824Y519910D01*
X483824Y512290D01*
D11*
X469092Y482445D02*
X469092Y471015D01*
X465917Y482445D02*
X472267Y482445D01*
X476585Y471015D02*
X479760Y471015D01*
X479871Y471017D01*
X479981Y471023D01*
X480092Y471032D01*
X480202Y471046D01*
X480311Y471063D01*
X480420Y471084D01*
X480528Y471109D01*
X480635Y471138D01*
X480741Y471170D01*
X480846Y471206D01*
X480949Y471246D01*
X481051Y471289D01*
X481152Y471336D01*
X481251Y471387D01*
X481348Y471440D01*
X481442Y471497D01*
X481535Y471558D01*
X481626Y471621D01*
X481715Y471688D01*
X481801Y471758D01*
X481884Y471831D01*
X481966Y471906D01*
X482044Y471984D01*
X482119Y472066D01*
X482192Y472149D01*
X482262Y472235D01*
X482329Y472324D01*
X482392Y472415D01*
X482453Y472508D01*
X482510Y472602D01*
X482563Y472699D01*
X482614Y472798D01*
X482661Y472899D01*
X482704Y473001D01*
X482744Y473104D01*
X482780Y473209D01*
X482812Y473315D01*
X482841Y473422D01*
X482866Y473530D01*
X482887Y473639D01*
X482904Y473748D01*
X482918Y473858D01*
X482927Y473969D01*
X482933Y474079D01*
X482935Y474190D01*
X482933Y474301D01*
X482927Y474411D01*
X482918Y474522D01*
X482904Y474632D01*
X482887Y474741D01*
X482866Y474850D01*
X482841Y474958D01*
X482812Y475065D01*
X482780Y475171D01*
X482744Y475276D01*
X482704Y475379D01*
X482661Y475481D01*
X482614Y475582D01*
X482563Y475681D01*
X482510Y475777D01*
X482453Y475872D01*
X482392Y475965D01*
X482329Y476056D01*
X482262Y476145D01*
X482192Y476231D01*
X482119Y476314D01*
X482044Y476396D01*
X481966Y476474D01*
X481884Y476549D01*
X481801Y476622D01*
X481715Y476692D01*
X481626Y476759D01*
X481535Y476822D01*
X481442Y476883D01*
X481348Y476940D01*
X481251Y476993D01*
X481152Y477044D01*
X481051Y477091D01*
X480949Y477134D01*
X480846Y477174D01*
X480741Y477210D01*
X480635Y477242D01*
X480528Y477271D01*
X480420Y477296D01*
X480311Y477317D01*
X480202Y477334D01*
X480092Y477348D01*
X479981Y477357D01*
X479871Y477363D01*
X479760Y477365D01*
X480395Y482445D02*
X476585Y482445D01*
X480395Y482445D02*
X480495Y482443D01*
X480594Y482437D01*
X480694Y482427D01*
X480792Y482414D01*
X480891Y482396D01*
X480988Y482375D01*
X481084Y482350D01*
X481180Y482321D01*
X481274Y482288D01*
X481367Y482252D01*
X481458Y482212D01*
X481548Y482168D01*
X481636Y482121D01*
X481722Y482071D01*
X481806Y482017D01*
X481888Y481960D01*
X481967Y481900D01*
X482045Y481836D01*
X482119Y481770D01*
X482191Y481701D01*
X482260Y481629D01*
X482326Y481555D01*
X482390Y481477D01*
X482450Y481398D01*
X482507Y481316D01*
X482561Y481232D01*
X482611Y481146D01*
X482658Y481058D01*
X482702Y480968D01*
X482742Y480877D01*
X482778Y480784D01*
X482811Y480690D01*
X482840Y480594D01*
X482865Y480498D01*
X482886Y480401D01*
X482904Y480302D01*
X482917Y480204D01*
X482927Y480104D01*
X482933Y480005D01*
X482935Y479905D01*
X482933Y479805D01*
X482927Y479706D01*
X482917Y479606D01*
X482904Y479508D01*
X482886Y479409D01*
X482865Y479312D01*
X482840Y479216D01*
X482811Y479120D01*
X482778Y479026D01*
X482742Y478933D01*
X482702Y478842D01*
X482658Y478752D01*
X482611Y478664D01*
X482561Y478578D01*
X482507Y478494D01*
X482450Y478412D01*
X482390Y478333D01*
X482326Y478255D01*
X482260Y478181D01*
X482191Y478109D01*
X482119Y478040D01*
X482045Y477974D01*
X481967Y477910D01*
X481888Y477850D01*
X481806Y477793D01*
X481722Y477739D01*
X481636Y477689D01*
X481548Y477642D01*
X481458Y477598D01*
X481367Y477558D01*
X481274Y477522D01*
X481180Y477489D01*
X481084Y477460D01*
X480988Y477435D01*
X480891Y477414D01*
X480792Y477396D01*
X480694Y477383D01*
X480594Y477373D01*
X480495Y477367D01*
X480395Y477365D01*
X477855Y477365D01*
D16*
X493976Y528110D02*
X522932Y528110D01*
X522932Y520490D01*
X493976Y520490D01*
X493976Y528110D01*
D11*
X498040Y557955D02*
X498040Y569385D01*
X494865Y569385D02*
X501215Y569385D01*
X508073Y569385D02*
X505533Y560495D01*
X511883Y560495D01*
X509978Y563035D02*
X509978Y557955D01*
X276860Y533400D02*
X2540Y533400D01*
X276860Y533400D02*
X276860Y254000D01*
X215900Y254000D01*
X63500Y254000D01*
X2540Y254000D01*
X2540Y533400D01*
X88900Y527050D02*
X95250Y533400D01*
X107950Y533400D02*
X114300Y527050D01*
X120650Y533400D01*
X133350Y533400D02*
X139700Y527050D01*
X146050Y533400D01*
X158750Y533400D02*
X165100Y527050D01*
X171450Y533400D01*
X184150Y533400D02*
X190500Y527050D01*
X190500Y514350D02*
X184150Y508000D01*
X171450Y508000D01*
X165100Y514350D01*
X158750Y508000D01*
X146050Y508000D01*
X139700Y514350D01*
X133350Y508000D01*
X120650Y508000D01*
X114300Y514350D01*
X107950Y508000D01*
X95250Y508000D01*
X88900Y514350D01*
X88900Y527050D01*
X25400Y474980D02*
X254000Y474980D01*
X254000Y337820D01*
X25400Y337820D01*
X25400Y474980D01*
X190500Y514350D02*
X190500Y527050D01*
D13*
X94457Y498362D02*
X92891Y498362D01*
X94457Y498362D02*
X94457Y493141D01*
X91324Y493141D01*
X91235Y493143D01*
X91147Y493149D01*
X91059Y493158D01*
X90971Y493171D01*
X90884Y493188D01*
X90798Y493208D01*
X90713Y493233D01*
X90628Y493260D01*
X90545Y493292D01*
X90464Y493326D01*
X90384Y493365D01*
X90306Y493406D01*
X90229Y493451D01*
X90155Y493499D01*
X90082Y493550D01*
X90012Y493604D01*
X89945Y493662D01*
X89879Y493722D01*
X89817Y493784D01*
X89757Y493850D01*
X89699Y493917D01*
X89645Y493987D01*
X89594Y494060D01*
X89546Y494134D01*
X89501Y494211D01*
X89460Y494289D01*
X89421Y494369D01*
X89387Y494450D01*
X89355Y494533D01*
X89328Y494618D01*
X89303Y494703D01*
X89283Y494789D01*
X89266Y494876D01*
X89253Y494964D01*
X89244Y495052D01*
X89238Y495140D01*
X89236Y495229D01*
X89236Y500451D01*
X89238Y500542D01*
X89244Y500633D01*
X89254Y500724D01*
X89268Y500814D01*
X89285Y500903D01*
X89307Y500991D01*
X89333Y501079D01*
X89362Y501165D01*
X89395Y501250D01*
X89432Y501333D01*
X89472Y501415D01*
X89516Y501495D01*
X89563Y501573D01*
X89614Y501649D01*
X89667Y501722D01*
X89724Y501793D01*
X89785Y501862D01*
X89848Y501927D01*
X89913Y501990D01*
X89982Y502050D01*
X90053Y502108D01*
X90126Y502161D01*
X90202Y502212D01*
X90280Y502259D01*
X90360Y502303D01*
X90442Y502343D01*
X90525Y502380D01*
X90610Y502413D01*
X90696Y502442D01*
X90784Y502468D01*
X90872Y502490D01*
X90961Y502507D01*
X91051Y502521D01*
X91142Y502531D01*
X91233Y502537D01*
X91324Y502539D01*
X94457Y502539D01*
X98989Y502539D02*
X98989Y493141D01*
X104211Y493141D02*
X98989Y502539D01*
X104211Y502539D02*
X104211Y493141D01*
X108743Y493141D02*
X108743Y502539D01*
X111354Y502539D01*
X111454Y502537D01*
X111554Y502531D01*
X111653Y502522D01*
X111753Y502508D01*
X111851Y502491D01*
X111949Y502470D01*
X112046Y502446D01*
X112142Y502417D01*
X112237Y502385D01*
X112330Y502350D01*
X112422Y502311D01*
X112513Y502268D01*
X112601Y502222D01*
X112688Y502172D01*
X112773Y502120D01*
X112856Y502064D01*
X112937Y502005D01*
X113015Y501942D01*
X113091Y501877D01*
X113165Y501809D01*
X113235Y501739D01*
X113303Y501665D01*
X113368Y501589D01*
X113431Y501511D01*
X113490Y501430D01*
X113546Y501347D01*
X113598Y501262D01*
X113648Y501175D01*
X113694Y501087D01*
X113737Y500996D01*
X113776Y500904D01*
X113811Y500811D01*
X113843Y500716D01*
X113872Y500620D01*
X113896Y500523D01*
X113917Y500425D01*
X113934Y500327D01*
X113948Y500227D01*
X113957Y500128D01*
X113963Y500028D01*
X113965Y499928D01*
X113964Y499928D02*
X113964Y495752D01*
X113965Y495752D02*
X113963Y495652D01*
X113957Y495552D01*
X113948Y495453D01*
X113934Y495353D01*
X113917Y495255D01*
X113896Y495157D01*
X113872Y495060D01*
X113843Y494964D01*
X113811Y494869D01*
X113776Y494776D01*
X113737Y494684D01*
X113694Y494593D01*
X113648Y494505D01*
X113598Y494418D01*
X113546Y494333D01*
X113490Y494250D01*
X113431Y494169D01*
X113368Y494091D01*
X113303Y494015D01*
X113235Y493941D01*
X113165Y493871D01*
X113091Y493803D01*
X113015Y493738D01*
X112937Y493675D01*
X112856Y493616D01*
X112773Y493560D01*
X112688Y493508D01*
X112601Y493458D01*
X112513Y493412D01*
X112422Y493369D01*
X112330Y493330D01*
X112237Y493295D01*
X112142Y493263D01*
X112046Y493234D01*
X111949Y493210D01*
X111851Y493189D01*
X111753Y493172D01*
X111653Y493158D01*
X111554Y493149D01*
X111454Y493143D01*
X111354Y493141D01*
X108743Y493141D01*
X116281Y489839D02*
X119414Y480441D01*
X122547Y489839D01*
X128010Y480441D02*
X130099Y480441D01*
X128010Y480441D02*
X127921Y480443D01*
X127833Y480449D01*
X127745Y480458D01*
X127657Y480471D01*
X127570Y480488D01*
X127484Y480508D01*
X127399Y480533D01*
X127314Y480560D01*
X127231Y480592D01*
X127150Y480626D01*
X127070Y480665D01*
X126992Y480706D01*
X126915Y480751D01*
X126841Y480799D01*
X126768Y480850D01*
X126698Y480904D01*
X126631Y480962D01*
X126565Y481022D01*
X126503Y481084D01*
X126443Y481150D01*
X126385Y481217D01*
X126331Y481287D01*
X126280Y481360D01*
X126232Y481434D01*
X126187Y481511D01*
X126146Y481589D01*
X126107Y481669D01*
X126073Y481750D01*
X126041Y481833D01*
X126014Y481918D01*
X125989Y482003D01*
X125969Y482089D01*
X125952Y482176D01*
X125939Y482264D01*
X125930Y482352D01*
X125924Y482440D01*
X125922Y482529D01*
X125922Y487751D01*
X125924Y487842D01*
X125930Y487933D01*
X125940Y488024D01*
X125954Y488114D01*
X125971Y488203D01*
X125993Y488291D01*
X126019Y488379D01*
X126048Y488465D01*
X126081Y488550D01*
X126118Y488633D01*
X126158Y488715D01*
X126202Y488795D01*
X126249Y488873D01*
X126300Y488949D01*
X126353Y489022D01*
X126410Y489093D01*
X126471Y489162D01*
X126534Y489227D01*
X126599Y489290D01*
X126668Y489350D01*
X126739Y489408D01*
X126812Y489461D01*
X126888Y489512D01*
X126966Y489559D01*
X127046Y489603D01*
X127128Y489643D01*
X127211Y489680D01*
X127296Y489713D01*
X127382Y489742D01*
X127470Y489768D01*
X127558Y489790D01*
X127647Y489807D01*
X127737Y489821D01*
X127828Y489831D01*
X127919Y489837D01*
X128010Y489839D01*
X130099Y489839D01*
X135630Y480441D02*
X137719Y480441D01*
X135630Y480441D02*
X135541Y480443D01*
X135453Y480449D01*
X135365Y480458D01*
X135277Y480471D01*
X135190Y480488D01*
X135104Y480508D01*
X135019Y480533D01*
X134934Y480560D01*
X134851Y480592D01*
X134770Y480626D01*
X134690Y480665D01*
X134612Y480706D01*
X134535Y480751D01*
X134461Y480799D01*
X134388Y480850D01*
X134318Y480904D01*
X134251Y480962D01*
X134185Y481022D01*
X134123Y481084D01*
X134063Y481150D01*
X134005Y481217D01*
X133951Y481287D01*
X133900Y481360D01*
X133852Y481434D01*
X133807Y481511D01*
X133766Y481589D01*
X133727Y481669D01*
X133693Y481750D01*
X133661Y481833D01*
X133634Y481918D01*
X133609Y482003D01*
X133589Y482089D01*
X133572Y482176D01*
X133559Y482264D01*
X133550Y482352D01*
X133544Y482440D01*
X133542Y482529D01*
X133542Y487751D01*
X133544Y487842D01*
X133550Y487933D01*
X133560Y488024D01*
X133574Y488114D01*
X133591Y488203D01*
X133613Y488291D01*
X133639Y488379D01*
X133668Y488465D01*
X133701Y488550D01*
X133738Y488633D01*
X133778Y488715D01*
X133822Y488795D01*
X133869Y488873D01*
X133920Y488949D01*
X133973Y489022D01*
X134030Y489093D01*
X134091Y489162D01*
X134154Y489227D01*
X134219Y489290D01*
X134288Y489350D01*
X134359Y489408D01*
X134432Y489461D01*
X134508Y489512D01*
X134586Y489559D01*
X134666Y489603D01*
X134748Y489643D01*
X134831Y489680D01*
X134916Y489713D01*
X135002Y489742D01*
X135090Y489768D01*
X135178Y489790D01*
X135267Y489807D01*
X135357Y489821D01*
X135448Y489831D01*
X135539Y489837D01*
X135630Y489839D01*
X137719Y489839D01*
X145054Y493141D02*
X145143Y493143D01*
X145231Y493149D01*
X145319Y493158D01*
X145407Y493171D01*
X145494Y493188D01*
X145580Y493208D01*
X145665Y493233D01*
X145750Y493260D01*
X145833Y493292D01*
X145914Y493326D01*
X145994Y493365D01*
X146072Y493406D01*
X146149Y493451D01*
X146223Y493499D01*
X146296Y493550D01*
X146366Y493604D01*
X146433Y493662D01*
X146499Y493722D01*
X146561Y493784D01*
X146621Y493850D01*
X146679Y493917D01*
X146733Y493987D01*
X146784Y494060D01*
X146832Y494134D01*
X146877Y494211D01*
X146918Y494289D01*
X146957Y494369D01*
X146991Y494450D01*
X147023Y494533D01*
X147050Y494618D01*
X147075Y494703D01*
X147095Y494789D01*
X147112Y494876D01*
X147125Y494964D01*
X147134Y495052D01*
X147140Y495140D01*
X147142Y495229D01*
X145054Y493141D02*
X144925Y493143D01*
X144796Y493149D01*
X144667Y493158D01*
X144539Y493171D01*
X144411Y493188D01*
X144284Y493209D01*
X144157Y493233D01*
X144031Y493261D01*
X143906Y493293D01*
X143782Y493328D01*
X143659Y493367D01*
X143537Y493410D01*
X143417Y493456D01*
X143298Y493506D01*
X143180Y493559D01*
X143064Y493615D01*
X142950Y493675D01*
X142837Y493738D01*
X142727Y493805D01*
X142618Y493874D01*
X142512Y493947D01*
X142407Y494023D01*
X142305Y494102D01*
X142206Y494184D01*
X142108Y494268D01*
X142013Y494356D01*
X141921Y494446D01*
X142182Y500451D02*
X142184Y500540D01*
X142190Y500628D01*
X142199Y500716D01*
X142212Y500804D01*
X142229Y500891D01*
X142249Y500977D01*
X142274Y501062D01*
X142301Y501147D01*
X142333Y501230D01*
X142367Y501311D01*
X142406Y501391D01*
X142447Y501469D01*
X142492Y501546D01*
X142540Y501620D01*
X142591Y501693D01*
X142645Y501763D01*
X142703Y501830D01*
X142763Y501896D01*
X142825Y501958D01*
X142891Y502018D01*
X142958Y502076D01*
X143028Y502130D01*
X143101Y502181D01*
X143175Y502229D01*
X143252Y502274D01*
X143330Y502315D01*
X143410Y502354D01*
X143491Y502388D01*
X143574Y502420D01*
X143659Y502447D01*
X143744Y502472D01*
X143830Y502492D01*
X143917Y502509D01*
X144005Y502522D01*
X144093Y502531D01*
X144181Y502537D01*
X144270Y502539D01*
X144390Y502537D01*
X144510Y502532D01*
X144630Y502522D01*
X144749Y502510D01*
X144868Y502493D01*
X144986Y502473D01*
X145104Y502449D01*
X145220Y502422D01*
X145336Y502391D01*
X145451Y502357D01*
X145565Y502319D01*
X145678Y502277D01*
X145789Y502232D01*
X145899Y502184D01*
X146007Y502133D01*
X146114Y502078D01*
X146219Y502020D01*
X146322Y501958D01*
X146423Y501894D01*
X146523Y501826D01*
X146620Y501756D01*
X143226Y498624D02*
X143148Y498672D01*
X143072Y498724D01*
X142999Y498778D01*
X142928Y498836D01*
X142859Y498897D01*
X142793Y498961D01*
X142730Y499028D01*
X142670Y499097D01*
X142613Y499169D01*
X142559Y499243D01*
X142509Y499320D01*
X142461Y499399D01*
X142418Y499479D01*
X142377Y499562D01*
X142341Y499646D01*
X142308Y499731D01*
X142279Y499818D01*
X142253Y499907D01*
X142231Y499996D01*
X142214Y500086D01*
X142200Y500176D01*
X142190Y500268D01*
X142184Y500359D01*
X142182Y500451D01*
X146098Y497056D02*
X146176Y497008D01*
X146252Y496956D01*
X146325Y496902D01*
X146396Y496844D01*
X146465Y496783D01*
X146531Y496719D01*
X146594Y496652D01*
X146654Y496583D01*
X146711Y496511D01*
X146765Y496437D01*
X146815Y496360D01*
X146863Y496281D01*
X146906Y496201D01*
X146947Y496118D01*
X146983Y496034D01*
X147016Y495949D01*
X147045Y495862D01*
X147071Y495773D01*
X147093Y495684D01*
X147110Y495594D01*
X147124Y495504D01*
X147134Y495412D01*
X147140Y495321D01*
X147142Y495229D01*
X146098Y497057D02*
X143226Y498623D01*
X152823Y493141D02*
X154911Y493141D01*
X152823Y493141D02*
X152734Y493143D01*
X152646Y493149D01*
X152558Y493158D01*
X152470Y493171D01*
X152383Y493188D01*
X152297Y493208D01*
X152212Y493233D01*
X152127Y493260D01*
X152044Y493292D01*
X151963Y493326D01*
X151883Y493365D01*
X151805Y493406D01*
X151728Y493451D01*
X151654Y493499D01*
X151581Y493550D01*
X151511Y493604D01*
X151444Y493662D01*
X151378Y493722D01*
X151316Y493784D01*
X151256Y493850D01*
X151198Y493917D01*
X151144Y493987D01*
X151093Y494060D01*
X151045Y494134D01*
X151000Y494211D01*
X150959Y494289D01*
X150920Y494369D01*
X150886Y494450D01*
X150854Y494533D01*
X150827Y494618D01*
X150802Y494703D01*
X150782Y494789D01*
X150765Y494876D01*
X150752Y494964D01*
X150743Y495052D01*
X150737Y495140D01*
X150735Y495229D01*
X150734Y495229D02*
X150734Y500451D01*
X150735Y500451D02*
X150737Y500542D01*
X150743Y500633D01*
X150753Y500724D01*
X150767Y500814D01*
X150784Y500903D01*
X150806Y500991D01*
X150832Y501079D01*
X150861Y501165D01*
X150894Y501250D01*
X150931Y501333D01*
X150971Y501415D01*
X151015Y501495D01*
X151062Y501573D01*
X151113Y501649D01*
X151166Y501722D01*
X151223Y501793D01*
X151284Y501862D01*
X151347Y501927D01*
X151412Y501990D01*
X151481Y502050D01*
X151552Y502108D01*
X151625Y502161D01*
X151701Y502212D01*
X151779Y502259D01*
X151859Y502303D01*
X151941Y502343D01*
X152024Y502380D01*
X152109Y502413D01*
X152195Y502442D01*
X152283Y502468D01*
X152371Y502490D01*
X152460Y502507D01*
X152550Y502521D01*
X152641Y502531D01*
X152732Y502537D01*
X152823Y502539D01*
X154911Y502539D01*
X158702Y502539D02*
X158702Y493141D01*
X162879Y493141D01*
X170853Y482529D02*
X170851Y482440D01*
X170845Y482352D01*
X170836Y482264D01*
X170823Y482176D01*
X170806Y482089D01*
X170786Y482003D01*
X170761Y481918D01*
X170734Y481833D01*
X170702Y481750D01*
X170668Y481669D01*
X170629Y481589D01*
X170588Y481511D01*
X170543Y481434D01*
X170495Y481360D01*
X170444Y481287D01*
X170390Y481217D01*
X170332Y481150D01*
X170272Y481084D01*
X170210Y481022D01*
X170144Y480962D01*
X170077Y480904D01*
X170007Y480850D01*
X169934Y480799D01*
X169860Y480751D01*
X169783Y480706D01*
X169705Y480665D01*
X169625Y480626D01*
X169544Y480592D01*
X169461Y480560D01*
X169376Y480533D01*
X169291Y480508D01*
X169205Y480488D01*
X169118Y480471D01*
X169030Y480458D01*
X168942Y480449D01*
X168854Y480443D01*
X168765Y480441D01*
X168636Y480443D01*
X168507Y480449D01*
X168378Y480458D01*
X168250Y480471D01*
X168122Y480488D01*
X167995Y480509D01*
X167868Y480533D01*
X167742Y480561D01*
X167617Y480593D01*
X167493Y480628D01*
X167370Y480667D01*
X167248Y480710D01*
X167128Y480756D01*
X167009Y480806D01*
X166891Y480859D01*
X166775Y480915D01*
X166661Y480975D01*
X166548Y481038D01*
X166438Y481105D01*
X166329Y481174D01*
X166223Y481247D01*
X166118Y481323D01*
X166016Y481402D01*
X165917Y481484D01*
X165819Y481568D01*
X165724Y481656D01*
X165632Y481746D01*
X165894Y487751D02*
X165896Y487840D01*
X165902Y487928D01*
X165911Y488016D01*
X165924Y488104D01*
X165941Y488191D01*
X165961Y488277D01*
X165986Y488362D01*
X166013Y488447D01*
X166045Y488530D01*
X166079Y488611D01*
X166118Y488691D01*
X166159Y488769D01*
X166204Y488846D01*
X166252Y488920D01*
X166303Y488993D01*
X166357Y489063D01*
X166415Y489130D01*
X166475Y489196D01*
X166537Y489258D01*
X166603Y489318D01*
X166670Y489376D01*
X166740Y489430D01*
X166813Y489481D01*
X166887Y489529D01*
X166964Y489574D01*
X167042Y489615D01*
X167122Y489654D01*
X167203Y489688D01*
X167286Y489720D01*
X167371Y489747D01*
X167456Y489772D01*
X167542Y489792D01*
X167629Y489809D01*
X167717Y489822D01*
X167805Y489831D01*
X167893Y489837D01*
X167982Y489839D01*
X167981Y489839D02*
X168101Y489837D01*
X168221Y489832D01*
X168341Y489822D01*
X168460Y489810D01*
X168579Y489793D01*
X168697Y489773D01*
X168815Y489749D01*
X168931Y489722D01*
X169047Y489691D01*
X169162Y489657D01*
X169276Y489619D01*
X169389Y489577D01*
X169500Y489532D01*
X169610Y489484D01*
X169718Y489433D01*
X169825Y489378D01*
X169930Y489320D01*
X170033Y489258D01*
X170134Y489194D01*
X170234Y489126D01*
X170331Y489056D01*
X166937Y485924D02*
X166859Y485972D01*
X166783Y486024D01*
X166710Y486078D01*
X166639Y486136D01*
X166570Y486197D01*
X166504Y486261D01*
X166441Y486328D01*
X166381Y486397D01*
X166324Y486469D01*
X166270Y486543D01*
X166220Y486620D01*
X166172Y486699D01*
X166129Y486779D01*
X166088Y486862D01*
X166052Y486946D01*
X166019Y487031D01*
X165990Y487118D01*
X165964Y487207D01*
X165942Y487296D01*
X165925Y487386D01*
X165911Y487476D01*
X165901Y487568D01*
X165895Y487659D01*
X165893Y487751D01*
X169809Y484356D02*
X169887Y484308D01*
X169963Y484256D01*
X170036Y484202D01*
X170107Y484144D01*
X170176Y484083D01*
X170242Y484019D01*
X170305Y483952D01*
X170365Y483883D01*
X170422Y483811D01*
X170476Y483737D01*
X170526Y483660D01*
X170574Y483581D01*
X170617Y483501D01*
X170658Y483418D01*
X170694Y483334D01*
X170727Y483249D01*
X170756Y483162D01*
X170782Y483073D01*
X170804Y482984D01*
X170821Y482894D01*
X170835Y482804D01*
X170845Y482712D01*
X170851Y482621D01*
X170853Y482529D01*
X169809Y484357D02*
X166937Y485923D01*
X174776Y489839D02*
X174776Y480441D01*
X174776Y489839D02*
X177387Y489839D01*
X177487Y489837D01*
X177587Y489831D01*
X177686Y489822D01*
X177786Y489808D01*
X177884Y489791D01*
X177982Y489770D01*
X178079Y489746D01*
X178175Y489717D01*
X178270Y489685D01*
X178363Y489650D01*
X178455Y489611D01*
X178546Y489568D01*
X178634Y489522D01*
X178721Y489472D01*
X178806Y489420D01*
X178889Y489364D01*
X178970Y489305D01*
X179048Y489242D01*
X179124Y489177D01*
X179198Y489109D01*
X179268Y489039D01*
X179336Y488965D01*
X179401Y488889D01*
X179464Y488811D01*
X179523Y488730D01*
X179579Y488647D01*
X179631Y488562D01*
X179681Y488475D01*
X179727Y488387D01*
X179770Y488296D01*
X179809Y488204D01*
X179844Y488111D01*
X179876Y488016D01*
X179905Y487920D01*
X179929Y487823D01*
X179950Y487725D01*
X179967Y487627D01*
X179981Y487527D01*
X179990Y487428D01*
X179996Y487328D01*
X179998Y487228D01*
X179997Y487228D02*
X179997Y483052D01*
X179998Y483052D02*
X179996Y482952D01*
X179990Y482852D01*
X179981Y482753D01*
X179967Y482653D01*
X179950Y482555D01*
X179929Y482457D01*
X179905Y482360D01*
X179876Y482264D01*
X179844Y482169D01*
X179809Y482076D01*
X179770Y481984D01*
X179727Y481893D01*
X179681Y481805D01*
X179631Y481718D01*
X179579Y481633D01*
X179523Y481550D01*
X179464Y481469D01*
X179401Y481391D01*
X179336Y481315D01*
X179268Y481241D01*
X179198Y481171D01*
X179124Y481103D01*
X179048Y481038D01*
X178970Y480975D01*
X178889Y480916D01*
X178806Y480860D01*
X178721Y480808D01*
X178634Y480758D01*
X178546Y480712D01*
X178455Y480669D01*
X178363Y480630D01*
X178270Y480595D01*
X178175Y480563D01*
X178079Y480534D01*
X177982Y480510D01*
X177884Y480489D01*
X177786Y480472D01*
X177686Y480458D01*
X177587Y480449D01*
X177487Y480443D01*
X177387Y480441D01*
X174776Y480441D01*
X183703Y480441D02*
X186835Y489839D01*
X189968Y480441D01*
X189185Y482791D02*
X184486Y482791D01*
D11*
X127000Y494030D02*
X127000Y504190D01*
X177800Y504190D02*
X177800Y494030D01*
X76200Y273050D02*
X63500Y254000D01*
X76200Y273050D02*
X203200Y273050D01*
X215900Y254000D01*
D10*
X125596Y549854D02*
X125596Y558292D01*
X125596Y549854D02*
X125598Y549741D01*
X125604Y549628D01*
X125614Y549515D01*
X125628Y549402D01*
X125645Y549290D01*
X125667Y549179D01*
X125692Y549069D01*
X125722Y548959D01*
X125755Y548851D01*
X125792Y548744D01*
X125832Y548638D01*
X125877Y548534D01*
X125925Y548431D01*
X125976Y548330D01*
X126031Y548231D01*
X126089Y548134D01*
X126151Y548039D01*
X126216Y547946D01*
X126284Y547856D01*
X126355Y547768D01*
X126430Y547682D01*
X126507Y547599D01*
X126587Y547519D01*
X126670Y547442D01*
X126756Y547367D01*
X126844Y547296D01*
X126934Y547228D01*
X127027Y547163D01*
X127122Y547101D01*
X127219Y547043D01*
X127318Y546988D01*
X127419Y546937D01*
X127522Y546889D01*
X127626Y546844D01*
X127732Y546804D01*
X127839Y546767D01*
X127947Y546734D01*
X128057Y546704D01*
X128167Y546679D01*
X128278Y546657D01*
X128390Y546640D01*
X128503Y546626D01*
X128616Y546616D01*
X128729Y546610D01*
X128842Y546608D01*
X128955Y546610D01*
X129068Y546616D01*
X129181Y546626D01*
X129294Y546640D01*
X129406Y546657D01*
X129517Y546679D01*
X129627Y546704D01*
X129737Y546734D01*
X129845Y546767D01*
X129952Y546804D01*
X130058Y546844D01*
X130162Y546889D01*
X130265Y546937D01*
X130366Y546988D01*
X130465Y547043D01*
X130562Y547101D01*
X130657Y547163D01*
X130750Y547228D01*
X130840Y547296D01*
X130928Y547367D01*
X131014Y547442D01*
X131097Y547519D01*
X131177Y547599D01*
X131254Y547682D01*
X131329Y547768D01*
X131400Y547856D01*
X131468Y547946D01*
X131533Y548039D01*
X131595Y548134D01*
X131653Y548231D01*
X131708Y548330D01*
X131759Y548431D01*
X131807Y548534D01*
X131852Y548638D01*
X131892Y548744D01*
X131929Y548851D01*
X131962Y548959D01*
X131992Y549069D01*
X132017Y549179D01*
X132039Y549290D01*
X132056Y549402D01*
X132070Y549515D01*
X132080Y549628D01*
X132086Y549741D01*
X132088Y549854D01*
X132087Y549854D02*
X132087Y558292D01*
X139891Y558292D02*
X139891Y546608D01*
X139891Y552450D02*
X138268Y553424D01*
X138267Y553423D02*
X138194Y553470D01*
X138123Y553519D01*
X138053Y553572D01*
X137987Y553628D01*
X137923Y553687D01*
X137861Y553748D01*
X137803Y553812D01*
X137747Y553879D01*
X137695Y553948D01*
X137645Y554020D01*
X137599Y554094D01*
X137556Y554169D01*
X137517Y554247D01*
X137481Y554326D01*
X137449Y554407D01*
X137420Y554489D01*
X137395Y554572D01*
X137374Y554656D01*
X137357Y554741D01*
X137343Y554827D01*
X137334Y554913D01*
X137328Y555000D01*
X137326Y555087D01*
X137328Y555174D01*
X137334Y555261D01*
X137344Y555347D01*
X137357Y555433D01*
X137375Y555518D01*
X137396Y555602D01*
X137421Y555685D01*
X137450Y555768D01*
X137482Y555848D01*
X137518Y555927D01*
X137557Y556005D01*
X137600Y556080D01*
X137647Y556154D01*
X137696Y556225D01*
X137749Y556295D01*
X137804Y556361D01*
X137863Y556425D01*
X137924Y556487D01*
X137989Y556546D01*
X138055Y556601D01*
X138124Y556654D01*
X138196Y556704D01*
X138269Y556750D01*
X138345Y556793D01*
X138422Y556832D01*
X138501Y556868D01*
X138582Y556901D01*
X138664Y556929D01*
X138747Y556955D01*
X138831Y556976D01*
X138917Y556993D01*
X138917Y556994D02*
X139057Y557018D01*
X139199Y557038D01*
X139340Y557054D01*
X139482Y557065D01*
X139625Y557073D01*
X139767Y557077D01*
X139910Y557078D01*
X140053Y557074D01*
X140195Y557066D01*
X140337Y557054D01*
X140479Y557038D01*
X140620Y557019D01*
X140761Y556995D01*
X140901Y556968D01*
X141040Y556936D01*
X141178Y556901D01*
X141316Y556862D01*
X141452Y556819D01*
X141586Y556773D01*
X141720Y556722D01*
X141852Y556669D01*
X141982Y556611D01*
X142111Y556550D01*
X142238Y556485D01*
X142364Y556417D01*
X142487Y556345D01*
X139891Y552450D02*
X141513Y551476D01*
X141514Y551477D02*
X141587Y551430D01*
X141658Y551381D01*
X141728Y551328D01*
X141794Y551272D01*
X141858Y551213D01*
X141920Y551152D01*
X141978Y551088D01*
X142034Y551021D01*
X142086Y550952D01*
X142136Y550880D01*
X142182Y550806D01*
X142225Y550731D01*
X142264Y550653D01*
X142300Y550574D01*
X142332Y550493D01*
X142361Y550411D01*
X142386Y550328D01*
X142407Y550244D01*
X142424Y550159D01*
X142438Y550073D01*
X142447Y549987D01*
X142453Y549900D01*
X142455Y549813D01*
X142453Y549726D01*
X142447Y549639D01*
X142437Y549553D01*
X142424Y549467D01*
X142406Y549382D01*
X142385Y549298D01*
X142360Y549215D01*
X142331Y549132D01*
X142299Y549052D01*
X142263Y548973D01*
X142224Y548895D01*
X142181Y548820D01*
X142134Y548746D01*
X142085Y548675D01*
X142032Y548605D01*
X141977Y548539D01*
X141918Y548475D01*
X141857Y548413D01*
X141792Y548354D01*
X141726Y548299D01*
X141657Y548246D01*
X141585Y548196D01*
X141512Y548150D01*
X141436Y548107D01*
X141359Y548068D01*
X141280Y548032D01*
X141199Y547999D01*
X141117Y547971D01*
X141034Y547945D01*
X140950Y547924D01*
X140865Y547907D01*
X140864Y547906D02*
X140724Y547882D01*
X140582Y547862D01*
X140441Y547846D01*
X140299Y547835D01*
X140156Y547827D01*
X140014Y547823D01*
X139871Y547822D01*
X139728Y547826D01*
X139586Y547834D01*
X139444Y547846D01*
X139302Y547862D01*
X139161Y547881D01*
X139020Y547905D01*
X138880Y547932D01*
X138741Y547964D01*
X138603Y547999D01*
X138465Y548038D01*
X138329Y548081D01*
X138195Y548127D01*
X138061Y548178D01*
X137929Y548231D01*
X137799Y548289D01*
X137670Y548350D01*
X137543Y548415D01*
X137417Y548483D01*
X137294Y548555D01*
X147313Y555696D02*
X150558Y558292D01*
X150558Y546608D01*
X147313Y546608D02*
X153804Y546608D01*
D11*
X474600Y568600D02*
X490600Y568600D01*
X490600Y599800D02*
X474600Y599800D01*
D12*
X456600Y593700D02*
X456602Y593763D01*
X456608Y593825D01*
X456618Y593887D01*
X456631Y593949D01*
X456649Y594009D01*
X456670Y594068D01*
X456695Y594126D01*
X456724Y594182D01*
X456756Y594236D01*
X456791Y594288D01*
X456829Y594337D01*
X456871Y594385D01*
X456915Y594429D01*
X456963Y594471D01*
X457012Y594509D01*
X457064Y594544D01*
X457118Y594576D01*
X457174Y594605D01*
X457232Y594630D01*
X457291Y594651D01*
X457351Y594669D01*
X457413Y594682D01*
X457475Y594692D01*
X457537Y594698D01*
X457600Y594700D01*
X457663Y594698D01*
X457725Y594692D01*
X457787Y594682D01*
X457849Y594669D01*
X457909Y594651D01*
X457968Y594630D01*
X458026Y594605D01*
X458082Y594576D01*
X458136Y594544D01*
X458188Y594509D01*
X458237Y594471D01*
X458285Y594429D01*
X458329Y594385D01*
X458371Y594337D01*
X458409Y594288D01*
X458444Y594236D01*
X458476Y594182D01*
X458505Y594126D01*
X458530Y594068D01*
X458551Y594009D01*
X458569Y593949D01*
X458582Y593887D01*
X458592Y593825D01*
X458598Y593763D01*
X458600Y593700D01*
X458598Y593637D01*
X458592Y593575D01*
X458582Y593513D01*
X458569Y593451D01*
X458551Y593391D01*
X458530Y593332D01*
X458505Y593274D01*
X458476Y593218D01*
X458444Y593164D01*
X458409Y593112D01*
X458371Y593063D01*
X458329Y593015D01*
X458285Y592971D01*
X458237Y592929D01*
X458188Y592891D01*
X458136Y592856D01*
X458082Y592824D01*
X458026Y592795D01*
X457968Y592770D01*
X457909Y592749D01*
X457849Y592731D01*
X457787Y592718D01*
X457725Y592708D01*
X457663Y592702D01*
X457600Y592700D01*
X457537Y592702D01*
X457475Y592708D01*
X457413Y592718D01*
X457351Y592731D01*
X457291Y592749D01*
X457232Y592770D01*
X457174Y592795D01*
X457118Y592824D01*
X457064Y592856D01*
X457012Y592891D01*
X456963Y592929D01*
X456915Y592971D01*
X456871Y593015D01*
X456829Y593063D01*
X456791Y593112D01*
X456756Y593164D01*
X456724Y593218D01*
X456695Y593274D01*
X456670Y593332D01*
X456649Y593391D01*
X456631Y593451D01*
X456618Y593513D01*
X456608Y593575D01*
X456602Y593637D01*
X456600Y593700D01*
D13*
X457981Y606192D02*
X457981Y612979D01*
X457981Y606192D02*
X457983Y606091D01*
X457989Y605990D01*
X457999Y605889D01*
X458012Y605789D01*
X458030Y605689D01*
X458051Y605590D01*
X458077Y605492D01*
X458106Y605395D01*
X458138Y605299D01*
X458175Y605205D01*
X458215Y605112D01*
X458259Y605020D01*
X458306Y604931D01*
X458357Y604843D01*
X458411Y604757D01*
X458468Y604674D01*
X458528Y604592D01*
X458592Y604514D01*
X458658Y604437D01*
X458728Y604364D01*
X458800Y604293D01*
X458875Y604225D01*
X458953Y604160D01*
X459033Y604098D01*
X459115Y604039D01*
X459200Y603983D01*
X459287Y603931D01*
X459375Y603882D01*
X459466Y603836D01*
X459558Y603795D01*
X459652Y603756D01*
X459747Y603722D01*
X459843Y603691D01*
X459941Y603664D01*
X460039Y603640D01*
X460139Y603621D01*
X460239Y603605D01*
X460339Y603593D01*
X460440Y603585D01*
X460541Y603581D01*
X460643Y603581D01*
X460744Y603585D01*
X460845Y603593D01*
X460945Y603605D01*
X461045Y603621D01*
X461145Y603640D01*
X461243Y603664D01*
X461341Y603691D01*
X461437Y603722D01*
X461532Y603756D01*
X461626Y603795D01*
X461718Y603836D01*
X461809Y603882D01*
X461897Y603931D01*
X461984Y603983D01*
X462069Y604039D01*
X462151Y604098D01*
X462231Y604160D01*
X462309Y604225D01*
X462384Y604293D01*
X462456Y604364D01*
X462526Y604437D01*
X462592Y604514D01*
X462656Y604592D01*
X462716Y604674D01*
X462773Y604757D01*
X462827Y604843D01*
X462878Y604931D01*
X462925Y605020D01*
X462969Y605112D01*
X463009Y605205D01*
X463046Y605299D01*
X463078Y605395D01*
X463107Y605492D01*
X463133Y605590D01*
X463154Y605689D01*
X463172Y605789D01*
X463185Y605889D01*
X463195Y605990D01*
X463201Y606091D01*
X463203Y606192D01*
X463202Y606192D02*
X463202Y612979D01*
X467430Y610891D02*
X470040Y612979D01*
X470040Y603581D01*
X467430Y603581D02*
X472651Y603581D01*
D11*
X622200Y548500D02*
X625700Y548500D01*
X625700Y492500D01*
X622200Y492500D01*
X554200Y548500D02*
X550700Y548500D01*
X550700Y492500D01*
X554200Y492500D01*
D17*
X616200Y571500D02*
X616202Y571563D01*
X616208Y571625D01*
X616218Y571687D01*
X616231Y571749D01*
X616249Y571809D01*
X616270Y571868D01*
X616295Y571926D01*
X616324Y571982D01*
X616356Y572036D01*
X616391Y572088D01*
X616429Y572137D01*
X616471Y572185D01*
X616515Y572229D01*
X616563Y572271D01*
X616612Y572309D01*
X616664Y572344D01*
X616718Y572376D01*
X616774Y572405D01*
X616832Y572430D01*
X616891Y572451D01*
X616951Y572469D01*
X617013Y572482D01*
X617075Y572492D01*
X617137Y572498D01*
X617200Y572500D01*
X617263Y572498D01*
X617325Y572492D01*
X617387Y572482D01*
X617449Y572469D01*
X617509Y572451D01*
X617568Y572430D01*
X617626Y572405D01*
X617682Y572376D01*
X617736Y572344D01*
X617788Y572309D01*
X617837Y572271D01*
X617885Y572229D01*
X617929Y572185D01*
X617971Y572137D01*
X618009Y572088D01*
X618044Y572036D01*
X618076Y571982D01*
X618105Y571926D01*
X618130Y571868D01*
X618151Y571809D01*
X618169Y571749D01*
X618182Y571687D01*
X618192Y571625D01*
X618198Y571563D01*
X618200Y571500D01*
X618198Y571437D01*
X618192Y571375D01*
X618182Y571313D01*
X618169Y571251D01*
X618151Y571191D01*
X618130Y571132D01*
X618105Y571074D01*
X618076Y571018D01*
X618044Y570964D01*
X618009Y570912D01*
X617971Y570863D01*
X617929Y570815D01*
X617885Y570771D01*
X617837Y570729D01*
X617788Y570691D01*
X617736Y570656D01*
X617682Y570624D01*
X617626Y570595D01*
X617568Y570570D01*
X617509Y570549D01*
X617449Y570531D01*
X617387Y570518D01*
X617325Y570508D01*
X617263Y570502D01*
X617200Y570500D01*
X617137Y570502D01*
X617075Y570508D01*
X617013Y570518D01*
X616951Y570531D01*
X616891Y570549D01*
X616832Y570570D01*
X616774Y570595D01*
X616718Y570624D01*
X616664Y570656D01*
X616612Y570691D01*
X616563Y570729D01*
X616515Y570771D01*
X616471Y570815D01*
X616429Y570863D01*
X616391Y570912D01*
X616356Y570964D01*
X616324Y571018D01*
X616295Y571074D01*
X616270Y571132D01*
X616249Y571191D01*
X616231Y571251D01*
X616218Y571313D01*
X616208Y571375D01*
X616202Y571437D01*
X616200Y571500D01*
D16*
X639762Y545355D02*
X651502Y545355D01*
X651502Y545354D02*
X651635Y545356D01*
X651767Y545362D01*
X651899Y545372D01*
X652031Y545385D01*
X652163Y545403D01*
X652293Y545424D01*
X652424Y545449D01*
X652553Y545478D01*
X652681Y545511D01*
X652809Y545547D01*
X652935Y545587D01*
X653060Y545631D01*
X653184Y545679D01*
X653306Y545730D01*
X653427Y545785D01*
X653546Y545843D01*
X653664Y545905D01*
X653779Y545970D01*
X653893Y546039D01*
X654004Y546110D01*
X654113Y546186D01*
X654220Y546264D01*
X654325Y546345D01*
X654427Y546430D01*
X654527Y546517D01*
X654624Y546607D01*
X654719Y546700D01*
X654810Y546796D01*
X654899Y546894D01*
X654985Y546995D01*
X655068Y547099D01*
X655148Y547205D01*
X655224Y547313D01*
X655298Y547423D01*
X655368Y547536D01*
X655435Y547650D01*
X655498Y547767D01*
X655558Y547885D01*
X655615Y548005D01*
X655668Y548127D01*
X655717Y548250D01*
X655763Y548374D01*
X655805Y548500D01*
X655843Y548627D01*
X655878Y548755D01*
X655909Y548884D01*
X655936Y549013D01*
X655959Y549144D01*
X655979Y549275D01*
X655994Y549407D01*
X656006Y549539D01*
X656014Y549671D01*
X656018Y549804D01*
X656018Y549936D01*
X656014Y550069D01*
X656006Y550201D01*
X655994Y550333D01*
X655979Y550465D01*
X655959Y550596D01*
X655936Y550727D01*
X655909Y550856D01*
X655878Y550985D01*
X655843Y551113D01*
X655805Y551240D01*
X655763Y551366D01*
X655717Y551490D01*
X655668Y551613D01*
X655615Y551735D01*
X655558Y551855D01*
X655498Y551973D01*
X655435Y552090D01*
X655368Y552204D01*
X655298Y552317D01*
X655224Y552427D01*
X655148Y552535D01*
X655068Y552641D01*
X654985Y552745D01*
X654899Y552846D01*
X654810Y552944D01*
X654719Y553040D01*
X654624Y553133D01*
X654527Y553223D01*
X654427Y553310D01*
X654325Y553395D01*
X654220Y553476D01*
X654113Y553554D01*
X654004Y553630D01*
X653893Y553701D01*
X653779Y553770D01*
X653664Y553835D01*
X653546Y553897D01*
X653427Y553955D01*
X653306Y554010D01*
X653184Y554061D01*
X653060Y554109D01*
X652935Y554153D01*
X652809Y554193D01*
X652681Y554229D01*
X652553Y554262D01*
X652424Y554291D01*
X652293Y554316D01*
X652163Y554337D01*
X652031Y554355D01*
X651899Y554368D01*
X651767Y554378D01*
X651635Y554384D01*
X651502Y554386D01*
X639762Y554386D01*
X639762Y566474D02*
X639764Y566599D01*
X639770Y566724D01*
X639779Y566849D01*
X639793Y566973D01*
X639810Y567097D01*
X639831Y567221D01*
X639856Y567343D01*
X639885Y567465D01*
X639917Y567586D01*
X639953Y567706D01*
X639993Y567825D01*
X640036Y567942D01*
X640083Y568058D01*
X640134Y568173D01*
X640188Y568285D01*
X640246Y568397D01*
X640306Y568506D01*
X640371Y568613D01*
X640438Y568719D01*
X640509Y568822D01*
X640583Y568923D01*
X640660Y569022D01*
X640740Y569118D01*
X640823Y569212D01*
X640908Y569303D01*
X640997Y569392D01*
X641088Y569477D01*
X641182Y569560D01*
X641278Y569640D01*
X641377Y569717D01*
X641478Y569791D01*
X641581Y569862D01*
X641687Y569929D01*
X641794Y569994D01*
X641903Y570054D01*
X642015Y570112D01*
X642127Y570166D01*
X642242Y570217D01*
X642358Y570264D01*
X642475Y570307D01*
X642594Y570347D01*
X642714Y570383D01*
X642835Y570415D01*
X642957Y570444D01*
X643079Y570469D01*
X643203Y570490D01*
X643327Y570507D01*
X643451Y570521D01*
X643576Y570530D01*
X643701Y570536D01*
X643826Y570538D01*
X639762Y566474D02*
X639764Y566331D01*
X639770Y566189D01*
X639780Y566046D01*
X639793Y565904D01*
X639811Y565763D01*
X639832Y565621D01*
X639857Y565481D01*
X639886Y565341D01*
X639919Y565202D01*
X639956Y565064D01*
X639996Y564927D01*
X640040Y564792D01*
X640088Y564657D01*
X640140Y564524D01*
X640195Y564392D01*
X640254Y564262D01*
X640316Y564134D01*
X640382Y564007D01*
X640451Y563882D01*
X640523Y563759D01*
X640599Y563638D01*
X640678Y563520D01*
X640761Y563403D01*
X640846Y563289D01*
X640935Y563177D01*
X641026Y563068D01*
X641121Y562961D01*
X641218Y562856D01*
X641319Y562755D01*
X641422Y562656D01*
X641527Y562560D01*
X641636Y562467D01*
X641747Y562377D01*
X641860Y562290D01*
X641975Y562206D01*
X642093Y562126D01*
X642213Y562048D01*
X642335Y561974D01*
X642459Y561904D01*
X642585Y561836D01*
X642713Y561773D01*
X642842Y561712D01*
X642973Y561655D01*
X643105Y561602D01*
X643239Y561553D01*
X643374Y561507D01*
X646987Y569183D02*
X646895Y569277D01*
X646801Y569367D01*
X646704Y569455D01*
X646604Y569540D01*
X646502Y569622D01*
X646397Y569700D01*
X646290Y569776D01*
X646181Y569848D01*
X646070Y569917D01*
X645956Y569983D01*
X645841Y570045D01*
X645724Y570104D01*
X645605Y570159D01*
X645485Y570210D01*
X645363Y570258D01*
X645240Y570303D01*
X645116Y570343D01*
X644990Y570380D01*
X644863Y570413D01*
X644736Y570442D01*
X644607Y570468D01*
X644478Y570489D01*
X644348Y570507D01*
X644218Y570520D01*
X644088Y570530D01*
X643957Y570536D01*
X643826Y570538D01*
X646987Y569183D02*
X656018Y561507D01*
X656018Y570538D01*
D18*
X421090Y488000D03*
D16*
X402700Y483500D02*
X402700Y480500D01*
X399700Y480500D01*
X334700Y480500D02*
X331700Y480500D01*
X331700Y483500D01*
X331700Y551500D02*
X334700Y551500D01*
X331700Y551500D02*
X331700Y548500D01*
X402700Y548500D02*
X402700Y551500D01*
X399700Y551500D01*
D13*
X411022Y459202D02*
X411022Y453859D01*
X411024Y453769D01*
X411030Y453680D01*
X411040Y453591D01*
X411053Y453502D01*
X411071Y453414D01*
X411092Y453327D01*
X411117Y453241D01*
X411146Y453156D01*
X411178Y453073D01*
X411215Y452991D01*
X411254Y452910D01*
X411297Y452832D01*
X411344Y452755D01*
X411394Y452680D01*
X411447Y452608D01*
X411503Y452538D01*
X411562Y452471D01*
X411624Y452406D01*
X411689Y452344D01*
X411756Y452285D01*
X411826Y452229D01*
X411898Y452176D01*
X411973Y452126D01*
X412050Y452079D01*
X412128Y452036D01*
X412209Y451997D01*
X412291Y451960D01*
X412374Y451928D01*
X412459Y451899D01*
X412545Y451874D01*
X412632Y451853D01*
X412720Y451835D01*
X412809Y451822D01*
X412898Y451812D01*
X412987Y451806D01*
X413077Y451804D01*
X413167Y451806D01*
X413256Y451812D01*
X413345Y451822D01*
X413434Y451835D01*
X413522Y451853D01*
X413609Y451874D01*
X413695Y451899D01*
X413780Y451928D01*
X413863Y451960D01*
X413945Y451997D01*
X414026Y452036D01*
X414105Y452079D01*
X414181Y452126D01*
X414256Y452176D01*
X414328Y452229D01*
X414398Y452285D01*
X414465Y452344D01*
X414530Y452406D01*
X414592Y452471D01*
X414651Y452538D01*
X414707Y452608D01*
X414760Y452680D01*
X414810Y452755D01*
X414857Y452832D01*
X414900Y452910D01*
X414939Y452991D01*
X414976Y453073D01*
X415008Y453156D01*
X415037Y453241D01*
X415062Y453327D01*
X415083Y453414D01*
X415101Y453502D01*
X415114Y453591D01*
X415124Y453680D01*
X415130Y453769D01*
X415132Y453859D01*
X415132Y459202D01*
X418611Y451804D02*
X420665Y451804D01*
X420755Y451806D01*
X420844Y451812D01*
X420933Y451822D01*
X421022Y451835D01*
X421110Y451853D01*
X421197Y451874D01*
X421283Y451899D01*
X421368Y451928D01*
X421451Y451960D01*
X421533Y451997D01*
X421614Y452036D01*
X421693Y452079D01*
X421769Y452126D01*
X421844Y452176D01*
X421916Y452229D01*
X421986Y452285D01*
X422053Y452344D01*
X422118Y452406D01*
X422180Y452471D01*
X422239Y452538D01*
X422295Y452608D01*
X422348Y452680D01*
X422398Y452755D01*
X422445Y452832D01*
X422488Y452910D01*
X422527Y452991D01*
X422564Y453073D01*
X422596Y453156D01*
X422625Y453241D01*
X422650Y453327D01*
X422671Y453414D01*
X422689Y453502D01*
X422702Y453591D01*
X422712Y453680D01*
X422718Y453769D01*
X422720Y453859D01*
X422718Y453949D01*
X422712Y454038D01*
X422702Y454127D01*
X422689Y454216D01*
X422671Y454304D01*
X422650Y454391D01*
X422625Y454477D01*
X422596Y454562D01*
X422564Y454645D01*
X422527Y454727D01*
X422488Y454808D01*
X422445Y454887D01*
X422398Y454963D01*
X422348Y455038D01*
X422295Y455110D01*
X422239Y455180D01*
X422180Y455247D01*
X422118Y455312D01*
X422053Y455374D01*
X421986Y455433D01*
X421916Y455489D01*
X421844Y455542D01*
X421769Y455592D01*
X421693Y455639D01*
X421614Y455682D01*
X421533Y455721D01*
X421451Y455758D01*
X421368Y455790D01*
X421283Y455819D01*
X421197Y455844D01*
X421110Y455865D01*
X421022Y455883D01*
X420933Y455896D01*
X420844Y455906D01*
X420755Y455912D01*
X420665Y455914D01*
X421076Y459202D02*
X418611Y459202D01*
X421076Y459202D02*
X421155Y459200D01*
X421235Y459194D01*
X421314Y459185D01*
X421392Y459171D01*
X421469Y459154D01*
X421546Y459133D01*
X421622Y459109D01*
X421696Y459081D01*
X421769Y459049D01*
X421840Y459014D01*
X421909Y458975D01*
X421977Y458933D01*
X422042Y458888D01*
X422105Y458840D01*
X422166Y458789D01*
X422224Y458734D01*
X422280Y458678D01*
X422333Y458618D01*
X422382Y458556D01*
X422429Y458492D01*
X422473Y458425D01*
X422513Y458357D01*
X422550Y458287D01*
X422583Y458215D01*
X422613Y458141D01*
X422640Y458066D01*
X422662Y457990D01*
X422681Y457913D01*
X422697Y457835D01*
X422708Y457756D01*
X422716Y457677D01*
X422720Y457598D01*
X422720Y457518D01*
X422716Y457439D01*
X422708Y457360D01*
X422697Y457281D01*
X422681Y457203D01*
X422662Y457126D01*
X422640Y457050D01*
X422613Y456975D01*
X422583Y456901D01*
X422550Y456829D01*
X422513Y456759D01*
X422473Y456691D01*
X422429Y456624D01*
X422382Y456560D01*
X422333Y456498D01*
X422280Y456438D01*
X422224Y456382D01*
X422166Y456327D01*
X422105Y456276D01*
X422042Y456228D01*
X421977Y456183D01*
X421909Y456141D01*
X421840Y456102D01*
X421769Y456067D01*
X421696Y456035D01*
X421622Y456007D01*
X421546Y455983D01*
X421469Y455962D01*
X421392Y455945D01*
X421314Y455931D01*
X421235Y455922D01*
X421155Y455916D01*
X421076Y455914D01*
X419432Y455914D01*
D16*
X323342Y252476D02*
X295656Y252476D01*
X415544Y252476D02*
X415544Y302260D01*
X415544Y392176D02*
X295656Y392176D01*
X295656Y335026D01*
X337820Y252476D02*
X348234Y252476D01*
X362966Y252476D02*
X373380Y252476D01*
X387858Y252476D02*
X415544Y252476D01*
X295656Y252476D02*
X295656Y302260D01*
X415544Y335026D02*
X415544Y392176D01*
D13*
X328895Y324471D02*
X328895Y320492D01*
X331216Y317507D01*
X328895Y320492D02*
X326573Y317507D01*
X328895Y320492D02*
X332542Y321818D01*
X328895Y320492D02*
X325247Y321818D01*
X323215Y249555D02*
X323215Y240933D01*
X323217Y240819D01*
X323223Y240704D01*
X323233Y240590D01*
X323247Y240477D01*
X323264Y240363D01*
X323286Y240251D01*
X323311Y240139D01*
X323341Y240029D01*
X323374Y239919D01*
X323411Y239811D01*
X323451Y239704D01*
X323496Y239598D01*
X323543Y239494D01*
X323595Y239392D01*
X323650Y239292D01*
X323708Y239193D01*
X323770Y239097D01*
X323835Y239002D01*
X323903Y238911D01*
X323975Y238821D01*
X324049Y238734D01*
X324126Y238650D01*
X324207Y238568D01*
X324290Y238489D01*
X324375Y238413D01*
X324464Y238340D01*
X324554Y238271D01*
X324647Y238204D01*
X324743Y238141D01*
X324840Y238081D01*
X324940Y238024D01*
X325041Y237971D01*
X325144Y237921D01*
X325249Y237875D01*
X325355Y237832D01*
X325463Y237794D01*
X325572Y237759D01*
X325682Y237728D01*
X325793Y237700D01*
X325905Y237677D01*
X326018Y237657D01*
X326131Y237641D01*
X326245Y237629D01*
X326359Y237621D01*
X326474Y237617D01*
X326588Y237617D01*
X326703Y237621D01*
X326817Y237629D01*
X326931Y237641D01*
X327044Y237657D01*
X327157Y237677D01*
X327269Y237700D01*
X327380Y237728D01*
X327490Y237759D01*
X327599Y237794D01*
X327707Y237832D01*
X327813Y237875D01*
X327918Y237921D01*
X328021Y237971D01*
X328122Y238024D01*
X328222Y238081D01*
X328319Y238141D01*
X328415Y238204D01*
X328508Y238271D01*
X328598Y238340D01*
X328687Y238413D01*
X328772Y238489D01*
X328855Y238568D01*
X328936Y238650D01*
X329013Y238734D01*
X329087Y238821D01*
X329159Y238911D01*
X329227Y239002D01*
X329292Y239097D01*
X329354Y239193D01*
X329412Y239292D01*
X329467Y239392D01*
X329519Y239494D01*
X329566Y239598D01*
X329611Y239704D01*
X329651Y239811D01*
X329688Y239919D01*
X329721Y240029D01*
X329751Y240139D01*
X329776Y240251D01*
X329798Y240363D01*
X329815Y240477D01*
X329829Y240590D01*
X329839Y240704D01*
X329845Y240819D01*
X329847Y240933D01*
X329847Y249555D01*
X337679Y249555D02*
X335026Y240270D01*
X341658Y240270D01*
X339669Y242923D02*
X339669Y237617D01*
X338709Y237617D02*
X344015Y237617D01*
X338709Y237617D02*
X338709Y249555D01*
X344015Y249555D01*
X342688Y244249D02*
X338709Y244249D01*
X348595Y249555D02*
X348595Y237617D01*
X355227Y237617D02*
X348595Y249555D01*
X355227Y249555D02*
X355227Y237617D01*
X360406Y246902D02*
X363722Y249555D01*
X363722Y237617D01*
X360406Y237617D02*
X367038Y237617D01*
X371836Y246902D02*
X375152Y249555D01*
X375152Y237617D01*
X371836Y237617D02*
X378468Y237617D01*
X383365Y242260D02*
X391324Y242260D01*
X396601Y237617D02*
X396601Y249555D01*
X396601Y244249D02*
X403233Y244249D01*
X403233Y249555D02*
X403233Y237617D01*
X412010Y237617D02*
X412112Y237619D01*
X412213Y237625D01*
X412314Y237635D01*
X412415Y237648D01*
X412515Y237666D01*
X412614Y237687D01*
X412713Y237712D01*
X412810Y237741D01*
X412907Y237773D01*
X413002Y237809D01*
X413095Y237849D01*
X413187Y237892D01*
X413277Y237939D01*
X413366Y237990D01*
X413452Y238043D01*
X413536Y238100D01*
X413618Y238160D01*
X413698Y238223D01*
X413775Y238289D01*
X413850Y238358D01*
X413922Y238430D01*
X413991Y238505D01*
X414057Y238582D01*
X414120Y238662D01*
X414180Y238744D01*
X414237Y238828D01*
X414290Y238914D01*
X414341Y239003D01*
X414388Y239093D01*
X414431Y239185D01*
X414471Y239278D01*
X414507Y239373D01*
X414539Y239470D01*
X414568Y239567D01*
X414593Y239666D01*
X414614Y239765D01*
X414632Y239865D01*
X414645Y239966D01*
X414655Y240067D01*
X414661Y240168D01*
X414663Y240270D01*
X412010Y237617D02*
X411863Y237619D01*
X411715Y237625D01*
X411568Y237634D01*
X411421Y237648D01*
X411275Y237665D01*
X411129Y237687D01*
X410983Y237712D01*
X410839Y237741D01*
X410695Y237773D01*
X410552Y237810D01*
X410410Y237850D01*
X410269Y237894D01*
X410130Y237942D01*
X409992Y237993D01*
X409855Y238048D01*
X409719Y238107D01*
X409585Y238169D01*
X409453Y238234D01*
X409323Y238303D01*
X409194Y238376D01*
X409068Y238451D01*
X408943Y238530D01*
X408821Y238613D01*
X408701Y238698D01*
X408583Y238787D01*
X408468Y238879D01*
X408354Y238973D01*
X408244Y239071D01*
X408136Y239172D01*
X408031Y239275D01*
X408363Y246902D02*
X408365Y247004D01*
X408371Y247105D01*
X408381Y247206D01*
X408394Y247307D01*
X408412Y247407D01*
X408433Y247506D01*
X408458Y247605D01*
X408487Y247702D01*
X408519Y247799D01*
X408555Y247894D01*
X408595Y247987D01*
X408638Y248079D01*
X408685Y248169D01*
X408736Y248258D01*
X408789Y248344D01*
X408846Y248428D01*
X408906Y248510D01*
X408969Y248590D01*
X409035Y248667D01*
X409104Y248742D01*
X409176Y248814D01*
X409251Y248883D01*
X409328Y248949D01*
X409408Y249012D01*
X409490Y249072D01*
X409574Y249129D01*
X409660Y249182D01*
X409749Y249233D01*
X409839Y249280D01*
X409931Y249323D01*
X410024Y249363D01*
X410119Y249399D01*
X410216Y249431D01*
X410313Y249460D01*
X410412Y249485D01*
X410511Y249506D01*
X410611Y249524D01*
X410712Y249537D01*
X410813Y249547D01*
X410914Y249553D01*
X411016Y249555D01*
X411015Y249555D02*
X411154Y249553D01*
X411293Y249547D01*
X411432Y249537D01*
X411571Y249524D01*
X411709Y249506D01*
X411846Y249485D01*
X411983Y249460D01*
X412119Y249431D01*
X412254Y249398D01*
X412389Y249362D01*
X412522Y249321D01*
X412654Y249277D01*
X412785Y249230D01*
X412914Y249178D01*
X413042Y249123D01*
X413168Y249065D01*
X413293Y249003D01*
X413415Y248937D01*
X413536Y248869D01*
X413655Y248796D01*
X413772Y248721D01*
X413887Y248642D01*
X413999Y248560D01*
X409689Y244581D02*
X409604Y244633D01*
X409521Y244689D01*
X409440Y244747D01*
X409361Y244809D01*
X409285Y244873D01*
X409211Y244940D01*
X409139Y245010D01*
X409071Y245082D01*
X409004Y245157D01*
X408941Y245234D01*
X408881Y245314D01*
X408823Y245396D01*
X408769Y245480D01*
X408718Y245565D01*
X408670Y245653D01*
X408625Y245742D01*
X408584Y245833D01*
X408546Y245926D01*
X408512Y246020D01*
X408481Y246114D01*
X408453Y246211D01*
X408429Y246308D01*
X408409Y246405D01*
X408393Y246504D01*
X408380Y246603D01*
X408370Y246702D01*
X408365Y246802D01*
X408363Y246902D01*
X413337Y242591D02*
X413422Y242539D01*
X413505Y242483D01*
X413586Y242425D01*
X413665Y242363D01*
X413741Y242299D01*
X413815Y242232D01*
X413887Y242162D01*
X413955Y242090D01*
X414022Y242015D01*
X414085Y241938D01*
X414145Y241858D01*
X414203Y241776D01*
X414257Y241692D01*
X414308Y241607D01*
X414356Y241519D01*
X414401Y241430D01*
X414442Y241339D01*
X414480Y241246D01*
X414514Y241153D01*
X414545Y241058D01*
X414573Y240961D01*
X414597Y240864D01*
X414617Y240767D01*
X414633Y240668D01*
X414646Y240569D01*
X414656Y240470D01*
X414661Y240370D01*
X414663Y240270D01*
X413337Y242591D02*
X409689Y244581D01*
X419560Y249555D02*
X419560Y237617D01*
X423539Y242923D02*
X419560Y249555D01*
X423539Y242923D02*
X427518Y249555D01*
X427518Y237617D01*
X432796Y246902D02*
X436112Y249555D01*
X436112Y237617D01*
X432796Y237617D02*
X439428Y237617D01*
X444755Y244249D02*
X448071Y244249D01*
X448185Y244247D01*
X448300Y244241D01*
X448414Y244231D01*
X448527Y244217D01*
X448641Y244200D01*
X448753Y244178D01*
X448865Y244153D01*
X448975Y244123D01*
X449085Y244090D01*
X449193Y244053D01*
X449300Y244013D01*
X449406Y243968D01*
X449510Y243921D01*
X449612Y243869D01*
X449712Y243814D01*
X449811Y243756D01*
X449907Y243694D01*
X450002Y243629D01*
X450093Y243561D01*
X450183Y243489D01*
X450270Y243415D01*
X450354Y243338D01*
X450436Y243257D01*
X450515Y243174D01*
X450591Y243089D01*
X450664Y243000D01*
X450733Y242910D01*
X450800Y242817D01*
X450863Y242721D01*
X450923Y242624D01*
X450980Y242524D01*
X451033Y242423D01*
X451083Y242320D01*
X451129Y242215D01*
X451172Y242109D01*
X451210Y242001D01*
X451245Y241892D01*
X451276Y241782D01*
X451304Y241671D01*
X451327Y241559D01*
X451347Y241446D01*
X451363Y241333D01*
X451375Y241219D01*
X451383Y241105D01*
X451387Y240990D01*
X451387Y240876D01*
X451383Y240761D01*
X451375Y240647D01*
X451363Y240533D01*
X451347Y240420D01*
X451327Y240307D01*
X451304Y240195D01*
X451276Y240084D01*
X451245Y239974D01*
X451210Y239865D01*
X451172Y239757D01*
X451129Y239651D01*
X451083Y239546D01*
X451033Y239443D01*
X450980Y239342D01*
X450923Y239242D01*
X450863Y239145D01*
X450800Y239049D01*
X450733Y238956D01*
X450664Y238866D01*
X450591Y238777D01*
X450515Y238692D01*
X450436Y238609D01*
X450354Y238528D01*
X450270Y238451D01*
X450183Y238377D01*
X450093Y238305D01*
X450002Y238237D01*
X449907Y238172D01*
X449811Y238110D01*
X449712Y238052D01*
X449612Y237997D01*
X449510Y237945D01*
X449406Y237898D01*
X449300Y237853D01*
X449193Y237813D01*
X449085Y237776D01*
X448975Y237743D01*
X448865Y237713D01*
X448753Y237688D01*
X448641Y237666D01*
X448527Y237649D01*
X448414Y237635D01*
X448300Y237625D01*
X448185Y237619D01*
X448071Y237617D01*
X444755Y237617D01*
X444755Y249555D01*
X448071Y249555D01*
X448173Y249553D01*
X448274Y249547D01*
X448375Y249537D01*
X448476Y249524D01*
X448576Y249506D01*
X448675Y249485D01*
X448774Y249460D01*
X448871Y249431D01*
X448968Y249399D01*
X449063Y249363D01*
X449156Y249323D01*
X449248Y249280D01*
X449338Y249233D01*
X449427Y249182D01*
X449513Y249129D01*
X449597Y249072D01*
X449679Y249012D01*
X449759Y248949D01*
X449836Y248883D01*
X449911Y248814D01*
X449983Y248742D01*
X450052Y248667D01*
X450118Y248590D01*
X450181Y248510D01*
X450241Y248428D01*
X450298Y248344D01*
X450351Y248258D01*
X450402Y248169D01*
X450449Y248079D01*
X450492Y247987D01*
X450532Y247894D01*
X450568Y247799D01*
X450600Y247702D01*
X450629Y247605D01*
X450654Y247506D01*
X450675Y247407D01*
X450693Y247307D01*
X450706Y247206D01*
X450716Y247105D01*
X450722Y247004D01*
X450724Y246902D01*
X450722Y246800D01*
X450716Y246699D01*
X450706Y246598D01*
X450693Y246497D01*
X450675Y246397D01*
X450654Y246298D01*
X450629Y246199D01*
X450600Y246102D01*
X450568Y246005D01*
X450532Y245910D01*
X450492Y245817D01*
X450449Y245725D01*
X450402Y245635D01*
X450351Y245546D01*
X450298Y245460D01*
X450241Y245376D01*
X450181Y245294D01*
X450118Y245214D01*
X450052Y245137D01*
X449983Y245062D01*
X449911Y244990D01*
X449836Y244921D01*
X449759Y244855D01*
X449679Y244792D01*
X449597Y244732D01*
X449513Y244675D01*
X449427Y244622D01*
X449338Y244571D01*
X449248Y244524D01*
X449156Y244481D01*
X449063Y244441D01*
X448968Y244405D01*
X448871Y244373D01*
X448774Y244344D01*
X448675Y244319D01*
X448576Y244298D01*
X448476Y244280D01*
X448375Y244267D01*
X448274Y244257D01*
X448173Y244251D01*
X448071Y244249D01*
X456057Y249555D02*
X456057Y237617D01*
X456057Y249555D02*
X461362Y249555D01*
X461362Y244249D02*
X456057Y244249D01*
X469210Y249556D02*
X469317Y249554D01*
X469423Y249548D01*
X469529Y249539D01*
X469635Y249526D01*
X469740Y249509D01*
X469845Y249488D01*
X469948Y249463D01*
X470051Y249435D01*
X470153Y249403D01*
X470253Y249368D01*
X470352Y249329D01*
X470450Y249286D01*
X470546Y249240D01*
X470641Y249191D01*
X470733Y249138D01*
X470824Y249082D01*
X470912Y249023D01*
X470999Y248961D01*
X471083Y248895D01*
X471165Y248827D01*
X471244Y248756D01*
X471321Y248682D01*
X471395Y248605D01*
X471466Y248526D01*
X471534Y248444D01*
X471600Y248360D01*
X471662Y248273D01*
X471721Y248185D01*
X471777Y248094D01*
X471830Y248002D01*
X471879Y247907D01*
X471925Y247811D01*
X471968Y247713D01*
X472007Y247614D01*
X472042Y247514D01*
X472074Y247412D01*
X472102Y247309D01*
X472127Y247206D01*
X472148Y247101D01*
X472165Y246996D01*
X472178Y246890D01*
X472187Y246784D01*
X472193Y246678D01*
X472195Y246571D01*
X469210Y249555D02*
X469089Y249553D01*
X468969Y249547D01*
X468849Y249538D01*
X468729Y249525D01*
X468610Y249508D01*
X468491Y249487D01*
X468373Y249463D01*
X468256Y249434D01*
X468140Y249403D01*
X468024Y249367D01*
X467910Y249328D01*
X467798Y249285D01*
X467686Y249239D01*
X467576Y249190D01*
X467468Y249136D01*
X467362Y249080D01*
X467257Y249020D01*
X467154Y248957D01*
X467054Y248891D01*
X466955Y248822D01*
X466859Y248749D01*
X466765Y248674D01*
X466673Y248596D01*
X466584Y248514D01*
X466497Y248430D01*
X466414Y248344D01*
X466332Y248255D01*
X466254Y248163D01*
X466179Y248069D01*
X466107Y247972D01*
X466037Y247874D01*
X465971Y247773D01*
X465908Y247670D01*
X465849Y247565D01*
X465792Y247459D01*
X465739Y247350D01*
X465690Y247241D01*
X465644Y247129D01*
X465601Y247016D01*
X465563Y246902D01*
X471199Y244249D02*
X471279Y244329D01*
X471357Y244411D01*
X471431Y244495D01*
X471503Y244583D01*
X471571Y244673D01*
X471637Y244765D01*
X471699Y244859D01*
X471757Y244955D01*
X471812Y245054D01*
X471864Y245154D01*
X471912Y245256D01*
X471957Y245360D01*
X471997Y245465D01*
X472034Y245572D01*
X472068Y245680D01*
X472097Y245789D01*
X472123Y245899D01*
X472144Y246010D01*
X472162Y246121D01*
X472176Y246233D01*
X472186Y246345D01*
X472192Y246458D01*
X472194Y246571D01*
X471199Y244249D02*
X465562Y237617D01*
X472194Y237617D01*
X476992Y243586D02*
X476995Y243821D01*
X477003Y244056D01*
X477017Y244290D01*
X477037Y244524D01*
X477062Y244758D01*
X477093Y244990D01*
X477129Y245222D01*
X477171Y245454D01*
X477218Y245684D01*
X477271Y245912D01*
X477329Y246140D01*
X477393Y246366D01*
X477462Y246590D01*
X477536Y246813D01*
X477616Y247034D01*
X477701Y247253D01*
X477791Y247470D01*
X477886Y247685D01*
X477987Y247897D01*
X478020Y247989D01*
X478058Y248080D01*
X478099Y248169D01*
X478143Y248257D01*
X478191Y248342D01*
X478242Y248426D01*
X478297Y248508D01*
X478355Y248587D01*
X478416Y248664D01*
X478480Y248738D01*
X478547Y248810D01*
X478617Y248879D01*
X478689Y248945D01*
X478764Y249009D01*
X478842Y249069D01*
X478922Y249126D01*
X479004Y249180D01*
X479088Y249230D01*
X479174Y249277D01*
X479262Y249321D01*
X479352Y249361D01*
X479443Y249398D01*
X479536Y249430D01*
X479630Y249459D01*
X479724Y249485D01*
X479820Y249506D01*
X479917Y249524D01*
X480014Y249537D01*
X480112Y249547D01*
X480210Y249553D01*
X480308Y249555D01*
X480406Y249553D01*
X480504Y249547D01*
X480602Y249537D01*
X480699Y249524D01*
X480796Y249506D01*
X480892Y249485D01*
X480986Y249459D01*
X481080Y249430D01*
X481173Y249398D01*
X481264Y249361D01*
X481354Y249321D01*
X481442Y249277D01*
X481528Y249230D01*
X481612Y249180D01*
X481694Y249126D01*
X481774Y249069D01*
X481852Y249009D01*
X481927Y248945D01*
X481999Y248879D01*
X482069Y248810D01*
X482136Y248738D01*
X482200Y248664D01*
X482261Y248587D01*
X482319Y248508D01*
X482374Y248426D01*
X482425Y248342D01*
X482473Y248257D01*
X482517Y248169D01*
X482558Y248080D01*
X482596Y247989D01*
X482629Y247897D01*
X482730Y247685D01*
X482825Y247470D01*
X482915Y247253D01*
X483000Y247034D01*
X483080Y246813D01*
X483154Y246591D01*
X483223Y246366D01*
X483287Y246140D01*
X483345Y245912D01*
X483398Y245684D01*
X483445Y245454D01*
X483487Y245222D01*
X483523Y244990D01*
X483554Y244758D01*
X483579Y244524D01*
X483599Y244290D01*
X483613Y244056D01*
X483621Y243821D01*
X483624Y243586D01*
X476992Y243586D02*
X476995Y243351D01*
X477003Y243116D01*
X477017Y242882D01*
X477037Y242648D01*
X477062Y242414D01*
X477093Y242182D01*
X477129Y241950D01*
X477171Y241719D01*
X477218Y241488D01*
X477271Y241260D01*
X477329Y241032D01*
X477393Y240806D01*
X477462Y240582D01*
X477536Y240359D01*
X477616Y240138D01*
X477701Y239919D01*
X477791Y239702D01*
X477886Y239487D01*
X477987Y239275D01*
X478020Y239183D01*
X478058Y239092D01*
X478099Y239003D01*
X478143Y238915D01*
X478191Y238830D01*
X478243Y238746D01*
X478297Y238664D01*
X478355Y238585D01*
X478416Y238508D01*
X478480Y238434D01*
X478547Y238362D01*
X478617Y238293D01*
X478689Y238227D01*
X478764Y238163D01*
X478842Y238103D01*
X478922Y238046D01*
X479004Y237992D01*
X479088Y237942D01*
X479174Y237895D01*
X479262Y237851D01*
X479352Y237811D01*
X479443Y237774D01*
X479536Y237742D01*
X479630Y237713D01*
X479724Y237687D01*
X479820Y237666D01*
X479917Y237648D01*
X480014Y237635D01*
X480112Y237625D01*
X480210Y237619D01*
X480308Y237617D01*
X482629Y239275D02*
X482730Y239487D01*
X482825Y239702D01*
X482915Y239919D01*
X483000Y240138D01*
X483080Y240359D01*
X483154Y240582D01*
X483223Y240806D01*
X483287Y241032D01*
X483345Y241260D01*
X483398Y241488D01*
X483445Y241718D01*
X483487Y241950D01*
X483523Y242182D01*
X483554Y242414D01*
X483579Y242648D01*
X483599Y242882D01*
X483613Y243116D01*
X483621Y243351D01*
X483624Y243586D01*
X482629Y239275D02*
X482596Y239183D01*
X482558Y239092D01*
X482517Y239003D01*
X482473Y238915D01*
X482425Y238830D01*
X482374Y238746D01*
X482319Y238664D01*
X482261Y238585D01*
X482200Y238508D01*
X482136Y238434D01*
X482069Y238362D01*
X481999Y238293D01*
X481927Y238227D01*
X481852Y238163D01*
X481774Y238103D01*
X481694Y238046D01*
X481612Y237992D01*
X481528Y237942D01*
X481442Y237895D01*
X481354Y237851D01*
X481264Y237811D01*
X481173Y237774D01*
X481080Y237742D01*
X480986Y237713D01*
X480892Y237687D01*
X480796Y237666D01*
X480699Y237648D01*
X480602Y237635D01*
X480504Y237625D01*
X480406Y237619D01*
X480308Y237617D01*
X477655Y240270D02*
X482961Y246902D01*
D19*
X588189Y585098D02*
X588189Y598098D01*
X625687Y598098D02*
X625687Y585098D01*
D11*
X604291Y576086D02*
X602682Y578365D01*
X604291Y576086D02*
X605900Y578365D01*
X604291Y576086D02*
X604291Y573539D01*
X608437Y577293D02*
X609777Y578365D01*
X609777Y573539D01*
X608437Y573539D02*
X611118Y573539D01*
M02*
