G04 EAGLE Gerber RS-274X export*
G75*
%MOMM*%
%FSLAX34Y34*%
%LPD*%
%INSoldermask Top*%
%IPPOS*%
%AMOC8*
5,1,8,0,0,1.08239X$1,22.5*%
G01*
%ADD10R,1.601600X1.401600*%
%ADD11R,2.501600X2.101600*%
%ADD12R,2.409600X0.601600*%
%ADD13C,1.101600*%
%ADD14R,1.626600X0.751600*%
%ADD15C,1.727200*%
%ADD16C,2.286000*%
%ADD17R,1.301600X1.301600*%
%ADD18R,0.889000X0.990600*%
%ADD19R,1.609600X1.609600*%
%ADD20C,1.609600*%
%ADD21C,2.101600*%
%ADD22R,1.491600X0.681600*%
%ADD23R,0.581600X2.001600*%
%ADD24R,1.701600X0.651600*%
%ADD25R,0.651600X1.701600*%
%ADD26C,1.739900*%
%ADD27C,1.600200*%
%ADD28R,1.905000X2.692400*%
%ADD29C,0.551600*%
%ADD30R,3.495038X1.534156*%


D10*
X542600Y594100D03*
X542600Y613100D03*
X518700Y594200D03*
X518700Y613200D03*
X444500Y574700D03*
X444500Y593700D03*
D11*
X677800Y476700D03*
D12*
X672160Y504700D03*
X672160Y512700D03*
X672160Y520700D03*
X672160Y528700D03*
X672160Y536700D03*
D11*
X732800Y476700D03*
X677800Y564700D03*
X732800Y564700D03*
D13*
X702800Y498700D03*
X702800Y542700D03*
D14*
X677380Y430500D03*
X677380Y417800D03*
X677380Y405100D03*
X677380Y392400D03*
X677380Y379700D03*
X677380Y367000D03*
X677380Y354300D03*
X731620Y354300D03*
X731620Y367000D03*
X731620Y379700D03*
X731620Y392400D03*
X731620Y405100D03*
X731620Y417800D03*
X731620Y430500D03*
X562080Y430500D03*
X562080Y417800D03*
X562080Y405100D03*
X562080Y392400D03*
X562080Y379700D03*
X562080Y367000D03*
X562080Y354300D03*
X616320Y354300D03*
X616320Y367000D03*
X616320Y379700D03*
X616320Y392400D03*
X616320Y405100D03*
X616320Y417800D03*
X616320Y430500D03*
X443680Y431500D03*
X443680Y418800D03*
X443680Y406100D03*
X443680Y393400D03*
X443680Y380700D03*
X443680Y368000D03*
X443680Y355300D03*
X497920Y355300D03*
X497920Y368000D03*
X497920Y380700D03*
X497920Y393400D03*
X497920Y406100D03*
X497920Y418800D03*
X497920Y431500D03*
D15*
X247200Y550500D03*
X247200Y575900D03*
X221800Y575900D03*
X221800Y550500D03*
X272600Y550500D03*
X272600Y575900D03*
D16*
X589000Y292100D03*
X554000Y292100D03*
X519000Y292100D03*
X484000Y292100D03*
X449000Y292100D03*
X624000Y292100D03*
X659000Y292100D03*
X694000Y292100D03*
D17*
X29600Y600200D03*
X29600Y579200D03*
X48800Y599700D03*
X48800Y578700D03*
X96000Y599700D03*
X96000Y578700D03*
X126200Y599700D03*
X126200Y578700D03*
X158400Y599700D03*
X158400Y578700D03*
D18*
X537306Y489260D03*
X518002Y489260D03*
X527654Y468940D03*
X497906Y489460D03*
X478602Y489460D03*
X488254Y469140D03*
X459694Y505940D03*
X478998Y505940D03*
X469346Y526260D03*
X518106Y534460D03*
X498802Y534460D03*
X508454Y514140D03*
D19*
X101600Y520700D03*
D20*
X127000Y520700D03*
X152400Y520700D03*
X177800Y520700D03*
D21*
X35560Y509270D03*
X243840Y509270D03*
X243840Y278130D03*
X35560Y278130D03*
D22*
X470950Y593700D03*
X470950Y584200D03*
X470950Y574700D03*
X494250Y574700D03*
X494250Y593700D03*
D23*
X617450Y555550D03*
X610950Y555550D03*
X604450Y555550D03*
X597950Y555550D03*
X591450Y555550D03*
X584950Y555550D03*
X578450Y555550D03*
X571950Y555550D03*
X565450Y555550D03*
X558950Y555550D03*
X558950Y485450D03*
X565450Y485450D03*
X571950Y485450D03*
X578450Y485450D03*
X584950Y485450D03*
X591450Y485450D03*
X597950Y485450D03*
X604450Y485450D03*
X610950Y485450D03*
X617450Y485450D03*
D24*
X409000Y488000D03*
X409000Y496000D03*
X409000Y504000D03*
X409000Y512000D03*
X409000Y520000D03*
X409000Y528000D03*
X409000Y536000D03*
X409000Y544000D03*
D25*
X395200Y557800D03*
X387200Y557800D03*
X379200Y557800D03*
X371200Y557800D03*
X363200Y557800D03*
X355200Y557800D03*
X347200Y557800D03*
X339200Y557800D03*
D24*
X325400Y544000D03*
X325400Y536000D03*
X325400Y528000D03*
X325400Y520000D03*
X325400Y512000D03*
X325400Y504000D03*
X325400Y496000D03*
X325400Y488000D03*
D25*
X339200Y474200D03*
X347200Y474200D03*
X355200Y474200D03*
X363200Y474200D03*
X371200Y474200D03*
X379200Y474200D03*
X387200Y474200D03*
X395200Y474200D03*
D26*
X330708Y388620D03*
X380492Y388620D03*
D27*
X330708Y243840D03*
X355600Y243840D03*
X380492Y243840D03*
D28*
X299593Y318643D03*
X411607Y318643D03*
D29*
X618900Y584425D02*
X618900Y598975D01*
X606900Y598975D02*
X606900Y584425D01*
X594900Y584425D02*
X594900Y598975D01*
D30*
X606925Y591725D03*
M02*
