G04 EAGLE Gerber RS-274X export*
G75*
%MOMM*%
%FSLAX34Y34*%
%LPD*%
%INSoldermask Top*%
%IPPOS*%
%AMOC8*
5,1,8,0,0,1.08239X$1,22.5*%
G01*
%ADD10R,1.601600X1.401600*%
%ADD11R,1.401600X1.601600*%
%ADD12R,1.626600X0.751600*%
%ADD13C,1.727200*%
%ADD14C,2.286000*%
%ADD15R,1.301600X1.301600*%
%ADD16R,0.889000X0.990600*%
%ADD17R,1.609600X1.609600*%
%ADD18C,1.609600*%
%ADD19C,2.101600*%
%ADD20R,0.681600X1.491600*%
%ADD21C,0.261391*%
%ADD22R,3.351600X3.351600*%
%ADD23R,0.651600X1.701600*%
%ADD24R,1.701600X0.651600*%
%ADD25C,1.739900*%
%ADD26C,1.600200*%
%ADD27R,1.905000X2.692400*%
%ADD28R,0.501600X2.001600*%
%ADD29R,1.601597X1.501647*%
%ADD30R,1.901597X0.501600*%
%ADD31R,1.371600X0.736600*%
%ADD32R,2.540000X2.540000*%


D10*
X380400Y395800D03*
X380400Y414800D03*
D11*
X506700Y327900D03*
X525700Y327900D03*
X481700Y417000D03*
X500700Y417000D03*
D12*
X481680Y103100D03*
X481680Y90400D03*
X481680Y77700D03*
X481680Y65000D03*
X481680Y52300D03*
X481680Y39600D03*
X481680Y26900D03*
X535920Y26900D03*
X535920Y39600D03*
X535920Y52300D03*
X535920Y65000D03*
X535920Y77700D03*
X535920Y90400D03*
X535920Y103100D03*
X481680Y204700D03*
X481680Y192000D03*
X481680Y179300D03*
X481680Y166600D03*
X481680Y153900D03*
X481680Y141200D03*
X481680Y128500D03*
X535920Y128500D03*
X535920Y141200D03*
X535920Y153900D03*
X535920Y166600D03*
X535920Y179300D03*
X535920Y192000D03*
X535920Y204700D03*
X535920Y230100D03*
X535920Y242800D03*
X535920Y255500D03*
X535920Y268200D03*
X535920Y280900D03*
X535920Y293600D03*
X535920Y306300D03*
X481680Y306300D03*
X481680Y293600D03*
X481680Y280900D03*
X481680Y268200D03*
X481680Y255500D03*
X481680Y242800D03*
X481680Y230100D03*
D13*
X153800Y384600D03*
X128400Y384600D03*
X128400Y359200D03*
X153800Y359200D03*
X153800Y410000D03*
X128400Y410000D03*
D14*
X597700Y161800D03*
X597700Y196800D03*
X597700Y231800D03*
X597700Y266800D03*
X597700Y301800D03*
X597700Y126800D03*
X597700Y91800D03*
X597700Y56800D03*
D15*
X245400Y417000D03*
X266400Y417000D03*
X211200Y314800D03*
X190200Y314800D03*
X211200Y365600D03*
X190200Y365600D03*
X211200Y416400D03*
X190200Y416400D03*
X246400Y365500D03*
X267400Y365500D03*
D10*
X87600Y397300D03*
X87600Y416300D03*
X97500Y335100D03*
X97500Y316100D03*
X44400Y397400D03*
X44400Y416400D03*
X54300Y335000D03*
X54300Y316000D03*
D16*
X404694Y339040D03*
X423998Y339040D03*
X414346Y359360D03*
X450894Y380740D03*
X470198Y380740D03*
X460546Y401060D03*
X450894Y339040D03*
X470198Y339040D03*
X460546Y359360D03*
X404694Y380740D03*
X423998Y380740D03*
X414346Y401060D03*
X78094Y356640D03*
X97398Y356640D03*
X87746Y376960D03*
X34594Y358240D03*
X53898Y358240D03*
X44246Y378560D03*
D17*
X122700Y283600D03*
D18*
X148100Y283600D03*
X173500Y283600D03*
X198900Y283600D03*
D19*
X56660Y272170D03*
X264940Y272170D03*
X264940Y41030D03*
X56660Y41030D03*
D20*
X509400Y382950D03*
X499900Y382950D03*
X490400Y382950D03*
X490400Y359650D03*
X509400Y359650D03*
D21*
X322601Y345651D02*
X322601Y339149D01*
X320999Y339149D01*
X320999Y345651D01*
X322601Y345651D01*
X322601Y341632D02*
X320999Y341632D01*
X320999Y344115D02*
X322601Y344115D01*
X329101Y345651D02*
X329101Y339149D01*
X327499Y339149D01*
X327499Y345651D01*
X329101Y345651D01*
X329101Y341632D02*
X327499Y341632D01*
X327499Y344115D02*
X329101Y344115D01*
X335601Y345651D02*
X335601Y339149D01*
X333999Y339149D01*
X333999Y345651D01*
X335601Y345651D01*
X335601Y341632D02*
X333999Y341632D01*
X333999Y344115D02*
X335601Y344115D01*
X342101Y345651D02*
X342101Y339149D01*
X340499Y339149D01*
X340499Y345651D01*
X342101Y345651D01*
X342101Y341632D02*
X340499Y341632D01*
X340499Y344115D02*
X342101Y344115D01*
X348601Y345651D02*
X348601Y339149D01*
X346999Y339149D01*
X346999Y345651D01*
X348601Y345651D01*
X348601Y341632D02*
X346999Y341632D01*
X346999Y344115D02*
X348601Y344115D01*
X348601Y388149D02*
X348601Y394651D01*
X348601Y388149D02*
X346999Y388149D01*
X346999Y394651D01*
X348601Y394651D01*
X348601Y390632D02*
X346999Y390632D01*
X346999Y393115D02*
X348601Y393115D01*
X342101Y394651D02*
X342101Y388149D01*
X340499Y388149D01*
X340499Y394651D01*
X342101Y394651D01*
X342101Y390632D02*
X340499Y390632D01*
X340499Y393115D02*
X342101Y393115D01*
X335601Y394651D02*
X335601Y388149D01*
X333999Y388149D01*
X333999Y394651D01*
X335601Y394651D01*
X335601Y390632D02*
X333999Y390632D01*
X333999Y393115D02*
X335601Y393115D01*
X329101Y394651D02*
X329101Y388149D01*
X327499Y388149D01*
X327499Y394651D01*
X329101Y394651D01*
X329101Y390632D02*
X327499Y390632D01*
X327499Y393115D02*
X329101Y393115D01*
X322601Y394651D02*
X322601Y388149D01*
X320999Y388149D01*
X320999Y394651D01*
X322601Y394651D01*
X322601Y390632D02*
X320999Y390632D01*
X320999Y393115D02*
X322601Y393115D01*
X313551Y379099D02*
X307049Y379099D01*
X307049Y380701D01*
X313551Y380701D01*
X313551Y379099D01*
X313551Y372599D02*
X307049Y372599D01*
X307049Y374201D01*
X313551Y374201D01*
X313551Y372599D01*
X313551Y366099D02*
X307049Y366099D01*
X307049Y367701D01*
X313551Y367701D01*
X313551Y366099D01*
X313551Y359599D02*
X307049Y359599D01*
X307049Y361201D01*
X313551Y361201D01*
X313551Y359599D01*
X313551Y353099D02*
X307049Y353099D01*
X307049Y354701D01*
X313551Y354701D01*
X313551Y353099D01*
X356049Y353099D02*
X362551Y353099D01*
X356049Y353099D02*
X356049Y354701D01*
X362551Y354701D01*
X362551Y353099D01*
X362551Y359599D02*
X356049Y359599D01*
X356049Y361201D01*
X362551Y361201D01*
X362551Y359599D01*
X362551Y366099D02*
X356049Y366099D01*
X356049Y367701D01*
X362551Y367701D01*
X362551Y366099D01*
X362551Y372599D02*
X356049Y372599D01*
X356049Y374201D01*
X362551Y374201D01*
X362551Y372599D01*
X362551Y379099D02*
X356049Y379099D01*
X356049Y380701D01*
X362551Y380701D01*
X362551Y379099D01*
D22*
X334800Y366900D03*
D23*
X403100Y291000D03*
X395100Y291000D03*
X387100Y291000D03*
X379100Y291000D03*
X371100Y291000D03*
X363100Y291000D03*
X355100Y291000D03*
X347100Y291000D03*
D24*
X333300Y277200D03*
X333300Y269200D03*
X333300Y261200D03*
X333300Y253200D03*
X333300Y245200D03*
X333300Y237200D03*
X333300Y229200D03*
X333300Y221200D03*
D23*
X347100Y207400D03*
X355100Y207400D03*
X363100Y207400D03*
X371100Y207400D03*
X379100Y207400D03*
X387100Y207400D03*
X395100Y207400D03*
X403100Y207400D03*
D24*
X416900Y221200D03*
X416900Y229200D03*
X416900Y237200D03*
X416900Y245200D03*
X416900Y253200D03*
X416900Y261200D03*
X416900Y269200D03*
X416900Y277200D03*
D25*
X350908Y171820D03*
X400692Y171820D03*
D26*
X350908Y27040D03*
X375800Y27040D03*
X400692Y27040D03*
D27*
X319793Y101843D03*
X431807Y101843D03*
D28*
X321250Y422800D03*
X333250Y422800D03*
X345250Y422800D03*
D29*
X583346Y337241D03*
D30*
X577545Y356776D03*
D31*
X610755Y410489D03*
X610755Y328991D03*
D30*
X577545Y363278D03*
X577545Y369781D03*
X577545Y376283D03*
X577545Y382785D03*
D29*
X583346Y402239D03*
D32*
X37801Y12600D03*
X26101Y441900D03*
X616201Y11100D03*
M02*
