G04 EAGLE Gerber RS-274X export*
G75*
%MOMM*%
%FSLAX34Y34*%
%LPD*%
%INSolderpaste Top*%
%IPPOS*%
%AMOC8*
5,1,8,0,0,1.08239X$1,22.5*%
G01*
%ADD10R,1.500000X1.300000*%
%ADD11R,2.400000X2.000000*%
%ADD12R,2.308000X0.500000*%
%ADD13R,0.650000X1.525000*%
%ADD14R,1.200000X1.200000*%
%ADD15R,0.480000X1.900000*%
%ADD16R,1.600000X0.550000*%
%ADD17R,0.550000X1.600000*%
%ADD18C,0.450000*%
%ADD19R,1.390000X0.580000*%
%ADD20R,0.787400X0.889000*%


D10*
X190500Y714400D03*
X190500Y733400D03*
D11*
X60400Y767900D03*
D12*
X66040Y739900D03*
X66040Y731900D03*
X66040Y723900D03*
X66040Y715900D03*
X66040Y707900D03*
D11*
X5400Y767900D03*
X60400Y679900D03*
X5400Y679900D03*
D13*
X254000Y417380D03*
X266700Y417380D03*
X279400Y417380D03*
X292100Y417380D03*
X304800Y417380D03*
X317500Y417380D03*
X330200Y417380D03*
X330200Y471620D03*
X317500Y471620D03*
X304800Y471620D03*
X292100Y471620D03*
X279400Y471620D03*
X266700Y471620D03*
X254000Y471620D03*
X393700Y417380D03*
X406400Y417380D03*
X419100Y417380D03*
X431800Y417380D03*
X444500Y417380D03*
X457200Y417380D03*
X469900Y417380D03*
X469900Y471620D03*
X457200Y471620D03*
X444500Y471620D03*
X431800Y471620D03*
X419100Y471620D03*
X406400Y471620D03*
X393700Y471620D03*
X533400Y417380D03*
X546100Y417380D03*
X558800Y417380D03*
X571500Y417380D03*
X584200Y417380D03*
X596900Y417380D03*
X609600Y417380D03*
X609600Y471620D03*
X596900Y471620D03*
X584200Y471620D03*
X571500Y471620D03*
X558800Y471620D03*
X546100Y471620D03*
X533400Y471620D03*
D14*
X711200Y776900D03*
X711200Y797900D03*
X749300Y776900D03*
X749300Y797900D03*
X787400Y776900D03*
X787400Y797900D03*
X825500Y776900D03*
X825500Y797900D03*
X863600Y776900D03*
X863600Y797900D03*
D15*
X161250Y599950D03*
X167750Y599950D03*
X174250Y599950D03*
X180750Y599950D03*
X187250Y599950D03*
X193750Y599950D03*
X200250Y599950D03*
X206750Y599950D03*
X213250Y599950D03*
X219750Y599950D03*
X219750Y670050D03*
X213250Y670050D03*
X206750Y670050D03*
X200250Y670050D03*
X193750Y670050D03*
X187250Y670050D03*
X180750Y670050D03*
X174250Y670050D03*
X167750Y670050D03*
X161250Y670050D03*
D16*
X575200Y721300D03*
X575200Y729300D03*
X575200Y737300D03*
X575200Y745300D03*
X575200Y753300D03*
X575200Y761300D03*
X575200Y769300D03*
X575200Y777300D03*
D17*
X561400Y791100D03*
X553400Y791100D03*
X545400Y791100D03*
X537400Y791100D03*
X529400Y791100D03*
X521400Y791100D03*
X513400Y791100D03*
X505400Y791100D03*
D16*
X491600Y777300D03*
X491600Y769300D03*
X491600Y761300D03*
X491600Y753300D03*
X491600Y745300D03*
X491600Y737300D03*
X491600Y729300D03*
X491600Y721300D03*
D17*
X505400Y707500D03*
X513400Y707500D03*
X521400Y707500D03*
X529400Y707500D03*
X537400Y707500D03*
X545400Y707500D03*
X553400Y707500D03*
X561400Y707500D03*
D18*
X165800Y553375D02*
X165800Y538825D01*
X177800Y538825D02*
X177800Y553375D01*
X189800Y553375D02*
X189800Y538825D01*
D19*
X216950Y796900D03*
X216950Y787400D03*
X216950Y777900D03*
X240250Y777900D03*
X240250Y796900D03*
D20*
X231394Y713740D03*
X250698Y713740D03*
X241046Y734060D03*
X263144Y713740D03*
X282448Y713740D03*
X272796Y734060D03*
X294894Y713740D03*
X314198Y713740D03*
X304546Y734060D03*
X263144Y662940D03*
X282448Y662940D03*
X272796Y683260D03*
D10*
X292100Y777900D03*
X292100Y796900D03*
X165100Y777900D03*
X165100Y796900D03*
M02*
