M48
;GenerationSoftware,Autodesk,EAGLE,9.6.2*%
;CreationDate,2020-11-11T03:33:55Z*%
FMAT,2
ICI,OFF
METRIC,TZ,000.000
T6C0.350
T5C0.900
T4C0.991
T3C1.000
T2C1.092
T1C2.000
%
G90
M71
T1
X3556Y50927
X24384Y50927
X24384Y27813
X3556Y27813
T2
X33071Y38862
X38049Y38862
T3
X44900Y29210
X70280Y49870
X70280Y54270
X58900Y29210
X55400Y29210
X51900Y29210
X48400Y29210
X62400Y29210
X65900Y29210
X69400Y29210
X10160Y52070
X12700Y52070
X15240Y52070
X17780Y52070
T4
X33071Y24384
X35560Y24384
X38049Y24384
T5
X24720Y55050
X24720Y57590
X22180Y57590
X22180Y55050
X27260Y55050
X27260Y57590
T6
X70500Y42100
X70600Y36300
X59000Y36500
X58800Y42100
X47000Y42300
X47100Y36600
X30700Y41000
X34200Y43100
X34300Y51600
X39000Y51600
X27500Y51200
X23300Y47400
X32300Y47200
X50800Y47300
X52400Y51400
X48900Y52100
X30800Y55900
X43532Y52000
X46000Y53500
X40000Y57700
X62247Y57153
X59800Y46800
X30400Y53600
X42657Y50357
X53600Y40500
X38713Y44200
X30800Y49600
X37500Y40400
X37800Y57700
X36797Y44197
X38700Y57700
X37755Y44200
X34700Y45600
X44900Y45600
X64500Y45700
X46300Y60700
X41300Y47400
X41100Y56000
X41900Y43100
X41900Y38000
X51500Y40500
X54400Y43000
X54400Y37900
X63200Y40400
X65900Y43000
X65900Y37900
X39500Y46139
X42532Y36800
X40868Y40600
X43500Y48800
X55032Y36700
X42206Y49594
X52200Y38100
X42900Y52800
X50600Y58300
X63900Y38000
X29300Y52800
X65268Y36700
X30000Y50400
X65200Y40400
X28500Y59900
X20300Y59700
X36400Y60500
X42000Y61400
X64800Y54900
X59600Y52000
X56600Y51900
M30