G04 EAGLE Gerber RS-274X export*
G75*
%MOMM*%
%FSLAX34Y34*%
%LPD*%
%INSoldermask Top*%
%IPPOS*%
%AMOC8*
5,1,8,0,0,1.08239X$1,22.5*%
G01*
%ADD10C,1.127000*%
%ADD11R,1.627000X1.427000*%
%ADD12R,1.427000X1.627000*%
%ADD13R,1.652000X0.777000*%
%ADD14C,1.752600*%
%ADD15C,2.311400*%
%ADD16R,1.327000X1.327000*%
%ADD17R,0.914400X1.016000*%
%ADD18R,1.627000X1.627000*%
%ADD19C,1.627000*%
%ADD20C,2.127000*%
%ADD21R,0.707000X1.517000*%
%ADD22C,0.286078*%
%ADD23R,3.377000X3.377000*%
%ADD24R,0.677000X1.727000*%
%ADD25R,1.727000X0.677000*%
%ADD26C,1.765300*%
%ADD27C,1.625600*%
%ADD28R,1.930400X2.717800*%
%ADD29R,0.527000X2.027000*%
%ADD30R,1.626997X1.527047*%
%ADD31R,1.926997X0.527000*%
%ADD32R,1.397000X0.762000*%
%ADD33R,2.540000X2.540000*%
%ADD34C,0.652000*%


D10*
X62000Y-2742D03*
X62000Y456909D03*
X583875Y-2742D03*
X583875Y456909D03*
D11*
X380400Y395800D03*
X380400Y414800D03*
D12*
X506700Y327900D03*
X525700Y327900D03*
X481700Y417000D03*
X500700Y417000D03*
D13*
X481680Y103100D03*
X481680Y90400D03*
X481680Y77700D03*
X481680Y65000D03*
X481680Y52300D03*
X481680Y39600D03*
X481680Y26900D03*
X535920Y26900D03*
X535920Y39600D03*
X535920Y52300D03*
X535920Y65000D03*
X535920Y77700D03*
X535920Y90400D03*
X535920Y103100D03*
X481680Y204700D03*
X481680Y192000D03*
X481680Y179300D03*
X481680Y166600D03*
X481680Y153900D03*
X481680Y141200D03*
X481680Y128500D03*
X535920Y128500D03*
X535920Y141200D03*
X535920Y153900D03*
X535920Y166600D03*
X535920Y179300D03*
X535920Y192000D03*
X535920Y204700D03*
X535920Y230100D03*
X535920Y242800D03*
X535920Y255500D03*
X535920Y268200D03*
X535920Y280900D03*
X535920Y293600D03*
X535920Y306300D03*
X481680Y306300D03*
X481680Y293600D03*
X481680Y280900D03*
X481680Y268200D03*
X481680Y255500D03*
X481680Y242800D03*
X481680Y230100D03*
D14*
X153800Y384600D03*
X128400Y384600D03*
X128400Y359200D03*
X153800Y359200D03*
X153800Y410000D03*
X128400Y410000D03*
D15*
X597700Y161800D03*
X597700Y196800D03*
X597700Y231800D03*
X597700Y266800D03*
X597700Y301800D03*
X597700Y126800D03*
X597700Y91800D03*
X597700Y56800D03*
D16*
X245400Y417000D03*
X266400Y417000D03*
X211200Y314800D03*
X190200Y314800D03*
X211200Y365600D03*
X190200Y365600D03*
X211200Y416400D03*
X190200Y416400D03*
X246400Y365500D03*
X267400Y365500D03*
D11*
X87600Y397300D03*
X87600Y416300D03*
X97500Y335100D03*
X97500Y316100D03*
X44400Y397400D03*
X44400Y416400D03*
X54300Y335000D03*
X54300Y316000D03*
D17*
X404694Y339040D03*
X423998Y339040D03*
X414346Y359360D03*
X450894Y380740D03*
X470198Y380740D03*
X460546Y401060D03*
X450894Y339040D03*
X470198Y339040D03*
X460546Y359360D03*
X404694Y380740D03*
X423998Y380740D03*
X414346Y401060D03*
X78094Y356640D03*
X97398Y356640D03*
X87746Y376960D03*
X34594Y358240D03*
X53898Y358240D03*
X44246Y378560D03*
D18*
X122700Y283600D03*
D19*
X148100Y283600D03*
X173500Y283600D03*
X198900Y283600D03*
D20*
X56660Y272170D03*
X264940Y272170D03*
X264940Y41030D03*
X56660Y41030D03*
D21*
X509400Y382950D03*
X499900Y382950D03*
X490400Y382950D03*
X490400Y359650D03*
X509400Y359650D03*
D22*
X322605Y345655D02*
X322605Y339145D01*
X320995Y339145D01*
X320995Y345655D01*
X322605Y345655D01*
X322605Y341863D02*
X320995Y341863D01*
X320995Y344581D02*
X322605Y344581D01*
X329105Y345655D02*
X329105Y339145D01*
X327495Y339145D01*
X327495Y345655D01*
X329105Y345655D01*
X329105Y341863D02*
X327495Y341863D01*
X327495Y344581D02*
X329105Y344581D01*
X335605Y345655D02*
X335605Y339145D01*
X333995Y339145D01*
X333995Y345655D01*
X335605Y345655D01*
X335605Y341863D02*
X333995Y341863D01*
X333995Y344581D02*
X335605Y344581D01*
X342105Y345655D02*
X342105Y339145D01*
X340495Y339145D01*
X340495Y345655D01*
X342105Y345655D01*
X342105Y341863D02*
X340495Y341863D01*
X340495Y344581D02*
X342105Y344581D01*
X348605Y345655D02*
X348605Y339145D01*
X346995Y339145D01*
X346995Y345655D01*
X348605Y345655D01*
X348605Y341863D02*
X346995Y341863D01*
X346995Y344581D02*
X348605Y344581D01*
X348605Y388145D02*
X348605Y394655D01*
X348605Y388145D02*
X346995Y388145D01*
X346995Y394655D01*
X348605Y394655D01*
X348605Y390863D02*
X346995Y390863D01*
X346995Y393581D02*
X348605Y393581D01*
X342105Y394655D02*
X342105Y388145D01*
X340495Y388145D01*
X340495Y394655D01*
X342105Y394655D01*
X342105Y390863D02*
X340495Y390863D01*
X340495Y393581D02*
X342105Y393581D01*
X335605Y394655D02*
X335605Y388145D01*
X333995Y388145D01*
X333995Y394655D01*
X335605Y394655D01*
X335605Y390863D02*
X333995Y390863D01*
X333995Y393581D02*
X335605Y393581D01*
X329105Y394655D02*
X329105Y388145D01*
X327495Y388145D01*
X327495Y394655D01*
X329105Y394655D01*
X329105Y390863D02*
X327495Y390863D01*
X327495Y393581D02*
X329105Y393581D01*
X322605Y394655D02*
X322605Y388145D01*
X320995Y388145D01*
X320995Y394655D01*
X322605Y394655D01*
X322605Y390863D02*
X320995Y390863D01*
X320995Y393581D02*
X322605Y393581D01*
X313555Y379095D02*
X307045Y379095D01*
X307045Y380705D01*
X313555Y380705D01*
X313555Y379095D01*
X313555Y372595D02*
X307045Y372595D01*
X307045Y374205D01*
X313555Y374205D01*
X313555Y372595D01*
X313555Y366095D02*
X307045Y366095D01*
X307045Y367705D01*
X313555Y367705D01*
X313555Y366095D01*
X313555Y359595D02*
X307045Y359595D01*
X307045Y361205D01*
X313555Y361205D01*
X313555Y359595D01*
X313555Y353095D02*
X307045Y353095D01*
X307045Y354705D01*
X313555Y354705D01*
X313555Y353095D01*
X356045Y353095D02*
X362555Y353095D01*
X356045Y353095D02*
X356045Y354705D01*
X362555Y354705D01*
X362555Y353095D01*
X362555Y359595D02*
X356045Y359595D01*
X356045Y361205D01*
X362555Y361205D01*
X362555Y359595D01*
X362555Y366095D02*
X356045Y366095D01*
X356045Y367705D01*
X362555Y367705D01*
X362555Y366095D01*
X362555Y372595D02*
X356045Y372595D01*
X356045Y374205D01*
X362555Y374205D01*
X362555Y372595D01*
X362555Y379095D02*
X356045Y379095D01*
X356045Y380705D01*
X362555Y380705D01*
X362555Y379095D01*
D23*
X334800Y366900D03*
D24*
X403100Y291000D03*
X395100Y291000D03*
X387100Y291000D03*
X379100Y291000D03*
X371100Y291000D03*
X363100Y291000D03*
X355100Y291000D03*
X347100Y291000D03*
D25*
X333300Y277200D03*
X333300Y269200D03*
X333300Y261200D03*
X333300Y253200D03*
X333300Y245200D03*
X333300Y237200D03*
X333300Y229200D03*
X333300Y221200D03*
D24*
X347100Y207400D03*
X355100Y207400D03*
X363100Y207400D03*
X371100Y207400D03*
X379100Y207400D03*
X387100Y207400D03*
X395100Y207400D03*
X403100Y207400D03*
D25*
X416900Y221200D03*
X416900Y229200D03*
X416900Y237200D03*
X416900Y245200D03*
X416900Y253200D03*
X416900Y261200D03*
X416900Y269200D03*
X416900Y277200D03*
D26*
X350908Y171820D03*
X400692Y171820D03*
D27*
X350908Y27040D03*
X375800Y27040D03*
X400692Y27040D03*
D28*
X319793Y101843D03*
X431807Y101843D03*
D29*
X321250Y422800D03*
X333250Y422800D03*
X345250Y422800D03*
D30*
X594846Y336491D03*
D31*
X589045Y356026D03*
D32*
X622255Y409739D03*
X622255Y328241D03*
D31*
X589045Y362528D03*
X589045Y369031D03*
X589045Y375533D03*
X589045Y382035D03*
D30*
X594846Y401489D03*
D33*
X28326Y-2742D03*
X27826Y456909D03*
X613701Y-2742D03*
D34*
X455400Y268200D03*
X472800Y328500D03*
X463250Y306050D03*
X468000Y242700D03*
X553800Y280800D03*
X553800Y230100D03*
X461100Y252600D03*
X468900Y204900D03*
X469500Y153600D03*
X549600Y191700D03*
X550000Y129150D03*
X556800Y179700D03*
X551700Y90600D03*
X551400Y26700D03*
X467450Y103250D03*
X467700Y52500D03*
X462600Y178800D03*
X380100Y125400D03*
X438900Y306900D03*
X398280Y308600D03*
X556500Y153600D03*
X347950Y312200D03*
X364120Y165100D03*
X364200Y132000D03*
X527853Y377488D03*
X283385Y366185D03*
X299122Y373500D03*
X542700Y366600D03*
X429450Y221350D03*
X322500Y329400D03*
X292200Y245100D03*
X317400Y245100D03*
X319200Y236520D03*
X285300Y237900D03*
X293400Y303900D03*
X314400Y303600D03*
X228000Y392100D03*
X224100Y416400D03*
X403800Y189000D03*
X299400Y322200D03*
X466800Y140700D03*
X360300Y313500D03*
X370700Y159100D03*
X372900Y132000D03*
X59100Y380700D03*
X445717Y245783D03*
X446100Y237000D03*
X99600Y376800D03*
X314400Y214300D03*
X315000Y228900D03*
X430500Y252900D03*
X321000Y203400D03*
X347100Y132000D03*
X338520Y131400D03*
X405000Y316800D03*
X439500Y229200D03*
X413700Y370800D03*
X460200Y416700D03*
X377700Y306300D03*
X540000Y333000D03*
X78300Y342000D03*
X97500Y296400D03*
X54600Y296400D03*
X460800Y370500D03*
X494400Y345600D03*
X272584Y293700D03*
X385920Y320114D03*
X432383Y261383D03*
X392400Y326400D03*
X436800Y269100D03*
X140250Y429750D03*
X232500Y302250D03*
X524500Y345750D03*
X399500Y412000D03*
X547500Y306250D03*
X566000Y402250D03*
X426750Y400000D03*
X380000Y189250D03*
X499750Y394000D03*
X508250Y302750D03*
X506000Y247000D03*
X507750Y193500D03*
X508250Y140750D03*
X511250Y39500D03*
X333250Y436750D03*
X509750Y96000D03*
X280000Y196000D03*
X351500Y240250D03*
X387250Y231750D03*
X565250Y329250D03*
X296500Y413750D03*
X411750Y49750D03*
X306000Y46250D03*
X269000Y249000D03*
X319500Y188250D03*
M02*
