G04 EAGLE Gerber RS-274X export*
G75*
%MOMM*%
%FSLAX34Y34*%
%LPD*%
%INSilkscreen Top*%
%IPPOS*%
%AMOC8*
5,1,8,0,0,1.08239X$1,22.5*%
G01*
%ADD10C,0.101600*%
%ADD11C,0.200000*%
%ADD12C,0.127000*%
%ADD13C,0.076200*%
%ADD14R,0.300000X0.150000*%
%ADD15R,0.300000X0.300000*%
%ADD16C,0.152400*%
%ADD17C,0.508000*%
%ADD18C,0.200000*%
%ADD19C,0.050800*%


D10*
X381736Y430208D02*
X379139Y430208D01*
X379040Y430210D01*
X378940Y430216D01*
X378841Y430225D01*
X378743Y430238D01*
X378645Y430255D01*
X378547Y430276D01*
X378451Y430301D01*
X378356Y430329D01*
X378262Y430361D01*
X378169Y430396D01*
X378077Y430435D01*
X377987Y430478D01*
X377899Y430523D01*
X377812Y430573D01*
X377728Y430625D01*
X377645Y430681D01*
X377565Y430739D01*
X377487Y430801D01*
X377412Y430866D01*
X377339Y430934D01*
X377269Y431004D01*
X377201Y431077D01*
X377136Y431152D01*
X377074Y431230D01*
X377016Y431310D01*
X376960Y431393D01*
X376908Y431477D01*
X376858Y431564D01*
X376813Y431652D01*
X376770Y431742D01*
X376731Y431834D01*
X376696Y431927D01*
X376664Y432021D01*
X376636Y432116D01*
X376611Y432212D01*
X376590Y432310D01*
X376573Y432408D01*
X376560Y432506D01*
X376551Y432605D01*
X376545Y432705D01*
X376543Y432804D01*
X376543Y439296D01*
X376545Y439395D01*
X376551Y439495D01*
X376560Y439594D01*
X376573Y439692D01*
X376590Y439790D01*
X376611Y439888D01*
X376636Y439984D01*
X376664Y440079D01*
X376696Y440173D01*
X376731Y440266D01*
X376770Y440358D01*
X376813Y440448D01*
X376858Y440536D01*
X376908Y440623D01*
X376960Y440707D01*
X377016Y440790D01*
X377074Y440870D01*
X377136Y440948D01*
X377201Y441023D01*
X377269Y441096D01*
X377339Y441166D01*
X377412Y441234D01*
X377487Y441299D01*
X377565Y441361D01*
X377645Y441419D01*
X377728Y441475D01*
X377812Y441527D01*
X377899Y441577D01*
X377987Y441622D01*
X378077Y441665D01*
X378169Y441704D01*
X378261Y441739D01*
X378356Y441771D01*
X378451Y441799D01*
X378547Y441824D01*
X378645Y441845D01*
X378743Y441862D01*
X378841Y441875D01*
X378940Y441884D01*
X379040Y441890D01*
X379139Y441892D01*
X381736Y441892D01*
X386101Y439296D02*
X389346Y441892D01*
X389346Y430208D01*
X386101Y430208D02*
X392592Y430208D01*
X521904Y341708D02*
X524501Y341708D01*
X521904Y341708D02*
X521805Y341710D01*
X521705Y341716D01*
X521606Y341725D01*
X521508Y341738D01*
X521410Y341755D01*
X521312Y341776D01*
X521216Y341801D01*
X521121Y341829D01*
X521027Y341861D01*
X520934Y341896D01*
X520842Y341935D01*
X520752Y341978D01*
X520664Y342023D01*
X520577Y342073D01*
X520493Y342125D01*
X520410Y342181D01*
X520330Y342239D01*
X520252Y342301D01*
X520177Y342366D01*
X520104Y342434D01*
X520034Y342504D01*
X519966Y342577D01*
X519901Y342652D01*
X519839Y342730D01*
X519781Y342810D01*
X519725Y342893D01*
X519673Y342977D01*
X519623Y343064D01*
X519578Y343152D01*
X519535Y343242D01*
X519496Y343334D01*
X519461Y343427D01*
X519429Y343521D01*
X519401Y343616D01*
X519376Y343712D01*
X519355Y343810D01*
X519338Y343908D01*
X519325Y344006D01*
X519316Y344105D01*
X519310Y344205D01*
X519308Y344304D01*
X519308Y350796D01*
X519310Y350895D01*
X519316Y350995D01*
X519325Y351094D01*
X519338Y351192D01*
X519355Y351290D01*
X519376Y351388D01*
X519401Y351484D01*
X519429Y351579D01*
X519461Y351673D01*
X519496Y351766D01*
X519535Y351858D01*
X519578Y351948D01*
X519623Y352036D01*
X519673Y352123D01*
X519725Y352207D01*
X519781Y352290D01*
X519839Y352370D01*
X519901Y352448D01*
X519966Y352523D01*
X520034Y352596D01*
X520104Y352666D01*
X520177Y352734D01*
X520252Y352799D01*
X520330Y352861D01*
X520410Y352919D01*
X520493Y352975D01*
X520577Y353027D01*
X520664Y353077D01*
X520752Y353122D01*
X520842Y353165D01*
X520934Y353204D01*
X521026Y353239D01*
X521121Y353271D01*
X521216Y353299D01*
X521312Y353324D01*
X521410Y353345D01*
X521508Y353362D01*
X521606Y353375D01*
X521705Y353384D01*
X521805Y353390D01*
X521904Y353392D01*
X524501Y353392D01*
X532436Y353392D02*
X532543Y353390D01*
X532649Y353384D01*
X532755Y353374D01*
X532861Y353361D01*
X532967Y353343D01*
X533071Y353322D01*
X533175Y353297D01*
X533278Y353268D01*
X533379Y353236D01*
X533479Y353199D01*
X533578Y353159D01*
X533676Y353116D01*
X533772Y353069D01*
X533866Y353018D01*
X533958Y352964D01*
X534048Y352907D01*
X534136Y352847D01*
X534221Y352783D01*
X534304Y352716D01*
X534385Y352646D01*
X534463Y352574D01*
X534539Y352498D01*
X534611Y352420D01*
X534681Y352339D01*
X534748Y352256D01*
X534812Y352171D01*
X534872Y352083D01*
X534929Y351993D01*
X534983Y351901D01*
X535034Y351807D01*
X535081Y351711D01*
X535124Y351613D01*
X535164Y351514D01*
X535201Y351414D01*
X535233Y351313D01*
X535262Y351210D01*
X535287Y351106D01*
X535308Y351002D01*
X535326Y350896D01*
X535339Y350790D01*
X535349Y350684D01*
X535355Y350578D01*
X535357Y350471D01*
X532436Y353392D02*
X532315Y353390D01*
X532194Y353384D01*
X532074Y353374D01*
X531953Y353361D01*
X531834Y353343D01*
X531714Y353322D01*
X531596Y353297D01*
X531479Y353268D01*
X531362Y353235D01*
X531247Y353199D01*
X531133Y353158D01*
X531020Y353115D01*
X530908Y353067D01*
X530799Y353016D01*
X530691Y352961D01*
X530584Y352903D01*
X530480Y352842D01*
X530378Y352777D01*
X530278Y352709D01*
X530180Y352638D01*
X530084Y352564D01*
X529991Y352487D01*
X529901Y352406D01*
X529813Y352323D01*
X529728Y352237D01*
X529645Y352148D01*
X529566Y352057D01*
X529489Y351963D01*
X529416Y351867D01*
X529346Y351769D01*
X529279Y351668D01*
X529215Y351565D01*
X529155Y351460D01*
X529098Y351353D01*
X529044Y351245D01*
X528994Y351135D01*
X528948Y351023D01*
X528905Y350910D01*
X528866Y350795D01*
X534384Y348199D02*
X534463Y348276D01*
X534539Y348357D01*
X534612Y348440D01*
X534682Y348525D01*
X534749Y348613D01*
X534813Y348703D01*
X534873Y348795D01*
X534930Y348890D01*
X534984Y348986D01*
X535035Y349084D01*
X535082Y349184D01*
X535126Y349286D01*
X535166Y349389D01*
X535202Y349493D01*
X535234Y349599D01*
X535263Y349705D01*
X535288Y349813D01*
X535310Y349921D01*
X535327Y350031D01*
X535341Y350140D01*
X535350Y350250D01*
X535356Y350361D01*
X535358Y350471D01*
X534384Y348199D02*
X528866Y341708D01*
X535357Y341708D01*
X494736Y429908D02*
X492139Y429908D01*
X492040Y429910D01*
X491940Y429916D01*
X491841Y429925D01*
X491743Y429938D01*
X491645Y429955D01*
X491547Y429976D01*
X491451Y430001D01*
X491356Y430029D01*
X491262Y430061D01*
X491169Y430096D01*
X491077Y430135D01*
X490987Y430178D01*
X490899Y430223D01*
X490812Y430273D01*
X490728Y430325D01*
X490645Y430381D01*
X490565Y430439D01*
X490487Y430501D01*
X490412Y430566D01*
X490339Y430634D01*
X490269Y430704D01*
X490201Y430777D01*
X490136Y430852D01*
X490074Y430930D01*
X490016Y431010D01*
X489960Y431093D01*
X489908Y431177D01*
X489858Y431264D01*
X489813Y431352D01*
X489770Y431442D01*
X489731Y431534D01*
X489696Y431627D01*
X489664Y431721D01*
X489636Y431816D01*
X489611Y431912D01*
X489590Y432010D01*
X489573Y432108D01*
X489560Y432206D01*
X489551Y432305D01*
X489545Y432405D01*
X489543Y432504D01*
X489543Y438996D01*
X489545Y439095D01*
X489551Y439195D01*
X489560Y439294D01*
X489573Y439392D01*
X489590Y439490D01*
X489611Y439588D01*
X489636Y439684D01*
X489664Y439779D01*
X489696Y439873D01*
X489731Y439966D01*
X489770Y440058D01*
X489813Y440148D01*
X489858Y440236D01*
X489908Y440323D01*
X489960Y440407D01*
X490016Y440490D01*
X490074Y440570D01*
X490136Y440648D01*
X490201Y440723D01*
X490269Y440796D01*
X490339Y440866D01*
X490412Y440934D01*
X490487Y440999D01*
X490565Y441061D01*
X490645Y441119D01*
X490728Y441175D01*
X490812Y441227D01*
X490899Y441277D01*
X490987Y441322D01*
X491077Y441365D01*
X491169Y441404D01*
X491261Y441439D01*
X491356Y441471D01*
X491451Y441499D01*
X491547Y441524D01*
X491645Y441545D01*
X491743Y441562D01*
X491841Y441575D01*
X491940Y441584D01*
X492040Y441590D01*
X492139Y441592D01*
X494736Y441592D01*
X499101Y429908D02*
X502346Y429908D01*
X502459Y429910D01*
X502572Y429916D01*
X502685Y429926D01*
X502798Y429940D01*
X502910Y429957D01*
X503021Y429979D01*
X503131Y430004D01*
X503241Y430034D01*
X503349Y430067D01*
X503456Y430104D01*
X503562Y430144D01*
X503666Y430189D01*
X503769Y430237D01*
X503870Y430288D01*
X503969Y430343D01*
X504066Y430401D01*
X504161Y430463D01*
X504254Y430528D01*
X504344Y430596D01*
X504432Y430667D01*
X504518Y430742D01*
X504601Y430819D01*
X504681Y430899D01*
X504758Y430982D01*
X504833Y431068D01*
X504904Y431156D01*
X504972Y431246D01*
X505037Y431339D01*
X505099Y431434D01*
X505157Y431531D01*
X505212Y431630D01*
X505263Y431731D01*
X505311Y431834D01*
X505356Y431938D01*
X505396Y432044D01*
X505433Y432151D01*
X505466Y432259D01*
X505496Y432369D01*
X505521Y432479D01*
X505543Y432590D01*
X505560Y432702D01*
X505574Y432815D01*
X505584Y432928D01*
X505590Y433041D01*
X505592Y433154D01*
X505590Y433267D01*
X505584Y433380D01*
X505574Y433493D01*
X505560Y433606D01*
X505543Y433718D01*
X505521Y433829D01*
X505496Y433939D01*
X505466Y434049D01*
X505433Y434157D01*
X505396Y434264D01*
X505356Y434370D01*
X505311Y434474D01*
X505263Y434577D01*
X505212Y434678D01*
X505157Y434777D01*
X505099Y434874D01*
X505037Y434969D01*
X504972Y435062D01*
X504904Y435152D01*
X504833Y435240D01*
X504758Y435326D01*
X504681Y435409D01*
X504601Y435489D01*
X504518Y435566D01*
X504432Y435641D01*
X504344Y435712D01*
X504254Y435780D01*
X504161Y435845D01*
X504066Y435907D01*
X503969Y435965D01*
X503870Y436020D01*
X503769Y436071D01*
X503666Y436119D01*
X503562Y436164D01*
X503456Y436204D01*
X503349Y436241D01*
X503241Y436274D01*
X503131Y436304D01*
X503021Y436329D01*
X502910Y436351D01*
X502798Y436368D01*
X502685Y436382D01*
X502572Y436392D01*
X502459Y436398D01*
X502346Y436400D01*
X502996Y441592D02*
X499101Y441592D01*
X502996Y441592D02*
X503097Y441590D01*
X503197Y441584D01*
X503297Y441574D01*
X503397Y441561D01*
X503496Y441543D01*
X503595Y441522D01*
X503692Y441497D01*
X503789Y441468D01*
X503884Y441435D01*
X503978Y441399D01*
X504070Y441359D01*
X504161Y441316D01*
X504250Y441269D01*
X504337Y441219D01*
X504423Y441165D01*
X504506Y441108D01*
X504586Y441048D01*
X504665Y440985D01*
X504741Y440918D01*
X504814Y440849D01*
X504884Y440777D01*
X504952Y440703D01*
X505017Y440626D01*
X505078Y440546D01*
X505137Y440464D01*
X505192Y440380D01*
X505244Y440294D01*
X505293Y440206D01*
X505338Y440116D01*
X505380Y440024D01*
X505418Y439931D01*
X505452Y439836D01*
X505483Y439741D01*
X505510Y439644D01*
X505533Y439546D01*
X505553Y439447D01*
X505568Y439347D01*
X505580Y439247D01*
X505588Y439147D01*
X505592Y439046D01*
X505592Y438946D01*
X505588Y438845D01*
X505580Y438745D01*
X505568Y438645D01*
X505553Y438545D01*
X505533Y438446D01*
X505510Y438348D01*
X505483Y438251D01*
X505452Y438156D01*
X505418Y438061D01*
X505380Y437968D01*
X505338Y437876D01*
X505293Y437786D01*
X505244Y437698D01*
X505192Y437612D01*
X505137Y437528D01*
X505078Y437446D01*
X505017Y437366D01*
X504952Y437289D01*
X504884Y437215D01*
X504814Y437143D01*
X504741Y437074D01*
X504665Y437007D01*
X504586Y436944D01*
X504506Y436884D01*
X504423Y436827D01*
X504337Y436773D01*
X504250Y436723D01*
X504161Y436676D01*
X504070Y436633D01*
X503978Y436593D01*
X503884Y436557D01*
X503789Y436524D01*
X503692Y436495D01*
X503595Y436470D01*
X503496Y436449D01*
X503397Y436431D01*
X503297Y436418D01*
X503197Y436408D01*
X503097Y436402D01*
X502996Y436400D01*
X502996Y436399D02*
X500399Y436399D01*
D11*
X492800Y108250D02*
X524800Y108250D01*
X524800Y21750D01*
X492800Y21750D01*
X492800Y108250D01*
X489300Y109850D02*
X474050Y109850D01*
D10*
X470142Y70092D02*
X458458Y70092D01*
X470142Y68794D02*
X470142Y71390D01*
X458458Y71390D02*
X458458Y68794D01*
X470142Y78554D02*
X470142Y81150D01*
X470142Y78554D02*
X470140Y78455D01*
X470134Y78355D01*
X470125Y78256D01*
X470112Y78158D01*
X470095Y78060D01*
X470074Y77962D01*
X470049Y77866D01*
X470021Y77771D01*
X469989Y77677D01*
X469954Y77584D01*
X469915Y77492D01*
X469872Y77402D01*
X469827Y77314D01*
X469777Y77227D01*
X469725Y77143D01*
X469669Y77060D01*
X469611Y76980D01*
X469549Y76902D01*
X469484Y76827D01*
X469416Y76754D01*
X469346Y76684D01*
X469273Y76616D01*
X469198Y76551D01*
X469120Y76489D01*
X469040Y76431D01*
X468957Y76375D01*
X468873Y76323D01*
X468786Y76273D01*
X468698Y76228D01*
X468608Y76185D01*
X468516Y76146D01*
X468423Y76111D01*
X468329Y76079D01*
X468234Y76051D01*
X468138Y76026D01*
X468040Y76005D01*
X467942Y75988D01*
X467844Y75975D01*
X467745Y75966D01*
X467645Y75960D01*
X467546Y75958D01*
X467546Y75957D02*
X461054Y75957D01*
X460955Y75959D01*
X460855Y75965D01*
X460756Y75974D01*
X460658Y75987D01*
X460560Y76005D01*
X460462Y76025D01*
X460366Y76050D01*
X460270Y76078D01*
X460176Y76110D01*
X460083Y76145D01*
X459992Y76184D01*
X459902Y76227D01*
X459813Y76272D01*
X459727Y76322D01*
X459642Y76374D01*
X459560Y76430D01*
X459480Y76489D01*
X459402Y76550D01*
X459326Y76615D01*
X459253Y76683D01*
X459183Y76753D01*
X459115Y76826D01*
X459050Y76902D01*
X458989Y76980D01*
X458930Y77060D01*
X458874Y77142D01*
X458822Y77227D01*
X458773Y77313D01*
X458727Y77402D01*
X458684Y77492D01*
X458645Y77583D01*
X458610Y77676D01*
X458578Y77770D01*
X458550Y77866D01*
X458525Y77962D01*
X458505Y78060D01*
X458487Y78158D01*
X458474Y78256D01*
X458465Y78355D01*
X458459Y78454D01*
X458457Y78554D01*
X458458Y78554D02*
X458458Y81150D01*
X461054Y85515D02*
X458458Y88761D01*
X470142Y88761D01*
X470142Y92006D02*
X470142Y85515D01*
D11*
X492800Y209850D02*
X524800Y209850D01*
X524800Y123350D01*
X492800Y123350D01*
X492800Y209850D01*
X489300Y211450D02*
X474050Y211450D01*
D10*
X469442Y172092D02*
X457758Y172092D01*
X469442Y170794D02*
X469442Y173390D01*
X457758Y173390D02*
X457758Y170794D01*
X469442Y180554D02*
X469442Y183150D01*
X469442Y180554D02*
X469440Y180455D01*
X469434Y180355D01*
X469425Y180256D01*
X469412Y180158D01*
X469395Y180060D01*
X469374Y179962D01*
X469349Y179866D01*
X469321Y179771D01*
X469289Y179677D01*
X469254Y179584D01*
X469215Y179492D01*
X469172Y179402D01*
X469127Y179314D01*
X469077Y179227D01*
X469025Y179143D01*
X468969Y179060D01*
X468911Y178980D01*
X468849Y178902D01*
X468784Y178827D01*
X468716Y178754D01*
X468646Y178684D01*
X468573Y178616D01*
X468498Y178551D01*
X468420Y178489D01*
X468340Y178431D01*
X468257Y178375D01*
X468173Y178323D01*
X468086Y178273D01*
X467998Y178228D01*
X467908Y178185D01*
X467816Y178146D01*
X467723Y178111D01*
X467629Y178079D01*
X467534Y178051D01*
X467438Y178026D01*
X467340Y178005D01*
X467242Y177988D01*
X467144Y177975D01*
X467045Y177966D01*
X466945Y177960D01*
X466846Y177958D01*
X466846Y177957D02*
X460354Y177957D01*
X460255Y177959D01*
X460155Y177965D01*
X460056Y177974D01*
X459958Y177987D01*
X459860Y178005D01*
X459762Y178025D01*
X459666Y178050D01*
X459570Y178078D01*
X459476Y178110D01*
X459383Y178145D01*
X459292Y178184D01*
X459202Y178227D01*
X459113Y178272D01*
X459027Y178322D01*
X458942Y178374D01*
X458860Y178430D01*
X458780Y178489D01*
X458702Y178550D01*
X458626Y178615D01*
X458553Y178683D01*
X458483Y178753D01*
X458415Y178826D01*
X458350Y178902D01*
X458289Y178980D01*
X458230Y179060D01*
X458174Y179142D01*
X458122Y179227D01*
X458073Y179313D01*
X458027Y179402D01*
X457984Y179492D01*
X457945Y179583D01*
X457910Y179676D01*
X457878Y179770D01*
X457850Y179866D01*
X457825Y179962D01*
X457805Y180060D01*
X457787Y180158D01*
X457774Y180256D01*
X457765Y180355D01*
X457759Y180454D01*
X457757Y180554D01*
X457758Y180554D02*
X457758Y183150D01*
X457758Y191085D02*
X457760Y191192D01*
X457766Y191298D01*
X457776Y191404D01*
X457789Y191510D01*
X457807Y191616D01*
X457828Y191720D01*
X457853Y191824D01*
X457882Y191927D01*
X457914Y192028D01*
X457951Y192128D01*
X457991Y192227D01*
X458034Y192325D01*
X458081Y192421D01*
X458132Y192515D01*
X458186Y192607D01*
X458243Y192697D01*
X458303Y192785D01*
X458367Y192870D01*
X458434Y192953D01*
X458504Y193034D01*
X458576Y193112D01*
X458652Y193188D01*
X458730Y193260D01*
X458811Y193330D01*
X458894Y193397D01*
X458979Y193461D01*
X459067Y193521D01*
X459157Y193578D01*
X459249Y193632D01*
X459343Y193683D01*
X459439Y193730D01*
X459537Y193773D01*
X459636Y193813D01*
X459736Y193850D01*
X459837Y193882D01*
X459940Y193911D01*
X460044Y193936D01*
X460148Y193957D01*
X460254Y193975D01*
X460360Y193988D01*
X460466Y193998D01*
X460572Y194004D01*
X460679Y194006D01*
X457758Y191085D02*
X457760Y190964D01*
X457766Y190843D01*
X457776Y190723D01*
X457789Y190602D01*
X457807Y190483D01*
X457828Y190363D01*
X457853Y190245D01*
X457882Y190128D01*
X457915Y190011D01*
X457951Y189896D01*
X457992Y189782D01*
X458035Y189669D01*
X458083Y189557D01*
X458134Y189448D01*
X458189Y189340D01*
X458247Y189233D01*
X458308Y189129D01*
X458373Y189027D01*
X458441Y188927D01*
X458512Y188829D01*
X458586Y188733D01*
X458663Y188640D01*
X458744Y188550D01*
X458827Y188462D01*
X458913Y188377D01*
X459002Y188294D01*
X459093Y188215D01*
X459187Y188138D01*
X459283Y188065D01*
X459381Y187995D01*
X459482Y187928D01*
X459585Y187864D01*
X459690Y187804D01*
X459797Y187746D01*
X459905Y187693D01*
X460015Y187643D01*
X460127Y187597D01*
X460240Y187554D01*
X460355Y187515D01*
X462951Y193032D02*
X462873Y193111D01*
X462793Y193187D01*
X462710Y193260D01*
X462624Y193330D01*
X462537Y193397D01*
X462446Y193461D01*
X462354Y193521D01*
X462260Y193579D01*
X462163Y193633D01*
X462065Y193683D01*
X461965Y193730D01*
X461864Y193774D01*
X461761Y193814D01*
X461656Y193850D01*
X461551Y193882D01*
X461444Y193911D01*
X461337Y193936D01*
X461228Y193958D01*
X461119Y193975D01*
X461010Y193989D01*
X460900Y193998D01*
X460789Y194004D01*
X460679Y194006D01*
X462951Y193033D02*
X469442Y187515D01*
X469442Y194006D01*
D11*
X492800Y224950D02*
X524800Y224950D01*
X492800Y224950D02*
X492800Y311450D01*
X524800Y311450D01*
X524800Y224950D01*
X528300Y223350D02*
X543550Y223350D01*
D10*
X469242Y274992D02*
X457558Y274992D01*
X469242Y273694D02*
X469242Y276290D01*
X457558Y276290D02*
X457558Y273694D01*
X469242Y283454D02*
X469242Y286050D01*
X469242Y283454D02*
X469240Y283355D01*
X469234Y283255D01*
X469225Y283156D01*
X469212Y283058D01*
X469195Y282960D01*
X469174Y282862D01*
X469149Y282766D01*
X469121Y282671D01*
X469089Y282577D01*
X469054Y282484D01*
X469015Y282392D01*
X468972Y282302D01*
X468927Y282214D01*
X468877Y282127D01*
X468825Y282043D01*
X468769Y281960D01*
X468711Y281880D01*
X468649Y281802D01*
X468584Y281727D01*
X468516Y281654D01*
X468446Y281584D01*
X468373Y281516D01*
X468298Y281451D01*
X468220Y281389D01*
X468140Y281331D01*
X468057Y281275D01*
X467973Y281223D01*
X467886Y281173D01*
X467798Y281128D01*
X467708Y281085D01*
X467616Y281046D01*
X467523Y281011D01*
X467429Y280979D01*
X467334Y280951D01*
X467238Y280926D01*
X467140Y280905D01*
X467042Y280888D01*
X466944Y280875D01*
X466845Y280866D01*
X466745Y280860D01*
X466646Y280858D01*
X466646Y280857D02*
X460154Y280857D01*
X460055Y280859D01*
X459955Y280865D01*
X459856Y280874D01*
X459758Y280887D01*
X459660Y280905D01*
X459562Y280925D01*
X459466Y280950D01*
X459370Y280978D01*
X459276Y281010D01*
X459183Y281045D01*
X459092Y281084D01*
X459002Y281127D01*
X458913Y281172D01*
X458827Y281222D01*
X458742Y281274D01*
X458660Y281330D01*
X458580Y281389D01*
X458502Y281450D01*
X458426Y281515D01*
X458353Y281583D01*
X458283Y281653D01*
X458215Y281726D01*
X458150Y281802D01*
X458089Y281880D01*
X458030Y281960D01*
X457974Y282042D01*
X457922Y282127D01*
X457873Y282213D01*
X457827Y282302D01*
X457784Y282392D01*
X457745Y282483D01*
X457710Y282576D01*
X457678Y282670D01*
X457650Y282766D01*
X457625Y282862D01*
X457605Y282960D01*
X457587Y283058D01*
X457574Y283156D01*
X457565Y283255D01*
X457559Y283354D01*
X457557Y283454D01*
X457558Y283454D02*
X457558Y286050D01*
X469242Y290415D02*
X469242Y293661D01*
X469240Y293774D01*
X469234Y293887D01*
X469224Y294000D01*
X469210Y294113D01*
X469193Y294225D01*
X469171Y294336D01*
X469146Y294446D01*
X469116Y294556D01*
X469083Y294664D01*
X469046Y294771D01*
X469006Y294877D01*
X468961Y294981D01*
X468913Y295084D01*
X468862Y295185D01*
X468807Y295284D01*
X468749Y295381D01*
X468687Y295476D01*
X468622Y295569D01*
X468554Y295659D01*
X468483Y295747D01*
X468408Y295833D01*
X468331Y295916D01*
X468251Y295996D01*
X468168Y296073D01*
X468082Y296148D01*
X467994Y296219D01*
X467904Y296287D01*
X467811Y296352D01*
X467716Y296414D01*
X467619Y296472D01*
X467520Y296527D01*
X467419Y296578D01*
X467316Y296626D01*
X467212Y296671D01*
X467106Y296711D01*
X466999Y296748D01*
X466891Y296781D01*
X466781Y296811D01*
X466671Y296836D01*
X466560Y296858D01*
X466448Y296875D01*
X466335Y296889D01*
X466222Y296899D01*
X466109Y296905D01*
X465996Y296907D01*
X465883Y296905D01*
X465770Y296899D01*
X465657Y296889D01*
X465544Y296875D01*
X465432Y296858D01*
X465321Y296836D01*
X465211Y296811D01*
X465101Y296781D01*
X464993Y296748D01*
X464886Y296711D01*
X464780Y296671D01*
X464676Y296626D01*
X464573Y296578D01*
X464472Y296527D01*
X464373Y296472D01*
X464276Y296414D01*
X464181Y296352D01*
X464088Y296287D01*
X463998Y296219D01*
X463910Y296148D01*
X463824Y296073D01*
X463741Y295996D01*
X463661Y295916D01*
X463584Y295833D01*
X463509Y295747D01*
X463438Y295659D01*
X463370Y295569D01*
X463305Y295476D01*
X463243Y295381D01*
X463185Y295284D01*
X463130Y295185D01*
X463079Y295084D01*
X463031Y294981D01*
X462986Y294877D01*
X462946Y294771D01*
X462909Y294664D01*
X462876Y294556D01*
X462846Y294446D01*
X462821Y294336D01*
X462799Y294225D01*
X462782Y294113D01*
X462768Y294000D01*
X462758Y293887D01*
X462752Y293774D01*
X462750Y293661D01*
X457558Y294310D02*
X457558Y290415D01*
X457558Y294310D02*
X457560Y294411D01*
X457566Y294511D01*
X457576Y294611D01*
X457589Y294711D01*
X457607Y294810D01*
X457628Y294909D01*
X457653Y295006D01*
X457682Y295103D01*
X457715Y295198D01*
X457751Y295292D01*
X457791Y295384D01*
X457834Y295475D01*
X457881Y295564D01*
X457931Y295651D01*
X457985Y295737D01*
X458042Y295820D01*
X458102Y295900D01*
X458165Y295979D01*
X458232Y296055D01*
X458301Y296128D01*
X458373Y296198D01*
X458447Y296266D01*
X458524Y296331D01*
X458604Y296392D01*
X458686Y296451D01*
X458770Y296506D01*
X458856Y296558D01*
X458944Y296607D01*
X459034Y296652D01*
X459126Y296694D01*
X459219Y296732D01*
X459314Y296766D01*
X459409Y296797D01*
X459506Y296824D01*
X459604Y296847D01*
X459703Y296867D01*
X459803Y296882D01*
X459903Y296894D01*
X460003Y296902D01*
X460104Y296906D01*
X460204Y296906D01*
X460305Y296902D01*
X460405Y296894D01*
X460505Y296882D01*
X460605Y296867D01*
X460704Y296847D01*
X460802Y296824D01*
X460899Y296797D01*
X460994Y296766D01*
X461089Y296732D01*
X461182Y296694D01*
X461274Y296652D01*
X461364Y296607D01*
X461452Y296558D01*
X461538Y296506D01*
X461622Y296451D01*
X461704Y296392D01*
X461784Y296331D01*
X461861Y296266D01*
X461935Y296198D01*
X462007Y296128D01*
X462076Y296055D01*
X462143Y295979D01*
X462206Y295900D01*
X462266Y295820D01*
X462323Y295737D01*
X462377Y295651D01*
X462427Y295564D01*
X462474Y295475D01*
X462517Y295384D01*
X462557Y295292D01*
X462593Y295198D01*
X462626Y295103D01*
X462655Y295006D01*
X462680Y294909D01*
X462701Y294810D01*
X462719Y294711D01*
X462732Y294611D01*
X462742Y294511D01*
X462748Y294411D01*
X462750Y294310D01*
X462751Y294310D02*
X462751Y291714D01*
D12*
X166500Y354120D02*
X158880Y346500D01*
X123320Y346500D01*
X115700Y354120D01*
X115700Y366820D01*
X120780Y371900D01*
X115700Y376980D01*
X115700Y392220D01*
X120780Y397300D01*
X115700Y402380D01*
X115700Y415080D01*
X123320Y422700D01*
X158880Y422700D01*
X166500Y415080D01*
X166500Y402380D01*
X161420Y397300D01*
X166500Y392220D01*
X166500Y376980D01*
X161420Y371900D01*
X166500Y366820D01*
X166500Y354120D01*
D13*
X168588Y348659D02*
X165978Y346571D01*
X168588Y348659D02*
X168588Y339261D01*
X165978Y339261D02*
X171199Y339261D01*
D10*
X127026Y342172D02*
X127026Y330488D01*
X125728Y330488D02*
X128324Y330488D01*
X128324Y342172D02*
X125728Y342172D01*
X136438Y330488D02*
X136537Y330490D01*
X136637Y330496D01*
X136736Y330505D01*
X136834Y330518D01*
X136932Y330535D01*
X137030Y330556D01*
X137126Y330581D01*
X137221Y330609D01*
X137315Y330641D01*
X137408Y330676D01*
X137500Y330715D01*
X137590Y330758D01*
X137678Y330803D01*
X137765Y330853D01*
X137849Y330905D01*
X137932Y330961D01*
X138012Y331019D01*
X138090Y331081D01*
X138165Y331146D01*
X138238Y331214D01*
X138308Y331284D01*
X138376Y331357D01*
X138441Y331432D01*
X138503Y331510D01*
X138561Y331590D01*
X138617Y331673D01*
X138669Y331757D01*
X138719Y331844D01*
X138764Y331932D01*
X138807Y332022D01*
X138846Y332114D01*
X138881Y332207D01*
X138913Y332301D01*
X138941Y332396D01*
X138966Y332492D01*
X138987Y332590D01*
X139004Y332688D01*
X139017Y332786D01*
X139026Y332885D01*
X139032Y332985D01*
X139034Y333084D01*
X136438Y330488D02*
X136294Y330490D01*
X136149Y330496D01*
X136005Y330505D01*
X135862Y330518D01*
X135718Y330535D01*
X135575Y330556D01*
X135433Y330581D01*
X135292Y330609D01*
X135151Y330641D01*
X135011Y330677D01*
X134872Y330716D01*
X134734Y330759D01*
X134598Y330806D01*
X134462Y330856D01*
X134328Y330910D01*
X134196Y330967D01*
X134065Y331028D01*
X133936Y331092D01*
X133808Y331160D01*
X133682Y331230D01*
X133558Y331305D01*
X133437Y331382D01*
X133317Y331463D01*
X133199Y331546D01*
X133084Y331633D01*
X132971Y331723D01*
X132860Y331816D01*
X132752Y331911D01*
X132646Y332010D01*
X132543Y332111D01*
X132869Y339576D02*
X132871Y339675D01*
X132877Y339775D01*
X132886Y339874D01*
X132899Y339972D01*
X132916Y340070D01*
X132937Y340168D01*
X132962Y340264D01*
X132990Y340359D01*
X133022Y340453D01*
X133057Y340546D01*
X133096Y340638D01*
X133139Y340728D01*
X133184Y340816D01*
X133234Y340903D01*
X133286Y340987D01*
X133342Y341070D01*
X133400Y341150D01*
X133462Y341228D01*
X133527Y341303D01*
X133595Y341376D01*
X133665Y341446D01*
X133738Y341514D01*
X133813Y341579D01*
X133891Y341641D01*
X133971Y341699D01*
X134054Y341755D01*
X134138Y341807D01*
X134225Y341857D01*
X134313Y341902D01*
X134403Y341945D01*
X134495Y341984D01*
X134588Y342019D01*
X134682Y342051D01*
X134777Y342079D01*
X134874Y342104D01*
X134971Y342125D01*
X135069Y342142D01*
X135167Y342155D01*
X135266Y342164D01*
X135366Y342170D01*
X135465Y342172D01*
X135601Y342170D01*
X135737Y342164D01*
X135873Y342155D01*
X136009Y342142D01*
X136144Y342124D01*
X136278Y342104D01*
X136412Y342079D01*
X136546Y342051D01*
X136678Y342018D01*
X136809Y341983D01*
X136940Y341943D01*
X137069Y341900D01*
X137197Y341854D01*
X137323Y341803D01*
X137449Y341750D01*
X137572Y341692D01*
X137694Y341632D01*
X137814Y341568D01*
X137933Y341500D01*
X138049Y341430D01*
X138163Y341356D01*
X138276Y341279D01*
X138386Y341198D01*
X134166Y337304D02*
X134080Y337357D01*
X133996Y337414D01*
X133914Y337473D01*
X133834Y337536D01*
X133757Y337602D01*
X133682Y337670D01*
X133610Y337742D01*
X133541Y337816D01*
X133475Y337893D01*
X133412Y337972D01*
X133352Y338054D01*
X133295Y338138D01*
X133241Y338224D01*
X133191Y338312D01*
X133144Y338402D01*
X133100Y338493D01*
X133061Y338587D01*
X133024Y338681D01*
X132992Y338777D01*
X132963Y338875D01*
X132938Y338973D01*
X132917Y339072D01*
X132899Y339172D01*
X132886Y339272D01*
X132876Y339373D01*
X132870Y339475D01*
X132868Y339576D01*
X137737Y335356D02*
X137823Y335303D01*
X137907Y335246D01*
X137989Y335187D01*
X138069Y335124D01*
X138146Y335058D01*
X138221Y334990D01*
X138293Y334918D01*
X138362Y334844D01*
X138428Y334767D01*
X138491Y334688D01*
X138551Y334606D01*
X138608Y334522D01*
X138662Y334436D01*
X138712Y334348D01*
X138759Y334258D01*
X138803Y334167D01*
X138842Y334073D01*
X138879Y333979D01*
X138911Y333883D01*
X138940Y333785D01*
X138965Y333687D01*
X138986Y333588D01*
X139004Y333488D01*
X139017Y333388D01*
X139027Y333287D01*
X139033Y333185D01*
X139035Y333084D01*
X137737Y335356D02*
X134166Y337304D01*
X144143Y342172D02*
X144143Y330488D01*
X144143Y342172D02*
X147389Y342172D01*
X147502Y342170D01*
X147615Y342164D01*
X147728Y342154D01*
X147841Y342140D01*
X147953Y342123D01*
X148064Y342101D01*
X148174Y342076D01*
X148284Y342046D01*
X148392Y342013D01*
X148499Y341976D01*
X148605Y341936D01*
X148709Y341891D01*
X148812Y341843D01*
X148913Y341792D01*
X149012Y341737D01*
X149109Y341679D01*
X149204Y341617D01*
X149297Y341552D01*
X149387Y341484D01*
X149475Y341413D01*
X149561Y341338D01*
X149644Y341261D01*
X149724Y341181D01*
X149801Y341098D01*
X149876Y341012D01*
X149947Y340924D01*
X150015Y340834D01*
X150080Y340741D01*
X150142Y340646D01*
X150200Y340549D01*
X150255Y340450D01*
X150306Y340349D01*
X150354Y340246D01*
X150399Y340142D01*
X150439Y340036D01*
X150476Y339929D01*
X150509Y339821D01*
X150539Y339711D01*
X150564Y339601D01*
X150586Y339490D01*
X150603Y339378D01*
X150617Y339265D01*
X150627Y339152D01*
X150633Y339039D01*
X150635Y338926D01*
X150633Y338813D01*
X150627Y338700D01*
X150617Y338587D01*
X150603Y338474D01*
X150586Y338362D01*
X150564Y338251D01*
X150539Y338141D01*
X150509Y338031D01*
X150476Y337923D01*
X150439Y337816D01*
X150399Y337710D01*
X150354Y337606D01*
X150306Y337503D01*
X150255Y337402D01*
X150200Y337303D01*
X150142Y337206D01*
X150080Y337111D01*
X150015Y337018D01*
X149947Y336928D01*
X149876Y336840D01*
X149801Y336754D01*
X149724Y336671D01*
X149644Y336591D01*
X149561Y336514D01*
X149475Y336439D01*
X149387Y336368D01*
X149297Y336300D01*
X149204Y336235D01*
X149109Y336173D01*
X149012Y336115D01*
X148913Y336060D01*
X148812Y336009D01*
X148709Y335961D01*
X148605Y335916D01*
X148499Y335876D01*
X148392Y335839D01*
X148284Y335806D01*
X148174Y335776D01*
X148064Y335751D01*
X147953Y335729D01*
X147841Y335712D01*
X147728Y335698D01*
X147615Y335688D01*
X147502Y335682D01*
X147389Y335680D01*
X147389Y335681D02*
X144143Y335681D01*
X155023Y339576D02*
X158268Y342172D01*
X158268Y330488D01*
X155023Y330488D02*
X161514Y330488D01*
D12*
X572700Y319300D02*
X631700Y319300D01*
X572700Y319300D02*
X561700Y319300D01*
X561700Y39300D01*
X572700Y39300D01*
X631700Y39300D01*
X631700Y319300D01*
X572700Y319300D02*
X572700Y39300D01*
D14*
X254400Y411000D03*
X254400Y423000D03*
D15*
X254400Y417000D03*
D10*
X231501Y427808D02*
X231501Y439492D01*
X231501Y427808D02*
X236693Y427808D01*
X241407Y427808D02*
X246599Y427808D01*
X241407Y427808D02*
X241407Y439492D01*
X246599Y439492D01*
X245301Y434299D02*
X241407Y434299D01*
X251290Y439492D02*
X251290Y427808D01*
X251290Y439492D02*
X254535Y439492D01*
X254648Y439490D01*
X254761Y439484D01*
X254874Y439474D01*
X254987Y439460D01*
X255099Y439443D01*
X255210Y439421D01*
X255320Y439396D01*
X255430Y439366D01*
X255538Y439333D01*
X255645Y439296D01*
X255751Y439256D01*
X255855Y439211D01*
X255958Y439163D01*
X256059Y439112D01*
X256158Y439057D01*
X256255Y438999D01*
X256350Y438937D01*
X256443Y438872D01*
X256533Y438804D01*
X256621Y438733D01*
X256707Y438658D01*
X256790Y438581D01*
X256870Y438501D01*
X256947Y438418D01*
X257022Y438332D01*
X257093Y438244D01*
X257161Y438154D01*
X257226Y438061D01*
X257288Y437966D01*
X257346Y437869D01*
X257401Y437770D01*
X257452Y437669D01*
X257500Y437566D01*
X257545Y437462D01*
X257585Y437356D01*
X257622Y437249D01*
X257655Y437141D01*
X257685Y437031D01*
X257710Y436921D01*
X257732Y436810D01*
X257749Y436698D01*
X257763Y436585D01*
X257773Y436472D01*
X257779Y436359D01*
X257781Y436246D01*
X257781Y431054D01*
X257782Y431054D02*
X257780Y430941D01*
X257774Y430828D01*
X257764Y430715D01*
X257750Y430602D01*
X257733Y430490D01*
X257711Y430379D01*
X257686Y430269D01*
X257656Y430159D01*
X257623Y430051D01*
X257586Y429944D01*
X257546Y429838D01*
X257501Y429734D01*
X257453Y429631D01*
X257402Y429530D01*
X257347Y429431D01*
X257289Y429334D01*
X257227Y429239D01*
X257162Y429146D01*
X257094Y429056D01*
X257023Y428968D01*
X256948Y428882D01*
X256871Y428799D01*
X256791Y428719D01*
X256708Y428642D01*
X256622Y428567D01*
X256534Y428496D01*
X256444Y428428D01*
X256351Y428363D01*
X256256Y428301D01*
X256159Y428243D01*
X256060Y428188D01*
X255959Y428137D01*
X255856Y428089D01*
X255752Y428044D01*
X255646Y428004D01*
X255539Y427967D01*
X255431Y427934D01*
X255321Y427904D01*
X255211Y427879D01*
X255100Y427857D01*
X254988Y427840D01*
X254875Y427826D01*
X254762Y427816D01*
X254649Y427810D01*
X254536Y427808D01*
X254535Y427808D02*
X251290Y427808D01*
X263101Y436896D02*
X266346Y439492D01*
X266346Y427808D01*
X263101Y427808D02*
X269592Y427808D01*
D14*
X202200Y320800D03*
X202200Y308800D03*
D15*
X202200Y314800D03*
D10*
X174801Y326008D02*
X174801Y337692D01*
X174801Y326008D02*
X179993Y326008D01*
X184707Y326008D02*
X189899Y326008D01*
X184707Y326008D02*
X184707Y337692D01*
X189899Y337692D01*
X188601Y332499D02*
X184707Y332499D01*
X194590Y337692D02*
X194590Y326008D01*
X194590Y337692D02*
X197835Y337692D01*
X197948Y337690D01*
X198061Y337684D01*
X198174Y337674D01*
X198287Y337660D01*
X198399Y337643D01*
X198510Y337621D01*
X198620Y337596D01*
X198730Y337566D01*
X198838Y337533D01*
X198945Y337496D01*
X199051Y337456D01*
X199155Y337411D01*
X199258Y337363D01*
X199359Y337312D01*
X199458Y337257D01*
X199555Y337199D01*
X199650Y337137D01*
X199743Y337072D01*
X199833Y337004D01*
X199921Y336933D01*
X200007Y336858D01*
X200090Y336781D01*
X200170Y336701D01*
X200247Y336618D01*
X200322Y336532D01*
X200393Y336444D01*
X200461Y336354D01*
X200526Y336261D01*
X200588Y336166D01*
X200646Y336069D01*
X200701Y335970D01*
X200752Y335869D01*
X200800Y335766D01*
X200845Y335662D01*
X200885Y335556D01*
X200922Y335449D01*
X200955Y335341D01*
X200985Y335231D01*
X201010Y335121D01*
X201032Y335010D01*
X201049Y334898D01*
X201063Y334785D01*
X201073Y334672D01*
X201079Y334559D01*
X201081Y334446D01*
X201081Y329254D01*
X201082Y329254D02*
X201080Y329141D01*
X201074Y329028D01*
X201064Y328915D01*
X201050Y328802D01*
X201033Y328690D01*
X201011Y328579D01*
X200986Y328469D01*
X200956Y328359D01*
X200923Y328251D01*
X200886Y328144D01*
X200846Y328038D01*
X200801Y327934D01*
X200753Y327831D01*
X200702Y327730D01*
X200647Y327631D01*
X200589Y327534D01*
X200527Y327439D01*
X200462Y327346D01*
X200394Y327256D01*
X200323Y327168D01*
X200248Y327082D01*
X200171Y326999D01*
X200091Y326919D01*
X200008Y326842D01*
X199922Y326767D01*
X199834Y326696D01*
X199744Y326628D01*
X199651Y326563D01*
X199556Y326501D01*
X199459Y326443D01*
X199360Y326388D01*
X199259Y326337D01*
X199156Y326289D01*
X199052Y326244D01*
X198946Y326204D01*
X198839Y326167D01*
X198731Y326134D01*
X198621Y326104D01*
X198511Y326079D01*
X198400Y326057D01*
X198288Y326040D01*
X198175Y326026D01*
X198062Y326016D01*
X197949Y326010D01*
X197836Y326008D01*
X197835Y326008D02*
X194590Y326008D01*
X209971Y337692D02*
X210078Y337690D01*
X210184Y337684D01*
X210290Y337674D01*
X210396Y337661D01*
X210502Y337643D01*
X210606Y337622D01*
X210710Y337597D01*
X210813Y337568D01*
X210914Y337536D01*
X211014Y337499D01*
X211113Y337459D01*
X211211Y337416D01*
X211307Y337369D01*
X211401Y337318D01*
X211493Y337264D01*
X211583Y337207D01*
X211671Y337147D01*
X211756Y337083D01*
X211839Y337016D01*
X211920Y336946D01*
X211998Y336874D01*
X212074Y336798D01*
X212146Y336720D01*
X212216Y336639D01*
X212283Y336556D01*
X212347Y336471D01*
X212407Y336383D01*
X212464Y336293D01*
X212518Y336201D01*
X212569Y336107D01*
X212616Y336011D01*
X212659Y335913D01*
X212699Y335814D01*
X212736Y335714D01*
X212768Y335613D01*
X212797Y335510D01*
X212822Y335406D01*
X212843Y335302D01*
X212861Y335196D01*
X212874Y335090D01*
X212884Y334984D01*
X212890Y334878D01*
X212892Y334771D01*
X209971Y337692D02*
X209850Y337690D01*
X209729Y337684D01*
X209609Y337674D01*
X209488Y337661D01*
X209369Y337643D01*
X209249Y337622D01*
X209131Y337597D01*
X209014Y337568D01*
X208897Y337535D01*
X208782Y337499D01*
X208668Y337458D01*
X208555Y337415D01*
X208443Y337367D01*
X208334Y337316D01*
X208226Y337261D01*
X208119Y337203D01*
X208015Y337142D01*
X207913Y337077D01*
X207813Y337009D01*
X207715Y336938D01*
X207619Y336864D01*
X207526Y336787D01*
X207436Y336706D01*
X207348Y336623D01*
X207263Y336537D01*
X207180Y336448D01*
X207101Y336357D01*
X207024Y336263D01*
X206951Y336167D01*
X206881Y336069D01*
X206814Y335968D01*
X206750Y335865D01*
X206690Y335760D01*
X206633Y335653D01*
X206579Y335545D01*
X206529Y335435D01*
X206483Y335323D01*
X206440Y335210D01*
X206401Y335095D01*
X211919Y332499D02*
X211998Y332576D01*
X212074Y332657D01*
X212147Y332740D01*
X212217Y332825D01*
X212284Y332913D01*
X212348Y333003D01*
X212408Y333095D01*
X212465Y333190D01*
X212519Y333286D01*
X212570Y333384D01*
X212617Y333484D01*
X212661Y333586D01*
X212701Y333689D01*
X212737Y333793D01*
X212769Y333899D01*
X212798Y334005D01*
X212823Y334113D01*
X212845Y334221D01*
X212862Y334331D01*
X212876Y334440D01*
X212885Y334550D01*
X212891Y334661D01*
X212893Y334771D01*
X211918Y332499D02*
X206401Y326008D01*
X212892Y326008D01*
D14*
X202200Y371600D03*
X202200Y359600D03*
D15*
X202200Y365600D03*
D10*
X175701Y377208D02*
X175701Y388892D01*
X175701Y377208D02*
X180893Y377208D01*
X185607Y377208D02*
X190799Y377208D01*
X185607Y377208D02*
X185607Y388892D01*
X190799Y388892D01*
X189501Y383699D02*
X185607Y383699D01*
X195490Y388892D02*
X195490Y377208D01*
X195490Y388892D02*
X198735Y388892D01*
X198848Y388890D01*
X198961Y388884D01*
X199074Y388874D01*
X199187Y388860D01*
X199299Y388843D01*
X199410Y388821D01*
X199520Y388796D01*
X199630Y388766D01*
X199738Y388733D01*
X199845Y388696D01*
X199951Y388656D01*
X200055Y388611D01*
X200158Y388563D01*
X200259Y388512D01*
X200358Y388457D01*
X200455Y388399D01*
X200550Y388337D01*
X200643Y388272D01*
X200733Y388204D01*
X200821Y388133D01*
X200907Y388058D01*
X200990Y387981D01*
X201070Y387901D01*
X201147Y387818D01*
X201222Y387732D01*
X201293Y387644D01*
X201361Y387554D01*
X201426Y387461D01*
X201488Y387366D01*
X201546Y387269D01*
X201601Y387170D01*
X201652Y387069D01*
X201700Y386966D01*
X201745Y386862D01*
X201785Y386756D01*
X201822Y386649D01*
X201855Y386541D01*
X201885Y386431D01*
X201910Y386321D01*
X201932Y386210D01*
X201949Y386098D01*
X201963Y385985D01*
X201973Y385872D01*
X201979Y385759D01*
X201981Y385646D01*
X201981Y380454D01*
X201982Y380454D02*
X201980Y380341D01*
X201974Y380228D01*
X201964Y380115D01*
X201950Y380002D01*
X201933Y379890D01*
X201911Y379779D01*
X201886Y379669D01*
X201856Y379559D01*
X201823Y379451D01*
X201786Y379344D01*
X201746Y379238D01*
X201701Y379134D01*
X201653Y379031D01*
X201602Y378930D01*
X201547Y378831D01*
X201489Y378734D01*
X201427Y378639D01*
X201362Y378546D01*
X201294Y378456D01*
X201223Y378368D01*
X201148Y378282D01*
X201071Y378199D01*
X200991Y378119D01*
X200908Y378042D01*
X200822Y377967D01*
X200734Y377896D01*
X200644Y377828D01*
X200551Y377763D01*
X200456Y377701D01*
X200359Y377643D01*
X200260Y377588D01*
X200159Y377537D01*
X200056Y377489D01*
X199952Y377444D01*
X199846Y377404D01*
X199739Y377367D01*
X199631Y377334D01*
X199521Y377304D01*
X199411Y377279D01*
X199300Y377257D01*
X199188Y377240D01*
X199075Y377226D01*
X198962Y377216D01*
X198849Y377210D01*
X198736Y377208D01*
X198735Y377208D02*
X195490Y377208D01*
X207301Y377208D02*
X210546Y377208D01*
X210659Y377210D01*
X210772Y377216D01*
X210885Y377226D01*
X210998Y377240D01*
X211110Y377257D01*
X211221Y377279D01*
X211331Y377304D01*
X211441Y377334D01*
X211549Y377367D01*
X211656Y377404D01*
X211762Y377444D01*
X211866Y377489D01*
X211969Y377537D01*
X212070Y377588D01*
X212169Y377643D01*
X212266Y377701D01*
X212361Y377763D01*
X212454Y377828D01*
X212544Y377896D01*
X212632Y377967D01*
X212718Y378042D01*
X212801Y378119D01*
X212881Y378199D01*
X212958Y378282D01*
X213033Y378368D01*
X213104Y378456D01*
X213172Y378546D01*
X213237Y378639D01*
X213299Y378734D01*
X213357Y378831D01*
X213412Y378930D01*
X213463Y379031D01*
X213511Y379134D01*
X213556Y379238D01*
X213596Y379344D01*
X213633Y379451D01*
X213666Y379559D01*
X213696Y379669D01*
X213721Y379779D01*
X213743Y379890D01*
X213760Y380002D01*
X213774Y380115D01*
X213784Y380228D01*
X213790Y380341D01*
X213792Y380454D01*
X213790Y380567D01*
X213784Y380680D01*
X213774Y380793D01*
X213760Y380906D01*
X213743Y381018D01*
X213721Y381129D01*
X213696Y381239D01*
X213666Y381349D01*
X213633Y381457D01*
X213596Y381564D01*
X213556Y381670D01*
X213511Y381774D01*
X213463Y381877D01*
X213412Y381978D01*
X213357Y382077D01*
X213299Y382174D01*
X213237Y382269D01*
X213172Y382362D01*
X213104Y382452D01*
X213033Y382540D01*
X212958Y382626D01*
X212881Y382709D01*
X212801Y382789D01*
X212718Y382866D01*
X212632Y382941D01*
X212544Y383012D01*
X212454Y383080D01*
X212361Y383145D01*
X212266Y383207D01*
X212169Y383265D01*
X212070Y383320D01*
X211969Y383371D01*
X211866Y383419D01*
X211762Y383464D01*
X211656Y383504D01*
X211549Y383541D01*
X211441Y383574D01*
X211331Y383604D01*
X211221Y383629D01*
X211110Y383651D01*
X210998Y383668D01*
X210885Y383682D01*
X210772Y383692D01*
X210659Y383698D01*
X210546Y383700D01*
X211196Y388892D02*
X207301Y388892D01*
X211196Y388892D02*
X211297Y388890D01*
X211397Y388884D01*
X211497Y388874D01*
X211597Y388861D01*
X211696Y388843D01*
X211795Y388822D01*
X211892Y388797D01*
X211989Y388768D01*
X212084Y388735D01*
X212178Y388699D01*
X212270Y388659D01*
X212361Y388616D01*
X212450Y388569D01*
X212537Y388519D01*
X212623Y388465D01*
X212706Y388408D01*
X212786Y388348D01*
X212865Y388285D01*
X212941Y388218D01*
X213014Y388149D01*
X213084Y388077D01*
X213152Y388003D01*
X213217Y387926D01*
X213278Y387846D01*
X213337Y387764D01*
X213392Y387680D01*
X213444Y387594D01*
X213493Y387506D01*
X213538Y387416D01*
X213580Y387324D01*
X213618Y387231D01*
X213652Y387136D01*
X213683Y387041D01*
X213710Y386944D01*
X213733Y386846D01*
X213753Y386747D01*
X213768Y386647D01*
X213780Y386547D01*
X213788Y386447D01*
X213792Y386346D01*
X213792Y386246D01*
X213788Y386145D01*
X213780Y386045D01*
X213768Y385945D01*
X213753Y385845D01*
X213733Y385746D01*
X213710Y385648D01*
X213683Y385551D01*
X213652Y385456D01*
X213618Y385361D01*
X213580Y385268D01*
X213538Y385176D01*
X213493Y385086D01*
X213444Y384998D01*
X213392Y384912D01*
X213337Y384828D01*
X213278Y384746D01*
X213217Y384666D01*
X213152Y384589D01*
X213084Y384515D01*
X213014Y384443D01*
X212941Y384374D01*
X212865Y384307D01*
X212786Y384244D01*
X212706Y384184D01*
X212623Y384127D01*
X212537Y384073D01*
X212450Y384023D01*
X212361Y383976D01*
X212270Y383933D01*
X212178Y383893D01*
X212084Y383857D01*
X211989Y383824D01*
X211892Y383795D01*
X211795Y383770D01*
X211696Y383749D01*
X211597Y383731D01*
X211497Y383718D01*
X211397Y383708D01*
X211297Y383702D01*
X211196Y383700D01*
X211196Y383699D02*
X208599Y383699D01*
D14*
X202200Y422400D03*
X202200Y410400D03*
D15*
X202200Y416400D03*
D10*
X173301Y426608D02*
X173301Y438292D01*
X173301Y426608D02*
X178493Y426608D01*
X183207Y426608D02*
X188399Y426608D01*
X183207Y426608D02*
X183207Y438292D01*
X188399Y438292D01*
X187101Y433099D02*
X183207Y433099D01*
X193090Y438292D02*
X193090Y426608D01*
X193090Y438292D02*
X196335Y438292D01*
X196448Y438290D01*
X196561Y438284D01*
X196674Y438274D01*
X196787Y438260D01*
X196899Y438243D01*
X197010Y438221D01*
X197120Y438196D01*
X197230Y438166D01*
X197338Y438133D01*
X197445Y438096D01*
X197551Y438056D01*
X197655Y438011D01*
X197758Y437963D01*
X197859Y437912D01*
X197958Y437857D01*
X198055Y437799D01*
X198150Y437737D01*
X198243Y437672D01*
X198333Y437604D01*
X198421Y437533D01*
X198507Y437458D01*
X198590Y437381D01*
X198670Y437301D01*
X198747Y437218D01*
X198822Y437132D01*
X198893Y437044D01*
X198961Y436954D01*
X199026Y436861D01*
X199088Y436766D01*
X199146Y436669D01*
X199201Y436570D01*
X199252Y436469D01*
X199300Y436366D01*
X199345Y436262D01*
X199385Y436156D01*
X199422Y436049D01*
X199455Y435941D01*
X199485Y435831D01*
X199510Y435721D01*
X199532Y435610D01*
X199549Y435498D01*
X199563Y435385D01*
X199573Y435272D01*
X199579Y435159D01*
X199581Y435046D01*
X199581Y429854D01*
X199582Y429854D02*
X199580Y429741D01*
X199574Y429628D01*
X199564Y429515D01*
X199550Y429402D01*
X199533Y429290D01*
X199511Y429179D01*
X199486Y429069D01*
X199456Y428959D01*
X199423Y428851D01*
X199386Y428744D01*
X199346Y428638D01*
X199301Y428534D01*
X199253Y428431D01*
X199202Y428330D01*
X199147Y428231D01*
X199089Y428134D01*
X199027Y428039D01*
X198962Y427946D01*
X198894Y427856D01*
X198823Y427768D01*
X198748Y427682D01*
X198671Y427599D01*
X198591Y427519D01*
X198508Y427442D01*
X198422Y427367D01*
X198334Y427296D01*
X198244Y427228D01*
X198151Y427163D01*
X198056Y427101D01*
X197959Y427043D01*
X197860Y426988D01*
X197759Y426937D01*
X197656Y426889D01*
X197552Y426844D01*
X197446Y426804D01*
X197339Y426767D01*
X197231Y426734D01*
X197121Y426704D01*
X197011Y426679D01*
X196900Y426657D01*
X196788Y426640D01*
X196675Y426626D01*
X196562Y426616D01*
X196449Y426610D01*
X196336Y426608D01*
X196335Y426608D02*
X193090Y426608D01*
X204901Y429204D02*
X207497Y438292D01*
X204901Y429204D02*
X211392Y429204D01*
X209445Y431801D02*
X209445Y426608D01*
D14*
X255400Y359500D03*
X255400Y371500D03*
D15*
X255400Y365500D03*
D10*
X231001Y375408D02*
X231001Y387092D01*
X231001Y375408D02*
X236193Y375408D01*
X240907Y375408D02*
X246099Y375408D01*
X240907Y375408D02*
X240907Y387092D01*
X246099Y387092D01*
X244801Y381899D02*
X240907Y381899D01*
X250790Y387092D02*
X250790Y375408D01*
X250790Y387092D02*
X254035Y387092D01*
X254148Y387090D01*
X254261Y387084D01*
X254374Y387074D01*
X254487Y387060D01*
X254599Y387043D01*
X254710Y387021D01*
X254820Y386996D01*
X254930Y386966D01*
X255038Y386933D01*
X255145Y386896D01*
X255251Y386856D01*
X255355Y386811D01*
X255458Y386763D01*
X255559Y386712D01*
X255658Y386657D01*
X255755Y386599D01*
X255850Y386537D01*
X255943Y386472D01*
X256033Y386404D01*
X256121Y386333D01*
X256207Y386258D01*
X256290Y386181D01*
X256370Y386101D01*
X256447Y386018D01*
X256522Y385932D01*
X256593Y385844D01*
X256661Y385754D01*
X256726Y385661D01*
X256788Y385566D01*
X256846Y385469D01*
X256901Y385370D01*
X256952Y385269D01*
X257000Y385166D01*
X257045Y385062D01*
X257085Y384956D01*
X257122Y384849D01*
X257155Y384741D01*
X257185Y384631D01*
X257210Y384521D01*
X257232Y384410D01*
X257249Y384298D01*
X257263Y384185D01*
X257273Y384072D01*
X257279Y383959D01*
X257281Y383846D01*
X257281Y378654D01*
X257282Y378654D02*
X257280Y378541D01*
X257274Y378428D01*
X257264Y378315D01*
X257250Y378202D01*
X257233Y378090D01*
X257211Y377979D01*
X257186Y377869D01*
X257156Y377759D01*
X257123Y377651D01*
X257086Y377544D01*
X257046Y377438D01*
X257001Y377334D01*
X256953Y377231D01*
X256902Y377130D01*
X256847Y377031D01*
X256789Y376934D01*
X256727Y376839D01*
X256662Y376746D01*
X256594Y376656D01*
X256523Y376568D01*
X256448Y376482D01*
X256371Y376399D01*
X256291Y376319D01*
X256208Y376242D01*
X256122Y376167D01*
X256034Y376096D01*
X255944Y376028D01*
X255851Y375963D01*
X255756Y375901D01*
X255659Y375843D01*
X255560Y375788D01*
X255459Y375737D01*
X255356Y375689D01*
X255252Y375644D01*
X255146Y375604D01*
X255039Y375567D01*
X254931Y375534D01*
X254821Y375504D01*
X254711Y375479D01*
X254600Y375457D01*
X254488Y375440D01*
X254375Y375426D01*
X254262Y375416D01*
X254149Y375410D01*
X254036Y375408D01*
X254035Y375408D02*
X250790Y375408D01*
X262601Y375408D02*
X266496Y375408D01*
X266595Y375410D01*
X266695Y375416D01*
X266794Y375425D01*
X266892Y375438D01*
X266990Y375455D01*
X267088Y375476D01*
X267184Y375501D01*
X267279Y375529D01*
X267373Y375561D01*
X267466Y375596D01*
X267558Y375635D01*
X267648Y375678D01*
X267736Y375723D01*
X267823Y375773D01*
X267907Y375825D01*
X267990Y375881D01*
X268070Y375939D01*
X268148Y376001D01*
X268223Y376066D01*
X268296Y376134D01*
X268366Y376204D01*
X268434Y376277D01*
X268499Y376352D01*
X268561Y376430D01*
X268619Y376510D01*
X268675Y376593D01*
X268727Y376677D01*
X268777Y376764D01*
X268822Y376852D01*
X268865Y376942D01*
X268904Y377034D01*
X268939Y377127D01*
X268971Y377221D01*
X268999Y377316D01*
X269024Y377412D01*
X269045Y377510D01*
X269062Y377608D01*
X269075Y377706D01*
X269084Y377805D01*
X269090Y377905D01*
X269092Y378004D01*
X269092Y379303D01*
X269090Y379402D01*
X269084Y379502D01*
X269075Y379601D01*
X269062Y379699D01*
X269045Y379797D01*
X269024Y379895D01*
X268999Y379991D01*
X268971Y380086D01*
X268939Y380180D01*
X268904Y380273D01*
X268865Y380365D01*
X268822Y380455D01*
X268777Y380543D01*
X268727Y380630D01*
X268675Y380714D01*
X268619Y380797D01*
X268561Y380877D01*
X268499Y380955D01*
X268434Y381030D01*
X268366Y381103D01*
X268296Y381173D01*
X268223Y381241D01*
X268148Y381306D01*
X268070Y381368D01*
X267990Y381426D01*
X267907Y381482D01*
X267823Y381534D01*
X267736Y381584D01*
X267648Y381629D01*
X267558Y381672D01*
X267466Y381711D01*
X267373Y381746D01*
X267279Y381778D01*
X267184Y381806D01*
X267088Y381831D01*
X266990Y381852D01*
X266892Y381869D01*
X266794Y381882D01*
X266695Y381891D01*
X266595Y381897D01*
X266496Y381899D01*
X262601Y381899D01*
X262601Y387092D01*
X269092Y387092D01*
X72292Y401258D02*
X60608Y401258D01*
X60608Y404504D01*
X60610Y404617D01*
X60616Y404730D01*
X60626Y404843D01*
X60640Y404956D01*
X60657Y405068D01*
X60679Y405179D01*
X60704Y405289D01*
X60734Y405399D01*
X60767Y405507D01*
X60804Y405614D01*
X60844Y405720D01*
X60889Y405824D01*
X60937Y405927D01*
X60988Y406028D01*
X61043Y406127D01*
X61101Y406224D01*
X61163Y406319D01*
X61228Y406412D01*
X61296Y406502D01*
X61367Y406590D01*
X61442Y406676D01*
X61519Y406759D01*
X61599Y406839D01*
X61682Y406916D01*
X61768Y406991D01*
X61856Y407062D01*
X61946Y407130D01*
X62039Y407195D01*
X62134Y407257D01*
X62231Y407315D01*
X62330Y407370D01*
X62431Y407421D01*
X62534Y407469D01*
X62638Y407514D01*
X62744Y407554D01*
X62851Y407591D01*
X62959Y407624D01*
X63069Y407654D01*
X63179Y407679D01*
X63290Y407701D01*
X63402Y407718D01*
X63515Y407732D01*
X63628Y407742D01*
X63741Y407748D01*
X63854Y407750D01*
X63967Y407748D01*
X64080Y407742D01*
X64193Y407732D01*
X64306Y407718D01*
X64418Y407701D01*
X64529Y407679D01*
X64639Y407654D01*
X64749Y407624D01*
X64857Y407591D01*
X64964Y407554D01*
X65070Y407514D01*
X65174Y407469D01*
X65277Y407421D01*
X65378Y407370D01*
X65477Y407315D01*
X65574Y407257D01*
X65669Y407195D01*
X65762Y407130D01*
X65852Y407062D01*
X65940Y406991D01*
X66026Y406916D01*
X66109Y406839D01*
X66189Y406759D01*
X66266Y406676D01*
X66341Y406590D01*
X66412Y406502D01*
X66480Y406412D01*
X66545Y406319D01*
X66607Y406224D01*
X66665Y406127D01*
X66720Y406028D01*
X66771Y405927D01*
X66819Y405824D01*
X66864Y405720D01*
X66904Y405614D01*
X66941Y405507D01*
X66974Y405399D01*
X67004Y405289D01*
X67029Y405179D01*
X67051Y405068D01*
X67068Y404956D01*
X67082Y404843D01*
X67092Y404730D01*
X67098Y404617D01*
X67100Y404504D01*
X67099Y404504D02*
X67099Y401258D01*
X67099Y405153D02*
X72292Y407749D01*
X63204Y412614D02*
X60608Y415860D01*
X72292Y415860D01*
X72292Y419105D02*
X72292Y412614D01*
X72008Y311495D02*
X83692Y311495D01*
X72008Y311495D02*
X72008Y314740D01*
X72010Y314853D01*
X72016Y314966D01*
X72026Y315079D01*
X72040Y315192D01*
X72057Y315304D01*
X72079Y315415D01*
X72104Y315525D01*
X72134Y315635D01*
X72167Y315743D01*
X72204Y315850D01*
X72244Y315956D01*
X72289Y316060D01*
X72337Y316163D01*
X72388Y316264D01*
X72443Y316363D01*
X72501Y316460D01*
X72563Y316555D01*
X72628Y316648D01*
X72696Y316738D01*
X72767Y316826D01*
X72842Y316912D01*
X72919Y316995D01*
X72999Y317075D01*
X73082Y317152D01*
X73168Y317227D01*
X73256Y317298D01*
X73346Y317366D01*
X73439Y317431D01*
X73534Y317493D01*
X73631Y317551D01*
X73730Y317606D01*
X73831Y317657D01*
X73934Y317705D01*
X74038Y317750D01*
X74144Y317790D01*
X74251Y317827D01*
X74359Y317860D01*
X74469Y317890D01*
X74579Y317915D01*
X74690Y317937D01*
X74802Y317954D01*
X74915Y317968D01*
X75028Y317978D01*
X75141Y317984D01*
X75254Y317986D01*
X75367Y317984D01*
X75480Y317978D01*
X75593Y317968D01*
X75706Y317954D01*
X75818Y317937D01*
X75929Y317915D01*
X76039Y317890D01*
X76149Y317860D01*
X76257Y317827D01*
X76364Y317790D01*
X76470Y317750D01*
X76574Y317705D01*
X76677Y317657D01*
X76778Y317606D01*
X76877Y317551D01*
X76974Y317493D01*
X77069Y317431D01*
X77162Y317366D01*
X77252Y317298D01*
X77340Y317227D01*
X77426Y317152D01*
X77509Y317075D01*
X77589Y316995D01*
X77666Y316912D01*
X77741Y316826D01*
X77812Y316738D01*
X77880Y316648D01*
X77945Y316555D01*
X78007Y316460D01*
X78065Y316363D01*
X78120Y316264D01*
X78171Y316163D01*
X78219Y316060D01*
X78264Y315956D01*
X78304Y315850D01*
X78341Y315743D01*
X78374Y315635D01*
X78404Y315525D01*
X78429Y315415D01*
X78451Y315304D01*
X78468Y315192D01*
X78482Y315079D01*
X78492Y314966D01*
X78498Y314853D01*
X78500Y314740D01*
X78499Y314740D02*
X78499Y311495D01*
X78499Y315389D02*
X83692Y317986D01*
X74929Y329342D02*
X74822Y329340D01*
X74716Y329334D01*
X74610Y329324D01*
X74504Y329311D01*
X74398Y329293D01*
X74294Y329272D01*
X74190Y329247D01*
X74087Y329218D01*
X73986Y329186D01*
X73886Y329149D01*
X73787Y329109D01*
X73689Y329066D01*
X73593Y329019D01*
X73499Y328968D01*
X73407Y328914D01*
X73317Y328857D01*
X73229Y328797D01*
X73144Y328733D01*
X73061Y328666D01*
X72980Y328596D01*
X72902Y328524D01*
X72826Y328448D01*
X72754Y328370D01*
X72684Y328289D01*
X72617Y328206D01*
X72553Y328121D01*
X72493Y328033D01*
X72436Y327943D01*
X72382Y327851D01*
X72331Y327757D01*
X72284Y327661D01*
X72241Y327563D01*
X72201Y327464D01*
X72164Y327364D01*
X72132Y327263D01*
X72103Y327160D01*
X72078Y327056D01*
X72057Y326952D01*
X72039Y326846D01*
X72026Y326740D01*
X72016Y326634D01*
X72010Y326528D01*
X72008Y326421D01*
X72010Y326300D01*
X72016Y326179D01*
X72026Y326059D01*
X72039Y325938D01*
X72057Y325819D01*
X72078Y325699D01*
X72103Y325581D01*
X72132Y325464D01*
X72165Y325347D01*
X72201Y325232D01*
X72242Y325118D01*
X72285Y325005D01*
X72333Y324893D01*
X72384Y324784D01*
X72439Y324676D01*
X72497Y324569D01*
X72558Y324465D01*
X72623Y324363D01*
X72691Y324263D01*
X72762Y324165D01*
X72836Y324069D01*
X72913Y323976D01*
X72994Y323886D01*
X73077Y323798D01*
X73163Y323713D01*
X73252Y323630D01*
X73343Y323551D01*
X73437Y323474D01*
X73533Y323401D01*
X73631Y323331D01*
X73732Y323264D01*
X73835Y323200D01*
X73940Y323140D01*
X74047Y323082D01*
X74155Y323029D01*
X74265Y322979D01*
X74377Y322933D01*
X74490Y322890D01*
X74605Y322851D01*
X77201Y328368D02*
X77123Y328447D01*
X77043Y328523D01*
X76960Y328596D01*
X76874Y328666D01*
X76787Y328733D01*
X76696Y328797D01*
X76604Y328857D01*
X76510Y328915D01*
X76413Y328969D01*
X76315Y329019D01*
X76215Y329066D01*
X76114Y329110D01*
X76011Y329150D01*
X75906Y329186D01*
X75801Y329218D01*
X75694Y329247D01*
X75587Y329272D01*
X75478Y329294D01*
X75369Y329311D01*
X75260Y329325D01*
X75150Y329334D01*
X75039Y329340D01*
X74929Y329342D01*
X77201Y328368D02*
X83692Y322851D01*
X83692Y329342D01*
X31192Y401058D02*
X19508Y401058D01*
X19508Y404304D01*
X19510Y404417D01*
X19516Y404530D01*
X19526Y404643D01*
X19540Y404756D01*
X19557Y404868D01*
X19579Y404979D01*
X19604Y405089D01*
X19634Y405199D01*
X19667Y405307D01*
X19704Y405414D01*
X19744Y405520D01*
X19789Y405624D01*
X19837Y405727D01*
X19888Y405828D01*
X19943Y405927D01*
X20001Y406024D01*
X20063Y406119D01*
X20128Y406212D01*
X20196Y406302D01*
X20267Y406390D01*
X20342Y406476D01*
X20419Y406559D01*
X20499Y406639D01*
X20582Y406716D01*
X20668Y406791D01*
X20756Y406862D01*
X20846Y406930D01*
X20939Y406995D01*
X21034Y407057D01*
X21131Y407115D01*
X21230Y407170D01*
X21331Y407221D01*
X21434Y407269D01*
X21538Y407314D01*
X21644Y407354D01*
X21751Y407391D01*
X21859Y407424D01*
X21969Y407454D01*
X22079Y407479D01*
X22190Y407501D01*
X22302Y407518D01*
X22415Y407532D01*
X22528Y407542D01*
X22641Y407548D01*
X22754Y407550D01*
X22867Y407548D01*
X22980Y407542D01*
X23093Y407532D01*
X23206Y407518D01*
X23318Y407501D01*
X23429Y407479D01*
X23539Y407454D01*
X23649Y407424D01*
X23757Y407391D01*
X23864Y407354D01*
X23970Y407314D01*
X24074Y407269D01*
X24177Y407221D01*
X24278Y407170D01*
X24377Y407115D01*
X24474Y407057D01*
X24569Y406995D01*
X24662Y406930D01*
X24752Y406862D01*
X24840Y406791D01*
X24926Y406716D01*
X25009Y406639D01*
X25089Y406559D01*
X25166Y406476D01*
X25241Y406390D01*
X25312Y406302D01*
X25380Y406212D01*
X25445Y406119D01*
X25507Y406024D01*
X25565Y405927D01*
X25620Y405828D01*
X25671Y405727D01*
X25719Y405624D01*
X25764Y405520D01*
X25804Y405414D01*
X25841Y405307D01*
X25874Y405199D01*
X25904Y405089D01*
X25929Y404979D01*
X25951Y404868D01*
X25968Y404756D01*
X25982Y404643D01*
X25992Y404530D01*
X25998Y404417D01*
X26000Y404304D01*
X25999Y404304D02*
X25999Y401058D01*
X25999Y404953D02*
X31192Y407549D01*
X31192Y412414D02*
X31192Y415660D01*
X31190Y415773D01*
X31184Y415886D01*
X31174Y415999D01*
X31160Y416112D01*
X31143Y416224D01*
X31121Y416335D01*
X31096Y416445D01*
X31066Y416555D01*
X31033Y416663D01*
X30996Y416770D01*
X30956Y416876D01*
X30911Y416980D01*
X30863Y417083D01*
X30812Y417184D01*
X30757Y417283D01*
X30699Y417380D01*
X30637Y417475D01*
X30572Y417568D01*
X30504Y417658D01*
X30433Y417746D01*
X30358Y417832D01*
X30281Y417915D01*
X30201Y417995D01*
X30118Y418072D01*
X30032Y418147D01*
X29944Y418218D01*
X29854Y418286D01*
X29761Y418351D01*
X29666Y418413D01*
X29569Y418471D01*
X29470Y418526D01*
X29369Y418577D01*
X29266Y418625D01*
X29162Y418670D01*
X29056Y418710D01*
X28949Y418747D01*
X28841Y418780D01*
X28731Y418810D01*
X28621Y418835D01*
X28510Y418857D01*
X28398Y418874D01*
X28285Y418888D01*
X28172Y418898D01*
X28059Y418904D01*
X27946Y418906D01*
X27833Y418904D01*
X27720Y418898D01*
X27607Y418888D01*
X27494Y418874D01*
X27382Y418857D01*
X27271Y418835D01*
X27161Y418810D01*
X27051Y418780D01*
X26943Y418747D01*
X26836Y418710D01*
X26730Y418670D01*
X26626Y418625D01*
X26523Y418577D01*
X26422Y418526D01*
X26323Y418471D01*
X26226Y418413D01*
X26131Y418351D01*
X26038Y418286D01*
X25948Y418218D01*
X25860Y418147D01*
X25774Y418072D01*
X25691Y417995D01*
X25611Y417915D01*
X25534Y417832D01*
X25459Y417746D01*
X25388Y417658D01*
X25320Y417568D01*
X25255Y417475D01*
X25193Y417380D01*
X25135Y417283D01*
X25080Y417184D01*
X25029Y417083D01*
X24981Y416980D01*
X24936Y416876D01*
X24896Y416770D01*
X24859Y416663D01*
X24826Y416555D01*
X24796Y416445D01*
X24771Y416335D01*
X24749Y416224D01*
X24732Y416112D01*
X24718Y415999D01*
X24708Y415886D01*
X24702Y415773D01*
X24700Y415660D01*
X19508Y416309D02*
X19508Y412414D01*
X19508Y416309D02*
X19510Y416410D01*
X19516Y416510D01*
X19526Y416610D01*
X19539Y416710D01*
X19557Y416809D01*
X19578Y416908D01*
X19603Y417005D01*
X19632Y417102D01*
X19665Y417197D01*
X19701Y417291D01*
X19741Y417383D01*
X19784Y417474D01*
X19831Y417563D01*
X19881Y417650D01*
X19935Y417736D01*
X19992Y417819D01*
X20052Y417899D01*
X20115Y417978D01*
X20182Y418054D01*
X20251Y418127D01*
X20323Y418197D01*
X20397Y418265D01*
X20474Y418330D01*
X20554Y418391D01*
X20636Y418450D01*
X20720Y418505D01*
X20806Y418557D01*
X20894Y418606D01*
X20984Y418651D01*
X21076Y418693D01*
X21169Y418731D01*
X21264Y418765D01*
X21359Y418796D01*
X21456Y418823D01*
X21554Y418846D01*
X21653Y418866D01*
X21753Y418881D01*
X21853Y418893D01*
X21953Y418901D01*
X22054Y418905D01*
X22154Y418905D01*
X22255Y418901D01*
X22355Y418893D01*
X22455Y418881D01*
X22555Y418866D01*
X22654Y418846D01*
X22752Y418823D01*
X22849Y418796D01*
X22944Y418765D01*
X23039Y418731D01*
X23132Y418693D01*
X23224Y418651D01*
X23314Y418606D01*
X23402Y418557D01*
X23488Y418505D01*
X23572Y418450D01*
X23654Y418391D01*
X23734Y418330D01*
X23811Y418265D01*
X23885Y418197D01*
X23957Y418127D01*
X24026Y418054D01*
X24093Y417978D01*
X24156Y417899D01*
X24216Y417819D01*
X24273Y417736D01*
X24327Y417650D01*
X24377Y417563D01*
X24424Y417474D01*
X24467Y417383D01*
X24507Y417291D01*
X24543Y417197D01*
X24576Y417102D01*
X24605Y417005D01*
X24630Y416908D01*
X24651Y416809D01*
X24669Y416710D01*
X24682Y416610D01*
X24692Y416510D01*
X24698Y416410D01*
X24700Y416309D01*
X24701Y416309D02*
X24701Y413713D01*
X28208Y311095D02*
X39892Y311095D01*
X28208Y311095D02*
X28208Y314340D01*
X28210Y314453D01*
X28216Y314566D01*
X28226Y314679D01*
X28240Y314792D01*
X28257Y314904D01*
X28279Y315015D01*
X28304Y315125D01*
X28334Y315235D01*
X28367Y315343D01*
X28404Y315450D01*
X28444Y315556D01*
X28489Y315660D01*
X28537Y315763D01*
X28588Y315864D01*
X28643Y315963D01*
X28701Y316060D01*
X28763Y316155D01*
X28828Y316248D01*
X28896Y316338D01*
X28967Y316426D01*
X29042Y316512D01*
X29119Y316595D01*
X29199Y316675D01*
X29282Y316752D01*
X29368Y316827D01*
X29456Y316898D01*
X29546Y316966D01*
X29639Y317031D01*
X29734Y317093D01*
X29831Y317151D01*
X29930Y317206D01*
X30031Y317257D01*
X30134Y317305D01*
X30238Y317350D01*
X30344Y317390D01*
X30451Y317427D01*
X30559Y317460D01*
X30669Y317490D01*
X30779Y317515D01*
X30890Y317537D01*
X31002Y317554D01*
X31115Y317568D01*
X31228Y317578D01*
X31341Y317584D01*
X31454Y317586D01*
X31567Y317584D01*
X31680Y317578D01*
X31793Y317568D01*
X31906Y317554D01*
X32018Y317537D01*
X32129Y317515D01*
X32239Y317490D01*
X32349Y317460D01*
X32457Y317427D01*
X32564Y317390D01*
X32670Y317350D01*
X32774Y317305D01*
X32877Y317257D01*
X32978Y317206D01*
X33077Y317151D01*
X33174Y317093D01*
X33269Y317031D01*
X33362Y316966D01*
X33452Y316898D01*
X33540Y316827D01*
X33626Y316752D01*
X33709Y316675D01*
X33789Y316595D01*
X33866Y316512D01*
X33941Y316426D01*
X34012Y316338D01*
X34080Y316248D01*
X34145Y316155D01*
X34207Y316060D01*
X34265Y315963D01*
X34320Y315864D01*
X34371Y315763D01*
X34419Y315660D01*
X34464Y315556D01*
X34504Y315450D01*
X34541Y315343D01*
X34574Y315235D01*
X34604Y315125D01*
X34629Y315015D01*
X34651Y314904D01*
X34668Y314792D01*
X34682Y314679D01*
X34692Y314566D01*
X34698Y314453D01*
X34700Y314340D01*
X34699Y314340D02*
X34699Y311095D01*
X34699Y314989D02*
X39892Y317586D01*
X37296Y322451D02*
X28208Y325047D01*
X37296Y322451D02*
X37296Y328942D01*
X34699Y326995D02*
X39892Y326995D01*
D16*
X399868Y345390D02*
X428824Y345390D01*
X399868Y345390D02*
X399868Y353010D01*
X428824Y353010D01*
X428824Y345390D01*
D12*
X398192Y357515D02*
X398192Y368945D01*
X395017Y368945D02*
X401367Y368945D01*
X405685Y366405D02*
X408860Y368945D01*
X408860Y357515D01*
X405685Y357515D02*
X412035Y357515D01*
D16*
X446068Y387090D02*
X475024Y387090D01*
X446068Y387090D02*
X446068Y394710D01*
X475024Y394710D01*
X475024Y387090D01*
D12*
X443492Y398915D02*
X443492Y410345D01*
X440317Y410345D02*
X446667Y410345D01*
X454478Y410346D02*
X454582Y410344D01*
X454687Y410338D01*
X454791Y410329D01*
X454894Y410316D01*
X454997Y410298D01*
X455099Y410278D01*
X455201Y410253D01*
X455301Y410225D01*
X455401Y410193D01*
X455499Y410157D01*
X455596Y410118D01*
X455691Y410076D01*
X455785Y410030D01*
X455877Y409980D01*
X455967Y409928D01*
X456055Y409872D01*
X456141Y409812D01*
X456225Y409750D01*
X456306Y409685D01*
X456385Y409617D01*
X456462Y409545D01*
X456535Y409472D01*
X456607Y409395D01*
X456675Y409316D01*
X456740Y409235D01*
X456802Y409151D01*
X456862Y409065D01*
X456918Y408977D01*
X456970Y408887D01*
X457020Y408795D01*
X457066Y408701D01*
X457108Y408606D01*
X457147Y408509D01*
X457183Y408411D01*
X457215Y408311D01*
X457243Y408211D01*
X457268Y408109D01*
X457288Y408007D01*
X457306Y407904D01*
X457319Y407801D01*
X457328Y407697D01*
X457334Y407592D01*
X457336Y407488D01*
X454478Y410345D02*
X454360Y410343D01*
X454241Y410337D01*
X454123Y410328D01*
X454006Y410315D01*
X453889Y410297D01*
X453772Y410277D01*
X453656Y410252D01*
X453541Y410224D01*
X453428Y410191D01*
X453315Y410156D01*
X453203Y410116D01*
X453093Y410074D01*
X452984Y410027D01*
X452876Y409977D01*
X452771Y409924D01*
X452667Y409867D01*
X452565Y409807D01*
X452465Y409744D01*
X452367Y409677D01*
X452271Y409608D01*
X452178Y409535D01*
X452087Y409459D01*
X451998Y409381D01*
X451912Y409299D01*
X451829Y409215D01*
X451748Y409129D01*
X451671Y409039D01*
X451596Y408948D01*
X451524Y408854D01*
X451455Y408757D01*
X451390Y408659D01*
X451327Y408558D01*
X451268Y408455D01*
X451212Y408351D01*
X451160Y408245D01*
X451111Y408137D01*
X451066Y408028D01*
X451024Y407917D01*
X450986Y407805D01*
X456383Y405266D02*
X456459Y405341D01*
X456534Y405420D01*
X456605Y405501D01*
X456674Y405585D01*
X456739Y405671D01*
X456801Y405759D01*
X456861Y405849D01*
X456917Y405941D01*
X456970Y406036D01*
X457019Y406132D01*
X457065Y406230D01*
X457108Y406329D01*
X457147Y406430D01*
X457182Y406532D01*
X457214Y406635D01*
X457242Y406739D01*
X457267Y406844D01*
X457288Y406951D01*
X457305Y407057D01*
X457318Y407164D01*
X457327Y407272D01*
X457333Y407380D01*
X457335Y407488D01*
X456383Y405265D02*
X450985Y398915D01*
X457335Y398915D01*
D16*
X446068Y345390D02*
X475024Y345390D01*
X446068Y345390D02*
X446068Y353010D01*
X475024Y353010D01*
X475024Y345390D01*
D12*
X443192Y356615D02*
X443192Y368045D01*
X440017Y368045D02*
X446367Y368045D01*
X450685Y356615D02*
X453860Y356615D01*
X453971Y356617D01*
X454081Y356623D01*
X454192Y356632D01*
X454302Y356646D01*
X454411Y356663D01*
X454520Y356684D01*
X454628Y356709D01*
X454735Y356738D01*
X454841Y356770D01*
X454946Y356806D01*
X455049Y356846D01*
X455151Y356889D01*
X455252Y356936D01*
X455351Y356987D01*
X455448Y357040D01*
X455542Y357097D01*
X455635Y357158D01*
X455726Y357221D01*
X455815Y357288D01*
X455901Y357358D01*
X455984Y357431D01*
X456066Y357506D01*
X456144Y357584D01*
X456219Y357666D01*
X456292Y357749D01*
X456362Y357835D01*
X456429Y357924D01*
X456492Y358015D01*
X456553Y358108D01*
X456610Y358202D01*
X456663Y358299D01*
X456714Y358398D01*
X456761Y358499D01*
X456804Y358601D01*
X456844Y358704D01*
X456880Y358809D01*
X456912Y358915D01*
X456941Y359022D01*
X456966Y359130D01*
X456987Y359239D01*
X457004Y359348D01*
X457018Y359458D01*
X457027Y359569D01*
X457033Y359679D01*
X457035Y359790D01*
X457033Y359901D01*
X457027Y360011D01*
X457018Y360122D01*
X457004Y360232D01*
X456987Y360341D01*
X456966Y360450D01*
X456941Y360558D01*
X456912Y360665D01*
X456880Y360771D01*
X456844Y360876D01*
X456804Y360979D01*
X456761Y361081D01*
X456714Y361182D01*
X456663Y361281D01*
X456610Y361377D01*
X456553Y361472D01*
X456492Y361565D01*
X456429Y361656D01*
X456362Y361745D01*
X456292Y361831D01*
X456219Y361914D01*
X456144Y361996D01*
X456066Y362074D01*
X455984Y362149D01*
X455901Y362222D01*
X455815Y362292D01*
X455726Y362359D01*
X455635Y362422D01*
X455542Y362483D01*
X455448Y362540D01*
X455351Y362593D01*
X455252Y362644D01*
X455151Y362691D01*
X455049Y362734D01*
X454946Y362774D01*
X454841Y362810D01*
X454735Y362842D01*
X454628Y362871D01*
X454520Y362896D01*
X454411Y362917D01*
X454302Y362934D01*
X454192Y362948D01*
X454081Y362957D01*
X453971Y362963D01*
X453860Y362965D01*
X454495Y368045D02*
X450685Y368045D01*
X454495Y368045D02*
X454595Y368043D01*
X454694Y368037D01*
X454794Y368027D01*
X454892Y368014D01*
X454991Y367996D01*
X455088Y367975D01*
X455184Y367950D01*
X455280Y367921D01*
X455374Y367888D01*
X455467Y367852D01*
X455558Y367812D01*
X455648Y367768D01*
X455736Y367721D01*
X455822Y367671D01*
X455906Y367617D01*
X455988Y367560D01*
X456067Y367500D01*
X456145Y367436D01*
X456219Y367370D01*
X456291Y367301D01*
X456360Y367229D01*
X456426Y367155D01*
X456490Y367077D01*
X456550Y366998D01*
X456607Y366916D01*
X456661Y366832D01*
X456711Y366746D01*
X456758Y366658D01*
X456802Y366568D01*
X456842Y366477D01*
X456878Y366384D01*
X456911Y366290D01*
X456940Y366194D01*
X456965Y366098D01*
X456986Y366001D01*
X457004Y365902D01*
X457017Y365804D01*
X457027Y365704D01*
X457033Y365605D01*
X457035Y365505D01*
X457033Y365405D01*
X457027Y365306D01*
X457017Y365206D01*
X457004Y365108D01*
X456986Y365009D01*
X456965Y364912D01*
X456940Y364816D01*
X456911Y364720D01*
X456878Y364626D01*
X456842Y364533D01*
X456802Y364442D01*
X456758Y364352D01*
X456711Y364264D01*
X456661Y364178D01*
X456607Y364094D01*
X456550Y364012D01*
X456490Y363933D01*
X456426Y363855D01*
X456360Y363781D01*
X456291Y363709D01*
X456219Y363640D01*
X456145Y363574D01*
X456067Y363510D01*
X455988Y363450D01*
X455906Y363393D01*
X455822Y363339D01*
X455736Y363289D01*
X455648Y363242D01*
X455558Y363198D01*
X455467Y363158D01*
X455374Y363122D01*
X455280Y363089D01*
X455184Y363060D01*
X455088Y363035D01*
X454991Y363014D01*
X454892Y362996D01*
X454794Y362983D01*
X454694Y362973D01*
X454595Y362967D01*
X454495Y362965D01*
X451955Y362965D01*
D16*
X428824Y387090D02*
X399868Y387090D01*
X399868Y394710D01*
X428824Y394710D01*
X428824Y387090D01*
D12*
X398192Y399615D02*
X398192Y411045D01*
X395017Y411045D02*
X401367Y411045D01*
X408225Y411045D02*
X405685Y402155D01*
X412035Y402155D01*
X410130Y404695D02*
X410130Y399615D01*
D16*
X102224Y362990D02*
X73268Y362990D01*
X73268Y370610D01*
X102224Y370610D01*
X102224Y362990D01*
D12*
X68892Y373315D02*
X68892Y384745D01*
X65717Y384745D02*
X72067Y384745D01*
X76385Y373315D02*
X80195Y373315D01*
X80295Y373317D01*
X80394Y373323D01*
X80494Y373333D01*
X80592Y373346D01*
X80691Y373364D01*
X80788Y373385D01*
X80884Y373410D01*
X80980Y373439D01*
X81074Y373472D01*
X81167Y373508D01*
X81258Y373548D01*
X81348Y373592D01*
X81436Y373639D01*
X81522Y373689D01*
X81606Y373743D01*
X81688Y373800D01*
X81767Y373860D01*
X81845Y373924D01*
X81919Y373990D01*
X81991Y374059D01*
X82060Y374131D01*
X82126Y374205D01*
X82190Y374283D01*
X82250Y374362D01*
X82307Y374444D01*
X82361Y374528D01*
X82411Y374614D01*
X82458Y374702D01*
X82502Y374792D01*
X82542Y374883D01*
X82578Y374976D01*
X82611Y375070D01*
X82640Y375166D01*
X82665Y375262D01*
X82686Y375359D01*
X82704Y375458D01*
X82717Y375556D01*
X82727Y375656D01*
X82733Y375755D01*
X82735Y375855D01*
X82735Y377125D01*
X82733Y377225D01*
X82727Y377324D01*
X82717Y377424D01*
X82704Y377522D01*
X82686Y377621D01*
X82665Y377718D01*
X82640Y377814D01*
X82611Y377910D01*
X82578Y378004D01*
X82542Y378097D01*
X82502Y378188D01*
X82458Y378278D01*
X82411Y378366D01*
X82361Y378452D01*
X82307Y378536D01*
X82250Y378618D01*
X82190Y378697D01*
X82126Y378775D01*
X82060Y378849D01*
X81991Y378921D01*
X81919Y378990D01*
X81845Y379056D01*
X81767Y379120D01*
X81688Y379180D01*
X81606Y379237D01*
X81522Y379291D01*
X81436Y379341D01*
X81348Y379388D01*
X81258Y379432D01*
X81167Y379472D01*
X81074Y379508D01*
X80980Y379541D01*
X80884Y379570D01*
X80788Y379595D01*
X80691Y379616D01*
X80592Y379634D01*
X80494Y379647D01*
X80394Y379657D01*
X80295Y379663D01*
X80195Y379665D01*
X76385Y379665D01*
X76385Y384745D01*
X82735Y384745D01*
D16*
X58724Y364590D02*
X29768Y364590D01*
X29768Y372210D01*
X58724Y372210D01*
X58724Y364590D01*
D12*
X25992Y374915D02*
X25992Y386345D01*
X22817Y386345D02*
X29167Y386345D01*
X33485Y381265D02*
X37295Y381265D01*
X37395Y381263D01*
X37494Y381257D01*
X37594Y381247D01*
X37692Y381234D01*
X37791Y381216D01*
X37888Y381195D01*
X37984Y381170D01*
X38080Y381141D01*
X38174Y381108D01*
X38267Y381072D01*
X38358Y381032D01*
X38448Y380988D01*
X38536Y380941D01*
X38622Y380891D01*
X38706Y380837D01*
X38788Y380780D01*
X38867Y380720D01*
X38945Y380656D01*
X39019Y380590D01*
X39091Y380521D01*
X39160Y380449D01*
X39226Y380375D01*
X39290Y380297D01*
X39350Y380218D01*
X39407Y380136D01*
X39461Y380052D01*
X39511Y379966D01*
X39558Y379878D01*
X39602Y379788D01*
X39642Y379697D01*
X39678Y379604D01*
X39711Y379510D01*
X39740Y379414D01*
X39765Y379318D01*
X39786Y379221D01*
X39804Y379122D01*
X39817Y379024D01*
X39827Y378924D01*
X39833Y378825D01*
X39835Y378725D01*
X39835Y378090D01*
X39833Y377979D01*
X39827Y377869D01*
X39818Y377758D01*
X39804Y377648D01*
X39787Y377539D01*
X39766Y377430D01*
X39741Y377322D01*
X39712Y377215D01*
X39680Y377109D01*
X39644Y377004D01*
X39604Y376901D01*
X39561Y376799D01*
X39514Y376698D01*
X39463Y376599D01*
X39410Y376502D01*
X39353Y376408D01*
X39292Y376315D01*
X39229Y376224D01*
X39162Y376135D01*
X39092Y376049D01*
X39019Y375966D01*
X38944Y375884D01*
X38866Y375806D01*
X38784Y375731D01*
X38701Y375658D01*
X38615Y375588D01*
X38526Y375521D01*
X38435Y375458D01*
X38342Y375397D01*
X38247Y375340D01*
X38151Y375287D01*
X38052Y375236D01*
X37951Y375189D01*
X37849Y375146D01*
X37746Y375106D01*
X37641Y375070D01*
X37535Y375038D01*
X37428Y375009D01*
X37320Y374984D01*
X37211Y374963D01*
X37102Y374946D01*
X36992Y374932D01*
X36881Y374923D01*
X36771Y374917D01*
X36660Y374915D01*
X36549Y374917D01*
X36439Y374923D01*
X36328Y374932D01*
X36218Y374946D01*
X36109Y374963D01*
X36000Y374984D01*
X35892Y375009D01*
X35785Y375038D01*
X35679Y375070D01*
X35574Y375106D01*
X35471Y375146D01*
X35369Y375189D01*
X35268Y375236D01*
X35169Y375287D01*
X35073Y375340D01*
X34978Y375397D01*
X34885Y375458D01*
X34794Y375521D01*
X34705Y375588D01*
X34619Y375658D01*
X34536Y375731D01*
X34454Y375806D01*
X34376Y375884D01*
X34301Y375966D01*
X34228Y376049D01*
X34158Y376135D01*
X34091Y376224D01*
X34028Y376315D01*
X33967Y376408D01*
X33910Y376503D01*
X33857Y376599D01*
X33806Y376698D01*
X33759Y376799D01*
X33716Y376901D01*
X33676Y377004D01*
X33640Y377109D01*
X33608Y377215D01*
X33579Y377322D01*
X33554Y377430D01*
X33533Y377539D01*
X33516Y377648D01*
X33502Y377758D01*
X33493Y377869D01*
X33487Y377979D01*
X33485Y378090D01*
X33485Y381265D01*
X33487Y381405D01*
X33493Y381545D01*
X33502Y381685D01*
X33516Y381824D01*
X33533Y381963D01*
X33554Y382101D01*
X33579Y382239D01*
X33608Y382376D01*
X33640Y382512D01*
X33677Y382647D01*
X33717Y382781D01*
X33760Y382914D01*
X33808Y383046D01*
X33858Y383177D01*
X33913Y383306D01*
X33971Y383433D01*
X34032Y383559D01*
X34097Y383683D01*
X34166Y383805D01*
X34237Y383925D01*
X34312Y384043D01*
X34390Y384160D01*
X34472Y384274D01*
X34556Y384385D01*
X34644Y384494D01*
X34734Y384601D01*
X34828Y384706D01*
X34924Y384807D01*
X35023Y384906D01*
X35124Y385002D01*
X35229Y385096D01*
X35336Y385186D01*
X35445Y385274D01*
X35556Y385358D01*
X35670Y385440D01*
X35787Y385518D01*
X35905Y385593D01*
X36025Y385664D01*
X36147Y385733D01*
X36271Y385798D01*
X36397Y385859D01*
X36524Y385917D01*
X36653Y385972D01*
X36784Y386022D01*
X36916Y386070D01*
X37049Y386113D01*
X37183Y386153D01*
X37318Y386190D01*
X37454Y386222D01*
X37591Y386251D01*
X37729Y386276D01*
X37867Y386297D01*
X38006Y386314D01*
X38145Y386328D01*
X38285Y386337D01*
X38425Y386343D01*
X38565Y386345D01*
X23640Y296300D02*
X297960Y296300D01*
X297960Y16900D01*
X237000Y16900D01*
X84600Y16900D01*
X23640Y16900D01*
X23640Y296300D01*
X110000Y289950D02*
X116350Y296300D01*
X129050Y296300D02*
X135400Y289950D01*
X141750Y296300D01*
X154450Y296300D02*
X160800Y289950D01*
X167150Y296300D01*
X179850Y296300D02*
X186200Y289950D01*
X192550Y296300D01*
X205250Y296300D02*
X211600Y289950D01*
X211600Y277250D02*
X205250Y270900D01*
X192550Y270900D01*
X186200Y277250D01*
X179850Y270900D01*
X167150Y270900D01*
X160800Y277250D01*
X154450Y270900D01*
X141750Y270900D01*
X135400Y277250D01*
X129050Y270900D01*
X116350Y270900D01*
X110000Y277250D01*
X110000Y289950D01*
X46500Y237880D02*
X275100Y237880D01*
X275100Y100720D01*
X46500Y100720D01*
X46500Y237880D01*
X211600Y277250D02*
X211600Y289950D01*
D13*
X115557Y261262D02*
X113991Y261262D01*
X115557Y261262D02*
X115557Y256041D01*
X112424Y256041D01*
X112335Y256043D01*
X112247Y256049D01*
X112159Y256058D01*
X112071Y256071D01*
X111984Y256088D01*
X111898Y256108D01*
X111813Y256133D01*
X111728Y256160D01*
X111645Y256192D01*
X111564Y256226D01*
X111484Y256265D01*
X111406Y256306D01*
X111329Y256351D01*
X111255Y256399D01*
X111182Y256450D01*
X111112Y256504D01*
X111045Y256562D01*
X110979Y256622D01*
X110917Y256684D01*
X110857Y256750D01*
X110799Y256817D01*
X110745Y256887D01*
X110694Y256960D01*
X110646Y257034D01*
X110601Y257111D01*
X110560Y257189D01*
X110521Y257269D01*
X110487Y257350D01*
X110455Y257433D01*
X110428Y257518D01*
X110403Y257603D01*
X110383Y257689D01*
X110366Y257776D01*
X110353Y257864D01*
X110344Y257952D01*
X110338Y258040D01*
X110336Y258129D01*
X110336Y263351D01*
X110338Y263442D01*
X110344Y263533D01*
X110354Y263624D01*
X110368Y263714D01*
X110385Y263803D01*
X110407Y263891D01*
X110433Y263979D01*
X110462Y264065D01*
X110495Y264150D01*
X110532Y264233D01*
X110572Y264315D01*
X110616Y264395D01*
X110663Y264473D01*
X110714Y264549D01*
X110767Y264622D01*
X110824Y264693D01*
X110885Y264762D01*
X110948Y264827D01*
X111013Y264890D01*
X111082Y264950D01*
X111153Y265008D01*
X111226Y265061D01*
X111302Y265112D01*
X111380Y265159D01*
X111460Y265203D01*
X111542Y265243D01*
X111625Y265280D01*
X111710Y265313D01*
X111796Y265342D01*
X111884Y265368D01*
X111972Y265390D01*
X112061Y265407D01*
X112151Y265421D01*
X112242Y265431D01*
X112333Y265437D01*
X112424Y265439D01*
X115557Y265439D01*
X120089Y265439D02*
X120089Y256041D01*
X125311Y256041D02*
X120089Y265439D01*
X125311Y265439D02*
X125311Y256041D01*
X129843Y256041D02*
X129843Y265439D01*
X132454Y265439D01*
X132554Y265437D01*
X132654Y265431D01*
X132753Y265422D01*
X132853Y265408D01*
X132951Y265391D01*
X133049Y265370D01*
X133146Y265346D01*
X133242Y265317D01*
X133337Y265285D01*
X133430Y265250D01*
X133522Y265211D01*
X133613Y265168D01*
X133701Y265122D01*
X133788Y265072D01*
X133873Y265020D01*
X133956Y264964D01*
X134037Y264905D01*
X134115Y264842D01*
X134191Y264777D01*
X134265Y264709D01*
X134335Y264639D01*
X134403Y264565D01*
X134468Y264489D01*
X134531Y264411D01*
X134590Y264330D01*
X134646Y264247D01*
X134698Y264162D01*
X134748Y264075D01*
X134794Y263987D01*
X134837Y263896D01*
X134876Y263804D01*
X134911Y263711D01*
X134943Y263616D01*
X134972Y263520D01*
X134996Y263423D01*
X135017Y263325D01*
X135034Y263227D01*
X135048Y263127D01*
X135057Y263028D01*
X135063Y262928D01*
X135065Y262828D01*
X135064Y262828D02*
X135064Y258652D01*
X135065Y258652D02*
X135063Y258552D01*
X135057Y258452D01*
X135048Y258353D01*
X135034Y258253D01*
X135017Y258155D01*
X134996Y258057D01*
X134972Y257960D01*
X134943Y257864D01*
X134911Y257769D01*
X134876Y257676D01*
X134837Y257584D01*
X134794Y257493D01*
X134748Y257405D01*
X134698Y257318D01*
X134646Y257233D01*
X134590Y257150D01*
X134531Y257069D01*
X134468Y256991D01*
X134403Y256915D01*
X134335Y256841D01*
X134265Y256771D01*
X134191Y256703D01*
X134115Y256638D01*
X134037Y256575D01*
X133956Y256516D01*
X133873Y256460D01*
X133788Y256408D01*
X133701Y256358D01*
X133613Y256312D01*
X133522Y256269D01*
X133430Y256230D01*
X133337Y256195D01*
X133242Y256163D01*
X133146Y256134D01*
X133049Y256110D01*
X132951Y256089D01*
X132853Y256072D01*
X132753Y256058D01*
X132654Y256049D01*
X132554Y256043D01*
X132454Y256041D01*
X129843Y256041D01*
X137381Y252739D02*
X140514Y243341D01*
X143647Y252739D01*
X149110Y243341D02*
X151199Y243341D01*
X149110Y243341D02*
X149021Y243343D01*
X148933Y243349D01*
X148845Y243358D01*
X148757Y243371D01*
X148670Y243388D01*
X148584Y243408D01*
X148499Y243433D01*
X148414Y243460D01*
X148331Y243492D01*
X148250Y243526D01*
X148170Y243565D01*
X148092Y243606D01*
X148015Y243651D01*
X147941Y243699D01*
X147868Y243750D01*
X147798Y243804D01*
X147731Y243862D01*
X147665Y243922D01*
X147603Y243984D01*
X147543Y244050D01*
X147485Y244117D01*
X147431Y244187D01*
X147380Y244260D01*
X147332Y244334D01*
X147287Y244411D01*
X147246Y244489D01*
X147207Y244569D01*
X147173Y244650D01*
X147141Y244733D01*
X147114Y244818D01*
X147089Y244903D01*
X147069Y244989D01*
X147052Y245076D01*
X147039Y245164D01*
X147030Y245252D01*
X147024Y245340D01*
X147022Y245429D01*
X147022Y250651D01*
X147024Y250742D01*
X147030Y250833D01*
X147040Y250924D01*
X147054Y251014D01*
X147071Y251103D01*
X147093Y251191D01*
X147119Y251279D01*
X147148Y251365D01*
X147181Y251450D01*
X147218Y251533D01*
X147258Y251615D01*
X147302Y251695D01*
X147349Y251773D01*
X147400Y251849D01*
X147453Y251922D01*
X147510Y251993D01*
X147571Y252062D01*
X147634Y252127D01*
X147699Y252190D01*
X147768Y252250D01*
X147839Y252308D01*
X147912Y252361D01*
X147988Y252412D01*
X148066Y252459D01*
X148146Y252503D01*
X148228Y252543D01*
X148311Y252580D01*
X148396Y252613D01*
X148482Y252642D01*
X148570Y252668D01*
X148658Y252690D01*
X148747Y252707D01*
X148837Y252721D01*
X148928Y252731D01*
X149019Y252737D01*
X149110Y252739D01*
X151199Y252739D01*
X156730Y243341D02*
X158819Y243341D01*
X156730Y243341D02*
X156641Y243343D01*
X156553Y243349D01*
X156465Y243358D01*
X156377Y243371D01*
X156290Y243388D01*
X156204Y243408D01*
X156119Y243433D01*
X156034Y243460D01*
X155951Y243492D01*
X155870Y243526D01*
X155790Y243565D01*
X155712Y243606D01*
X155635Y243651D01*
X155561Y243699D01*
X155488Y243750D01*
X155418Y243804D01*
X155351Y243862D01*
X155285Y243922D01*
X155223Y243984D01*
X155163Y244050D01*
X155105Y244117D01*
X155051Y244187D01*
X155000Y244260D01*
X154952Y244334D01*
X154907Y244411D01*
X154866Y244489D01*
X154827Y244569D01*
X154793Y244650D01*
X154761Y244733D01*
X154734Y244818D01*
X154709Y244903D01*
X154689Y244989D01*
X154672Y245076D01*
X154659Y245164D01*
X154650Y245252D01*
X154644Y245340D01*
X154642Y245429D01*
X154642Y250651D01*
X154644Y250742D01*
X154650Y250833D01*
X154660Y250924D01*
X154674Y251014D01*
X154691Y251103D01*
X154713Y251191D01*
X154739Y251279D01*
X154768Y251365D01*
X154801Y251450D01*
X154838Y251533D01*
X154878Y251615D01*
X154922Y251695D01*
X154969Y251773D01*
X155020Y251849D01*
X155073Y251922D01*
X155130Y251993D01*
X155191Y252062D01*
X155254Y252127D01*
X155319Y252190D01*
X155388Y252250D01*
X155459Y252308D01*
X155532Y252361D01*
X155608Y252412D01*
X155686Y252459D01*
X155766Y252503D01*
X155848Y252543D01*
X155931Y252580D01*
X156016Y252613D01*
X156102Y252642D01*
X156190Y252668D01*
X156278Y252690D01*
X156367Y252707D01*
X156457Y252721D01*
X156548Y252731D01*
X156639Y252737D01*
X156730Y252739D01*
X158819Y252739D01*
X166154Y256041D02*
X166243Y256043D01*
X166331Y256049D01*
X166419Y256058D01*
X166507Y256071D01*
X166594Y256088D01*
X166680Y256108D01*
X166765Y256133D01*
X166850Y256160D01*
X166933Y256192D01*
X167014Y256226D01*
X167094Y256265D01*
X167172Y256306D01*
X167249Y256351D01*
X167323Y256399D01*
X167396Y256450D01*
X167466Y256504D01*
X167533Y256562D01*
X167599Y256622D01*
X167661Y256684D01*
X167721Y256750D01*
X167779Y256817D01*
X167833Y256887D01*
X167884Y256960D01*
X167932Y257034D01*
X167977Y257111D01*
X168018Y257189D01*
X168057Y257269D01*
X168091Y257350D01*
X168123Y257433D01*
X168150Y257518D01*
X168175Y257603D01*
X168195Y257689D01*
X168212Y257776D01*
X168225Y257864D01*
X168234Y257952D01*
X168240Y258040D01*
X168242Y258129D01*
X166154Y256041D02*
X166025Y256043D01*
X165896Y256049D01*
X165767Y256058D01*
X165639Y256071D01*
X165511Y256088D01*
X165384Y256109D01*
X165257Y256133D01*
X165131Y256161D01*
X165006Y256193D01*
X164882Y256228D01*
X164759Y256267D01*
X164637Y256310D01*
X164517Y256356D01*
X164398Y256406D01*
X164280Y256459D01*
X164164Y256515D01*
X164050Y256575D01*
X163937Y256638D01*
X163827Y256705D01*
X163718Y256774D01*
X163612Y256847D01*
X163507Y256923D01*
X163405Y257002D01*
X163306Y257084D01*
X163208Y257168D01*
X163113Y257256D01*
X163021Y257346D01*
X163282Y263351D02*
X163284Y263440D01*
X163290Y263528D01*
X163299Y263616D01*
X163312Y263704D01*
X163329Y263791D01*
X163349Y263877D01*
X163374Y263962D01*
X163401Y264047D01*
X163433Y264130D01*
X163467Y264211D01*
X163506Y264291D01*
X163547Y264369D01*
X163592Y264446D01*
X163640Y264520D01*
X163691Y264593D01*
X163745Y264663D01*
X163803Y264730D01*
X163863Y264796D01*
X163925Y264858D01*
X163991Y264918D01*
X164058Y264976D01*
X164128Y265030D01*
X164201Y265081D01*
X164275Y265129D01*
X164352Y265174D01*
X164430Y265215D01*
X164510Y265254D01*
X164591Y265288D01*
X164674Y265320D01*
X164759Y265347D01*
X164844Y265372D01*
X164930Y265392D01*
X165017Y265409D01*
X165105Y265422D01*
X165193Y265431D01*
X165281Y265437D01*
X165370Y265439D01*
X165490Y265437D01*
X165610Y265432D01*
X165730Y265422D01*
X165849Y265410D01*
X165968Y265393D01*
X166086Y265373D01*
X166204Y265349D01*
X166320Y265322D01*
X166436Y265291D01*
X166551Y265257D01*
X166665Y265219D01*
X166778Y265177D01*
X166889Y265132D01*
X166999Y265084D01*
X167107Y265033D01*
X167214Y264978D01*
X167319Y264920D01*
X167422Y264858D01*
X167523Y264794D01*
X167623Y264726D01*
X167720Y264656D01*
X164326Y261524D02*
X164248Y261572D01*
X164172Y261624D01*
X164099Y261678D01*
X164028Y261736D01*
X163959Y261797D01*
X163893Y261861D01*
X163830Y261928D01*
X163770Y261997D01*
X163713Y262069D01*
X163659Y262143D01*
X163609Y262220D01*
X163561Y262299D01*
X163518Y262379D01*
X163477Y262462D01*
X163441Y262546D01*
X163408Y262631D01*
X163379Y262718D01*
X163353Y262807D01*
X163331Y262896D01*
X163314Y262986D01*
X163300Y263076D01*
X163290Y263168D01*
X163284Y263259D01*
X163282Y263351D01*
X167198Y259956D02*
X167276Y259908D01*
X167352Y259856D01*
X167425Y259802D01*
X167496Y259744D01*
X167565Y259683D01*
X167631Y259619D01*
X167694Y259552D01*
X167754Y259483D01*
X167811Y259411D01*
X167865Y259337D01*
X167915Y259260D01*
X167963Y259181D01*
X168006Y259101D01*
X168047Y259018D01*
X168083Y258934D01*
X168116Y258849D01*
X168145Y258762D01*
X168171Y258673D01*
X168193Y258584D01*
X168210Y258494D01*
X168224Y258404D01*
X168234Y258312D01*
X168240Y258221D01*
X168242Y258129D01*
X167198Y259957D02*
X164326Y261523D01*
X173923Y256041D02*
X176011Y256041D01*
X173923Y256041D02*
X173834Y256043D01*
X173746Y256049D01*
X173658Y256058D01*
X173570Y256071D01*
X173483Y256088D01*
X173397Y256108D01*
X173312Y256133D01*
X173227Y256160D01*
X173144Y256192D01*
X173063Y256226D01*
X172983Y256265D01*
X172905Y256306D01*
X172828Y256351D01*
X172754Y256399D01*
X172681Y256450D01*
X172611Y256504D01*
X172544Y256562D01*
X172478Y256622D01*
X172416Y256684D01*
X172356Y256750D01*
X172298Y256817D01*
X172244Y256887D01*
X172193Y256960D01*
X172145Y257034D01*
X172100Y257111D01*
X172059Y257189D01*
X172020Y257269D01*
X171986Y257350D01*
X171954Y257433D01*
X171927Y257518D01*
X171902Y257603D01*
X171882Y257689D01*
X171865Y257776D01*
X171852Y257864D01*
X171843Y257952D01*
X171837Y258040D01*
X171835Y258129D01*
X171834Y258129D02*
X171834Y263351D01*
X171835Y263351D02*
X171837Y263442D01*
X171843Y263533D01*
X171853Y263624D01*
X171867Y263714D01*
X171884Y263803D01*
X171906Y263891D01*
X171932Y263979D01*
X171961Y264065D01*
X171994Y264150D01*
X172031Y264233D01*
X172071Y264315D01*
X172115Y264395D01*
X172162Y264473D01*
X172213Y264549D01*
X172266Y264622D01*
X172323Y264693D01*
X172384Y264762D01*
X172447Y264827D01*
X172512Y264890D01*
X172581Y264950D01*
X172652Y265008D01*
X172725Y265061D01*
X172801Y265112D01*
X172879Y265159D01*
X172959Y265203D01*
X173041Y265243D01*
X173124Y265280D01*
X173209Y265313D01*
X173295Y265342D01*
X173383Y265368D01*
X173471Y265390D01*
X173560Y265407D01*
X173650Y265421D01*
X173741Y265431D01*
X173832Y265437D01*
X173923Y265439D01*
X176011Y265439D01*
X179802Y265439D02*
X179802Y256041D01*
X183979Y256041D01*
X191953Y245429D02*
X191951Y245340D01*
X191945Y245252D01*
X191936Y245164D01*
X191923Y245076D01*
X191906Y244989D01*
X191886Y244903D01*
X191861Y244818D01*
X191834Y244733D01*
X191802Y244650D01*
X191768Y244569D01*
X191729Y244489D01*
X191688Y244411D01*
X191643Y244334D01*
X191595Y244260D01*
X191544Y244187D01*
X191490Y244117D01*
X191432Y244050D01*
X191372Y243984D01*
X191310Y243922D01*
X191244Y243862D01*
X191177Y243804D01*
X191107Y243750D01*
X191034Y243699D01*
X190960Y243651D01*
X190883Y243606D01*
X190805Y243565D01*
X190725Y243526D01*
X190644Y243492D01*
X190561Y243460D01*
X190476Y243433D01*
X190391Y243408D01*
X190305Y243388D01*
X190218Y243371D01*
X190130Y243358D01*
X190042Y243349D01*
X189954Y243343D01*
X189865Y243341D01*
X189736Y243343D01*
X189607Y243349D01*
X189478Y243358D01*
X189350Y243371D01*
X189222Y243388D01*
X189095Y243409D01*
X188968Y243433D01*
X188842Y243461D01*
X188717Y243493D01*
X188593Y243528D01*
X188470Y243567D01*
X188348Y243610D01*
X188228Y243656D01*
X188109Y243706D01*
X187991Y243759D01*
X187875Y243815D01*
X187761Y243875D01*
X187648Y243938D01*
X187538Y244005D01*
X187429Y244074D01*
X187323Y244147D01*
X187218Y244223D01*
X187116Y244302D01*
X187017Y244384D01*
X186919Y244468D01*
X186824Y244556D01*
X186732Y244646D01*
X186994Y250651D02*
X186996Y250740D01*
X187002Y250828D01*
X187011Y250916D01*
X187024Y251004D01*
X187041Y251091D01*
X187061Y251177D01*
X187086Y251262D01*
X187113Y251347D01*
X187145Y251430D01*
X187179Y251511D01*
X187218Y251591D01*
X187259Y251669D01*
X187304Y251746D01*
X187352Y251820D01*
X187403Y251893D01*
X187457Y251963D01*
X187515Y252030D01*
X187575Y252096D01*
X187637Y252158D01*
X187703Y252218D01*
X187770Y252276D01*
X187840Y252330D01*
X187913Y252381D01*
X187987Y252429D01*
X188064Y252474D01*
X188142Y252515D01*
X188222Y252554D01*
X188303Y252588D01*
X188386Y252620D01*
X188471Y252647D01*
X188556Y252672D01*
X188642Y252692D01*
X188729Y252709D01*
X188817Y252722D01*
X188905Y252731D01*
X188993Y252737D01*
X189082Y252739D01*
X189081Y252739D02*
X189201Y252737D01*
X189321Y252732D01*
X189441Y252722D01*
X189560Y252710D01*
X189679Y252693D01*
X189797Y252673D01*
X189915Y252649D01*
X190031Y252622D01*
X190147Y252591D01*
X190262Y252557D01*
X190376Y252519D01*
X190489Y252477D01*
X190600Y252432D01*
X190710Y252384D01*
X190818Y252333D01*
X190925Y252278D01*
X191030Y252220D01*
X191133Y252158D01*
X191234Y252094D01*
X191334Y252026D01*
X191431Y251956D01*
X188037Y248824D02*
X187959Y248872D01*
X187883Y248924D01*
X187810Y248978D01*
X187739Y249036D01*
X187670Y249097D01*
X187604Y249161D01*
X187541Y249228D01*
X187481Y249297D01*
X187424Y249369D01*
X187370Y249443D01*
X187320Y249520D01*
X187272Y249599D01*
X187229Y249679D01*
X187188Y249762D01*
X187152Y249846D01*
X187119Y249931D01*
X187090Y250018D01*
X187064Y250107D01*
X187042Y250196D01*
X187025Y250286D01*
X187011Y250376D01*
X187001Y250468D01*
X186995Y250559D01*
X186993Y250651D01*
X190909Y247256D02*
X190987Y247208D01*
X191063Y247156D01*
X191136Y247102D01*
X191207Y247044D01*
X191276Y246983D01*
X191342Y246919D01*
X191405Y246852D01*
X191465Y246783D01*
X191522Y246711D01*
X191576Y246637D01*
X191626Y246560D01*
X191674Y246481D01*
X191717Y246401D01*
X191758Y246318D01*
X191794Y246234D01*
X191827Y246149D01*
X191856Y246062D01*
X191882Y245973D01*
X191904Y245884D01*
X191921Y245794D01*
X191935Y245704D01*
X191945Y245612D01*
X191951Y245521D01*
X191953Y245429D01*
X190909Y247257D02*
X188037Y248823D01*
X195876Y252739D02*
X195876Y243341D01*
X195876Y252739D02*
X198487Y252739D01*
X198587Y252737D01*
X198687Y252731D01*
X198786Y252722D01*
X198886Y252708D01*
X198984Y252691D01*
X199082Y252670D01*
X199179Y252646D01*
X199275Y252617D01*
X199370Y252585D01*
X199463Y252550D01*
X199555Y252511D01*
X199646Y252468D01*
X199734Y252422D01*
X199821Y252372D01*
X199906Y252320D01*
X199989Y252264D01*
X200070Y252205D01*
X200148Y252142D01*
X200224Y252077D01*
X200298Y252009D01*
X200368Y251939D01*
X200436Y251865D01*
X200501Y251789D01*
X200564Y251711D01*
X200623Y251630D01*
X200679Y251547D01*
X200731Y251462D01*
X200781Y251375D01*
X200827Y251287D01*
X200870Y251196D01*
X200909Y251104D01*
X200944Y251011D01*
X200976Y250916D01*
X201005Y250820D01*
X201029Y250723D01*
X201050Y250625D01*
X201067Y250527D01*
X201081Y250427D01*
X201090Y250328D01*
X201096Y250228D01*
X201098Y250128D01*
X201097Y250128D02*
X201097Y245952D01*
X201098Y245952D02*
X201096Y245852D01*
X201090Y245752D01*
X201081Y245653D01*
X201067Y245553D01*
X201050Y245455D01*
X201029Y245357D01*
X201005Y245260D01*
X200976Y245164D01*
X200944Y245069D01*
X200909Y244976D01*
X200870Y244884D01*
X200827Y244793D01*
X200781Y244705D01*
X200731Y244618D01*
X200679Y244533D01*
X200623Y244450D01*
X200564Y244369D01*
X200501Y244291D01*
X200436Y244215D01*
X200368Y244141D01*
X200298Y244071D01*
X200224Y244003D01*
X200148Y243938D01*
X200070Y243875D01*
X199989Y243816D01*
X199906Y243760D01*
X199821Y243708D01*
X199734Y243658D01*
X199646Y243612D01*
X199555Y243569D01*
X199463Y243530D01*
X199370Y243495D01*
X199275Y243463D01*
X199179Y243434D01*
X199082Y243410D01*
X198984Y243389D01*
X198886Y243372D01*
X198786Y243358D01*
X198687Y243349D01*
X198587Y243343D01*
X198487Y243341D01*
X195876Y243341D01*
X204803Y243341D02*
X207935Y252739D01*
X211068Y243341D01*
X210285Y245691D02*
X205586Y245691D01*
D12*
X148100Y256930D02*
X148100Y267090D01*
X198900Y267090D02*
X198900Y256930D01*
X97300Y35950D02*
X84600Y16900D01*
X97300Y35950D02*
X224300Y35950D01*
X237000Y16900D01*
X484300Y363300D02*
X484300Y379300D01*
X515500Y379300D02*
X515500Y363300D01*
D11*
X508400Y396300D02*
X508402Y396363D01*
X508408Y396425D01*
X508418Y396487D01*
X508431Y396549D01*
X508449Y396609D01*
X508470Y396668D01*
X508495Y396726D01*
X508524Y396782D01*
X508556Y396836D01*
X508591Y396888D01*
X508629Y396937D01*
X508671Y396985D01*
X508715Y397029D01*
X508763Y397071D01*
X508812Y397109D01*
X508864Y397144D01*
X508918Y397176D01*
X508974Y397205D01*
X509032Y397230D01*
X509091Y397251D01*
X509151Y397269D01*
X509213Y397282D01*
X509275Y397292D01*
X509337Y397298D01*
X509400Y397300D01*
X509463Y397298D01*
X509525Y397292D01*
X509587Y397282D01*
X509649Y397269D01*
X509709Y397251D01*
X509768Y397230D01*
X509826Y397205D01*
X509882Y397176D01*
X509936Y397144D01*
X509988Y397109D01*
X510037Y397071D01*
X510085Y397029D01*
X510129Y396985D01*
X510171Y396937D01*
X510209Y396888D01*
X510244Y396836D01*
X510276Y396782D01*
X510305Y396726D01*
X510330Y396668D01*
X510351Y396609D01*
X510369Y396549D01*
X510382Y396487D01*
X510392Y396425D01*
X510398Y396363D01*
X510400Y396300D01*
X510398Y396237D01*
X510392Y396175D01*
X510382Y396113D01*
X510369Y396051D01*
X510351Y395991D01*
X510330Y395932D01*
X510305Y395874D01*
X510276Y395818D01*
X510244Y395764D01*
X510209Y395712D01*
X510171Y395663D01*
X510129Y395615D01*
X510085Y395571D01*
X510037Y395529D01*
X509988Y395491D01*
X509936Y395456D01*
X509882Y395424D01*
X509826Y395395D01*
X509768Y395370D01*
X509709Y395349D01*
X509649Y395331D01*
X509587Y395318D01*
X509525Y395308D01*
X509463Y395302D01*
X509400Y395300D01*
X509337Y395302D01*
X509275Y395308D01*
X509213Y395318D01*
X509151Y395331D01*
X509091Y395349D01*
X509032Y395370D01*
X508974Y395395D01*
X508918Y395424D01*
X508864Y395456D01*
X508812Y395491D01*
X508763Y395529D01*
X508715Y395571D01*
X508671Y395615D01*
X508629Y395663D01*
X508591Y395712D01*
X508556Y395764D01*
X508524Y395818D01*
X508495Y395874D01*
X508470Y395932D01*
X508449Y395991D01*
X508431Y396051D01*
X508418Y396113D01*
X508408Y396175D01*
X508402Y396237D01*
X508400Y396300D01*
D13*
X492681Y398292D02*
X492681Y405079D01*
X492681Y398292D02*
X492683Y398191D01*
X492689Y398090D01*
X492699Y397989D01*
X492712Y397889D01*
X492730Y397789D01*
X492751Y397690D01*
X492777Y397592D01*
X492806Y397495D01*
X492838Y397399D01*
X492875Y397305D01*
X492915Y397212D01*
X492959Y397120D01*
X493006Y397031D01*
X493057Y396943D01*
X493111Y396857D01*
X493168Y396774D01*
X493228Y396692D01*
X493292Y396614D01*
X493358Y396537D01*
X493428Y396464D01*
X493500Y396393D01*
X493575Y396325D01*
X493653Y396260D01*
X493733Y396198D01*
X493815Y396139D01*
X493900Y396083D01*
X493987Y396031D01*
X494075Y395982D01*
X494166Y395936D01*
X494258Y395895D01*
X494352Y395856D01*
X494447Y395822D01*
X494543Y395791D01*
X494641Y395764D01*
X494739Y395740D01*
X494839Y395721D01*
X494939Y395705D01*
X495039Y395693D01*
X495140Y395685D01*
X495241Y395681D01*
X495343Y395681D01*
X495444Y395685D01*
X495545Y395693D01*
X495645Y395705D01*
X495745Y395721D01*
X495845Y395740D01*
X495943Y395764D01*
X496041Y395791D01*
X496137Y395822D01*
X496232Y395856D01*
X496326Y395895D01*
X496418Y395936D01*
X496509Y395982D01*
X496597Y396031D01*
X496684Y396083D01*
X496769Y396139D01*
X496851Y396198D01*
X496931Y396260D01*
X497009Y396325D01*
X497084Y396393D01*
X497156Y396464D01*
X497226Y396537D01*
X497292Y396614D01*
X497356Y396692D01*
X497416Y396774D01*
X497473Y396857D01*
X497527Y396943D01*
X497578Y397031D01*
X497625Y397120D01*
X497669Y397212D01*
X497709Y397305D01*
X497746Y397399D01*
X497778Y397495D01*
X497807Y397592D01*
X497833Y397690D01*
X497854Y397789D01*
X497872Y397889D01*
X497885Y397989D01*
X497895Y398090D01*
X497901Y398191D01*
X497903Y398292D01*
X497902Y398292D02*
X497902Y405079D01*
X502130Y402991D02*
X504740Y405079D01*
X504740Y395681D01*
X502130Y395681D02*
X507351Y395681D01*
D11*
X299200Y379900D02*
X299202Y379963D01*
X299208Y380025D01*
X299218Y380087D01*
X299231Y380149D01*
X299249Y380209D01*
X299270Y380268D01*
X299295Y380326D01*
X299324Y380382D01*
X299356Y380436D01*
X299391Y380488D01*
X299429Y380537D01*
X299471Y380585D01*
X299515Y380629D01*
X299563Y380671D01*
X299612Y380709D01*
X299664Y380744D01*
X299718Y380776D01*
X299774Y380805D01*
X299832Y380830D01*
X299891Y380851D01*
X299951Y380869D01*
X300013Y380882D01*
X300075Y380892D01*
X300137Y380898D01*
X300200Y380900D01*
X300263Y380898D01*
X300325Y380892D01*
X300387Y380882D01*
X300449Y380869D01*
X300509Y380851D01*
X300568Y380830D01*
X300626Y380805D01*
X300682Y380776D01*
X300736Y380744D01*
X300788Y380709D01*
X300837Y380671D01*
X300885Y380629D01*
X300929Y380585D01*
X300971Y380537D01*
X301009Y380488D01*
X301044Y380436D01*
X301076Y380382D01*
X301105Y380326D01*
X301130Y380268D01*
X301151Y380209D01*
X301169Y380149D01*
X301182Y380087D01*
X301192Y380025D01*
X301198Y379963D01*
X301200Y379900D01*
X301198Y379837D01*
X301192Y379775D01*
X301182Y379713D01*
X301169Y379651D01*
X301151Y379591D01*
X301130Y379532D01*
X301105Y379474D01*
X301076Y379418D01*
X301044Y379364D01*
X301009Y379312D01*
X300971Y379263D01*
X300929Y379215D01*
X300885Y379171D01*
X300837Y379129D01*
X300788Y379091D01*
X300736Y379056D01*
X300682Y379024D01*
X300626Y378995D01*
X300568Y378970D01*
X300509Y378949D01*
X300449Y378931D01*
X300387Y378918D01*
X300325Y378908D01*
X300263Y378902D01*
X300200Y378900D01*
X300137Y378902D01*
X300075Y378908D01*
X300013Y378918D01*
X299951Y378931D01*
X299891Y378949D01*
X299832Y378970D01*
X299774Y378995D01*
X299718Y379024D01*
X299664Y379056D01*
X299612Y379091D01*
X299563Y379129D01*
X299515Y379171D01*
X299471Y379215D01*
X299429Y379263D01*
X299391Y379312D01*
X299356Y379364D01*
X299324Y379418D01*
X299295Y379474D01*
X299270Y379532D01*
X299249Y379591D01*
X299231Y379651D01*
X299218Y379713D01*
X299208Y379775D01*
X299202Y379837D01*
X299200Y379900D01*
D12*
X352600Y341900D02*
X359800Y341900D01*
X359800Y391900D02*
X352600Y391900D01*
X317000Y341900D02*
X309800Y341900D01*
X309800Y391900D02*
X317000Y391900D01*
X359800Y349100D02*
X359800Y341900D01*
X359800Y384700D02*
X359800Y391900D01*
X309800Y349100D02*
X309800Y341900D01*
X309800Y384700D02*
X309800Y391900D01*
D10*
X332208Y333442D02*
X332208Y325004D01*
X332210Y324891D01*
X332216Y324778D01*
X332226Y324665D01*
X332240Y324552D01*
X332257Y324440D01*
X332279Y324329D01*
X332304Y324219D01*
X332334Y324109D01*
X332367Y324001D01*
X332404Y323894D01*
X332444Y323788D01*
X332489Y323684D01*
X332537Y323581D01*
X332588Y323480D01*
X332643Y323381D01*
X332701Y323284D01*
X332763Y323189D01*
X332828Y323096D01*
X332896Y323006D01*
X332967Y322918D01*
X333042Y322832D01*
X333119Y322749D01*
X333199Y322669D01*
X333282Y322592D01*
X333368Y322517D01*
X333456Y322446D01*
X333546Y322378D01*
X333639Y322313D01*
X333734Y322251D01*
X333831Y322193D01*
X333930Y322138D01*
X334031Y322087D01*
X334134Y322039D01*
X334238Y321994D01*
X334344Y321954D01*
X334451Y321917D01*
X334559Y321884D01*
X334669Y321854D01*
X334779Y321829D01*
X334890Y321807D01*
X335002Y321790D01*
X335115Y321776D01*
X335228Y321766D01*
X335341Y321760D01*
X335454Y321758D01*
X335567Y321760D01*
X335680Y321766D01*
X335793Y321776D01*
X335906Y321790D01*
X336018Y321807D01*
X336129Y321829D01*
X336239Y321854D01*
X336349Y321884D01*
X336457Y321917D01*
X336564Y321954D01*
X336670Y321994D01*
X336774Y322039D01*
X336877Y322087D01*
X336978Y322138D01*
X337077Y322193D01*
X337174Y322251D01*
X337269Y322313D01*
X337362Y322378D01*
X337452Y322446D01*
X337540Y322517D01*
X337626Y322592D01*
X337709Y322669D01*
X337789Y322749D01*
X337866Y322832D01*
X337941Y322918D01*
X338012Y323006D01*
X338080Y323096D01*
X338145Y323189D01*
X338207Y323284D01*
X338265Y323381D01*
X338320Y323480D01*
X338371Y323581D01*
X338419Y323684D01*
X338464Y323788D01*
X338504Y323894D01*
X338541Y324001D01*
X338574Y324109D01*
X338604Y324219D01*
X338629Y324329D01*
X338651Y324440D01*
X338668Y324552D01*
X338682Y324665D01*
X338692Y324778D01*
X338698Y324891D01*
X338700Y325004D01*
X338699Y325004D02*
X338699Y333442D01*
X347589Y333442D02*
X347696Y333440D01*
X347802Y333434D01*
X347908Y333424D01*
X348014Y333411D01*
X348120Y333393D01*
X348224Y333372D01*
X348328Y333347D01*
X348431Y333318D01*
X348532Y333286D01*
X348632Y333249D01*
X348731Y333209D01*
X348829Y333166D01*
X348925Y333119D01*
X349019Y333068D01*
X349111Y333014D01*
X349201Y332957D01*
X349289Y332897D01*
X349374Y332833D01*
X349457Y332766D01*
X349538Y332696D01*
X349616Y332624D01*
X349692Y332548D01*
X349764Y332470D01*
X349834Y332389D01*
X349901Y332306D01*
X349965Y332221D01*
X350025Y332133D01*
X350082Y332043D01*
X350136Y331951D01*
X350187Y331857D01*
X350234Y331761D01*
X350277Y331663D01*
X350317Y331564D01*
X350354Y331464D01*
X350386Y331363D01*
X350415Y331260D01*
X350440Y331156D01*
X350461Y331052D01*
X350479Y330946D01*
X350492Y330840D01*
X350502Y330734D01*
X350508Y330628D01*
X350510Y330521D01*
X347589Y333442D02*
X347468Y333440D01*
X347347Y333434D01*
X347227Y333424D01*
X347106Y333411D01*
X346987Y333393D01*
X346867Y333372D01*
X346749Y333347D01*
X346632Y333318D01*
X346515Y333285D01*
X346400Y333249D01*
X346286Y333208D01*
X346173Y333165D01*
X346061Y333117D01*
X345952Y333066D01*
X345844Y333011D01*
X345737Y332953D01*
X345633Y332892D01*
X345531Y332827D01*
X345431Y332759D01*
X345333Y332688D01*
X345237Y332614D01*
X345144Y332537D01*
X345054Y332456D01*
X344966Y332373D01*
X344881Y332287D01*
X344798Y332198D01*
X344719Y332107D01*
X344642Y332013D01*
X344569Y331917D01*
X344499Y331819D01*
X344432Y331718D01*
X344368Y331615D01*
X344308Y331510D01*
X344251Y331403D01*
X344197Y331295D01*
X344147Y331185D01*
X344101Y331073D01*
X344058Y330960D01*
X344019Y330845D01*
X349537Y328249D02*
X349616Y328326D01*
X349692Y328407D01*
X349765Y328490D01*
X349835Y328575D01*
X349902Y328663D01*
X349966Y328753D01*
X350026Y328845D01*
X350083Y328940D01*
X350137Y329036D01*
X350188Y329134D01*
X350235Y329234D01*
X350279Y329336D01*
X350319Y329439D01*
X350355Y329543D01*
X350387Y329649D01*
X350416Y329755D01*
X350441Y329863D01*
X350463Y329971D01*
X350480Y330081D01*
X350494Y330190D01*
X350503Y330300D01*
X350509Y330411D01*
X350511Y330521D01*
X349536Y328249D02*
X344019Y321758D01*
X350510Y321758D01*
D17*
X403100Y303090D03*
D16*
X407600Y284700D02*
X410600Y284700D01*
X410600Y281700D01*
X410600Y216700D02*
X410600Y213700D01*
X407600Y213700D01*
X339600Y213700D02*
X339600Y216700D01*
X339600Y213700D02*
X342600Y213700D01*
X342600Y284700D02*
X339600Y284700D01*
X339600Y281700D01*
D13*
X431898Y293022D02*
X437241Y293022D01*
X437331Y293024D01*
X437420Y293030D01*
X437509Y293040D01*
X437598Y293053D01*
X437686Y293071D01*
X437773Y293092D01*
X437859Y293117D01*
X437944Y293146D01*
X438027Y293178D01*
X438109Y293215D01*
X438190Y293254D01*
X438269Y293297D01*
X438345Y293344D01*
X438420Y293394D01*
X438492Y293447D01*
X438562Y293503D01*
X438629Y293562D01*
X438694Y293624D01*
X438756Y293689D01*
X438815Y293756D01*
X438871Y293826D01*
X438924Y293898D01*
X438974Y293973D01*
X439021Y294050D01*
X439064Y294128D01*
X439103Y294209D01*
X439140Y294291D01*
X439172Y294374D01*
X439201Y294459D01*
X439226Y294545D01*
X439247Y294632D01*
X439265Y294720D01*
X439278Y294809D01*
X439288Y294898D01*
X439294Y294987D01*
X439296Y295077D01*
X439294Y295167D01*
X439288Y295256D01*
X439278Y295345D01*
X439265Y295434D01*
X439247Y295522D01*
X439226Y295609D01*
X439201Y295695D01*
X439172Y295780D01*
X439140Y295863D01*
X439103Y295945D01*
X439064Y296026D01*
X439021Y296105D01*
X438974Y296181D01*
X438924Y296256D01*
X438871Y296328D01*
X438815Y296398D01*
X438756Y296465D01*
X438694Y296530D01*
X438629Y296592D01*
X438562Y296651D01*
X438492Y296707D01*
X438420Y296760D01*
X438345Y296810D01*
X438269Y296857D01*
X438190Y296900D01*
X438109Y296939D01*
X438027Y296976D01*
X437944Y297008D01*
X437859Y297037D01*
X437773Y297062D01*
X437686Y297083D01*
X437598Y297101D01*
X437509Y297114D01*
X437420Y297124D01*
X437331Y297130D01*
X437241Y297132D01*
X431898Y297132D01*
X439296Y300611D02*
X439296Y302665D01*
X439294Y302755D01*
X439288Y302844D01*
X439278Y302933D01*
X439265Y303022D01*
X439247Y303110D01*
X439226Y303197D01*
X439201Y303283D01*
X439172Y303368D01*
X439140Y303451D01*
X439103Y303533D01*
X439064Y303614D01*
X439021Y303693D01*
X438974Y303769D01*
X438924Y303844D01*
X438871Y303916D01*
X438815Y303986D01*
X438756Y304053D01*
X438694Y304118D01*
X438629Y304180D01*
X438562Y304239D01*
X438492Y304295D01*
X438420Y304348D01*
X438345Y304398D01*
X438269Y304445D01*
X438190Y304488D01*
X438109Y304527D01*
X438027Y304564D01*
X437944Y304596D01*
X437859Y304625D01*
X437773Y304650D01*
X437686Y304671D01*
X437598Y304689D01*
X437509Y304702D01*
X437420Y304712D01*
X437331Y304718D01*
X437241Y304720D01*
X437151Y304718D01*
X437062Y304712D01*
X436973Y304702D01*
X436884Y304689D01*
X436796Y304671D01*
X436709Y304650D01*
X436623Y304625D01*
X436538Y304596D01*
X436455Y304564D01*
X436373Y304527D01*
X436292Y304488D01*
X436214Y304445D01*
X436137Y304398D01*
X436062Y304348D01*
X435990Y304295D01*
X435920Y304239D01*
X435853Y304180D01*
X435788Y304118D01*
X435726Y304053D01*
X435667Y303986D01*
X435611Y303916D01*
X435558Y303844D01*
X435508Y303769D01*
X435461Y303693D01*
X435418Y303614D01*
X435379Y303533D01*
X435342Y303451D01*
X435310Y303368D01*
X435281Y303283D01*
X435256Y303197D01*
X435235Y303110D01*
X435217Y303022D01*
X435204Y302933D01*
X435194Y302844D01*
X435188Y302755D01*
X435186Y302665D01*
X431898Y303076D02*
X431898Y300611D01*
X431898Y303076D02*
X431900Y303155D01*
X431906Y303235D01*
X431915Y303314D01*
X431929Y303392D01*
X431946Y303469D01*
X431967Y303546D01*
X431991Y303622D01*
X432019Y303696D01*
X432051Y303769D01*
X432086Y303840D01*
X432125Y303909D01*
X432167Y303977D01*
X432212Y304042D01*
X432260Y304105D01*
X432311Y304166D01*
X432366Y304224D01*
X432422Y304280D01*
X432482Y304333D01*
X432544Y304382D01*
X432608Y304429D01*
X432675Y304473D01*
X432743Y304513D01*
X432813Y304550D01*
X432885Y304583D01*
X432959Y304613D01*
X433034Y304640D01*
X433110Y304662D01*
X433187Y304681D01*
X433265Y304697D01*
X433344Y304708D01*
X433423Y304716D01*
X433502Y304720D01*
X433582Y304720D01*
X433661Y304716D01*
X433740Y304708D01*
X433819Y304697D01*
X433897Y304681D01*
X433974Y304662D01*
X434050Y304640D01*
X434125Y304613D01*
X434199Y304583D01*
X434271Y304550D01*
X434341Y304513D01*
X434409Y304473D01*
X434476Y304429D01*
X434540Y304382D01*
X434602Y304333D01*
X434662Y304280D01*
X434718Y304224D01*
X434773Y304166D01*
X434824Y304105D01*
X434872Y304042D01*
X434917Y303977D01*
X434959Y303909D01*
X434998Y303840D01*
X435033Y303769D01*
X435065Y303696D01*
X435093Y303622D01*
X435117Y303546D01*
X435138Y303469D01*
X435155Y303392D01*
X435169Y303314D01*
X435178Y303235D01*
X435184Y303155D01*
X435186Y303076D01*
X435186Y301432D01*
D16*
X343542Y35676D02*
X315856Y35676D01*
X435744Y35676D02*
X435744Y85460D01*
X435744Y175376D02*
X315856Y175376D01*
X315856Y118226D01*
X358020Y35676D02*
X368434Y35676D01*
X383166Y35676D02*
X393580Y35676D01*
X408058Y35676D02*
X435744Y35676D01*
X315856Y35676D02*
X315856Y85460D01*
X435744Y118226D02*
X435744Y175376D01*
D13*
X349095Y107671D02*
X349095Y103692D01*
X351416Y100707D01*
X349095Y103692D02*
X346773Y100707D01*
X349095Y103692D02*
X352742Y105018D01*
X349095Y103692D02*
X345447Y105018D01*
D18*
X309250Y422800D03*
D11*
X309252Y422756D01*
X309258Y422713D01*
X309267Y422671D01*
X309280Y422629D01*
X309297Y422589D01*
X309317Y422550D01*
X309340Y422513D01*
X309367Y422479D01*
X309396Y422446D01*
X309429Y422417D01*
X309463Y422390D01*
X309500Y422367D01*
X309539Y422347D01*
X309579Y422330D01*
X309621Y422317D01*
X309663Y422308D01*
X309706Y422302D01*
X309750Y422300D01*
X309794Y422302D01*
X309837Y422308D01*
X309879Y422317D01*
X309921Y422330D01*
X309961Y422347D01*
X310000Y422367D01*
X310037Y422390D01*
X310071Y422417D01*
X310104Y422446D01*
X310133Y422479D01*
X310160Y422513D01*
X310183Y422550D01*
X310203Y422589D01*
X310220Y422629D01*
X310233Y422671D01*
X310242Y422713D01*
X310248Y422756D01*
X310250Y422800D01*
D18*
X310250Y422800D03*
D11*
X310248Y422844D01*
X310242Y422887D01*
X310233Y422929D01*
X310220Y422971D01*
X310203Y423011D01*
X310183Y423050D01*
X310160Y423087D01*
X310133Y423121D01*
X310104Y423154D01*
X310071Y423183D01*
X310037Y423210D01*
X310000Y423233D01*
X309961Y423253D01*
X309921Y423270D01*
X309879Y423283D01*
X309837Y423292D01*
X309794Y423298D01*
X309750Y423300D01*
X309706Y423298D01*
X309663Y423292D01*
X309621Y423283D01*
X309579Y423270D01*
X309539Y423253D01*
X309500Y423233D01*
X309463Y423210D01*
X309429Y423183D01*
X309396Y423154D01*
X309367Y423121D01*
X309340Y423087D01*
X309317Y423050D01*
X309297Y423011D01*
X309280Y422971D01*
X309267Y422929D01*
X309258Y422887D01*
X309252Y422844D01*
X309250Y422800D01*
D18*
X309250Y422800D03*
D11*
X309252Y422756D01*
X309258Y422713D01*
X309267Y422671D01*
X309280Y422629D01*
X309297Y422589D01*
X309317Y422550D01*
X309340Y422513D01*
X309367Y422479D01*
X309396Y422446D01*
X309429Y422417D01*
X309463Y422390D01*
X309500Y422367D01*
X309539Y422347D01*
X309579Y422330D01*
X309621Y422317D01*
X309663Y422308D01*
X309706Y422302D01*
X309750Y422300D01*
X309794Y422302D01*
X309837Y422308D01*
X309879Y422317D01*
X309921Y422330D01*
X309961Y422347D01*
X310000Y422367D01*
X310037Y422390D01*
X310071Y422417D01*
X310104Y422446D01*
X310133Y422479D01*
X310160Y422513D01*
X310183Y422550D01*
X310203Y422589D01*
X310220Y422629D01*
X310233Y422671D01*
X310242Y422713D01*
X310248Y422756D01*
X310250Y422800D01*
D10*
X282160Y422825D02*
X278265Y428342D01*
X282160Y422825D02*
X286054Y428342D01*
X282160Y422825D02*
X282160Y416658D01*
X290344Y425746D02*
X293590Y428342D01*
X293590Y416658D01*
X296835Y416658D02*
X290344Y416658D01*
D16*
X577640Y392600D02*
X577640Y387520D01*
X577640Y351960D02*
X577640Y346880D01*
X592880Y331640D02*
X603040Y331640D01*
X603040Y407840D02*
X592880Y407840D01*
X618280Y407840D02*
X623360Y407840D01*
X623360Y331640D01*
X618280Y331640D01*
D13*
X578021Y420992D02*
X578021Y427779D01*
X578021Y420992D02*
X578023Y420891D01*
X578029Y420790D01*
X578039Y420689D01*
X578052Y420589D01*
X578070Y420489D01*
X578091Y420390D01*
X578117Y420292D01*
X578146Y420195D01*
X578178Y420099D01*
X578215Y420005D01*
X578255Y419912D01*
X578299Y419820D01*
X578346Y419731D01*
X578397Y419643D01*
X578451Y419557D01*
X578508Y419474D01*
X578568Y419392D01*
X578632Y419314D01*
X578698Y419237D01*
X578768Y419164D01*
X578840Y419093D01*
X578915Y419025D01*
X578993Y418960D01*
X579073Y418898D01*
X579155Y418839D01*
X579240Y418783D01*
X579327Y418731D01*
X579415Y418682D01*
X579506Y418636D01*
X579598Y418595D01*
X579692Y418556D01*
X579787Y418522D01*
X579883Y418491D01*
X579981Y418464D01*
X580079Y418440D01*
X580179Y418421D01*
X580279Y418405D01*
X580379Y418393D01*
X580480Y418385D01*
X580581Y418381D01*
X580683Y418381D01*
X580784Y418385D01*
X580885Y418393D01*
X580985Y418405D01*
X581085Y418421D01*
X581185Y418440D01*
X581283Y418464D01*
X581381Y418491D01*
X581477Y418522D01*
X581572Y418556D01*
X581666Y418595D01*
X581758Y418636D01*
X581849Y418682D01*
X581938Y418731D01*
X582024Y418783D01*
X582109Y418839D01*
X582191Y418898D01*
X582271Y418960D01*
X582349Y419025D01*
X582424Y419093D01*
X582496Y419164D01*
X582566Y419237D01*
X582632Y419314D01*
X582696Y419392D01*
X582756Y419474D01*
X582813Y419557D01*
X582867Y419643D01*
X582918Y419731D01*
X582965Y419820D01*
X583009Y419912D01*
X583049Y420005D01*
X583086Y420099D01*
X583118Y420195D01*
X583147Y420292D01*
X583173Y420390D01*
X583194Y420489D01*
X583212Y420589D01*
X583225Y420689D01*
X583235Y420790D01*
X583241Y420891D01*
X583243Y420992D01*
X583242Y420992D02*
X583242Y427779D01*
X592386Y420469D02*
X592384Y420380D01*
X592378Y420292D01*
X592369Y420204D01*
X592356Y420116D01*
X592339Y420029D01*
X592319Y419943D01*
X592294Y419858D01*
X592267Y419773D01*
X592235Y419690D01*
X592201Y419609D01*
X592162Y419529D01*
X592121Y419451D01*
X592076Y419374D01*
X592028Y419300D01*
X591977Y419227D01*
X591923Y419157D01*
X591865Y419090D01*
X591805Y419024D01*
X591743Y418962D01*
X591677Y418902D01*
X591610Y418844D01*
X591540Y418790D01*
X591467Y418739D01*
X591393Y418691D01*
X591316Y418646D01*
X591238Y418605D01*
X591158Y418566D01*
X591077Y418532D01*
X590994Y418500D01*
X590909Y418473D01*
X590824Y418448D01*
X590738Y418428D01*
X590651Y418411D01*
X590563Y418398D01*
X590475Y418389D01*
X590387Y418383D01*
X590298Y418381D01*
X590169Y418383D01*
X590040Y418389D01*
X589911Y418398D01*
X589783Y418411D01*
X589655Y418428D01*
X589528Y418449D01*
X589401Y418473D01*
X589275Y418501D01*
X589150Y418533D01*
X589026Y418568D01*
X588903Y418607D01*
X588781Y418650D01*
X588661Y418696D01*
X588542Y418746D01*
X588424Y418799D01*
X588308Y418855D01*
X588194Y418915D01*
X588081Y418978D01*
X587971Y419045D01*
X587862Y419114D01*
X587756Y419187D01*
X587651Y419263D01*
X587549Y419342D01*
X587450Y419424D01*
X587352Y419508D01*
X587257Y419596D01*
X587165Y419686D01*
X587426Y425691D02*
X587428Y425780D01*
X587434Y425868D01*
X587443Y425956D01*
X587456Y426044D01*
X587473Y426131D01*
X587493Y426217D01*
X587518Y426302D01*
X587545Y426387D01*
X587577Y426470D01*
X587611Y426551D01*
X587650Y426631D01*
X587691Y426709D01*
X587736Y426786D01*
X587784Y426860D01*
X587835Y426933D01*
X587889Y427003D01*
X587947Y427070D01*
X588007Y427136D01*
X588069Y427198D01*
X588135Y427258D01*
X588202Y427316D01*
X588272Y427370D01*
X588345Y427421D01*
X588419Y427469D01*
X588496Y427514D01*
X588574Y427555D01*
X588654Y427594D01*
X588735Y427628D01*
X588818Y427660D01*
X588903Y427687D01*
X588988Y427712D01*
X589074Y427732D01*
X589161Y427749D01*
X589249Y427762D01*
X589337Y427771D01*
X589425Y427777D01*
X589514Y427779D01*
X589634Y427777D01*
X589754Y427772D01*
X589874Y427762D01*
X589993Y427750D01*
X590112Y427733D01*
X590230Y427713D01*
X590348Y427689D01*
X590464Y427662D01*
X590580Y427631D01*
X590695Y427597D01*
X590809Y427559D01*
X590922Y427517D01*
X591033Y427472D01*
X591143Y427424D01*
X591251Y427373D01*
X591358Y427318D01*
X591463Y427260D01*
X591566Y427198D01*
X591667Y427134D01*
X591767Y427066D01*
X591864Y426996D01*
X588470Y423864D02*
X588392Y423912D01*
X588316Y423964D01*
X588243Y424018D01*
X588172Y424076D01*
X588103Y424137D01*
X588037Y424201D01*
X587974Y424268D01*
X587914Y424337D01*
X587857Y424409D01*
X587803Y424483D01*
X587753Y424560D01*
X587705Y424639D01*
X587662Y424719D01*
X587621Y424802D01*
X587585Y424886D01*
X587552Y424971D01*
X587523Y425058D01*
X587497Y425147D01*
X587475Y425236D01*
X587458Y425326D01*
X587444Y425416D01*
X587434Y425508D01*
X587428Y425599D01*
X587426Y425691D01*
X591342Y422296D02*
X591420Y422248D01*
X591496Y422196D01*
X591569Y422142D01*
X591640Y422084D01*
X591709Y422023D01*
X591775Y421959D01*
X591838Y421892D01*
X591898Y421823D01*
X591955Y421751D01*
X592009Y421677D01*
X592059Y421600D01*
X592107Y421521D01*
X592150Y421441D01*
X592191Y421358D01*
X592227Y421274D01*
X592260Y421189D01*
X592289Y421102D01*
X592315Y421013D01*
X592337Y420924D01*
X592354Y420834D01*
X592368Y420744D01*
X592378Y420652D01*
X592384Y420561D01*
X592386Y420469D01*
X591342Y422297D02*
X588470Y423863D01*
X596440Y423602D02*
X599051Y423602D01*
X599051Y423603D02*
X599152Y423601D01*
X599253Y423595D01*
X599354Y423585D01*
X599454Y423572D01*
X599554Y423554D01*
X599653Y423533D01*
X599751Y423507D01*
X599848Y423478D01*
X599944Y423446D01*
X600038Y423409D01*
X600131Y423369D01*
X600223Y423325D01*
X600312Y423278D01*
X600400Y423227D01*
X600486Y423173D01*
X600569Y423116D01*
X600651Y423056D01*
X600729Y422992D01*
X600806Y422926D01*
X600879Y422856D01*
X600950Y422784D01*
X601018Y422709D01*
X601083Y422631D01*
X601145Y422551D01*
X601204Y422469D01*
X601260Y422384D01*
X601312Y422297D01*
X601361Y422209D01*
X601407Y422118D01*
X601448Y422026D01*
X601487Y421932D01*
X601521Y421837D01*
X601552Y421741D01*
X601579Y421643D01*
X601603Y421545D01*
X601622Y421445D01*
X601638Y421345D01*
X601650Y421245D01*
X601658Y421144D01*
X601662Y421043D01*
X601662Y420941D01*
X601658Y420840D01*
X601650Y420739D01*
X601638Y420639D01*
X601622Y420539D01*
X601603Y420439D01*
X601579Y420341D01*
X601552Y420243D01*
X601521Y420147D01*
X601487Y420052D01*
X601448Y419958D01*
X601407Y419866D01*
X601361Y419775D01*
X601312Y419687D01*
X601260Y419600D01*
X601204Y419515D01*
X601145Y419433D01*
X601083Y419353D01*
X601018Y419275D01*
X600950Y419200D01*
X600879Y419128D01*
X600806Y419058D01*
X600729Y418992D01*
X600651Y418928D01*
X600569Y418868D01*
X600486Y418811D01*
X600400Y418757D01*
X600312Y418706D01*
X600223Y418659D01*
X600131Y418615D01*
X600038Y418575D01*
X599944Y418538D01*
X599848Y418506D01*
X599751Y418477D01*
X599653Y418451D01*
X599554Y418430D01*
X599454Y418412D01*
X599354Y418399D01*
X599253Y418389D01*
X599152Y418383D01*
X599051Y418381D01*
X596440Y418381D01*
X596440Y427779D01*
X599051Y427779D01*
X599141Y427777D01*
X599230Y427771D01*
X599320Y427762D01*
X599409Y427748D01*
X599497Y427731D01*
X599584Y427710D01*
X599671Y427685D01*
X599756Y427656D01*
X599840Y427624D01*
X599922Y427589D01*
X600003Y427549D01*
X600082Y427507D01*
X600159Y427461D01*
X600234Y427411D01*
X600307Y427359D01*
X600378Y427303D01*
X600446Y427245D01*
X600511Y427183D01*
X600574Y427119D01*
X600634Y427052D01*
X600691Y426983D01*
X600745Y426911D01*
X600796Y426837D01*
X600844Y426761D01*
X600888Y426683D01*
X600929Y426603D01*
X600967Y426521D01*
X601001Y426438D01*
X601031Y426353D01*
X601058Y426267D01*
X601081Y426181D01*
X601100Y426093D01*
X601115Y426004D01*
X601127Y425915D01*
X601135Y425826D01*
X601139Y425736D01*
X601139Y425646D01*
X601135Y425556D01*
X601127Y425467D01*
X601115Y425378D01*
X601100Y425289D01*
X601081Y425201D01*
X601058Y425115D01*
X601031Y425029D01*
X601001Y424944D01*
X600967Y424861D01*
X600929Y424779D01*
X600888Y424699D01*
X600844Y424621D01*
X600796Y424545D01*
X600745Y424471D01*
X600691Y424399D01*
X600634Y424330D01*
X600574Y424263D01*
X600511Y424199D01*
X600446Y424137D01*
X600378Y424079D01*
X600307Y424023D01*
X600234Y423971D01*
X600159Y423921D01*
X600082Y423875D01*
X600003Y423833D01*
X599922Y423793D01*
X599840Y423758D01*
X599756Y423726D01*
X599671Y423697D01*
X599584Y423672D01*
X599497Y423651D01*
X599409Y423634D01*
X599320Y423620D01*
X599230Y423611D01*
X599141Y423605D01*
X599051Y423603D01*
X605148Y425691D02*
X607759Y427779D01*
X607759Y418381D01*
X610369Y418381D02*
X605148Y418381D01*
D19*
X41026Y9959D02*
X41026Y-15442D01*
X15626Y-15442D01*
X15626Y9959D01*
X41026Y9959D01*
X40526Y444209D02*
X40526Y469609D01*
X40526Y444209D02*
X15126Y444209D01*
X15126Y469609D01*
X40526Y469609D01*
X626401Y9959D02*
X626401Y-15442D01*
X601001Y-15442D01*
X601001Y9959D01*
X626401Y9959D01*
M02*
