M48
;GenerationSoftware,Autodesk,EAGLE,9.6.2*%
;CreationDate,2020-11-18T14:22:03Z*%
FMAT,2
ICI,OFF
METRIC,TZ,000.000
T6C0.350
T5C0.900
T4C0.991
T3C1.000
T2C1.092
T1C2.000
%
G90
M71
T1
X5666Y27217
X26494Y27217
X26494Y4103
X5666Y4103
T2
X35091Y17182
X40069Y17182
T3
X59770Y19680
X59770Y16180
X59770Y23180
X59770Y26680
X59770Y30180
X59770Y12680
X59770Y9180
X59770Y5680
X12270Y28360
X14810Y28360
X17350Y28360
X19890Y28360
T4
X40069Y2704
X35091Y2704
X37580Y2704
T5
X15380Y38460
X12840Y38460
X12840Y35920
X15380Y35920
X15380Y41000
X12840Y41000
T6
X54270Y36660
X42870Y22110
X32250Y32940
X29220Y24510
X31740Y24510
X31920Y23652
X28530Y23790
X29340Y30390
X31440Y30360
X22800Y39210
X22410Y41640
X40380Y18900
X29940Y32220
X46680Y14070
X36030Y31350
X37070Y15910
X37290Y13200
X5910Y38070
X44572Y24578
X44610Y23700
X9960Y37680
X31440Y21430
X31500Y22890
X43050Y25290
X32100Y20340
X34710Y13200
X33852Y13140
X40500Y31680
X43950Y22920
X41370Y37080
X46020Y41670
X37770Y30630
X54000Y33300
X7830Y34200
X46770Y5250
X5460Y29640
X46080Y37050
X49440Y34560
X27258Y29370
X38592Y32011
X43238Y26138
X39240Y32640
X43680Y26910
X26900Y24900
X41175Y4975
X30600Y4625
X14025Y42975
X23250Y30225
X52450Y34575
X39950Y41200
X54600Y30650
X56600Y40225
X42675Y40000
X38000Y18925
X49975Y39150
X50825Y30275
X50600Y24700
X50775Y19350
X50825Y14075
X51125Y3950
X33325Y43525
X50975Y9600
X28000Y19600
X35150Y24025
X45540Y26820
X56525Y32925
X29650Y41375
X31950Y18825
X47280Y32850
X46325Y30605
X46800Y24270
X55380Y28080
X55380Y23010
X46110Y25260
X46890Y20490
X46950Y15360
X54960Y19170
X55000Y12915
X55680Y17970
X9750Y29640
X55170Y9060
X55140Y2670
X46745Y10325
X46260Y17880
X38010Y12540
X43890Y30690
X39828Y30860
X55650Y15360
X34795Y31220
X36412Y16510
X36420Y13200
X52785Y37749
X28338Y36618
X29912Y37350
X38725Y23175
M30