G04 EAGLE Gerber RS-274X export*
G75*
%MOMM*%
%FSLAX34Y34*%
%LPD*%
%INBottom Copper*%
%IPPOS*%
%AMOC8*
5,1,8,0,0,1.08239X$1,22.5*%
G01*
%ADD10C,1.625600*%
%ADD11C,2.184400*%
%ADD12R,1.508000X1.508000*%
%ADD13R,3.216000X3.216000*%
%ADD14C,1.508000*%
%ADD15C,0.654800*%
%ADD16C,0.152400*%

G36*
X914420Y253242D02*
X914420Y253242D01*
X914439Y253240D01*
X914541Y253262D01*
X914643Y253279D01*
X914660Y253288D01*
X914680Y253292D01*
X914769Y253345D01*
X914860Y253394D01*
X914874Y253408D01*
X914891Y253418D01*
X914958Y253497D01*
X915030Y253572D01*
X915038Y253590D01*
X915051Y253605D01*
X915090Y253701D01*
X915133Y253795D01*
X915135Y253815D01*
X915143Y253833D01*
X915161Y254000D01*
X915161Y863600D01*
X915158Y863620D01*
X915160Y863639D01*
X915138Y863741D01*
X915122Y863843D01*
X915112Y863860D01*
X915108Y863880D01*
X915055Y863969D01*
X915006Y864060D01*
X914992Y864074D01*
X914982Y864091D01*
X914903Y864158D01*
X914828Y864230D01*
X914810Y864238D01*
X914795Y864251D01*
X914699Y864290D01*
X914605Y864333D01*
X914585Y864335D01*
X914567Y864343D01*
X914400Y864361D01*
X-12700Y864361D01*
X-12720Y864358D01*
X-12739Y864360D01*
X-12841Y864338D01*
X-12943Y864322D01*
X-12960Y864312D01*
X-12980Y864308D01*
X-13069Y864255D01*
X-13160Y864206D01*
X-13174Y864192D01*
X-13191Y864182D01*
X-13258Y864103D01*
X-13330Y864028D01*
X-13338Y864010D01*
X-13351Y863995D01*
X-13390Y863899D01*
X-13433Y863805D01*
X-13435Y863785D01*
X-13443Y863767D01*
X-13461Y863600D01*
X-13461Y254000D01*
X-13458Y253980D01*
X-13460Y253961D01*
X-13438Y253859D01*
X-13422Y253757D01*
X-13412Y253740D01*
X-13408Y253720D01*
X-13355Y253631D01*
X-13306Y253540D01*
X-13292Y253526D01*
X-13282Y253509D01*
X-13203Y253442D01*
X-13128Y253371D01*
X-13110Y253362D01*
X-13095Y253349D01*
X-12999Y253310D01*
X-12905Y253267D01*
X-12885Y253265D01*
X-12867Y253257D01*
X-12700Y253239D01*
X914400Y253239D01*
X914420Y253242D01*
G37*
%LPC*%
G36*
X15831Y394815D02*
X15831Y394815D01*
X14640Y396006D01*
X14640Y400832D01*
X14637Y400852D01*
X14639Y400871D01*
X14617Y400973D01*
X14601Y401075D01*
X14591Y401092D01*
X14587Y401112D01*
X14534Y401201D01*
X14485Y401292D01*
X14471Y401306D01*
X14461Y401323D01*
X14382Y401390D01*
X14307Y401462D01*
X14289Y401470D01*
X14274Y401483D01*
X14178Y401522D01*
X14084Y401565D01*
X14064Y401567D01*
X14046Y401575D01*
X13879Y401593D01*
X13554Y401593D01*
X11694Y403453D01*
X-2795Y417942D01*
X-2795Y471058D01*
X-935Y472918D01*
X181414Y655267D01*
X181467Y655341D01*
X181527Y655410D01*
X181539Y655440D01*
X181558Y655466D01*
X181585Y655553D01*
X181619Y655638D01*
X181623Y655679D01*
X181630Y655701D01*
X181629Y655734D01*
X181637Y655805D01*
X181637Y689471D01*
X351929Y859763D01*
X495419Y859763D01*
X497279Y857903D01*
X520032Y835150D01*
X520106Y835097D01*
X520175Y835037D01*
X520205Y835025D01*
X520231Y835006D01*
X520318Y834979D01*
X520403Y834945D01*
X520444Y834941D01*
X520466Y834934D01*
X520499Y834935D01*
X520570Y834927D01*
X527332Y834927D01*
X527352Y834930D01*
X527371Y834928D01*
X527473Y834950D01*
X527575Y834966D01*
X527592Y834976D01*
X527612Y834980D01*
X527701Y835033D01*
X527792Y835082D01*
X527806Y835096D01*
X527823Y835106D01*
X527890Y835185D01*
X527962Y835260D01*
X527970Y835278D01*
X527983Y835293D01*
X528022Y835389D01*
X528065Y835483D01*
X528067Y835503D01*
X528075Y835521D01*
X528093Y835688D01*
X528093Y840398D01*
X531202Y843507D01*
X534439Y843507D01*
X534529Y843521D01*
X534620Y843529D01*
X534650Y843541D01*
X534682Y843546D01*
X534762Y843589D01*
X534846Y843625D01*
X534878Y843651D01*
X534899Y843662D01*
X534921Y843685D01*
X534977Y843730D01*
X544942Y853695D01*
X572658Y853695D01*
X674035Y752318D01*
X674109Y752265D01*
X674178Y752205D01*
X674208Y752193D01*
X674234Y752174D01*
X674321Y752147D01*
X674406Y752113D01*
X674447Y752109D01*
X674469Y752102D01*
X674502Y752103D01*
X674573Y752095D01*
X682299Y752095D01*
X682389Y752109D01*
X682480Y752117D01*
X682509Y752129D01*
X682541Y752134D01*
X682622Y752177D01*
X682706Y752213D01*
X682738Y752239D01*
X682759Y752250D01*
X682781Y752273D01*
X682837Y752318D01*
X685126Y754607D01*
X687403Y754607D01*
X687474Y754618D01*
X687546Y754620D01*
X687595Y754638D01*
X687646Y754646D01*
X687709Y754680D01*
X687777Y754705D01*
X687817Y754737D01*
X687863Y754762D01*
X687913Y754814D01*
X687969Y754858D01*
X687997Y754902D01*
X688033Y754940D01*
X688063Y755005D01*
X688102Y755065D01*
X688114Y755116D01*
X688136Y755163D01*
X688144Y755234D01*
X688162Y755304D01*
X688158Y755356D01*
X688163Y755407D01*
X688148Y755478D01*
X688143Y755549D01*
X688122Y755597D01*
X688111Y755648D01*
X688074Y755709D01*
X688046Y755775D01*
X688001Y755831D01*
X687985Y755859D01*
X687967Y755874D01*
X687941Y755906D01*
X684865Y758982D01*
X684791Y759035D01*
X684722Y759095D01*
X684692Y759107D01*
X684666Y759126D01*
X684578Y759153D01*
X684494Y759187D01*
X684453Y759191D01*
X684431Y759198D01*
X684398Y759197D01*
X684327Y759205D01*
X671942Y759205D01*
X657605Y773542D01*
X657605Y813958D01*
X671942Y828295D01*
X682299Y828295D01*
X682389Y828309D01*
X682480Y828317D01*
X682509Y828329D01*
X682541Y828334D01*
X682622Y828377D01*
X682706Y828413D01*
X682738Y828439D01*
X682759Y828450D01*
X682781Y828473D01*
X682837Y828518D01*
X685126Y830807D01*
X689522Y830807D01*
X692631Y827698D01*
X692631Y823302D01*
X689522Y820193D01*
X685126Y820193D01*
X682837Y822482D01*
X682763Y822535D01*
X682693Y822595D01*
X682663Y822607D01*
X682637Y822626D01*
X682550Y822653D01*
X682465Y822687D01*
X682424Y822691D01*
X682402Y822698D01*
X682370Y822697D01*
X682299Y822705D01*
X674573Y822705D01*
X674483Y822691D01*
X674392Y822683D01*
X674362Y822671D01*
X674330Y822666D01*
X674250Y822623D01*
X674166Y822587D01*
X674134Y822561D01*
X674113Y822550D01*
X674091Y822527D01*
X674035Y822482D01*
X663418Y811865D01*
X663365Y811791D01*
X663305Y811722D01*
X663293Y811692D01*
X663274Y811666D01*
X663247Y811579D01*
X663213Y811494D01*
X663209Y811453D01*
X663202Y811431D01*
X663203Y811398D01*
X663195Y811327D01*
X663195Y776173D01*
X663209Y776083D01*
X663217Y775992D01*
X663229Y775962D01*
X663234Y775930D01*
X663277Y775850D01*
X663313Y775766D01*
X663339Y775734D01*
X663350Y775713D01*
X663373Y775691D01*
X663418Y775635D01*
X674035Y765018D01*
X674109Y764965D01*
X674178Y764905D01*
X674208Y764893D01*
X674234Y764874D01*
X674321Y764847D01*
X674406Y764813D01*
X674447Y764809D01*
X674469Y764802D01*
X674502Y764803D01*
X674573Y764795D01*
X686958Y764795D01*
X701295Y750458D01*
X701295Y697342D01*
X623458Y619505D01*
X525725Y619505D01*
X525635Y619491D01*
X525544Y619483D01*
X525515Y619471D01*
X525483Y619466D01*
X525402Y619423D01*
X525318Y619387D01*
X525286Y619361D01*
X525265Y619350D01*
X525243Y619327D01*
X525187Y619282D01*
X522898Y616993D01*
X518502Y616993D01*
X515393Y620102D01*
X515393Y624498D01*
X518502Y627607D01*
X522898Y627607D01*
X525187Y625318D01*
X525261Y625265D01*
X525331Y625205D01*
X525361Y625193D01*
X525387Y625174D01*
X525474Y625147D01*
X525559Y625113D01*
X525600Y625109D01*
X525622Y625102D01*
X525654Y625103D01*
X525725Y625095D01*
X620827Y625095D01*
X620917Y625109D01*
X621008Y625117D01*
X621038Y625129D01*
X621070Y625134D01*
X621150Y625177D01*
X621234Y625213D01*
X621266Y625239D01*
X621287Y625250D01*
X621309Y625273D01*
X621365Y625318D01*
X687941Y691894D01*
X687983Y691952D01*
X688033Y692004D01*
X688055Y692051D01*
X688085Y692093D01*
X688106Y692162D01*
X688136Y692227D01*
X688142Y692279D01*
X688157Y692329D01*
X688155Y692400D01*
X688163Y692471D01*
X688152Y692522D01*
X688151Y692574D01*
X688126Y692642D01*
X688111Y692712D01*
X688084Y692757D01*
X688066Y692805D01*
X688022Y692861D01*
X687985Y692923D01*
X687945Y692957D01*
X687913Y692997D01*
X687852Y693036D01*
X687798Y693083D01*
X687750Y693102D01*
X687706Y693130D01*
X687636Y693148D01*
X687570Y693175D01*
X687498Y693183D01*
X687467Y693191D01*
X687444Y693189D01*
X687403Y693193D01*
X686285Y693193D01*
X686195Y693179D01*
X686104Y693171D01*
X686074Y693159D01*
X686042Y693154D01*
X685962Y693111D01*
X685878Y693075D01*
X685846Y693049D01*
X685825Y693038D01*
X685803Y693015D01*
X685747Y692970D01*
X675782Y683005D01*
X468742Y683005D01*
X454405Y697342D01*
X454405Y706175D01*
X454391Y706265D01*
X454383Y706356D01*
X454371Y706385D01*
X454366Y706417D01*
X454346Y706455D01*
X454344Y706462D01*
X454324Y706497D01*
X454323Y706498D01*
X454287Y706582D01*
X454261Y706614D01*
X454250Y706635D01*
X454229Y706655D01*
X454218Y706673D01*
X454205Y706684D01*
X454182Y706713D01*
X451893Y709002D01*
X451893Y713398D01*
X455002Y716507D01*
X458803Y716507D01*
X458874Y716518D01*
X458946Y716520D01*
X458995Y716538D01*
X459046Y716546D01*
X459109Y716580D01*
X459177Y716605D01*
X459217Y716637D01*
X459263Y716662D01*
X459313Y716714D01*
X459369Y716758D01*
X459397Y716802D01*
X459433Y716840D01*
X459463Y716905D01*
X459502Y716965D01*
X459514Y717016D01*
X459536Y717063D01*
X459544Y717134D01*
X459562Y717204D01*
X459558Y717256D01*
X459563Y717307D01*
X459548Y717378D01*
X459543Y717449D01*
X459522Y717497D01*
X459511Y717548D01*
X459474Y717609D01*
X459446Y717675D01*
X459401Y717731D01*
X459385Y717759D01*
X459367Y717774D01*
X459341Y717806D01*
X443565Y733582D01*
X443491Y733635D01*
X443422Y733695D01*
X443392Y733707D01*
X443366Y733726D01*
X443279Y733753D01*
X443194Y733787D01*
X443153Y733791D01*
X443131Y733798D01*
X443098Y733797D01*
X443027Y733805D01*
X430642Y733805D01*
X407977Y756470D01*
X407903Y756523D01*
X407834Y756583D01*
X407804Y756595D01*
X407778Y756614D01*
X407691Y756641D01*
X407606Y756675D01*
X407565Y756679D01*
X407543Y756686D01*
X407510Y756685D01*
X407439Y756693D01*
X404202Y756693D01*
X401093Y759802D01*
X401093Y764198D01*
X404202Y767307D01*
X408598Y767307D01*
X411707Y764198D01*
X411707Y760961D01*
X411708Y760954D01*
X411708Y760953D01*
X411709Y760948D01*
X411721Y760871D01*
X411729Y760780D01*
X411741Y760750D01*
X411746Y760718D01*
X411789Y760637D01*
X411825Y760554D01*
X411851Y760521D01*
X411862Y760501D01*
X411885Y760479D01*
X411930Y760423D01*
X432735Y739618D01*
X432809Y739565D01*
X432878Y739505D01*
X432908Y739493D01*
X432934Y739474D01*
X433021Y739447D01*
X433106Y739413D01*
X433147Y739409D01*
X433169Y739402D01*
X433202Y739403D01*
X433273Y739395D01*
X445658Y739395D01*
X472695Y712358D01*
X472695Y699973D01*
X472709Y699883D01*
X472717Y699792D01*
X472729Y699762D01*
X472734Y699730D01*
X472777Y699650D01*
X472813Y699566D01*
X472839Y699534D01*
X472850Y699513D01*
X472873Y699491D01*
X472918Y699435D01*
X479979Y692374D01*
X480053Y692321D01*
X480122Y692261D01*
X480152Y692249D01*
X480178Y692230D01*
X480265Y692203D01*
X480350Y692169D01*
X480391Y692165D01*
X480413Y692158D01*
X480446Y692159D01*
X480517Y692151D01*
X608127Y692151D01*
X608217Y692165D01*
X608308Y692173D01*
X608338Y692185D01*
X608370Y692190D01*
X608451Y692233D01*
X608534Y692269D01*
X608567Y692295D01*
X608587Y692306D01*
X608609Y692329D01*
X608665Y692374D01*
X619282Y702991D01*
X619335Y703065D01*
X619395Y703134D01*
X619407Y703164D01*
X619426Y703190D01*
X619453Y703277D01*
X619487Y703362D01*
X619491Y703403D01*
X619498Y703425D01*
X619497Y703458D01*
X619505Y703529D01*
X619505Y731575D01*
X619491Y731665D01*
X619483Y731756D01*
X619471Y731785D01*
X619466Y731817D01*
X619423Y731898D01*
X619387Y731982D01*
X619361Y732014D01*
X619350Y732035D01*
X619327Y732057D01*
X619282Y732113D01*
X616993Y734402D01*
X616993Y738798D01*
X620102Y741907D01*
X624498Y741907D01*
X627607Y738798D01*
X627607Y734402D01*
X625318Y732113D01*
X625265Y732039D01*
X625205Y731969D01*
X625193Y731939D01*
X625174Y731913D01*
X625147Y731826D01*
X625113Y731741D01*
X625109Y731700D01*
X625102Y731678D01*
X625103Y731646D01*
X625095Y731575D01*
X625095Y700898D01*
X623235Y699038D01*
X614091Y689894D01*
X614049Y689836D01*
X613999Y689784D01*
X613977Y689737D01*
X613947Y689695D01*
X613926Y689626D01*
X613896Y689561D01*
X613890Y689509D01*
X613875Y689459D01*
X613877Y689388D01*
X613869Y689317D01*
X613880Y689266D01*
X613881Y689214D01*
X613906Y689146D01*
X613921Y689076D01*
X613948Y689032D01*
X613966Y688983D01*
X614010Y688927D01*
X614047Y688865D01*
X614087Y688831D01*
X614119Y688791D01*
X614180Y688752D01*
X614234Y688705D01*
X614282Y688686D01*
X614326Y688658D01*
X614396Y688640D01*
X614462Y688613D01*
X614534Y688605D01*
X614565Y688597D01*
X614588Y688599D01*
X614629Y688595D01*
X673151Y688595D01*
X673241Y688609D01*
X673332Y688617D01*
X673362Y688629D01*
X673394Y688634D01*
X673474Y688677D01*
X673558Y688713D01*
X673590Y688739D01*
X673611Y688750D01*
X673633Y688773D01*
X673689Y688818D01*
X681794Y696923D01*
X681847Y696997D01*
X681907Y697066D01*
X681919Y697096D01*
X681938Y697122D01*
X681965Y697209D01*
X681999Y697294D01*
X682003Y697335D01*
X682010Y697357D01*
X682009Y697390D01*
X682017Y697461D01*
X682017Y700698D01*
X685126Y703807D01*
X689522Y703807D01*
X692631Y700698D01*
X692631Y698421D01*
X692642Y698350D01*
X692644Y698278D01*
X692662Y698229D01*
X692670Y698178D01*
X692704Y698115D01*
X692729Y698047D01*
X692761Y698007D01*
X692786Y697961D01*
X692838Y697911D01*
X692882Y697855D01*
X692926Y697827D01*
X692964Y697791D01*
X693029Y697761D01*
X693089Y697722D01*
X693140Y697710D01*
X693187Y697688D01*
X693258Y697680D01*
X693328Y697662D01*
X693380Y697666D01*
X693431Y697661D01*
X693502Y697676D01*
X693573Y697681D01*
X693621Y697702D01*
X693672Y697713D01*
X693733Y697750D01*
X693799Y697778D01*
X693855Y697823D01*
X693883Y697839D01*
X693898Y697857D01*
X693930Y697883D01*
X695482Y699435D01*
X695535Y699509D01*
X695595Y699578D01*
X695607Y699608D01*
X695626Y699634D01*
X695653Y699722D01*
X695687Y699806D01*
X695691Y699847D01*
X695698Y699869D01*
X695697Y699902D01*
X695705Y699973D01*
X695705Y747827D01*
X695691Y747917D01*
X695683Y748008D01*
X695671Y748038D01*
X695666Y748070D01*
X695623Y748150D01*
X695587Y748234D01*
X695561Y748267D01*
X695550Y748287D01*
X695527Y748309D01*
X695482Y748365D01*
X693930Y749917D01*
X693872Y749959D01*
X693820Y750009D01*
X693773Y750031D01*
X693731Y750061D01*
X693662Y750082D01*
X693597Y750112D01*
X693545Y750118D01*
X693495Y750133D01*
X693424Y750131D01*
X693353Y750139D01*
X693302Y750128D01*
X693250Y750127D01*
X693182Y750102D01*
X693112Y750087D01*
X693067Y750060D01*
X693019Y750042D01*
X692963Y749998D01*
X692901Y749961D01*
X692867Y749921D01*
X692827Y749889D01*
X692788Y749828D01*
X692741Y749774D01*
X692722Y749726D01*
X692694Y749682D01*
X692676Y749612D01*
X692649Y749546D01*
X692641Y749474D01*
X692633Y749443D01*
X692635Y749420D01*
X692631Y749379D01*
X692631Y747102D01*
X689522Y743993D01*
X685126Y743993D01*
X682837Y746282D01*
X682763Y746335D01*
X682693Y746395D01*
X682663Y746407D01*
X682637Y746426D01*
X682550Y746453D01*
X682465Y746487D01*
X682424Y746491D01*
X682402Y746498D01*
X682370Y746497D01*
X682299Y746505D01*
X671942Y746505D01*
X570565Y847882D01*
X570491Y847935D01*
X570422Y847995D01*
X570392Y848007D01*
X570366Y848026D01*
X570279Y848053D01*
X570194Y848087D01*
X570153Y848091D01*
X570131Y848098D01*
X570098Y848097D01*
X570027Y848105D01*
X547573Y848105D01*
X547483Y848091D01*
X547392Y848083D01*
X547362Y848071D01*
X547330Y848066D01*
X547250Y848023D01*
X547166Y847987D01*
X547134Y847961D01*
X547113Y847950D01*
X547091Y847927D01*
X547035Y847882D01*
X538930Y839777D01*
X538877Y839703D01*
X538817Y839634D01*
X538805Y839604D01*
X538786Y839578D01*
X538759Y839491D01*
X538725Y839406D01*
X538721Y839365D01*
X538714Y839343D01*
X538715Y839310D01*
X538707Y839239D01*
X538707Y835688D01*
X538710Y835668D01*
X538708Y835649D01*
X538730Y835547D01*
X538746Y835445D01*
X538756Y835428D01*
X538760Y835408D01*
X538813Y835319D01*
X538862Y835228D01*
X538876Y835214D01*
X538886Y835197D01*
X538965Y835130D01*
X539040Y835058D01*
X539058Y835050D01*
X539073Y835037D01*
X539169Y834998D01*
X539263Y834955D01*
X539283Y834953D01*
X539301Y834945D01*
X539468Y834927D01*
X548918Y834927D01*
X549008Y834941D01*
X549099Y834949D01*
X549129Y834961D01*
X549161Y834966D01*
X549241Y835009D01*
X549325Y835045D01*
X549357Y835071D01*
X549378Y835082D01*
X549400Y835105D01*
X549456Y835150D01*
X555301Y840995D01*
X572658Y840995D01*
X574295Y839358D01*
X574295Y830525D01*
X574309Y830435D01*
X574317Y830344D01*
X574329Y830315D01*
X574334Y830283D01*
X574377Y830202D01*
X574413Y830118D01*
X574439Y830086D01*
X574450Y830065D01*
X574473Y830043D01*
X574518Y829987D01*
X576807Y827698D01*
X576807Y823302D01*
X573698Y820193D01*
X569302Y820193D01*
X566193Y823302D01*
X566193Y827698D01*
X568482Y829987D01*
X568535Y830061D01*
X568595Y830131D01*
X568607Y830161D01*
X568626Y830187D01*
X568653Y830274D01*
X568687Y830359D01*
X568691Y830400D01*
X568698Y830422D01*
X568697Y830454D01*
X568705Y830525D01*
X568705Y834644D01*
X568702Y834664D01*
X568704Y834683D01*
X568682Y834785D01*
X568666Y834887D01*
X568656Y834904D01*
X568652Y834924D01*
X568599Y835013D01*
X568550Y835104D01*
X568536Y835118D01*
X568526Y835135D01*
X568447Y835202D01*
X568372Y835274D01*
X568354Y835282D01*
X568339Y835295D01*
X568243Y835334D01*
X568149Y835377D01*
X568129Y835379D01*
X568111Y835387D01*
X567944Y835405D01*
X557932Y835405D01*
X557842Y835391D01*
X557751Y835383D01*
X557721Y835371D01*
X557689Y835366D01*
X557608Y835323D01*
X557524Y835287D01*
X557492Y835261D01*
X557472Y835250D01*
X557449Y835227D01*
X557393Y835182D01*
X553408Y831197D01*
X551805Y829594D01*
X551764Y829536D01*
X551714Y829484D01*
X551692Y829437D01*
X551662Y829395D01*
X551641Y829326D01*
X551611Y829261D01*
X551605Y829209D01*
X551589Y829159D01*
X551591Y829088D01*
X551583Y829017D01*
X551594Y828966D01*
X551596Y828914D01*
X551620Y828846D01*
X551636Y828776D01*
X551662Y828731D01*
X551680Y828683D01*
X551725Y828627D01*
X551762Y828565D01*
X551801Y828531D01*
X551834Y828491D01*
X551894Y828452D01*
X551949Y828405D01*
X551997Y828386D01*
X552041Y828358D01*
X552110Y828340D01*
X552177Y828313D01*
X552248Y828305D01*
X552279Y828297D01*
X552303Y828299D01*
X552344Y828295D01*
X553775Y828295D01*
X553865Y828309D01*
X553956Y828317D01*
X553985Y828329D01*
X554017Y828334D01*
X554098Y828377D01*
X554182Y828413D01*
X554214Y828439D01*
X554235Y828450D01*
X554257Y828473D01*
X554313Y828518D01*
X556602Y830807D01*
X560998Y830807D01*
X564107Y827698D01*
X564107Y823302D01*
X560998Y820193D01*
X556602Y820193D01*
X554313Y822482D01*
X554239Y822535D01*
X554169Y822595D01*
X554139Y822607D01*
X554113Y822626D01*
X554026Y822653D01*
X553941Y822687D01*
X553900Y822691D01*
X553878Y822698D01*
X553846Y822697D01*
X553775Y822705D01*
X506842Y822705D01*
X501906Y827641D01*
X501848Y827683D01*
X501796Y827733D01*
X501749Y827755D01*
X501707Y827785D01*
X501638Y827806D01*
X501573Y827836D01*
X501521Y827842D01*
X501471Y827857D01*
X501400Y827855D01*
X501329Y827863D01*
X501278Y827852D01*
X501226Y827851D01*
X501158Y827826D01*
X501088Y827811D01*
X501043Y827784D01*
X500995Y827766D01*
X500939Y827722D01*
X500877Y827685D01*
X500843Y827645D01*
X500803Y827613D01*
X500764Y827552D01*
X500717Y827498D01*
X500698Y827450D01*
X500670Y827406D01*
X500652Y827336D01*
X500625Y827270D01*
X500617Y827198D01*
X500609Y827167D01*
X500611Y827144D01*
X500607Y827103D01*
X500607Y823302D01*
X497498Y820193D01*
X493102Y820193D01*
X489993Y823302D01*
X489993Y826539D01*
X489979Y826629D01*
X489971Y826720D01*
X489959Y826750D01*
X489954Y826782D01*
X489911Y826862D01*
X489875Y826946D01*
X489849Y826978D01*
X489838Y826999D01*
X489815Y827021D01*
X489770Y827077D01*
X481665Y835182D01*
X481591Y835235D01*
X481522Y835295D01*
X481492Y835307D01*
X481466Y835326D01*
X481379Y835353D01*
X481294Y835387D01*
X481253Y835391D01*
X481231Y835398D01*
X481198Y835397D01*
X481127Y835405D01*
X424125Y835405D01*
X424035Y835391D01*
X423944Y835383D01*
X423915Y835371D01*
X423883Y835366D01*
X423802Y835323D01*
X423718Y835287D01*
X423686Y835261D01*
X423665Y835250D01*
X423643Y835227D01*
X423587Y835182D01*
X421298Y832893D01*
X417497Y832893D01*
X417426Y832882D01*
X417354Y832880D01*
X417305Y832862D01*
X417254Y832854D01*
X417191Y832820D01*
X417123Y832795D01*
X417083Y832763D01*
X417037Y832738D01*
X416987Y832686D01*
X416931Y832642D01*
X416903Y832598D01*
X416867Y832560D01*
X416837Y832495D01*
X416798Y832435D01*
X416786Y832384D01*
X416764Y832337D01*
X416756Y832266D01*
X416738Y832196D01*
X416742Y832144D01*
X416737Y832093D01*
X416752Y832022D01*
X416757Y831951D01*
X416778Y831903D01*
X416789Y831852D01*
X416826Y831791D01*
X416854Y831725D01*
X416899Y831669D01*
X416915Y831641D01*
X416933Y831626D01*
X416959Y831594D01*
X420035Y828518D01*
X420109Y828465D01*
X420178Y828405D01*
X420208Y828393D01*
X420234Y828374D01*
X420322Y828347D01*
X420406Y828313D01*
X420447Y828309D01*
X420469Y828302D01*
X420502Y828303D01*
X420573Y828295D01*
X445658Y828295D01*
X459995Y813958D01*
X459995Y792425D01*
X460009Y792335D01*
X460017Y792244D01*
X460029Y792215D01*
X460034Y792183D01*
X460077Y792102D01*
X460113Y792018D01*
X460139Y791986D01*
X460150Y791965D01*
X460173Y791943D01*
X460218Y791887D01*
X462507Y789598D01*
X462507Y785202D01*
X459398Y782093D01*
X455002Y782093D01*
X451893Y785202D01*
X451893Y789598D01*
X454182Y791887D01*
X454235Y791961D01*
X454295Y792031D01*
X454307Y792061D01*
X454326Y792087D01*
X454353Y792174D01*
X454387Y792259D01*
X454391Y792300D01*
X454398Y792322D01*
X454397Y792354D01*
X454405Y792425D01*
X454405Y811327D01*
X454391Y811417D01*
X454383Y811508D01*
X454371Y811538D01*
X454366Y811570D01*
X454323Y811650D01*
X454287Y811734D01*
X454261Y811766D01*
X454250Y811787D01*
X454227Y811809D01*
X454182Y811865D01*
X443565Y822482D01*
X443491Y822535D01*
X443422Y822595D01*
X443392Y822607D01*
X443366Y822626D01*
X443279Y822653D01*
X443194Y822687D01*
X443153Y822691D01*
X443131Y822698D01*
X443098Y822697D01*
X443027Y822705D01*
X417942Y822705D01*
X405465Y835182D01*
X405391Y835235D01*
X405322Y835295D01*
X405292Y835307D01*
X405266Y835326D01*
X405179Y835353D01*
X405094Y835387D01*
X405053Y835391D01*
X405031Y835398D01*
X404998Y835397D01*
X404927Y835405D01*
X398725Y835405D01*
X398635Y835391D01*
X398544Y835383D01*
X398515Y835371D01*
X398483Y835366D01*
X398402Y835323D01*
X398318Y835287D01*
X398286Y835261D01*
X398265Y835250D01*
X398243Y835227D01*
X398187Y835182D01*
X395898Y832893D01*
X392097Y832893D01*
X392026Y832882D01*
X391954Y832880D01*
X391905Y832862D01*
X391854Y832854D01*
X391791Y832820D01*
X391723Y832795D01*
X391683Y832763D01*
X391637Y832738D01*
X391587Y832686D01*
X391531Y832642D01*
X391503Y832598D01*
X391467Y832560D01*
X391437Y832495D01*
X391398Y832435D01*
X391386Y832384D01*
X391364Y832337D01*
X391356Y832266D01*
X391338Y832196D01*
X391342Y832144D01*
X391337Y832093D01*
X391352Y832022D01*
X391357Y831951D01*
X391378Y831903D01*
X391389Y831852D01*
X391426Y831791D01*
X391454Y831725D01*
X391499Y831669D01*
X391515Y831641D01*
X391533Y831626D01*
X391559Y831594D01*
X394635Y828518D01*
X396495Y826658D01*
X396495Y816690D01*
X396506Y816619D01*
X396508Y816548D01*
X396526Y816499D01*
X396534Y816447D01*
X396568Y816384D01*
X396593Y816317D01*
X396625Y816276D01*
X396650Y816230D01*
X396702Y816181D01*
X396746Y816125D01*
X396790Y816096D01*
X396828Y816060D01*
X396893Y816030D01*
X396953Y815992D01*
X397004Y815979D01*
X397051Y815957D01*
X397122Y815949D01*
X397192Y815931D01*
X397244Y815936D01*
X397295Y815930D01*
X397366Y815945D01*
X397437Y815951D01*
X397485Y815971D01*
X397536Y815982D01*
X397597Y816019D01*
X397663Y816047D01*
X397719Y816092D01*
X397747Y816108D01*
X397762Y816126D01*
X397794Y816152D01*
X399891Y818249D01*
X403626Y819796D01*
X407668Y819796D01*
X411403Y818249D01*
X414261Y815391D01*
X415808Y811656D01*
X415808Y807614D01*
X414261Y803879D01*
X411403Y801021D01*
X407668Y799474D01*
X403626Y799474D01*
X399891Y801021D01*
X397794Y803118D01*
X397736Y803160D01*
X397684Y803210D01*
X397637Y803231D01*
X397595Y803262D01*
X397526Y803283D01*
X397461Y803313D01*
X397409Y803319D01*
X397359Y803334D01*
X397288Y803332D01*
X397217Y803340D01*
X397166Y803329D01*
X397114Y803328D01*
X397046Y803303D01*
X396976Y803288D01*
X396931Y803261D01*
X396883Y803243D01*
X396827Y803199D01*
X396765Y803162D01*
X396731Y803122D01*
X396691Y803090D01*
X396652Y803029D01*
X396605Y802975D01*
X396586Y802927D01*
X396558Y802883D01*
X396540Y802813D01*
X396513Y802747D01*
X396505Y802675D01*
X396497Y802644D01*
X396499Y802621D01*
X396495Y802580D01*
X396495Y791290D01*
X396506Y791219D01*
X396508Y791148D01*
X396526Y791099D01*
X396534Y791047D01*
X396568Y790984D01*
X396593Y790917D01*
X396625Y790876D01*
X396650Y790830D01*
X396702Y790781D01*
X396746Y790725D01*
X396790Y790696D01*
X396828Y790660D01*
X396893Y790630D01*
X396953Y790592D01*
X397004Y790579D01*
X397051Y790557D01*
X397122Y790549D01*
X397192Y790531D01*
X397244Y790536D01*
X397295Y790530D01*
X397366Y790545D01*
X397437Y790551D01*
X397485Y790571D01*
X397536Y790582D01*
X397597Y790619D01*
X397663Y790647D01*
X397719Y790692D01*
X397747Y790708D01*
X397762Y790726D01*
X397794Y790752D01*
X399891Y792849D01*
X403626Y794396D01*
X407668Y794396D01*
X411403Y792849D01*
X414261Y789991D01*
X415808Y786256D01*
X415808Y782214D01*
X414261Y778479D01*
X411403Y775621D01*
X407668Y774074D01*
X403626Y774074D01*
X399891Y775621D01*
X397794Y777718D01*
X397736Y777760D01*
X397684Y777810D01*
X397637Y777831D01*
X397595Y777862D01*
X397526Y777883D01*
X397461Y777913D01*
X397409Y777919D01*
X397359Y777934D01*
X397288Y777932D01*
X397217Y777940D01*
X397166Y777929D01*
X397114Y777928D01*
X397046Y777903D01*
X396976Y777888D01*
X396931Y777861D01*
X396883Y777843D01*
X396827Y777799D01*
X396765Y777762D01*
X396731Y777722D01*
X396691Y777690D01*
X396652Y777629D01*
X396605Y777575D01*
X396586Y777527D01*
X396558Y777483D01*
X396540Y777413D01*
X396513Y777347D01*
X396505Y777275D01*
X396497Y777244D01*
X396499Y777221D01*
X396495Y777180D01*
X396495Y750773D01*
X396509Y750683D01*
X396517Y750592D01*
X396529Y750562D01*
X396534Y750530D01*
X396577Y750450D01*
X396613Y750366D01*
X396639Y750334D01*
X396650Y750313D01*
X396673Y750291D01*
X396718Y750235D01*
X470835Y676118D01*
X470909Y676065D01*
X470978Y676005D01*
X471008Y675993D01*
X471034Y675974D01*
X471121Y675947D01*
X471206Y675913D01*
X471247Y675909D01*
X471269Y675902D01*
X471302Y675903D01*
X471373Y675895D01*
X534558Y675895D01*
X544523Y665930D01*
X544597Y665877D01*
X544666Y665817D01*
X544696Y665805D01*
X544722Y665786D01*
X544809Y665759D01*
X544894Y665725D01*
X544935Y665721D01*
X544957Y665714D01*
X544990Y665715D01*
X545061Y665707D01*
X548298Y665707D01*
X551407Y662598D01*
X551407Y658202D01*
X548298Y655093D01*
X543902Y655093D01*
X540793Y658202D01*
X540793Y661439D01*
X540779Y661529D01*
X540771Y661620D01*
X540759Y661650D01*
X540754Y661682D01*
X540711Y661762D01*
X540675Y661846D01*
X540649Y661878D01*
X540638Y661899D01*
X540615Y661921D01*
X540570Y661977D01*
X532465Y670082D01*
X532391Y670135D01*
X532322Y670195D01*
X532292Y670207D01*
X532266Y670226D01*
X532179Y670253D01*
X532094Y670287D01*
X532053Y670291D01*
X532031Y670298D01*
X531998Y670297D01*
X531927Y670305D01*
X468742Y670305D01*
X390905Y748142D01*
X390905Y779588D01*
X390890Y779684D01*
X390880Y779781D01*
X390870Y779805D01*
X390866Y779831D01*
X390820Y779917D01*
X390780Y780006D01*
X390763Y780025D01*
X390750Y780048D01*
X390680Y780115D01*
X390614Y780187D01*
X390591Y780200D01*
X390572Y780218D01*
X390484Y780259D01*
X390398Y780306D01*
X390373Y780310D01*
X390349Y780321D01*
X390252Y780332D01*
X390156Y780349D01*
X390130Y780345D01*
X390105Y780348D01*
X390009Y780328D01*
X389913Y780313D01*
X389890Y780302D01*
X389864Y780296D01*
X389781Y780246D01*
X389694Y780202D01*
X389675Y780183D01*
X389653Y780170D01*
X389590Y780096D01*
X389522Y780026D01*
X389506Y779998D01*
X389493Y779983D01*
X389481Y779952D01*
X389441Y779879D01*
X388861Y778479D01*
X386003Y775621D01*
X382268Y774074D01*
X378226Y774074D01*
X374491Y775621D01*
X371633Y778479D01*
X370086Y782214D01*
X370086Y786256D01*
X371633Y789991D01*
X374491Y792849D01*
X378226Y794396D01*
X382268Y794396D01*
X386003Y792849D01*
X388861Y789991D01*
X389441Y788591D01*
X389492Y788508D01*
X389538Y788422D01*
X389556Y788404D01*
X389570Y788382D01*
X389646Y788319D01*
X389716Y788252D01*
X389740Y788241D01*
X389760Y788225D01*
X389851Y788190D01*
X389939Y788149D01*
X389965Y788146D01*
X389989Y788137D01*
X390087Y788132D01*
X390183Y788122D01*
X390209Y788127D01*
X390235Y788126D01*
X390329Y788153D01*
X390424Y788174D01*
X390446Y788187D01*
X390471Y788195D01*
X390551Y788250D01*
X390635Y788300D01*
X390652Y788320D01*
X390673Y788335D01*
X390732Y788413D01*
X390795Y788487D01*
X390805Y788511D01*
X390820Y788532D01*
X390850Y788625D01*
X390887Y788715D01*
X390890Y788748D01*
X390896Y788766D01*
X390896Y788799D01*
X390905Y788882D01*
X390905Y804988D01*
X390890Y805084D01*
X390880Y805181D01*
X390870Y805205D01*
X390866Y805231D01*
X390820Y805317D01*
X390780Y805406D01*
X390763Y805425D01*
X390750Y805448D01*
X390680Y805515D01*
X390614Y805587D01*
X390591Y805600D01*
X390572Y805618D01*
X390484Y805659D01*
X390398Y805706D01*
X390373Y805710D01*
X390349Y805721D01*
X390252Y805732D01*
X390156Y805749D01*
X390130Y805745D01*
X390105Y805748D01*
X390009Y805728D01*
X389913Y805713D01*
X389890Y805702D01*
X389864Y805696D01*
X389781Y805646D01*
X389694Y805602D01*
X389675Y805583D01*
X389653Y805570D01*
X389590Y805496D01*
X389522Y805426D01*
X389506Y805398D01*
X389493Y805383D01*
X389481Y805352D01*
X389441Y805279D01*
X388861Y803879D01*
X386003Y801021D01*
X382268Y799474D01*
X378226Y799474D01*
X374491Y801021D01*
X371633Y803879D01*
X370086Y807614D01*
X370086Y811656D01*
X371633Y815391D01*
X374491Y818249D01*
X378226Y819796D01*
X382268Y819796D01*
X386003Y818249D01*
X388861Y815391D01*
X389441Y813991D01*
X389492Y813908D01*
X389538Y813822D01*
X389556Y813804D01*
X389570Y813782D01*
X389646Y813719D01*
X389716Y813652D01*
X389740Y813641D01*
X389760Y813625D01*
X389851Y813590D01*
X389939Y813549D01*
X389965Y813546D01*
X389989Y813537D01*
X390087Y813532D01*
X390183Y813522D01*
X390209Y813527D01*
X390235Y813526D01*
X390329Y813553D01*
X390424Y813574D01*
X390446Y813587D01*
X390471Y813595D01*
X390551Y813650D01*
X390635Y813700D01*
X390652Y813720D01*
X390673Y813735D01*
X390732Y813813D01*
X390795Y813887D01*
X390805Y813911D01*
X390820Y813932D01*
X390850Y814025D01*
X390887Y814115D01*
X390890Y814148D01*
X390896Y814166D01*
X390896Y814199D01*
X390905Y814282D01*
X390905Y824027D01*
X390891Y824117D01*
X390883Y824208D01*
X390871Y824238D01*
X390866Y824270D01*
X390823Y824350D01*
X390787Y824434D01*
X390761Y824466D01*
X390750Y824487D01*
X390727Y824509D01*
X390682Y824565D01*
X380065Y835182D01*
X379991Y835235D01*
X379922Y835295D01*
X379892Y835307D01*
X379866Y835326D01*
X379779Y835353D01*
X379694Y835387D01*
X379653Y835391D01*
X379631Y835398D01*
X379598Y835397D01*
X379527Y835405D01*
X373325Y835405D01*
X373235Y835391D01*
X373144Y835383D01*
X373115Y835371D01*
X373083Y835366D01*
X373002Y835323D01*
X372918Y835287D01*
X372886Y835261D01*
X372865Y835250D01*
X372843Y835227D01*
X372787Y835182D01*
X370498Y832893D01*
X366102Y832893D01*
X362993Y836002D01*
X362993Y840398D01*
X366102Y843507D01*
X370498Y843507D01*
X372787Y841218D01*
X372861Y841165D01*
X372931Y841105D01*
X372961Y841093D01*
X372987Y841074D01*
X373074Y841047D01*
X373159Y841013D01*
X373200Y841009D01*
X373222Y841002D01*
X373254Y841003D01*
X373325Y840995D01*
X382158Y840995D01*
X387094Y836059D01*
X387152Y836017D01*
X387204Y835967D01*
X387251Y835945D01*
X387293Y835915D01*
X387362Y835894D01*
X387427Y835864D01*
X387479Y835858D01*
X387529Y835843D01*
X387600Y835845D01*
X387671Y835837D01*
X387722Y835848D01*
X387774Y835849D01*
X387842Y835874D01*
X387912Y835889D01*
X387957Y835916D01*
X388005Y835934D01*
X388061Y835978D01*
X388123Y836015D01*
X388157Y836055D01*
X388197Y836087D01*
X388236Y836148D01*
X388283Y836202D01*
X388302Y836250D01*
X388330Y836294D01*
X388348Y836364D01*
X388375Y836430D01*
X388383Y836502D01*
X388391Y836533D01*
X388389Y836556D01*
X388393Y836597D01*
X388393Y840398D01*
X391502Y843507D01*
X395898Y843507D01*
X398187Y841218D01*
X398261Y841165D01*
X398331Y841105D01*
X398361Y841093D01*
X398387Y841074D01*
X398474Y841047D01*
X398559Y841013D01*
X398600Y841009D01*
X398622Y841002D01*
X398654Y841003D01*
X398725Y840995D01*
X407558Y840995D01*
X412494Y836059D01*
X412552Y836017D01*
X412604Y835967D01*
X412651Y835945D01*
X412693Y835915D01*
X412762Y835894D01*
X412827Y835864D01*
X412879Y835858D01*
X412929Y835843D01*
X413000Y835845D01*
X413071Y835837D01*
X413122Y835848D01*
X413174Y835849D01*
X413242Y835874D01*
X413312Y835889D01*
X413357Y835916D01*
X413405Y835934D01*
X413461Y835978D01*
X413523Y836015D01*
X413557Y836055D01*
X413597Y836087D01*
X413636Y836148D01*
X413683Y836202D01*
X413702Y836250D01*
X413730Y836294D01*
X413748Y836364D01*
X413775Y836430D01*
X413783Y836502D01*
X413791Y836533D01*
X413789Y836556D01*
X413793Y836597D01*
X413793Y840398D01*
X416902Y843507D01*
X421298Y843507D01*
X423587Y841218D01*
X423661Y841165D01*
X423731Y841105D01*
X423761Y841093D01*
X423787Y841074D01*
X423874Y841047D01*
X423959Y841013D01*
X424000Y841009D01*
X424022Y841002D01*
X424054Y841003D01*
X424125Y840995D01*
X483758Y840995D01*
X493723Y831030D01*
X493797Y830977D01*
X493866Y830917D01*
X493896Y830905D01*
X493922Y830886D01*
X494009Y830859D01*
X494094Y830825D01*
X494135Y830821D01*
X494157Y830814D01*
X494190Y830815D01*
X494261Y830807D01*
X496903Y830807D01*
X496974Y830818D01*
X497046Y830820D01*
X497095Y830838D01*
X497146Y830846D01*
X497209Y830880D01*
X497277Y830905D01*
X497317Y830937D01*
X497363Y830962D01*
X497413Y831014D01*
X497469Y831058D01*
X497497Y831102D01*
X497533Y831140D01*
X497563Y831205D01*
X497602Y831265D01*
X497614Y831316D01*
X497636Y831363D01*
X497644Y831434D01*
X497662Y831504D01*
X497658Y831556D01*
X497663Y831607D01*
X497648Y831678D01*
X497643Y831749D01*
X497622Y831797D01*
X497611Y831848D01*
X497574Y831909D01*
X497546Y831975D01*
X497501Y832031D01*
X497485Y832059D01*
X497467Y832074D01*
X497441Y832106D01*
X481665Y847882D01*
X481591Y847935D01*
X481522Y847995D01*
X481492Y848007D01*
X481466Y848026D01*
X481379Y848053D01*
X481294Y848087D01*
X481253Y848091D01*
X481231Y848098D01*
X481198Y848097D01*
X481127Y848105D01*
X357073Y848105D01*
X356983Y848091D01*
X356892Y848083D01*
X356862Y848071D01*
X356830Y848066D01*
X356750Y848023D01*
X356666Y847987D01*
X356634Y847961D01*
X356613Y847950D01*
X356591Y847927D01*
X356535Y847882D01*
X213759Y705106D01*
X213717Y705048D01*
X213667Y704996D01*
X213645Y704949D01*
X213615Y704907D01*
X213594Y704838D01*
X213564Y704773D01*
X213558Y704721D01*
X213543Y704671D01*
X213545Y704600D01*
X213537Y704529D01*
X213548Y704478D01*
X213549Y704426D01*
X213574Y704358D01*
X213589Y704288D01*
X213616Y704244D01*
X213634Y704195D01*
X213678Y704139D01*
X213715Y704077D01*
X213755Y704043D01*
X213787Y704003D01*
X213848Y703964D01*
X213902Y703917D01*
X213950Y703898D01*
X213994Y703870D01*
X214064Y703852D01*
X214130Y703825D01*
X214202Y703817D01*
X214233Y703809D01*
X214256Y703811D01*
X214297Y703807D01*
X218098Y703807D01*
X220387Y701518D01*
X220461Y701465D01*
X220531Y701405D01*
X220561Y701393D01*
X220587Y701374D01*
X220674Y701347D01*
X220759Y701313D01*
X220800Y701309D01*
X220822Y701302D01*
X220854Y701303D01*
X220925Y701295D01*
X242458Y701295D01*
X244318Y699435D01*
X256795Y686958D01*
X256795Y649173D01*
X256809Y649083D01*
X256817Y648992D01*
X256829Y648962D01*
X256834Y648930D01*
X256877Y648849D01*
X256913Y648766D01*
X256939Y648733D01*
X256950Y648713D01*
X256973Y648691D01*
X257018Y648635D01*
X267635Y638018D01*
X267709Y637965D01*
X267778Y637905D01*
X267808Y637893D01*
X267834Y637874D01*
X267921Y637847D01*
X268006Y637813D01*
X268047Y637809D01*
X268069Y637802D01*
X268102Y637803D01*
X268173Y637795D01*
X455727Y637795D01*
X455817Y637809D01*
X455908Y637817D01*
X455938Y637829D01*
X455970Y637834D01*
X456050Y637877D01*
X456134Y637913D01*
X456166Y637939D01*
X456187Y637950D01*
X456209Y637973D01*
X456265Y638018D01*
X468742Y650495D01*
X557327Y650495D01*
X557417Y650509D01*
X557508Y650517D01*
X557538Y650529D01*
X557570Y650534D01*
X557650Y650577D01*
X557734Y650613D01*
X557766Y650639D01*
X557787Y650650D01*
X557809Y650673D01*
X557865Y650718D01*
X565970Y658823D01*
X566023Y658897D01*
X566083Y658966D01*
X566095Y658996D01*
X566114Y659022D01*
X566141Y659109D01*
X566175Y659194D01*
X566179Y659235D01*
X566186Y659257D01*
X566185Y659290D01*
X566193Y659361D01*
X566193Y662598D01*
X569302Y665707D01*
X573698Y665707D01*
X576807Y662598D01*
X576807Y658202D01*
X573698Y655093D01*
X570461Y655093D01*
X570371Y655079D01*
X570280Y655071D01*
X570250Y655059D01*
X570218Y655054D01*
X570138Y655011D01*
X570054Y654975D01*
X570021Y654949D01*
X570001Y654938D01*
X569979Y654915D01*
X569923Y654870D01*
X569359Y654306D01*
X569317Y654248D01*
X569267Y654196D01*
X569245Y654149D01*
X569215Y654107D01*
X569194Y654038D01*
X569164Y653973D01*
X569158Y653921D01*
X569143Y653871D01*
X569145Y653800D01*
X569137Y653729D01*
X569148Y653678D01*
X569149Y653626D01*
X569174Y653558D01*
X569189Y653488D01*
X569216Y653443D01*
X569234Y653395D01*
X569278Y653339D01*
X569315Y653277D01*
X569355Y653243D01*
X569387Y653203D01*
X569447Y653164D01*
X569502Y653117D01*
X569550Y653098D01*
X569594Y653070D01*
X569663Y653052D01*
X569730Y653025D01*
X569801Y653017D01*
X569833Y653009D01*
X569856Y653011D01*
X569897Y653007D01*
X573698Y653007D01*
X576807Y649898D01*
X576807Y645502D01*
X573698Y642393D01*
X570461Y642393D01*
X570371Y642379D01*
X570280Y642371D01*
X570250Y642359D01*
X570218Y642354D01*
X570138Y642311D01*
X570054Y642275D01*
X570022Y642249D01*
X570001Y642238D01*
X569979Y642215D01*
X569923Y642170D01*
X559958Y632205D01*
X484073Y632205D01*
X483983Y632191D01*
X483892Y632183D01*
X483862Y632171D01*
X483830Y632166D01*
X483750Y632123D01*
X483666Y632087D01*
X483634Y632061D01*
X483613Y632050D01*
X483591Y632027D01*
X483535Y631982D01*
X471058Y619505D01*
X268173Y619505D01*
X268083Y619491D01*
X267992Y619483D01*
X267962Y619471D01*
X267930Y619466D01*
X267850Y619423D01*
X267766Y619387D01*
X267734Y619361D01*
X267713Y619350D01*
X267691Y619327D01*
X267635Y619282D01*
X257018Y608665D01*
X256965Y608591D01*
X256905Y608522D01*
X256893Y608492D01*
X256874Y608466D01*
X256847Y608379D01*
X256813Y608294D01*
X256809Y608253D01*
X256802Y608231D01*
X256803Y608198D01*
X256795Y608127D01*
X256795Y583042D01*
X242458Y568705D01*
X233625Y568705D01*
X233535Y568691D01*
X233444Y568683D01*
X233415Y568671D01*
X233383Y568666D01*
X233302Y568623D01*
X233218Y568587D01*
X233186Y568561D01*
X233165Y568550D01*
X233143Y568527D01*
X233087Y568482D01*
X230798Y566193D01*
X226402Y566193D01*
X223293Y569302D01*
X223293Y573698D01*
X226402Y576807D01*
X230798Y576807D01*
X233087Y574518D01*
X233161Y574465D01*
X233231Y574405D01*
X233261Y574393D01*
X233287Y574374D01*
X233374Y574347D01*
X233459Y574313D01*
X233500Y574309D01*
X233522Y574302D01*
X233554Y574303D01*
X233625Y574295D01*
X239827Y574295D01*
X239917Y574309D01*
X240008Y574317D01*
X240038Y574329D01*
X240070Y574334D01*
X240150Y574377D01*
X240234Y574413D01*
X240266Y574439D01*
X240287Y574450D01*
X240309Y574473D01*
X240365Y574518D01*
X250982Y585135D01*
X251035Y585209D01*
X251095Y585278D01*
X251107Y585308D01*
X251126Y585334D01*
X251153Y585421D01*
X251187Y585506D01*
X251191Y585547D01*
X251198Y585569D01*
X251197Y585602D01*
X251205Y585673D01*
X251205Y610758D01*
X265542Y625095D01*
X468427Y625095D01*
X468517Y625109D01*
X468608Y625117D01*
X468638Y625129D01*
X468670Y625134D01*
X468750Y625177D01*
X468834Y625213D01*
X468866Y625239D01*
X468887Y625250D01*
X468909Y625273D01*
X468965Y625318D01*
X481442Y637795D01*
X557327Y637795D01*
X557417Y637809D01*
X557508Y637817D01*
X557538Y637829D01*
X557570Y637834D01*
X557650Y637877D01*
X557734Y637913D01*
X557766Y637939D01*
X557787Y637950D01*
X557809Y637973D01*
X557865Y638018D01*
X565970Y646123D01*
X566023Y646197D01*
X566083Y646266D01*
X566095Y646296D01*
X566114Y646322D01*
X566141Y646409D01*
X566175Y646494D01*
X566179Y646535D01*
X566186Y646557D01*
X566185Y646590D01*
X566193Y646661D01*
X566193Y649303D01*
X566182Y649374D01*
X566180Y649446D01*
X566162Y649495D01*
X566154Y649546D01*
X566120Y649609D01*
X566095Y649677D01*
X566063Y649717D01*
X566038Y649763D01*
X565986Y649813D01*
X565942Y649869D01*
X565898Y649897D01*
X565860Y649933D01*
X565795Y649963D01*
X565735Y650002D01*
X565684Y650014D01*
X565637Y650036D01*
X565566Y650044D01*
X565496Y650062D01*
X565444Y650058D01*
X565393Y650063D01*
X565322Y650048D01*
X565251Y650043D01*
X565203Y650022D01*
X565152Y650011D01*
X565091Y649974D01*
X565025Y649946D01*
X564969Y649901D01*
X564941Y649885D01*
X564926Y649867D01*
X564894Y649841D01*
X559958Y644905D01*
X471373Y644905D01*
X471283Y644891D01*
X471192Y644883D01*
X471162Y644871D01*
X471130Y644866D01*
X471050Y644823D01*
X470966Y644787D01*
X470934Y644761D01*
X470913Y644750D01*
X470891Y644727D01*
X470835Y644682D01*
X458358Y632205D01*
X265542Y632205D01*
X263682Y634065D01*
X253065Y644682D01*
X251205Y646542D01*
X251205Y684327D01*
X251191Y684417D01*
X251183Y684508D01*
X251171Y684538D01*
X251166Y684570D01*
X251123Y684650D01*
X251087Y684734D01*
X251061Y684766D01*
X251050Y684787D01*
X251027Y684809D01*
X250982Y684865D01*
X240365Y695482D01*
X240291Y695535D01*
X240222Y695595D01*
X240192Y695607D01*
X240166Y695626D01*
X240079Y695653D01*
X239994Y695687D01*
X239953Y695691D01*
X239931Y695698D01*
X239898Y695697D01*
X239827Y695705D01*
X220925Y695705D01*
X220835Y695691D01*
X220744Y695683D01*
X220715Y695671D01*
X220683Y695666D01*
X220602Y695623D01*
X220518Y695587D01*
X220486Y695561D01*
X220465Y695550D01*
X220443Y695527D01*
X220387Y695482D01*
X218098Y693193D01*
X213702Y693193D01*
X210593Y696302D01*
X210593Y700103D01*
X210591Y700119D01*
X210592Y700132D01*
X210581Y700181D01*
X210580Y700246D01*
X210562Y700295D01*
X210554Y700346D01*
X210540Y700371D01*
X210540Y700372D01*
X210536Y700379D01*
X210520Y700409D01*
X210495Y700477D01*
X210463Y700517D01*
X210438Y700563D01*
X210386Y700613D01*
X210342Y700669D01*
X210298Y700697D01*
X210260Y700733D01*
X210195Y700763D01*
X210135Y700802D01*
X210084Y700814D01*
X210037Y700836D01*
X209966Y700844D01*
X209896Y700862D01*
X209844Y700858D01*
X209793Y700863D01*
X209722Y700848D01*
X209651Y700843D01*
X209603Y700822D01*
X209552Y700811D01*
X209491Y700774D01*
X209425Y700746D01*
X209374Y700706D01*
X209361Y700699D01*
X209357Y700694D01*
X209341Y700685D01*
X209326Y700667D01*
X209294Y700641D01*
X191006Y682353D01*
X190963Y682294D01*
X190922Y682251D01*
X190915Y682235D01*
X190893Y682210D01*
X190881Y682180D01*
X190862Y682154D01*
X190835Y682067D01*
X190828Y682049D01*
X190818Y682028D01*
X190818Y682023D01*
X190801Y681982D01*
X190797Y681941D01*
X190790Y681919D01*
X190791Y681886D01*
X190783Y681815D01*
X190783Y651701D01*
X91918Y552836D01*
X91865Y552762D01*
X91805Y552693D01*
X91793Y552663D01*
X91774Y552637D01*
X91747Y552550D01*
X91713Y552465D01*
X91709Y552424D01*
X91702Y552402D01*
X91703Y552369D01*
X91695Y552298D01*
X91695Y534873D01*
X91696Y534865D01*
X91696Y534862D01*
X91699Y534847D01*
X91709Y534783D01*
X91717Y534692D01*
X91729Y534662D01*
X91734Y534630D01*
X91777Y534550D01*
X91813Y534466D01*
X91839Y534434D01*
X91850Y534413D01*
X91873Y534391D01*
X91918Y534335D01*
X115235Y511018D01*
X115309Y510965D01*
X115378Y510905D01*
X115408Y510893D01*
X115434Y510874D01*
X115521Y510847D01*
X115606Y510813D01*
X115647Y510809D01*
X115669Y510802D01*
X115702Y510803D01*
X115773Y510795D01*
X178958Y510795D01*
X193295Y496458D01*
X193295Y468742D01*
X179009Y454456D01*
X178956Y454382D01*
X178896Y454313D01*
X178884Y454283D01*
X178865Y454257D01*
X178838Y454170D01*
X178804Y454085D01*
X178800Y454044D01*
X178793Y454022D01*
X178794Y453989D01*
X178786Y453918D01*
X178786Y446006D01*
X177595Y444815D01*
X160831Y444815D01*
X159640Y446006D01*
X159640Y462770D01*
X160831Y463961D01*
X177595Y463961D01*
X178563Y462992D01*
X178580Y462981D01*
X178592Y462965D01*
X178679Y462909D01*
X178763Y462849D01*
X178782Y462843D01*
X178799Y462832D01*
X178899Y462807D01*
X178998Y462776D01*
X179018Y462777D01*
X179037Y462772D01*
X179140Y462780D01*
X179244Y462783D01*
X179263Y462790D01*
X179283Y462791D01*
X179378Y462832D01*
X179475Y462867D01*
X179491Y462880D01*
X179509Y462888D01*
X179640Y462992D01*
X187482Y470835D01*
X187535Y470909D01*
X187595Y470978D01*
X187607Y471008D01*
X187626Y471034D01*
X187653Y471121D01*
X187687Y471206D01*
X187691Y471247D01*
X187698Y471269D01*
X187697Y471302D01*
X187705Y471373D01*
X187705Y493827D01*
X187691Y493917D01*
X187683Y494008D01*
X187671Y494038D01*
X187666Y494070D01*
X187623Y494150D01*
X187587Y494234D01*
X187561Y494266D01*
X187550Y494287D01*
X187527Y494309D01*
X187482Y494365D01*
X176865Y504982D01*
X176791Y505035D01*
X176722Y505095D01*
X176692Y505107D01*
X176666Y505126D01*
X176579Y505153D01*
X176494Y505187D01*
X176453Y505191D01*
X176431Y505198D01*
X176398Y505197D01*
X176327Y505205D01*
X113087Y505205D01*
X113067Y505202D01*
X113048Y505204D01*
X112946Y505182D01*
X112844Y505166D01*
X112827Y505156D01*
X112807Y505152D01*
X112718Y505099D01*
X112627Y505050D01*
X112613Y505036D01*
X112596Y505026D01*
X112529Y504947D01*
X112457Y504872D01*
X112449Y504854D01*
X112436Y504839D01*
X112397Y504743D01*
X112354Y504649D01*
X112352Y504629D01*
X112344Y504611D01*
X112326Y504444D01*
X112326Y473466D01*
X111135Y472275D01*
X77291Y472275D01*
X76100Y473466D01*
X76100Y507310D01*
X77291Y508501D01*
X108009Y508501D01*
X108080Y508512D01*
X108152Y508514D01*
X108201Y508532D01*
X108252Y508540D01*
X108315Y508574D01*
X108383Y508599D01*
X108423Y508631D01*
X108469Y508656D01*
X108519Y508708D01*
X108575Y508752D01*
X108603Y508796D01*
X108639Y508834D01*
X108669Y508899D01*
X108708Y508959D01*
X108720Y509010D01*
X108742Y509057D01*
X108750Y509128D01*
X108768Y509198D01*
X108764Y509250D01*
X108769Y509301D01*
X108754Y509372D01*
X108749Y509443D01*
X108728Y509491D01*
X108717Y509542D01*
X108680Y509603D01*
X108652Y509669D01*
X108607Y509725D01*
X108591Y509753D01*
X108573Y509768D01*
X108547Y509800D01*
X86105Y532242D01*
X86105Y550215D01*
X86094Y550286D01*
X86092Y550358D01*
X86074Y550407D01*
X86066Y550458D01*
X86032Y550521D01*
X86007Y550589D01*
X85975Y550629D01*
X85950Y550675D01*
X85899Y550725D01*
X85854Y550781D01*
X85810Y550809D01*
X85772Y550845D01*
X85707Y550875D01*
X85647Y550914D01*
X85596Y550926D01*
X85549Y550948D01*
X85478Y550956D01*
X85408Y550974D01*
X85356Y550970D01*
X85305Y550975D01*
X85234Y550960D01*
X85163Y550955D01*
X85115Y550934D01*
X85064Y550923D01*
X85003Y550886D01*
X84937Y550858D01*
X84881Y550813D01*
X84853Y550797D01*
X84838Y550779D01*
X84806Y550753D01*
X3018Y468965D01*
X2965Y468891D01*
X2905Y468822D01*
X2893Y468792D01*
X2874Y468766D01*
X2847Y468679D01*
X2813Y468594D01*
X2809Y468553D01*
X2802Y468531D01*
X2803Y468498D01*
X2795Y468427D01*
X2795Y420573D01*
X2809Y420483D01*
X2817Y420392D01*
X2829Y420362D01*
X2834Y420330D01*
X2877Y420250D01*
X2913Y420166D01*
X2939Y420134D01*
X2950Y420113D01*
X2973Y420091D01*
X3018Y420035D01*
X13341Y409712D01*
X13399Y409670D01*
X13451Y409620D01*
X13498Y409598D01*
X13540Y409568D01*
X13609Y409547D01*
X13674Y409517D01*
X13726Y409511D01*
X13776Y409496D01*
X13847Y409498D01*
X13918Y409490D01*
X13969Y409501D01*
X14021Y409502D01*
X14089Y409527D01*
X14159Y409542D01*
X14204Y409569D01*
X14252Y409587D01*
X14308Y409631D01*
X14370Y409668D01*
X14404Y409708D01*
X14444Y409740D01*
X14483Y409801D01*
X14530Y409855D01*
X14549Y409903D01*
X14577Y409947D01*
X14595Y410017D01*
X14622Y410083D01*
X14630Y410155D01*
X14638Y410186D01*
X14636Y410209D01*
X14640Y410250D01*
X14640Y412770D01*
X15831Y413961D01*
X32595Y413961D01*
X33786Y412770D01*
X33786Y396006D01*
X32595Y394815D01*
X15831Y394815D01*
G37*
%LPD*%
%LPC*%
G36*
X760096Y324727D02*
X760096Y324727D01*
X756577Y326185D01*
X753885Y328877D01*
X752427Y332396D01*
X752427Y336204D01*
X753885Y339723D01*
X756577Y342415D01*
X758735Y343309D01*
X758835Y343371D01*
X758935Y343431D01*
X758939Y343435D01*
X758944Y343439D01*
X759019Y343529D01*
X759095Y343618D01*
X759097Y343623D01*
X759101Y343628D01*
X759143Y343737D01*
X759187Y343846D01*
X759188Y343853D01*
X759189Y343858D01*
X759190Y343876D01*
X759205Y344012D01*
X759205Y354127D01*
X759191Y354217D01*
X759183Y354308D01*
X759171Y354338D01*
X759166Y354370D01*
X759123Y354450D01*
X759087Y354534D01*
X759061Y354566D01*
X759050Y354587D01*
X759027Y354609D01*
X758982Y354665D01*
X721105Y392542D01*
X721105Y595427D01*
X721091Y595517D01*
X721083Y595608D01*
X721071Y595638D01*
X721066Y595670D01*
X721023Y595750D01*
X720987Y595834D01*
X720961Y595866D01*
X720950Y595887D01*
X720927Y595909D01*
X720882Y595965D01*
X710265Y606582D01*
X710191Y606635D01*
X710122Y606695D01*
X710092Y606707D01*
X710066Y606726D01*
X709979Y606753D01*
X709894Y606787D01*
X709853Y606791D01*
X709831Y606798D01*
X709798Y606797D01*
X709727Y606805D01*
X576525Y606805D01*
X576435Y606791D01*
X576344Y606783D01*
X576315Y606771D01*
X576283Y606766D01*
X576202Y606723D01*
X576118Y606687D01*
X576086Y606661D01*
X576065Y606650D01*
X576043Y606627D01*
X575987Y606582D01*
X573698Y604293D01*
X569302Y604293D01*
X566193Y607402D01*
X566193Y611798D01*
X569302Y614907D01*
X573698Y614907D01*
X575987Y612618D01*
X576061Y612565D01*
X576131Y612505D01*
X576161Y612493D01*
X576187Y612474D01*
X576274Y612447D01*
X576359Y612413D01*
X576400Y612409D01*
X576422Y612402D01*
X576454Y612403D01*
X576525Y612395D01*
X712358Y612395D01*
X726695Y598058D01*
X726695Y395173D01*
X726709Y395083D01*
X726717Y394992D01*
X726729Y394962D01*
X726734Y394930D01*
X726777Y394850D01*
X726813Y394766D01*
X726839Y394734D01*
X726850Y394713D01*
X726873Y394691D01*
X726918Y394635D01*
X764795Y356758D01*
X764795Y344012D01*
X764814Y343898D01*
X764831Y343782D01*
X764833Y343776D01*
X764834Y343770D01*
X764889Y343667D01*
X764942Y343562D01*
X764947Y343558D01*
X764950Y343552D01*
X765034Y343473D01*
X765118Y343390D01*
X765124Y343386D01*
X765128Y343383D01*
X765145Y343375D01*
X765265Y343309D01*
X767423Y342415D01*
X770115Y339723D01*
X771573Y336204D01*
X771573Y332396D01*
X770115Y328877D01*
X767423Y326185D01*
X763904Y324727D01*
X760096Y324727D01*
G37*
%LPD*%
%LPC*%
G36*
X734696Y324727D02*
X734696Y324727D01*
X731177Y326185D01*
X728485Y328877D01*
X727027Y332396D01*
X727027Y336204D01*
X728485Y339723D01*
X731177Y342415D01*
X733335Y343309D01*
X733435Y343371D01*
X733535Y343431D01*
X733539Y343435D01*
X733544Y343439D01*
X733619Y343529D01*
X733695Y343618D01*
X733697Y343623D01*
X733701Y343628D01*
X733743Y343737D01*
X733787Y343846D01*
X733788Y343853D01*
X733789Y343858D01*
X733790Y343876D01*
X733805Y344012D01*
X733805Y354127D01*
X733791Y354217D01*
X733783Y354308D01*
X733771Y354338D01*
X733766Y354370D01*
X733723Y354450D01*
X733687Y354534D01*
X733661Y354566D01*
X733650Y354587D01*
X733627Y354609D01*
X733582Y354665D01*
X695705Y392542D01*
X695705Y582727D01*
X695691Y582817D01*
X695683Y582908D01*
X695671Y582938D01*
X695666Y582970D01*
X695623Y583050D01*
X695587Y583134D01*
X695561Y583166D01*
X695550Y583187D01*
X695527Y583209D01*
X695482Y583265D01*
X684865Y593882D01*
X684791Y593935D01*
X684722Y593995D01*
X684692Y594007D01*
X684666Y594026D01*
X684579Y594053D01*
X684494Y594087D01*
X684453Y594091D01*
X684431Y594098D01*
X684398Y594097D01*
X684327Y594105D01*
X576525Y594105D01*
X576435Y594091D01*
X576344Y594083D01*
X576315Y594071D01*
X576283Y594066D01*
X576202Y594023D01*
X576118Y593987D01*
X576086Y593961D01*
X576065Y593950D01*
X576043Y593927D01*
X575987Y593882D01*
X573698Y591593D01*
X569302Y591593D01*
X566193Y594702D01*
X566193Y599098D01*
X569302Y602207D01*
X573698Y602207D01*
X575987Y599918D01*
X576061Y599865D01*
X576131Y599805D01*
X576161Y599793D01*
X576187Y599774D01*
X576274Y599747D01*
X576359Y599713D01*
X576400Y599709D01*
X576422Y599702D01*
X576454Y599703D01*
X576525Y599695D01*
X686958Y599695D01*
X701295Y585358D01*
X701295Y395173D01*
X701309Y395083D01*
X701317Y394992D01*
X701329Y394962D01*
X701334Y394930D01*
X701377Y394850D01*
X701413Y394766D01*
X701439Y394734D01*
X701450Y394713D01*
X701473Y394691D01*
X701518Y394635D01*
X739395Y356758D01*
X739395Y344012D01*
X739414Y343898D01*
X739431Y343782D01*
X739433Y343776D01*
X739434Y343770D01*
X739489Y343667D01*
X739542Y343562D01*
X739547Y343558D01*
X739550Y343552D01*
X739634Y343473D01*
X739718Y343390D01*
X739724Y343386D01*
X739728Y343383D01*
X739745Y343375D01*
X739865Y343309D01*
X742023Y342415D01*
X744715Y339723D01*
X746173Y336204D01*
X746173Y332396D01*
X744715Y328877D01*
X742023Y326185D01*
X738504Y324727D01*
X734696Y324727D01*
G37*
%LPD*%
%LPC*%
G36*
X456042Y352805D02*
X456042Y352805D01*
X433377Y375470D01*
X433303Y375523D01*
X433234Y375583D01*
X433204Y375595D01*
X433178Y375614D01*
X433091Y375641D01*
X433006Y375675D01*
X432965Y375679D01*
X432943Y375686D01*
X432910Y375685D01*
X432839Y375693D01*
X429602Y375693D01*
X426493Y378802D01*
X426493Y383198D01*
X429602Y386307D01*
X433998Y386307D01*
X437107Y383198D01*
X437107Y379961D01*
X437121Y379871D01*
X437129Y379780D01*
X437141Y379750D01*
X437146Y379718D01*
X437189Y379638D01*
X437225Y379554D01*
X437251Y379522D01*
X437262Y379501D01*
X437285Y379479D01*
X437330Y379423D01*
X458135Y358618D01*
X458209Y358565D01*
X458278Y358505D01*
X458308Y358493D01*
X458334Y358474D01*
X458421Y358447D01*
X458506Y358413D01*
X458547Y358409D01*
X458569Y358402D01*
X458602Y358403D01*
X458673Y358395D01*
X493827Y358395D01*
X493917Y358409D01*
X494008Y358417D01*
X494038Y358429D01*
X494070Y358434D01*
X494151Y358477D01*
X494234Y358513D01*
X494267Y358539D01*
X494287Y358550D01*
X494309Y358573D01*
X494365Y358618D01*
X504982Y369235D01*
X505035Y369309D01*
X505095Y369378D01*
X505107Y369408D01*
X505126Y369434D01*
X505153Y369521D01*
X505187Y369606D01*
X505191Y369647D01*
X505198Y369669D01*
X505197Y369702D01*
X505205Y369773D01*
X505205Y509158D01*
X544942Y548895D01*
X591875Y548895D01*
X591965Y548909D01*
X592056Y548917D01*
X592085Y548929D01*
X592117Y548934D01*
X592198Y548977D01*
X592282Y549013D01*
X592314Y549039D01*
X592335Y549050D01*
X592357Y549073D01*
X592413Y549118D01*
X594702Y551407D01*
X599098Y551407D01*
X602207Y548298D01*
X602207Y543902D01*
X599098Y540793D01*
X594702Y540793D01*
X592413Y543082D01*
X592339Y543135D01*
X592269Y543195D01*
X592239Y543207D01*
X592213Y543226D01*
X592126Y543253D01*
X592041Y543287D01*
X592000Y543291D01*
X591978Y543298D01*
X591946Y543297D01*
X591875Y543305D01*
X547573Y543305D01*
X547483Y543291D01*
X547392Y543283D01*
X547362Y543271D01*
X547330Y543266D01*
X547250Y543223D01*
X547166Y543187D01*
X547134Y543161D01*
X547113Y543150D01*
X547091Y543127D01*
X547035Y543082D01*
X518559Y514606D01*
X518517Y514548D01*
X518467Y514496D01*
X518445Y514449D01*
X518415Y514407D01*
X518394Y514338D01*
X518364Y514273D01*
X518358Y514221D01*
X518343Y514171D01*
X518345Y514100D01*
X518337Y514029D01*
X518348Y513978D01*
X518349Y513926D01*
X518374Y513858D01*
X518389Y513788D01*
X518416Y513743D01*
X518434Y513695D01*
X518478Y513639D01*
X518515Y513577D01*
X518555Y513543D01*
X518587Y513503D01*
X518648Y513464D01*
X518702Y513417D01*
X518750Y513398D01*
X518794Y513370D01*
X518864Y513352D01*
X518930Y513325D01*
X519002Y513317D01*
X519033Y513309D01*
X519056Y513311D01*
X519097Y513307D01*
X522898Y513307D01*
X526007Y510198D01*
X526007Y505802D01*
X522898Y502693D01*
X518502Y502693D01*
X515393Y505802D01*
X515393Y509603D01*
X515382Y509674D01*
X515380Y509746D01*
X515362Y509795D01*
X515354Y509846D01*
X515320Y509909D01*
X515295Y509977D01*
X515263Y510017D01*
X515238Y510063D01*
X515186Y510113D01*
X515142Y510169D01*
X515098Y510197D01*
X515060Y510233D01*
X514995Y510263D01*
X514935Y510302D01*
X514884Y510314D01*
X514837Y510336D01*
X514766Y510344D01*
X514696Y510362D01*
X514644Y510358D01*
X514593Y510363D01*
X514522Y510348D01*
X514451Y510343D01*
X514403Y510322D01*
X514352Y510311D01*
X514291Y510274D01*
X514225Y510246D01*
X514169Y510201D01*
X514141Y510185D01*
X514126Y510167D01*
X514094Y510141D01*
X511018Y507065D01*
X510965Y506991D01*
X510905Y506922D01*
X510893Y506892D01*
X510874Y506866D01*
X510847Y506778D01*
X510813Y506694D01*
X510809Y506653D01*
X510802Y506631D01*
X510803Y506598D01*
X510795Y506527D01*
X510795Y367142D01*
X508935Y365282D01*
X498318Y354665D01*
X496458Y352805D01*
X456042Y352805D01*
G37*
%LPD*%
%LPC*%
G36*
X595742Y352805D02*
X595742Y352805D01*
X573077Y375470D01*
X573003Y375523D01*
X572934Y375583D01*
X572904Y375595D01*
X572878Y375614D01*
X572791Y375641D01*
X572706Y375675D01*
X572665Y375679D01*
X572643Y375686D01*
X572610Y375685D01*
X572539Y375693D01*
X569302Y375693D01*
X566193Y378802D01*
X566193Y383198D01*
X569302Y386307D01*
X573698Y386307D01*
X576807Y383198D01*
X576807Y379961D01*
X576821Y379871D01*
X576829Y379780D01*
X576841Y379750D01*
X576846Y379718D01*
X576889Y379638D01*
X576925Y379554D01*
X576951Y379522D01*
X576962Y379501D01*
X576985Y379479D01*
X577030Y379423D01*
X597835Y358618D01*
X597909Y358565D01*
X597978Y358505D01*
X598008Y358493D01*
X598034Y358474D01*
X598121Y358447D01*
X598206Y358413D01*
X598247Y358409D01*
X598269Y358402D01*
X598302Y358403D01*
X598373Y358395D01*
X633527Y358395D01*
X633617Y358409D01*
X633708Y358417D01*
X633738Y358429D01*
X633770Y358434D01*
X633850Y358477D01*
X633934Y358513D01*
X633966Y358539D01*
X633987Y358550D01*
X634009Y358573D01*
X634065Y358618D01*
X644682Y369235D01*
X644735Y369309D01*
X644795Y369378D01*
X644807Y369408D01*
X644826Y369434D01*
X644853Y369521D01*
X644887Y369606D01*
X644891Y369647D01*
X644898Y369669D01*
X644897Y369702D01*
X644905Y369773D01*
X644905Y557327D01*
X644891Y557417D01*
X644883Y557508D01*
X644871Y557538D01*
X644866Y557570D01*
X644823Y557650D01*
X644787Y557734D01*
X644761Y557766D01*
X644750Y557787D01*
X644727Y557809D01*
X644682Y557865D01*
X621365Y581182D01*
X621291Y581235D01*
X621222Y581295D01*
X621192Y581307D01*
X621166Y581326D01*
X621079Y581353D01*
X620994Y581387D01*
X620953Y581391D01*
X620931Y581398D01*
X620898Y581397D01*
X620827Y581405D01*
X614625Y581405D01*
X614535Y581391D01*
X614444Y581383D01*
X614415Y581371D01*
X614383Y581366D01*
X614302Y581323D01*
X614218Y581287D01*
X614186Y581261D01*
X614165Y581250D01*
X614143Y581227D01*
X614087Y581182D01*
X611798Y578893D01*
X607402Y578893D01*
X604293Y582002D01*
X604293Y586398D01*
X607402Y589507D01*
X611798Y589507D01*
X614087Y587218D01*
X614161Y587165D01*
X614231Y587105D01*
X614261Y587093D01*
X614287Y587074D01*
X614374Y587047D01*
X614459Y587013D01*
X614500Y587009D01*
X614522Y587002D01*
X614554Y587003D01*
X614625Y586995D01*
X623458Y586995D01*
X650495Y559958D01*
X650495Y367142D01*
X636158Y352805D01*
X595742Y352805D01*
G37*
%LPD*%
%LPC*%
G36*
X531202Y362993D02*
X531202Y362993D01*
X528093Y366102D01*
X528093Y370498D01*
X530382Y372787D01*
X530435Y372861D01*
X530495Y372931D01*
X530507Y372961D01*
X530526Y372987D01*
X530553Y373074D01*
X530587Y373159D01*
X530591Y373200D01*
X530598Y373222D01*
X530597Y373254D01*
X530605Y373325D01*
X530605Y521858D01*
X544942Y536195D01*
X559958Y536195D01*
X574295Y521858D01*
X574295Y513025D01*
X574309Y512935D01*
X574317Y512844D01*
X574329Y512815D01*
X574334Y512783D01*
X574377Y512702D01*
X574413Y512618D01*
X574439Y512586D01*
X574450Y512565D01*
X574473Y512543D01*
X574518Y512487D01*
X576807Y510198D01*
X576807Y505802D01*
X573698Y502693D01*
X569302Y502693D01*
X566193Y505802D01*
X566193Y510198D01*
X568482Y512487D01*
X568535Y512561D01*
X568595Y512631D01*
X568607Y512661D01*
X568626Y512687D01*
X568653Y512774D01*
X568687Y512859D01*
X568691Y512900D01*
X568698Y512922D01*
X568697Y512954D01*
X568705Y513025D01*
X568705Y519227D01*
X568691Y519317D01*
X568683Y519408D01*
X568671Y519438D01*
X568666Y519470D01*
X568623Y519550D01*
X568587Y519634D01*
X568561Y519666D01*
X568550Y519687D01*
X568527Y519709D01*
X568482Y519765D01*
X557865Y530382D01*
X557791Y530435D01*
X557722Y530495D01*
X557692Y530507D01*
X557666Y530526D01*
X557579Y530553D01*
X557494Y530587D01*
X557453Y530591D01*
X557431Y530598D01*
X557398Y530597D01*
X557327Y530605D01*
X547573Y530605D01*
X547483Y530591D01*
X547392Y530583D01*
X547362Y530571D01*
X547330Y530566D01*
X547250Y530523D01*
X547166Y530487D01*
X547134Y530461D01*
X547113Y530450D01*
X547091Y530427D01*
X547035Y530382D01*
X536418Y519765D01*
X536365Y519691D01*
X536305Y519622D01*
X536293Y519592D01*
X536274Y519566D01*
X536247Y519479D01*
X536213Y519394D01*
X536209Y519353D01*
X536202Y519331D01*
X536203Y519298D01*
X536195Y519227D01*
X536195Y373325D01*
X536209Y373235D01*
X536217Y373144D01*
X536229Y373115D01*
X536234Y373083D01*
X536277Y373002D01*
X536313Y372918D01*
X536339Y372886D01*
X536350Y372865D01*
X536373Y372843D01*
X536418Y372787D01*
X538707Y370498D01*
X538707Y366102D01*
X535598Y362993D01*
X531202Y362993D01*
G37*
%LPD*%
%LPC*%
G36*
X391502Y362993D02*
X391502Y362993D01*
X388393Y366102D01*
X388393Y370498D01*
X390682Y372787D01*
X390735Y372861D01*
X390795Y372931D01*
X390807Y372961D01*
X390826Y372987D01*
X390853Y373074D01*
X390887Y373159D01*
X390891Y373200D01*
X390898Y373222D01*
X390897Y373254D01*
X390905Y373325D01*
X390905Y521858D01*
X405242Y536195D01*
X420258Y536195D01*
X434595Y521858D01*
X434595Y513025D01*
X434609Y512935D01*
X434617Y512844D01*
X434629Y512815D01*
X434634Y512783D01*
X434677Y512702D01*
X434713Y512618D01*
X434739Y512586D01*
X434750Y512565D01*
X434773Y512543D01*
X434818Y512487D01*
X437107Y510198D01*
X437107Y505802D01*
X433998Y502693D01*
X429602Y502693D01*
X426493Y505802D01*
X426493Y510198D01*
X428782Y512487D01*
X428835Y512561D01*
X428895Y512631D01*
X428907Y512661D01*
X428926Y512687D01*
X428953Y512774D01*
X428987Y512859D01*
X428991Y512900D01*
X428998Y512922D01*
X428997Y512954D01*
X429005Y513025D01*
X429005Y519227D01*
X428991Y519317D01*
X428983Y519408D01*
X428971Y519438D01*
X428966Y519470D01*
X428923Y519550D01*
X428887Y519634D01*
X428861Y519666D01*
X428850Y519687D01*
X428827Y519709D01*
X428782Y519765D01*
X418165Y530382D01*
X418091Y530435D01*
X418022Y530495D01*
X417992Y530507D01*
X417966Y530526D01*
X417879Y530553D01*
X417794Y530587D01*
X417753Y530591D01*
X417731Y530598D01*
X417698Y530597D01*
X417627Y530605D01*
X407873Y530605D01*
X407783Y530591D01*
X407692Y530583D01*
X407662Y530571D01*
X407630Y530566D01*
X407550Y530523D01*
X407466Y530487D01*
X407434Y530461D01*
X407413Y530450D01*
X407391Y530427D01*
X407335Y530382D01*
X396718Y519765D01*
X396665Y519691D01*
X396605Y519622D01*
X396593Y519592D01*
X396574Y519566D01*
X396547Y519479D01*
X396513Y519394D01*
X396509Y519353D01*
X396502Y519331D01*
X396503Y519298D01*
X396495Y519227D01*
X396495Y373325D01*
X396509Y373235D01*
X396517Y373144D01*
X396529Y373115D01*
X396534Y373083D01*
X396577Y373002D01*
X396613Y372918D01*
X396639Y372886D01*
X396650Y372865D01*
X396673Y372843D01*
X396718Y372787D01*
X399007Y370498D01*
X399007Y366102D01*
X395898Y362993D01*
X391502Y362993D01*
G37*
%LPD*%
%LPC*%
G36*
X77291Y350275D02*
X77291Y350275D01*
X76100Y351466D01*
X76100Y385310D01*
X77291Y386501D01*
X111135Y386501D01*
X112326Y385310D01*
X112326Y351466D01*
X111135Y350275D01*
X77291Y350275D01*
G37*
%LPD*%
%LPC*%
G36*
X328002Y375693D02*
X328002Y375693D01*
X324893Y378802D01*
X324893Y383198D01*
X328002Y386307D01*
X332398Y386307D01*
X334687Y384018D01*
X334761Y383965D01*
X334831Y383905D01*
X334861Y383893D01*
X334887Y383874D01*
X334974Y383847D01*
X335059Y383813D01*
X335100Y383809D01*
X335122Y383802D01*
X335154Y383803D01*
X335225Y383795D01*
X341427Y383795D01*
X341517Y383809D01*
X341608Y383817D01*
X341638Y383829D01*
X341670Y383834D01*
X341750Y383877D01*
X341834Y383913D01*
X341866Y383939D01*
X341887Y383950D01*
X341909Y383973D01*
X341965Y384018D01*
X352582Y394635D01*
X352635Y394709D01*
X352695Y394778D01*
X352707Y394808D01*
X352726Y394834D01*
X352753Y394921D01*
X352787Y395006D01*
X352791Y395047D01*
X352798Y395069D01*
X352797Y395102D01*
X352805Y395173D01*
X352805Y515675D01*
X352791Y515765D01*
X352783Y515856D01*
X352771Y515885D01*
X352766Y515917D01*
X352723Y515998D01*
X352687Y516082D01*
X352661Y516114D01*
X352650Y516135D01*
X352627Y516157D01*
X352582Y516213D01*
X350293Y518502D01*
X350293Y522898D01*
X353402Y526007D01*
X357798Y526007D01*
X360907Y522898D01*
X360907Y518502D01*
X358618Y516213D01*
X358565Y516139D01*
X358505Y516069D01*
X358493Y516039D01*
X358474Y516013D01*
X358447Y515926D01*
X358413Y515841D01*
X358409Y515800D01*
X358402Y515778D01*
X358403Y515746D01*
X358395Y515675D01*
X358395Y392542D01*
X344058Y378205D01*
X335225Y378205D01*
X335135Y378191D01*
X335044Y378183D01*
X335015Y378171D01*
X334983Y378166D01*
X334902Y378123D01*
X334818Y378087D01*
X334786Y378061D01*
X334765Y378050D01*
X334743Y378027D01*
X334687Y377982D01*
X332398Y375693D01*
X328002Y375693D01*
G37*
%LPD*%
%LPC*%
G36*
X493102Y502693D02*
X493102Y502693D01*
X489993Y505802D01*
X489993Y510198D01*
X493102Y513307D01*
X496339Y513307D01*
X496429Y513321D01*
X496520Y513329D01*
X496550Y513341D01*
X496582Y513346D01*
X496662Y513389D01*
X496746Y513425D01*
X496778Y513451D01*
X496799Y513462D01*
X496821Y513485D01*
X496877Y513530D01*
X544942Y561595D01*
X582727Y561595D01*
X582817Y561609D01*
X582908Y561617D01*
X582938Y561629D01*
X582970Y561634D01*
X583051Y561677D01*
X583134Y561713D01*
X583167Y561739D01*
X583187Y561750D01*
X583209Y561773D01*
X583265Y561818D01*
X593882Y572435D01*
X593925Y572495D01*
X593964Y572536D01*
X593971Y572550D01*
X593995Y572578D01*
X594007Y572608D01*
X594026Y572634D01*
X594053Y572721D01*
X594066Y572754D01*
X594068Y572759D01*
X594068Y572760D01*
X594087Y572806D01*
X594091Y572847D01*
X594098Y572869D01*
X594097Y572902D01*
X594105Y572973D01*
X594105Y579175D01*
X594091Y579265D01*
X594083Y579356D01*
X594071Y579385D01*
X594066Y579417D01*
X594023Y579498D01*
X593987Y579582D01*
X593961Y579614D01*
X593950Y579635D01*
X593927Y579657D01*
X593882Y579713D01*
X591593Y582002D01*
X591593Y586398D01*
X594702Y589507D01*
X599098Y589507D01*
X602207Y586398D01*
X602207Y582002D01*
X599918Y579713D01*
X599865Y579639D01*
X599805Y579569D01*
X599793Y579539D01*
X599774Y579513D01*
X599747Y579426D01*
X599713Y579341D01*
X599709Y579300D01*
X599702Y579278D01*
X599703Y579246D01*
X599695Y579175D01*
X599695Y570342D01*
X587218Y557865D01*
X585358Y556005D01*
X547573Y556005D01*
X547483Y555991D01*
X547392Y555983D01*
X547362Y555971D01*
X547330Y555966D01*
X547250Y555923D01*
X547166Y555887D01*
X547134Y555861D01*
X547113Y555850D01*
X547091Y555827D01*
X547035Y555782D01*
X500830Y509577D01*
X500777Y509503D01*
X500717Y509434D01*
X500705Y509404D01*
X500686Y509378D01*
X500659Y509291D01*
X500625Y509206D01*
X500621Y509165D01*
X500614Y509143D01*
X500615Y509110D01*
X500607Y509039D01*
X500607Y505802D01*
X497498Y502693D01*
X493102Y502693D01*
G37*
%LPD*%
%LPC*%
G36*
X594702Y705893D02*
X594702Y705893D01*
X591593Y709002D01*
X591593Y713398D01*
X593882Y715687D01*
X593935Y715761D01*
X593995Y715831D01*
X594007Y715861D01*
X594026Y715887D01*
X594053Y715974D01*
X594087Y716059D01*
X594091Y716100D01*
X594098Y716122D01*
X594097Y716154D01*
X594105Y716225D01*
X594105Y795075D01*
X594091Y795165D01*
X594083Y795256D01*
X594071Y795285D01*
X594066Y795317D01*
X594023Y795398D01*
X593987Y795482D01*
X593961Y795514D01*
X593950Y795535D01*
X593927Y795557D01*
X593882Y795613D01*
X591593Y797902D01*
X591593Y801139D01*
X591579Y801229D01*
X591571Y801320D01*
X591559Y801350D01*
X591554Y801382D01*
X591511Y801462D01*
X591475Y801546D01*
X591449Y801578D01*
X591438Y801599D01*
X591415Y801621D01*
X591370Y801677D01*
X583265Y809782D01*
X583191Y809835D01*
X583122Y809895D01*
X583092Y809907D01*
X583066Y809926D01*
X582979Y809953D01*
X582894Y809987D01*
X582853Y809991D01*
X582831Y809998D01*
X582798Y809997D01*
X582727Y810005D01*
X576525Y810005D01*
X576435Y809991D01*
X576344Y809983D01*
X576315Y809971D01*
X576283Y809966D01*
X576202Y809923D01*
X576118Y809887D01*
X576086Y809861D01*
X576065Y809850D01*
X576043Y809827D01*
X575987Y809782D01*
X573698Y807493D01*
X569302Y807493D01*
X566193Y810602D01*
X566193Y814998D01*
X569302Y818107D01*
X573698Y818107D01*
X575987Y815818D01*
X576061Y815765D01*
X576131Y815705D01*
X576161Y815693D01*
X576187Y815674D01*
X576274Y815647D01*
X576359Y815613D01*
X576400Y815609D01*
X576422Y815602D01*
X576454Y815603D01*
X576525Y815595D01*
X585358Y815595D01*
X595323Y805630D01*
X595397Y805577D01*
X595466Y805517D01*
X595496Y805505D01*
X595522Y805486D01*
X595609Y805459D01*
X595694Y805425D01*
X595735Y805421D01*
X595757Y805414D01*
X595790Y805415D01*
X595861Y805407D01*
X599098Y805407D01*
X602207Y802298D01*
X602207Y797902D01*
X599918Y795613D01*
X599865Y795539D01*
X599805Y795469D01*
X599793Y795439D01*
X599774Y795413D01*
X599747Y795326D01*
X599713Y795241D01*
X599709Y795200D01*
X599702Y795178D01*
X599703Y795146D01*
X599695Y795075D01*
X599695Y716225D01*
X599709Y716135D01*
X599717Y716044D01*
X599729Y716015D01*
X599734Y715983D01*
X599777Y715902D01*
X599813Y715818D01*
X599839Y715786D01*
X599850Y715765D01*
X599873Y715743D01*
X599918Y715687D01*
X602207Y713398D01*
X602207Y709002D01*
X599098Y705893D01*
X594702Y705893D01*
G37*
%LPD*%
%LPC*%
G36*
X303642Y365505D02*
X303642Y365505D01*
X293677Y375470D01*
X293603Y375523D01*
X293534Y375583D01*
X293504Y375595D01*
X293478Y375614D01*
X293391Y375641D01*
X293306Y375675D01*
X293265Y375679D01*
X293243Y375686D01*
X293210Y375685D01*
X293139Y375693D01*
X289902Y375693D01*
X286793Y378802D01*
X286793Y383198D01*
X289902Y386307D01*
X294298Y386307D01*
X297407Y383198D01*
X297407Y379961D01*
X297421Y379871D01*
X297429Y379780D01*
X297441Y379750D01*
X297446Y379718D01*
X297489Y379638D01*
X297525Y379554D01*
X297551Y379522D01*
X297562Y379501D01*
X297585Y379479D01*
X297630Y379423D01*
X305735Y371318D01*
X305809Y371265D01*
X305878Y371205D01*
X305908Y371193D01*
X305934Y371174D01*
X306021Y371147D01*
X306106Y371113D01*
X306147Y371109D01*
X306169Y371102D01*
X306202Y371103D01*
X306273Y371095D01*
X366827Y371095D01*
X366917Y371109D01*
X367008Y371117D01*
X367038Y371129D01*
X367070Y371134D01*
X367150Y371177D01*
X367234Y371213D01*
X367266Y371239D01*
X367287Y371250D01*
X367309Y371273D01*
X367365Y371318D01*
X375470Y379423D01*
X375523Y379497D01*
X375583Y379566D01*
X375595Y379596D01*
X375614Y379622D01*
X375641Y379709D01*
X375675Y379794D01*
X375679Y379835D01*
X375686Y379857D01*
X375685Y379890D01*
X375693Y379961D01*
X375693Y383198D01*
X378802Y386307D01*
X383198Y386307D01*
X386307Y383198D01*
X386307Y378802D01*
X383198Y375693D01*
X379961Y375693D01*
X379871Y375679D01*
X379780Y375671D01*
X379750Y375659D01*
X379718Y375654D01*
X379638Y375611D01*
X379554Y375575D01*
X379522Y375549D01*
X379501Y375538D01*
X379479Y375515D01*
X379423Y375470D01*
X369458Y365505D01*
X303642Y365505D01*
G37*
%LPD*%
%LPC*%
G36*
X594702Y502693D02*
X594702Y502693D01*
X591593Y505802D01*
X591593Y510198D01*
X594702Y513307D01*
X597939Y513307D01*
X598029Y513321D01*
X598120Y513329D01*
X598150Y513341D01*
X598182Y513346D01*
X598262Y513389D01*
X598346Y513425D01*
X598378Y513451D01*
X598399Y513462D01*
X598421Y513485D01*
X598477Y513530D01*
X619282Y534335D01*
X619335Y534409D01*
X619395Y534478D01*
X619407Y534508D01*
X619426Y534534D01*
X619453Y534621D01*
X619487Y534706D01*
X619491Y534747D01*
X619498Y534769D01*
X619497Y534802D01*
X619505Y534873D01*
X619505Y557327D01*
X619491Y557417D01*
X619483Y557508D01*
X619471Y557538D01*
X619466Y557570D01*
X619423Y557650D01*
X619387Y557734D01*
X619361Y557766D01*
X619350Y557787D01*
X619327Y557809D01*
X619282Y557865D01*
X611177Y565970D01*
X611103Y566023D01*
X611034Y566083D01*
X611004Y566095D01*
X610978Y566114D01*
X610891Y566141D01*
X610806Y566175D01*
X610765Y566179D01*
X610743Y566186D01*
X610710Y566185D01*
X610639Y566193D01*
X607402Y566193D01*
X604293Y569302D01*
X604293Y573698D01*
X607402Y576807D01*
X611798Y576807D01*
X614907Y573698D01*
X614907Y570461D01*
X614921Y570371D01*
X614929Y570280D01*
X614941Y570250D01*
X614946Y570218D01*
X614989Y570138D01*
X615025Y570054D01*
X615051Y570022D01*
X615062Y570001D01*
X615085Y569979D01*
X615130Y569923D01*
X625095Y559958D01*
X625095Y532242D01*
X602430Y509577D01*
X602377Y509503D01*
X602317Y509434D01*
X602305Y509404D01*
X602286Y509378D01*
X602259Y509291D01*
X602225Y509206D01*
X602221Y509165D01*
X602214Y509143D01*
X602215Y509110D01*
X602207Y509039D01*
X602207Y505802D01*
X599098Y502693D01*
X594702Y502693D01*
G37*
%LPD*%
%LPC*%
G36*
X306723Y279145D02*
X306723Y279145D01*
X301962Y281118D01*
X298318Y284762D01*
X296345Y289523D01*
X296345Y294677D01*
X298318Y299438D01*
X301962Y303082D01*
X306723Y305055D01*
X311877Y305055D01*
X316638Y303082D01*
X320282Y299438D01*
X322255Y294677D01*
X322255Y289523D01*
X320282Y284762D01*
X316638Y281118D01*
X311877Y279145D01*
X306723Y279145D01*
G37*
%LPD*%
%LPC*%
G36*
X516723Y279145D02*
X516723Y279145D01*
X511962Y281118D01*
X508318Y284762D01*
X506345Y289523D01*
X506345Y294677D01*
X508318Y299438D01*
X511962Y303082D01*
X516723Y305055D01*
X521877Y305055D01*
X526638Y303082D01*
X530282Y299438D01*
X532255Y294677D01*
X532255Y289523D01*
X530282Y284762D01*
X526638Y281118D01*
X521877Y279145D01*
X516723Y279145D01*
G37*
%LPD*%
%LPC*%
G36*
X551723Y279145D02*
X551723Y279145D01*
X546962Y281118D01*
X543318Y284762D01*
X541345Y289523D01*
X541345Y294677D01*
X543318Y299438D01*
X546962Y303082D01*
X551723Y305055D01*
X556877Y305055D01*
X561638Y303082D01*
X565282Y299438D01*
X567255Y294677D01*
X567255Y289523D01*
X565282Y284762D01*
X561638Y281118D01*
X556877Y279145D01*
X551723Y279145D01*
G37*
%LPD*%
%LPC*%
G36*
X481723Y279145D02*
X481723Y279145D01*
X476962Y281118D01*
X473318Y284762D01*
X471345Y289523D01*
X471345Y294677D01*
X473318Y299438D01*
X476962Y303082D01*
X481723Y305055D01*
X486877Y305055D01*
X491638Y303082D01*
X495282Y299438D01*
X497255Y294677D01*
X497255Y289523D01*
X495282Y284762D01*
X491638Y281118D01*
X486877Y279145D01*
X481723Y279145D01*
G37*
%LPD*%
%LPC*%
G36*
X446723Y279145D02*
X446723Y279145D01*
X441962Y281118D01*
X438318Y284762D01*
X436345Y289523D01*
X436345Y294677D01*
X438318Y299438D01*
X441962Y303082D01*
X446723Y305055D01*
X451877Y305055D01*
X456638Y303082D01*
X460282Y299438D01*
X462255Y294677D01*
X462255Y289523D01*
X460282Y284762D01*
X456638Y281118D01*
X451877Y279145D01*
X446723Y279145D01*
G37*
%LPD*%
%LPC*%
G36*
X411723Y279145D02*
X411723Y279145D01*
X406962Y281118D01*
X403318Y284762D01*
X401345Y289523D01*
X401345Y294677D01*
X403318Y299438D01*
X406962Y303082D01*
X411723Y305055D01*
X416877Y305055D01*
X421638Y303082D01*
X425282Y299438D01*
X427255Y294677D01*
X427255Y289523D01*
X425282Y284762D01*
X421638Y281118D01*
X416877Y279145D01*
X411723Y279145D01*
G37*
%LPD*%
%LPC*%
G36*
X376723Y279145D02*
X376723Y279145D01*
X371962Y281118D01*
X368318Y284762D01*
X366345Y289523D01*
X366345Y294677D01*
X368318Y299438D01*
X371962Y303082D01*
X376723Y305055D01*
X381877Y305055D01*
X386638Y303082D01*
X390282Y299438D01*
X392255Y294677D01*
X392255Y289523D01*
X390282Y284762D01*
X386638Y281118D01*
X381877Y279145D01*
X376723Y279145D01*
G37*
%LPD*%
%LPC*%
G36*
X341723Y279145D02*
X341723Y279145D01*
X336962Y281118D01*
X333318Y284762D01*
X331345Y289523D01*
X331345Y294677D01*
X333318Y299438D01*
X336962Y303082D01*
X341723Y305055D01*
X346877Y305055D01*
X351638Y303082D01*
X355282Y299438D01*
X357255Y294677D01*
X357255Y289523D01*
X355282Y284762D01*
X351638Y281118D01*
X346877Y279145D01*
X341723Y279145D01*
G37*
%LPD*%
%LPC*%
G36*
X876345Y333189D02*
X876345Y333189D01*
X871736Y335098D01*
X868208Y338626D01*
X866299Y343235D01*
X866299Y348225D01*
X868208Y352834D01*
X871736Y356362D01*
X876345Y358271D01*
X881335Y358271D01*
X885944Y356362D01*
X889472Y352834D01*
X891381Y348225D01*
X891381Y343235D01*
X889472Y338626D01*
X885944Y335098D01*
X881335Y333189D01*
X876345Y333189D01*
G37*
%LPD*%
%LPC*%
G36*
X876345Y564329D02*
X876345Y564329D01*
X871736Y566238D01*
X868208Y569766D01*
X866299Y574375D01*
X866299Y579365D01*
X868208Y583974D01*
X871736Y587502D01*
X876345Y589411D01*
X881335Y589411D01*
X885944Y587502D01*
X889472Y583974D01*
X891381Y579365D01*
X891381Y574375D01*
X889472Y569766D01*
X885944Y566238D01*
X881335Y564329D01*
X876345Y564329D01*
G37*
%LPD*%
%LPC*%
G36*
X668065Y564329D02*
X668065Y564329D01*
X663456Y566238D01*
X659928Y569766D01*
X658019Y574375D01*
X658019Y579365D01*
X659928Y583974D01*
X663456Y587502D01*
X668065Y589411D01*
X673055Y589411D01*
X677664Y587502D01*
X681192Y583974D01*
X683101Y579365D01*
X683101Y574375D01*
X681192Y569766D01*
X677664Y566238D01*
X673055Y564329D01*
X668065Y564329D01*
G37*
%LPD*%
%LPC*%
G36*
X668065Y333189D02*
X668065Y333189D01*
X663456Y335098D01*
X659928Y338626D01*
X658019Y343235D01*
X658019Y348225D01*
X659928Y352834D01*
X663456Y356362D01*
X668065Y358271D01*
X673055Y358271D01*
X677664Y356362D01*
X681192Y352834D01*
X683101Y348225D01*
X683101Y343235D01*
X681192Y338626D01*
X677664Y335098D01*
X673055Y333189D01*
X668065Y333189D01*
G37*
%LPD*%
%LPC*%
G36*
X328002Y642393D02*
X328002Y642393D01*
X324893Y645502D01*
X324893Y649898D01*
X328002Y653007D01*
X332398Y653007D01*
X334687Y650718D01*
X334761Y650665D01*
X334831Y650605D01*
X334861Y650593D01*
X334887Y650574D01*
X334974Y650547D01*
X335059Y650513D01*
X335100Y650509D01*
X335122Y650502D01*
X335154Y650503D01*
X335225Y650495D01*
X375975Y650495D01*
X376065Y650509D01*
X376156Y650517D01*
X376185Y650529D01*
X376217Y650534D01*
X376298Y650577D01*
X376382Y650613D01*
X376414Y650639D01*
X376435Y650650D01*
X376457Y650673D01*
X376513Y650718D01*
X378802Y653007D01*
X383198Y653007D01*
X386307Y649898D01*
X386307Y645502D01*
X383198Y642393D01*
X378802Y642393D01*
X376513Y644682D01*
X376439Y644735D01*
X376369Y644795D01*
X376339Y644807D01*
X376313Y644826D01*
X376226Y644853D01*
X376141Y644887D01*
X376100Y644891D01*
X376078Y644898D01*
X376046Y644897D01*
X375975Y644905D01*
X335225Y644905D01*
X335135Y644891D01*
X335044Y644883D01*
X335015Y644871D01*
X334983Y644866D01*
X334902Y644823D01*
X334818Y644787D01*
X334786Y644761D01*
X334765Y644750D01*
X334743Y644727D01*
X334687Y644682D01*
X332398Y642393D01*
X328002Y642393D01*
G37*
%LPD*%
%LPC*%
G36*
X160831Y394815D02*
X160831Y394815D01*
X159640Y396006D01*
X159640Y412770D01*
X160831Y413961D01*
X177595Y413961D01*
X178786Y412770D01*
X178786Y396006D01*
X177595Y394815D01*
X160831Y394815D01*
G37*
%LPD*%
%LPC*%
G36*
X160831Y419815D02*
X160831Y419815D01*
X159640Y421006D01*
X159640Y437770D01*
X160831Y438961D01*
X177595Y438961D01*
X178786Y437770D01*
X178786Y421006D01*
X177595Y419815D01*
X160831Y419815D01*
G37*
%LPD*%
%LPC*%
G36*
X15831Y444815D02*
X15831Y444815D01*
X14640Y446006D01*
X14640Y462770D01*
X15831Y463961D01*
X32595Y463961D01*
X33786Y462770D01*
X33786Y446006D01*
X32595Y444815D01*
X15831Y444815D01*
G37*
%LPD*%
%LPC*%
G36*
X804418Y324727D02*
X804418Y324727D01*
X803227Y325918D01*
X803227Y342682D01*
X804418Y343873D01*
X821182Y343873D01*
X822373Y342682D01*
X822373Y325918D01*
X821182Y324727D01*
X804418Y324727D01*
G37*
%LPD*%
%LPC*%
G36*
X99402Y718593D02*
X99402Y718593D01*
X96293Y721702D01*
X96293Y726098D01*
X99402Y729207D01*
X103798Y729207D01*
X106087Y726918D01*
X106161Y726865D01*
X106231Y726805D01*
X106261Y726793D01*
X106287Y726774D01*
X106374Y726747D01*
X106459Y726713D01*
X106500Y726709D01*
X106522Y726702D01*
X106554Y726703D01*
X106625Y726695D01*
X134675Y726695D01*
X134765Y726709D01*
X134856Y726717D01*
X134885Y726729D01*
X134917Y726734D01*
X134998Y726777D01*
X135082Y726813D01*
X135114Y726839D01*
X135135Y726850D01*
X135157Y726873D01*
X135213Y726918D01*
X137502Y729207D01*
X141898Y729207D01*
X145007Y726098D01*
X145007Y721702D01*
X141898Y718593D01*
X137502Y718593D01*
X135213Y720882D01*
X135139Y720935D01*
X135069Y720995D01*
X135039Y721007D01*
X135013Y721026D01*
X134926Y721053D01*
X134841Y721087D01*
X134800Y721091D01*
X134778Y721098D01*
X134746Y721097D01*
X134675Y721105D01*
X106625Y721105D01*
X106535Y721091D01*
X106444Y721083D01*
X106415Y721071D01*
X106383Y721066D01*
X106302Y721023D01*
X106218Y720987D01*
X106186Y720961D01*
X106165Y720950D01*
X106143Y720927D01*
X106087Y720882D01*
X103798Y718593D01*
X99402Y718593D01*
G37*
%LPD*%
%LPC*%
G36*
X99402Y705893D02*
X99402Y705893D01*
X96293Y709002D01*
X96293Y713398D01*
X99402Y716507D01*
X103798Y716507D01*
X106087Y714218D01*
X106161Y714165D01*
X106231Y714105D01*
X106261Y714093D01*
X106287Y714074D01*
X106374Y714047D01*
X106459Y714013D01*
X106500Y714009D01*
X106522Y714002D01*
X106554Y714003D01*
X106625Y713995D01*
X134675Y713995D01*
X134765Y714009D01*
X134856Y714017D01*
X134885Y714029D01*
X134917Y714034D01*
X134998Y714077D01*
X135082Y714113D01*
X135114Y714139D01*
X135135Y714150D01*
X135157Y714173D01*
X135213Y714218D01*
X137502Y716507D01*
X141898Y716507D01*
X145007Y713398D01*
X145007Y709002D01*
X141898Y705893D01*
X137502Y705893D01*
X135213Y708182D01*
X135139Y708235D01*
X135069Y708295D01*
X135039Y708307D01*
X135013Y708326D01*
X134926Y708353D01*
X134841Y708387D01*
X134800Y708391D01*
X134778Y708398D01*
X134746Y708397D01*
X134675Y708405D01*
X106625Y708405D01*
X106535Y708391D01*
X106444Y708383D01*
X106415Y708371D01*
X106383Y708366D01*
X106302Y708323D01*
X106218Y708287D01*
X106186Y708261D01*
X106165Y708250D01*
X106143Y708227D01*
X106087Y708182D01*
X103798Y705893D01*
X99402Y705893D01*
G37*
%LPD*%
%LPC*%
G36*
X455002Y502693D02*
X455002Y502693D01*
X451893Y505802D01*
X451893Y510198D01*
X455002Y513307D01*
X458239Y513307D01*
X458329Y513321D01*
X458420Y513329D01*
X458450Y513341D01*
X458482Y513346D01*
X458562Y513389D01*
X458646Y513425D01*
X458678Y513451D01*
X458699Y513462D01*
X458721Y513485D01*
X458777Y513530D01*
X477070Y531823D01*
X477123Y531897D01*
X477183Y531966D01*
X477195Y531996D01*
X477214Y532022D01*
X477241Y532109D01*
X477275Y532194D01*
X477279Y532235D01*
X477286Y532257D01*
X477285Y532290D01*
X477293Y532361D01*
X477293Y535598D01*
X480402Y538707D01*
X484798Y538707D01*
X487907Y535598D01*
X487907Y531202D01*
X484798Y528093D01*
X481561Y528093D01*
X481471Y528079D01*
X481380Y528071D01*
X481350Y528059D01*
X481318Y528054D01*
X481238Y528011D01*
X481154Y527975D01*
X481122Y527949D01*
X481101Y527938D01*
X481079Y527915D01*
X481023Y527870D01*
X462730Y509577D01*
X462677Y509503D01*
X462617Y509434D01*
X462605Y509404D01*
X462586Y509378D01*
X462559Y509291D01*
X462525Y509206D01*
X462521Y509165D01*
X462514Y509143D01*
X462515Y509110D01*
X462507Y509039D01*
X462507Y505802D01*
X459398Y502693D01*
X455002Y502693D01*
G37*
%LPD*%
%LPC*%
G36*
X352826Y799474D02*
X352826Y799474D01*
X349091Y801021D01*
X346233Y803879D01*
X344686Y807614D01*
X344686Y811656D01*
X346233Y815391D01*
X349091Y818249D01*
X352826Y819796D01*
X356868Y819796D01*
X360603Y818249D01*
X363461Y815391D01*
X365008Y811656D01*
X365008Y807614D01*
X363461Y803879D01*
X360603Y801021D01*
X356868Y799474D01*
X352826Y799474D01*
G37*
%LPD*%
%LPC*%
G36*
X352826Y774074D02*
X352826Y774074D01*
X349091Y775621D01*
X346233Y778479D01*
X344686Y782214D01*
X344686Y786256D01*
X346233Y789991D01*
X349091Y792849D01*
X352826Y794396D01*
X356868Y794396D01*
X360603Y792849D01*
X363461Y789991D01*
X365008Y786256D01*
X365008Y782214D01*
X363461Y778479D01*
X360603Y775621D01*
X356868Y774074D01*
X352826Y774074D01*
G37*
%LPD*%
%LPC*%
G36*
X785496Y324727D02*
X785496Y324727D01*
X781977Y326185D01*
X779285Y328877D01*
X777827Y332396D01*
X777827Y336204D01*
X779285Y339723D01*
X781977Y342415D01*
X785496Y343873D01*
X789304Y343873D01*
X792823Y342415D01*
X795515Y339723D01*
X796973Y336204D01*
X796973Y332396D01*
X795515Y328877D01*
X792823Y326185D01*
X789304Y324727D01*
X785496Y324727D01*
G37*
%LPD*%
%LPC*%
G36*
X658202Y718593D02*
X658202Y718593D01*
X655093Y721702D01*
X655093Y726098D01*
X658202Y729207D01*
X662598Y729207D01*
X664887Y726918D01*
X664961Y726865D01*
X665031Y726805D01*
X665061Y726793D01*
X665087Y726774D01*
X665174Y726747D01*
X665259Y726713D01*
X665300Y726709D01*
X665322Y726702D01*
X665354Y726703D01*
X665425Y726695D01*
X682299Y726695D01*
X682389Y726709D01*
X682480Y726717D01*
X682509Y726729D01*
X682541Y726734D01*
X682622Y726777D01*
X682706Y726813D01*
X682738Y726839D01*
X682759Y726850D01*
X682781Y726873D01*
X682837Y726918D01*
X685126Y729207D01*
X689522Y729207D01*
X692631Y726098D01*
X692631Y721702D01*
X689522Y718593D01*
X685126Y718593D01*
X682837Y720882D01*
X682763Y720935D01*
X682693Y720995D01*
X682663Y721007D01*
X682637Y721026D01*
X682550Y721053D01*
X682465Y721087D01*
X682424Y721091D01*
X682402Y721098D01*
X682370Y721097D01*
X682299Y721105D01*
X665425Y721105D01*
X665335Y721091D01*
X665244Y721083D01*
X665215Y721071D01*
X665183Y721066D01*
X665102Y721023D01*
X665018Y720987D01*
X664986Y720961D01*
X664965Y720950D01*
X664943Y720927D01*
X664887Y720882D01*
X662598Y718593D01*
X658202Y718593D01*
G37*
%LPD*%
G36*
X517215Y828306D02*
X517215Y828306D01*
X517287Y828308D01*
X517336Y828326D01*
X517387Y828334D01*
X517450Y828368D01*
X517518Y828393D01*
X517558Y828425D01*
X517604Y828450D01*
X517654Y828502D01*
X517710Y828546D01*
X517738Y828590D01*
X517774Y828628D01*
X517804Y828693D01*
X517843Y828753D01*
X517855Y828804D01*
X517877Y828851D01*
X517885Y828922D01*
X517903Y828992D01*
X517899Y829044D01*
X517904Y829095D01*
X517889Y829166D01*
X517884Y829237D01*
X517863Y829285D01*
X517852Y829336D01*
X517815Y829397D01*
X517787Y829463D01*
X517742Y829519D01*
X517726Y829547D01*
X517708Y829562D01*
X517682Y829594D01*
X516079Y831197D01*
X493326Y853950D01*
X493252Y854003D01*
X493183Y854063D01*
X493153Y854075D01*
X493127Y854094D01*
X493040Y854121D01*
X492955Y854155D01*
X492914Y854159D01*
X492892Y854166D01*
X492859Y854165D01*
X492788Y854173D01*
X485117Y854173D01*
X485046Y854162D01*
X484974Y854160D01*
X484925Y854142D01*
X484874Y854134D01*
X484811Y854100D01*
X484743Y854075D01*
X484703Y854043D01*
X484657Y854018D01*
X484607Y853966D01*
X484551Y853922D01*
X484523Y853878D01*
X484487Y853840D01*
X484457Y853775D01*
X484418Y853715D01*
X484406Y853664D01*
X484384Y853617D01*
X484376Y853546D01*
X484358Y853476D01*
X484362Y853424D01*
X484357Y853373D01*
X484372Y853302D01*
X484377Y853231D01*
X484398Y853183D01*
X484409Y853132D01*
X484446Y853071D01*
X484474Y853005D01*
X484519Y852949D01*
X484535Y852921D01*
X484553Y852906D01*
X484579Y852874D01*
X485618Y851835D01*
X508935Y828518D01*
X509009Y828465D01*
X509078Y828405D01*
X509108Y828393D01*
X509134Y828374D01*
X509221Y828347D01*
X509306Y828313D01*
X509347Y828309D01*
X509369Y828302D01*
X509402Y828303D01*
X509473Y828295D01*
X517144Y828295D01*
X517215Y828306D01*
G37*
%LPC*%
G36*
X286628Y680493D02*
X286628Y680493D01*
X283519Y683602D01*
X283519Y687998D01*
X286628Y691107D01*
X291024Y691107D01*
X293313Y688818D01*
X293387Y688765D01*
X293457Y688705D01*
X293487Y688693D01*
X293513Y688674D01*
X293600Y688647D01*
X293685Y688613D01*
X293726Y688609D01*
X293748Y688602D01*
X293780Y688603D01*
X293851Y688595D01*
X299775Y688595D01*
X299865Y688609D01*
X299956Y688617D01*
X299985Y688629D01*
X300017Y688634D01*
X300098Y688677D01*
X300182Y688713D01*
X300214Y688739D01*
X300235Y688750D01*
X300257Y688773D01*
X300313Y688818D01*
X302602Y691107D01*
X306998Y691107D01*
X310107Y687998D01*
X310107Y683602D01*
X306998Y680493D01*
X302602Y680493D01*
X300313Y682782D01*
X300239Y682835D01*
X300169Y682895D01*
X300139Y682907D01*
X300113Y682926D01*
X300026Y682953D01*
X299941Y682987D01*
X299900Y682991D01*
X299878Y682998D01*
X299846Y682997D01*
X299775Y683005D01*
X293851Y683005D01*
X293761Y682991D01*
X293670Y682983D01*
X293641Y682971D01*
X293609Y682966D01*
X293528Y682923D01*
X293444Y682887D01*
X293412Y682861D01*
X293391Y682850D01*
X293369Y682827D01*
X293313Y682782D01*
X291024Y680493D01*
X286628Y680493D01*
G37*
%LPD*%
%LPC*%
G36*
X33900Y738359D02*
X33900Y738359D01*
X31128Y739507D01*
X29007Y741628D01*
X27859Y744400D01*
X27859Y747400D01*
X29007Y750172D01*
X31128Y752293D01*
X33900Y753441D01*
X36900Y753441D01*
X39672Y752293D01*
X41793Y750172D01*
X42941Y747400D01*
X42941Y744400D01*
X41793Y741628D01*
X39672Y739507D01*
X36900Y738359D01*
X33900Y738359D01*
G37*
%LPD*%
%LPC*%
G36*
X33900Y694359D02*
X33900Y694359D01*
X31128Y695507D01*
X29007Y697628D01*
X27859Y700400D01*
X27859Y703400D01*
X29007Y706172D01*
X31128Y708293D01*
X33900Y709441D01*
X36900Y709441D01*
X39672Y708293D01*
X41793Y706172D01*
X42941Y703400D01*
X42941Y700400D01*
X41793Y697628D01*
X39672Y695507D01*
X36900Y694359D01*
X33900Y694359D01*
G37*
%LPD*%
G36*
X474086Y688606D02*
X474086Y688606D01*
X474158Y688608D01*
X474207Y688626D01*
X474258Y688634D01*
X474321Y688668D01*
X474389Y688693D01*
X474429Y688725D01*
X474475Y688750D01*
X474525Y688802D01*
X474581Y688846D01*
X474609Y688890D01*
X474645Y688928D01*
X474675Y688993D01*
X474714Y689053D01*
X474726Y689104D01*
X474748Y689151D01*
X474756Y689222D01*
X474774Y689292D01*
X474770Y689344D01*
X474775Y689395D01*
X474760Y689466D01*
X474755Y689537D01*
X474734Y689585D01*
X474723Y689636D01*
X474686Y689697D01*
X474658Y689763D01*
X474613Y689819D01*
X474597Y689847D01*
X474579Y689862D01*
X474553Y689894D01*
X468965Y695482D01*
X467105Y697342D01*
X467105Y709727D01*
X467091Y709817D01*
X467083Y709908D01*
X467071Y709938D01*
X467066Y709970D01*
X467023Y710050D01*
X466987Y710134D01*
X466961Y710167D01*
X466950Y710187D01*
X466927Y710209D01*
X466882Y710265D01*
X463806Y713341D01*
X463748Y713383D01*
X463696Y713433D01*
X463649Y713455D01*
X463607Y713485D01*
X463538Y713506D01*
X463473Y713536D01*
X463421Y713542D01*
X463371Y713557D01*
X463300Y713555D01*
X463229Y713563D01*
X463178Y713552D01*
X463126Y713551D01*
X463058Y713526D01*
X462988Y713511D01*
X462943Y713484D01*
X462895Y713466D01*
X462839Y713422D01*
X462777Y713385D01*
X462743Y713345D01*
X462703Y713313D01*
X462664Y713252D01*
X462617Y713198D01*
X462598Y713150D01*
X462570Y713106D01*
X462552Y713036D01*
X462525Y712970D01*
X462517Y712898D01*
X462509Y712867D01*
X462511Y712844D01*
X462507Y712803D01*
X462507Y709002D01*
X460218Y706713D01*
X460175Y706653D01*
X460134Y706611D01*
X460127Y706595D01*
X460105Y706569D01*
X460093Y706539D01*
X460074Y706513D01*
X460047Y706426D01*
X460038Y706404D01*
X460031Y706388D01*
X460030Y706384D01*
X460013Y706341D01*
X460009Y706300D01*
X460002Y706278D01*
X460003Y706246D01*
X459995Y706175D01*
X459995Y699973D01*
X460009Y699883D01*
X460017Y699792D01*
X460029Y699762D01*
X460034Y699730D01*
X460077Y699650D01*
X460113Y699566D01*
X460139Y699534D01*
X460150Y699513D01*
X460173Y699491D01*
X460218Y699435D01*
X470835Y688818D01*
X470909Y688765D01*
X470978Y688705D01*
X471008Y688693D01*
X471034Y688674D01*
X471121Y688647D01*
X471206Y688613D01*
X471247Y688609D01*
X471269Y688602D01*
X471302Y688603D01*
X471373Y688595D01*
X474015Y688595D01*
X474086Y688606D01*
G37*
%LPC*%
G36*
X99402Y820193D02*
X99402Y820193D01*
X96293Y823302D01*
X96293Y827698D01*
X99402Y830807D01*
X103798Y830807D01*
X106907Y827698D01*
X106907Y823302D01*
X103798Y820193D01*
X99402Y820193D01*
G37*
%LPD*%
%LPC*%
G36*
X289902Y439193D02*
X289902Y439193D01*
X286793Y442302D01*
X286793Y446698D01*
X289902Y449807D01*
X294298Y449807D01*
X297407Y446698D01*
X297407Y442302D01*
X294298Y439193D01*
X289902Y439193D01*
G37*
%LPD*%
%LPC*%
G36*
X277202Y375693D02*
X277202Y375693D01*
X274093Y378802D01*
X274093Y383198D01*
X277202Y386307D01*
X281598Y386307D01*
X284707Y383198D01*
X284707Y378802D01*
X281598Y375693D01*
X277202Y375693D01*
G37*
%LPD*%
%LPC*%
G36*
X467702Y375693D02*
X467702Y375693D01*
X464593Y378802D01*
X464593Y383198D01*
X467702Y386307D01*
X472098Y386307D01*
X475207Y383198D01*
X475207Y378802D01*
X472098Y375693D01*
X467702Y375693D01*
G37*
%LPD*%
%LPC*%
G36*
X416902Y375693D02*
X416902Y375693D01*
X413793Y378802D01*
X413793Y383198D01*
X416902Y386307D01*
X421298Y386307D01*
X424407Y383198D01*
X424407Y378802D01*
X421298Y375693D01*
X416902Y375693D01*
G37*
%LPD*%
%LPC*%
G36*
X556602Y375693D02*
X556602Y375693D01*
X553493Y378802D01*
X553493Y383198D01*
X556602Y386307D01*
X560998Y386307D01*
X564107Y383198D01*
X564107Y378802D01*
X560998Y375693D01*
X556602Y375693D01*
G37*
%LPD*%
%LPC*%
G36*
X569302Y439193D02*
X569302Y439193D01*
X566193Y442302D01*
X566193Y446698D01*
X569302Y449807D01*
X573698Y449807D01*
X576807Y446698D01*
X576807Y442302D01*
X573698Y439193D01*
X569302Y439193D01*
G37*
%LPD*%
%LPC*%
G36*
X607402Y375693D02*
X607402Y375693D01*
X604293Y378802D01*
X604293Y383198D01*
X607402Y386307D01*
X611798Y386307D01*
X614907Y383198D01*
X614907Y378802D01*
X611798Y375693D01*
X607402Y375693D01*
G37*
%LPD*%
%LPC*%
G36*
X416902Y604293D02*
X416902Y604293D01*
X413793Y607402D01*
X413793Y611798D01*
X416902Y614907D01*
X421298Y614907D01*
X424407Y611798D01*
X424407Y607402D01*
X421298Y604293D01*
X416902Y604293D01*
G37*
%LPD*%
%LPC*%
G36*
X467702Y604293D02*
X467702Y604293D01*
X464593Y607402D01*
X464593Y611798D01*
X467702Y614907D01*
X472098Y614907D01*
X475207Y611798D01*
X475207Y607402D01*
X472098Y604293D01*
X467702Y604293D01*
G37*
%LPD*%
%LPC*%
G36*
X188302Y629693D02*
X188302Y629693D01*
X185193Y632802D01*
X185193Y637198D01*
X188302Y640307D01*
X192698Y640307D01*
X195807Y637198D01*
X195807Y632802D01*
X192698Y629693D01*
X188302Y629693D01*
G37*
%LPD*%
%LPC*%
G36*
X836002Y642393D02*
X836002Y642393D01*
X832893Y645502D01*
X832893Y649898D01*
X836002Y653007D01*
X840398Y653007D01*
X843507Y649898D01*
X843507Y645502D01*
X840398Y642393D01*
X836002Y642393D01*
G37*
%LPD*%
%LPC*%
G36*
X683602Y642393D02*
X683602Y642393D01*
X680493Y645502D01*
X680493Y649898D01*
X683602Y653007D01*
X687998Y653007D01*
X691107Y649898D01*
X691107Y645502D01*
X687998Y642393D01*
X683602Y642393D01*
G37*
%LPD*%
%LPC*%
G36*
X442302Y502693D02*
X442302Y502693D01*
X439193Y505802D01*
X439193Y510198D01*
X442302Y513307D01*
X446698Y513307D01*
X449807Y510198D01*
X449807Y505802D01*
X446698Y502693D01*
X442302Y502693D01*
G37*
%LPD*%
%LPC*%
G36*
X239102Y502693D02*
X239102Y502693D01*
X235993Y505802D01*
X235993Y510198D01*
X239102Y513307D01*
X243498Y513307D01*
X246607Y510198D01*
X246607Y505802D01*
X243498Y502693D01*
X239102Y502693D01*
G37*
%LPD*%
%LPC*%
G36*
X378802Y502693D02*
X378802Y502693D01*
X375693Y505802D01*
X375693Y510198D01*
X378802Y513307D01*
X383198Y513307D01*
X386307Y510198D01*
X386307Y505802D01*
X383198Y502693D01*
X378802Y502693D01*
G37*
%LPD*%
%LPC*%
G36*
X582002Y502693D02*
X582002Y502693D01*
X578893Y505802D01*
X578893Y510198D01*
X582002Y513307D01*
X586398Y513307D01*
X589507Y510198D01*
X589507Y505802D01*
X586398Y502693D01*
X582002Y502693D01*
G37*
%LPD*%
%LPC*%
G36*
X531202Y743993D02*
X531202Y743993D01*
X528093Y747102D01*
X528093Y751498D01*
X531202Y754607D01*
X535598Y754607D01*
X538707Y751498D01*
X538707Y747102D01*
X535598Y743993D01*
X531202Y743993D01*
G37*
%LPD*%
%LPC*%
G36*
X429602Y439193D02*
X429602Y439193D01*
X426493Y442302D01*
X426493Y446698D01*
X429602Y449807D01*
X433998Y449807D01*
X437107Y446698D01*
X437107Y442302D01*
X433998Y439193D01*
X429602Y439193D01*
G37*
%LPD*%
%LPC*%
G36*
X86702Y286793D02*
X86702Y286793D01*
X83593Y289902D01*
X83593Y294298D01*
X86702Y297407D01*
X91098Y297407D01*
X94207Y294298D01*
X94207Y289902D01*
X91098Y286793D01*
X86702Y286793D01*
G37*
%LPD*%
D10*
X380247Y809635D03*
X380247Y784235D03*
X405647Y784235D03*
X405647Y809635D03*
X354847Y809635D03*
X354847Y784235D03*
D11*
X414300Y292100D03*
X449300Y292100D03*
X484300Y292100D03*
X519300Y292100D03*
X554300Y292100D03*
X379300Y292100D03*
X344300Y292100D03*
X309300Y292100D03*
D12*
X169213Y404388D03*
X169213Y429388D03*
X169213Y454388D03*
X24213Y404388D03*
X24213Y454388D03*
D13*
X94213Y368388D03*
X94213Y490388D03*
D12*
X812800Y334300D03*
D14*
X787400Y334300D03*
X762000Y334300D03*
X736600Y334300D03*
D15*
X288826Y685800D03*
D16*
X304800Y685800D01*
D15*
X304800Y685800D03*
X279400Y381000D03*
X444500Y508000D03*
X419100Y381000D03*
X381000Y508000D03*
X241300Y508000D03*
X520700Y508000D03*
X584200Y508000D03*
X558800Y381000D03*
X571500Y508000D03*
D16*
X571500Y520700D01*
X558800Y533400D01*
X546100Y533400D01*
X533400Y520700D01*
X533400Y368300D01*
D15*
X533400Y368300D03*
X431800Y508000D03*
D16*
X431800Y520700D01*
X419100Y533400D01*
X406400Y533400D01*
X393700Y520700D01*
X393700Y368300D01*
D15*
X393700Y368300D03*
X406400Y698500D03*
X406400Y660400D03*
X609600Y381000D03*
X571500Y381000D03*
X609600Y584200D03*
D16*
X622300Y584200D01*
X647700Y558800D01*
X647700Y368300D01*
X635000Y355600D01*
X596900Y355600D01*
X571500Y381000D01*
D15*
X469900Y381000D03*
X571500Y812800D03*
X495300Y508000D03*
D16*
X546100Y558800D01*
X596900Y571500D02*
X596900Y584200D01*
X596900Y571500D02*
X584200Y558800D01*
X546100Y558800D01*
D15*
X596900Y584200D03*
X596900Y711200D03*
D16*
X596900Y800100D01*
X584200Y812800D01*
X571500Y812800D01*
D15*
X596900Y800100D03*
X596900Y508000D03*
X609600Y571500D03*
D16*
X622300Y558800D01*
X622300Y533400D01*
X596900Y508000D01*
D15*
X457200Y508000D03*
X482600Y533400D03*
D16*
X457200Y508000D01*
D15*
X330200Y381000D03*
X355600Y520700D03*
D16*
X355600Y393700D01*
X342900Y381000D01*
X330200Y381000D01*
D15*
X292100Y381000D03*
X381000Y381000D03*
D16*
X368300Y368300D01*
X304800Y368300D01*
X292100Y381000D01*
D15*
X139700Y711200D03*
D16*
X101600Y711200D01*
D15*
X101600Y711200D03*
X139700Y723900D03*
D16*
X101600Y723900D01*
D15*
X101600Y723900D03*
X406400Y762000D03*
X622300Y736600D03*
D16*
X622300Y702056D01*
X609600Y689356D01*
X479044Y689356D01*
X469900Y698500D01*
X469900Y711200D01*
X444500Y736600D01*
X431800Y736600D01*
X406400Y762000D01*
D15*
X687324Y825500D03*
D16*
X673100Y825500D01*
X660400Y812800D01*
X660400Y774700D01*
X673100Y762000D01*
X685800Y762000D01*
X698500Y749300D01*
X698500Y698500D02*
X622300Y622300D01*
X520700Y622300D01*
X698500Y698500D02*
X698500Y749300D01*
D15*
X520700Y622300D03*
X533400Y838200D03*
D16*
X546100Y850900D02*
X571500Y850900D01*
X546100Y850900D02*
X533400Y838200D01*
X673100Y749300D02*
X687324Y749300D01*
D15*
X687324Y749300D03*
D16*
X673100Y749300D02*
X571500Y850900D01*
D15*
X660400Y723900D03*
X687324Y723900D03*
D16*
X660400Y723900D01*
D15*
X687324Y698500D03*
D16*
X469900Y685800D02*
X457200Y698500D01*
X457200Y711200D01*
D15*
X457200Y711200D03*
D16*
X674624Y685800D02*
X687324Y698500D01*
X674624Y685800D02*
X469900Y685800D01*
D15*
X431800Y381000D03*
D16*
X457200Y355600D01*
X495300Y355600D01*
X508000Y368300D01*
X508000Y508000D01*
X546100Y546100D01*
X596900Y546100D01*
D15*
X596900Y546100D03*
X571500Y609600D03*
D16*
X711200Y609600D01*
X723900Y596900D02*
X723900Y393700D01*
X762000Y355600D01*
X762000Y334300D01*
X723900Y596900D02*
X711200Y609600D01*
D15*
X571500Y596900D03*
D16*
X685800Y596900D01*
X698500Y584200D01*
X736600Y355600D02*
X736600Y334300D01*
X736600Y355600D02*
X698500Y393700D01*
X698500Y584200D01*
D15*
X495300Y825500D03*
D16*
X482600Y838200D01*
X419100Y838200D01*
D15*
X419100Y838200D03*
X368300Y838200D03*
D16*
X381000Y838200D01*
X393700Y825500D01*
X393700Y749300D01*
D15*
X546100Y660400D03*
D16*
X533400Y673100D01*
X469900Y673100D01*
X393700Y749300D01*
D15*
X393700Y838200D03*
D16*
X406400Y838200D01*
X419100Y825500D01*
D15*
X457200Y787400D03*
D16*
X457200Y812800D02*
X444500Y825500D01*
X419100Y825500D01*
X457200Y812800D02*
X457200Y787400D01*
D15*
X571500Y660400D03*
D16*
X266700Y635000D02*
X254000Y647700D01*
X254000Y685800D01*
X241300Y698500D01*
D15*
X215900Y698500D03*
D16*
X241300Y698500D01*
X266700Y635000D02*
X457200Y635000D01*
X469900Y647700D01*
X558800Y647700D01*
X571500Y660400D01*
D15*
X571500Y647700D03*
X228600Y571500D03*
D16*
X254000Y609600D02*
X266700Y622300D01*
X241300Y571500D02*
X228600Y571500D01*
X241300Y571500D02*
X254000Y584200D01*
X254000Y609600D01*
X266700Y622300D02*
X469900Y622300D01*
X482600Y635000D01*
X558800Y635000D01*
X571500Y647700D01*
D15*
X419100Y609600D03*
X558800Y825500D03*
D16*
X508000Y825500D01*
X482600Y850900D01*
X355600Y850900D01*
X187988Y683288D02*
X187988Y652859D01*
X88900Y553771D02*
X88900Y533400D01*
X88900Y553771D02*
X187988Y652859D01*
X88900Y533400D02*
X114300Y508000D01*
X177800Y508000D02*
X190500Y495300D01*
X190500Y469900D01*
X174988Y454388D02*
X169213Y454388D01*
X187988Y683288D02*
X355600Y850900D01*
X177800Y508000D02*
X114300Y508000D01*
X174988Y454388D02*
X190500Y469900D01*
D15*
X571500Y825500D03*
D16*
X571500Y838200D01*
X519097Y832132D02*
X494261Y856968D01*
X184432Y654332D02*
X0Y469900D01*
X184432Y654332D02*
X184432Y688314D01*
X353087Y856968D02*
X494261Y856968D01*
X353087Y856968D02*
X184432Y688314D01*
X0Y469900D02*
X0Y419100D01*
X14712Y404388D01*
X24213Y404388D01*
X550391Y832132D02*
X556459Y838200D01*
X550391Y832132D02*
X519097Y832132D01*
X556459Y838200D02*
X571500Y838200D01*
D15*
X330200Y647700D03*
D16*
X381000Y647700D01*
D15*
X381000Y647700D03*
X469900Y609600D03*
X685800Y647700D03*
X838200Y647700D03*
X88900Y292100D03*
X101600Y825500D03*
X190500Y635000D03*
X533400Y749300D03*
X431800Y444500D03*
X292100Y444500D03*
X571500Y444500D03*
M02*
