G04 EAGLE Gerber RS-274X export*
G75*
%MOMM*%
%FSLAX34Y34*%
%LPD*%
%INSilkscreen Top*%
%IPPOS*%
%AMOC8*
5,1,8,0,0,1.08239X$1,22.5*%
G01*
%ADD10C,0.101600*%
%ADD11C,0.127000*%
%ADD12C,0.200000*%
%ADD13C,0.076200*%
%ADD14R,0.150000X0.300000*%
%ADD15R,0.300000X0.300000*%
%ADD16C,0.300000*%
%ADD17C,0.152400*%
%ADD18C,0.508000*%
%ADD19C,0.203200*%


D10*
X177292Y716901D02*
X177292Y714304D01*
X177290Y714205D01*
X177284Y714105D01*
X177275Y714006D01*
X177262Y713908D01*
X177245Y713810D01*
X177224Y713712D01*
X177199Y713616D01*
X177171Y713521D01*
X177139Y713427D01*
X177104Y713334D01*
X177065Y713242D01*
X177022Y713152D01*
X176977Y713064D01*
X176927Y712977D01*
X176875Y712893D01*
X176819Y712810D01*
X176761Y712730D01*
X176699Y712652D01*
X176634Y712577D01*
X176566Y712504D01*
X176496Y712434D01*
X176423Y712366D01*
X176348Y712301D01*
X176270Y712239D01*
X176190Y712181D01*
X176107Y712125D01*
X176023Y712073D01*
X175936Y712023D01*
X175848Y711978D01*
X175758Y711935D01*
X175666Y711896D01*
X175573Y711861D01*
X175479Y711829D01*
X175384Y711801D01*
X175288Y711776D01*
X175190Y711755D01*
X175092Y711738D01*
X174994Y711725D01*
X174895Y711716D01*
X174795Y711710D01*
X174696Y711708D01*
X168204Y711708D01*
X168105Y711710D01*
X168005Y711716D01*
X167906Y711725D01*
X167808Y711738D01*
X167710Y711756D01*
X167612Y711776D01*
X167516Y711801D01*
X167420Y711829D01*
X167326Y711861D01*
X167233Y711896D01*
X167142Y711935D01*
X167052Y711978D01*
X166963Y712023D01*
X166877Y712073D01*
X166792Y712125D01*
X166710Y712181D01*
X166630Y712240D01*
X166552Y712301D01*
X166476Y712366D01*
X166403Y712434D01*
X166333Y712504D01*
X166265Y712577D01*
X166200Y712653D01*
X166139Y712731D01*
X166080Y712811D01*
X166024Y712893D01*
X165972Y712978D01*
X165923Y713064D01*
X165877Y713153D01*
X165834Y713243D01*
X165795Y713334D01*
X165760Y713427D01*
X165728Y713521D01*
X165700Y713617D01*
X165675Y713713D01*
X165655Y713811D01*
X165637Y713909D01*
X165624Y714007D01*
X165615Y714106D01*
X165609Y714205D01*
X165607Y714305D01*
X165608Y714304D02*
X165608Y716901D01*
X168204Y721266D02*
X165608Y724512D01*
X177292Y724512D01*
X177292Y727757D02*
X177292Y721266D01*
D11*
X71400Y684900D02*
X71400Y762900D01*
X-20600Y762900D02*
X-20600Y684900D01*
X19400Y762900D02*
X46400Y762900D01*
X46400Y684900D02*
X19400Y684900D01*
X71400Y744900D02*
X71400Y755900D01*
X71400Y702900D02*
X71400Y691900D01*
D10*
X91092Y730847D02*
X91092Y733444D01*
X91092Y730847D02*
X91090Y730748D01*
X91084Y730648D01*
X91075Y730549D01*
X91062Y730451D01*
X91045Y730353D01*
X91024Y730255D01*
X90999Y730159D01*
X90971Y730064D01*
X90939Y729970D01*
X90904Y729877D01*
X90865Y729785D01*
X90822Y729695D01*
X90777Y729607D01*
X90727Y729520D01*
X90675Y729436D01*
X90619Y729353D01*
X90561Y729273D01*
X90499Y729195D01*
X90434Y729120D01*
X90366Y729047D01*
X90296Y728977D01*
X90223Y728909D01*
X90148Y728844D01*
X90070Y728782D01*
X89990Y728724D01*
X89907Y728668D01*
X89823Y728616D01*
X89736Y728566D01*
X89648Y728521D01*
X89558Y728478D01*
X89466Y728439D01*
X89373Y728404D01*
X89279Y728372D01*
X89184Y728344D01*
X89088Y728319D01*
X88990Y728298D01*
X88892Y728281D01*
X88794Y728268D01*
X88695Y728259D01*
X88595Y728253D01*
X88496Y728251D01*
X82004Y728251D01*
X82004Y728250D02*
X81905Y728252D01*
X81805Y728258D01*
X81706Y728267D01*
X81608Y728280D01*
X81510Y728298D01*
X81412Y728318D01*
X81316Y728343D01*
X81220Y728371D01*
X81126Y728403D01*
X81033Y728438D01*
X80942Y728477D01*
X80852Y728520D01*
X80763Y728565D01*
X80677Y728615D01*
X80592Y728667D01*
X80510Y728723D01*
X80430Y728782D01*
X80352Y728843D01*
X80276Y728908D01*
X80203Y728976D01*
X80133Y729046D01*
X80065Y729119D01*
X80000Y729195D01*
X79939Y729273D01*
X79880Y729353D01*
X79824Y729435D01*
X79772Y729520D01*
X79723Y729606D01*
X79677Y729695D01*
X79634Y729785D01*
X79595Y729876D01*
X79560Y729969D01*
X79528Y730063D01*
X79500Y730159D01*
X79475Y730255D01*
X79455Y730353D01*
X79437Y730451D01*
X79424Y730549D01*
X79415Y730648D01*
X79409Y730747D01*
X79407Y730847D01*
X79408Y730847D02*
X79408Y733444D01*
X79408Y738190D02*
X91092Y738190D01*
X91092Y744681D02*
X79408Y738190D01*
X79408Y744681D02*
X91092Y744681D01*
X82004Y750001D02*
X79408Y753246D01*
X91092Y753246D01*
X91092Y750001D02*
X91092Y756492D01*
D12*
X248850Y460500D02*
X248850Y428500D01*
X248850Y460500D02*
X335350Y460500D01*
X335350Y428500D01*
X248850Y428500D01*
X247250Y425000D02*
X247250Y409750D01*
D10*
X260858Y434192D02*
X272542Y434192D01*
X272542Y432894D02*
X272542Y435490D01*
X260858Y435490D02*
X260858Y432894D01*
X272542Y442654D02*
X272542Y445250D01*
X272542Y442654D02*
X272540Y442555D01*
X272534Y442455D01*
X272525Y442356D01*
X272512Y442258D01*
X272495Y442160D01*
X272474Y442062D01*
X272449Y441966D01*
X272421Y441871D01*
X272389Y441777D01*
X272354Y441684D01*
X272315Y441592D01*
X272272Y441502D01*
X272227Y441414D01*
X272177Y441327D01*
X272125Y441243D01*
X272069Y441160D01*
X272011Y441080D01*
X271949Y441002D01*
X271884Y440927D01*
X271816Y440854D01*
X271746Y440784D01*
X271673Y440716D01*
X271598Y440651D01*
X271520Y440589D01*
X271440Y440531D01*
X271357Y440475D01*
X271273Y440423D01*
X271186Y440373D01*
X271098Y440328D01*
X271008Y440285D01*
X270916Y440246D01*
X270823Y440211D01*
X270729Y440179D01*
X270634Y440151D01*
X270538Y440126D01*
X270440Y440105D01*
X270342Y440088D01*
X270244Y440075D01*
X270145Y440066D01*
X270045Y440060D01*
X269946Y440058D01*
X269946Y440057D02*
X263454Y440057D01*
X263355Y440059D01*
X263255Y440065D01*
X263156Y440074D01*
X263058Y440087D01*
X262960Y440105D01*
X262862Y440125D01*
X262766Y440150D01*
X262670Y440178D01*
X262576Y440210D01*
X262483Y440245D01*
X262392Y440284D01*
X262302Y440327D01*
X262213Y440372D01*
X262127Y440422D01*
X262042Y440474D01*
X261960Y440530D01*
X261880Y440589D01*
X261802Y440650D01*
X261726Y440715D01*
X261653Y440783D01*
X261583Y440853D01*
X261515Y440926D01*
X261450Y441002D01*
X261389Y441080D01*
X261330Y441160D01*
X261274Y441242D01*
X261222Y441327D01*
X261173Y441413D01*
X261127Y441502D01*
X261084Y441592D01*
X261045Y441683D01*
X261010Y441776D01*
X260978Y441870D01*
X260950Y441966D01*
X260925Y442062D01*
X260905Y442160D01*
X260887Y442258D01*
X260874Y442356D01*
X260865Y442455D01*
X260859Y442554D01*
X260857Y442654D01*
X260858Y442654D02*
X260858Y445250D01*
X263454Y449615D02*
X260858Y452861D01*
X272542Y452861D01*
X272542Y456106D02*
X272542Y449615D01*
D12*
X388550Y460500D02*
X388550Y428500D01*
X388550Y460500D02*
X475050Y460500D01*
X475050Y428500D01*
X388550Y428500D01*
X386950Y425000D02*
X386950Y409750D01*
D10*
X438658Y408792D02*
X450342Y408792D01*
X450342Y407494D02*
X450342Y410090D01*
X438658Y410090D02*
X438658Y407494D01*
X450342Y417254D02*
X450342Y419850D01*
X450342Y417254D02*
X450340Y417155D01*
X450334Y417055D01*
X450325Y416956D01*
X450312Y416858D01*
X450295Y416760D01*
X450274Y416662D01*
X450249Y416566D01*
X450221Y416471D01*
X450189Y416377D01*
X450154Y416284D01*
X450115Y416192D01*
X450072Y416102D01*
X450027Y416014D01*
X449977Y415927D01*
X449925Y415843D01*
X449869Y415760D01*
X449811Y415680D01*
X449749Y415602D01*
X449684Y415527D01*
X449616Y415454D01*
X449546Y415384D01*
X449473Y415316D01*
X449398Y415251D01*
X449320Y415189D01*
X449240Y415131D01*
X449157Y415075D01*
X449073Y415023D01*
X448986Y414973D01*
X448898Y414928D01*
X448808Y414885D01*
X448716Y414846D01*
X448623Y414811D01*
X448529Y414779D01*
X448434Y414751D01*
X448338Y414726D01*
X448240Y414705D01*
X448142Y414688D01*
X448044Y414675D01*
X447945Y414666D01*
X447845Y414660D01*
X447746Y414658D01*
X447746Y414657D02*
X441254Y414657D01*
X441155Y414659D01*
X441055Y414665D01*
X440956Y414674D01*
X440858Y414687D01*
X440760Y414705D01*
X440662Y414725D01*
X440566Y414750D01*
X440470Y414778D01*
X440376Y414810D01*
X440283Y414845D01*
X440192Y414884D01*
X440102Y414927D01*
X440013Y414972D01*
X439927Y415022D01*
X439842Y415074D01*
X439760Y415130D01*
X439680Y415189D01*
X439602Y415250D01*
X439526Y415315D01*
X439453Y415383D01*
X439383Y415453D01*
X439315Y415526D01*
X439250Y415602D01*
X439189Y415680D01*
X439130Y415760D01*
X439074Y415842D01*
X439022Y415927D01*
X438973Y416013D01*
X438927Y416102D01*
X438884Y416192D01*
X438845Y416283D01*
X438810Y416376D01*
X438778Y416470D01*
X438750Y416566D01*
X438725Y416662D01*
X438705Y416760D01*
X438687Y416858D01*
X438674Y416956D01*
X438665Y417055D01*
X438659Y417154D01*
X438657Y417254D01*
X438658Y417254D02*
X438658Y419850D01*
X438658Y427785D02*
X438660Y427892D01*
X438666Y427998D01*
X438676Y428104D01*
X438689Y428210D01*
X438707Y428316D01*
X438728Y428420D01*
X438753Y428524D01*
X438782Y428627D01*
X438814Y428728D01*
X438851Y428828D01*
X438891Y428927D01*
X438934Y429025D01*
X438981Y429121D01*
X439032Y429215D01*
X439086Y429307D01*
X439143Y429397D01*
X439203Y429485D01*
X439267Y429570D01*
X439334Y429653D01*
X439404Y429734D01*
X439476Y429812D01*
X439552Y429888D01*
X439630Y429960D01*
X439711Y430030D01*
X439794Y430097D01*
X439879Y430161D01*
X439967Y430221D01*
X440057Y430278D01*
X440149Y430332D01*
X440243Y430383D01*
X440339Y430430D01*
X440437Y430473D01*
X440536Y430513D01*
X440636Y430550D01*
X440737Y430582D01*
X440840Y430611D01*
X440944Y430636D01*
X441048Y430657D01*
X441154Y430675D01*
X441260Y430688D01*
X441366Y430698D01*
X441472Y430704D01*
X441579Y430706D01*
X438658Y427785D02*
X438660Y427664D01*
X438666Y427543D01*
X438676Y427423D01*
X438689Y427302D01*
X438707Y427183D01*
X438728Y427063D01*
X438753Y426945D01*
X438782Y426828D01*
X438815Y426711D01*
X438851Y426596D01*
X438892Y426482D01*
X438935Y426369D01*
X438983Y426257D01*
X439034Y426148D01*
X439089Y426040D01*
X439147Y425933D01*
X439208Y425829D01*
X439273Y425727D01*
X439341Y425627D01*
X439412Y425529D01*
X439486Y425433D01*
X439563Y425340D01*
X439644Y425250D01*
X439727Y425162D01*
X439813Y425077D01*
X439902Y424994D01*
X439993Y424915D01*
X440087Y424838D01*
X440183Y424765D01*
X440281Y424695D01*
X440382Y424628D01*
X440485Y424564D01*
X440590Y424504D01*
X440697Y424446D01*
X440805Y424393D01*
X440915Y424343D01*
X441027Y424297D01*
X441140Y424254D01*
X441255Y424215D01*
X443851Y429732D02*
X443773Y429811D01*
X443693Y429887D01*
X443610Y429960D01*
X443524Y430030D01*
X443437Y430097D01*
X443346Y430161D01*
X443254Y430221D01*
X443160Y430279D01*
X443063Y430333D01*
X442965Y430383D01*
X442865Y430430D01*
X442764Y430474D01*
X442661Y430514D01*
X442556Y430550D01*
X442451Y430582D01*
X442344Y430611D01*
X442237Y430636D01*
X442128Y430658D01*
X442019Y430675D01*
X441910Y430689D01*
X441800Y430698D01*
X441689Y430704D01*
X441579Y430706D01*
X443851Y429733D02*
X450342Y424215D01*
X450342Y430706D01*
D12*
X528250Y428500D02*
X528250Y460500D01*
X614750Y460500D01*
X614750Y428500D01*
X528250Y428500D01*
X526650Y425000D02*
X526650Y409750D01*
D10*
X552958Y434192D02*
X564642Y434192D01*
X564642Y432894D02*
X564642Y435490D01*
X552958Y435490D02*
X552958Y432894D01*
X564642Y442654D02*
X564642Y445250D01*
X564642Y442654D02*
X564640Y442555D01*
X564634Y442455D01*
X564625Y442356D01*
X564612Y442258D01*
X564595Y442160D01*
X564574Y442062D01*
X564549Y441966D01*
X564521Y441871D01*
X564489Y441777D01*
X564454Y441684D01*
X564415Y441592D01*
X564372Y441502D01*
X564327Y441414D01*
X564277Y441327D01*
X564225Y441243D01*
X564169Y441160D01*
X564111Y441080D01*
X564049Y441002D01*
X563984Y440927D01*
X563916Y440854D01*
X563846Y440784D01*
X563773Y440716D01*
X563698Y440651D01*
X563620Y440589D01*
X563540Y440531D01*
X563457Y440475D01*
X563373Y440423D01*
X563286Y440373D01*
X563198Y440328D01*
X563108Y440285D01*
X563016Y440246D01*
X562923Y440211D01*
X562829Y440179D01*
X562734Y440151D01*
X562638Y440126D01*
X562540Y440105D01*
X562442Y440088D01*
X562344Y440075D01*
X562245Y440066D01*
X562145Y440060D01*
X562046Y440058D01*
X562046Y440057D02*
X555554Y440057D01*
X555455Y440059D01*
X555355Y440065D01*
X555256Y440074D01*
X555158Y440087D01*
X555060Y440105D01*
X554962Y440125D01*
X554866Y440150D01*
X554770Y440178D01*
X554676Y440210D01*
X554583Y440245D01*
X554492Y440284D01*
X554402Y440327D01*
X554313Y440372D01*
X554227Y440422D01*
X554142Y440474D01*
X554060Y440530D01*
X553980Y440589D01*
X553902Y440650D01*
X553826Y440715D01*
X553753Y440783D01*
X553683Y440853D01*
X553615Y440926D01*
X553550Y441002D01*
X553489Y441080D01*
X553430Y441160D01*
X553374Y441242D01*
X553322Y441327D01*
X553273Y441413D01*
X553227Y441502D01*
X553184Y441592D01*
X553145Y441683D01*
X553110Y441776D01*
X553078Y441870D01*
X553050Y441966D01*
X553025Y442062D01*
X553005Y442160D01*
X552987Y442258D01*
X552974Y442356D01*
X552965Y442455D01*
X552959Y442554D01*
X552957Y442654D01*
X552958Y442654D02*
X552958Y445250D01*
X564642Y449615D02*
X564642Y452861D01*
X564640Y452974D01*
X564634Y453087D01*
X564624Y453200D01*
X564610Y453313D01*
X564593Y453425D01*
X564571Y453536D01*
X564546Y453646D01*
X564516Y453756D01*
X564483Y453864D01*
X564446Y453971D01*
X564406Y454077D01*
X564361Y454181D01*
X564313Y454284D01*
X564262Y454385D01*
X564207Y454484D01*
X564149Y454581D01*
X564087Y454676D01*
X564022Y454769D01*
X563954Y454859D01*
X563883Y454947D01*
X563808Y455033D01*
X563731Y455116D01*
X563651Y455196D01*
X563568Y455273D01*
X563482Y455348D01*
X563394Y455419D01*
X563304Y455487D01*
X563211Y455552D01*
X563116Y455614D01*
X563019Y455672D01*
X562920Y455727D01*
X562819Y455778D01*
X562716Y455826D01*
X562612Y455871D01*
X562506Y455911D01*
X562399Y455948D01*
X562291Y455981D01*
X562181Y456011D01*
X562071Y456036D01*
X561960Y456058D01*
X561848Y456075D01*
X561735Y456089D01*
X561622Y456099D01*
X561509Y456105D01*
X561396Y456107D01*
X561283Y456105D01*
X561170Y456099D01*
X561057Y456089D01*
X560944Y456075D01*
X560832Y456058D01*
X560721Y456036D01*
X560611Y456011D01*
X560501Y455981D01*
X560393Y455948D01*
X560286Y455911D01*
X560180Y455871D01*
X560076Y455826D01*
X559973Y455778D01*
X559872Y455727D01*
X559773Y455672D01*
X559676Y455614D01*
X559581Y455552D01*
X559488Y455487D01*
X559398Y455419D01*
X559310Y455348D01*
X559224Y455273D01*
X559141Y455196D01*
X559061Y455116D01*
X558984Y455033D01*
X558909Y454947D01*
X558838Y454859D01*
X558770Y454769D01*
X558705Y454676D01*
X558643Y454581D01*
X558585Y454484D01*
X558530Y454385D01*
X558479Y454284D01*
X558431Y454181D01*
X558386Y454077D01*
X558346Y453971D01*
X558309Y453864D01*
X558276Y453756D01*
X558246Y453646D01*
X558221Y453536D01*
X558199Y453425D01*
X558182Y453313D01*
X558168Y453200D01*
X558158Y453087D01*
X558152Y452974D01*
X558150Y452861D01*
X552958Y453510D02*
X552958Y449615D01*
X552958Y453510D02*
X552960Y453611D01*
X552966Y453711D01*
X552976Y453811D01*
X552989Y453911D01*
X553007Y454010D01*
X553028Y454109D01*
X553053Y454206D01*
X553082Y454303D01*
X553115Y454398D01*
X553151Y454492D01*
X553191Y454584D01*
X553234Y454675D01*
X553281Y454764D01*
X553331Y454851D01*
X553385Y454937D01*
X553442Y455020D01*
X553502Y455100D01*
X553565Y455179D01*
X553632Y455255D01*
X553701Y455328D01*
X553773Y455398D01*
X553847Y455466D01*
X553924Y455531D01*
X554004Y455592D01*
X554086Y455651D01*
X554170Y455706D01*
X554256Y455758D01*
X554344Y455807D01*
X554434Y455852D01*
X554526Y455894D01*
X554619Y455932D01*
X554714Y455966D01*
X554809Y455997D01*
X554906Y456024D01*
X555004Y456047D01*
X555103Y456067D01*
X555203Y456082D01*
X555303Y456094D01*
X555403Y456102D01*
X555504Y456106D01*
X555604Y456106D01*
X555705Y456102D01*
X555805Y456094D01*
X555905Y456082D01*
X556005Y456067D01*
X556104Y456047D01*
X556202Y456024D01*
X556299Y455997D01*
X556394Y455966D01*
X556489Y455932D01*
X556582Y455894D01*
X556674Y455852D01*
X556764Y455807D01*
X556852Y455758D01*
X556938Y455706D01*
X557022Y455651D01*
X557104Y455592D01*
X557184Y455531D01*
X557261Y455466D01*
X557335Y455398D01*
X557407Y455328D01*
X557476Y455255D01*
X557543Y455179D01*
X557606Y455100D01*
X557666Y455020D01*
X557723Y454937D01*
X557777Y454851D01*
X557827Y454764D01*
X557874Y454675D01*
X557917Y454584D01*
X557957Y454492D01*
X557993Y454398D01*
X558026Y454303D01*
X558055Y454206D01*
X558080Y454109D01*
X558101Y454010D01*
X558119Y453911D01*
X558132Y453811D01*
X558142Y453711D01*
X558148Y453611D01*
X558150Y453510D01*
X558151Y453510D02*
X558151Y450914D01*
D11*
X418347Y814715D02*
X410727Y822335D01*
X418347Y814715D02*
X418347Y779155D01*
X410727Y771535D01*
X398027Y771535D01*
X392947Y776615D01*
X387867Y771535D01*
X372627Y771535D01*
X367547Y776615D01*
X362467Y771535D01*
X349767Y771535D01*
X342147Y779155D01*
X342147Y814715D01*
X349767Y822335D01*
X362467Y822335D01*
X367547Y817255D01*
X372627Y822335D01*
X387867Y822335D01*
X392947Y817255D01*
X398027Y822335D01*
X410727Y822335D01*
D13*
X416188Y824423D02*
X418276Y821813D01*
X416188Y824423D02*
X425586Y824423D01*
X425586Y821813D02*
X425586Y827034D01*
D10*
X364273Y827923D02*
X364273Y839607D01*
X362975Y827923D02*
X365571Y827923D01*
X365571Y839607D02*
X362975Y839607D01*
X373685Y827923D02*
X373784Y827925D01*
X373884Y827931D01*
X373983Y827940D01*
X374081Y827953D01*
X374179Y827970D01*
X374277Y827991D01*
X374373Y828016D01*
X374468Y828044D01*
X374562Y828076D01*
X374655Y828111D01*
X374747Y828150D01*
X374837Y828193D01*
X374925Y828238D01*
X375012Y828288D01*
X375096Y828340D01*
X375179Y828396D01*
X375259Y828454D01*
X375337Y828516D01*
X375412Y828581D01*
X375485Y828649D01*
X375555Y828719D01*
X375623Y828792D01*
X375688Y828867D01*
X375750Y828945D01*
X375808Y829025D01*
X375864Y829108D01*
X375916Y829192D01*
X375966Y829279D01*
X376011Y829367D01*
X376054Y829457D01*
X376093Y829549D01*
X376128Y829642D01*
X376160Y829736D01*
X376188Y829831D01*
X376213Y829927D01*
X376234Y830025D01*
X376251Y830123D01*
X376264Y830221D01*
X376273Y830320D01*
X376279Y830420D01*
X376281Y830519D01*
X373685Y827923D02*
X373541Y827925D01*
X373396Y827931D01*
X373252Y827940D01*
X373109Y827953D01*
X372965Y827970D01*
X372822Y827991D01*
X372680Y828016D01*
X372539Y828044D01*
X372398Y828076D01*
X372258Y828112D01*
X372119Y828151D01*
X371981Y828194D01*
X371845Y828241D01*
X371709Y828291D01*
X371575Y828345D01*
X371443Y828402D01*
X371312Y828463D01*
X371183Y828527D01*
X371055Y828595D01*
X370929Y828665D01*
X370805Y828740D01*
X370684Y828817D01*
X370564Y828898D01*
X370446Y828981D01*
X370331Y829068D01*
X370218Y829158D01*
X370107Y829251D01*
X369999Y829346D01*
X369893Y829445D01*
X369790Y829546D01*
X370116Y837011D02*
X370118Y837110D01*
X370124Y837210D01*
X370133Y837309D01*
X370146Y837407D01*
X370163Y837505D01*
X370184Y837603D01*
X370209Y837699D01*
X370237Y837794D01*
X370269Y837888D01*
X370304Y837981D01*
X370343Y838073D01*
X370386Y838163D01*
X370431Y838251D01*
X370481Y838338D01*
X370533Y838422D01*
X370589Y838505D01*
X370647Y838585D01*
X370709Y838663D01*
X370774Y838738D01*
X370842Y838811D01*
X370912Y838881D01*
X370985Y838949D01*
X371060Y839014D01*
X371138Y839076D01*
X371218Y839134D01*
X371301Y839190D01*
X371385Y839242D01*
X371472Y839292D01*
X371560Y839337D01*
X371650Y839380D01*
X371742Y839419D01*
X371835Y839454D01*
X371929Y839486D01*
X372024Y839514D01*
X372121Y839539D01*
X372218Y839560D01*
X372316Y839577D01*
X372414Y839590D01*
X372513Y839599D01*
X372613Y839605D01*
X372712Y839607D01*
X372848Y839605D01*
X372984Y839599D01*
X373120Y839590D01*
X373256Y839577D01*
X373391Y839559D01*
X373525Y839539D01*
X373659Y839514D01*
X373793Y839486D01*
X373925Y839453D01*
X374056Y839418D01*
X374187Y839378D01*
X374316Y839335D01*
X374444Y839289D01*
X374570Y839238D01*
X374696Y839185D01*
X374819Y839127D01*
X374941Y839067D01*
X375061Y839003D01*
X375180Y838935D01*
X375296Y838865D01*
X375410Y838791D01*
X375523Y838714D01*
X375633Y838633D01*
X371413Y834739D02*
X371327Y834792D01*
X371243Y834849D01*
X371161Y834908D01*
X371081Y834971D01*
X371004Y835037D01*
X370929Y835105D01*
X370857Y835177D01*
X370788Y835251D01*
X370722Y835328D01*
X370659Y835407D01*
X370599Y835489D01*
X370542Y835573D01*
X370488Y835659D01*
X370438Y835747D01*
X370391Y835837D01*
X370347Y835928D01*
X370308Y836022D01*
X370271Y836116D01*
X370239Y836212D01*
X370210Y836310D01*
X370185Y836408D01*
X370164Y836507D01*
X370146Y836607D01*
X370133Y836707D01*
X370123Y836808D01*
X370117Y836910D01*
X370115Y837011D01*
X374984Y832791D02*
X375070Y832738D01*
X375154Y832681D01*
X375236Y832622D01*
X375316Y832559D01*
X375393Y832493D01*
X375468Y832425D01*
X375540Y832353D01*
X375609Y832279D01*
X375675Y832202D01*
X375738Y832123D01*
X375798Y832041D01*
X375855Y831957D01*
X375909Y831871D01*
X375959Y831783D01*
X376006Y831693D01*
X376050Y831602D01*
X376089Y831508D01*
X376126Y831414D01*
X376158Y831318D01*
X376187Y831220D01*
X376212Y831122D01*
X376233Y831023D01*
X376251Y830923D01*
X376264Y830823D01*
X376274Y830722D01*
X376280Y830620D01*
X376282Y830519D01*
X374984Y832791D02*
X371413Y834739D01*
X381390Y839607D02*
X381390Y827923D01*
X381390Y839607D02*
X384636Y839607D01*
X384749Y839605D01*
X384862Y839599D01*
X384975Y839589D01*
X385088Y839575D01*
X385200Y839558D01*
X385311Y839536D01*
X385421Y839511D01*
X385531Y839481D01*
X385639Y839448D01*
X385746Y839411D01*
X385852Y839371D01*
X385956Y839326D01*
X386059Y839278D01*
X386160Y839227D01*
X386259Y839172D01*
X386356Y839114D01*
X386451Y839052D01*
X386544Y838987D01*
X386634Y838919D01*
X386722Y838848D01*
X386808Y838773D01*
X386891Y838696D01*
X386971Y838616D01*
X387048Y838533D01*
X387123Y838447D01*
X387194Y838359D01*
X387262Y838269D01*
X387327Y838176D01*
X387389Y838081D01*
X387447Y837984D01*
X387502Y837885D01*
X387553Y837784D01*
X387601Y837681D01*
X387646Y837577D01*
X387686Y837471D01*
X387723Y837364D01*
X387756Y837256D01*
X387786Y837146D01*
X387811Y837036D01*
X387833Y836925D01*
X387850Y836813D01*
X387864Y836700D01*
X387874Y836587D01*
X387880Y836474D01*
X387882Y836361D01*
X387880Y836248D01*
X387874Y836135D01*
X387864Y836022D01*
X387850Y835909D01*
X387833Y835797D01*
X387811Y835686D01*
X387786Y835576D01*
X387756Y835466D01*
X387723Y835358D01*
X387686Y835251D01*
X387646Y835145D01*
X387601Y835041D01*
X387553Y834938D01*
X387502Y834837D01*
X387447Y834738D01*
X387389Y834641D01*
X387327Y834546D01*
X387262Y834453D01*
X387194Y834363D01*
X387123Y834275D01*
X387048Y834189D01*
X386971Y834106D01*
X386891Y834026D01*
X386808Y833949D01*
X386722Y833874D01*
X386634Y833803D01*
X386544Y833735D01*
X386451Y833670D01*
X386356Y833608D01*
X386259Y833550D01*
X386160Y833495D01*
X386059Y833444D01*
X385956Y833396D01*
X385852Y833351D01*
X385746Y833311D01*
X385639Y833274D01*
X385531Y833241D01*
X385421Y833211D01*
X385311Y833186D01*
X385200Y833164D01*
X385088Y833147D01*
X384975Y833133D01*
X384862Y833123D01*
X384749Y833117D01*
X384636Y833115D01*
X384636Y833116D02*
X381390Y833116D01*
X392270Y837011D02*
X395515Y839607D01*
X395515Y827923D01*
X392270Y827923D02*
X398761Y827923D01*
D11*
X571800Y317100D02*
X571800Y258100D01*
X571800Y317100D02*
X571800Y328100D01*
X291800Y328100D01*
X291800Y317100D01*
X291800Y258100D01*
X571800Y258100D01*
X571800Y317100D02*
X291800Y317100D01*
D10*
X305003Y340604D02*
X305003Y349692D01*
X305002Y340604D02*
X305000Y340505D01*
X304994Y340405D01*
X304985Y340306D01*
X304972Y340208D01*
X304955Y340110D01*
X304934Y340012D01*
X304909Y339916D01*
X304881Y339821D01*
X304849Y339727D01*
X304814Y339634D01*
X304775Y339542D01*
X304732Y339452D01*
X304687Y339364D01*
X304637Y339277D01*
X304585Y339193D01*
X304529Y339110D01*
X304471Y339030D01*
X304409Y338952D01*
X304344Y338877D01*
X304276Y338804D01*
X304206Y338734D01*
X304133Y338666D01*
X304058Y338601D01*
X303980Y338539D01*
X303900Y338481D01*
X303817Y338425D01*
X303733Y338373D01*
X303646Y338323D01*
X303558Y338278D01*
X303468Y338235D01*
X303376Y338196D01*
X303283Y338161D01*
X303189Y338129D01*
X303094Y338101D01*
X302998Y338076D01*
X302900Y338055D01*
X302802Y338038D01*
X302704Y338025D01*
X302605Y338016D01*
X302505Y338010D01*
X302406Y338008D01*
X301108Y338008D01*
X310826Y338008D02*
X310826Y349692D01*
X314072Y349692D01*
X314185Y349690D01*
X314298Y349684D01*
X314411Y349674D01*
X314524Y349660D01*
X314636Y349643D01*
X314747Y349621D01*
X314857Y349596D01*
X314967Y349566D01*
X315075Y349533D01*
X315182Y349496D01*
X315288Y349456D01*
X315392Y349411D01*
X315495Y349363D01*
X315596Y349312D01*
X315695Y349257D01*
X315792Y349199D01*
X315887Y349137D01*
X315980Y349072D01*
X316070Y349004D01*
X316158Y348933D01*
X316244Y348858D01*
X316327Y348781D01*
X316407Y348701D01*
X316484Y348618D01*
X316559Y348532D01*
X316630Y348444D01*
X316698Y348354D01*
X316763Y348261D01*
X316825Y348166D01*
X316883Y348069D01*
X316938Y347970D01*
X316989Y347869D01*
X317037Y347766D01*
X317082Y347662D01*
X317122Y347556D01*
X317159Y347449D01*
X317192Y347341D01*
X317222Y347231D01*
X317247Y347121D01*
X317269Y347010D01*
X317286Y346898D01*
X317300Y346785D01*
X317310Y346672D01*
X317316Y346559D01*
X317318Y346446D01*
X317316Y346333D01*
X317310Y346220D01*
X317300Y346107D01*
X317286Y345994D01*
X317269Y345882D01*
X317247Y345771D01*
X317222Y345661D01*
X317192Y345551D01*
X317159Y345443D01*
X317122Y345336D01*
X317082Y345230D01*
X317037Y345126D01*
X316989Y345023D01*
X316938Y344922D01*
X316883Y344823D01*
X316825Y344726D01*
X316763Y344631D01*
X316698Y344538D01*
X316630Y344448D01*
X316559Y344360D01*
X316484Y344274D01*
X316407Y344191D01*
X316327Y344111D01*
X316244Y344034D01*
X316158Y343959D01*
X316070Y343888D01*
X315980Y343820D01*
X315887Y343755D01*
X315792Y343693D01*
X315695Y343635D01*
X315596Y343580D01*
X315495Y343529D01*
X315392Y343481D01*
X315288Y343436D01*
X315182Y343396D01*
X315075Y343359D01*
X314967Y343326D01*
X314857Y343296D01*
X314747Y343271D01*
X314636Y343249D01*
X314524Y343232D01*
X314411Y343218D01*
X314298Y343208D01*
X314185Y343202D01*
X314072Y343200D01*
X314072Y343201D02*
X310826Y343201D01*
X321706Y347096D02*
X324952Y349692D01*
X324952Y338008D01*
X328197Y338008D02*
X321706Y338008D01*
D14*
X717200Y785900D03*
X705200Y785900D03*
D15*
X711200Y785900D03*
D10*
X724408Y761501D02*
X736092Y761501D01*
X736092Y766693D01*
X736092Y771407D02*
X736092Y776599D01*
X736092Y771407D02*
X724408Y771407D01*
X724408Y776599D01*
X729601Y775301D02*
X729601Y771407D01*
X724408Y781290D02*
X736092Y781290D01*
X724408Y781290D02*
X724408Y784535D01*
X724410Y784648D01*
X724416Y784761D01*
X724426Y784874D01*
X724440Y784987D01*
X724457Y785099D01*
X724479Y785210D01*
X724504Y785320D01*
X724534Y785430D01*
X724567Y785538D01*
X724604Y785645D01*
X724644Y785751D01*
X724689Y785855D01*
X724737Y785958D01*
X724788Y786059D01*
X724843Y786158D01*
X724901Y786255D01*
X724963Y786350D01*
X725028Y786443D01*
X725096Y786533D01*
X725167Y786621D01*
X725242Y786707D01*
X725319Y786790D01*
X725399Y786870D01*
X725482Y786947D01*
X725568Y787022D01*
X725656Y787093D01*
X725746Y787161D01*
X725839Y787226D01*
X725934Y787288D01*
X726031Y787346D01*
X726130Y787401D01*
X726231Y787452D01*
X726334Y787500D01*
X726438Y787545D01*
X726544Y787585D01*
X726651Y787622D01*
X726759Y787655D01*
X726869Y787685D01*
X726979Y787710D01*
X727090Y787732D01*
X727202Y787749D01*
X727315Y787763D01*
X727428Y787773D01*
X727541Y787779D01*
X727654Y787781D01*
X732846Y787781D01*
X732846Y787782D02*
X732959Y787780D01*
X733072Y787774D01*
X733185Y787764D01*
X733298Y787750D01*
X733410Y787733D01*
X733521Y787711D01*
X733631Y787686D01*
X733741Y787656D01*
X733849Y787623D01*
X733956Y787586D01*
X734062Y787546D01*
X734166Y787501D01*
X734269Y787453D01*
X734370Y787402D01*
X734469Y787347D01*
X734566Y787289D01*
X734661Y787227D01*
X734754Y787162D01*
X734844Y787094D01*
X734932Y787023D01*
X735018Y786948D01*
X735101Y786871D01*
X735181Y786791D01*
X735258Y786708D01*
X735333Y786622D01*
X735404Y786534D01*
X735472Y786444D01*
X735537Y786351D01*
X735599Y786256D01*
X735657Y786159D01*
X735712Y786060D01*
X735763Y785959D01*
X735811Y785856D01*
X735856Y785752D01*
X735896Y785646D01*
X735933Y785539D01*
X735966Y785431D01*
X735996Y785321D01*
X736021Y785211D01*
X736043Y785100D01*
X736060Y784988D01*
X736074Y784875D01*
X736084Y784762D01*
X736090Y784649D01*
X736092Y784536D01*
X736092Y784535D02*
X736092Y781290D01*
X727004Y793101D02*
X724408Y796346D01*
X736092Y796346D01*
X736092Y793101D02*
X736092Y799592D01*
D14*
X755300Y785900D03*
X743300Y785900D03*
D15*
X749300Y785900D03*
D10*
X762508Y761501D02*
X774192Y761501D01*
X774192Y766693D01*
X774192Y771407D02*
X774192Y776599D01*
X774192Y771407D02*
X762508Y771407D01*
X762508Y776599D01*
X767701Y775301D02*
X767701Y771407D01*
X762508Y781290D02*
X774192Y781290D01*
X762508Y781290D02*
X762508Y784535D01*
X762510Y784648D01*
X762516Y784761D01*
X762526Y784874D01*
X762540Y784987D01*
X762557Y785099D01*
X762579Y785210D01*
X762604Y785320D01*
X762634Y785430D01*
X762667Y785538D01*
X762704Y785645D01*
X762744Y785751D01*
X762789Y785855D01*
X762837Y785958D01*
X762888Y786059D01*
X762943Y786158D01*
X763001Y786255D01*
X763063Y786350D01*
X763128Y786443D01*
X763196Y786533D01*
X763267Y786621D01*
X763342Y786707D01*
X763419Y786790D01*
X763499Y786870D01*
X763582Y786947D01*
X763668Y787022D01*
X763756Y787093D01*
X763846Y787161D01*
X763939Y787226D01*
X764034Y787288D01*
X764131Y787346D01*
X764230Y787401D01*
X764331Y787452D01*
X764434Y787500D01*
X764538Y787545D01*
X764644Y787585D01*
X764751Y787622D01*
X764859Y787655D01*
X764969Y787685D01*
X765079Y787710D01*
X765190Y787732D01*
X765302Y787749D01*
X765415Y787763D01*
X765528Y787773D01*
X765641Y787779D01*
X765754Y787781D01*
X770946Y787781D01*
X770946Y787782D02*
X771059Y787780D01*
X771172Y787774D01*
X771285Y787764D01*
X771398Y787750D01*
X771510Y787733D01*
X771621Y787711D01*
X771731Y787686D01*
X771841Y787656D01*
X771949Y787623D01*
X772056Y787586D01*
X772162Y787546D01*
X772266Y787501D01*
X772369Y787453D01*
X772470Y787402D01*
X772569Y787347D01*
X772666Y787289D01*
X772761Y787227D01*
X772854Y787162D01*
X772944Y787094D01*
X773032Y787023D01*
X773118Y786948D01*
X773201Y786871D01*
X773281Y786791D01*
X773358Y786708D01*
X773433Y786622D01*
X773504Y786534D01*
X773572Y786444D01*
X773637Y786351D01*
X773699Y786256D01*
X773757Y786159D01*
X773812Y786060D01*
X773863Y785959D01*
X773911Y785856D01*
X773956Y785752D01*
X773996Y785646D01*
X774033Y785539D01*
X774066Y785431D01*
X774096Y785321D01*
X774121Y785211D01*
X774143Y785100D01*
X774160Y784988D01*
X774174Y784875D01*
X774184Y784762D01*
X774190Y784649D01*
X774192Y784536D01*
X774192Y784535D02*
X774192Y781290D01*
X762508Y796671D02*
X762510Y796778D01*
X762516Y796884D01*
X762526Y796990D01*
X762539Y797096D01*
X762557Y797202D01*
X762578Y797306D01*
X762603Y797410D01*
X762632Y797513D01*
X762664Y797614D01*
X762701Y797714D01*
X762741Y797813D01*
X762784Y797911D01*
X762831Y798007D01*
X762882Y798101D01*
X762936Y798193D01*
X762993Y798283D01*
X763053Y798371D01*
X763117Y798456D01*
X763184Y798539D01*
X763254Y798620D01*
X763326Y798698D01*
X763402Y798774D01*
X763480Y798846D01*
X763561Y798916D01*
X763644Y798983D01*
X763729Y799047D01*
X763817Y799107D01*
X763907Y799164D01*
X763999Y799218D01*
X764093Y799269D01*
X764189Y799316D01*
X764287Y799359D01*
X764386Y799399D01*
X764486Y799436D01*
X764587Y799468D01*
X764690Y799497D01*
X764794Y799522D01*
X764898Y799543D01*
X765004Y799561D01*
X765110Y799574D01*
X765216Y799584D01*
X765322Y799590D01*
X765429Y799592D01*
X762508Y796671D02*
X762510Y796550D01*
X762516Y796429D01*
X762526Y796309D01*
X762539Y796188D01*
X762557Y796069D01*
X762578Y795949D01*
X762603Y795831D01*
X762632Y795714D01*
X762665Y795597D01*
X762701Y795482D01*
X762742Y795368D01*
X762785Y795255D01*
X762833Y795143D01*
X762884Y795034D01*
X762939Y794926D01*
X762997Y794819D01*
X763058Y794715D01*
X763123Y794613D01*
X763191Y794513D01*
X763262Y794415D01*
X763336Y794319D01*
X763413Y794226D01*
X763494Y794136D01*
X763577Y794048D01*
X763663Y793963D01*
X763752Y793880D01*
X763843Y793801D01*
X763937Y793724D01*
X764033Y793651D01*
X764131Y793581D01*
X764232Y793514D01*
X764335Y793450D01*
X764440Y793390D01*
X764547Y793332D01*
X764655Y793279D01*
X764765Y793229D01*
X764877Y793183D01*
X764990Y793140D01*
X765105Y793101D01*
X767701Y798618D02*
X767623Y798697D01*
X767543Y798773D01*
X767460Y798846D01*
X767374Y798916D01*
X767287Y798983D01*
X767196Y799047D01*
X767104Y799107D01*
X767010Y799165D01*
X766913Y799219D01*
X766815Y799269D01*
X766715Y799316D01*
X766614Y799360D01*
X766511Y799400D01*
X766406Y799436D01*
X766301Y799468D01*
X766194Y799497D01*
X766087Y799522D01*
X765978Y799544D01*
X765869Y799561D01*
X765760Y799575D01*
X765650Y799584D01*
X765539Y799590D01*
X765429Y799592D01*
X767701Y798618D02*
X774192Y793101D01*
X774192Y799592D01*
D14*
X793400Y785900D03*
X781400Y785900D03*
D15*
X787400Y785900D03*
D10*
X800608Y761501D02*
X812292Y761501D01*
X812292Y766693D01*
X812292Y771407D02*
X812292Y776599D01*
X812292Y771407D02*
X800608Y771407D01*
X800608Y776599D01*
X805801Y775301D02*
X805801Y771407D01*
X800608Y781290D02*
X812292Y781290D01*
X800608Y781290D02*
X800608Y784535D01*
X800610Y784648D01*
X800616Y784761D01*
X800626Y784874D01*
X800640Y784987D01*
X800657Y785099D01*
X800679Y785210D01*
X800704Y785320D01*
X800734Y785430D01*
X800767Y785538D01*
X800804Y785645D01*
X800844Y785751D01*
X800889Y785855D01*
X800937Y785958D01*
X800988Y786059D01*
X801043Y786158D01*
X801101Y786255D01*
X801163Y786350D01*
X801228Y786443D01*
X801296Y786533D01*
X801367Y786621D01*
X801442Y786707D01*
X801519Y786790D01*
X801599Y786870D01*
X801682Y786947D01*
X801768Y787022D01*
X801856Y787093D01*
X801946Y787161D01*
X802039Y787226D01*
X802134Y787288D01*
X802231Y787346D01*
X802330Y787401D01*
X802431Y787452D01*
X802534Y787500D01*
X802638Y787545D01*
X802744Y787585D01*
X802851Y787622D01*
X802959Y787655D01*
X803069Y787685D01*
X803179Y787710D01*
X803290Y787732D01*
X803402Y787749D01*
X803515Y787763D01*
X803628Y787773D01*
X803741Y787779D01*
X803854Y787781D01*
X809046Y787781D01*
X809046Y787782D02*
X809159Y787780D01*
X809272Y787774D01*
X809385Y787764D01*
X809498Y787750D01*
X809610Y787733D01*
X809721Y787711D01*
X809831Y787686D01*
X809941Y787656D01*
X810049Y787623D01*
X810156Y787586D01*
X810262Y787546D01*
X810366Y787501D01*
X810469Y787453D01*
X810570Y787402D01*
X810669Y787347D01*
X810766Y787289D01*
X810861Y787227D01*
X810954Y787162D01*
X811044Y787094D01*
X811132Y787023D01*
X811218Y786948D01*
X811301Y786871D01*
X811381Y786791D01*
X811458Y786708D01*
X811533Y786622D01*
X811604Y786534D01*
X811672Y786444D01*
X811737Y786351D01*
X811799Y786256D01*
X811857Y786159D01*
X811912Y786060D01*
X811963Y785959D01*
X812011Y785856D01*
X812056Y785752D01*
X812096Y785646D01*
X812133Y785539D01*
X812166Y785431D01*
X812196Y785321D01*
X812221Y785211D01*
X812243Y785100D01*
X812260Y784988D01*
X812274Y784875D01*
X812284Y784762D01*
X812290Y784649D01*
X812292Y784536D01*
X812292Y784535D02*
X812292Y781290D01*
X812292Y793101D02*
X812292Y796346D01*
X812290Y796459D01*
X812284Y796572D01*
X812274Y796685D01*
X812260Y796798D01*
X812243Y796910D01*
X812221Y797021D01*
X812196Y797131D01*
X812166Y797241D01*
X812133Y797349D01*
X812096Y797456D01*
X812056Y797562D01*
X812011Y797666D01*
X811963Y797769D01*
X811912Y797870D01*
X811857Y797969D01*
X811799Y798066D01*
X811737Y798161D01*
X811672Y798254D01*
X811604Y798344D01*
X811533Y798432D01*
X811458Y798518D01*
X811381Y798601D01*
X811301Y798681D01*
X811218Y798758D01*
X811132Y798833D01*
X811044Y798904D01*
X810954Y798972D01*
X810861Y799037D01*
X810766Y799099D01*
X810669Y799157D01*
X810570Y799212D01*
X810469Y799263D01*
X810366Y799311D01*
X810262Y799356D01*
X810156Y799396D01*
X810049Y799433D01*
X809941Y799466D01*
X809831Y799496D01*
X809721Y799521D01*
X809610Y799543D01*
X809498Y799560D01*
X809385Y799574D01*
X809272Y799584D01*
X809159Y799590D01*
X809046Y799592D01*
X808933Y799590D01*
X808820Y799584D01*
X808707Y799574D01*
X808594Y799560D01*
X808482Y799543D01*
X808371Y799521D01*
X808261Y799496D01*
X808151Y799466D01*
X808043Y799433D01*
X807936Y799396D01*
X807830Y799356D01*
X807726Y799311D01*
X807623Y799263D01*
X807522Y799212D01*
X807423Y799157D01*
X807326Y799099D01*
X807231Y799037D01*
X807138Y798972D01*
X807048Y798904D01*
X806960Y798833D01*
X806874Y798758D01*
X806791Y798681D01*
X806711Y798601D01*
X806634Y798518D01*
X806559Y798432D01*
X806488Y798344D01*
X806420Y798254D01*
X806355Y798161D01*
X806293Y798066D01*
X806235Y797969D01*
X806180Y797870D01*
X806129Y797769D01*
X806081Y797666D01*
X806036Y797562D01*
X805996Y797456D01*
X805959Y797349D01*
X805926Y797241D01*
X805896Y797131D01*
X805871Y797021D01*
X805849Y796910D01*
X805832Y796798D01*
X805818Y796685D01*
X805808Y796572D01*
X805802Y796459D01*
X805800Y796346D01*
X800608Y796996D02*
X800608Y793101D01*
X800608Y796996D02*
X800610Y797097D01*
X800616Y797197D01*
X800626Y797297D01*
X800639Y797397D01*
X800657Y797496D01*
X800678Y797595D01*
X800703Y797692D01*
X800732Y797789D01*
X800765Y797884D01*
X800801Y797978D01*
X800841Y798070D01*
X800884Y798161D01*
X800931Y798250D01*
X800981Y798337D01*
X801035Y798423D01*
X801092Y798506D01*
X801152Y798586D01*
X801215Y798665D01*
X801282Y798741D01*
X801351Y798814D01*
X801423Y798884D01*
X801497Y798952D01*
X801574Y799017D01*
X801654Y799078D01*
X801736Y799137D01*
X801820Y799192D01*
X801906Y799244D01*
X801994Y799293D01*
X802084Y799338D01*
X802176Y799380D01*
X802269Y799418D01*
X802364Y799452D01*
X802459Y799483D01*
X802556Y799510D01*
X802654Y799533D01*
X802753Y799553D01*
X802853Y799568D01*
X802953Y799580D01*
X803053Y799588D01*
X803154Y799592D01*
X803254Y799592D01*
X803355Y799588D01*
X803455Y799580D01*
X803555Y799568D01*
X803655Y799553D01*
X803754Y799533D01*
X803852Y799510D01*
X803949Y799483D01*
X804044Y799452D01*
X804139Y799418D01*
X804232Y799380D01*
X804324Y799338D01*
X804414Y799293D01*
X804502Y799244D01*
X804588Y799192D01*
X804672Y799137D01*
X804754Y799078D01*
X804834Y799017D01*
X804911Y798952D01*
X804985Y798884D01*
X805057Y798814D01*
X805126Y798741D01*
X805193Y798665D01*
X805256Y798586D01*
X805316Y798506D01*
X805373Y798423D01*
X805427Y798337D01*
X805477Y798250D01*
X805524Y798161D01*
X805567Y798070D01*
X805607Y797978D01*
X805643Y797884D01*
X805676Y797789D01*
X805705Y797692D01*
X805730Y797595D01*
X805751Y797496D01*
X805769Y797397D01*
X805782Y797297D01*
X805792Y797197D01*
X805798Y797097D01*
X805800Y796996D01*
X805801Y796996D02*
X805801Y794399D01*
D14*
X831500Y785900D03*
X819500Y785900D03*
D15*
X825500Y785900D03*
D10*
X838708Y761501D02*
X850392Y761501D01*
X850392Y766693D01*
X850392Y771407D02*
X850392Y776599D01*
X850392Y771407D02*
X838708Y771407D01*
X838708Y776599D01*
X843901Y775301D02*
X843901Y771407D01*
X838708Y781290D02*
X850392Y781290D01*
X838708Y781290D02*
X838708Y784535D01*
X838710Y784648D01*
X838716Y784761D01*
X838726Y784874D01*
X838740Y784987D01*
X838757Y785099D01*
X838779Y785210D01*
X838804Y785320D01*
X838834Y785430D01*
X838867Y785538D01*
X838904Y785645D01*
X838944Y785751D01*
X838989Y785855D01*
X839037Y785958D01*
X839088Y786059D01*
X839143Y786158D01*
X839201Y786255D01*
X839263Y786350D01*
X839328Y786443D01*
X839396Y786533D01*
X839467Y786621D01*
X839542Y786707D01*
X839619Y786790D01*
X839699Y786870D01*
X839782Y786947D01*
X839868Y787022D01*
X839956Y787093D01*
X840046Y787161D01*
X840139Y787226D01*
X840234Y787288D01*
X840331Y787346D01*
X840430Y787401D01*
X840531Y787452D01*
X840634Y787500D01*
X840738Y787545D01*
X840844Y787585D01*
X840951Y787622D01*
X841059Y787655D01*
X841169Y787685D01*
X841279Y787710D01*
X841390Y787732D01*
X841502Y787749D01*
X841615Y787763D01*
X841728Y787773D01*
X841841Y787779D01*
X841954Y787781D01*
X847146Y787781D01*
X847146Y787782D02*
X847259Y787780D01*
X847372Y787774D01*
X847485Y787764D01*
X847598Y787750D01*
X847710Y787733D01*
X847821Y787711D01*
X847931Y787686D01*
X848041Y787656D01*
X848149Y787623D01*
X848256Y787586D01*
X848362Y787546D01*
X848466Y787501D01*
X848569Y787453D01*
X848670Y787402D01*
X848769Y787347D01*
X848866Y787289D01*
X848961Y787227D01*
X849054Y787162D01*
X849144Y787094D01*
X849232Y787023D01*
X849318Y786948D01*
X849401Y786871D01*
X849481Y786791D01*
X849558Y786708D01*
X849633Y786622D01*
X849704Y786534D01*
X849772Y786444D01*
X849837Y786351D01*
X849899Y786256D01*
X849957Y786159D01*
X850012Y786060D01*
X850063Y785959D01*
X850111Y785856D01*
X850156Y785752D01*
X850196Y785646D01*
X850233Y785539D01*
X850266Y785431D01*
X850296Y785321D01*
X850321Y785211D01*
X850343Y785100D01*
X850360Y784988D01*
X850374Y784875D01*
X850384Y784762D01*
X850390Y784649D01*
X850392Y784536D01*
X850392Y784535D02*
X850392Y781290D01*
X847796Y793101D02*
X838708Y795697D01*
X847796Y793101D02*
X847796Y799592D01*
X845199Y797645D02*
X850392Y797645D01*
D14*
X869600Y785900D03*
X857600Y785900D03*
D15*
X863600Y785900D03*
D10*
X876808Y761501D02*
X888492Y761501D01*
X888492Y766693D01*
X888492Y771407D02*
X888492Y776599D01*
X888492Y771407D02*
X876808Y771407D01*
X876808Y776599D01*
X882001Y775301D02*
X882001Y771407D01*
X876808Y781290D02*
X888492Y781290D01*
X876808Y781290D02*
X876808Y784535D01*
X876810Y784648D01*
X876816Y784761D01*
X876826Y784874D01*
X876840Y784987D01*
X876857Y785099D01*
X876879Y785210D01*
X876904Y785320D01*
X876934Y785430D01*
X876967Y785538D01*
X877004Y785645D01*
X877044Y785751D01*
X877089Y785855D01*
X877137Y785958D01*
X877188Y786059D01*
X877243Y786158D01*
X877301Y786255D01*
X877363Y786350D01*
X877428Y786443D01*
X877496Y786533D01*
X877567Y786621D01*
X877642Y786707D01*
X877719Y786790D01*
X877799Y786870D01*
X877882Y786947D01*
X877968Y787022D01*
X878056Y787093D01*
X878146Y787161D01*
X878239Y787226D01*
X878334Y787288D01*
X878431Y787346D01*
X878530Y787401D01*
X878631Y787452D01*
X878734Y787500D01*
X878838Y787545D01*
X878944Y787585D01*
X879051Y787622D01*
X879159Y787655D01*
X879269Y787685D01*
X879379Y787710D01*
X879490Y787732D01*
X879602Y787749D01*
X879715Y787763D01*
X879828Y787773D01*
X879941Y787779D01*
X880054Y787781D01*
X885246Y787781D01*
X885246Y787782D02*
X885359Y787780D01*
X885472Y787774D01*
X885585Y787764D01*
X885698Y787750D01*
X885810Y787733D01*
X885921Y787711D01*
X886031Y787686D01*
X886141Y787656D01*
X886249Y787623D01*
X886356Y787586D01*
X886462Y787546D01*
X886566Y787501D01*
X886669Y787453D01*
X886770Y787402D01*
X886869Y787347D01*
X886966Y787289D01*
X887061Y787227D01*
X887154Y787162D01*
X887244Y787094D01*
X887332Y787023D01*
X887418Y786948D01*
X887501Y786871D01*
X887581Y786791D01*
X887658Y786708D01*
X887733Y786622D01*
X887804Y786534D01*
X887872Y786444D01*
X887937Y786351D01*
X887999Y786256D01*
X888057Y786159D01*
X888112Y786060D01*
X888163Y785959D01*
X888211Y785856D01*
X888256Y785752D01*
X888296Y785646D01*
X888333Y785539D01*
X888366Y785431D01*
X888396Y785321D01*
X888421Y785211D01*
X888443Y785100D01*
X888460Y784988D01*
X888474Y784875D01*
X888484Y784762D01*
X888490Y784649D01*
X888492Y784536D01*
X888492Y784535D02*
X888492Y781290D01*
X888492Y793101D02*
X888492Y796996D01*
X888490Y797095D01*
X888484Y797195D01*
X888475Y797294D01*
X888462Y797392D01*
X888445Y797490D01*
X888424Y797588D01*
X888399Y797684D01*
X888371Y797779D01*
X888339Y797873D01*
X888304Y797966D01*
X888265Y798058D01*
X888222Y798148D01*
X888177Y798236D01*
X888127Y798323D01*
X888075Y798407D01*
X888019Y798490D01*
X887961Y798570D01*
X887899Y798648D01*
X887834Y798723D01*
X887766Y798796D01*
X887696Y798866D01*
X887623Y798934D01*
X887548Y798999D01*
X887470Y799061D01*
X887390Y799119D01*
X887307Y799175D01*
X887223Y799227D01*
X887136Y799277D01*
X887048Y799322D01*
X886958Y799365D01*
X886866Y799404D01*
X886773Y799439D01*
X886679Y799471D01*
X886584Y799499D01*
X886488Y799524D01*
X886390Y799545D01*
X886292Y799562D01*
X886194Y799575D01*
X886095Y799584D01*
X885995Y799590D01*
X885896Y799592D01*
X884597Y799592D01*
X884498Y799590D01*
X884398Y799584D01*
X884299Y799575D01*
X884201Y799562D01*
X884103Y799545D01*
X884005Y799524D01*
X883909Y799499D01*
X883814Y799471D01*
X883720Y799439D01*
X883627Y799404D01*
X883535Y799365D01*
X883445Y799322D01*
X883357Y799277D01*
X883270Y799227D01*
X883186Y799175D01*
X883103Y799119D01*
X883023Y799061D01*
X882945Y798999D01*
X882870Y798934D01*
X882797Y798866D01*
X882727Y798796D01*
X882659Y798723D01*
X882594Y798648D01*
X882532Y798570D01*
X882474Y798490D01*
X882418Y798407D01*
X882366Y798323D01*
X882316Y798236D01*
X882271Y798148D01*
X882228Y798058D01*
X882189Y797966D01*
X882154Y797873D01*
X882122Y797779D01*
X882094Y797684D01*
X882069Y797588D01*
X882048Y797490D01*
X882031Y797392D01*
X882018Y797294D01*
X882009Y797195D01*
X882003Y797095D01*
X882001Y796996D01*
X882001Y793101D01*
X876808Y793101D01*
X876808Y799592D01*
D11*
X160213Y491388D02*
X160213Y367388D01*
X160213Y491388D02*
X28213Y491388D01*
X28213Y367388D01*
X160213Y367388D01*
X79213Y403388D02*
X79213Y455388D01*
X64213Y429388D02*
X64222Y430124D01*
X64249Y430860D01*
X64294Y431595D01*
X64357Y432329D01*
X64439Y433060D01*
X64538Y433790D01*
X64655Y434517D01*
X64789Y435241D01*
X64942Y435961D01*
X65112Y436677D01*
X65300Y437389D01*
X65505Y438097D01*
X65727Y438798D01*
X65967Y439495D01*
X66223Y440185D01*
X66497Y440869D01*
X66787Y441545D01*
X67093Y442215D01*
X67416Y442876D01*
X67755Y443530D01*
X68110Y444175D01*
X68481Y444811D01*
X68867Y445438D01*
X69269Y446055D01*
X69685Y446662D01*
X70117Y447259D01*
X70563Y447845D01*
X71023Y448420D01*
X71497Y448983D01*
X71984Y449535D01*
X72486Y450074D01*
X73000Y450601D01*
X73527Y451115D01*
X74066Y451617D01*
X74618Y452104D01*
X75181Y452578D01*
X75756Y453038D01*
X76342Y453484D01*
X76939Y453916D01*
X77546Y454332D01*
X78163Y454734D01*
X78790Y455120D01*
X79426Y455491D01*
X80071Y455846D01*
X80725Y456185D01*
X81386Y456508D01*
X82056Y456814D01*
X82732Y457104D01*
X83416Y457378D01*
X84106Y457634D01*
X84803Y457874D01*
X85504Y458096D01*
X86212Y458301D01*
X86924Y458489D01*
X87640Y458659D01*
X88360Y458812D01*
X89084Y458946D01*
X89811Y459063D01*
X90541Y459162D01*
X91272Y459244D01*
X92006Y459307D01*
X92741Y459352D01*
X93477Y459379D01*
X94213Y459388D01*
X94949Y459379D01*
X95685Y459352D01*
X96420Y459307D01*
X97154Y459244D01*
X97885Y459162D01*
X98615Y459063D01*
X99342Y458946D01*
X100066Y458812D01*
X100786Y458659D01*
X101502Y458489D01*
X102214Y458301D01*
X102922Y458096D01*
X103623Y457874D01*
X104320Y457634D01*
X105010Y457378D01*
X105694Y457104D01*
X106370Y456814D01*
X107040Y456508D01*
X107701Y456185D01*
X108355Y455846D01*
X109000Y455491D01*
X109636Y455120D01*
X110263Y454734D01*
X110880Y454332D01*
X111487Y453916D01*
X112084Y453484D01*
X112670Y453038D01*
X113245Y452578D01*
X113808Y452104D01*
X114360Y451617D01*
X114899Y451115D01*
X115426Y450601D01*
X115940Y450074D01*
X116442Y449535D01*
X116929Y448983D01*
X117403Y448420D01*
X117863Y447845D01*
X118309Y447259D01*
X118741Y446662D01*
X119157Y446055D01*
X119559Y445438D01*
X119945Y444811D01*
X120316Y444175D01*
X120671Y443530D01*
X121010Y442876D01*
X121333Y442215D01*
X121639Y441545D01*
X121929Y440869D01*
X122203Y440185D01*
X122459Y439495D01*
X122699Y438798D01*
X122921Y438097D01*
X123126Y437389D01*
X123314Y436677D01*
X123484Y435961D01*
X123637Y435241D01*
X123771Y434517D01*
X123888Y433790D01*
X123987Y433060D01*
X124069Y432329D01*
X124132Y431595D01*
X124177Y430860D01*
X124204Y430124D01*
X124213Y429388D01*
X124204Y428652D01*
X124177Y427916D01*
X124132Y427181D01*
X124069Y426447D01*
X123987Y425716D01*
X123888Y424986D01*
X123771Y424259D01*
X123637Y423535D01*
X123484Y422815D01*
X123314Y422099D01*
X123126Y421387D01*
X122921Y420679D01*
X122699Y419978D01*
X122459Y419281D01*
X122203Y418591D01*
X121929Y417907D01*
X121639Y417231D01*
X121333Y416561D01*
X121010Y415900D01*
X120671Y415246D01*
X120316Y414601D01*
X119945Y413965D01*
X119559Y413338D01*
X119157Y412721D01*
X118741Y412114D01*
X118309Y411517D01*
X117863Y410931D01*
X117403Y410356D01*
X116929Y409793D01*
X116442Y409241D01*
X115940Y408702D01*
X115426Y408175D01*
X114899Y407661D01*
X114360Y407159D01*
X113808Y406672D01*
X113245Y406198D01*
X112670Y405738D01*
X112084Y405292D01*
X111487Y404860D01*
X110880Y404444D01*
X110263Y404042D01*
X109636Y403656D01*
X109000Y403285D01*
X108355Y402930D01*
X107701Y402591D01*
X107040Y402268D01*
X106370Y401962D01*
X105694Y401672D01*
X105010Y401398D01*
X104320Y401142D01*
X103623Y400902D01*
X102922Y400680D01*
X102214Y400475D01*
X101502Y400287D01*
X100786Y400117D01*
X100066Y399964D01*
X99342Y399830D01*
X98615Y399713D01*
X97885Y399614D01*
X97154Y399532D01*
X96420Y399469D01*
X95685Y399424D01*
X94949Y399397D01*
X94213Y399388D01*
X93477Y399397D01*
X92741Y399424D01*
X92006Y399469D01*
X91272Y399532D01*
X90541Y399614D01*
X89811Y399713D01*
X89084Y399830D01*
X88360Y399964D01*
X87640Y400117D01*
X86924Y400287D01*
X86212Y400475D01*
X85504Y400680D01*
X84803Y400902D01*
X84106Y401142D01*
X83416Y401398D01*
X82732Y401672D01*
X82056Y401962D01*
X81386Y402268D01*
X80725Y402591D01*
X80071Y402930D01*
X79426Y403285D01*
X78790Y403656D01*
X78163Y404042D01*
X77546Y404444D01*
X76939Y404860D01*
X76342Y405292D01*
X75756Y405738D01*
X75181Y406198D01*
X74618Y406672D01*
X74066Y407159D01*
X73527Y407661D01*
X73000Y408175D01*
X72486Y408702D01*
X71984Y409241D01*
X71497Y409793D01*
X71023Y410356D01*
X70563Y410931D01*
X70117Y411517D01*
X69685Y412114D01*
X69269Y412721D01*
X68867Y413338D01*
X68481Y413965D01*
X68110Y414601D01*
X67755Y415246D01*
X67416Y415900D01*
X67093Y416561D01*
X66787Y417231D01*
X66497Y417907D01*
X66223Y418591D01*
X65967Y419281D01*
X65727Y419978D01*
X65505Y420679D01*
X65300Y421387D01*
X65112Y422099D01*
X64942Y422815D01*
X64789Y423535D01*
X64655Y424259D01*
X64538Y424986D01*
X64439Y425716D01*
X64357Y426447D01*
X64294Y427181D01*
X64249Y427916D01*
X64222Y428652D01*
X64213Y429388D01*
D10*
X8705Y408791D02*
X8703Y408890D01*
X8697Y408990D01*
X8688Y409089D01*
X8675Y409187D01*
X8658Y409285D01*
X8637Y409383D01*
X8612Y409479D01*
X8584Y409574D01*
X8552Y409668D01*
X8517Y409761D01*
X8478Y409853D01*
X8435Y409943D01*
X8390Y410031D01*
X8340Y410118D01*
X8288Y410202D01*
X8232Y410285D01*
X8174Y410365D01*
X8112Y410443D01*
X8047Y410518D01*
X7979Y410591D01*
X7909Y410661D01*
X7836Y410729D01*
X7761Y410794D01*
X7683Y410856D01*
X7603Y410914D01*
X7520Y410970D01*
X7436Y411022D01*
X7349Y411072D01*
X7261Y411117D01*
X7171Y411160D01*
X7079Y411199D01*
X6986Y411234D01*
X6892Y411266D01*
X6797Y411294D01*
X6701Y411319D01*
X6603Y411340D01*
X6505Y411357D01*
X6407Y411370D01*
X6308Y411379D01*
X6208Y411385D01*
X6109Y411387D01*
X8705Y408791D02*
X8703Y408647D01*
X8697Y408502D01*
X8688Y408358D01*
X8675Y408215D01*
X8658Y408071D01*
X8637Y407928D01*
X8612Y407786D01*
X8584Y407645D01*
X8552Y407504D01*
X8516Y407364D01*
X8477Y407225D01*
X8434Y407087D01*
X8387Y406951D01*
X8337Y406815D01*
X8283Y406681D01*
X8226Y406549D01*
X8165Y406418D01*
X8101Y406289D01*
X8033Y406161D01*
X7963Y406035D01*
X7888Y405911D01*
X7811Y405790D01*
X7730Y405670D01*
X7647Y405552D01*
X7560Y405437D01*
X7470Y405324D01*
X7377Y405213D01*
X7282Y405105D01*
X7183Y404999D01*
X7082Y404896D01*
X-383Y405221D02*
X-482Y405223D01*
X-582Y405229D01*
X-681Y405238D01*
X-779Y405251D01*
X-877Y405268D01*
X-975Y405289D01*
X-1071Y405314D01*
X-1166Y405342D01*
X-1260Y405374D01*
X-1353Y405409D01*
X-1445Y405448D01*
X-1535Y405491D01*
X-1623Y405536D01*
X-1710Y405586D01*
X-1794Y405638D01*
X-1877Y405694D01*
X-1957Y405752D01*
X-2035Y405814D01*
X-2110Y405879D01*
X-2183Y405947D01*
X-2253Y406017D01*
X-2321Y406090D01*
X-2386Y406165D01*
X-2448Y406243D01*
X-2506Y406323D01*
X-2562Y406406D01*
X-2614Y406490D01*
X-2664Y406577D01*
X-2709Y406665D01*
X-2752Y406755D01*
X-2791Y406847D01*
X-2826Y406940D01*
X-2858Y407034D01*
X-2886Y407129D01*
X-2911Y407226D01*
X-2932Y407323D01*
X-2949Y407421D01*
X-2962Y407519D01*
X-2971Y407618D01*
X-2977Y407718D01*
X-2979Y407817D01*
X-2977Y407953D01*
X-2971Y408089D01*
X-2962Y408225D01*
X-2949Y408361D01*
X-2931Y408496D01*
X-2911Y408630D01*
X-2886Y408764D01*
X-2858Y408898D01*
X-2825Y409030D01*
X-2790Y409161D01*
X-2750Y409292D01*
X-2707Y409421D01*
X-2661Y409549D01*
X-2610Y409675D01*
X-2557Y409801D01*
X-2499Y409924D01*
X-2439Y410046D01*
X-2375Y410166D01*
X-2307Y410285D01*
X-2237Y410401D01*
X-2163Y410515D01*
X-2086Y410628D01*
X-2005Y410738D01*
X1889Y406519D02*
X1836Y406433D01*
X1779Y406349D01*
X1720Y406267D01*
X1657Y406187D01*
X1591Y406110D01*
X1523Y406035D01*
X1451Y405963D01*
X1377Y405894D01*
X1300Y405828D01*
X1221Y405765D01*
X1139Y405705D01*
X1055Y405648D01*
X969Y405594D01*
X881Y405544D01*
X791Y405497D01*
X700Y405453D01*
X606Y405414D01*
X512Y405377D01*
X416Y405345D01*
X318Y405316D01*
X220Y405291D01*
X121Y405270D01*
X21Y405252D01*
X-79Y405239D01*
X-180Y405229D01*
X-282Y405223D01*
X-383Y405221D01*
X3837Y410089D02*
X3890Y410175D01*
X3947Y410259D01*
X4006Y410341D01*
X4069Y410421D01*
X4135Y410498D01*
X4203Y410573D01*
X4275Y410645D01*
X4349Y410714D01*
X4426Y410780D01*
X4505Y410843D01*
X4587Y410903D01*
X4671Y410960D01*
X4757Y411014D01*
X4845Y411064D01*
X4935Y411111D01*
X5026Y411155D01*
X5120Y411194D01*
X5214Y411231D01*
X5310Y411263D01*
X5408Y411292D01*
X5506Y411317D01*
X5605Y411338D01*
X5705Y411356D01*
X5805Y411369D01*
X5906Y411379D01*
X6008Y411385D01*
X6109Y411387D01*
X3837Y410089D02*
X1889Y406519D01*
X-2979Y415522D02*
X8705Y418118D01*
X916Y420715D01*
X8705Y423311D01*
X-2979Y425907D01*
X-383Y430423D02*
X-2979Y433669D01*
X8705Y433669D01*
X8705Y436914D02*
X8705Y430423D01*
D11*
X153000Y607000D02*
X156500Y607000D01*
X153000Y607000D02*
X153000Y663000D01*
X156500Y663000D01*
X224500Y607000D02*
X228000Y607000D01*
X228000Y663000D01*
X224500Y663000D01*
D16*
X160500Y584000D02*
X160502Y584063D01*
X160508Y584125D01*
X160518Y584187D01*
X160531Y584249D01*
X160549Y584309D01*
X160570Y584368D01*
X160595Y584426D01*
X160624Y584482D01*
X160656Y584536D01*
X160691Y584588D01*
X160729Y584637D01*
X160771Y584685D01*
X160815Y584729D01*
X160863Y584771D01*
X160912Y584809D01*
X160964Y584844D01*
X161018Y584876D01*
X161074Y584905D01*
X161132Y584930D01*
X161191Y584951D01*
X161251Y584969D01*
X161313Y584982D01*
X161375Y584992D01*
X161437Y584998D01*
X161500Y585000D01*
X161563Y584998D01*
X161625Y584992D01*
X161687Y584982D01*
X161749Y584969D01*
X161809Y584951D01*
X161868Y584930D01*
X161926Y584905D01*
X161982Y584876D01*
X162036Y584844D01*
X162088Y584809D01*
X162137Y584771D01*
X162185Y584729D01*
X162229Y584685D01*
X162271Y584637D01*
X162309Y584588D01*
X162344Y584536D01*
X162376Y584482D01*
X162405Y584426D01*
X162430Y584368D01*
X162451Y584309D01*
X162469Y584249D01*
X162482Y584187D01*
X162492Y584125D01*
X162498Y584063D01*
X162500Y584000D01*
X162498Y583937D01*
X162492Y583875D01*
X162482Y583813D01*
X162469Y583751D01*
X162451Y583691D01*
X162430Y583632D01*
X162405Y583574D01*
X162376Y583518D01*
X162344Y583464D01*
X162309Y583412D01*
X162271Y583363D01*
X162229Y583315D01*
X162185Y583271D01*
X162137Y583229D01*
X162088Y583191D01*
X162036Y583156D01*
X161982Y583124D01*
X161926Y583095D01*
X161868Y583070D01*
X161809Y583049D01*
X161749Y583031D01*
X161687Y583018D01*
X161625Y583008D01*
X161563Y583002D01*
X161500Y583000D01*
X161437Y583002D01*
X161375Y583008D01*
X161313Y583018D01*
X161251Y583031D01*
X161191Y583049D01*
X161132Y583070D01*
X161074Y583095D01*
X161018Y583124D01*
X160964Y583156D01*
X160912Y583191D01*
X160863Y583229D01*
X160815Y583271D01*
X160771Y583315D01*
X160729Y583363D01*
X160691Y583412D01*
X160656Y583464D01*
X160624Y583518D01*
X160595Y583574D01*
X160570Y583632D01*
X160549Y583691D01*
X160531Y583751D01*
X160518Y583813D01*
X160508Y583875D01*
X160502Y583937D01*
X160500Y584000D01*
D17*
X134422Y584962D02*
X122682Y584962D01*
X134422Y584962D02*
X134555Y584964D01*
X134687Y584970D01*
X134819Y584980D01*
X134951Y584993D01*
X135083Y585011D01*
X135213Y585032D01*
X135344Y585057D01*
X135473Y585086D01*
X135601Y585119D01*
X135729Y585155D01*
X135855Y585195D01*
X135980Y585239D01*
X136104Y585287D01*
X136226Y585338D01*
X136347Y585393D01*
X136466Y585451D01*
X136584Y585513D01*
X136699Y585578D01*
X136813Y585647D01*
X136924Y585718D01*
X137033Y585794D01*
X137140Y585872D01*
X137245Y585953D01*
X137347Y586038D01*
X137447Y586125D01*
X137544Y586215D01*
X137639Y586308D01*
X137730Y586404D01*
X137819Y586502D01*
X137905Y586603D01*
X137988Y586707D01*
X138068Y586813D01*
X138144Y586921D01*
X138218Y587031D01*
X138288Y587144D01*
X138355Y587258D01*
X138418Y587375D01*
X138478Y587493D01*
X138535Y587613D01*
X138588Y587735D01*
X138637Y587858D01*
X138683Y587982D01*
X138725Y588108D01*
X138763Y588235D01*
X138798Y588363D01*
X138829Y588492D01*
X138856Y588621D01*
X138879Y588752D01*
X138899Y588883D01*
X138914Y589015D01*
X138926Y589147D01*
X138934Y589279D01*
X138938Y589412D01*
X138938Y589544D01*
X138934Y589677D01*
X138926Y589809D01*
X138914Y589941D01*
X138899Y590073D01*
X138879Y590204D01*
X138856Y590335D01*
X138829Y590464D01*
X138798Y590593D01*
X138763Y590721D01*
X138725Y590848D01*
X138683Y590974D01*
X138637Y591098D01*
X138588Y591221D01*
X138535Y591343D01*
X138478Y591463D01*
X138418Y591581D01*
X138355Y591698D01*
X138288Y591812D01*
X138218Y591925D01*
X138144Y592035D01*
X138068Y592143D01*
X137988Y592249D01*
X137905Y592353D01*
X137819Y592454D01*
X137730Y592552D01*
X137639Y592648D01*
X137544Y592741D01*
X137447Y592831D01*
X137347Y592918D01*
X137245Y593003D01*
X137140Y593084D01*
X137033Y593162D01*
X136924Y593238D01*
X136813Y593309D01*
X136699Y593378D01*
X136584Y593443D01*
X136466Y593505D01*
X136347Y593563D01*
X136226Y593618D01*
X136104Y593669D01*
X135980Y593717D01*
X135855Y593761D01*
X135729Y593801D01*
X135601Y593837D01*
X135473Y593870D01*
X135344Y593899D01*
X135213Y593924D01*
X135083Y593945D01*
X134951Y593963D01*
X134819Y593976D01*
X134687Y593986D01*
X134555Y593992D01*
X134422Y593994D01*
X134422Y593993D02*
X122682Y593993D01*
X122682Y606081D02*
X122684Y606206D01*
X122690Y606331D01*
X122699Y606456D01*
X122713Y606580D01*
X122730Y606704D01*
X122751Y606828D01*
X122776Y606950D01*
X122805Y607072D01*
X122837Y607193D01*
X122873Y607313D01*
X122913Y607432D01*
X122956Y607549D01*
X123003Y607665D01*
X123054Y607780D01*
X123108Y607892D01*
X123166Y608004D01*
X123226Y608113D01*
X123291Y608220D01*
X123358Y608326D01*
X123429Y608429D01*
X123503Y608530D01*
X123580Y608629D01*
X123660Y608725D01*
X123743Y608819D01*
X123828Y608910D01*
X123917Y608999D01*
X124008Y609084D01*
X124102Y609167D01*
X124198Y609247D01*
X124297Y609324D01*
X124398Y609398D01*
X124501Y609469D01*
X124607Y609536D01*
X124714Y609601D01*
X124823Y609661D01*
X124935Y609719D01*
X125047Y609773D01*
X125162Y609824D01*
X125278Y609871D01*
X125395Y609914D01*
X125514Y609954D01*
X125634Y609990D01*
X125755Y610022D01*
X125877Y610051D01*
X125999Y610076D01*
X126123Y610097D01*
X126247Y610114D01*
X126371Y610128D01*
X126496Y610137D01*
X126621Y610143D01*
X126746Y610145D01*
X122682Y606081D02*
X122684Y605938D01*
X122690Y605796D01*
X122700Y605653D01*
X122713Y605511D01*
X122731Y605370D01*
X122752Y605228D01*
X122777Y605088D01*
X122806Y604948D01*
X122839Y604809D01*
X122876Y604671D01*
X122916Y604534D01*
X122960Y604399D01*
X123008Y604264D01*
X123060Y604131D01*
X123115Y603999D01*
X123174Y603869D01*
X123236Y603741D01*
X123302Y603614D01*
X123371Y603489D01*
X123443Y603366D01*
X123519Y603245D01*
X123598Y603127D01*
X123681Y603010D01*
X123766Y602896D01*
X123855Y602784D01*
X123946Y602675D01*
X124041Y602568D01*
X124138Y602463D01*
X124239Y602362D01*
X124342Y602263D01*
X124447Y602167D01*
X124556Y602074D01*
X124667Y601984D01*
X124780Y601897D01*
X124895Y601813D01*
X125013Y601733D01*
X125133Y601655D01*
X125255Y601581D01*
X125379Y601511D01*
X125505Y601443D01*
X125633Y601380D01*
X125762Y601319D01*
X125893Y601262D01*
X126025Y601209D01*
X126159Y601160D01*
X126294Y601114D01*
X129907Y608790D02*
X129815Y608884D01*
X129721Y608974D01*
X129624Y609062D01*
X129524Y609147D01*
X129422Y609229D01*
X129317Y609307D01*
X129210Y609383D01*
X129101Y609455D01*
X128990Y609524D01*
X128876Y609590D01*
X128761Y609652D01*
X128644Y609711D01*
X128525Y609766D01*
X128405Y609817D01*
X128283Y609865D01*
X128160Y609910D01*
X128036Y609950D01*
X127910Y609987D01*
X127783Y610020D01*
X127656Y610049D01*
X127527Y610075D01*
X127398Y610096D01*
X127268Y610114D01*
X127138Y610127D01*
X127008Y610137D01*
X126877Y610143D01*
X126746Y610145D01*
X129907Y608791D02*
X138938Y601114D01*
X138938Y610145D01*
D18*
X587290Y721300D03*
D17*
X568900Y716800D02*
X568900Y713800D01*
X565900Y713800D01*
X500900Y713800D02*
X497900Y713800D01*
X497900Y716800D01*
X497900Y784800D02*
X500900Y784800D01*
X497900Y784800D02*
X497900Y781800D01*
X568900Y781800D02*
X568900Y784800D01*
X565900Y784800D01*
D13*
X592180Y343596D02*
X592180Y338253D01*
X592182Y338163D01*
X592188Y338074D01*
X592198Y337985D01*
X592211Y337896D01*
X592229Y337808D01*
X592250Y337721D01*
X592275Y337635D01*
X592304Y337550D01*
X592336Y337467D01*
X592373Y337385D01*
X592412Y337304D01*
X592455Y337226D01*
X592502Y337149D01*
X592552Y337074D01*
X592605Y337002D01*
X592661Y336932D01*
X592720Y336865D01*
X592782Y336800D01*
X592847Y336738D01*
X592914Y336679D01*
X592984Y336623D01*
X593056Y336570D01*
X593131Y336520D01*
X593208Y336473D01*
X593286Y336430D01*
X593367Y336391D01*
X593449Y336354D01*
X593532Y336322D01*
X593617Y336293D01*
X593703Y336268D01*
X593790Y336247D01*
X593878Y336229D01*
X593967Y336216D01*
X594056Y336206D01*
X594145Y336200D01*
X594235Y336198D01*
X594325Y336200D01*
X594414Y336206D01*
X594503Y336216D01*
X594592Y336229D01*
X594680Y336247D01*
X594767Y336268D01*
X594853Y336293D01*
X594938Y336322D01*
X595021Y336354D01*
X595103Y336391D01*
X595184Y336430D01*
X595263Y336473D01*
X595339Y336520D01*
X595414Y336570D01*
X595486Y336623D01*
X595556Y336679D01*
X595623Y336738D01*
X595688Y336800D01*
X595750Y336865D01*
X595809Y336932D01*
X595865Y337002D01*
X595918Y337074D01*
X595968Y337149D01*
X596015Y337226D01*
X596058Y337304D01*
X596097Y337385D01*
X596134Y337467D01*
X596166Y337550D01*
X596195Y337635D01*
X596220Y337721D01*
X596241Y337808D01*
X596259Y337896D01*
X596272Y337985D01*
X596282Y338074D01*
X596288Y338163D01*
X596290Y338253D01*
X596289Y338253D02*
X596289Y343596D01*
X599768Y336198D02*
X601823Y336198D01*
X601913Y336200D01*
X602002Y336206D01*
X602091Y336216D01*
X602180Y336229D01*
X602268Y336247D01*
X602355Y336268D01*
X602441Y336293D01*
X602526Y336322D01*
X602609Y336354D01*
X602691Y336391D01*
X602772Y336430D01*
X602851Y336473D01*
X602927Y336520D01*
X603002Y336570D01*
X603074Y336623D01*
X603144Y336679D01*
X603211Y336738D01*
X603276Y336800D01*
X603338Y336865D01*
X603397Y336932D01*
X603453Y337002D01*
X603506Y337074D01*
X603556Y337149D01*
X603603Y337226D01*
X603646Y337304D01*
X603685Y337385D01*
X603722Y337467D01*
X603754Y337550D01*
X603783Y337635D01*
X603808Y337721D01*
X603829Y337808D01*
X603847Y337896D01*
X603860Y337985D01*
X603870Y338074D01*
X603876Y338163D01*
X603878Y338253D01*
X603876Y338343D01*
X603870Y338432D01*
X603860Y338521D01*
X603847Y338610D01*
X603829Y338698D01*
X603808Y338785D01*
X603783Y338871D01*
X603754Y338956D01*
X603722Y339039D01*
X603685Y339121D01*
X603646Y339202D01*
X603603Y339281D01*
X603556Y339357D01*
X603506Y339432D01*
X603453Y339504D01*
X603397Y339574D01*
X603338Y339641D01*
X603276Y339706D01*
X603211Y339768D01*
X603144Y339827D01*
X603074Y339883D01*
X603002Y339936D01*
X602927Y339986D01*
X602851Y340033D01*
X602772Y340076D01*
X602691Y340115D01*
X602609Y340152D01*
X602526Y340184D01*
X602441Y340213D01*
X602355Y340238D01*
X602268Y340259D01*
X602180Y340277D01*
X602091Y340290D01*
X602002Y340300D01*
X601913Y340306D01*
X601823Y340308D01*
X602234Y343596D02*
X599768Y343596D01*
X602234Y343596D02*
X602313Y343594D01*
X602393Y343588D01*
X602472Y343579D01*
X602550Y343565D01*
X602627Y343548D01*
X602704Y343527D01*
X602780Y343503D01*
X602854Y343475D01*
X602927Y343443D01*
X602998Y343408D01*
X603067Y343369D01*
X603135Y343327D01*
X603200Y343282D01*
X603263Y343234D01*
X603324Y343183D01*
X603382Y343128D01*
X603438Y343072D01*
X603491Y343012D01*
X603540Y342950D01*
X603587Y342886D01*
X603631Y342819D01*
X603671Y342751D01*
X603708Y342681D01*
X603741Y342609D01*
X603771Y342535D01*
X603798Y342460D01*
X603820Y342384D01*
X603839Y342307D01*
X603855Y342229D01*
X603866Y342150D01*
X603874Y342071D01*
X603878Y341992D01*
X603878Y341912D01*
X603874Y341833D01*
X603866Y341754D01*
X603855Y341675D01*
X603839Y341597D01*
X603820Y341520D01*
X603798Y341444D01*
X603771Y341369D01*
X603741Y341295D01*
X603708Y341223D01*
X603671Y341153D01*
X603631Y341085D01*
X603587Y341018D01*
X603540Y340954D01*
X603491Y340892D01*
X603438Y340832D01*
X603382Y340776D01*
X603324Y340721D01*
X603263Y340670D01*
X603200Y340622D01*
X603135Y340577D01*
X603067Y340535D01*
X602998Y340496D01*
X602927Y340461D01*
X602854Y340429D01*
X602780Y340401D01*
X602704Y340377D01*
X602627Y340356D01*
X602550Y340339D01*
X602472Y340325D01*
X602393Y340316D01*
X602313Y340310D01*
X602234Y340308D01*
X600590Y340308D01*
D19*
X196511Y539702D02*
X196511Y552702D01*
X159013Y552702D02*
X159013Y539702D01*
D11*
X175191Y561982D02*
X173582Y564261D01*
X175191Y561982D02*
X176800Y564261D01*
X175191Y561982D02*
X175191Y559435D01*
X179337Y563189D02*
X180677Y564261D01*
X180677Y559435D01*
X179337Y559435D02*
X182018Y559435D01*
X220600Y771800D02*
X236600Y771800D01*
X236600Y803000D02*
X220600Y803000D01*
D12*
X202600Y796900D02*
X202602Y796963D01*
X202608Y797025D01*
X202618Y797087D01*
X202631Y797149D01*
X202649Y797209D01*
X202670Y797268D01*
X202695Y797326D01*
X202724Y797382D01*
X202756Y797436D01*
X202791Y797488D01*
X202829Y797537D01*
X202871Y797585D01*
X202915Y797629D01*
X202963Y797671D01*
X203012Y797709D01*
X203064Y797744D01*
X203118Y797776D01*
X203174Y797805D01*
X203232Y797830D01*
X203291Y797851D01*
X203351Y797869D01*
X203413Y797882D01*
X203475Y797892D01*
X203537Y797898D01*
X203600Y797900D01*
X203663Y797898D01*
X203725Y797892D01*
X203787Y797882D01*
X203849Y797869D01*
X203909Y797851D01*
X203968Y797830D01*
X204026Y797805D01*
X204082Y797776D01*
X204136Y797744D01*
X204188Y797709D01*
X204237Y797671D01*
X204285Y797629D01*
X204329Y797585D01*
X204371Y797537D01*
X204409Y797488D01*
X204444Y797436D01*
X204476Y797382D01*
X204505Y797326D01*
X204530Y797268D01*
X204551Y797209D01*
X204569Y797149D01*
X204582Y797087D01*
X204592Y797025D01*
X204598Y796963D01*
X204600Y796900D01*
X204598Y796837D01*
X204592Y796775D01*
X204582Y796713D01*
X204569Y796651D01*
X204551Y796591D01*
X204530Y796532D01*
X204505Y796474D01*
X204476Y796418D01*
X204444Y796364D01*
X204409Y796312D01*
X204371Y796263D01*
X204329Y796215D01*
X204285Y796171D01*
X204237Y796129D01*
X204188Y796091D01*
X204136Y796056D01*
X204082Y796024D01*
X204026Y795995D01*
X203968Y795970D01*
X203909Y795949D01*
X203849Y795931D01*
X203787Y795918D01*
X203725Y795908D01*
X203663Y795902D01*
X203600Y795900D01*
X203537Y795902D01*
X203475Y795908D01*
X203413Y795918D01*
X203351Y795931D01*
X203291Y795949D01*
X203232Y795970D01*
X203174Y795995D01*
X203118Y796024D01*
X203064Y796056D01*
X203012Y796091D01*
X202963Y796129D01*
X202915Y796171D01*
X202871Y796215D01*
X202829Y796263D01*
X202791Y796312D01*
X202756Y796364D01*
X202724Y796418D01*
X202695Y796474D01*
X202670Y796532D01*
X202649Y796591D01*
X202631Y796651D01*
X202618Y796713D01*
X202608Y796775D01*
X202602Y796837D01*
X202600Y796900D01*
D13*
X203981Y809392D02*
X203981Y816179D01*
X203981Y809392D02*
X203983Y809291D01*
X203989Y809190D01*
X203999Y809089D01*
X204012Y808989D01*
X204030Y808889D01*
X204051Y808790D01*
X204077Y808692D01*
X204106Y808595D01*
X204138Y808499D01*
X204175Y808405D01*
X204215Y808312D01*
X204259Y808220D01*
X204306Y808131D01*
X204357Y808043D01*
X204411Y807957D01*
X204468Y807874D01*
X204528Y807792D01*
X204592Y807714D01*
X204658Y807637D01*
X204728Y807564D01*
X204800Y807493D01*
X204875Y807425D01*
X204953Y807360D01*
X205033Y807298D01*
X205115Y807239D01*
X205200Y807183D01*
X205287Y807131D01*
X205375Y807082D01*
X205466Y807036D01*
X205558Y806995D01*
X205652Y806956D01*
X205747Y806922D01*
X205843Y806891D01*
X205941Y806864D01*
X206039Y806840D01*
X206139Y806821D01*
X206239Y806805D01*
X206339Y806793D01*
X206440Y806785D01*
X206541Y806781D01*
X206643Y806781D01*
X206744Y806785D01*
X206845Y806793D01*
X206945Y806805D01*
X207045Y806821D01*
X207145Y806840D01*
X207243Y806864D01*
X207341Y806891D01*
X207437Y806922D01*
X207532Y806956D01*
X207626Y806995D01*
X207718Y807036D01*
X207809Y807082D01*
X207897Y807131D01*
X207984Y807183D01*
X208069Y807239D01*
X208151Y807298D01*
X208231Y807360D01*
X208309Y807425D01*
X208384Y807493D01*
X208456Y807564D01*
X208526Y807637D01*
X208592Y807714D01*
X208656Y807792D01*
X208716Y807874D01*
X208773Y807957D01*
X208827Y808043D01*
X208878Y808131D01*
X208925Y808220D01*
X208969Y808312D01*
X209009Y808405D01*
X209046Y808499D01*
X209078Y808595D01*
X209107Y808692D01*
X209133Y808790D01*
X209154Y808889D01*
X209172Y808989D01*
X209185Y809089D01*
X209195Y809190D01*
X209201Y809291D01*
X209203Y809392D01*
X209202Y809392D02*
X209202Y816179D01*
X213430Y814091D02*
X216040Y816179D01*
X216040Y806781D01*
X213430Y806781D02*
X218651Y806781D01*
D17*
X226568Y720090D02*
X255524Y720090D01*
X226568Y720090D02*
X226568Y727710D01*
X255524Y727710D01*
X255524Y720090D01*
D11*
X240792Y690245D02*
X240792Y678815D01*
X237617Y690245D02*
X243967Y690245D01*
X248285Y687705D02*
X251460Y690245D01*
X251460Y678815D01*
X248285Y678815D02*
X254635Y678815D01*
D17*
X258318Y720090D02*
X287274Y720090D01*
X258318Y720090D02*
X258318Y727710D01*
X287274Y727710D01*
X287274Y720090D01*
D11*
X272542Y690245D02*
X272542Y678815D01*
X269367Y690245D02*
X275717Y690245D01*
X283528Y690246D02*
X283632Y690244D01*
X283737Y690238D01*
X283841Y690229D01*
X283944Y690216D01*
X284047Y690198D01*
X284149Y690178D01*
X284251Y690153D01*
X284351Y690125D01*
X284451Y690093D01*
X284549Y690057D01*
X284646Y690018D01*
X284741Y689976D01*
X284835Y689930D01*
X284927Y689880D01*
X285017Y689828D01*
X285105Y689772D01*
X285191Y689712D01*
X285275Y689650D01*
X285356Y689585D01*
X285435Y689517D01*
X285512Y689445D01*
X285585Y689372D01*
X285657Y689295D01*
X285725Y689216D01*
X285790Y689135D01*
X285852Y689051D01*
X285912Y688965D01*
X285968Y688877D01*
X286020Y688787D01*
X286070Y688695D01*
X286116Y688601D01*
X286158Y688506D01*
X286197Y688409D01*
X286233Y688311D01*
X286265Y688211D01*
X286293Y688111D01*
X286318Y688009D01*
X286338Y687907D01*
X286356Y687804D01*
X286369Y687701D01*
X286378Y687597D01*
X286384Y687492D01*
X286386Y687388D01*
X283528Y690245D02*
X283410Y690243D01*
X283291Y690237D01*
X283173Y690228D01*
X283056Y690215D01*
X282939Y690197D01*
X282822Y690177D01*
X282706Y690152D01*
X282591Y690124D01*
X282478Y690091D01*
X282365Y690056D01*
X282253Y690016D01*
X282143Y689974D01*
X282034Y689927D01*
X281926Y689877D01*
X281821Y689824D01*
X281717Y689767D01*
X281615Y689707D01*
X281515Y689644D01*
X281417Y689577D01*
X281321Y689508D01*
X281228Y689435D01*
X281137Y689359D01*
X281048Y689281D01*
X280962Y689199D01*
X280879Y689115D01*
X280798Y689029D01*
X280721Y688939D01*
X280646Y688848D01*
X280574Y688754D01*
X280505Y688657D01*
X280440Y688559D01*
X280377Y688458D01*
X280318Y688355D01*
X280262Y688251D01*
X280210Y688145D01*
X280161Y688037D01*
X280116Y687928D01*
X280074Y687817D01*
X280036Y687705D01*
X285433Y685166D02*
X285509Y685241D01*
X285584Y685320D01*
X285655Y685401D01*
X285724Y685485D01*
X285789Y685571D01*
X285851Y685659D01*
X285911Y685749D01*
X285967Y685841D01*
X286020Y685936D01*
X286069Y686032D01*
X286115Y686130D01*
X286158Y686229D01*
X286197Y686330D01*
X286232Y686432D01*
X286264Y686535D01*
X286292Y686639D01*
X286317Y686744D01*
X286338Y686851D01*
X286355Y686957D01*
X286368Y687064D01*
X286377Y687172D01*
X286383Y687280D01*
X286385Y687388D01*
X285433Y685165D02*
X280035Y678815D01*
X286385Y678815D01*
D17*
X290068Y720090D02*
X319024Y720090D01*
X290068Y720090D02*
X290068Y727710D01*
X319024Y727710D01*
X319024Y720090D01*
D11*
X291592Y690245D02*
X291592Y678815D01*
X288417Y690245D02*
X294767Y690245D01*
X299085Y678815D02*
X302260Y678815D01*
X302371Y678817D01*
X302481Y678823D01*
X302592Y678832D01*
X302702Y678846D01*
X302811Y678863D01*
X302920Y678884D01*
X303028Y678909D01*
X303135Y678938D01*
X303241Y678970D01*
X303346Y679006D01*
X303449Y679046D01*
X303551Y679089D01*
X303652Y679136D01*
X303751Y679187D01*
X303848Y679240D01*
X303942Y679297D01*
X304035Y679358D01*
X304126Y679421D01*
X304215Y679488D01*
X304301Y679558D01*
X304384Y679631D01*
X304466Y679706D01*
X304544Y679784D01*
X304619Y679866D01*
X304692Y679949D01*
X304762Y680035D01*
X304829Y680124D01*
X304892Y680215D01*
X304953Y680308D01*
X305010Y680403D01*
X305063Y680499D01*
X305114Y680598D01*
X305161Y680699D01*
X305204Y680801D01*
X305244Y680904D01*
X305280Y681009D01*
X305312Y681115D01*
X305341Y681222D01*
X305366Y681330D01*
X305387Y681439D01*
X305404Y681548D01*
X305418Y681658D01*
X305427Y681769D01*
X305433Y681879D01*
X305435Y681990D01*
X305433Y682101D01*
X305427Y682211D01*
X305418Y682322D01*
X305404Y682432D01*
X305387Y682541D01*
X305366Y682650D01*
X305341Y682758D01*
X305312Y682865D01*
X305280Y682971D01*
X305244Y683076D01*
X305204Y683179D01*
X305161Y683281D01*
X305114Y683382D01*
X305063Y683481D01*
X305010Y683577D01*
X304953Y683672D01*
X304892Y683765D01*
X304829Y683856D01*
X304762Y683945D01*
X304692Y684031D01*
X304619Y684114D01*
X304544Y684196D01*
X304466Y684274D01*
X304384Y684349D01*
X304301Y684422D01*
X304215Y684492D01*
X304126Y684559D01*
X304035Y684622D01*
X303942Y684683D01*
X303848Y684740D01*
X303751Y684793D01*
X303652Y684844D01*
X303551Y684891D01*
X303449Y684934D01*
X303346Y684974D01*
X303241Y685010D01*
X303135Y685042D01*
X303028Y685071D01*
X302920Y685096D01*
X302811Y685117D01*
X302702Y685134D01*
X302592Y685148D01*
X302481Y685157D01*
X302371Y685163D01*
X302260Y685165D01*
X302895Y690245D02*
X299085Y690245D01*
X302895Y690245D02*
X302995Y690243D01*
X303094Y690237D01*
X303194Y690227D01*
X303292Y690214D01*
X303391Y690196D01*
X303488Y690175D01*
X303584Y690150D01*
X303680Y690121D01*
X303774Y690088D01*
X303867Y690052D01*
X303958Y690012D01*
X304048Y689968D01*
X304136Y689921D01*
X304222Y689871D01*
X304306Y689817D01*
X304388Y689760D01*
X304467Y689700D01*
X304545Y689636D01*
X304619Y689570D01*
X304691Y689501D01*
X304760Y689429D01*
X304826Y689355D01*
X304890Y689277D01*
X304950Y689198D01*
X305007Y689116D01*
X305061Y689032D01*
X305111Y688946D01*
X305158Y688858D01*
X305202Y688768D01*
X305242Y688677D01*
X305278Y688584D01*
X305311Y688490D01*
X305340Y688394D01*
X305365Y688298D01*
X305386Y688201D01*
X305404Y688102D01*
X305417Y688004D01*
X305427Y687904D01*
X305433Y687805D01*
X305435Y687705D01*
X305433Y687605D01*
X305427Y687506D01*
X305417Y687406D01*
X305404Y687308D01*
X305386Y687209D01*
X305365Y687112D01*
X305340Y687016D01*
X305311Y686920D01*
X305278Y686826D01*
X305242Y686733D01*
X305202Y686642D01*
X305158Y686552D01*
X305111Y686464D01*
X305061Y686378D01*
X305007Y686294D01*
X304950Y686212D01*
X304890Y686133D01*
X304826Y686055D01*
X304760Y685981D01*
X304691Y685909D01*
X304619Y685840D01*
X304545Y685774D01*
X304467Y685710D01*
X304388Y685650D01*
X304306Y685593D01*
X304222Y685539D01*
X304136Y685489D01*
X304048Y685442D01*
X303958Y685398D01*
X303867Y685358D01*
X303774Y685322D01*
X303680Y685289D01*
X303584Y685260D01*
X303488Y685235D01*
X303391Y685214D01*
X303292Y685196D01*
X303194Y685183D01*
X303094Y685173D01*
X302995Y685167D01*
X302895Y685165D01*
X300355Y685165D01*
D17*
X287274Y669290D02*
X258318Y669290D01*
X258318Y676910D01*
X287274Y676910D01*
X287274Y669290D01*
D11*
X272542Y639445D02*
X272542Y628015D01*
X269367Y639445D02*
X275717Y639445D01*
X282575Y639445D02*
X280035Y630555D01*
X286385Y630555D01*
X284480Y633095D02*
X284480Y628015D01*
D10*
X278892Y777804D02*
X278892Y780401D01*
X278892Y777804D02*
X278890Y777705D01*
X278884Y777605D01*
X278875Y777506D01*
X278862Y777408D01*
X278845Y777310D01*
X278824Y777212D01*
X278799Y777116D01*
X278771Y777021D01*
X278739Y776927D01*
X278704Y776834D01*
X278665Y776742D01*
X278622Y776652D01*
X278577Y776564D01*
X278527Y776477D01*
X278475Y776393D01*
X278419Y776310D01*
X278361Y776230D01*
X278299Y776152D01*
X278234Y776077D01*
X278166Y776004D01*
X278096Y775934D01*
X278023Y775866D01*
X277948Y775801D01*
X277870Y775739D01*
X277790Y775681D01*
X277707Y775625D01*
X277623Y775573D01*
X277536Y775523D01*
X277448Y775478D01*
X277358Y775435D01*
X277266Y775396D01*
X277173Y775361D01*
X277079Y775329D01*
X276984Y775301D01*
X276888Y775276D01*
X276790Y775255D01*
X276692Y775238D01*
X276594Y775225D01*
X276495Y775216D01*
X276395Y775210D01*
X276296Y775208D01*
X269804Y775208D01*
X269705Y775210D01*
X269605Y775216D01*
X269506Y775225D01*
X269408Y775238D01*
X269310Y775256D01*
X269212Y775276D01*
X269116Y775301D01*
X269020Y775329D01*
X268926Y775361D01*
X268833Y775396D01*
X268742Y775435D01*
X268652Y775478D01*
X268563Y775523D01*
X268477Y775573D01*
X268392Y775625D01*
X268310Y775681D01*
X268230Y775740D01*
X268152Y775801D01*
X268076Y775866D01*
X268003Y775934D01*
X267933Y776004D01*
X267865Y776077D01*
X267800Y776153D01*
X267739Y776231D01*
X267680Y776311D01*
X267624Y776393D01*
X267572Y776478D01*
X267523Y776564D01*
X267477Y776653D01*
X267434Y776743D01*
X267395Y776834D01*
X267360Y776927D01*
X267328Y777021D01*
X267300Y777117D01*
X267275Y777213D01*
X267255Y777311D01*
X267237Y777409D01*
X267224Y777507D01*
X267215Y777606D01*
X267209Y777705D01*
X267207Y777805D01*
X267208Y777804D02*
X267208Y780401D01*
X267208Y788336D02*
X267210Y788443D01*
X267216Y788549D01*
X267226Y788655D01*
X267239Y788761D01*
X267257Y788867D01*
X267278Y788971D01*
X267303Y789075D01*
X267332Y789178D01*
X267364Y789279D01*
X267401Y789379D01*
X267441Y789478D01*
X267484Y789576D01*
X267531Y789672D01*
X267582Y789766D01*
X267636Y789858D01*
X267693Y789948D01*
X267753Y790036D01*
X267817Y790121D01*
X267884Y790204D01*
X267954Y790285D01*
X268026Y790363D01*
X268102Y790439D01*
X268180Y790511D01*
X268261Y790581D01*
X268344Y790648D01*
X268429Y790712D01*
X268517Y790772D01*
X268607Y790829D01*
X268699Y790883D01*
X268793Y790934D01*
X268889Y790981D01*
X268987Y791024D01*
X269086Y791064D01*
X269186Y791101D01*
X269287Y791133D01*
X269390Y791162D01*
X269494Y791187D01*
X269598Y791208D01*
X269704Y791226D01*
X269810Y791239D01*
X269916Y791249D01*
X270022Y791255D01*
X270129Y791257D01*
X267208Y788336D02*
X267210Y788215D01*
X267216Y788094D01*
X267226Y787974D01*
X267239Y787853D01*
X267257Y787734D01*
X267278Y787614D01*
X267303Y787496D01*
X267332Y787379D01*
X267365Y787262D01*
X267401Y787147D01*
X267442Y787033D01*
X267485Y786920D01*
X267533Y786808D01*
X267584Y786699D01*
X267639Y786591D01*
X267697Y786484D01*
X267758Y786380D01*
X267823Y786278D01*
X267891Y786178D01*
X267962Y786080D01*
X268036Y785984D01*
X268113Y785891D01*
X268194Y785801D01*
X268277Y785713D01*
X268363Y785628D01*
X268452Y785545D01*
X268543Y785466D01*
X268637Y785389D01*
X268733Y785316D01*
X268831Y785246D01*
X268932Y785179D01*
X269035Y785115D01*
X269140Y785055D01*
X269247Y784997D01*
X269355Y784944D01*
X269465Y784894D01*
X269577Y784848D01*
X269690Y784805D01*
X269805Y784766D01*
X272401Y790283D02*
X272323Y790362D01*
X272243Y790438D01*
X272160Y790511D01*
X272074Y790581D01*
X271987Y790648D01*
X271896Y790712D01*
X271804Y790772D01*
X271710Y790830D01*
X271613Y790884D01*
X271515Y790934D01*
X271415Y790981D01*
X271314Y791025D01*
X271211Y791065D01*
X271106Y791101D01*
X271001Y791133D01*
X270894Y791162D01*
X270787Y791187D01*
X270678Y791209D01*
X270569Y791226D01*
X270460Y791240D01*
X270350Y791249D01*
X270239Y791255D01*
X270129Y791257D01*
X272401Y790284D02*
X278892Y784766D01*
X278892Y791257D01*
X151892Y780401D02*
X151892Y777804D01*
X151890Y777705D01*
X151884Y777605D01*
X151875Y777506D01*
X151862Y777408D01*
X151845Y777310D01*
X151824Y777212D01*
X151799Y777116D01*
X151771Y777021D01*
X151739Y776927D01*
X151704Y776834D01*
X151665Y776742D01*
X151622Y776652D01*
X151577Y776564D01*
X151527Y776477D01*
X151475Y776393D01*
X151419Y776310D01*
X151361Y776230D01*
X151299Y776152D01*
X151234Y776077D01*
X151166Y776004D01*
X151096Y775934D01*
X151023Y775866D01*
X150948Y775801D01*
X150870Y775739D01*
X150790Y775681D01*
X150707Y775625D01*
X150623Y775573D01*
X150536Y775523D01*
X150448Y775478D01*
X150358Y775435D01*
X150266Y775396D01*
X150173Y775361D01*
X150079Y775329D01*
X149984Y775301D01*
X149888Y775276D01*
X149790Y775255D01*
X149692Y775238D01*
X149594Y775225D01*
X149495Y775216D01*
X149395Y775210D01*
X149296Y775208D01*
X142804Y775208D01*
X142705Y775210D01*
X142605Y775216D01*
X142506Y775225D01*
X142408Y775238D01*
X142310Y775256D01*
X142212Y775276D01*
X142116Y775301D01*
X142020Y775329D01*
X141926Y775361D01*
X141833Y775396D01*
X141742Y775435D01*
X141652Y775478D01*
X141563Y775523D01*
X141477Y775573D01*
X141392Y775625D01*
X141310Y775681D01*
X141230Y775740D01*
X141152Y775801D01*
X141076Y775866D01*
X141003Y775934D01*
X140933Y776004D01*
X140865Y776077D01*
X140800Y776153D01*
X140739Y776231D01*
X140680Y776311D01*
X140624Y776393D01*
X140572Y776478D01*
X140523Y776564D01*
X140477Y776653D01*
X140434Y776743D01*
X140395Y776834D01*
X140360Y776927D01*
X140328Y777021D01*
X140300Y777117D01*
X140275Y777213D01*
X140255Y777311D01*
X140237Y777409D01*
X140224Y777507D01*
X140215Y777606D01*
X140209Y777705D01*
X140207Y777805D01*
X140208Y777804D02*
X140208Y780401D01*
X151892Y784766D02*
X151892Y788012D01*
X151890Y788125D01*
X151884Y788238D01*
X151874Y788351D01*
X151860Y788464D01*
X151843Y788576D01*
X151821Y788687D01*
X151796Y788797D01*
X151766Y788907D01*
X151733Y789015D01*
X151696Y789122D01*
X151656Y789228D01*
X151611Y789332D01*
X151563Y789435D01*
X151512Y789536D01*
X151457Y789635D01*
X151399Y789732D01*
X151337Y789827D01*
X151272Y789920D01*
X151204Y790010D01*
X151133Y790098D01*
X151058Y790184D01*
X150981Y790267D01*
X150901Y790347D01*
X150818Y790424D01*
X150732Y790499D01*
X150644Y790570D01*
X150554Y790638D01*
X150461Y790703D01*
X150366Y790765D01*
X150269Y790823D01*
X150170Y790878D01*
X150069Y790929D01*
X149966Y790977D01*
X149862Y791022D01*
X149756Y791062D01*
X149649Y791099D01*
X149541Y791132D01*
X149431Y791162D01*
X149321Y791187D01*
X149210Y791209D01*
X149098Y791226D01*
X148985Y791240D01*
X148872Y791250D01*
X148759Y791256D01*
X148646Y791258D01*
X148533Y791256D01*
X148420Y791250D01*
X148307Y791240D01*
X148194Y791226D01*
X148082Y791209D01*
X147971Y791187D01*
X147861Y791162D01*
X147751Y791132D01*
X147643Y791099D01*
X147536Y791062D01*
X147430Y791022D01*
X147326Y790977D01*
X147223Y790929D01*
X147122Y790878D01*
X147023Y790823D01*
X146926Y790765D01*
X146831Y790703D01*
X146738Y790638D01*
X146648Y790570D01*
X146560Y790499D01*
X146474Y790424D01*
X146391Y790347D01*
X146311Y790267D01*
X146234Y790184D01*
X146159Y790098D01*
X146088Y790010D01*
X146020Y789920D01*
X145955Y789827D01*
X145893Y789732D01*
X145835Y789635D01*
X145780Y789536D01*
X145729Y789435D01*
X145681Y789332D01*
X145636Y789228D01*
X145596Y789122D01*
X145559Y789015D01*
X145526Y788907D01*
X145496Y788797D01*
X145471Y788687D01*
X145449Y788576D01*
X145432Y788464D01*
X145418Y788351D01*
X145408Y788238D01*
X145402Y788125D01*
X145400Y788012D01*
X140208Y788661D02*
X140208Y784766D01*
X140208Y788661D02*
X140210Y788762D01*
X140216Y788862D01*
X140226Y788962D01*
X140239Y789062D01*
X140257Y789161D01*
X140278Y789260D01*
X140303Y789357D01*
X140332Y789454D01*
X140365Y789549D01*
X140401Y789643D01*
X140441Y789735D01*
X140484Y789826D01*
X140531Y789915D01*
X140581Y790002D01*
X140635Y790088D01*
X140692Y790171D01*
X140752Y790251D01*
X140815Y790330D01*
X140882Y790406D01*
X140951Y790479D01*
X141023Y790549D01*
X141097Y790617D01*
X141174Y790682D01*
X141254Y790743D01*
X141336Y790802D01*
X141420Y790857D01*
X141506Y790909D01*
X141594Y790958D01*
X141684Y791003D01*
X141776Y791045D01*
X141869Y791083D01*
X141964Y791117D01*
X142059Y791148D01*
X142156Y791175D01*
X142254Y791198D01*
X142353Y791218D01*
X142453Y791233D01*
X142553Y791245D01*
X142653Y791253D01*
X142754Y791257D01*
X142854Y791257D01*
X142955Y791253D01*
X143055Y791245D01*
X143155Y791233D01*
X143255Y791218D01*
X143354Y791198D01*
X143452Y791175D01*
X143549Y791148D01*
X143644Y791117D01*
X143739Y791083D01*
X143832Y791045D01*
X143924Y791003D01*
X144014Y790958D01*
X144102Y790909D01*
X144188Y790857D01*
X144272Y790802D01*
X144354Y790743D01*
X144434Y790682D01*
X144511Y790617D01*
X144585Y790549D01*
X144657Y790479D01*
X144726Y790406D01*
X144793Y790330D01*
X144856Y790251D01*
X144916Y790171D01*
X144973Y790088D01*
X145027Y790002D01*
X145077Y789915D01*
X145124Y789826D01*
X145167Y789735D01*
X145207Y789643D01*
X145243Y789549D01*
X145276Y789454D01*
X145305Y789357D01*
X145330Y789260D01*
X145351Y789161D01*
X145369Y789062D01*
X145382Y788962D01*
X145392Y788862D01*
X145398Y788762D01*
X145400Y788661D01*
X145401Y788661D02*
X145401Y786064D01*
D11*
X637540Y321600D02*
X911860Y321600D01*
X637540Y321600D02*
X637540Y601000D01*
X698500Y601000D01*
X850900Y601000D01*
X911860Y601000D01*
X911860Y321600D01*
X825500Y327950D02*
X819150Y321600D01*
X806450Y321600D02*
X800100Y327950D01*
X793750Y321600D01*
X781050Y321600D02*
X774700Y327950D01*
X768350Y321600D01*
X755650Y321600D02*
X749300Y327950D01*
X742950Y321600D01*
X730250Y321600D02*
X723900Y327950D01*
X723900Y340650D02*
X730250Y347000D01*
X742950Y347000D01*
X749300Y340650D01*
X755650Y347000D01*
X768350Y347000D01*
X774700Y340650D01*
X781050Y347000D01*
X793750Y347000D01*
X800100Y340650D01*
X806450Y347000D01*
X819150Y347000D01*
X825500Y340650D01*
X825500Y327950D01*
X889000Y380020D02*
X660400Y380020D01*
X660400Y517180D01*
X889000Y517180D01*
X889000Y380020D01*
X723900Y340650D02*
X723900Y327950D01*
D13*
X804091Y357682D02*
X805657Y357682D01*
X805657Y352461D01*
X802524Y352461D01*
X802435Y352463D01*
X802347Y352469D01*
X802259Y352478D01*
X802171Y352491D01*
X802084Y352508D01*
X801998Y352528D01*
X801913Y352553D01*
X801828Y352580D01*
X801745Y352612D01*
X801664Y352646D01*
X801584Y352685D01*
X801506Y352726D01*
X801429Y352771D01*
X801355Y352819D01*
X801282Y352870D01*
X801212Y352924D01*
X801145Y352982D01*
X801079Y353042D01*
X801017Y353104D01*
X800957Y353170D01*
X800899Y353237D01*
X800845Y353307D01*
X800794Y353380D01*
X800746Y353454D01*
X800701Y353531D01*
X800660Y353609D01*
X800621Y353689D01*
X800587Y353770D01*
X800555Y353853D01*
X800528Y353938D01*
X800503Y354023D01*
X800483Y354109D01*
X800466Y354196D01*
X800453Y354284D01*
X800444Y354372D01*
X800438Y354460D01*
X800436Y354549D01*
X800436Y359771D01*
X800438Y359862D01*
X800444Y359953D01*
X800454Y360044D01*
X800468Y360134D01*
X800485Y360223D01*
X800507Y360311D01*
X800533Y360399D01*
X800562Y360485D01*
X800595Y360570D01*
X800632Y360653D01*
X800672Y360735D01*
X800716Y360815D01*
X800763Y360893D01*
X800814Y360969D01*
X800867Y361042D01*
X800924Y361113D01*
X800985Y361182D01*
X801048Y361247D01*
X801113Y361310D01*
X801182Y361370D01*
X801253Y361428D01*
X801326Y361481D01*
X801402Y361532D01*
X801480Y361579D01*
X801560Y361623D01*
X801642Y361663D01*
X801725Y361700D01*
X801810Y361733D01*
X801896Y361762D01*
X801984Y361788D01*
X802072Y361810D01*
X802161Y361827D01*
X802251Y361841D01*
X802342Y361851D01*
X802433Y361857D01*
X802524Y361859D01*
X805657Y361859D01*
X810189Y361859D02*
X810189Y352461D01*
X815411Y352461D02*
X810189Y361859D01*
X815411Y361859D02*
X815411Y352461D01*
X819943Y352461D02*
X819943Y361859D01*
X822554Y361859D01*
X822654Y361857D01*
X822754Y361851D01*
X822853Y361842D01*
X822953Y361828D01*
X823051Y361811D01*
X823149Y361790D01*
X823246Y361766D01*
X823342Y361737D01*
X823437Y361705D01*
X823530Y361670D01*
X823622Y361631D01*
X823713Y361588D01*
X823801Y361542D01*
X823888Y361492D01*
X823973Y361440D01*
X824056Y361384D01*
X824137Y361325D01*
X824215Y361262D01*
X824291Y361197D01*
X824365Y361129D01*
X824435Y361059D01*
X824503Y360985D01*
X824568Y360909D01*
X824631Y360831D01*
X824690Y360750D01*
X824746Y360667D01*
X824798Y360582D01*
X824848Y360495D01*
X824894Y360407D01*
X824937Y360316D01*
X824976Y360224D01*
X825011Y360131D01*
X825043Y360036D01*
X825072Y359940D01*
X825096Y359843D01*
X825117Y359745D01*
X825134Y359647D01*
X825148Y359547D01*
X825157Y359448D01*
X825163Y359348D01*
X825165Y359248D01*
X825164Y359248D02*
X825164Y355072D01*
X825165Y355072D02*
X825163Y354972D01*
X825157Y354872D01*
X825148Y354773D01*
X825134Y354673D01*
X825117Y354575D01*
X825096Y354477D01*
X825072Y354380D01*
X825043Y354284D01*
X825011Y354189D01*
X824976Y354096D01*
X824937Y354004D01*
X824894Y353913D01*
X824848Y353825D01*
X824798Y353738D01*
X824746Y353653D01*
X824690Y353570D01*
X824631Y353489D01*
X824568Y353411D01*
X824503Y353335D01*
X824435Y353261D01*
X824365Y353191D01*
X824291Y353123D01*
X824215Y353058D01*
X824137Y352995D01*
X824056Y352936D01*
X823973Y352880D01*
X823888Y352828D01*
X823801Y352778D01*
X823713Y352732D01*
X823622Y352689D01*
X823530Y352650D01*
X823437Y352615D01*
X823342Y352583D01*
X823246Y352554D01*
X823149Y352530D01*
X823051Y352509D01*
X822953Y352492D01*
X822853Y352478D01*
X822754Y352469D01*
X822654Y352463D01*
X822554Y352461D01*
X819943Y352461D01*
X779814Y365161D02*
X776681Y374559D01*
X782947Y374559D02*
X779814Y365161D01*
X788410Y365161D02*
X790499Y365161D01*
X788410Y365161D02*
X788321Y365163D01*
X788233Y365169D01*
X788145Y365178D01*
X788057Y365191D01*
X787970Y365208D01*
X787884Y365228D01*
X787799Y365253D01*
X787714Y365280D01*
X787631Y365312D01*
X787550Y365346D01*
X787470Y365385D01*
X787392Y365426D01*
X787315Y365471D01*
X787241Y365519D01*
X787168Y365570D01*
X787098Y365624D01*
X787031Y365682D01*
X786965Y365742D01*
X786903Y365804D01*
X786843Y365870D01*
X786785Y365937D01*
X786731Y366007D01*
X786680Y366080D01*
X786632Y366154D01*
X786587Y366231D01*
X786546Y366309D01*
X786507Y366389D01*
X786473Y366470D01*
X786441Y366553D01*
X786414Y366638D01*
X786389Y366723D01*
X786369Y366809D01*
X786352Y366896D01*
X786339Y366984D01*
X786330Y367072D01*
X786324Y367160D01*
X786322Y367249D01*
X786322Y372471D01*
X786324Y372562D01*
X786330Y372653D01*
X786340Y372744D01*
X786354Y372834D01*
X786371Y372923D01*
X786393Y373011D01*
X786419Y373099D01*
X786448Y373185D01*
X786481Y373270D01*
X786518Y373353D01*
X786558Y373435D01*
X786602Y373515D01*
X786649Y373593D01*
X786700Y373669D01*
X786753Y373742D01*
X786810Y373813D01*
X786871Y373882D01*
X786934Y373947D01*
X786999Y374010D01*
X787068Y374070D01*
X787139Y374128D01*
X787212Y374181D01*
X787288Y374232D01*
X787366Y374279D01*
X787446Y374323D01*
X787528Y374363D01*
X787611Y374400D01*
X787696Y374433D01*
X787782Y374462D01*
X787870Y374488D01*
X787958Y374510D01*
X788047Y374527D01*
X788137Y374541D01*
X788228Y374551D01*
X788319Y374557D01*
X788410Y374559D01*
X790499Y374559D01*
X796030Y365161D02*
X798119Y365161D01*
X796030Y365161D02*
X795941Y365163D01*
X795853Y365169D01*
X795765Y365178D01*
X795677Y365191D01*
X795590Y365208D01*
X795504Y365228D01*
X795419Y365253D01*
X795334Y365280D01*
X795251Y365312D01*
X795170Y365346D01*
X795090Y365385D01*
X795012Y365426D01*
X794935Y365471D01*
X794861Y365519D01*
X794788Y365570D01*
X794718Y365624D01*
X794651Y365682D01*
X794585Y365742D01*
X794523Y365804D01*
X794463Y365870D01*
X794405Y365937D01*
X794351Y366007D01*
X794300Y366080D01*
X794252Y366154D01*
X794207Y366231D01*
X794166Y366309D01*
X794127Y366389D01*
X794093Y366470D01*
X794061Y366553D01*
X794034Y366638D01*
X794009Y366723D01*
X793989Y366809D01*
X793972Y366896D01*
X793959Y366984D01*
X793950Y367072D01*
X793944Y367160D01*
X793942Y367249D01*
X793942Y372471D01*
X793944Y372562D01*
X793950Y372653D01*
X793960Y372744D01*
X793974Y372834D01*
X793991Y372923D01*
X794013Y373011D01*
X794039Y373099D01*
X794068Y373185D01*
X794101Y373270D01*
X794138Y373353D01*
X794178Y373435D01*
X794222Y373515D01*
X794269Y373593D01*
X794320Y373669D01*
X794373Y373742D01*
X794430Y373813D01*
X794491Y373882D01*
X794554Y373947D01*
X794619Y374010D01*
X794688Y374070D01*
X794759Y374128D01*
X794832Y374181D01*
X794908Y374232D01*
X794986Y374279D01*
X795066Y374323D01*
X795148Y374363D01*
X795231Y374400D01*
X795316Y374433D01*
X795402Y374462D01*
X795490Y374488D01*
X795578Y374510D01*
X795667Y374527D01*
X795757Y374541D01*
X795848Y374551D01*
X795939Y374557D01*
X796030Y374559D01*
X798119Y374559D01*
X756742Y354549D02*
X756740Y354460D01*
X756734Y354372D01*
X756725Y354284D01*
X756712Y354196D01*
X756695Y354109D01*
X756675Y354023D01*
X756650Y353938D01*
X756623Y353853D01*
X756591Y353770D01*
X756557Y353689D01*
X756518Y353609D01*
X756477Y353531D01*
X756432Y353454D01*
X756384Y353380D01*
X756333Y353307D01*
X756279Y353237D01*
X756221Y353170D01*
X756161Y353104D01*
X756099Y353042D01*
X756033Y352982D01*
X755966Y352924D01*
X755896Y352870D01*
X755823Y352819D01*
X755749Y352771D01*
X755672Y352726D01*
X755594Y352685D01*
X755514Y352646D01*
X755433Y352612D01*
X755350Y352580D01*
X755265Y352553D01*
X755180Y352528D01*
X755094Y352508D01*
X755007Y352491D01*
X754919Y352478D01*
X754831Y352469D01*
X754743Y352463D01*
X754654Y352461D01*
X754525Y352463D01*
X754396Y352469D01*
X754267Y352478D01*
X754139Y352491D01*
X754011Y352508D01*
X753884Y352529D01*
X753757Y352553D01*
X753631Y352581D01*
X753506Y352613D01*
X753382Y352648D01*
X753259Y352687D01*
X753137Y352730D01*
X753017Y352776D01*
X752898Y352826D01*
X752780Y352879D01*
X752664Y352935D01*
X752550Y352995D01*
X752437Y353058D01*
X752327Y353125D01*
X752218Y353194D01*
X752112Y353267D01*
X752007Y353343D01*
X751905Y353422D01*
X751806Y353504D01*
X751708Y353588D01*
X751613Y353676D01*
X751521Y353766D01*
X751782Y359771D02*
X751784Y359860D01*
X751790Y359948D01*
X751799Y360036D01*
X751812Y360124D01*
X751829Y360211D01*
X751849Y360297D01*
X751874Y360382D01*
X751901Y360467D01*
X751933Y360550D01*
X751967Y360631D01*
X752006Y360711D01*
X752047Y360789D01*
X752092Y360866D01*
X752140Y360940D01*
X752191Y361013D01*
X752245Y361083D01*
X752303Y361150D01*
X752363Y361216D01*
X752425Y361278D01*
X752491Y361338D01*
X752558Y361396D01*
X752628Y361450D01*
X752701Y361501D01*
X752775Y361549D01*
X752852Y361594D01*
X752930Y361635D01*
X753010Y361674D01*
X753091Y361708D01*
X753174Y361740D01*
X753259Y361767D01*
X753344Y361792D01*
X753430Y361812D01*
X753517Y361829D01*
X753605Y361842D01*
X753693Y361851D01*
X753781Y361857D01*
X753870Y361859D01*
X753990Y361857D01*
X754110Y361852D01*
X754230Y361842D01*
X754349Y361830D01*
X754468Y361813D01*
X754586Y361793D01*
X754704Y361769D01*
X754820Y361742D01*
X754936Y361711D01*
X755051Y361677D01*
X755165Y361639D01*
X755278Y361597D01*
X755389Y361552D01*
X755499Y361504D01*
X755607Y361453D01*
X755714Y361398D01*
X755819Y361340D01*
X755922Y361278D01*
X756023Y361214D01*
X756123Y361146D01*
X756220Y361076D01*
X752826Y357944D02*
X752748Y357992D01*
X752672Y358044D01*
X752599Y358098D01*
X752528Y358156D01*
X752459Y358217D01*
X752393Y358281D01*
X752330Y358348D01*
X752270Y358417D01*
X752213Y358489D01*
X752159Y358563D01*
X752109Y358640D01*
X752061Y358719D01*
X752018Y358799D01*
X751977Y358882D01*
X751941Y358966D01*
X751908Y359051D01*
X751879Y359138D01*
X751853Y359227D01*
X751831Y359316D01*
X751814Y359406D01*
X751800Y359496D01*
X751790Y359588D01*
X751784Y359679D01*
X751782Y359771D01*
X755698Y356376D02*
X755776Y356328D01*
X755852Y356276D01*
X755925Y356222D01*
X755996Y356164D01*
X756065Y356103D01*
X756131Y356039D01*
X756194Y355972D01*
X756254Y355903D01*
X756311Y355831D01*
X756365Y355757D01*
X756415Y355680D01*
X756463Y355601D01*
X756506Y355521D01*
X756547Y355438D01*
X756583Y355354D01*
X756616Y355269D01*
X756645Y355182D01*
X756671Y355093D01*
X756693Y355004D01*
X756710Y354914D01*
X756724Y354824D01*
X756734Y354732D01*
X756740Y354641D01*
X756742Y354549D01*
X755698Y356377D02*
X752826Y357943D01*
X762423Y352461D02*
X764511Y352461D01*
X762423Y352461D02*
X762334Y352463D01*
X762246Y352469D01*
X762158Y352478D01*
X762070Y352491D01*
X761983Y352508D01*
X761897Y352528D01*
X761812Y352553D01*
X761727Y352580D01*
X761644Y352612D01*
X761563Y352646D01*
X761483Y352685D01*
X761405Y352726D01*
X761328Y352771D01*
X761254Y352819D01*
X761181Y352870D01*
X761111Y352924D01*
X761044Y352982D01*
X760978Y353042D01*
X760916Y353104D01*
X760856Y353170D01*
X760798Y353237D01*
X760744Y353307D01*
X760693Y353380D01*
X760645Y353454D01*
X760600Y353531D01*
X760559Y353609D01*
X760520Y353689D01*
X760486Y353770D01*
X760454Y353853D01*
X760427Y353938D01*
X760402Y354023D01*
X760382Y354109D01*
X760365Y354196D01*
X760352Y354284D01*
X760343Y354372D01*
X760337Y354460D01*
X760335Y354549D01*
X760334Y354549D02*
X760334Y359771D01*
X760335Y359771D02*
X760337Y359862D01*
X760343Y359953D01*
X760353Y360044D01*
X760367Y360134D01*
X760384Y360223D01*
X760406Y360311D01*
X760432Y360399D01*
X760461Y360485D01*
X760494Y360570D01*
X760531Y360653D01*
X760571Y360735D01*
X760615Y360815D01*
X760662Y360893D01*
X760713Y360969D01*
X760766Y361042D01*
X760823Y361113D01*
X760884Y361182D01*
X760947Y361247D01*
X761012Y361310D01*
X761081Y361370D01*
X761152Y361428D01*
X761225Y361481D01*
X761301Y361532D01*
X761379Y361579D01*
X761459Y361623D01*
X761541Y361663D01*
X761624Y361700D01*
X761709Y361733D01*
X761795Y361762D01*
X761883Y361788D01*
X761971Y361810D01*
X762060Y361827D01*
X762150Y361841D01*
X762241Y361851D01*
X762332Y361857D01*
X762423Y361859D01*
X764511Y361859D01*
X768302Y361859D02*
X768302Y352461D01*
X772479Y352461D01*
X729653Y367249D02*
X729651Y367160D01*
X729645Y367072D01*
X729636Y366984D01*
X729623Y366896D01*
X729606Y366809D01*
X729586Y366723D01*
X729561Y366638D01*
X729534Y366553D01*
X729502Y366470D01*
X729468Y366389D01*
X729429Y366309D01*
X729388Y366231D01*
X729343Y366154D01*
X729295Y366080D01*
X729244Y366007D01*
X729190Y365937D01*
X729132Y365870D01*
X729072Y365804D01*
X729010Y365742D01*
X728944Y365682D01*
X728877Y365624D01*
X728807Y365570D01*
X728734Y365519D01*
X728660Y365471D01*
X728583Y365426D01*
X728505Y365385D01*
X728425Y365346D01*
X728344Y365312D01*
X728261Y365280D01*
X728176Y365253D01*
X728091Y365228D01*
X728005Y365208D01*
X727918Y365191D01*
X727830Y365178D01*
X727742Y365169D01*
X727654Y365163D01*
X727565Y365161D01*
X727436Y365163D01*
X727307Y365169D01*
X727178Y365178D01*
X727050Y365191D01*
X726922Y365208D01*
X726795Y365229D01*
X726668Y365253D01*
X726542Y365281D01*
X726417Y365313D01*
X726293Y365348D01*
X726170Y365387D01*
X726048Y365430D01*
X725928Y365476D01*
X725809Y365526D01*
X725691Y365579D01*
X725575Y365635D01*
X725461Y365695D01*
X725348Y365758D01*
X725238Y365825D01*
X725129Y365894D01*
X725023Y365967D01*
X724918Y366043D01*
X724816Y366122D01*
X724717Y366204D01*
X724619Y366288D01*
X724524Y366376D01*
X724432Y366466D01*
X724694Y372471D02*
X724696Y372560D01*
X724702Y372648D01*
X724711Y372736D01*
X724724Y372824D01*
X724741Y372911D01*
X724761Y372997D01*
X724786Y373082D01*
X724813Y373167D01*
X724845Y373250D01*
X724879Y373331D01*
X724918Y373411D01*
X724959Y373489D01*
X725004Y373566D01*
X725052Y373640D01*
X725103Y373713D01*
X725157Y373783D01*
X725215Y373850D01*
X725275Y373916D01*
X725337Y373978D01*
X725403Y374038D01*
X725470Y374096D01*
X725540Y374150D01*
X725613Y374201D01*
X725687Y374249D01*
X725764Y374294D01*
X725842Y374335D01*
X725922Y374374D01*
X726003Y374408D01*
X726086Y374440D01*
X726171Y374467D01*
X726256Y374492D01*
X726342Y374512D01*
X726429Y374529D01*
X726517Y374542D01*
X726605Y374551D01*
X726693Y374557D01*
X726782Y374559D01*
X726781Y374559D02*
X726901Y374557D01*
X727021Y374552D01*
X727141Y374542D01*
X727260Y374530D01*
X727379Y374513D01*
X727497Y374493D01*
X727615Y374469D01*
X727731Y374442D01*
X727847Y374411D01*
X727962Y374377D01*
X728076Y374339D01*
X728189Y374297D01*
X728300Y374252D01*
X728410Y374204D01*
X728518Y374153D01*
X728625Y374098D01*
X728730Y374040D01*
X728833Y373978D01*
X728934Y373914D01*
X729034Y373846D01*
X729131Y373776D01*
X725737Y370644D02*
X725659Y370692D01*
X725583Y370744D01*
X725510Y370798D01*
X725439Y370856D01*
X725370Y370917D01*
X725304Y370981D01*
X725241Y371048D01*
X725181Y371117D01*
X725124Y371189D01*
X725070Y371263D01*
X725020Y371340D01*
X724972Y371419D01*
X724929Y371499D01*
X724888Y371582D01*
X724852Y371666D01*
X724819Y371751D01*
X724790Y371838D01*
X724764Y371927D01*
X724742Y372016D01*
X724725Y372106D01*
X724711Y372196D01*
X724701Y372288D01*
X724695Y372379D01*
X724693Y372471D01*
X728609Y369076D02*
X728687Y369028D01*
X728763Y368976D01*
X728836Y368922D01*
X728907Y368864D01*
X728976Y368803D01*
X729042Y368739D01*
X729105Y368672D01*
X729165Y368603D01*
X729222Y368531D01*
X729276Y368457D01*
X729326Y368380D01*
X729374Y368301D01*
X729417Y368221D01*
X729458Y368138D01*
X729494Y368054D01*
X729527Y367969D01*
X729556Y367882D01*
X729582Y367793D01*
X729604Y367704D01*
X729621Y367614D01*
X729635Y367524D01*
X729645Y367432D01*
X729651Y367341D01*
X729653Y367249D01*
X728609Y369077D02*
X725737Y370643D01*
X733576Y374559D02*
X733576Y365161D01*
X733576Y374559D02*
X736187Y374559D01*
X736287Y374557D01*
X736387Y374551D01*
X736486Y374542D01*
X736586Y374528D01*
X736684Y374511D01*
X736782Y374490D01*
X736879Y374466D01*
X736975Y374437D01*
X737070Y374405D01*
X737163Y374370D01*
X737255Y374331D01*
X737346Y374288D01*
X737434Y374242D01*
X737521Y374192D01*
X737606Y374140D01*
X737689Y374084D01*
X737770Y374025D01*
X737848Y373962D01*
X737924Y373897D01*
X737998Y373829D01*
X738068Y373759D01*
X738136Y373685D01*
X738201Y373609D01*
X738264Y373531D01*
X738323Y373450D01*
X738379Y373367D01*
X738431Y373282D01*
X738481Y373195D01*
X738527Y373107D01*
X738570Y373016D01*
X738609Y372924D01*
X738644Y372831D01*
X738676Y372736D01*
X738705Y372640D01*
X738729Y372543D01*
X738750Y372445D01*
X738767Y372347D01*
X738781Y372247D01*
X738790Y372148D01*
X738796Y372048D01*
X738798Y371948D01*
X738797Y371948D02*
X738797Y367772D01*
X738798Y367772D02*
X738796Y367672D01*
X738790Y367572D01*
X738781Y367473D01*
X738767Y367373D01*
X738750Y367275D01*
X738729Y367177D01*
X738705Y367080D01*
X738676Y366984D01*
X738644Y366889D01*
X738609Y366796D01*
X738570Y366704D01*
X738527Y366613D01*
X738481Y366525D01*
X738431Y366438D01*
X738379Y366353D01*
X738323Y366270D01*
X738264Y366189D01*
X738201Y366111D01*
X738136Y366035D01*
X738068Y365961D01*
X737998Y365891D01*
X737924Y365823D01*
X737848Y365758D01*
X737770Y365695D01*
X737689Y365636D01*
X737606Y365580D01*
X737521Y365528D01*
X737434Y365478D01*
X737346Y365432D01*
X737255Y365389D01*
X737163Y365350D01*
X737070Y365315D01*
X736975Y365283D01*
X736879Y365254D01*
X736782Y365230D01*
X736684Y365209D01*
X736586Y365192D01*
X736486Y365178D01*
X736387Y365169D01*
X736287Y365163D01*
X736187Y365161D01*
X733576Y365161D01*
X742503Y365161D02*
X745635Y374559D01*
X748768Y365161D01*
X747985Y367511D02*
X743286Y367511D01*
D11*
X787400Y360970D02*
X787400Y350810D01*
X736600Y350810D02*
X736600Y360970D01*
X838200Y581950D02*
X850900Y601000D01*
X838200Y581950D02*
X711200Y581950D01*
X698500Y601000D01*
D10*
X760596Y308392D02*
X760596Y299954D01*
X760598Y299841D01*
X760604Y299728D01*
X760614Y299615D01*
X760628Y299502D01*
X760645Y299390D01*
X760667Y299279D01*
X760692Y299169D01*
X760722Y299059D01*
X760755Y298951D01*
X760792Y298844D01*
X760832Y298738D01*
X760877Y298634D01*
X760925Y298531D01*
X760976Y298430D01*
X761031Y298331D01*
X761089Y298234D01*
X761151Y298139D01*
X761216Y298046D01*
X761284Y297956D01*
X761355Y297868D01*
X761430Y297782D01*
X761507Y297699D01*
X761587Y297619D01*
X761670Y297542D01*
X761756Y297467D01*
X761844Y297396D01*
X761934Y297328D01*
X762027Y297263D01*
X762122Y297201D01*
X762219Y297143D01*
X762318Y297088D01*
X762419Y297037D01*
X762522Y296989D01*
X762626Y296944D01*
X762732Y296904D01*
X762839Y296867D01*
X762947Y296834D01*
X763057Y296804D01*
X763167Y296779D01*
X763278Y296757D01*
X763390Y296740D01*
X763503Y296726D01*
X763616Y296716D01*
X763729Y296710D01*
X763842Y296708D01*
X763955Y296710D01*
X764068Y296716D01*
X764181Y296726D01*
X764294Y296740D01*
X764406Y296757D01*
X764517Y296779D01*
X764627Y296804D01*
X764737Y296834D01*
X764845Y296867D01*
X764952Y296904D01*
X765058Y296944D01*
X765162Y296989D01*
X765265Y297037D01*
X765366Y297088D01*
X765465Y297143D01*
X765562Y297201D01*
X765657Y297263D01*
X765750Y297328D01*
X765840Y297396D01*
X765928Y297467D01*
X766014Y297542D01*
X766097Y297619D01*
X766177Y297699D01*
X766254Y297782D01*
X766329Y297868D01*
X766400Y297956D01*
X766468Y298046D01*
X766533Y298139D01*
X766595Y298234D01*
X766653Y298331D01*
X766708Y298430D01*
X766759Y298531D01*
X766807Y298634D01*
X766852Y298738D01*
X766892Y298844D01*
X766929Y298951D01*
X766962Y299059D01*
X766992Y299169D01*
X767017Y299279D01*
X767039Y299390D01*
X767056Y299502D01*
X767070Y299615D01*
X767080Y299728D01*
X767086Y299841D01*
X767088Y299954D01*
X767087Y299954D02*
X767087Y308392D01*
X774891Y308392D02*
X774891Y296708D01*
X774891Y302550D02*
X773268Y303524D01*
X773267Y303523D02*
X773194Y303570D01*
X773123Y303619D01*
X773053Y303672D01*
X772987Y303728D01*
X772923Y303787D01*
X772861Y303848D01*
X772803Y303912D01*
X772747Y303979D01*
X772695Y304048D01*
X772645Y304120D01*
X772599Y304194D01*
X772556Y304269D01*
X772517Y304347D01*
X772481Y304426D01*
X772449Y304507D01*
X772420Y304589D01*
X772395Y304672D01*
X772374Y304756D01*
X772357Y304841D01*
X772343Y304927D01*
X772334Y305013D01*
X772328Y305100D01*
X772326Y305187D01*
X772328Y305274D01*
X772334Y305361D01*
X772344Y305447D01*
X772357Y305533D01*
X772375Y305618D01*
X772396Y305702D01*
X772421Y305785D01*
X772450Y305868D01*
X772482Y305948D01*
X772518Y306027D01*
X772557Y306105D01*
X772600Y306180D01*
X772647Y306254D01*
X772696Y306325D01*
X772749Y306395D01*
X772804Y306461D01*
X772863Y306525D01*
X772924Y306587D01*
X772989Y306646D01*
X773055Y306701D01*
X773124Y306754D01*
X773196Y306804D01*
X773269Y306850D01*
X773345Y306893D01*
X773422Y306932D01*
X773501Y306968D01*
X773582Y307001D01*
X773664Y307029D01*
X773747Y307055D01*
X773831Y307076D01*
X773917Y307093D01*
X773917Y307094D02*
X774057Y307118D01*
X774199Y307138D01*
X774340Y307154D01*
X774482Y307165D01*
X774625Y307173D01*
X774767Y307177D01*
X774910Y307178D01*
X775053Y307174D01*
X775195Y307166D01*
X775337Y307154D01*
X775479Y307138D01*
X775620Y307119D01*
X775761Y307095D01*
X775901Y307068D01*
X776040Y307036D01*
X776178Y307001D01*
X776316Y306962D01*
X776452Y306919D01*
X776586Y306873D01*
X776720Y306822D01*
X776852Y306769D01*
X776982Y306711D01*
X777111Y306650D01*
X777238Y306585D01*
X777364Y306517D01*
X777487Y306445D01*
X774891Y302550D02*
X776513Y301576D01*
X776514Y301577D02*
X776587Y301530D01*
X776658Y301481D01*
X776728Y301428D01*
X776794Y301372D01*
X776858Y301313D01*
X776920Y301252D01*
X776978Y301188D01*
X777034Y301121D01*
X777086Y301052D01*
X777136Y300980D01*
X777182Y300906D01*
X777225Y300831D01*
X777264Y300753D01*
X777300Y300674D01*
X777332Y300593D01*
X777361Y300511D01*
X777386Y300428D01*
X777407Y300344D01*
X777424Y300259D01*
X777438Y300173D01*
X777447Y300087D01*
X777453Y300000D01*
X777455Y299913D01*
X777453Y299826D01*
X777447Y299739D01*
X777437Y299653D01*
X777424Y299567D01*
X777406Y299482D01*
X777385Y299398D01*
X777360Y299315D01*
X777331Y299232D01*
X777299Y299152D01*
X777263Y299073D01*
X777224Y298995D01*
X777181Y298920D01*
X777134Y298846D01*
X777085Y298775D01*
X777032Y298705D01*
X776977Y298639D01*
X776918Y298575D01*
X776857Y298513D01*
X776792Y298454D01*
X776726Y298399D01*
X776657Y298346D01*
X776585Y298296D01*
X776512Y298250D01*
X776436Y298207D01*
X776359Y298168D01*
X776280Y298132D01*
X776199Y298099D01*
X776117Y298071D01*
X776034Y298045D01*
X775950Y298024D01*
X775865Y298007D01*
X775864Y298006D02*
X775724Y297982D01*
X775582Y297962D01*
X775441Y297946D01*
X775299Y297935D01*
X775156Y297927D01*
X775014Y297923D01*
X774871Y297922D01*
X774728Y297926D01*
X774586Y297934D01*
X774444Y297946D01*
X774302Y297962D01*
X774161Y297981D01*
X774020Y298005D01*
X773880Y298032D01*
X773741Y298064D01*
X773603Y298099D01*
X773465Y298138D01*
X773329Y298181D01*
X773195Y298227D01*
X773061Y298278D01*
X772929Y298331D01*
X772799Y298389D01*
X772670Y298450D01*
X772543Y298515D01*
X772417Y298583D01*
X772294Y298655D01*
X782313Y305796D02*
X785558Y308392D01*
X785558Y296708D01*
X782313Y296708D02*
X788804Y296708D01*
M02*
