M48
;GenerationSoftware,Autodesk,EAGLE,9.6.2*%
;CreationDate,2020-11-06T04:55:31Z*%
FMAT,2
ICI,OFF
METRIC,TZ,000.000
T5C0.350
T4C0.900
T3C1.000
T2C2.000
T1C2.200
%
G90
M71
T1
X9421Y36839
X9421Y49039
T2
X87884Y34573
X67056Y34573
X67056Y57687
X87884Y57687
T3
X37930Y29210
X3540Y74590
X3540Y70190
X41430Y29210
X44930Y29210
X48430Y29210
X51930Y29210
X55430Y29210
X34430Y29210
X30930Y29210
X16921Y40439
X16921Y42939
X16921Y45439
X2421Y40439
X2421Y45439
X81280Y33430
X78740Y33430
X76200Y33430
X73660Y33430
T4
X38025Y80964
X38025Y78424
X40565Y78424
X40565Y80964
X35485Y80964
X35485Y78424
T5
X29210Y38100
X38100Y38100
X13970Y71120
X10160Y71120
X13970Y72390
X10160Y72390
X40640Y76200
X62230Y73660
X68732Y82550
X52070Y62230
X53340Y83820
X68732Y74930
X66040Y72390
X68732Y72390
X68732Y69850
X45720Y71120
X43180Y38100
X59690Y54610
X57150Y60960
X57150Y59690
X49530Y82550
X41910Y83820
X39370Y36830
X54610Y66040
X39370Y83820
X45720Y78740
X57150Y66040
X21590Y69850
X57150Y64770
X22860Y57150
X41910Y60960
X55880Y82550
X57150Y82550
X33020Y64770
X38100Y64770
X46990Y60960
X68580Y64770
X83820Y64770
X8890Y29210
X10160Y82550
X19050Y63500
X53340Y74930
X43180Y44450
X29210Y44450
X57150Y44450
X28883Y68580
X30480Y68580
X27940Y38100
X44450Y50800
X41910Y38100
X38100Y50800
X24130Y50800
X52070Y50800
X58420Y50800
X55880Y38100
X57150Y50800
X53340Y36830
X43180Y50800
X40640Y69850
X40640Y66040
X60960Y38100
X57150Y38100
X36830Y83820
X60960Y58420
X46990Y38100
X57150Y81280
X49530Y50800
X59690Y58420
X59690Y71120
X59690Y80010
X59690Y50800
X60960Y57150
X45720Y50800
X48260Y53340
X33020Y38100
X35560Y52070
M30